# Blender v2.83.5 OBJ File: 'applered03.blend'
# www.blender.org
mtllib applered03.mtl
o Icosphere
v 0.000215 0.022098 0.037995
v 0.026276 -0.005978 0.016939
v -0.004866 -0.018842 0.016939
v -0.029211 -0.009268 -0.027459
v 0.028797 -0.008499 -0.027459
v 0.017793 0.003512 0.030582
v -0.003464 -0.004751 0.030582
v 0.033150 -0.012851 -0.005260
v 0.019722 -0.020736 -0.005260
v -0.019812 -0.021309 -0.005260
v 0.018358 0.002947 -0.036079
v -0.017395 0.002662 -0.036079
v 0.001872 0.019550 -0.032204
v -0.000222 0.021456 -0.032204
v 0.008139 0.013775 0.004086
v 0.003262 0.018654 -0.005028
v 0.005658 0.016377 0.010782
v 0.001461 0.020576 0.006144
v -0.014031 0.006374 0.030582
v -0.030667 -0.010876 -0.005260
v -0.022514 -0.001878 0.016939
v -0.002242 0.019429 0.005583
v -0.004964 0.016709 -0.005180
v -0.006147 0.015646 0.010893
v -0.009169 0.012626 0.004688
vt 0.683571 0.938384
vt 0.683571 0.938384
vt 0.683571 0.938384
vt 0.683571 0.938384
vt 0.683571 0.938384
vt 0.683571 0.938384
vt 0.683571 0.938384
vt 0.683571 0.938384
vt 0.683571 0.938384
vt 0.683571 0.938384
vt 0.683571 0.938384
vt 0.683571 0.938384
vt 0.683571 0.938384
vt 0.683571 0.938384
vt 0.683571 0.938384
vt 0.683571 0.938384
vt 0.683571 0.938384
vt 0.185107 0.819043
vt 0.185107 0.819043
vt 0.185107 0.819043
vt 0.185107 0.819043
vt 0.933291 0.189933
vt 0.933291 0.189933
vt 0.933291 0.189933
vt 0.933291 0.189933
vt 0.933291 0.189933
vt 0.933291 0.189933
vt 0.933291 0.189933
vt 0.933291 0.189933
vt 0.938648 0.185911
vt 0.938648 0.185911
vt 0.938648 0.185911
vt 0.938648 0.185911
vt 0.938648 0.185911
vt 0.938648 0.185911
vt 0.938648 0.185911
vt 0.185107 0.819043
vt 0.185107 0.819043
vt 0.185107 0.819043
vt 0.185107 0.819043
vn 0.2782 -0.6899 0.6684
vn -0.6081 -0.6326 0.4797
vn 0.0144 -0.9948 0.1008
vn 0.0067 -0.5938 -0.8046
vn 0.0091 0.2137 -0.9769
vn 0.4890 -0.8329 -0.2592
vn 0.1082 -0.2783 0.9544
vn 0.0121 -0.8773 -0.4798
vn -0.5413 -0.5438 0.6413
vn 0.3808 -0.8179 0.4313
vn 0.7125 0.7016 -0.0069
vn -0.6897 -0.7175 -0.0972
vn 0.7226 0.6912 -0.0024
vn -0.2397 -0.2277 0.9438
vn -0.7288 0.6847 -0.0028
vn -0.7004 0.7137 -0.0043
usemtl Material
s off
f 2/1/1 6/2/1 7/3/1 3/4/1
f 21/5/2 20/6/2 10/7/2 3/4/2
f 3/4/3 10/7/3 9/8/3
f 4/9/4 12/10/4 11/11/4 5/12/4
f 11/11/5 12/10/5 14/13/5 13/14/5
f 8/15/6 9/8/6 5/12/6
f 6/2/7 1/16/7 7/3/7
f 10/7/8 4/9/8 5/12/8 9/8/8
f 19/17/9 21/5/9 3/4/9 7/3/9
f 8/15/10 2/1/10 3/4/10 9/8/10
f 15/18/11 16/19/11 18/20/11 17/21/11
f 10/7/12 20/6/12 4/9/12
f 6/22/13 2/23/13 8/24/13 5/25/13 11/26/13 13/27/13 14/28/13 1/29/13
f 7/3/14 1/16/14 19/17/14
f 4/30/15 20/31/15 21/32/15 19/33/15 1/34/15 14/35/15 12/36/15
f 22/37/16 23/38/16 25/39/16 24/40/16
