# Blender v2.83.5 OBJ File: 'applered02.blend'
# www.blender.org
mtllib applered02.mtl
o Icosphere
v -0.000093 0.019703 0.039828
v 0.038900 0.018990 0.018771
v -0.040302 0.018990 0.018771
v -0.022974 -0.013095 0.018771
v 0.025975 -0.012127 0.018771
v -0.041362 0.018990 -0.025626
v 0.001991 -0.022572 -0.025626
v 0.042465 0.018990 -0.025626
v 0.025479 0.018990 0.032414
v 0.017003 -0.001172 0.032414
v -0.026463 0.018990 0.032414
v -0.015099 -0.001807 0.032415
v 0.048620 0.018990 -0.003428
v 0.040671 -0.006984 -0.003428
v -0.038148 -0.008542 -0.003428
v -0.048806 0.018172 -0.003428
v 0.017151 -0.024440 -0.003428
v -0.012955 -0.025035 -0.003428
v 0.026278 0.018990 -0.034247
v -0.025665 0.018990 -0.034247
v 0.001198 -0.006492 -0.034247
v 0.002880 0.019073 -0.030371
v -0.002976 0.018957 -0.030371
v 0.000053 0.018940 -0.030371
v -0.005272 0.019310 0.007604
v -0.008647 0.019312 -0.003305
v -0.010680 0.019396 0.012717
v -0.014780 0.019398 0.006397
v 0.011396 0.019421 0.005919
v 0.004497 0.019423 -0.003195
v 0.007801 0.019507 0.012614
v 0.001865 0.019508 0.007976
vt 0.683571 0.938384
vt 0.683571 0.938384
vt 0.683571 0.938384
vt 0.683571 0.938384
vt 0.683571 0.938384
vt 0.683571 0.938384
vt 0.683571 0.938384
vt 0.683571 0.938384
vt 0.683571 0.938384
vt 0.683571 0.938384
vt 0.683571 0.938384
vt 0.683571 0.938384
vt 0.683571 0.938384
vt 0.683571 0.938384
vt 0.683571 0.938384
vt 0.683571 0.938384
vt 0.683571 0.938384
vt 0.683571 0.938384
vt 0.683571 0.938384
vt 0.683571 0.938384
vt 0.683571 0.938384
vt 0.683571 0.938384
vt 0.683571 0.938384
vt 0.683571 0.938384
vt 0.933291 0.189933
vt 0.933291 0.189933
vt 0.933291 0.189933
vt 0.933291 0.189933
vt 0.933291 0.189933
vt 0.933291 0.189933
vt 0.933291 0.189933
vt 0.933291 0.189933
vt 0.933291 0.189933
vt 0.933291 0.189933
vt 0.933291 0.189933
vt 0.933291 0.189933
vt 0.933291 0.189933
vt 0.933291 0.189933
vt 0.185107 0.819043
vt 0.185107 0.819043
vt 0.185107 0.819043
vt 0.185107 0.819043
vt 0.185107 0.819043
vt 0.185107 0.819043
vt 0.185107 0.819043
vt 0.185107 0.819043
vn 0.6819 -0.2846 0.6738
vn -0.2642 -0.1444 0.9536
vn 0.0065 -0.3299 0.9440
vn -0.8248 -0.3926 0.4069
vn 0.0173 -0.8773 0.4797
vn -0.5368 -0.8200 0.1988
vn 0.5834 -0.7861 0.2041
vn -0.4269 -0.4471 -0.7860
vn 0.4243 -0.4149 -0.8049
vn -0.1447 0.1576 -0.9769
vn 0.1471 0.1724 -0.9740
vn 0.0197 -0.9951 -0.0972
vn -0.8833 -0.3524 -0.3092
vn 0.9243 -0.2829 -0.2563
vn 0.2736 -0.1150 0.9549
vn 0.5645 -0.6121 -0.5538
vn -0.5329 -0.6292 -0.5659
vn -0.6544 -0.3550 0.6676
vn 0.0153 -0.7747 0.6321
vn 0.8478 -0.3100 0.4303
vn -0.0032 1.0000 -0.0032
vn 0.0097 0.9999 -0.0040
vn 0.0077 0.9999 -0.0069
usemtl Material
s off
f 2/1/1 9/2/1 10/3/1 5/4/1
f 1/5/2 11/6/2 12/7/2
f 1/5/3 12/7/3 10/3/3
f 3/8/4 16/9/4 15/10/4 4/11/4
f 4/11/5 18/12/5 17/13/5 5/4/5
f 4/11/6 15/10/6 18/12/6
f 5/4/7 17/13/7 14/14/7
f 6/15/8 20/16/8 21/17/8 7/18/8
f 7/18/9 21/17/9 19/19/9 8/20/9
f 19/19/10 21/17/10 24/21/10 22/22/10
f 21/17/11 20/16/11 23/23/11 24/21/11
f 17/13/12 18/12/12 7/18/12
f 15/10/13 16/9/13 6/15/13
f 13/24/14 14/14/14 8/20/14
f 9/2/15 1/5/15 10/3/15
f 17/13/16 7/18/16 8/20/16 14/14/16
f 15/10/17 6/15/17 7/18/17 18/12/17
f 11/6/18 3/8/18 4/11/18 12/7/18
f 12/7/19 4/11/19 5/4/19 10/3/19
f 13/24/20 2/1/20 5/4/20 14/14/20
f 9/25/21 2/26/21 13/27/21 8/28/21 19/29/21 22/30/21 24/31/21 23/32/21 20/33/21 6/34/21 16/35/21 3/36/21 11/37/21 1/38/21
f 25/39/22 26/40/22 28/41/22 27/42/22
f 29/43/23 30/44/23 32/45/23 31/46/23
