# Blender v2.83.5 OBJ File: 'applered01.blend'
# www.blender.org
mtllib applered01.mtl
o Icosphere
v -0.000158 -0.041911 0.000492
v 0.033690 -0.020855 0.023880
v -0.013086 -0.020855 0.038335
v -0.041996 -0.020855 0.000492
v -0.013086 -0.020855 -0.037351
v 0.033690 -0.020855 -0.022896
v 0.013526 0.023543 0.040545
v -0.035982 0.023543 0.025246
v -0.035982 0.023543 -0.024262
v 0.013526 0.023543 -0.039561
v 0.044124 0.023542 0.000492
v 0.000798 0.028288 0.003290
v -0.008636 -0.034498 0.025310
v 0.022041 -0.034498 0.015830
v 0.022041 -0.034498 -0.014847
v -0.027596 -0.034498 0.000492
v -0.008636 -0.034498 -0.024327
v 0.046393 0.001344 0.014877
v 0.046393 0.001344 -0.013893
v -0.000158 0.001344 0.047042
v 0.028612 0.001344 0.038152
v -0.046708 0.001344 0.014877
v -0.028927 0.001344 0.038152
v -0.028927 0.001344 -0.037168
v -0.046708 0.001344 -0.013893
v 0.028612 0.001344 -0.037168
v -0.000158 0.001344 -0.046059
v 0.008321 0.032163 0.025310
v 0.027281 0.032163 0.000492
v -0.022356 0.032163 0.015830
v -0.022356 0.032163 -0.014847
v 0.008321 0.032163 -0.024327
v 0.002936 0.028288 0.000492
v -0.002660 0.028288 0.002221
v -0.002660 0.028288 -0.001238
v 0.000798 0.028288 -0.002306
v 0.000607 0.054428 0.011249
v 0.002316 0.056015 0.009672
v -0.002159 0.055034 0.010647
v -0.002159 0.056996 0.008698
v 0.000607 0.057602 0.008096
v 0.005497 0.047165 -0.009683
v 0.015939 0.043478 -0.010630
v -0.015729 0.044508 -0.009701
v -0.003939 0.040973 -0.013445
v 0.006618 0.042182 -0.011222
v -0.000196 0.055971 -0.025670
v 0.013332 0.054739 -0.026035
v -0.013089 0.055599 -0.025260
v -0.001818 0.054212 -0.026504
v 0.004123 0.054056 -0.026296
v 0.000079 0.055000 -0.044931
v 0.004304 0.054616 -0.045045
v -0.003948 0.054884 -0.044803
v -0.000427 0.054451 -0.045192
v 0.001428 0.054403 -0.045127
v -0.005713 0.047118 -0.009139
vt 0.685590 0.936533
vt 0.685590 0.936533
vt 0.685590 0.936533
vt 0.685590 0.936533
vt 0.685590 0.936533
vt 0.685590 0.936533
vt 0.685590 0.936533
vt 0.685590 0.936533
vt 0.685590 0.936533
vt 0.685590 0.936533
vt 0.685590 0.936533
vt 0.685590 0.936533
vt 0.685590 0.936533
vt 0.685590 0.936533
vt 0.685590 0.936533
vt 0.685590 0.936533
vt 0.685590 0.936533
vt 0.685590 0.936533
vt 0.685590 0.936533
vt 0.685590 0.936533
vt 0.685590 0.936533
vt 0.685590 0.936533
vt 0.685590 0.936533
vt 0.685590 0.936533
vt 0.685590 0.936533
vt 0.685590 0.936533
vt 0.685590 0.936533
vt 0.685590 0.936533
vt 0.685590 0.936533
vt 0.685590 0.936533
vt 0.685590 0.936533
vt 0.685590 0.936533
vt 0.685590 0.936533
vt 0.685590 0.936533
vt 0.687000 0.815233
vt 0.687000 0.815233
vt 0.687000 0.815233
vt 0.687000 0.815233
vt 0.685590 0.936533
vt 0.685590 0.936533
vt 0.312000 0.815233
vt 0.312000 0.815233
vt 0.312000 0.815233
vt 0.312000 0.815233
vt 0.312000 0.815233
vt 0.687000 0.815233
vt 0.687000 0.815233
vt 0.687000 0.815233
vt 0.687000 0.815233
vt 0.687000 0.815233
vt 0.687000 0.815233
vt 0.683345 0.564737
vt 0.683345 0.564737
vt 0.683345 0.564737
vt 0.683345 0.564737
vt 0.683345 0.564737
vt 0.683345 0.564737
vt 0.683345 0.564737
vt 0.683345 0.564737
vt 0.683345 0.564737
vt 0.683345 0.564737
vt 0.683345 0.564737
vt 0.683345 0.564737
vt 0.683345 0.564737
vt 0.683345 0.564737
vt 0.683345 0.564737
vt 0.683345 0.564737
vt 0.683345 0.564737
vt 0.683345 0.564737
vt 0.683345 0.564737
vn 0.0974 -0.9440 0.3152
vn 0.7605 -0.6494 0.0000
vn -0.2558 -0.9468 0.1954
vn -0.2558 -0.9468 -0.1954
vn 0.0974 -0.9440 -0.3152
vn 0.2591 -0.4797 0.8383
vn -0.6927 -0.4900 0.5292
vn -0.6927 -0.4900 -0.5292
vn 0.2591 -0.4797 -0.8383
vn 0.7779 -0.2041 0.5943
vn -0.2894 -0.1988 0.9364
vn -0.9782 -0.2077 0.0000
vn -0.2894 -0.1988 -0.9364
vn 0.7779 -0.2041 -0.5943
vn 0.4303 0.8407 0.3287
vn -0.1630 0.8338 0.5275
vn -0.5346 0.8451 0.0000
vn -0.1630 0.8338 -0.5275
vn 0.4303 0.8407 -0.3287
vn 0.0596 0.9794 -0.1927
vn 0.1931 0.9812 0.0000
vn 0.7703 -0.1828 0.6110
vn -0.1561 0.9805 0.1192
vn 0.0596 0.9794 0.1927
vn 0.2938 0.0972 -0.9509
vn -0.7907 0.0999 -0.6040
vn -0.7907 0.0999 0.6040
vn 0.2938 0.0972 0.9509
vn 0.9948 0.1017 0.0000
vn 0.3168 -0.9485 0.0000
vn 0.7179 0.4288 -0.5484
vn -0.2681 0.4191 -0.8674
vn -0.9004 0.4351 0.0000
vn -0.2681 0.4191 0.8674
vn 0.7179 0.4288 0.5484
vn 0.2288 -0.6321 0.7403
vn -0.6089 -0.6426 0.4651
vn -0.6089 -0.6426 -0.4651
vn 0.2288 -0.6321 -0.7403
vn 0.8679 -0.4967 0.0000
vn -0.1561 0.9805 -0.1192
vn 0.0000 0.7048 0.7094
vn -0.2746 0.3194 -0.9070
vn 0.7708 0.2167 -0.5991
vn -0.9999 0.0162 0.0059
vn -0.2743 -0.2831 0.9190
vn 0.1175 -0.6301 -0.7676
vn 0.2807 -0.6610 -0.6959
vn -0.4000 -0.6561 -0.6399
vn 0.0195 0.8787 0.4770
vn -0.1245 -0.9920 -0.0219
vn 0.1118 -0.7824 -0.6126
vn -0.2904 -0.7047 -0.6474
vn 0.2009 0.8486 0.4894
vn 0.1443 -0.7373 -0.6600
vn -0.0080 0.3949 -0.9187
vn 0.0892 0.9948 -0.0488
vn -0.0257 -0.9996 -0.0147
vn -0.0304 0.9983 -0.0507
vn 0.0748 -0.9968 -0.0290
vn 0.0439 0.3541 0.9342
vn -0.1148 0.8565 0.5031
vn 0.0091 0.4735 0.8807
vn -0.0391 0.3813 0.9236
vn 0.5280 -0.7473 -0.4034
usemtl Material
s off
f 1/1/1 14/2/1 13/3/1
f 2/4/2 14/2/2 15/5/2 6/6/2
f 1/1/3 13/3/3 16/7/3
f 1/1/4 16/7/4 17/8/4
f 1/1/5 17/8/5 15/5/5
f 2/4/6 21/9/6 20/10/6 3/11/6
f 3/11/7 23/12/7 22/13/7 4/14/7
f 4/14/8 25/15/8 24/16/8 5/17/8
f 5/17/9 27/18/9 26/19/9 6/6/9
f 2/4/10 18/20/10 21/9/10
f 3/11/11 20/10/11 23/12/11
f 4/14/12 22/13/12 25/15/12
f 5/17/13 24/16/13 27/18/13
f 6/6/14 26/19/14 19/21/14
f 11/22/15 29/23/15 28/24/15 7/25/15
f 7/25/16 28/24/16 30/26/16 8/27/16
f 8/27/17 30/26/17 31/28/17 9/29/17
f 9/29/18 31/28/18 32/30/18 10/31/18
f 10/31/19 32/30/19 29/23/19 11/22/19
f 30/26/20 28/24/20 12/32/20 34/33/20
f 31/28/21 30/26/21 34/33/21 35/34/21
f 12/35/22 33/36/22 38/37/22 37/38/22
f 29/23/23 32/30/23 36/39/23 33/40/23
f 32/30/24 31/28/24 35/34/24 36/39/24
f 26/19/25 27/18/25 10/31/25
f 24/16/26 25/15/26 9/29/26
f 22/13/27 23/12/27 8/27/27
f 20/10/28 21/9/28 7/25/28
f 18/20/29 19/21/29 11/22/29
f 14/2/30 1/1/30 15/5/30
f 26/19/31 10/31/31 11/22/31 19/21/31
f 24/16/32 9/29/32 10/31/32 27/18/32
f 22/13/33 8/27/33 9/29/33 25/15/33
f 20/10/34 7/25/34 8/27/34 23/12/34
f 18/20/35 11/22/35 7/25/35 21/9/35
f 14/2/36 2/4/36 3/11/36 13/3/36
f 13/3/37 3/11/37 4/14/37 16/7/37
f 16/7/38 4/14/38 5/17/38 17/8/38
f 17/8/39 5/17/39 6/6/39 15/5/39
f 18/20/40 2/4/40 6/6/40 19/21/40
f 28/24/41 29/23/41 33/40/41 12/32/41
f 38/41/42 41/42/42 40/43/42 39/44/42 37/45/42
f 36/46/43 35/47/43 40/48/43 41/49/43
f 33/36/44 36/46/44 41/49/44 38/37/44
f 35/47/45 34/50/45 39/51/45 40/48/45
f 34/50/46 12/35/46 37/38/46 39/51/46
f 35/52/47 45/53/47 46/54/47 36/55/47
f 36/55/48 46/54/48 43/56/48 33/57/48
f 44/58/49 45/53/49 35/52/49
f 57/59/50 42/60/50 47/61/50
f 50/62/51 49/63/51 54/64/51 55/65/51
f 43/56/52 46/54/52 51/66/52 48/67/52
f 45/53/53 44/58/53 49/63/53 50/62/53
f 42/60/54 43/56/54 48/67/54 47/61/54
f 46/54/55 45/53/55 50/62/55 51/66/55
f 52/68/56 53/69/56 56/70/56 55/65/56 54/64/56
f 47/61/57 48/67/57 53/69/57 52/68/57
f 51/66/58 50/62/58 55/65/58 56/70/58
f 49/63/59 47/61/59 52/68/59 54/64/59
f 48/67/60 51/66/60 56/70/60 53/69/60
f 36/55/61 42/60/61 57/59/61
f 44/58/62 57/59/62 47/61/62 49/63/62
f 43/56/63 42/60/63 36/55/63 33/57/63
f 35/52/64 36/55/64 57/59/64 44/58/64
f 33/57/65 36/55/65 43/56/65
