# Blender v2.83.5 OBJ File: 'aubergine02.blend'
# www.blender.org
mtllib aubergine02.mtl
o Cylinder.001
v -0.012957 0.031281 0.004397
v 0.012957 0.031281 0.004397
v 0.031281 0.012957 0.004397
v 0.031281 -0.012957 0.004397
v 0.012957 -0.031281 0.004397
v -0.012957 -0.031281 0.004397
v -0.031281 -0.012957 0.004397
v -0.031281 0.012957 0.004397
v -0.031281 0.012957 -0.004397
v -0.031281 -0.012957 -0.004397
v -0.012957 -0.031281 -0.004397
v 0.012957 -0.031281 -0.004397
v 0.031281 -0.012957 -0.004397
v 0.031281 0.012957 -0.004397
v 0.012957 0.031281 -0.004397
v -0.012957 0.031281 -0.004397
vt 0.062500 0.317500
vt 0.062500 0.317500
vt 0.062500 0.317500
vt 0.062500 0.317500
vt 0.937500 0.192500
vt 0.937500 0.192500
vt 0.937500 0.192500
vt 0.937500 0.192500
vt 0.937500 0.192500
vt 0.937500 0.192500
vt 0.937500 0.192500
vt 0.937500 0.192500
vt 0.062500 0.317500
vt 0.062500 0.317500
vt 0.062500 0.317500
vt 0.062500 0.317500
vt 0.062500 0.317500
vt 0.062500 0.317500
vt 0.062500 0.317500
vt 0.062500 0.317500
vt 0.062500 0.317500
vt 0.062500 0.317500
vt 0.062500 0.317500
vt 0.062500 0.317500
vt 0.937500 0.192500
vt 0.937500 0.192500
vt 0.937500 0.192500
vt 0.937500 0.192500
vt 0.937500 0.192500
vt 0.937500 0.192500
vt 0.937500 0.192500
vt 0.937500 0.192500
vn -0.7071 -0.7071 0.0000
vn 0.0000 0.0000 -1.0000
vn -0.0000 -1.0000 0.0000
vn -0.0000 1.0000 0.0000
vn 0.7071 -0.7071 0.0000
vn 0.7071 0.7071 0.0000
vn -0.7071 0.7071 0.0000
vn 1.0000 0.0000 0.0000
vn -1.0000 -0.0000 0.0000
vn 0.0000 0.0000 1.0000
usemtl Material
s off
f 6/1/1 7/2/1 10/3/1 11/4/1
f 16/5/2 15/6/2 14/7/2 13/8/2 12/9/2 11/10/2 10/11/2 9/12/2
f 5/13/3 6/1/3 11/4/3 12/14/3
f 1/15/4 2/16/4 15/17/4 16/18/4
f 4/19/5 5/13/5 12/14/5 13/20/5
f 2/16/6 3/21/6 14/22/6 15/17/6
f 8/23/7 1/15/7 16/18/7 9/24/7
f 3/21/8 4/19/8 13/20/8 14/22/8
f 7/2/9 8/23/9 9/24/9 10/3/9
f 1/25/10 8/26/10 7/27/10 6/28/10 5/29/10 4/30/10 3/31/10 2/32/10
