# Blender v2.83.5 OBJ File: 'avocado01.blend'
# www.blender.org
mtllib avocado01.mtl
o Cylinder.001
v -0.002847 -0.000000 -0.029425
v 0.013995 0.000000 -0.029425
v -0.002847 -0.020191 -0.020806
v 0.013995 -0.020191 -0.020806
v -0.002847 -0.028555 0.000000
v 0.013995 -0.028555 0.000000
v -0.002847 -0.020191 0.020806
v 0.013995 -0.020191 0.020806
v -0.002847 0.000000 0.029425
v 0.013995 0.000000 0.029425
v -0.002847 0.020191 0.020806
v 0.013995 0.020191 0.020806
v -0.002847 0.028555 -0.000000
v 0.013995 0.028555 -0.000000
v -0.002847 0.020191 -0.020806
v 0.013995 0.020191 -0.020806
v 0.040476 0.007254 -0.007475
v 0.040476 0.010259 -0.000000
v 0.040476 0.007254 0.007475
v 0.040476 0.000000 0.010572
v 0.040476 -0.007254 0.007475
v 0.040476 -0.010259 0.000000
v 0.040476 -0.007254 -0.007475
v 0.040476 0.000000 -0.010572
v 0.030780 0.000000 -0.023894
v 0.030780 -0.016396 -0.016896
v 0.030780 -0.023188 0.000000
v 0.030780 -0.016396 0.016896
v 0.030780 0.000000 0.023894
v 0.030780 0.016396 0.016896
v 0.030780 0.023188 -0.000000
v 0.030780 0.016396 -0.016896
v -0.030116 0.015566 -0.016040
v -0.030116 0.022013 -0.000000
v -0.030116 0.015566 0.016040
v -0.030116 0.000000 0.022684
v -0.030116 -0.015566 0.016040
v -0.030116 -0.022013 0.000000
v -0.030116 -0.015566 -0.016040
v -0.030116 -0.000000 -0.022684
v 0.040476 0.000000 -0.010572
v 0.040476 -0.007254 -0.007475
v 0.040476 -0.010259 0.000000
v 0.040476 -0.007254 0.007475
v 0.040476 0.000000 0.010572
v 0.040476 0.007254 0.007475
v 0.040476 0.010259 -0.000000
v 0.040476 0.007254 -0.007475
v -0.046283 0.009592 -0.009884
v -0.046283 0.013565 -0.000000
v -0.046283 0.009592 0.009884
v -0.046283 -0.000000 0.013978
v -0.046283 -0.009592 0.009884
v -0.046283 -0.013565 0.000000
v -0.046283 -0.009592 -0.009884
v -0.046283 -0.000000 -0.013978
v -0.051286 0.004333 -0.000535
v -0.050064 0.006128 0.003759
v -0.049094 0.004333 0.008054
v -0.048642 -0.000000 0.009833
v -0.049148 -0.004333 0.008054
v -0.050064 -0.006128 0.003759
v -0.051286 -0.004333 -0.000535
v -0.051792 -0.000000 -0.002314
v -0.052060 0.001877 0.001820
v -0.052300 -0.000179 0.000976
v -0.051481 0.002728 0.003857
v -0.051020 0.001877 0.005895
v -0.050806 -0.000179 0.006739
v -0.051046 -0.002234 0.005895
v -0.051481 -0.003086 0.003857
v -0.052060 -0.002234 0.001820
v -0.051298 0.000869 0.002844
v -0.051408 -0.000073 0.002457
v -0.051033 0.001260 0.003777
v -0.050822 0.000869 0.004711
v -0.050723 -0.000073 0.005098
v -0.050833 -0.001015 0.004711
v -0.051033 -0.001405 0.003777
v -0.051298 -0.001015 0.002844
vt 0.062500 0.567500
vt 0.062500 0.567500
vt 0.062500 0.567500
vt 0.062500 0.567500
vt 0.062500 0.567500
vt 0.062500 0.567500
vt 0.062500 0.567500
vt 0.062500 0.567500
vt 0.062500 0.567500
vt 0.062500 0.567500
vt 0.062500 0.567500
vt 0.062500 0.567500
vt 0.062500 0.567500
vt 0.062500 0.567500
vt 0.062500 0.567500
vt 0.062500 0.567500
vt 0.062500 0.567500
vt 0.062500 0.567500
vt 0.062500 0.567500
vt 0.062500 0.567500
vt 0.062500 0.567500
vt 0.062500 0.567500
vt 0.062500 0.567500
vt 0.062500 0.567500
vt 0.062500 0.567500
vt 0.062500 0.567500
vt 0.062500 0.567500
vt 0.062500 0.567500
vt 0.062500 0.567500
vt 0.062500 0.567500
vt 0.062500 0.567500
vt 0.062500 0.567500
vt 0.062500 0.567500
vt 0.062500 0.567500
vt 0.062500 0.567500
vt 0.062500 0.567500
vt 0.062500 0.567500
vt 0.062500 0.567500
vt 0.062500 0.567500
vt 0.062500 0.567500
vt 0.062500 0.567500
vt 0.062500 0.567500
vt 0.062500 0.567500
vt 0.062500 0.567500
vt 0.062500 0.567500
vt 0.062500 0.567500
vt 0.062500 0.567500
vt 0.062500 0.567500
vt 0.062500 0.567500
vt 0.062500 0.567500
vt 0.062500 0.567500
vt 0.062500 0.567500
vt 0.062500 0.567500
vt 0.062500 0.567500
vt 0.062500 0.567500
vt 0.062500 0.567500
vt 0.062500 0.567500
vt 0.062500 0.567500
vt 0.062500 0.567500
vt 0.062500 0.567500
vt 0.062500 0.567500
vt 0.062500 0.567500
vt 0.062500 0.567500
vt 0.062500 0.567500
vt 0.062500 0.567500
vt 0.062500 0.567500
vt 0.062500 0.567500
vt 0.062500 0.567500
vt 0.062500 0.567500
vt 0.062500 0.567500
vt 0.062500 0.567500
vt 0.062500 0.567500
vt 0.062500 0.567500
vt 0.062500 0.567500
vt 0.062500 0.817500
vt 0.062500 0.817500
vt 0.062500 0.817500
vt 0.062500 0.817500
vt 0.062500 0.817500
vt 0.062500 0.817500
vt 0.062500 0.817500
vt 0.062500 0.817500
vt 0.062500 0.567500
vt 0.062500 0.567500
vt 0.062500 0.567500
vt 0.062500 0.567500
vt 0.062500 0.567500
vt 0.062500 0.567500
vn 0.0000 -0.3926 -0.9197
vn 0.0000 -0.9278 -0.3730
vn 0.0000 -0.9278 0.3730
vn 0.0000 -0.3926 0.9197
vn -0.0000 0.3926 0.9197
vn -0.0000 0.9278 0.3730
vn 0.0000 0.0000 1.0000
vn -0.0000 0.9278 -0.3730
vn -0.0000 0.3926 -0.9197
vn -0.2217 -0.3828 0.8968
vn 0.2844 -0.8895 -0.3576
vn 0.2844 0.8895 -0.3576
vn 0.2900 -0.3757 0.8802
vn 0.2844 0.8895 0.3576
vn 0.2844 -0.8895 0.3576
vn 0.2900 -0.3757 -0.8802
vn 0.2900 0.3757 -0.8802
vn 0.2900 0.3757 0.8802
vn -0.4363 -0.8349 -0.3356
vn 0.7842 -0.2436 -0.5707
vn 0.7777 -0.5833 0.2345
vn 0.7842 0.2436 0.5707
vn 0.7777 0.5833 -0.2345
vn 0.7777 -0.5833 -0.2345
vn 0.7842 -0.2436 0.5707
vn 0.7777 0.5833 0.2345
vn 0.7842 0.2436 -0.5707
vn 1.0000 0.0000 0.0000
vn -0.2173 0.9057 -0.3641
vn -0.2173 -0.9057 -0.3641
vn -0.2217 0.3828 0.8968
vn -0.2217 0.3828 -0.8968
vn -0.2217 -0.3828 -0.8968
vn -0.2173 -0.9057 0.3641
vn -0.2173 0.9057 0.3641
vn -0.8210 0.1990 0.5351
vn -0.4438 -0.3518 0.8242
vn -0.4363 0.8349 0.3356
vn -0.4438 0.3518 -0.8242
vn -0.4438 -0.3518 -0.8242
vn -0.4363 -0.8349 0.3356
vn -0.4438 0.3518 0.8242
vn -0.4363 0.8349 -0.3356
vn -0.9708 -0.1790 -0.1597
vn -0.8700 0.4784 -0.1196
vn -0.8700 -0.4784 -0.1196
vn -0.8177 -0.1982 0.5404
vn -0.8429 0.4758 0.2512
vn -0.8953 0.2003 -0.3978
vn -0.8953 -0.2003 -0.3978
vn -0.8420 -0.4786 0.2491
vn -0.9511 -0.2951 0.0916
vn -0.8450 -0.4048 0.3494
vn -0.8147 0.1455 0.5614
vn -0.9174 0.3852 0.1000
vn -0.9026 -0.4229 0.0801
vn -0.8074 -0.1409 0.5729
vn -0.8615 0.3690 0.3489
vn -0.9749 0.1719 -0.1413
vn -0.9688 0.0015 0.2477
vn -0.8473 -0.1140 0.5187
vn -0.8549 0.1084 0.5073
vn -0.9607 0.2606 0.0960
vn -0.9902 -0.1271 -0.0580
vn -0.8820 -0.2893 0.3719
vn -0.8963 0.2561 0.3620
vn -0.9903 0.1326 -0.0412
usemtl Material.002
s off
f 1/1/1 2/2/1 4/3/1 3/4/1
f 3/4/2 4/3/2 6/5/2 5/6/2
f 5/6/3 6/5/3 8/7/3 7/8/3
f 7/8/4 8/7/4 10/9/4 9/10/4
f 9/10/5 10/9/5 12/11/5 11/12/5
f 11/12/6 12/11/6 14/13/6 13/14/6
f 19/15/7 20/16/7 45/17/7 46/18/7
f 13/14/8 14/13/8 16/19/8 15/20/8
f 15/20/9 16/19/9 2/2/9 1/1/9
f 7/8/10 9/10/10 36/21/10 37/22/10
f 6/5/11 4/3/11 26/23/11 27/24/11
f 16/19/12 14/13/12 31/25/12 32/26/12
f 10/9/13 8/7/13 28/27/13 29/28/13
f 14/13/14 12/11/14 30/29/14 31/25/14
f 8/7/15 6/5/15 27/24/15 28/27/15
f 4/3/16 2/2/16 25/30/16 26/23/16
f 2/2/17 16/19/17 32/26/17 25/30/17
f 12/11/18 10/9/18 29/28/18 30/29/18
f 39/31/19 38/32/19 54/33/19 55/34/19
f 26/23/20 25/30/20 24/35/20 23/36/20
f 28/27/21 27/24/21 22/37/21 21/38/21
f 30/29/22 29/28/22 20/16/22 19/15/22
f 32/26/23 31/25/23 18/39/23 17/40/23
f 27/24/24 26/23/24 23/36/24 22/37/24
f 29/28/25 28/27/25 21/38/25 20/16/25
f 31/25/26 30/29/26 19/15/26 18/39/26
f 25/30/27 32/26/27 17/40/27 24/35/27
f 42/41/28 41/42/28 48/43/28 47/44/28 46/18/28 45/17/28 44/45/28 43/46/28
f 24/35/7 17/40/7 48/43/7 41/42/7
f 23/36/7 24/35/7 41/42/7 42/41/7
f 21/38/7 22/37/7 43/46/7 44/45/7
f 18/39/7 19/15/7 46/18/7 47/44/7
f 20/16/7 21/38/7 44/45/7 45/17/7
f 17/40/7 18/39/7 47/44/7 48/43/7
f 22/37/7 23/36/7 42/41/7 43/46/7
f 13/14/29 15/20/29 33/47/29 34/48/29
f 3/4/30 5/6/30 38/32/30 39/31/30
f 9/10/31 11/12/31 35/49/31 36/21/31
f 15/20/32 1/1/32 40/50/32 33/47/32
f 1/1/33 3/4/33 39/31/33 40/50/33
f 5/6/34 7/8/34 37/22/34 38/32/34
f 11/12/35 13/14/35 34/48/35 35/49/35
f 52/51/36 51/52/36 59/53/36 60/54/36
f 37/22/37 36/21/37 52/51/37 53/55/37
f 35/49/38 34/48/38 50/56/38 51/52/38
f 33/47/39 40/50/39 56/57/39 49/58/39
f 40/50/40 39/31/40 55/34/40 56/57/40
f 38/32/41 37/22/41 53/55/41 54/33/41
f 36/21/42 35/49/42 51/52/42 52/51/42
f 34/48/43 33/47/43 49/58/43 50/56/43
f 64/59/44 63/60/44 72/61/44 66/62/44
f 50/56/45 49/58/45 57/63/45 58/64/45
f 55/34/46 54/33/46 62/65/46 63/60/46
f 53/55/47 52/51/47 60/54/47 61/66/47
f 51/52/48 50/56/48 58/64/48 59/53/48
f 49/58/49 56/57/49 64/59/49 57/63/49
f 56/57/50 55/34/50 63/60/50 64/59/50
f 54/33/51 53/55/51 61/66/51 62/65/51
f 68/67/52 67/68/52 75/69/52 76/70/52
f 62/65/53 61/66/53 70/71/53 71/72/53
f 60/54/54 59/53/54 68/67/54 69/73/54
f 58/64/55 57/63/55 65/74/55 67/68/55
f 63/60/56 62/65/56 71/72/56 72/61/56
f 61/66/57 60/54/57 69/73/57 70/71/57
f 59/53/58 58/64/58 67/68/58 68/67/58
f 57/63/59 64/59/59 66/62/59 65/74/59
f 74/75/60 80/76/60 79/77/60 78/78/60 77/79/60 76/80/60 75/81/60 73/82/60
f 65/74/61 66/62/61 74/83/61 73/84/61
f 66/62/62 72/61/62 80/85/62 74/83/62
f 71/72/63 70/71/63 78/86/63 79/87/63
f 69/73/64 68/67/64 76/70/64 77/88/64
f 67/68/65 65/74/65 73/84/65 75/69/65
f 72/61/66 71/72/66 79/87/66 80/85/66
f 70/71/67 69/73/67 77/88/67 78/86/67
