# Blender v2.83.5 OBJ File: 'banana02.blend'
# www.blender.org
mtllib banana02.mtl
o Cylinder
v -0.032251 0.022569 0.024834
v -0.040516 0.022098 0.057309
v -0.010950 0.011285 0.032488
v -0.018494 0.011111 0.060140
v -0.010950 -0.011285 0.032488
v -0.018346 -0.010986 0.059543
v -0.032251 -0.022569 0.024834
v -0.040220 -0.022098 0.056115
v -0.053551 -0.011285 0.017180
v -0.062242 -0.011111 0.053284
v -0.053551 0.011285 0.017180
v -0.062390 0.010986 0.053881
v -0.011190 0.021244 -0.017186
v 0.000706 0.011638 0.002897
v 0.000706 -0.011638 0.002897
v -0.011190 -0.021244 -0.017186
v -0.023097 -0.011638 -0.030934
v -0.023097 0.011638 -0.030934
v 0.020604 0.014137 -0.031887
v 0.022881 0.007068 -0.017894
v 0.022881 -0.007068 -0.017894
v 0.020604 -0.014137 -0.031887
v 0.018327 -0.007068 -0.045880
v 0.018327 0.007068 -0.045880
v 0.029203 0.007242 -0.032012
v 0.030370 0.003621 -0.024844
v 0.030370 -0.003621 -0.024844
v 0.029203 -0.007242 -0.032012
v 0.028037 -0.003621 -0.039181
v 0.028037 0.003621 -0.039181
v 0.042695 0.005159 -0.034208
v 0.043526 0.002579 -0.029101
v 0.043526 -0.002579 -0.029101
v 0.042695 -0.005159 -0.034208
v 0.041864 -0.002579 -0.039314
v 0.041864 0.002579 -0.039314
v 0.047933 0.005159 -0.035060
v 0.047933 -0.005159 -0.035060
v 0.047102 -0.002579 -0.040167
v 0.047102 0.002579 -0.040167
v -0.058244 0.008918 0.054414
v -0.058124 -0.009019 0.053929
v -0.040248 -0.017937 0.056227
v -0.022493 -0.008918 0.059010
v -0.040488 0.017937 0.057196
v -0.022613 0.009019 0.059494
vt 0.686354 0.687040
vt 0.686354 0.687040
vt 0.686354 0.687040
vt 0.686354 0.687040
vt 0.686354 0.687040
vt 0.686354 0.687040
vt 0.686354 0.687040
vt 0.686354 0.687040
vt 0.686354 0.687040
vt 0.686354 0.687040
vt 0.686354 0.687040
vt 0.686354 0.687040
vt 0.686354 0.687040
vt 0.686354 0.687040
vt 0.686354 0.687040
vt 0.686354 0.687040
vt 0.686354 0.687040
vt 0.686354 0.687040
vt 0.686354 0.687040
vt 0.686354 0.687040
vt 0.686354 0.687040
vt 0.686354 0.687040
vt 0.686354 0.687040
vt 0.686354 0.687040
vt 0.686354 0.687040
vt 0.686354 0.687040
vt 0.686354 0.687040
vt 0.686354 0.687040
vt 0.936354 0.562040
vt 0.936354 0.562040
vt 0.936354 0.562040
vt 0.936354 0.562040
vt 0.686354 0.687040
vt 0.686354 0.687040
vt 0.686354 0.687040
vt 0.686354 0.687040
vt 0.936354 0.562040
vt 0.936354 0.562040
vt 0.936354 0.562040
vt 0.936354 0.562040
vt 0.936354 0.562040
vt 0.936354 0.562040
vt 0.936354 0.562040
vt 0.936354 0.562040
vt 0.936354 0.562040
vt 0.936354 0.562040
vt 0.311354 0.812040
vt 0.311354 0.812040
vt 0.311354 0.812040
vt 0.311354 0.812040
vt 0.936354 0.562040
vt 0.936354 0.562040
vt 0.311354 0.812040
vt 0.311354 0.812040
vt 0.686354 0.687040
vt 0.686354 0.687040
vt 0.686354 0.687040
vt 0.936354 0.187040
vt 0.936354 0.187040
vt 0.936354 0.187040
vt 0.936354 0.187040
vt 0.936354 0.187040
vt 0.936354 0.187040
vt 0.686354 0.687040
vn 0.4301 0.8944 0.1227
vn 0.9647 -0.0003 0.2634
vn 0.4313 -0.8935 0.1254
vn -0.4359 -0.8945 -0.0992
vn -0.9722 -0.0001 -0.2341
vn -0.4382 0.8935 -0.0984
vn 0.9304 0.0000 0.3665
vn -0.1410 -0.0277 0.9896
vn -0.3394 0.0000 -0.9406
vn -0.8450 -0.0000 -0.5348
vn 0.4140 0.8929 0.1770
vn 0.4140 -0.8929 0.1770
vn -0.4019 0.8839 -0.2392
vn -0.4019 -0.8839 -0.2392
vn 0.5562 0.7018 -0.4450
vn 0.3740 -0.8850 0.2775
vn 0.3740 0.8850 0.2775
vn -0.0604 0.8689 -0.4914
vn -0.0604 -0.8689 -0.4914
vn 0.6840 0.0000 0.7295
vn -0.0096 0.0000 -1.0000
vn 0.5562 -0.7018 -0.4450
vn 0.6802 0.0000 0.7330
vn 0.5679 0.0000 -0.8231
vn 0.6031 -0.7472 0.2793
vn 0.6031 0.7472 0.2793
vn 0.0717 -0.8949 0.4404
vn 0.2044 -0.8867 0.4146
vn 0.2044 0.8867 0.4147
vn 0.0624 0.8867 -0.4581
vn 0.0624 -0.8867 -0.4581
vn 0.3079 0.0000 0.9514
vn -0.0717 -0.8949 -0.4404
vn 0.9870 0.0000 -0.1606
vn 0.0717 0.8949 0.4404
vn -0.1606 0.0000 -0.9870
vn -0.0717 0.8949 -0.4404
vn 0.8040 0.0000 0.5946
usemtl Material
s off
f 1/1/1 2/2/1 4/3/1 3/4/1
f 3/4/2 4/3/2 6/5/2 5/6/2
f 5/6/3 6/5/3 8/7/3 7/8/3
f 7/8/4 8/7/4 10/9/4 9/10/4
f 9/10/5 10/9/5 12/11/5 11/12/5
f 11/12/6 12/11/6 2/2/6 1/1/6
f 3/4/7 5/6/7 15/13/7 14/14/7
f 4/3/8 2/2/8 45/15/8 46/16/8
f 17/17/9 18/18/9 24/19/9 23/20/9
f 9/10/10 11/12/10 18/18/10 17/17/10
f 1/1/11 3/4/11 14/14/11 13/21/11
f 5/6/12 7/8/12 16/22/12 15/13/12
f 11/12/13 1/1/13 13/21/13 18/18/13
f 7/8/14 9/10/14 17/17/14 16/22/14
f 24/19/15 19/23/15 25/24/15 30/25/15
f 15/13/16 16/22/16 22/26/16 21/27/16
f 13/21/17 14/14/17 20/28/17 19/23/17
f 18/18/18 13/21/18 19/23/18 24/19/18
f 16/22/19 17/17/19 23/20/19 22/26/19
f 14/14/20 15/13/20 21/27/20 20/28/20
f 29/29/21 30/30/21 36/31/21 35/32/21
f 22/26/22 23/20/22 29/33/22 28/34/22
f 20/28/23 21/27/23 27/35/23 26/36/23
f 23/20/24 24/19/24 30/25/24 29/33/24
f 21/27/25 22/26/25 28/34/25 27/35/25
f 19/23/26 20/28/26 26/36/26 25/24/26
f 34/37/27 38/38/27 33/39/27
f 27/40/28 28/41/28 34/37/28 33/39/28
f 25/42/29 26/43/29 32/44/29 31/45/29
f 30/30/30 25/42/30 31/45/30 36/31/30
f 28/41/31 29/29/31 35/32/31 34/37/31
f 26/43/32 27/40/32 33/39/32 32/44/32
f 34/37/33 35/32/33 39/46/33 38/38/33
f 40/47/34 37/48/34 38/49/34 39/50/34
f 31/45/35 32/44/35 37/51/35
f 35/32/36 36/31/36 40/52/36 39/46/36
f 36/31/37 31/45/37 37/51/37 40/52/37
f 33/53/38 38/49/38 37/48/38 32/54/38
f 2/2/8 12/11/8 41/55/8 45/15/8
f 10/9/8 8/7/8 43/56/8 42/57/8
f 12/11/8 10/9/8 42/57/8 41/55/8
f 46/58/8 45/59/8 41/60/8 42/61/8 43/62/8 44/63/8
f 6/5/8 4/3/8 46/16/8 44/64/8
f 8/7/8 6/5/8 44/64/8 43/56/8
