# Blender v2.83.5 OBJ File: 'beanbeads01.blend'
# www.blender.org
mtllib beanbeads01.mtl
o Sphere
v -0.000000 -0.004774 0.003469
v -0.000000 -0.001824 0.005612
v -0.000000 0.001824 0.005612
v -0.000000 0.004774 0.003469
v -0.003299 -0.004774 0.001072
v -0.005338 -0.001824 0.001734
v -0.005338 0.001824 0.001734
v -0.003299 0.004774 0.001072
v -0.002039 -0.004774 -0.002806
v -0.003299 -0.001824 -0.004541
v -0.003299 0.001824 -0.004541
v -0.002039 0.004774 -0.002806
v -0.000000 0.005901 -0.000000
v 0.000000 -0.005901 -0.000000
v 0.002039 -0.004774 -0.002806
v 0.003299 -0.001824 -0.004541
v 0.003299 0.001824 -0.004541
v 0.002039 0.004774 -0.002806
v 0.003299 -0.004774 0.001072
v 0.005338 -0.001824 0.001734
v 0.005338 0.001824 0.001734
v 0.003299 0.004774 0.001072
vt 0.686412 0.563417
vt 0.686412 0.563417
vt 0.686412 0.563417
vt 0.686412 0.563417
vt 0.686412 0.563417
vt 0.686412 0.563417
vt 0.686412 0.563417
vt 0.686412 0.563417
vt 0.686412 0.563417
vt 0.686412 0.563417
vt 0.686412 0.563417
vt 0.686412 0.563417
vt 0.686412 0.563417
vt 0.686412 0.563417
vt 0.686412 0.563417
vt 0.686412 0.563417
vt 0.686412 0.563417
vt 0.686412 0.563417
vt 0.686412 0.563417
vt 0.686412 0.563417
vt 0.686412 0.563417
vt 0.686412 0.563417
vn -0.5067 -0.5067 0.6975
vn -0.2191 0.9280 0.3015
vn -0.5878 0.0000 0.8090
vn -0.2191 -0.9280 0.3015
vn -0.5067 0.5067 0.6975
vn -0.8199 0.5067 -0.2664
vn -0.8199 -0.5067 -0.2664
vn -0.3544 0.9280 -0.1152
vn -0.9511 0.0000 -0.3090
vn -0.3544 -0.9280 -0.1152
vn 0.0000 0.5067 -0.8621
vn 0.0000 -0.5067 -0.8621
vn 0.0000 0.9280 -0.3727
vn 0.0000 0.0000 -1.0000
vn 0.0000 -0.9280 -0.3727
vn 0.8199 0.5067 -0.2664
vn 0.8199 -0.5067 -0.2664
vn 0.3544 0.9280 -0.1152
vn 0.9511 0.0000 -0.3090
vn 0.3544 -0.9280 -0.1152
vn 0.5067 0.5067 0.6975
vn 0.5067 -0.5067 0.6975
vn 0.2191 0.9280 0.3015
vn 0.5878 0.0000 0.8090
vn 0.2191 -0.9280 0.3015
usemtl Material
s off
f 2/1/1 6/2/1 5/3/1 1/4/1
f 13/5/2 8/6/2 4/7/2
f 3/8/3 7/9/3 6/2/3 2/1/3
f 1/4/4 5/3/4 14/10/4
f 4/7/5 8/6/5 7/9/5 3/8/5
f 8/6/6 12/11/6 11/12/6 7/9/6
f 6/2/7 10/13/7 9/14/7 5/3/7
f 13/5/8 12/11/8 8/6/8
f 7/9/9 11/12/9 10/13/9 6/2/9
f 5/3/10 9/14/10 14/10/10
f 12/11/11 18/15/11 17/16/11 11/12/11
f 10/13/12 16/17/12 15/18/12 9/14/12
f 13/5/13 18/15/13 12/11/13
f 11/12/14 17/16/14 16/17/14 10/13/14
f 9/14/15 15/18/15 14/10/15
f 18/15/16 22/19/16 21/20/16 17/16/16
f 16/17/17 20/21/17 19/22/17 15/18/17
f 13/5/18 22/19/18 18/15/18
f 17/16/19 21/20/19 20/21/19 16/17/19
f 15/18/20 19/22/20 14/10/20
f 22/19/21 4/7/21 3/8/21 21/20/21
f 20/21/22 2/1/22 1/4/22 19/22/22
f 13/5/23 4/7/23 22/19/23
f 21/20/24 3/8/24 2/1/24 20/21/24
f 19/22/25 1/4/25 14/10/25
