# Blender v2.83.5 OBJ File: 'bean01.blend'
# www.blender.org
mtllib bean01.mtl
o Cylinder
v 0.000743 0.006976 -0.008768
v 0.000743 0.006061 0.003144
v 0.005676 0.004933 -0.008768
v 0.005029 0.004286 0.003144
v 0.007719 -0.000000 -0.008768
v 0.006804 -0.000000 0.003144
v 0.005676 -0.004933 -0.008768
v 0.005029 -0.004286 0.003144
v 0.000743 -0.006976 -0.008768
v 0.000743 -0.006061 0.003144
v -0.004190 -0.004933 -0.008768
v -0.003543 -0.004286 0.003144
v -0.006233 0.000000 -0.008768
v -0.005318 -0.000000 0.003144
v -0.004190 0.004933 -0.008768
v -0.003543 0.004286 0.003144
v 0.000743 0.007272 0.013300
v 0.005885 0.005142 0.013300
v 0.008015 -0.000000 0.013300
v 0.005885 -0.005142 0.013300
v 0.000743 -0.007272 0.013300
v -0.004399 -0.005142 0.013300
v -0.006529 -0.000000 0.013300
v -0.004399 0.005142 0.013300
v 0.000743 0.005850 0.024246
v 0.004880 0.004137 0.024246
v 0.006593 -0.000000 0.024246
v 0.004880 -0.004137 0.024246
v 0.000743 -0.005850 0.024246
v -0.003394 -0.004137 0.024246
v -0.005107 -0.000000 0.024246
v -0.003394 0.004137 0.024246
v 0.000743 0.005569 0.036170
v 0.004681 0.003938 0.036170
v 0.006312 -0.000000 0.036170
v 0.004681 -0.003938 0.036170
v 0.000743 -0.005569 0.036170
v -0.003195 -0.003938 0.036170
v -0.004826 -0.000000 0.036170
v -0.003195 0.003938 0.036170
v 0.004174 0.003646 0.048616
v 0.006752 0.002578 0.048616
v 0.007819 -0.000000 0.048616
v 0.006752 -0.002578 0.048616
v 0.004174 -0.003646 0.048616
v 0.001596 -0.002578 0.048616
v 0.000528 -0.000000 0.048616
v 0.001596 0.002578 0.048616
v 0.000743 0.006012 -0.019956
v 0.004994 0.004251 -0.019956
v 0.006755 0.000000 -0.019956
v 0.004994 -0.004251 -0.019956
v 0.000743 -0.006012 -0.019956
v -0.003508 -0.004251 -0.019956
v -0.005269 0.000000 -0.019956
v -0.003508 0.004251 -0.019956
v -0.000766 0.004451 -0.028507
v 0.002381 0.003147 -0.028507
v 0.003685 0.000000 -0.028507
v 0.002381 -0.003147 -0.028507
v -0.000766 -0.004451 -0.028507
v -0.003913 -0.003147 -0.028507
v -0.005217 0.000000 -0.028507
v -0.003913 0.003147 -0.028507
v -0.004398 0.002513 -0.036136
v -0.002620 0.001777 -0.036136
v -0.001884 0.000000 -0.036136
v -0.002620 -0.001777 -0.036136
v -0.004398 -0.002513 -0.036136
v -0.006175 -0.001777 -0.036136
v -0.006911 0.000000 -0.036136
v -0.006175 0.001777 -0.036136
v 0.007434 -0.000000 0.053820
v -0.004398 0.000840 -0.038838
v -0.003804 0.000594 -0.038838
v -0.003558 0.000000 -0.038838
v -0.003804 -0.000594 -0.038838
v -0.004398 -0.000840 -0.038838
v -0.004991 -0.000594 -0.038838
v -0.005237 0.000000 -0.038838
v -0.004991 0.000594 -0.038838
vt 0.687653 0.559319
vt 0.687653 0.559319
vt 0.687653 0.559319
vt 0.687653 0.559319
vt 0.687653 0.559319
vt 0.687653 0.559319
vt 0.687653 0.559319
vt 0.687653 0.559319
vt 0.687653 0.559319
vt 0.687653 0.559319
vt 0.687653 0.559319
vt 0.687653 0.559319
vt 0.687653 0.559319
vt 0.687653 0.559319
vt 0.687653 0.559319
vt 0.687653 0.559319
vt 0.687653 0.559319
vt 0.687653 0.559319
vt 0.687653 0.559319
vt 0.687653 0.559319
vt 0.687653 0.559319
vt 0.687653 0.559319
vt 0.687653 0.559319
vt 0.687653 0.559319
vt 0.687653 0.559319
vt 0.687653 0.559319
vt 0.687653 0.559319
vt 0.687653 0.559319
vt 0.687653 0.559319
vt 0.687653 0.559319
vt 0.687653 0.559319
vt 0.687653 0.559319
vt 0.687653 0.559319
vt 0.687653 0.559319
vt 0.687653 0.559319
vt 0.687653 0.559319
vt 0.687653 0.559319
vt 0.687653 0.559319
vt 0.687653 0.559319
vt 0.687653 0.559319
vt 0.687653 0.559319
vt 0.687653 0.559319
vt 0.687653 0.559319
vt 0.687653 0.559319
vt 0.687653 0.559319
vt 0.687653 0.559319
vt 0.687653 0.559319
vt 0.687653 0.559319
vt 0.687653 0.559319
vt 0.687653 0.559319
vt 0.687653 0.559319
vt 0.687653 0.559319
vt 0.687653 0.559319
vt 0.687653 0.559319
vt 0.687653 0.559319
vt 0.687653 0.559319
vt 0.687653 0.559319
vt 0.687653 0.559319
vt 0.687653 0.559319
vt 0.687653 0.559319
vt 0.687653 0.559319
vt 0.687653 0.559319
vt 0.687653 0.559319
vt 0.687653 0.559319
vt 0.687653 0.559319
vt 0.687653 0.559319
vt 0.687653 0.559319
vt 0.687653 0.559319
vt 0.687653 0.559319
vt 0.687653 0.559319
vt 0.687653 0.559319
vt 0.687653 0.559319
vt 0.687653 0.559319
vt 0.687653 0.559319
vt 0.687653 0.559319
vt 0.437653 0.559319
vt 0.437653 0.559319
vt 0.437653 0.559319
vt 0.437653 0.559319
vt 0.437653 0.559319
vt 0.437653 0.559319
vt 0.437653 0.559319
vt 0.437653 0.559319
vt 0.687653 0.559319
vt 0.687653 0.559319
vt 0.687653 0.559319
vt 0.687653 0.559319
vt 0.687653 0.559319
vt 0.687653 0.559319
vn 0.3817 0.9216 0.0708
vn 0.9216 0.3817 0.0708
vn 0.9216 -0.3817 0.0708
vn 0.3817 -0.9216 0.0708
vn -0.3817 -0.9216 0.0708
vn -0.9216 -0.3817 0.0708
vn -0.3804 -0.9183 -0.1095
vn -0.9216 0.3817 0.0708
vn -0.3817 0.9216 0.0708
vn 0.3815 -0.9210 -0.0793
vn 0.9173 0.3800 0.1191
vn -0.3804 0.9183 -0.1095
vn 0.3804 0.9183 -0.1095
vn 0.9183 -0.3804 -0.1095
vn -0.9183 -0.3804 -0.1095
vn 0.3804 -0.9183 -0.1095
vn -0.9183 0.3804 -0.1095
vn 0.9183 0.3804 -0.1095
vn -0.3826 0.9237 0.0217
vn -0.9173 0.3800 0.1191
vn -0.3800 -0.9173 0.1191
vn 0.9173 -0.3800 0.1191
vn 0.3800 0.9173 0.1191
vn -0.3800 0.9173 0.1191
vn -0.9173 -0.3800 0.1191
vn 0.3800 -0.9173 0.1191
vn 0.9182 -0.3803 -0.1112
vn -0.9237 -0.3826 0.0217
vn 0.3826 -0.9237 0.0217
vn 0.9237 0.3826 0.0217
vn -0.9237 0.3826 0.0217
vn -0.3826 -0.9237 0.0217
vn 0.9237 -0.3826 0.0217
vn 0.3826 0.9237 0.0217
vn -0.5840 0.2419 0.7749
vn 0.3824 0.9232 0.0373
vn -0.3714 0.8967 0.2410
vn -0.8585 -0.3556 0.3694
vn 0.3824 -0.9232 0.0373
vn 0.9182 0.3803 -0.1112
vn -0.8585 0.3556 0.3694
vn -0.3714 -0.8967 0.2410
vn 0.3724 -0.8991 -0.2298
vn -0.9210 0.3815 -0.0793
vn 0.9210 0.3815 -0.0793
vn -0.3815 -0.9210 -0.0793
vn -0.3815 0.9210 -0.0793
vn 0.3815 0.9210 -0.0793
vn 0.9210 -0.3815 -0.0793
vn -0.9210 -0.3815 -0.0793
vn -0.3822 0.9226 -0.0524
vn 0.8769 0.3632 -0.3148
vn -0.9239 0.3827 -0.0056
vn -0.3807 -0.9192 -0.1006
vn 0.8769 -0.3632 -0.3148
vn 0.3724 0.8991 -0.2298
vn -0.3807 0.9192 -0.1006
vn -0.9239 -0.3827 -0.0056
vn 0.8018 0.3321 -0.4967
vn -0.9050 -0.3749 0.2010
vn 0.3532 -0.8528 -0.3847
vn 0.7660 0.3173 -0.5592
vn -0.9050 0.3749 0.2010
vn -0.3822 -0.9226 -0.0524
vn 0.7660 -0.3173 -0.5592
vn 0.3532 0.8528 -0.3847
vn -0.2863 -0.6912 0.6635
vn 0.9217 -0.3818 0.0683
vn 0.3544 0.8556 0.3773
vn -0.2863 0.6912 0.6635
vn -0.5840 -0.2419 0.7749
vn 0.3544 -0.8556 0.3773
vn 0.9217 0.3818 0.0683
vn -0.0000 0.0000 -1.0000
vn -0.8018 0.3321 -0.4967
vn -0.3321 -0.8018 -0.4967
vn 0.8018 -0.3321 -0.4967
vn 0.3321 0.8018 -0.4967
vn -0.3321 0.8018 -0.4967
vn -0.8018 -0.3321 -0.4967
vn 0.3321 -0.8018 -0.4967
usemtl Material
s off
f 1/1/1 2/2/1 4/3/1 3/4/1
f 3/4/2 4/3/2 6/5/2 5/6/2
f 5/6/3 6/5/3 8/7/3 7/8/3
f 7/8/4 8/7/4 10/9/4 9/10/4
f 9/10/5 10/9/5 12/11/5 11/12/5
f 11/12/6 12/11/6 14/13/6 13/14/6
f 12/11/7 10/9/7 21/15/7 22/16/7
f 13/14/8 14/13/8 16/17/8 15/18/8
f 15/18/9 16/17/9 2/2/9 1/1/9
f 7/8/10 9/10/10 53/19/10 52/20/10
f 19/21/11 18/22/11 26/23/11 27/24/11
f 2/2/12 16/17/12 24/25/12 17/26/12
f 4/3/13 2/2/13 17/26/13 18/22/13
f 8/7/14 6/5/14 19/21/14 20/27/14
f 14/13/15 12/11/15 22/16/15 23/28/15
f 10/9/16 8/7/16 20/27/16 21/15/16
f 16/17/17 14/13/17 23/28/17 24/25/17
f 6/5/18 4/3/18 18/22/18 19/21/18
f 25/29/19 32/30/19 40/31/19 33/32/19
f 24/25/20 23/28/20 31/33/20 32/30/20
f 22/16/21 21/15/21 29/34/21 30/35/21
f 20/27/22 19/21/22 27/24/22 28/36/22
f 18/22/23 17/26/23 25/29/23 26/23/23
f 17/26/24 24/25/24 32/30/24 25/29/24
f 23/28/25 22/16/25 30/35/25 31/33/25
f 21/15/26 20/27/26 28/36/26 29/34/26
f 36/37/27 35/38/27 43/39/27 44/40/27
f 31/33/28 30/35/28 38/41/28 39/42/28
f 29/34/29 28/36/29 36/37/29 37/43/29
f 27/24/30 26/23/30 34/44/30 35/38/30
f 32/30/31 31/33/31 39/42/31 40/31/31
f 30/35/32 29/34/32 37/43/32 38/41/32
f 28/36/33 27/24/33 35/38/33 36/37/33
f 26/23/34 25/29/34 33/32/34 34/44/34
f 48/45/35 47/46/35 73/47/35
f 34/44/36 33/32/36 41/48/36 42/49/36
f 33/32/37 40/31/37 48/45/37 41/48/37
f 39/42/38 38/41/38 46/50/38 47/46/38
f 37/43/39 36/37/39 44/40/39 45/51/39
f 35/38/40 34/44/40 42/49/40 43/39/40
f 40/31/41 39/42/41 47/46/41 48/45/41
f 38/41/42 37/43/42 45/51/42 46/50/42
f 52/20/43 53/19/43 61/52/43 60/53/43
f 13/14/44 15/18/44 56/54/44 55/55/44
f 3/4/45 5/6/45 51/56/45 50/57/45
f 9/10/46 11/12/46 54/58/46 53/19/46
f 15/18/47 1/1/47 49/59/47 56/54/47
f 1/1/48 3/4/48 50/57/48 49/59/48
f 5/6/49 7/8/49 52/20/49 51/56/49
f 11/12/50 13/14/50 55/55/50 54/58/50
f 64/60/51 57/61/51 65/62/51 72/63/51
f 50/57/52 51/56/52 59/64/52 58/65/52
f 55/55/53 56/54/53 64/60/53 63/66/53
f 53/19/54 54/58/54 62/67/54 61/52/54
f 51/56/55 52/20/55 60/53/55 59/64/55
f 49/59/56 50/57/56 58/65/56 57/61/56
f 56/54/57 49/59/57 57/61/57 64/60/57
f 54/58/58 55/55/58 63/66/58 62/67/58
f 66/68/59 67/69/59 76/70/59 75/71/59
f 62/67/60 63/66/60 71/72/60 70/73/60
f 60/53/61 61/52/61 69/74/61 68/75/61
f 58/65/62 59/64/62 67/69/62 66/68/62
f 63/66/63 64/60/63 72/63/63 71/72/63
f 61/52/64 62/67/64 70/73/64 69/74/64
f 59/64/65 60/53/65 68/75/65 67/69/65
f 57/61/66 58/65/66 66/68/66 65/62/66
f 46/50/67 45/51/67 73/47/67
f 44/40/68 43/39/68 73/47/68
f 42/49/69 41/48/69 73/47/69
f 41/48/70 48/45/70 73/47/70
f 47/46/71 46/50/71 73/47/71
f 45/51/72 44/40/72 73/47/72
f 43/39/73 42/49/73 73/47/73
f 74/76/74 75/77/74 76/78/74 77/79/74 78/80/74 79/81/74 80/82/74 81/83/74
f 71/72/75 72/63/75 81/84/75 80/85/75
f 69/74/76 70/73/76 79/86/76 78/87/76
f 67/69/77 68/75/77 77/88/77 76/70/77
f 65/62/78 66/68/78 75/71/78 74/89/78
f 72/63/79 65/62/79 74/89/79 81/84/79
f 70/73/80 71/72/80 80/85/80 79/86/80
f 68/75/81 69/74/81 78/87/81 77/88/81
