# Blender v2.83.5 OBJ File: 'beetroot03.blend'
# www.blender.org
mtllib beetroot03.mtl
o Cylinder_Cylinder.001
v -0.013843 0.002090 -0.013843
v -0.019576 0.002090 -0.000000
v -0.013843 0.002090 0.013843
v -0.000000 0.002090 0.019577
v 0.013843 0.002090 0.013843
v 0.019577 0.002090 0.000000
v -0.000000 0.002090 -0.019577
v 0.013843 0.002090 -0.013843
v -0.018328 0.002090 -0.018328
v -0.025920 0.002090 -0.000000
v -0.018328 0.002090 0.018328
v -0.000000 0.002090 0.025920
v 0.018328 0.002090 0.018328
v 0.025920 0.002090 0.000000
v -0.000000 0.002090 -0.025920
v 0.018328 0.002090 -0.018328
v -0.022559 0.002090 -0.022559
v -0.031903 0.002090 -0.000000
v -0.022559 0.002090 0.022559
v -0.000000 0.002090 0.031903
v 0.022559 0.002090 0.022559
v 0.031903 0.002090 0.000000
v -0.000000 0.002090 -0.031903
v 0.022559 0.002090 -0.022559
v -0.025620 0.002090 -0.025620
v -0.036232 0.002090 -0.000000
v -0.025620 0.002090 0.025620
v -0.000000 0.002090 0.036232
v 0.025620 0.002090 0.025620
v 0.036232 0.002090 0.000000
v 0.025620 0.002090 -0.025620
v -0.000000 0.002090 -0.036232
v -0.000000 -0.002090 -0.036232
v 0.025620 -0.002090 -0.025620
v 0.036232 -0.002090 0.000000
v 0.025620 -0.002090 0.025620
v -0.000000 -0.002090 0.036232
v -0.025620 -0.002090 0.025620
v -0.036232 -0.002090 -0.000000
v -0.025620 -0.002090 -0.025620
v 0.022559 -0.002090 -0.022559
v -0.000000 -0.002090 -0.031903
v 0.031903 -0.002090 0.000000
v 0.022559 -0.002090 0.022559
v -0.000000 -0.002090 0.031903
v -0.022559 -0.002090 0.022559
v -0.031903 -0.002090 -0.000000
v -0.022559 -0.002090 -0.022559
v 0.018328 -0.002090 -0.018328
v -0.000000 -0.002090 -0.025920
v 0.025920 -0.002090 0.000000
v 0.018328 -0.002090 0.018328
v -0.000000 -0.002090 0.025920
v -0.018328 -0.002090 0.018328
v -0.025920 -0.002090 -0.000000
v -0.018328 -0.002090 -0.018328
v 0.013843 -0.002090 -0.013843
v -0.000000 -0.002090 -0.019577
v 0.019577 -0.002090 0.000000
v 0.013843 -0.002090 0.013843
v -0.000000 -0.002090 0.019577
v -0.013843 -0.002090 0.013843
v -0.019576 -0.002090 -0.000000
v -0.013843 -0.002090 -0.013843
v 0.010214 -0.002090 -0.010214
v -0.000000 -0.002090 -0.014444
v 0.014444 -0.002090 0.000000
v 0.010214 -0.002090 0.010214
v -0.000000 -0.002090 0.014444
v -0.010214 -0.002090 0.010214
v -0.014444 -0.002090 -0.000000
v -0.010214 -0.002090 -0.010214
v 0.007000 -0.002090 -0.007000
v -0.000000 -0.002090 -0.009899
v 0.009899 -0.002090 0.000000
v 0.007000 -0.002090 0.007000
v -0.000000 -0.002090 0.009899
v -0.007000 -0.002090 0.007000
v -0.009899 -0.002090 -0.000000
v -0.007000 -0.002090 -0.007000
v 0.003902 -0.002090 -0.003902
v 0.000000 -0.002090 -0.005518
v 0.005518 -0.002090 0.000000
v 0.003902 -0.002090 0.003902
v -0.000000 -0.002090 0.005518
v -0.003902 -0.002090 0.003902
v -0.005518 -0.002090 -0.000000
v -0.003902 -0.002090 -0.003902
v 0.002206 -0.002090 -0.002206
v 0.000000 -0.002090 -0.003120
v 0.003120 -0.002090 0.000000
v 0.002206 -0.002090 0.002206
v -0.000000 -0.002090 0.003120
v -0.002206 -0.002090 0.002206
v -0.003120 -0.002090 -0.000000
v -0.002206 -0.002090 -0.002206
v 0.010214 0.002090 -0.010214
v -0.000000 0.002090 -0.014444
v 0.014444 0.002090 0.000000
v 0.010214 0.002090 0.010214
v -0.000000 0.002090 0.014444
v -0.010214 0.002090 0.010214
v -0.014444 0.002090 -0.000000
v -0.010214 0.002090 -0.010214
v 0.007000 0.002090 -0.007000
v -0.000000 0.002090 -0.009899
v 0.009899 0.002090 0.000000
v 0.007000 0.002090 0.007000
v -0.000000 0.002090 0.009899
v -0.007000 0.002090 0.007000
v -0.009899 0.002090 -0.000000
v -0.007000 0.002090 -0.007000
v 0.003902 0.002090 -0.003902
v 0.000000 0.002090 -0.005518
v 0.005518 0.002090 0.000000
v 0.003902 0.002090 0.003902
v -0.000000 0.002090 0.005518
v -0.003902 0.002090 0.003902
v -0.005518 0.002090 -0.000000
v -0.003902 0.002090 -0.003902
v 0.002206 0.002090 -0.002206
v 0.000000 0.002090 -0.003120
v 0.003120 0.002090 0.000000
v 0.002206 0.002090 0.002206
v -0.000000 0.002090 0.003120
v -0.002206 0.002090 0.002206
v -0.003120 0.002090 -0.000000
v -0.002206 0.002090 -0.002206
vt 0.437500 0.942500
vt 0.437500 0.942500
vt 0.437500 0.942500
vt 0.437500 0.942500
vt 0.437500 0.942500
vt 0.437500 0.942500
vt 0.437500 0.942500
vt 0.437500 0.942500
vt 0.187500 0.942500
vt 0.187500 0.942500
vt 0.187500 0.942500
vt 0.187500 0.942500
vt 0.187500 0.942500
vt 0.187500 0.942500
vt 0.187500 0.942500
vt 0.187500 0.942500
vt 0.437500 0.942500
vt 0.437500 0.942500
vt 0.437500 0.942500
vt 0.437500 0.942500
vt 0.437500 0.942500
vt 0.437500 0.942500
vt 0.437500 0.942500
vt 0.437500 0.942500
vt 0.437500 0.942500
vt 0.437500 0.942500
vt 0.437500 0.942500
vt 0.437500 0.942500
vt 0.437500 0.942500
vt 0.437500 0.942500
vt 0.437500 0.942500
vt 0.437500 0.942500
vt 0.187500 0.942500
vt 0.187500 0.942500
vt 0.187500 0.942500
vt 0.187500 0.942500
vt 0.437500 0.942500
vt 0.437500 0.942500
vt 0.187500 0.942500
vt 0.187500 0.942500
vt 0.187500 0.942500
vt 0.187500 0.942500
vt 0.437500 0.942500
vt 0.437500 0.942500
vt 0.437500 0.942500
vt 0.437500 0.942500
vt 0.187500 0.942500
vt 0.187500 0.942500
vt 0.437500 0.942500
vt 0.437500 0.942500
vt 0.187500 0.942500
vt 0.187500 0.942500
vt 0.187500 0.942500
vt 0.187500 0.942500
vt 0.187500 0.942500
vt 0.187500 0.942500
vt 0.187500 0.942500
vt 0.187500 0.942500
vt 0.187500 0.942500
vt 0.187500 0.942500
vt 0.187500 0.942500
vt 0.187500 0.942500
vt 0.187500 0.942500
vt 0.187500 0.942500
vt 0.187500 0.942500
vt 0.187500 0.942500
vt 0.187500 0.942500
vt 0.187500 0.942500
vt 0.187500 0.942500
vt 0.187500 0.942500
vt 0.187500 0.942500
vt 0.187500 0.942500
vt 0.437500 0.942500
vt 0.437500 0.942500
vt 0.437500 0.942500
vt 0.437500 0.942500
vt 0.187500 0.942500
vt 0.187500 0.942500
vt 0.187500 0.942500
vt 0.187500 0.942500
vt 0.187500 0.942500
vt 0.187500 0.942500
vt 0.187500 0.942500
vt 0.187500 0.942500
vt 0.187500 0.942500
vt 0.187500 0.942500
vt 0.187500 0.942500
vt 0.187500 0.942500
vt 0.187500 0.942500
vt 0.187500 0.942500
vt 0.187500 0.942500
vt 0.187500 0.942500
vt 0.437500 0.942500
vt 0.437500 0.942500
vt 0.437500 0.942500
vt 0.437500 0.942500
vt 0.437500 0.942500
vt 0.437500 0.942500
vt 0.437500 0.942500
vt 0.437500 0.942500
vt 0.437500 0.942500
vt 0.437500 0.942500
vt 0.437500 0.942500
vt 0.437500 0.942500
vt 0.437500 0.942500
vt 0.437500 0.942500
vt 0.437500 0.942500
vt 0.437500 0.942500
vt 0.187500 0.942500
vt 0.187500 0.942500
vt 0.187500 0.942500
vt 0.187500 0.942500
vt 0.187500 0.942500
vt 0.187500 0.942500
vt 0.187500 0.942500
vt 0.187500 0.942500
vt 0.187500 0.942500
vt 0.187500 0.942500
vt 0.187500 0.942500
vt 0.187500 0.942500
vt 0.187500 0.942500
vt 0.187500 0.942500
vt 0.187500 0.942500
vt 0.187500 0.942500
vt 0.437500 0.942500
vt 0.437500 0.942500
vt 0.437500 0.942500
vt 0.437500 0.942500
vt 0.437500 0.942500
vt 0.437500 0.942500
vt 0.437500 0.942500
vt 0.437500 0.942500
vt 0.437500 0.942500
vt 0.437500 0.942500
vt 0.437500 0.942500
vt 0.437500 0.942500
vt 0.437500 0.942500
vt 0.437500 0.942500
vt 0.437500 0.942500
vt 0.437500 0.942500
vt 0.187500 0.942500
vt 0.187500 0.942500
vt 0.187500 0.942500
vt 0.187500 0.942500
vt 0.187500 0.942500
vt 0.187500 0.942500
vt 0.187500 0.942500
vt 0.187500 0.942500
vt 0.187500 0.942500
vt 0.187500 0.942500
vt 0.187500 0.942500
vt 0.187500 0.942500
vt 0.187500 0.942500
vt 0.187500 0.942500
vt 0.187500 0.942500
vt 0.187500 0.942500
vt 0.437500 0.942500
vt 0.437500 0.942500
vt 0.437500 0.942500
vt 0.437500 0.942500
vt 0.437500 0.942500
vt 0.437500 0.942500
vt 0.437500 0.942500
vt 0.437500 0.942500
vt 0.437500 0.942500
vt 0.437500 0.942500
vt 0.437500 0.942500
vt 0.437500 0.942500
vt 0.437500 0.942500
vt 0.437500 0.942500
vt 0.437500 0.942500
vt 0.437500 0.942500
vt 0.437500 0.942500
vt 0.437500 0.942500
vt 0.437500 0.942500
vt 0.437500 0.942500
vt 0.187500 0.942500
vt 0.187500 0.942500
vt 0.187500 0.942500
vt 0.187500 0.942500
vt 0.187500 0.942500
vt 0.187500 0.942500
vt 0.187500 0.942500
vt 0.187500 0.942500
vt 0.187500 0.942500
vt 0.187500 0.942500
vt 0.187500 0.942500
vt 0.187500 0.942500
vt 0.437500 0.942500
vt 0.437500 0.942500
vt 0.437500 0.942500
vt 0.437500 0.942500
vt 0.187500 0.942500
vt 0.187500 0.942500
vt 0.187500 0.942500
vt 0.187500 0.942500
vt 0.187500 0.942500
vt 0.187500 0.942500
vt 0.187500 0.942500
vt 0.187500 0.942500
vt 0.187500 0.942500
vt 0.187500 0.942500
vt 0.187500 0.942500
vt 0.187500 0.942500
vt 0.187500 0.942500
vt 0.187500 0.942500
vt 0.187500 0.942500
vt 0.187500 0.942500
vt 0.437500 0.942500
vt 0.437500 0.942500
vt 0.437500 0.942500
vt 0.437500 0.942500
vt 0.437500 0.942500
vt 0.437500 0.942500
vt 0.437500 0.942500
vt 0.437500 0.942500
vt 0.437500 0.942500
vt 0.437500 0.942500
vt 0.437500 0.942500
vt 0.437500 0.942500
vt 0.437500 0.942500
vt 0.437500 0.942500
vt 0.437500 0.942500
vt 0.437500 0.942500
vt 0.437500 0.942500
vt 0.437500 0.942500
vt 0.437500 0.942500
vt 0.437500 0.942500
vt 0.187500 0.942500
vt 0.187500 0.942500
vt 0.187500 0.942500
vt 0.187500 0.942500
vt 0.187500 0.942500
vt 0.187500 0.942500
vt 0.187500 0.942500
vt 0.187500 0.942500
vt 0.187500 0.942500
vt 0.187500 0.942500
vt 0.187500 0.942500
vt 0.187500 0.942500
vn 0.0000 1.0000 0.0000
vn 0.0000 -1.0000 0.0000
vn -0.3827 0.0000 0.9239
vn 0.9239 0.0000 0.3827
vn 0.3827 0.0000 -0.9239
vn -0.3827 0.0000 -0.9239
vn -0.9239 0.0000 0.3827
vn 0.3827 0.0000 0.9239
vn 0.9239 0.0000 -0.3827
vn -0.9239 0.0000 -0.3827
usemtl Material.002
s off
f 5/1/1 6/2/1 99/3/1 100/4/1
f 2/5/1 3/6/1 102/7/1 103/8/1
f 10/9/1 11/10/1 3/11/1 2/12/1
f 13/13/1 14/14/1 6/15/1 5/16/1
f 7/17/1 1/18/1 104/19/1 98/20/1
f 18/21/1 19/22/1 11/23/1 10/24/1
f 21/25/1 22/26/1 14/27/1 13/28/1
f 3/6/1 4/29/1 101/30/1 102/7/1
f 22/26/1 24/31/1 16/32/1 14/27/1
f 29/33/1 30/34/1 22/35/1 21/36/1
f 1/18/1 2/5/1 103/8/1 104/19/1
f 8/37/1 7/17/1 98/20/1 97/38/1
f 15/39/1 9/40/1 1/41/1 7/42/1
f 23/43/1 17/44/1 9/45/1 15/46/1
f 11/10/1 12/47/1 4/48/1 3/11/1
f 19/22/1 20/49/1 12/50/1 11/23/1
f 100/51/1 99/52/1 107/53/1 108/54/1
f 31/55/1 32/56/1 23/57/1 24/58/1
f 27/59/1 28/60/1 20/61/1 19/62/1
f 32/56/1 25/63/1 17/64/1 23/57/1
f 28/60/1 29/33/1 21/36/1 20/61/1
f 25/63/1 26/65/1 18/66/1 17/64/1
f 17/44/1 18/21/1 10/24/1 9/45/1
f 26/65/1 27/59/1 19/62/1 18/66/1
f 30/34/1 31/55/1 24/58/1 22/35/1
f 4/29/1 5/1/1 100/4/1 101/30/1
f 6/2/1 8/37/1 97/38/1 99/3/1
f 16/67/1 15/39/1 7/42/1 8/68/1
f 24/31/1 23/43/1 15/46/1 16/32/1
f 9/40/1 10/9/1 2/12/1 1/41/1
f 14/14/1 16/67/1 8/68/1 6/15/1
f 12/47/1 13/13/1 5/16/1 4/48/1
f 20/49/1 21/25/1 13/28/1 12/50/1
f 34/69/2 41/70/2 42/71/2 33/72/2
f 48/73/2 56/74/2 55/75/2 47/76/2
f 33/72/2 42/71/2 48/77/2 40/78/2
f 39/79/2 47/80/2 46/81/2 38/82/2
f 37/83/2 45/84/2 44/85/2 36/86/2
f 35/87/2 43/88/2 41/70/2 34/69/2
f 40/78/2 48/77/2 47/80/2 39/79/2
f 38/82/2 46/81/2 45/84/2 37/83/2
f 36/86/2 44/85/2 43/88/2 35/87/2
f 51/89/2 59/90/2 57/91/2 49/92/2
f 46/93/2 54/94/2 53/95/2 45/96/2
f 44/97/2 52/98/2 51/99/2 43/100/2
f 41/101/2 49/102/2 50/103/2 42/104/2
f 42/104/2 50/103/2 56/74/2 48/73/2
f 47/76/2 55/75/2 54/94/2 46/93/2
f 45/96/2 53/95/2 52/98/2 44/97/2
f 43/100/2 51/99/2 49/102/2 41/101/2
f 58/105/2 66/106/2 72/107/2 64/108/2
f 56/109/2 64/110/2 63/111/2 55/112/2
f 54/113/2 62/114/2 61/115/2 53/116/2
f 52/117/2 60/118/2 59/90/2 51/89/2
f 49/92/2 57/91/2 58/119/2 50/120/2
f 50/120/2 58/119/2 64/110/2 56/109/2
f 55/112/2 63/111/2 62/114/2 54/113/2
f 53/116/2 61/115/2 60/118/2 52/117/2
f 68/121/2 76/122/2 75/123/2 67/124/2
f 63/125/2 71/126/2 70/127/2 62/128/2
f 61/129/2 69/130/2 68/131/2 60/132/2
f 59/133/2 67/134/2 65/135/2 57/136/2
f 64/108/2 72/107/2 71/126/2 63/125/2
f 62/128/2 70/127/2 69/130/2 61/129/2
f 60/132/2 68/131/2 67/134/2 59/133/2
f 57/136/2 65/135/2 66/106/2 58/105/2
f 80/137/2 88/138/2 87/139/2 79/140/2
f 65/141/2 73/142/2 74/143/2 66/144/2
f 66/144/2 74/143/2 80/145/2 72/146/2
f 71/147/2 79/148/2 78/149/2 70/150/2
f 69/151/2 77/152/2 76/122/2 68/121/2
f 67/124/2 75/123/2 73/142/2 65/141/2
f 72/146/2 80/145/2 79/148/2 71/147/2
f 70/150/2 78/149/2 77/152/2 69/151/2
f 85/153/2 93/154/2 92/155/2 84/156/2
f 78/157/2 86/158/2 85/159/2 77/160/2
f 76/161/2 84/162/2 83/163/2 75/164/2
f 73/165/2 81/166/2 82/167/2 74/168/2
f 74/168/2 82/167/2 88/138/2 80/137/2
f 79/140/2 87/139/2 86/158/2 78/157/2
f 77/160/2 85/159/2 84/162/2 76/161/2
f 75/164/2 83/163/2 81/166/2 73/165/2
f 89/169/2 91/170/2 92/171/2 93/172/2 94/173/2 95/174/2 96/175/2 90/176/2
f 83/177/2 91/178/2 89/179/2 81/180/2
f 88/181/2 96/182/2 95/183/2 87/184/2
f 86/185/2 94/186/2 93/154/2 85/153/2
f 84/156/2 92/155/2 91/178/2 83/177/2
f 81/180/2 89/179/2 90/187/2 82/188/2
f 82/188/2 90/187/2 96/182/2 88/181/2
f 87/184/2 95/183/2 94/186/2 86/185/2
f 112/189/1 111/190/1 119/191/1 120/192/1
f 97/193/1 98/194/1 106/195/1 105/196/1
f 98/194/1 104/197/1 112/198/1 106/195/1
f 103/199/1 102/200/1 110/201/1 111/202/1
f 101/203/1 100/51/1 108/54/1 109/204/1
f 99/52/1 97/193/1 105/196/1 107/53/1
f 104/197/1 103/199/1 111/202/1 112/198/1
f 102/200/1 101/203/1 109/204/1 110/201/1
f 117/205/1 116/206/1 124/207/1 125/208/1
f 110/209/1 109/210/1 117/211/1 118/212/1
f 108/213/1 107/214/1 115/215/1 116/216/1
f 105/217/1 106/218/1 114/219/1 113/220/1
f 106/218/1 112/189/1 120/192/1 114/219/1
f 111/190/1 110/209/1 118/212/1 119/191/1
f 109/210/1 108/213/1 116/216/1 117/211/1
f 107/214/1 105/217/1 113/220/1 115/215/1
f 121/221/1 122/222/1 128/223/1 127/224/1 126/225/1 125/226/1 124/227/1 123/228/1
f 115/229/1 113/230/1 121/231/1 123/232/1
f 120/233/1 119/234/1 127/235/1 128/236/1
f 118/237/1 117/205/1 125/208/1 126/238/1
f 116/206/1 115/229/1 123/232/1 124/207/1
f 113/230/1 114/239/1 122/240/1 121/231/1
f 114/239/1 120/233/1 128/236/1 122/240/1
f 119/234/1 118/237/1 126/238/1 127/235/1
f 38/82/3 37/83/3 28/60/3 27/59/3
f 36/86/4 35/87/4 30/34/4 29/33/4
f 34/69/5 33/72/5 32/56/5 31/55/5
f 33/72/6 40/78/6 25/63/6 32/56/6
f 39/79/7 38/82/7 27/59/7 26/65/7
f 37/83/8 36/86/8 29/33/8 28/60/8
f 35/87/9 34/69/9 31/55/9 30/34/9
f 40/78/10 39/79/10 26/65/10 25/63/10
