# Blender v2.83.5 OBJ File: 'blueberry01.blend'
# www.blender.org
mtllib blueberry01.mtl
o Sphere.001
v 0.000000 0.006452 -0.005261
v 0.000000 0.002835 -0.008513
v 0.000000 -0.001327 -0.008513
v 0.000000 -0.004871 -0.005261
v 0.005004 0.006452 -0.001626
v 0.008097 0.002835 -0.002631
v 0.008097 -0.001327 -0.002631
v 0.005004 -0.004871 -0.001626
v 0.003093 0.006452 0.004257
v 0.005004 0.002835 0.006887
v 0.005004 -0.001327 0.006887
v 0.003093 -0.004871 0.004257
v 0.000000 -0.005395 -0.001909
v 0.000000 0.007406 -0.002566
v -0.003093 0.006452 0.004257
v -0.005004 0.002835 0.006887
v -0.005004 -0.001327 0.006887
v -0.003093 -0.004871 0.004257
v -0.005004 0.006452 -0.001626
v -0.008097 0.002835 -0.002631
v -0.008097 -0.001327 -0.002631
v -0.005004 -0.004871 -0.001626
v 0.001816 -0.005395 -0.000590
v 0.001122 -0.005395 0.001545
v -0.001122 -0.005395 0.001545
v -0.001816 -0.005395 -0.000590
v 0.000000 -0.005100 -0.001909
v 0.001816 -0.005100 -0.000590
v 0.001122 -0.005100 0.001545
v -0.001122 -0.005100 0.001545
v -0.001816 -0.005100 -0.000590
v 0.002440 0.007406 -0.000793
v 0.001508 0.007406 0.002076
v -0.001508 0.007406 0.002076
v -0.002440 0.007406 -0.000793
vt 0.311817 0.439408
vt 0.311817 0.439408
vt 0.311817 0.439408
vt 0.311817 0.439408
vt 0.311817 0.439408
vt 0.311817 0.439408
vt 0.311817 0.439408
vt 0.311817 0.439408
vt 0.311817 0.439408
vt 0.311817 0.439408
vt 0.311817 0.439408
vt 0.311817 0.439408
vt 0.311817 0.439408
vt 0.311817 0.439408
vt 0.311817 0.439408
vt 0.311817 0.439408
vt 0.311817 0.439408
vt 0.311817 0.439408
vt 0.311817 0.439408
vt 0.311817 0.439408
vt 0.311817 0.439408
vt 0.311817 0.439408
vt 0.311817 0.439408
vt 0.311817 0.439408
vt 0.311817 0.439408
vt 0.311817 0.439408
vt 0.311817 0.439408
vt 0.311817 0.439408
vt 0.311817 0.439408
vt 0.311817 0.439408
vt 0.311817 0.439408
vt 0.311817 0.439408
vt 0.434996 0.436860
vt 0.434996 0.436860
vt 0.434996 0.436860
vt 0.434996 0.436860
vt 0.434996 0.436860
vt 0.311817 0.439408
vt 0.311817 0.439408
vt 0.311817 0.439408
vt 0.187575 0.438587
vt 0.187575 0.438587
vt 0.187575 0.438587
vt 0.187575 0.438587
vt 0.187575 0.438587
vn 0.4754 0.5881 -0.6543
vn 0.1113 -0.9819 -0.1532
vn 0.5878 -0.0000 -0.8090
vn 0.3812 0.9162 0.1238
vn 0.4720 -0.5960 -0.6496
vn 0.7637 -0.5960 0.2481
vn 0.7692 0.5881 0.2499
vn 0.0000 -0.9819 0.1894
vn 0.9511 -0.0000 0.3090
vn -0.3812 0.9162 0.1238
vn 0.0000 -0.5960 0.8030
vn 0.0000 0.5881 0.8088
vn 0.1801 -0.9819 0.0585
vn 0.0000 0.0000 1.0000
vn -0.2356 0.9162 -0.3242
vn -0.7637 -0.5960 0.2481
vn -0.7692 0.5881 0.2499
vn 0.9511 0.0000 -0.3090
vn -0.9511 0.0000 0.3090
vn 0.0000 0.9162 0.4008
vn -0.4720 -0.5960 -0.6496
vn -0.4754 0.5881 -0.6543
vn -0.1801 -0.9819 0.0585
vn -0.5878 -0.0000 -0.8090
vn 0.2356 0.9162 -0.3242
vn -0.1113 -0.9819 -0.1532
vn 0.0000 -1.0000 0.0000
vn 0.5878 0.0000 0.8090
vn -0.5878 0.0000 0.8090
vn -0.9511 0.0000 -0.3090
vn 0.0000 0.0000 -1.0000
vn 0.0000 1.0000 -0.0000
usemtl Material
s off
f 2/1/1 1/2/1 5/3/1 6/4/1
f 4/5/2 8/6/2 23/7/2 13/8/2
f 3/9/3 2/1/3 6/4/3 7/10/3
f 9/11/4 5/3/4 32/12/4 33/13/4
f 4/5/5 3/9/5 7/10/5 8/6/5
f 8/6/6 7/10/6 11/14/6 12/15/6
f 6/4/7 5/3/7 9/11/7 10/16/7
f 12/15/8 18/17/8 25/18/8 24/19/8
f 7/10/9 6/4/9 10/16/9 11/14/9
f 19/20/10 15/21/10 34/22/10 35/23/10
f 12/15/11 11/14/11 17/24/11 18/17/11
f 10/16/12 9/11/12 15/21/12 16/25/12
f 8/6/13 12/15/13 24/19/13 23/7/13
f 11/14/14 10/16/14 16/25/14 17/24/14
f 1/2/15 19/20/15 35/23/15 14/26/15
f 18/17/16 17/24/16 21/27/16 22/28/16
f 16/25/17 15/21/17 19/20/17 20/29/17
f 25/18/18 26/30/18 31/31/18 30/32/18
f 17/24/19 16/25/19 20/29/19 21/27/19
f 15/21/20 9/11/20 33/13/20 34/22/20
f 22/28/21 21/27/21 3/9/21 4/5/21
f 20/29/22 19/20/22 1/2/22 2/1/22
f 18/17/23 22/28/23 26/30/23 25/18/23
f 21/27/24 20/29/24 2/1/24 3/9/24
f 5/3/25 1/2/25 14/26/25 32/12/25
f 22/28/26 4/5/26 13/8/26 26/30/26
f 31/33/27 27/34/27 28/35/27 29/36/27 30/37/27
f 26/30/28 13/8/28 27/38/28 31/31/28
f 13/8/29 23/7/29 28/39/29 27/38/29
f 23/7/30 24/19/30 29/40/30 28/39/30
f 24/19/31 25/18/31 30/32/31 29/40/31
f 33/41/32 32/42/32 14/43/32 35/44/32 34/45/32
