# Blender v2.83.5 OBJ File: 'broccoli02.blend'
# www.blender.org
mtllib broccoli02.mtl
o Cylinder
v 0.000000 0.017161 0.032975
v -0.011465 0.018480 0.020960
v 0.014171 0.011854 0.026007
v 0.004379 0.001132 0.034175
v -0.011465 0.005227 0.031055
v 0.011223 0.010418 0.010525
v 0.011465 -0.003360 0.019782
v -0.004379 -0.007455 0.022901
v -0.014171 0.003266 0.014734
v 0.000000 0.037579 -0.004875
v -0.016684 0.030465 -0.013924
v 0.006373 0.028831 -0.021235
v 0.015622 0.033109 -0.002094
v 0.006373 0.029419 0.017046
v -0.011683 0.035754 0.009735
v -0.006373 0.008705 -0.016736
v 0.016684 0.010339 -0.009425
v 0.016684 0.015628 0.014234
v -0.020623 0.012983 0.002405
v 0.000000 -0.007824 0.006352
v -0.000986 -0.027582 0.008803
v -0.006336 -0.006434 0.001963
v -0.008010 -0.029247 0.003700
v -0.003916 -0.004185 -0.005139
v -0.004341 -0.027582 -0.005975
v 0.003916 -0.004185 -0.005139
v 0.004341 -0.027582 -0.005975
v 0.006336 -0.006434 0.001963
v 0.007024 -0.027582 0.002282
v -0.004855 0.003473 0.004530
v 0.005478 0.005689 0.008346
v 0.004213 0.003018 0.001496
v -0.001792 0.002840 -0.000980
v -0.003528 0.003731 -0.000452
v 0.003529 0.003721 -0.000458
v -0.000703 -0.001998 0.008663
v -0.005123 0.006470 0.008750
v -0.008229 0.009772 0.009778
v -0.009755 0.016768 0.017051
v -0.007521 0.019486 0.020157
v -0.004757 0.019812 0.020975
v 0.004425 0.022463 0.017991
v 0.002842 0.000916 0.008243
v 0.008708 0.016193 0.016763
v 0.000754 -0.002128 0.008558
vt 0.312500 0.562500
vt 0.312500 0.562500
vt 0.312500 0.562500
vt 0.312500 0.562500
vt 0.312500 0.562500
vt 0.312500 0.562500
vt 0.312500 0.562500
vt 0.312500 0.562500
vt 0.312500 0.562500
vt 0.312500 0.562500
vt 0.312500 0.562500
vt 0.312500 0.562500
vt 0.312500 0.562500
vt 0.312500 0.562500
vt 0.312500 0.562500
vt 0.312500 0.562500
vt 0.312500 0.562500
vt 0.312500 0.562500
vt 0.312500 0.562500
vt 0.312500 0.562500
vt 0.312500 0.562500
vt 0.312500 0.562500
vt 0.312500 0.562500
vt 0.312500 0.562500
vt 0.312500 0.562500
vt 0.312500 0.562500
vt 0.312500 0.562500
vt 0.312500 0.562500
vt 0.312500 0.562500
vt 0.312500 0.562500
vt 0.312500 0.562500
vt 0.312500 0.562500
vt 0.312500 0.562500
vt 0.312500 0.562500
vt 0.312500 0.562500
vt 0.687500 0.562500
vt 0.687500 0.562500
vt 0.687500 0.562500
vt 0.687500 0.562500
vt 0.687500 0.562500
vt 0.687500 0.562500
vt 0.687500 0.562500
vt 0.687500 0.562500
vt 0.687500 0.562500
vt 0.687500 0.562500
vt 0.687500 0.562500
vt 0.687500 0.562500
vt 0.687500 0.562500
vt 0.687500 0.562500
vt 0.687500 0.562500
vt 0.687500 0.562500
vt 0.687500 0.562500
vt 0.687500 0.562500
vt 0.687500 0.562500
vt 0.687500 0.562500
vn -0.1838 0.9421 0.2804
vn -0.6071 0.4815 0.6321
vn 0.4911 0.7654 0.4159
vn 0.4911 0.1977 0.8484
vn -0.1876 0.0223 0.9820
vn -0.9822 0.1137 0.1492
vn 0.7947 0.5729 -0.2007
vn 0.7946 -0.3456 0.4991
vn -0.3035 -0.6294 0.7153
vn -0.7946 0.3456 -0.4991
vn 0.9789 -0.1017 -0.1770
vn 0.3035 -0.8568 0.4169
vn -0.7946 -0.5730 0.2006
vn 0.6380 -0.4325 -0.6371
vn 0.1615 -0.9426 -0.2923
vn -0.4882 -0.7654 -0.4194
vn -0.0970 0.8615 -0.4984
vn -0.3226 0.9360 -0.1410
vn 0.3147 0.8826 -0.3493
vn 0.2165 0.9339 0.2847
vn 0.2119 0.9344 0.2862
vn -0.9366 0.3275 0.1247
vn -0.3035 -0.0207 -0.9526
vn 0.8670 0.1889 -0.4612
vn 0.7550 0.4715 0.4557
vn -0.1794 0.5137 0.8390
vn -0.7946 -0.3090 -0.5225
vn 0.3035 -0.3869 -0.8708
vn 0.9987 0.0502 -0.0112
vn 0.3064 0.0379 0.9511
vn -0.8200 0.1314 0.5571
vn -0.4911 -0.8534 -0.1749
vn 0.1876 -0.9015 -0.3901
vn 0.6061 -0.7763 0.1732
vn -0.5006 -0.6855 0.5287
vn -0.5769 0.1156 0.8086
vn -0.9421 0.0363 -0.3335
vn 0.0000 0.0357 -0.9994
vn 0.0000 -1.0000 0.0000
vn 0.9498 0.0273 -0.3116
vn 0.6015 0.0496 0.7973
vn -0.9499 0.2003 -0.2401
vn 0.5613 -0.3517 0.7492
vn -0.5990 -0.3366 0.7265
vn 0.0000 0.5094 -0.8605
vn 0.9457 0.1998 -0.2563
vn 0.2726 -0.9601 -0.0619
vn -0.3080 0.8146 -0.4916
vn -0.4802 -0.2268 -0.8474
vn 0.1752 -0.6863 0.7059
vn 0.5310 -0.2759 -0.8012
usemtl Material
s off
f 1/1/1 42/2/1 41/3/1 40/4/1 2/5/1
f 2/5/2 5/6/2 1/1/2
f 1/1/3 3/7/3 42/2/3
f 1/1/4 4/8/4 3/7/4
f 1/1/5 5/6/5 4/8/5
f 2/5/6 9/9/6 5/6/6
f 3/7/7 6/10/7 44/11/7 42/2/7
f 4/8/8 7/12/8 3/7/8
f 5/6/9 8/13/9 4/8/9
f 2/5/10 39/14/10 38/15/10 9/9/10
f 3/7/11 7/12/11 6/10/11
f 4/8/12 8/13/12 7/12/12
f 5/6/13 9/9/13 8/13/13
f 7/12/14 45/16/14 43/17/14 6/10/14
f 8/13/15 36/18/15 45/16/15 7/12/15
f 9/9/16 36/18/16 8/13/16
f 10/19/17 12/20/17 11/21/17
f 11/21/18 15/22/18 10/19/18
f 10/19/19 13/23/19 12/20/19
f 10/19/20 14/24/20 13/23/20
f 10/19/21 15/22/21 14/24/21
f 11/21/22 19/25/22 15/22/22
f 12/20/23 16/26/23 11/21/23
f 13/23/24 17/27/24 12/20/24
f 14/24/25 18/28/25 13/23/25
f 15/22/26 40/4/26 41/3/26 14/24/26
f 11/21/27 16/26/27 19/25/27
f 12/20/28 17/27/28 16/26/28
f 13/23/29 18/28/29 17/27/29
f 14/24/30 41/3/30 42/2/30 44/11/30 18/28/30
f 15/22/31 19/25/31 39/14/31 40/4/31
f 16/26/32 33/29/32 34/30/32 30/31/32 19/25/32
f 17/27/33 32/32/33 35/33/33 33/29/33 16/26/33
f 18/28/34 6/10/34 31/34/34 32/32/34 17/27/34
f 19/25/35 30/31/35 37/35/35 38/15/35 39/14/35
f 20/36/36 22/37/36 23/38/36 21/39/36
f 22/37/37 24/40/37 25/41/37 23/38/37
f 24/40/38 26/42/38 27/43/38 25/41/38
f 21/39/39 25/41/39 27/43/39 29/44/39
f 26/42/40 28/45/40 29/44/40 27/43/40
f 28/45/41 20/36/41 21/39/41 29/44/41
f 22/37/42 37/46/42 30/47/42 34/48/42 24/40/42
f 28/45/43 31/49/43 43/50/43 45/51/43 36/52/43 20/36/43
f 20/36/44 36/52/44 37/46/44 22/37/44
f 24/40/45 34/48/45 33/53/45 35/54/45 26/42/45
f 26/42/46 35/54/46 32/55/46 31/49/46 28/45/46
f 23/38/47 25/41/47 21/39/47
f 39/14/48 2/5/48 40/4/48
f 36/18/49 9/9/49 38/15/49 37/35/49
f 6/10/50 18/28/50 44/11/50
f 6/10/51 43/17/51 31/34/51
