# Blender v2.83.5 OBJ File: 'buttersquash01.blend'
# www.blender.org
mtllib buttersquash01.mtl
o Cylinder.001
v -0.000315 -0.070889 -0.051753
v -0.000315 -0.035631 -0.051753
v 0.036280 -0.070889 -0.036595
v 0.036280 -0.035631 -0.036595
v 0.051438 -0.070889 0.000000
v 0.051438 -0.035631 0.000000
v 0.036280 -0.070889 0.036595
v 0.036280 -0.035631 0.036595
v -0.000315 -0.070889 0.051753
v -0.000315 -0.035631 0.051753
v -0.036910 -0.070889 0.036595
v -0.036910 -0.035631 0.036595
v -0.052068 -0.070889 -0.000000
v -0.052068 -0.035631 -0.000000
v -0.036910 -0.070889 -0.036595
v -0.036910 -0.035631 -0.036595
v -0.000315 -0.085509 -0.042013
v 0.029393 -0.085509 -0.029708
v 0.041699 -0.085509 0.000000
v 0.029393 -0.085509 0.029708
v -0.000315 -0.085509 0.042013
v -0.030023 -0.085509 0.029708
v -0.042328 -0.085509 -0.000000
v -0.030023 -0.085509 -0.029708
v -0.000315 -0.094823 -0.016823
v 0.011581 -0.094823 -0.011896
v 0.016508 -0.094823 0.000000
v 0.011581 -0.094823 0.011896
v -0.000315 -0.094823 0.016823
v -0.012211 -0.094823 0.011896
v -0.017138 -0.094823 -0.000000
v -0.012211 -0.094823 -0.011896
v -0.000315 -0.095154 -0.003868
v 0.002420 -0.095154 -0.002735
v 0.003553 -0.095154 0.000000
v 0.002420 -0.095154 0.002735
v -0.000315 -0.095154 0.003868
v -0.003050 -0.095154 0.002735
v -0.004183 -0.095154 0.000000
v -0.003050 -0.095154 -0.002735
v 0.031191 -0.012154 -0.031506
v -0.000315 -0.012154 -0.044556
v 0.044241 -0.012154 0.000000
v 0.031191 -0.012154 0.031506
v -0.000315 -0.012154 0.044556
v -0.031821 -0.012154 0.031506
v -0.044871 -0.012154 -0.000000
v -0.031821 -0.012154 -0.031506
v 0.024728 0.007268 -0.025043
v -0.000315 0.007268 -0.035417
v 0.035102 0.007268 0.000000
v 0.024728 0.007268 0.025043
v -0.000315 0.007268 0.035417
v -0.025358 0.007268 0.025043
v -0.035732 0.007268 -0.000000
v -0.025358 0.007268 -0.025043
v 0.025082 0.024538 -0.025381
v -0.000299 0.024538 -0.035894
v 0.035595 0.024538 0.000000
v 0.025082 0.024538 0.025381
v -0.000299 0.024538 0.035894
v -0.025680 0.024538 0.025381
v -0.036193 0.024538 -0.000000
v -0.025680 0.024538 -0.025381
v 0.027814 0.038534 -0.028113
v -0.000299 0.038534 -0.039758
v 0.039459 0.038534 0.000000
v 0.027814 0.038534 0.028113
v -0.000299 0.038534 0.039758
v -0.028412 0.038534 0.028113
v -0.040057 0.038534 -0.000000
v -0.028412 0.038534 -0.028113
v 0.027814 0.059002 -0.028113
v -0.000299 0.059002 -0.039758
v 0.039459 0.059002 0.000000
v 0.027814 0.059002 0.028113
v -0.000299 0.059002 0.039758
v -0.028412 0.059002 0.028113
v -0.040057 0.059002 -0.000000
v -0.028412 0.059002 -0.028113
v 0.023763 0.072788 -0.024062
v -0.000299 0.072788 -0.034029
v 0.033730 0.072788 0.000000
v 0.023763 0.072788 0.024062
v -0.000299 0.072788 0.034029
v -0.024361 0.072788 0.024062
v -0.034328 0.072788 -0.000000
v -0.024361 0.072788 -0.024062
v 0.015117 0.081681 -0.015416
v -0.000299 0.081681 -0.021801
v 0.021502 0.081681 0.000000
v 0.015117 0.081681 0.015416
v -0.000299 0.081681 0.021801
v -0.015715 0.081681 0.015416
v -0.022100 0.081681 -0.000000
v -0.015715 0.081681 -0.015416
v 0.005015 0.085529 -0.005313
v -0.000299 0.085529 -0.007514
v 0.007215 0.085529 0.000000
v 0.005015 0.085529 0.005313
v -0.000299 0.085529 0.007514
v -0.005612 0.085529 0.005313
v -0.007813 0.085529 0.000000
v -0.005612 0.085529 -0.005313
v 0.004206 0.093180 -0.004012
v 0.000271 0.093965 -0.005674
v 0.005836 0.092855 0.000000
v 0.004206 0.093180 0.004012
v 0.000271 0.093965 0.005674
v -0.003664 0.094749 0.004012
v -0.005294 0.095074 0.000000
v -0.003664 0.094749 -0.004012
v 0.006318 0.102231 -0.002842
v 0.003727 0.103451 -0.004020
v 0.007391 0.101726 0.000000
v 0.006318 0.102231 0.002842
v 0.003727 0.103451 0.004020
v 0.001136 0.104672 0.002842
v 0.000063 0.105177 0.000000
v 0.001136 0.104672 -0.002842
vt 0.687500 0.817500
vt 0.687500 0.817500
vt 0.687500 0.817500
vt 0.687500 0.817500
vt 0.687500 0.817500
vt 0.687500 0.817500
vt 0.687500 0.817500
vt 0.687500 0.817500
vt 0.687500 0.817500
vt 0.687500 0.817500
vt 0.687500 0.817500
vt 0.687500 0.817500
vt 0.687500 0.817500
vt 0.687500 0.817500
vt 0.687500 0.817500
vt 0.687500 0.817500
vt 0.687500 0.817500
vt 0.687500 0.817500
vt 0.687500 0.817500
vt 0.687500 0.817500
vt 0.687500 0.817500
vt 0.687500 0.817500
vt 0.687500 0.817500
vt 0.687500 0.817500
vt 0.687500 0.817500
vt 0.687500 0.817500
vt 0.687500 0.817500
vt 0.687500 0.817500
vt 0.687500 0.817500
vt 0.687500 0.817500
vt 0.687500 0.817500
vt 0.687500 0.817500
vt 0.687500 0.817500
vt 0.687500 0.817500
vt 0.687500 0.817500
vt 0.687500 0.817500
vt 0.312500 0.817500
vt 0.312500 0.817500
vt 0.312500 0.817500
vt 0.312500 0.817500
vt 0.312500 0.817500
vt 0.312500 0.817500
vt 0.312500 0.817500
vt 0.312500 0.817500
vt 0.687500 0.817500
vt 0.687500 0.817500
vt 0.687500 0.817500
vt 0.687500 0.817500
vt 0.687500 0.817500
vt 0.687500 0.817500
vt 0.687500 0.817500
vt 0.687500 0.817500
vt 0.687500 0.817500
vt 0.687500 0.817500
vt 0.687500 0.817500
vt 0.687500 0.817500
vt 0.687500 0.817500
vt 0.687500 0.817500
vt 0.687500 0.817500
vt 0.687500 0.817500
vt 0.687500 0.817500
vt 0.687500 0.817500
vt 0.687500 0.817500
vt 0.687500 0.817500
vt 0.687500 0.817500
vt 0.687500 0.817500
vt 0.687500 0.817500
vt 0.687500 0.817500
vt 0.687500 0.817500
vt 0.687500 0.817500
vt 0.687500 0.817500
vt 0.687500 0.817500
vt 0.687500 0.817500
vt 0.687500 0.817500
vt 0.687500 0.817500
vt 0.687500 0.817500
vt 0.687500 0.817500
vt 0.687500 0.817500
vt 0.687500 0.817500
vt 0.687500 0.817500
vt 0.687500 0.817500
vt 0.687500 0.817500
vt 0.687500 0.817500
vt 0.687500 0.817500
vt 0.687500 0.817500
vt 0.687500 0.817500
vt 0.687500 0.817500
vt 0.687500 0.817500
vt 0.687500 0.817500
vt 0.687500 0.817500
vt 0.687500 0.817500
vt 0.687500 0.817500
vt 0.687500 0.817500
vt 0.687500 0.817500
vt 0.687500 0.817500
vt 0.687500 0.817500
vt 0.687500 0.817500
vt 0.687500 0.817500
vt 0.687500 0.817500
vt 0.687500 0.817500
vt 0.687500 0.817500
vt 0.687500 0.817500
vt 0.687500 0.817500
vt 0.687500 0.817500
vt 0.687500 0.817500
vt 0.687500 0.817500
vt 0.312353 0.814400
vt 0.312353 0.814400
vt 0.312353 0.814400
vt 0.312353 0.814400
vt 0.687500 0.817500
vt 0.687500 0.817500
vt 0.687500 0.817500
vt 0.687500 0.817500
vt 0.687500 0.817500
vt 0.687500 0.817500
vt 0.312353 0.814400
vt 0.312353 0.814400
vt 0.312353 0.814400
vt 0.312353 0.814400
vt 0.312353 0.814400
vt 0.312353 0.814400
vt 0.312353 0.814400
vt 0.312353 0.814400
vt 0.312353 0.814400
vt 0.312353 0.814400
vt 0.312353 0.814400
vt 0.312353 0.814400
vt 0.312353 0.814400
vt 0.312353 0.814400
vt 0.312353 0.814400
vt 0.312353 0.814400
vt 0.312353 0.814400
vt 0.312353 0.814400
vt 0.312353 0.814400
vt 0.312353 0.814400
vn 0.3827 0.0000 -0.9239
vn 0.9239 0.0000 -0.3827
vn 0.9239 0.0000 0.3827
vn 0.3827 0.0000 0.9239
vn -0.3827 0.0000 0.9239
vn -0.9239 0.0000 0.3827
vn -0.8889 0.2725 -0.3682
vn -0.9239 0.0000 -0.3827
vn -0.3827 0.0000 -0.9239
vn 0.7868 -0.5241 0.3259
vn -0.1422 -0.9284 -0.3433
vn -0.7868 -0.5241 0.3259
vn 0.3259 -0.5241 0.7868
vn -0.7868 -0.5241 -0.3259
vn 0.7868 -0.5241 -0.3259
vn -0.3259 -0.5241 0.7868
vn -0.3259 -0.5241 -0.7868
vn 0.3259 -0.5241 -0.7868
vn 0.0256 -0.9996 0.0106
vn -0.3433 -0.9284 0.1422
vn 0.1422 -0.9284 0.3433
vn 0.3433 -0.9284 -0.1422
vn -0.3433 -0.9284 -0.1422
vn -0.1422 -0.9284 0.3433
vn 0.3433 -0.9284 0.1422
vn 0.1422 -0.9284 -0.3433
vn 0.0000 -1.0000 -0.0000
vn 0.0106 -0.9996 -0.0256
vn -0.0106 -0.9996 -0.0256
vn -0.0256 -0.9996 0.0106
vn 0.0106 -0.9996 0.0256
vn 0.0256 -0.9996 -0.0106
vn -0.0256 -0.9996 -0.0106
vn -0.0106 -0.9996 0.0256
vn 0.3510 0.3987 0.8473
vn 0.8889 0.2725 -0.3682
vn -0.3682 0.2725 0.8889
vn -0.3682 0.2725 -0.8889
vn 0.3682 0.2725 -0.8889
vn 0.8889 0.2725 0.3682
vn -0.8889 0.2725 0.3682
vn 0.3682 0.2725 0.8889
vn -0.3826 -0.0252 -0.9236
vn 0.8473 0.3987 -0.3510
vn -0.8473 0.3987 -0.3510
vn -0.3510 0.3987 0.8473
vn 0.8473 0.3987 0.3510
vn 0.3510 0.3987 -0.8473
vn -0.3510 0.3987 -0.8473
vn -0.8473 0.3987 0.3510
vn -0.3708 -0.2472 0.8952
vn -0.9236 -0.0247 0.3826
vn 0.3826 -0.0259 0.9236
vn 0.9236 -0.0264 -0.3826
vn -0.9236 -0.0247 -0.3826
vn -0.3826 -0.0252 0.9236
vn 0.9236 -0.0264 0.3826
vn 0.3826 -0.0259 -0.9236
vn 0.8952 -0.2472 0.3708
vn 0.3708 -0.2472 -0.8952
vn -0.3708 -0.2472 -0.8952
vn -0.8952 -0.2472 0.3708
vn 0.3708 -0.2472 0.8952
vn 0.8952 -0.2472 -0.3708
vn -0.8952 -0.2472 -0.3708
vn -0.8625 0.3584 0.3573
vn 0.2367 0.7858 -0.5715
vn 0.3573 0.3584 0.8625
vn 0.8625 0.3584 -0.3573
vn -0.8625 0.3584 -0.3573
vn -0.3573 0.3584 0.8625
vn 0.8625 0.3584 0.3573
vn 0.3573 0.3584 -0.8625
vn -0.3573 0.3584 -0.8625
vn -0.2586 0.9600 -0.1071
vn -0.2367 0.7858 -0.5715
vn -0.5715 0.7858 0.2367
vn 0.2367 0.7858 0.5715
vn 0.5715 0.7858 -0.2367
vn -0.5715 0.7858 -0.2367
vn -0.2367 0.7858 0.5715
vn 0.5715 0.7858 0.2367
vn 0.9142 0.1657 -0.3698
vn -0.1071 0.9600 0.2586
vn 0.2586 0.9600 0.1071
vn 0.1071 0.9600 -0.2586
vn -0.1071 0.9600 -0.2586
vn -0.2586 0.9600 0.1071
vn 0.1071 0.9600 0.2586
vn 0.2586 0.9600 -0.1071
vn -0.3146 0.2664 -0.9111
vn -0.8952 0.2392 -0.3761
vn -0.3611 0.2130 0.9079
vn 0.9142 0.1657 0.3698
vn 0.3921 0.1819 -0.9018
vn -0.3611 0.2130 -0.9079
vn -0.8952 0.2392 0.3761
vn 0.3921 0.1819 0.9018
vn 0.4261 0.9047 -0.0000
vn -0.8176 0.4367 0.3753
vn 0.4036 0.0181 0.9148
vn 0.9112 -0.1617 -0.3789
vn -0.8176 0.4367 -0.3753
vn -0.3146 0.2664 0.9111
vn 0.9112 -0.1617 0.3789
vn 0.4036 0.0181 -0.9148
usemtl Material
s off
f 1/1/1 2/2/1 4/3/1 3/4/1
f 3/4/2 4/3/2 6/5/2 5/6/2
f 5/6/3 6/5/3 8/7/3 7/8/3
f 7/8/4 8/7/4 10/9/4 9/10/4
f 9/10/5 10/9/5 12/11/5 11/12/5
f 11/12/6 12/11/6 14/13/6 13/14/6
f 16/15/7 14/13/7 47/16/7 48/17/7
f 13/14/8 14/13/8 16/15/8 15/18/8
f 15/18/9 16/15/9 2/2/9 1/1/9
f 5/6/10 7/8/10 20/19/10 19/20/10
f 24/21/11 17/22/11 25/23/11 32/24/11
f 11/12/12 13/14/12 23/25/12 22/26/12
f 7/8/13 9/10/13 21/27/13 20/19/13
f 13/14/14 15/18/14 24/21/14 23/25/14
f 3/4/15 5/6/15 19/20/15 18/28/15
f 9/10/16 11/12/16 22/26/16 21/27/16
f 15/18/17 1/1/17 17/22/17 24/21/17
f 1/1/18 3/4/18 18/28/18 17/22/18
f 27/29/19 28/30/19 36/31/19 35/32/19
f 22/26/20 23/25/20 31/33/20 30/34/20
f 20/19/21 21/27/21 29/35/21 28/30/21
f 18/28/22 19/20/22 27/29/22 26/36/22
f 23/25/23 24/21/23 32/24/23 31/33/23
f 21/27/24 22/26/24 30/34/24 29/35/24
f 19/20/25 20/19/25 28/30/25 27/29/25
f 17/22/26 18/28/26 26/36/26 25/23/26
f 33/37/27 34/38/27 35/39/27 36/40/27 37/41/27 38/42/27 39/43/27 40/44/27
f 25/23/28 26/36/28 34/45/28 33/46/28
f 32/24/29 25/23/29 33/46/29 40/47/29
f 30/34/30 31/33/30 39/48/30 38/49/30
f 28/30/31 29/35/31 37/50/31 36/31/31
f 26/36/32 27/29/32 35/32/32 34/45/32
f 31/33/33 32/24/33 40/47/33 39/48/33
f 29/35/34 30/34/34 38/49/34 37/50/34
f 45/51/35 44/52/35 52/53/35 53/54/35
f 6/5/36 4/3/36 41/55/36 43/56/36
f 12/11/37 10/9/37 45/51/37 46/57/37
f 2/2/38 16/15/38 48/17/38 42/58/38
f 4/3/39 2/2/39 42/58/39 41/55/39
f 8/7/40 6/5/40 43/56/40 44/52/40
f 14/13/41 12/11/41 46/57/41 47/16/41
f 10/9/42 8/7/42 44/52/42 45/51/42
f 50/59/43 56/60/43 64/61/43 58/62/43
f 43/56/44 41/55/44 49/63/44 51/64/44
f 48/17/45 47/16/45 55/65/45 56/60/45
f 46/57/46 45/51/46 53/54/46 54/66/46
f 44/52/47 43/56/47 51/64/47 52/53/47
f 41/55/48 42/58/48 50/59/48 49/63/48
f 42/58/49 48/17/49 56/60/49 50/59/49
f 47/16/50 46/57/50 54/66/50 55/65/50
f 62/67/51 61/68/51 69/69/51 70/70/51
f 55/65/52 54/66/52 62/67/52 63/71/52
f 53/54/53 52/53/53 60/72/53 61/68/53
f 51/64/54 49/63/54 57/73/54 59/74/54
f 56/60/55 55/65/55 63/71/55 64/61/55
f 54/66/56 53/54/56 61/68/56 62/67/56
f 52/53/57 51/64/57 59/74/57 60/72/57
f 49/63/58 50/59/58 58/62/58 57/73/58
f 72/75/8 71/76/8 79/77/8 80/78/8
f 60/72/59 59/74/59 67/79/59 68/80/59
f 57/73/60 58/62/60 66/81/60 65/82/60
f 58/62/61 64/61/61 72/75/61 66/81/61
f 63/71/62 62/67/62 70/70/62 71/76/62
f 61/68/63 60/72/63 68/80/63 69/69/63
f 59/74/64 57/73/64 65/82/64 67/79/64
f 64/61/65 63/71/65 71/76/65 72/75/65
f 79/77/66 78/83/66 86/84/66 87/85/66
f 70/70/5 69/69/5 77/86/5 78/83/5
f 68/80/3 67/79/3 75/87/3 76/88/3
f 65/82/1 66/81/1 74/89/1 73/90/1
f 66/81/9 72/75/9 80/78/9 74/89/9
f 71/76/6 70/70/6 78/83/6 79/77/6
f 69/69/4 68/80/4 76/88/4 77/86/4
f 67/79/2 65/82/2 73/90/2 75/87/2
f 81/91/67 82/92/67 90/93/67 89/94/67
f 77/86/68 76/88/68 84/95/68 85/96/68
f 75/87/69 73/90/69 81/91/69 83/97/69
f 80/78/70 79/77/70 87/85/70 88/98/70
f 78/83/71 77/86/71 85/96/71 86/84/71
f 76/88/72 75/87/72 83/97/72 84/95/72
f 73/90/73 74/89/73 82/92/73 81/91/73
f 74/89/74 80/78/74 88/98/74 82/92/74
f 96/99/75 95/100/75 103/101/75 104/102/75
f 82/92/76 88/98/76 96/99/76 90/93/76
f 87/85/77 86/84/77 94/103/77 95/100/77
f 85/96/78 84/95/78 92/104/78 93/105/78
f 83/97/79 81/91/79 89/94/79 91/106/79
f 88/98/80 87/85/80 95/100/80 96/99/80
f 86/84/81 85/96/81 93/105/81 94/103/81
f 84/95/82 83/97/82 91/106/82 92/104/82
f 99/107/83 97/108/83 105/109/83 107/110/83
f 94/103/84 93/105/84 101/111/84 102/112/84
f 92/104/85 91/106/85 99/113/85 100/114/85
f 89/94/86 90/93/86 98/115/86 97/116/86
f 90/93/87 96/99/87 104/102/87 98/115/87
f 95/100/88 94/103/88 102/112/88 103/101/88
f 93/105/89 92/104/89 100/114/89 101/111/89
f 91/106/90 89/94/90 97/116/90 99/113/90
f 106/117/91 112/118/91 120/119/91 114/120/91
f 104/121/92 103/122/92 111/123/92 112/118/92
f 102/124/93 101/125/93 109/126/93 110/127/93
f 100/128/94 99/107/94 107/110/94 108/129/94
f 97/108/95 98/130/95 106/117/95 105/109/95
f 98/130/96 104/121/96 112/118/96 106/117/96
f 103/122/97 102/124/97 110/127/97 111/123/97
f 101/125/98 100/128/98 108/129/98 109/126/98
f 113/131/99 114/120/99 120/119/99 119/132/99 118/133/99 117/134/99 116/135/99 115/136/99
f 111/123/100 110/127/100 118/133/100 119/132/100
f 109/126/101 108/129/101 116/135/101 117/134/101
f 107/110/102 105/109/102 113/131/102 115/136/102
f 112/118/103 111/123/103 119/132/103 120/119/103
f 110/127/104 109/126/104 117/134/104 118/133/104
f 108/129/105 107/110/105 115/136/105 116/135/105
f 105/109/106 106/117/106 114/120/106 113/131/106
