# Blender v2.83.5 OBJ File: 'buttersquash02.blend'
# www.blender.org
mtllib buttersquash02.mtl
o Cylinder.001
v 0.012125 -0.057151 -0.051753
v 0.012125 -0.021893 -0.051753
v 0.012125 -0.057151 0.051753
v 0.012125 -0.021893 0.051753
v -0.024470 -0.057151 0.036595
v -0.024470 -0.021893 0.036595
v -0.039628 -0.057151 -0.000000
v -0.039628 -0.021893 -0.000000
v -0.024470 -0.057151 -0.036595
v -0.024470 -0.021893 -0.036595
v 0.012125 -0.071771 -0.042013
v 0.012125 -0.071771 0.042013
v -0.017583 -0.071771 0.029708
v -0.029888 -0.071771 -0.000000
v -0.017583 -0.071771 -0.029708
v 0.012125 0.001584 -0.044556
v 0.012125 0.001584 0.044556
v -0.019381 0.001584 0.031506
v -0.032431 0.001584 -0.000000
v -0.019381 0.001584 -0.031506
v 0.012125 0.021006 -0.035417
v 0.012125 0.021006 0.035417
v -0.012918 0.021006 0.025043
v -0.023292 0.021006 -0.000000
v -0.012918 0.021006 -0.025043
v 0.012141 0.038276 -0.035894
v 0.012141 0.038276 0.035894
v -0.013240 0.038276 0.025381
v -0.023753 0.038276 -0.000000
v -0.013240 0.038276 -0.025381
v 0.012141 0.052272 -0.039758
v 0.012141 0.052272 0.039758
v -0.015972 0.052272 0.028113
v -0.027617 0.052272 -0.000000
v -0.015972 0.052272 -0.028113
v 0.012141 0.072740 -0.039758
v 0.012141 0.072740 0.039758
v -0.015972 0.072740 0.028113
v -0.027617 0.072740 -0.000000
v -0.015972 0.072740 -0.028113
v 0.012141 0.086526 -0.034029
v 0.012141 0.086526 0.034029
v -0.011921 0.086526 0.024062
v -0.021888 0.086526 -0.000000
v -0.011921 0.086526 -0.024062
v 0.012141 0.095419 -0.021801
v 0.012141 0.095419 0.021801
v -0.003275 0.095419 0.015416
v -0.009660 0.095419 -0.000000
v -0.003275 0.095419 -0.015416
v 0.012125 -0.057529 -0.026552
v 0.012125 -0.039440 -0.026552
v 0.012125 -0.057529 0.026552
v 0.012125 -0.039440 0.026552
v 0.012125 -0.065030 -0.021555
v 0.012125 -0.065030 0.021555
v 0.012125 -0.027396 -0.022860
v 0.012125 -0.027396 0.022860
v 0.012125 -0.012650 -0.010854
v 0.012125 -0.012650 0.010854
v 0.012125 -0.065030 0.000000
v 0.012125 -0.065030 -0.010777
v 0.012125 -0.065030 0.010777
v 0.012125 -0.027396 0.010832
v 0.012125 -0.027396 -0.010832
v 0.012125 -0.039440 0.010815
v 0.015036 -0.039440 -0.010815
v 0.015036 -0.057529 0.010788
v 0.012125 -0.057529 -0.010788
v 0.012125 -0.012650 0.000000
v 0.012125 -0.027396 0.000000
v 0.012125 -0.039440 0.000000
v 0.012125 -0.057529 0.000000
v 0.012125 -0.020023 -0.016857
v 0.012125 -0.020023 0.016857
v 0.015036 -0.020023 0.010843
v 0.012125 -0.020023 0.000000
v 0.015036 -0.020023 -0.010843
vt 0.687500 0.817500
vt 0.687500 0.817500
vt 0.687500 0.817500
vt 0.687500 0.817500
vt 0.687500 0.817500
vt 0.687500 0.817500
vt 0.687500 0.817500
vt 0.687500 0.817500
vt 0.687500 0.817500
vt 0.687500 0.817500
vt 0.687500 0.817500
vt 0.687500 0.817500
vt 0.687500 0.817500
vt 0.687500 0.817500
vt 0.687500 0.817500
vt 0.687500 0.817500
vt 0.687500 0.817500
vt 0.437500 0.817500
vt 0.437500 0.817500
vt 0.437500 0.817500
vt 0.437500 0.817500
vt 0.437500 0.817500
vt 0.687500 0.817500
vt 0.687500 0.817500
vt 0.687500 0.817500
vt 0.687500 0.817500
vt 0.687500 0.817500
vt 0.687500 0.817500
vt 0.687500 0.817500
vt 0.687500 0.817500
vt 0.687500 0.817500
vt 0.687500 0.817500
vt 0.687500 0.817500
vt 0.687500 0.817500
vt 0.687500 0.817500
vt 0.687500 0.817500
vt 0.687500 0.817500
vt 0.687500 0.817500
vt 0.687500 0.817500
vt 0.687500 0.817500
vt 0.687500 0.817500
vt 0.687500 0.817500
vt 0.687500 0.817500
vt 0.687500 0.817500
vt 0.687500 0.817500
vt 0.687500 0.817500
vt 0.687500 0.817500
vt 0.687500 0.817500
vt 0.687500 0.817500
vt 0.687500 0.817500
vt 0.437500 0.817500
vt 0.437500 0.817500
vt 0.437500 0.817500
vt 0.437500 0.817500
vt 0.437500 0.817500
vt 0.687500 0.817500
vt 0.687500 0.817500
vt 0.687500 0.817500
vt 0.687500 0.817500
vt 0.687500 0.817500
vt 0.437500 0.817500
vt 0.437500 0.817500
vt 0.437500 0.817500
vt 0.437500 0.817500
vt 0.437500 0.817500
vt 0.437500 0.817500
vt 0.437500 0.817500
vt 0.437500 0.817500
vt 0.437500 0.817500
vt 0.437500 0.817500
vt 0.437500 0.817500
vt 0.437500 0.817500
vt 0.437500 0.817500
vt 0.437500 0.817500
vt 0.562500 0.817500
vt 0.562500 0.817500
vt 0.562500 0.817500
vt 0.437500 0.817500
vt 0.437500 0.817500
vt 0.437500 0.817500
vt 0.437500 0.817500
vt 0.437500 0.817500
vt 0.437500 0.817500
vt 0.437500 0.817500
vt 0.437500 0.817500
vt 0.437500 0.817500
vt 0.437500 0.817500
vt 0.437500 0.817500
vt 0.437500 0.817500
vt 0.437500 0.817500
vt 0.437500 0.817500
vt 0.437500 0.817500
vt 0.437500 0.817500
vt 0.437500 0.817500
vt 0.437500 0.817500
vt 0.562500 0.817500
vt 0.562500 0.817500
vt 0.562500 0.817500
vt 0.562500 0.817500
vt 0.562500 0.817500
vt 0.562500 0.817500
vt 0.562500 0.817500
vt 0.562500 0.817500
vt 0.562500 0.817500
vt 0.562500 0.817500
vt 0.562500 0.817500
vt 0.562500 0.817500
vt 0.562500 0.817500
vt 0.562500 0.817500
vt 0.562500 0.817500
vt 0.562500 0.817500
vt 0.562500 0.817500
vt 0.562500 0.817500
vt 0.562500 0.817500
vt 0.562500 0.817500
vt 0.562500 0.817500
vt 0.562500 0.817500
vt 0.562500 0.817500
vt 0.562500 0.817500
vt 0.562500 0.817500
vn -0.3827 0.0000 0.9239
vn -0.9239 0.0000 0.3827
vn -0.8889 0.2725 -0.3682
vn -0.9239 0.0000 -0.3827
vn -0.3827 0.0000 -0.9239
vn -0.7868 -0.5241 0.3259
vn -0.7868 -0.5241 -0.3259
vn -0.3259 -0.5241 0.7868
vn -0.3259 -0.5241 -0.7868
vn 0.0000 -1.0000 0.0000
vn -0.3682 0.2725 0.8889
vn -0.3682 0.2725 -0.8889
vn -0.8889 0.2725 0.3682
vn -0.3826 -0.0252 -0.9236
vn -0.8473 0.3987 -0.3510
vn -0.3510 0.3987 0.8473
vn -0.3510 0.3987 -0.8473
vn -0.8473 0.3987 0.3510
vn -0.3708 -0.2472 0.8952
vn -0.9236 -0.0247 0.3826
vn -0.9236 -0.0247 -0.3826
vn -0.3826 -0.0252 0.9236
vn -0.3708 -0.2472 -0.8952
vn -0.8952 -0.2472 0.3708
vn -0.8952 -0.2472 -0.3708
vn -0.8625 0.3584 0.3573
vn -0.8625 0.3584 -0.3573
vn -0.3573 0.3584 0.8625
vn -0.3573 0.3584 -0.8625
vn 0.0000 1.0000 -0.0000
vn -0.2367 0.7858 -0.5715
vn -0.5715 0.7858 0.2367
vn -0.5715 0.7858 -0.2367
vn -0.2367 0.7858 0.5715
vn 1.0000 -0.0002 0.0000
vn 1.0000 0.0000 0.0000
vn 0.8483 0.3343 0.4106
vn 0.9727 0.1921 -0.1305
vn 0.8483 0.3343 -0.4106
vn 0.9855 0.1348 -0.1033
vn 0.9879 0.0796 -0.1331
vn 0.9926 0.0798 0.0917
vn 0.9926 -0.0799 -0.0917
vn 0.9732 -0.1887 -0.1314
vn 0.9689 -0.2235 0.1063
vn 0.9879 -0.0794 0.1331
vn 0.9840 0.1190 0.1323
vn 0.9727 0.1921 0.1305
vn 0.9727 -0.1919 0.1306
vn 0.9727 -0.1919 -0.1306
vn 0.9790 -0.1291 0.1580
vn 0.9790 -0.1291 -0.1580
usemtl Material
s off
f 3/1/1 4/2/1 6/3/1 5/4/1
f 5/4/2 6/3/2 8/5/2 7/6/2
f 10/7/3 8/5/3 19/8/3 20/9/3
f 7/6/4 8/5/4 10/7/4 9/10/4
f 9/10/5 10/7/5 2/11/5 1/12/5
f 5/4/6 7/6/6 14/13/6 13/14/6
f 7/6/7 9/10/7 15/15/7 14/13/7
f 3/1/8 5/4/8 13/14/8 12/16/8
f 9/10/9 1/12/9 11/17/9 15/15/9
f 12/18/10 13/19/10 14/20/10 15/21/10 11/22/10
f 6/3/11 4/2/11 17/23/11 18/24/11
f 2/11/12 10/7/12 20/9/12 16/25/12
f 8/5/13 6/3/13 18/24/13 19/8/13
f 21/26/14 25/27/14 30/28/14 26/29/14
f 20/9/15 19/8/15 24/30/15 25/27/15
f 18/24/16 17/23/16 22/31/16 23/32/16
f 16/25/17 20/9/17 25/27/17 21/26/17
f 19/8/18 18/24/18 23/32/18 24/30/18
f 28/33/19 27/34/19 32/35/19 33/36/19
f 24/30/20 23/32/20 28/33/20 29/37/20
f 25/27/21 24/30/21 29/37/21 30/28/21
f 23/32/22 22/31/22 27/34/22 28/33/22
f 35/38/4 34/39/4 39/40/4 40/41/4
f 26/29/23 30/28/23 35/38/23 31/42/23
f 29/37/24 28/33/24 33/36/24 34/39/24
f 30/28/25 29/37/25 34/39/25 35/38/25
f 39/40/26 38/43/26 43/44/26 44/45/26
f 33/36/1 32/35/1 37/46/1 38/43/1
f 31/42/5 35/38/5 40/41/5 36/47/5
f 34/39/2 33/36/2 38/43/2 39/40/2
f 40/41/27 39/40/27 44/45/27 45/48/27
f 38/43/28 37/46/28 42/49/28 43/44/28
f 36/47/29 40/41/29 45/48/29 41/50/29
f 48/51/30 47/52/30 46/53/30 50/54/30 49/55/30
f 41/50/31 45/48/31 50/56/31 46/57/31
f 44/45/32 43/44/32 48/58/32 49/59/32
f 45/48/33 44/45/33 49/59/33 50/56/33
f 43/44/34 42/49/34 47/60/34 48/58/34
f 22/61/35 21/62/35 26/63/35 31/64/35 36/65/35 41/66/35 46/53/35 47/52/35 42/67/35 37/68/35 32/69/35 27/70/35
f 1/71/36 2/72/36 52/73/36 51/74/36
f 76/75/37 60/76/37 75/77/37
f 2/72/36 16/78/36 57/79/36 52/73/36
f 11/22/36 1/71/36 51/74/36 55/80/36
f 4/81/36 3/82/36 53/83/36 54/84/36
f 12/18/36 11/22/36 55/80/36 62/85/36 61/86/36 63/87/36 56/88/36
f 17/89/36 4/81/36 54/84/36 58/90/36
f 21/62/36 22/61/36 60/91/36 70/92/36 59/93/36
f 3/82/36 12/18/36 56/88/36 53/83/36
f 22/61/36 17/89/36 58/90/36 75/94/36 60/91/36
f 16/78/36 21/62/36 59/93/36 74/95/36 57/79/36
f 77/96/38 70/97/38 60/76/38 76/75/38
f 78/98/39 74/99/39 59/100/39
f 72/101/36 71/102/36 64/103/36 66/104/36
f 66/104/36 64/103/36 58/105/36 54/106/36
f 52/107/40 57/108/40 65/109/40 67/110/40
f 73/111/41 72/101/41 66/104/41 68/112/41
f 68/112/42 66/104/42 54/106/42 53/113/42
f 51/114/43 52/107/43 67/110/43 69/115/43
f 61/116/44 73/111/44 68/112/44 63/117/44
f 63/117/45 68/112/45 53/113/45 56/118/45
f 55/119/36 51/114/36 69/115/36 62/120/36
f 69/115/46 67/110/46 72/101/46 73/111/46
f 67/110/47 65/109/47 71/102/47 72/101/47
f 78/98/48 59/100/48 70/97/48 77/96/48
f 62/120/36 69/115/36 73/111/36 61/116/36
f 65/109/49 78/98/49 77/96/49 71/102/49
f 71/102/50 77/96/50 76/75/50 64/103/50
f 64/103/51 76/75/51 75/77/51 58/105/51
f 65/109/52 57/108/52 74/99/52 78/98/52
