# Blender v2.83.5 OBJ File: 'cabbage03.blend'
# www.blender.org
mtllib cabbage03.mtl
o Cube.001
v -0.023302 -0.004352 0.054316
v -0.023302 -0.003764 0.054316
v -0.008925 -0.000060 0.035138
v -0.012085 0.002159 0.033137
v -0.020116 -0.004352 0.056333
v -0.020116 -0.003764 0.056333
v -0.005765 0.002159 0.037139
v -0.003145 0.002159 0.019021
v 0.000015 -0.000060 0.021022
v 0.003175 0.002159 0.023023
v 0.011662 -0.001102 0.009326
v 0.014224 -0.003321 0.012051
v 0.016786 -0.001102 0.014776
v 0.027142 -0.002203 -0.008463
v 0.029704 -0.003369 -0.005738
v 0.032266 -0.002203 -0.003014
v 0.044983 0.003273 -0.024197
v 0.047025 0.002344 -0.022026
v 0.049067 0.003273 -0.019854
v 0.072876 -0.002609 -0.038421
v 0.072876 -0.002963 -0.038421
v 0.073732 -0.002963 -0.036313
v 0.073732 -0.002609 -0.036313
v -0.017894 -0.004472 0.023849
v -0.017894 -0.003644 0.023849
v -0.015238 -0.000060 -0.000045
v -0.018978 0.002159 -0.000045
v -0.012581 -0.004472 0.023849
v -0.012581 -0.003644 0.023849
v -0.011498 0.002159 -0.000045
v -0.018978 0.002159 -0.016754
v -0.015238 -0.000060 -0.016754
v -0.011498 0.002159 -0.016754
v -0.013385 -0.001102 -0.035598
v -0.009763 -0.003321 -0.034667
v -0.006141 -0.001102 -0.033736
v -0.005656 -0.002596 -0.055551
v -0.005656 -0.002977 -0.055551
v -0.003290 -0.002977 -0.054942
v -0.003290 -0.002596 -0.054942
v -0.081537 -0.004326 0.011365
v -0.081537 -0.003790 0.011365
v -0.062278 0.000257 -0.005242
v -0.063997 0.002000 -0.007626
v -0.079524 -0.004326 0.014157
v -0.079524 -0.003790 0.014157
v -0.060560 0.002000 -0.002858
v -0.045132 0.002000 -0.015302
v -0.043414 0.000257 -0.012918
v -0.041695 0.002000 -0.010535
v -0.023008 -0.001102 -0.020497
v -0.021645 -0.003321 -0.017014
v -0.020282 -0.001102 -0.013531
v -0.003220 -0.002203 -0.028240
v -0.003220 -0.003369 -0.028240
v -0.000495 -0.003369 -0.021274
v -0.000495 -0.002203 -0.021274
v -0.063660 -0.001102 0.004179
v -0.063660 -0.000304 0.004179
v -0.046547 0.000427 -0.001419
v -0.046819 0.002227 -0.004440
v -0.063202 -0.001102 0.009280
v -0.063202 -0.000304 0.009280
v -0.046276 0.002227 0.001601
v -0.030241 0.005514 -0.006640
v -0.029906 0.003295 -0.002915
v -0.029571 0.005514 0.000810
v -0.013538 0.004096 -0.000791
v -0.014141 0.001877 0.002901
v -0.014744 0.004096 0.006592
v 0.009999 0.001152 0.000668
v 0.009396 -0.000014 0.004359
v 0.008793 0.001152 0.008050
v 0.033342 0.006628 0.005250
v 0.032861 0.005699 0.008192
v 0.032381 0.006628 0.011134
v 0.061775 0.000799 0.008952
v 0.061775 0.000339 0.008952
v 0.060278 0.000339 0.011499
v 0.060278 0.000799 0.011499
v -0.045280 -0.003779 0.023144
v -0.044575 -0.002654 0.020478
v -0.044809 -0.003506 0.021051
v -0.045986 -0.002654 0.023998
v -0.031414 0.000575 0.021879
v -0.031108 -0.001451 0.025281
v -0.030802 0.000575 0.028683
v -0.016161 0.003629 0.027221
v -0.016711 0.001603 0.030592
v -0.017262 0.003629 0.033963
v 0.005332 0.004347 0.028553
v 0.004782 0.003283 0.031924
v 0.004231 0.004347 0.035294
v 0.026649 0.002607 0.032738
v 0.026210 0.001759 0.035424
v 0.025771 0.002607 0.038111
v 0.053161 -0.002547 0.035185
v 0.053161 -0.003305 0.035185
v 0.050699 -0.003305 0.039378
v 0.050699 -0.002547 0.039378
v 0.004237 -0.004070 -0.053426
v 0.007953 -0.002427 -0.054979
v 0.007080 -0.003670 -0.054741
v 0.002620 -0.002427 -0.053484
v 0.014072 0.000575 -0.043427
v 0.011560 -0.001451 -0.041113
v 0.009048 0.000575 -0.038799
v 0.024667 0.003629 -0.028074
v 0.021658 0.001603 -0.026459
v 0.018649 0.003629 -0.024843
v 0.035473 0.004347 -0.010214
v 0.032464 0.003283 -0.008598
v 0.029455 0.004347 -0.006983
v 0.049741 0.002607 0.009244
v 0.047342 0.001759 0.010532
v 0.044944 0.002607 0.011819
v 0.059333 -0.002547 0.031765
v 0.059333 -0.003305 0.031765
v 0.054508 -0.003305 0.032365
v 0.054508 -0.002547 0.032365
v -0.028352 -0.003436 -0.041327
v -0.026406 -0.002565 -0.042745
v -0.026877 -0.003224 -0.042484
v -0.029278 -0.002565 -0.041130
v -0.017561 0.000376 -0.033622
v -0.019549 -0.001433 -0.030788
v -0.021537 0.000376 -0.027954
v -0.004651 0.003103 -0.021340
v -0.007240 0.001294 -0.019061
v -0.009830 0.003103 -0.016781
v 0.008913 0.004935 -0.006687
v 0.006324 0.003984 -0.004408
v 0.003735 0.004935 -0.002129
v 0.026080 0.006167 0.008679
v 0.024016 0.005410 0.010495
v 0.021952 0.006167 0.012312
v 0.039323 -0.002411 0.028120
v 0.039323 -0.003087 0.028120
v 0.034812 -0.003087 0.029853
v 0.034812 -0.002411 0.029853
vt 0.812500 0.562500
vt 0.812500 0.562500
vt 0.812500 0.562500
vt 0.812500 0.562500
vt 0.812500 0.562500
vt 0.812500 0.562500
vt 0.812500 0.562500
vt 0.812500 0.562500
vt 0.812500 0.562500
vt 0.812500 0.562500
vt 0.812500 0.562500
vt 0.812500 0.562500
vt 0.812500 0.562500
vt 0.812500 0.562500
vt 0.812500 0.562500
vt 0.812500 0.562500
vt 0.812500 0.562500
vt 0.812500 0.562500
vt 0.812500 0.562500
vt 0.812500 0.562500
vt 0.812500 0.562500
vt 0.812500 0.562500
vt 0.812500 0.562500
vt 0.937500 0.187500
vt 0.937500 0.187500
vt 0.937500 0.187500
vt 0.937500 0.187500
vt 0.937500 0.187500
vt 0.937500 0.187500
vt 0.937500 0.187500
vt 0.937500 0.187500
vt 0.937500 0.187500
vt 0.937500 0.187500
vt 0.937500 0.187500
vt 0.937500 0.187500
vt 0.937500 0.187500
vt 0.937500 0.187500
vt 0.937500 0.187500
vt 0.937500 0.187500
vt 0.937500 0.187500
vt 0.687500 0.562500
vt 0.687500 0.562500
vt 0.687500 0.562500
vt 0.687500 0.562500
vt 0.687500 0.562500
vt 0.687500 0.562500
vt 0.687500 0.562500
vt 0.687500 0.562500
vt 0.687500 0.562500
vt 0.687500 0.562500
vt 0.687500 0.562500
vt 0.687500 0.562500
vt 0.687500 0.562500
vt 0.687500 0.562500
vt 0.687500 0.562500
vt 0.687500 0.562500
vt 0.687500 0.562500
vt 0.687500 0.562500
vt 0.687500 0.562500
vt 0.687500 0.562500
vt 0.687500 0.562500
vt 0.687500 0.562500
vt 0.687500 0.562500
vt 0.687500 0.562500
vt 0.687500 0.562500
vt 0.687500 0.562500
vt 0.687500 0.562500
vt 0.687500 0.562500
vt 0.687500 0.562500
vt 0.687500 0.562500
vt 0.687500 0.562500
vt 0.687500 0.562500
vt 0.687500 0.562500
vt 0.687500 0.562500
vt 0.687500 0.562500
vt 0.687500 0.562500
vt 0.687500 0.562500
vt 0.687500 0.562500
vt 0.687500 0.562500
vt 0.687500 0.562500
vt 0.937500 0.187500
vt 0.937500 0.187500
vt 0.937500 0.187500
vt 0.937500 0.187500
vt 0.937500 0.187500
vt 0.937500 0.187500
vt 0.937500 0.187500
vt 0.937500 0.187500
vt 0.937500 0.187500
vt 0.937500 0.187500
vt 0.937500 0.187500
vt 0.937500 0.187500
vt 0.937500 0.187500
vt 0.937500 0.187500
vt 0.937500 0.187500
vt 0.937500 0.187500
vt 0.937500 0.187500
vt 0.937500 0.187500
vt 0.562500 0.562500
vt 0.562500 0.562500
vt 0.562500 0.562500
vt 0.562500 0.562500
vt 0.937500 0.187500
vt 0.937500 0.187500
vt 0.812500 0.562500
vt 0.812500 0.562500
vt 0.812500 0.562500
vt 0.812500 0.562500
vt 0.812500 0.562500
vt 0.812500 0.562500
vt 0.812500 0.562500
vt 0.812500 0.562500
vt 0.812500 0.562500
vt 0.812500 0.562500
vt 0.812500 0.562500
vt 0.812500 0.562500
vt 0.812500 0.562500
vt 0.812500 0.562500
vt 0.812500 0.562500
vt 0.812500 0.562500
vt 0.812500 0.562500
vt 0.812500 0.562500
vt 0.812500 0.562500
vt 0.812500 0.562500
vt 0.562500 0.562500
vt 0.562500 0.562500
vt 0.562500 0.562500
vt 0.562500 0.562500
vt 0.562500 0.562500
vt 0.562500 0.562500
vt 0.562500 0.562500
vt 0.562500 0.562500
vt 0.562500 0.562500
vt 0.562500 0.562500
vt 0.562500 0.562500
vt 0.562500 0.562500
vt 0.562500 0.562500
vt 0.562500 0.562500
vt 0.562500 0.562500
vt 0.562500 0.562500
vt 0.562500 0.562500
vt 0.562500 0.562500
vt 0.562500 0.562500
vt 0.562500 0.562500
vn -0.4094 -0.7883 -0.4592
vn 0.4311 -0.8600 0.2730
vn 0.5902 -0.7883 0.1738
vn -0.5350 0.0000 0.8448
vn 0.0946 -0.9843 -0.1493
vn -0.1287 0.9706 0.2033
vn -0.3999 -0.8582 -0.3218
vn 0.0000 1.0000 0.0000
vn -0.4311 -0.8600 -0.2730
vn 0.2962 -0.9109 0.2872
vn 0.1604 -0.8090 0.5655
vn 0.1274 0.9798 -0.1543
vn -0.1635 0.9745 0.1538
vn 0.0342 0.9989 -0.0321
vn -0.3282 -0.9092 -0.2562
vn 0.1518 0.9815 -0.1162
vn -0.0358 -0.9305 -0.3644
vn 0.3615 -0.9305 0.0581
vn 0.9266 0.0000 -0.3761
vn -0.3250 -0.9159 -0.2357
vn 0.0773 -0.8884 0.4525
vn -0.1608 -0.9848 0.0653
vn -0.6209 -0.7621 -0.1833
vn 0.5103 -0.8600 0.0000
vn 0.6209 -0.7621 -0.1833
vn 0.0000 0.0000 1.0000
vn -0.0000 -0.9834 -0.1816
vn 0.0000 0.9718 0.2360
vn -0.5160 -0.8566 -0.0034
vn -0.5103 -0.8600 -0.0000
vn 0.5516 -0.8211 0.1467
vn 0.4644 -0.8333 0.2999
vn 0.0218 0.9848 -0.1726
vn 0.2490 0.0000 -0.9685
vn 0.0040 -0.9999 -0.0157
vn 0.0175 0.9975 -0.0679
vn -0.5540 -0.8211 -0.1375
vn -0.2987 -0.7880 -0.5384
vn 0.1964 -0.8535 0.4827
vn 0.5530 -0.7641 0.3322
vn -0.8112 0.0000 0.5847
vn 0.1444 -0.9840 -0.1041
vn -0.1808 0.9749 0.1303
vn -0.2280 -0.8582 -0.4599
vn -0.1964 -0.8535 -0.4827
vn 0.1703 -0.7391 0.6517
vn -0.0330 -0.8201 0.5713
vn 0.1283 0.9894 -0.0674
vn 0.9313 0.0000 -0.3644
vn -0.0021 -1.0000 0.0008
vn 0.0482 0.9987 -0.0189
vn -0.3172 -0.7391 -0.5942
vn -0.1748 -0.7543 -0.6329
vn 0.1906 -0.8508 0.4897
vn 0.4014 -0.7120 0.5762
vn -0.9960 0.0000 0.0896
vn 0.0865 -0.9962 -0.0078
vn -0.1422 0.9898 0.0128
vn 0.1077 -0.8548 -0.5077
vn -0.1923 0.9812 0.0173
vn 0.1002 -0.8508 -0.5159
vn -0.1181 -0.9098 0.3978
vn -0.2624 -0.8322 0.4885
vn 0.0884 0.9961 0.0032
vn -0.2215 0.9745 -0.0362
vn 0.1229 0.9922 0.0201
vn -0.0664 -0.9028 -0.4248
vn 0.1983 0.9784 0.0578
vn 0.2674 -0.9305 -0.2502
vn 0.1739 -0.9305 0.3223
vn 0.8623 0.0000 0.5064
vn -0.1387 -0.8866 -0.4414
vn -0.2074 -0.8972 0.3899
vn -0.1786 -0.9783 -0.1049
vn 0.0135 -0.8029 0.5959
vn 0.1745 -0.9806 -0.0890
vn -0.9306 -0.1763 -0.3207
vn 0.3379 -0.8129 -0.4743
vn -0.2187 0.9757 -0.0169
vn 0.2719 -0.7772 -0.5675
vn 0.0246 -0.9072 0.4200
vn -0.0070 -0.8582 0.5133
vn -0.2049 0.9788 -0.0074
vn 0.0788 0.9968 0.0129
vn -0.0330 0.9994 -0.0054
vn 0.0759 -0.9110 -0.4053
vn 0.1914 0.9792 0.0668
vn -0.0181 -0.9526 -0.3038
vn -0.1138 -0.9526 0.2822
vn -0.1388 -0.8399 -0.5247
vn -0.2260 -0.8519 0.4724
vn -0.1845 -0.9768 -0.1083
vn -0.4742 -0.7821 0.4043
vn 0.1833 -0.9781 0.0990
vn -0.3122 -0.1763 -0.9335
vn 0.5003 -0.8485 -0.1723
vn -0.1033 0.9792 -0.1747
vn 0.6442 -0.7562 -0.1144
vn -0.3275 -0.9086 0.2591
vn -0.3319 -0.8496 0.4099
vn -0.0981 0.9856 -0.1378
vn 0.0344 0.9974 0.0640
vn -0.0163 0.9994 -0.0303
vn 0.3778 -0.9106 -0.1674
vn 0.0673 0.9767 0.2039
vn 0.2081 -0.9488 -0.2375
vn -0.2670 -0.9547 0.1316
vn 0.1233 0.0000 0.9924
vn 0.3658 -0.8501 -0.3789
vn -0.5504 -0.8348 0.0160
vn -0.0270 -0.9757 -0.2174
vn -0.3433 -0.8425 0.4152
vn 0.1740 -0.9839 0.0417
vn -0.5214 -0.1898 -0.8320
vn 0.4201 -0.8744 -0.2427
vn -0.1532 0.9777 -0.1440
vn 0.5320 -0.8155 -0.2278
vn -0.2018 -0.9225 0.3291
vn -0.2118 -0.8771 0.4310
vn -0.1180 0.9874 -0.1057
vn -0.0356 0.9986 -0.0404
vn -0.0604 0.9958 -0.0686
vn 0.3405 -0.9243 -0.1726
vn 0.1873 0.9349 0.3015
vn 0.2127 -0.9639 -0.1603
vn -0.1327 -0.9593 0.2492
vn 0.3587 0.0000 0.9335
vn 0.1466 -0.8507 -0.5048
vn -0.5759 -0.8175 -0.0091
vn -0.1295 -0.9325 -0.3371
usemtl Material.001
s off
f 1/1/1 2/2/1 4/3/1 3/4/1
f 7/5/2 3/4/2 9/6/2 10/7/2
f 3/4/3 7/5/3 6/8/3 5/9/3
f 5/9/4 6/8/4 2/2/4 1/1/4
f 3/4/5 5/9/5 1/1/5
f 7/5/6 4/3/6 2/2/6 6/8/6
f 9/6/7 8/10/7 11/11/7 12/12/7
f 4/3/8 7/5/8 10/7/8 8/10/8
f 3/4/9 4/3/9 8/10/9 9/6/9
f 13/13/10 12/12/10 15/14/10 16/15/10
f 10/7/11 9/6/11 12/12/11 13/13/11
f 8/10/12 10/7/12 13/13/12 11/11/12
f 14/16/13 16/15/13 19/17/13 17/18/13
f 11/11/14 13/13/14 16/15/14 14/16/14
f 12/12/15 11/11/15 14/16/15 15/14/15
f 17/18/16 19/17/16 23/19/16 20/20/16
f 15/14/17 14/16/17 17/18/17 18/21/17
f 16/15/18 15/14/18 18/21/18 19/17/18
f 21/22/19 20/20/19 23/19/19 22/23/19
f 18/21/20 17/18/20 20/20/20 21/22/20
f 19/17/21 18/21/21 22/23/21 23/19/21
f 18/21/22 21/22/22 22/23/22
f 24/24/23 25/25/23 27/26/23 26/27/23
f 30/28/24 26/27/24 32/29/24 33/30/24
f 26/27/25 30/28/25 29/31/25 28/32/25
f 28/32/26 29/31/26 25/25/26 24/24/26
f 26/27/27 28/32/27 24/24/27
f 30/28/28 27/26/28 25/25/28 29/31/28
f 32/29/29 31/33/29 34/34/29 35/35/29
f 27/26/8 30/28/8 33/30/8 31/33/8
f 26/27/30 27/26/30 31/33/30 32/29/30
f 36/36/31 35/35/31 39/37/31 40/38/31
f 33/30/32 32/29/32 35/35/32 36/36/32
f 31/33/33 33/30/33 36/36/33 34/34/33
f 38/39/34 37/40/34 40/38/34 39/37/34
f 35/35/35 38/39/35 39/37/35
f 34/34/36 36/36/36 40/38/36 37/40/36
f 35/35/37 34/34/37 37/40/37 38/39/37
f 41/41/38 42/42/38 44/43/38 43/44/38
f 47/45/39 43/44/39 49/46/39 50/47/39
f 43/44/40 47/45/40 46/48/40 45/49/40
f 45/49/41 46/48/41 42/42/41 41/41/41
f 43/44/42 45/49/42 41/41/42
f 47/45/43 44/43/43 42/42/43 46/48/43
f 49/46/44 48/50/44 51/51/44 52/52/44
f 44/43/8 47/45/8 50/47/8 48/50/8
f 43/44/45 44/43/45 48/50/45 49/46/45
f 53/53/46 52/52/46 56/54/46 57/55/46
f 50/47/47 49/46/47 52/52/47 53/53/47
f 48/50/48 50/47/48 53/53/48 51/51/48
f 55/56/49 54/57/49 57/55/49 56/54/49
f 52/52/50 55/56/50 56/54/50
f 51/51/51 53/53/51 57/55/51 54/57/51
f 52/52/52 51/51/52 54/57/52 55/56/52
f 58/58/53 59/59/53 61/60/53 60/61/53
f 64/62/54 60/61/54 66/63/54 67/64/54
f 60/61/55 64/62/55 63/65/55 62/66/55
f 62/66/56 63/65/56 59/59/56 58/58/56
f 60/61/57 62/66/57 58/58/57
f 64/62/58 61/60/58 59/59/58 63/65/58
f 66/63/59 65/67/59 68/68/59 69/69/59
f 61/60/60 64/62/60 67/64/60 65/67/60
f 60/61/61 61/60/61 65/67/61 66/63/61
f 70/70/62 69/69/62 72/71/62 73/72/62
f 67/64/63 66/63/63 69/69/63 70/70/63
f 65/67/64 67/64/64 70/70/64 68/68/64
f 71/73/65 73/72/65 76/74/65 74/75/65
f 68/68/66 70/70/66 73/72/66 71/73/66
f 69/69/67 68/68/67 71/73/67 72/71/67
f 74/75/68 76/74/68 80/76/68 77/77/68
f 72/71/69 71/73/69 74/75/69 75/78/69
f 73/72/70 72/71/70 75/78/70 76/74/70
f 78/79/71 77/77/71 80/76/71 79/80/71
f 75/78/72 74/75/72 77/77/72 78/79/72
f 76/74/73 75/78/73 79/80/73 80/76/73
f 75/78/74 78/79/74 79/80/74
f 84/81/75 81/82/75 86/83/75 87/84/75
f 83/85/76 86/83/76 81/82/76
f 82/86/77 83/85/77 81/82/77 84/81/77
f 86/83/78 85/87/78 88/88/78 89/89/78
f 82/86/79 84/81/79 87/84/79 85/87/79
f 83/85/80 82/86/80 85/87/80 86/83/80
f 90/90/81 89/89/81 92/91/81 93/92/81
f 87/84/82 86/83/82 89/89/82 90/90/82
f 85/87/83 87/84/83 90/90/83 88/88/83
f 91/93/84 93/92/84 96/94/84 94/95/84
f 88/88/85 90/90/85 93/92/85 91/93/85
f 89/89/86 88/88/86 91/93/86 92/91/86
f 94/95/87 96/94/87 100/96/87 97/97/87
f 92/91/88 91/93/88 94/95/88 95/98/88
f 93/92/89 92/91/89 95/98/89 96/94/89
f 98/99/71 97/100/71 100/101/71 99/102/71
f 95/98/90 94/95/90 97/97/90 98/103/90
f 96/94/91 95/98/91 99/104/91 100/96/91
f 95/98/92 98/103/92 99/104/92
f 104/105/93 101/106/93 106/107/93 107/108/93
f 103/109/94 106/107/94 101/106/94
f 102/110/95 103/109/95 101/106/95 104/105/95
f 106/107/96 105/111/96 108/112/96 109/113/96
f 102/110/97 104/105/97 107/108/97 105/111/97
f 103/109/98 102/110/98 105/111/98 106/107/98
f 110/114/99 109/113/99 112/115/99 113/116/99
f 107/108/100 106/107/100 109/113/100 110/114/100
f 105/111/101 107/108/101 110/114/101 108/112/101
f 111/117/102 113/116/102 116/118/102 114/119/102
f 108/112/103 110/114/103 113/116/103 111/117/103
f 109/113/104 108/112/104 111/117/104 112/115/104
f 114/119/105 116/118/105 120/120/105 117/121/105
f 112/115/106 111/117/106 114/119/106 115/122/106
f 113/116/107 112/115/107 115/122/107 116/118/107
f 118/123/108 117/121/108 120/120/108 119/124/108
f 115/122/109 114/119/109 117/121/109 118/123/109
f 116/118/110 115/122/110 119/124/110 120/120/110
f 115/122/111 118/123/111 119/124/111
f 124/125/112 121/126/112 126/127/112 127/128/112
f 123/129/113 126/127/113 121/126/113
f 122/130/114 123/129/114 121/126/114 124/125/114
f 126/127/115 125/131/115 128/132/115 129/133/115
f 122/130/116 124/125/116 127/128/116 125/131/116
f 123/129/117 122/130/117 125/131/117 126/127/117
f 130/134/118 129/133/118 132/135/118 133/136/118
f 127/128/119 126/127/119 129/133/119 130/134/119
f 125/131/120 127/128/120 130/134/120 128/132/120
f 131/137/121 133/136/121 136/138/121 134/139/121
f 128/132/122 130/134/122 133/136/122 131/137/122
f 129/133/123 128/132/123 131/137/123 132/135/123
f 134/139/124 136/138/124 140/140/124 137/141/124
f 132/135/125 131/137/125 134/139/125 135/142/125
f 133/136/126 132/135/126 135/142/126 136/138/126
f 138/143/127 137/141/127 140/140/127 139/144/127
f 135/142/128 134/139/128 137/141/128 138/143/128
f 136/138/129 135/142/129 139/144/129 140/140/129
f 135/142/130 138/143/130 139/144/130
