# Blender v2.83.5 OBJ File: 'carrot02.blend'
# www.blender.org
mtllib carrot02.mtl
o Cylinder
v 0.000000 0.003339 0.016084
v 0.000000 -0.003339 0.016084
v -0.011373 0.003339 0.011373
v -0.011373 -0.003339 0.011373
v -0.016084 0.003339 -0.000000
v -0.016084 -0.003339 -0.000000
v -0.011373 0.003339 -0.011373
v -0.011373 -0.003339 -0.011373
v 0.000000 0.003339 -0.016084
v 0.000000 -0.003339 -0.016084
v 0.011373 0.003339 -0.011373
v 0.011373 -0.003339 -0.011373
v 0.016084 0.003339 0.000000
v 0.016084 -0.003339 0.000000
v 0.011373 0.003339 0.011373
v 0.011373 -0.003339 0.011373
vt 0.573239 0.825465
vt 0.573239 0.825465
vt 0.573239 0.825465
vt 0.573239 0.825465
vt 0.573239 0.825465
vt 0.573239 0.825465
vt 0.573239 0.825465
vt 0.573239 0.825465
vt 0.573239 0.825465
vt 0.573239 0.825465
vt 0.573239 0.825465
vt 0.573239 0.825465
vt 0.573239 0.825465
vt 0.573239 0.825465
vt 0.573239 0.825465
vt 0.573239 0.825465
vn -0.3827 0.0000 0.9239
vn -0.9239 0.0000 0.3827
vn -0.9239 0.0000 -0.3827
vn -0.3827 0.0000 -0.9239
vn 0.3827 0.0000 -0.9239
vn 0.9239 0.0000 -0.3827
vn 0.0000 -1.0000 0.0000
vn 0.9239 0.0000 0.3827
vn 0.3827 0.0000 0.9239
vn 0.0000 1.0000 0.0000
usemtl Material.001
s off
f 1/1/1 3/2/1 4/3/1 2/4/1
f 3/2/2 5/5/2 6/6/2 4/3/2
f 5/5/3 7/7/3 8/8/3 6/6/3
f 7/7/4 9/9/4 10/10/4 8/8/4
f 9/9/5 11/11/5 12/12/5 10/10/5
f 11/11/6 13/13/6 14/14/6 12/12/6
f 4/3/7 6/6/7 8/8/7 10/10/7 12/12/7 14/14/7 16/15/7 2/4/7
f 13/13/8 15/16/8 16/15/8 14/14/8
f 15/16/9 1/1/9 2/4/9 16/15/9
f 1/1/10 15/16/10 13/13/10 11/11/10 9/9/10 7/7/10 5/5/10 3/2/10
