# Blender v2.83.5 OBJ File: 'chestnut01.blend'
# www.blender.org
mtllib chestnut01.mtl
o Cylinder.001_Cylinder.003
v -0.000282 -0.004339 0.013531
v 0.004827 -0.004339 0.013531
v -0.000282 -0.006669 0.009568
v 0.004827 -0.006669 0.009568
v -0.000282 -0.007657 -0.000000
v 0.004827 -0.007657 -0.000000
v -0.000282 -0.006669 -0.009568
v 0.004827 -0.006669 -0.009568
v -0.000282 -0.004339 -0.013531
v 0.004827 -0.004339 -0.013531
v -0.000282 0.005229 -0.009568
v 0.004827 0.005229 -0.009568
v -0.000282 0.009192 0.000000
v 0.004827 0.009192 0.000000
v -0.000282 0.005229 0.009568
v 0.004827 0.005229 0.009568
v -0.007113 -0.004495 0.011511
v -0.007113 -0.006477 0.008139
v -0.007113 -0.007318 -0.000000
v -0.007113 -0.006477 -0.008139
v -0.007113 -0.004495 -0.011511
v -0.007113 0.003644 -0.008139
v -0.007113 0.007016 0.000000
v -0.007113 0.003644 0.008139
v -0.012548 -0.005184 0.005964
v -0.012548 -0.006211 0.004217
v -0.012548 -0.006647 -0.000000
v -0.012548 -0.006211 -0.004217
v -0.012548 -0.005184 -0.005964
v -0.012548 -0.000968 -0.004217
v -0.012548 0.000779 0.000000
v -0.012548 -0.000968 0.004217
v 0.009551 -0.006241 0.007220
v 0.009551 -0.004483 0.010211
v 0.009551 -0.006987 -0.000000
v 0.009551 -0.006241 -0.007220
v 0.009551 -0.004483 -0.010211
v 0.009551 0.002737 -0.007220
v 0.009551 0.005728 0.000000
v 0.009551 0.002737 0.007220
v 0.010959 -0.006265 0.005928
v 0.010959 -0.004822 0.008384
v 0.010959 -0.006877 -0.000000
v 0.010959 -0.006265 -0.005928
v 0.010959 -0.004822 -0.008384
v 0.010959 0.001106 -0.005928
v 0.010959 0.003562 0.000000
v 0.010959 0.001106 0.005928
v -0.014538 -0.005366 0.002784
v -0.014538 -0.005846 0.001969
v -0.014538 -0.006049 -0.000000
v -0.014538 -0.005846 -0.001969
v -0.014538 -0.005366 -0.002784
v -0.014538 -0.003398 -0.001969
v -0.014538 -0.002582 0.000000
v -0.014538 -0.003398 0.001969
v -0.016121 -0.005470 -0.000468
vt 0.187500 0.817500
vt 0.187500 0.817500
vt 0.187500 0.817500
vt 0.187500 0.817500
vt 0.187500 0.817500
vt 0.187500 0.817500
vt 0.187500 0.817500
vt 0.187500 0.817500
vt 0.187500 0.817500
vt 0.187500 0.817500
vt 0.187500 0.817500
vt 0.187500 0.817500
vt 0.187500 0.817500
vt 0.187500 0.817500
vt 0.187500 0.817500
vt 0.187500 0.817500
vt 0.187500 0.817500
vt 0.187500 0.817500
vt 0.187500 0.817500
vt 0.187500 0.817500
vt 0.187500 0.817500
vt 0.187500 0.817500
vt 0.187500 0.817500
vt 0.187500 0.817500
vt 0.187500 0.817500
vt 0.187500 0.817500
vt 0.187500 0.817500
vt 0.187500 0.817500
vt 0.187500 0.817500
vt 0.187500 0.817500
vt 0.187500 0.817500
vt 0.187500 0.817500
vt 0.187500 0.817500
vt 0.187500 0.817500
vt 0.187500 0.817500
vt 0.187500 0.817500
vt 0.187500 0.817500
vt 0.187500 0.817500
vt 0.187500 0.817500
vt 0.187500 0.817500
vt 0.187500 0.817500
vt 0.187500 0.817500
vt 0.187500 0.817500
vt 0.187500 0.817500
vt 0.062500 0.817500
vt 0.062500 0.817500
vt 0.062500 0.817500
vt 0.062500 0.817500
vt 0.062500 0.817500
vt 0.062500 0.817500
vt 0.062500 0.817500
vt 0.062500 0.817500
vt 0.187500 0.817500
vt 0.187500 0.817500
vt 0.187500 0.817500
vt 0.187500 0.817500
vt 0.187500 0.817500
vt 0.187500 0.817500
vt 0.187500 0.817500
vt 0.187500 0.817500
vt 0.187500 0.817500
vt 0.187500 0.817500
vt 0.187500 0.817500
vt 0.187500 0.817500
vt 0.187500 0.817500
vn 0.0000 -0.8621 0.5068
vn -0.0000 -0.9947 0.1027
vn -0.0000 -0.9947 -0.1027
vn 0.0000 -0.8621 -0.5068
vn -0.0000 0.3827 -0.9239
vn 0.0000 0.9239 -0.3827
vn 0.3134 -0.8186 -0.4813
vn 0.0000 0.9239 0.3827
vn 0.0000 0.3827 0.9239
vn -0.2715 0.3683 -0.8892
vn -0.3777 -0.7982 0.4693
vn -0.2715 0.3683 0.8892
vn -0.1291 -0.8548 0.5026
vn -0.0494 -0.9935 -0.1026
vn -0.2824 0.8863 -0.3671
vn -0.1291 -0.8548 -0.5026
vn -0.2824 0.8863 0.3671
vn -0.0494 -0.9935 0.1026
vn -0.8420 0.4984 0.2064
vn -0.7040 0.2718 0.6561
vn -0.7274 0.6340 -0.2626
vn -0.3777 -0.7982 -0.4693
vn -0.1219 -0.9873 0.1020
vn -0.7274 0.6340 0.2626
vn -0.7040 0.2718 -0.6561
vn -0.1219 -0.9873 -0.1020
vn 0.0769 -0.9918 0.1024
vn 0.5609 0.7649 0.3168
vn 0.1398 -0.9849 0.1017
vn 0.5514 0.3192 -0.7707
vn 0.5514 0.3192 0.7707
vn 0.3134 -0.8186 0.4813
vn 0.1398 -0.9849 -0.1017
vn 0.5609 0.7649 -0.3168
vn 1.0000 0.0000 0.0000
vn 0.8178 0.5317 0.2202
vn 0.7905 0.2344 -0.5658
vn 0.0769 -0.9918 -0.1024
vn 0.4105 -0.7861 0.4621
vn 0.7905 0.2344 0.5658
vn 0.8178 0.5317 -0.2202
vn 0.4105 -0.7861 -0.4621
vn -0.3160 -0.9437 -0.0975
vn -0.8340 0.2112 -0.5098
vn -0.2864 -0.9530 -0.0984
vn -0.5902 -0.6959 0.4091
vn -0.8340 0.2112 0.5098
vn -0.8420 0.4984 -0.2064
vn -0.5902 -0.6959 -0.4091
vn -0.2864 -0.9530 0.0984
vn -0.7014 -0.6144 0.3612
vn -0.8872 0.1766 0.4263
vn -0.8438 0.4958 -0.2054
vn -0.5650 -0.7113 -0.4182
vn -0.3664 -0.9255 0.0956
vn -0.8740 0.4490 0.1860
vn -0.8091 0.2249 -0.5429
usemtl Material.004
s off
f 1/1/1 3/2/1 4/3/1 2/4/1
f 3/2/2 5/5/2 6/6/2 4/3/2
f 5/5/3 7/7/3 8/8/3 6/6/3
f 7/7/4 9/9/4 10/10/4 8/8/4
f 9/9/5 11/11/5 12/12/5 10/10/5
f 11/11/6 13/13/6 14/14/6 12/12/6
f 10/10/7 37/15/7 36/16/7 8/8/7
f 13/13/8 15/17/8 16/18/8 14/14/8
f 15/17/9 1/1/9 2/4/9 16/18/9
f 9/9/10 21/19/10 22/20/10 11/11/10
f 17/21/11 25/22/11 26/23/11 18/24/11
f 15/17/12 24/25/12 17/21/12 1/1/12
f 1/1/13 17/21/13 18/24/13 3/2/13
f 5/5/14 19/26/14 20/27/14 7/7/14
f 11/11/15 22/20/15 23/28/15 13/13/15
f 7/7/16 20/27/16 21/19/16 9/9/16
f 13/13/17 23/28/17 24/25/17 15/17/17
f 3/2/18 18/24/18 19/26/18 5/5/18
f 31/29/19 55/30/19 56/31/19 32/32/19
f 24/25/20 32/32/20 25/22/20 17/21/20
f 22/20/21 30/33/21 31/29/21 23/28/21
f 20/27/22 28/34/22 29/35/22 21/19/22
f 18/24/23 26/23/23 27/36/23 19/26/23
f 23/28/24 31/29/24 32/32/24 24/25/24
f 21/19/25 29/35/25 30/33/25 22/20/25
f 19/26/26 27/36/26 28/34/26 20/27/26
f 35/37/27 43/38/27 41/39/27 33/40/27
f 16/18/28 40/41/28 39/42/28 14/14/28
f 6/6/29 35/37/29 33/40/29 4/3/29
f 12/12/30 38/43/30 37/15/30 10/10/30
f 2/4/31 34/44/31 40/41/31 16/18/31
f 4/3/32 33/40/32 34/44/32 2/4/32
f 8/8/33 36/16/33 35/37/33 6/6/33
f 14/14/34 39/42/34 38/43/34 12/12/34
f 41/45/35 43/46/35 44/47/35 45/48/35 46/49/35 47/50/35 48/51/35 42/52/35
f 40/41/36 48/53/36 47/54/36 39/42/36
f 38/43/37 46/55/37 45/56/37 37/15/37
f 36/16/38 44/57/38 43/38/38 35/37/38
f 33/40/39 41/39/39 42/58/39 34/44/39
f 34/44/40 42/58/40 48/53/40 40/41/40
f 39/42/41 47/54/41 46/55/41 38/43/41
f 37/15/42 45/56/42 44/57/42 36/16/42
f 51/59/43 57/60/43 52/61/43
f 29/35/44 53/62/44 54/63/44 30/33/44
f 27/36/45 51/59/45 52/61/45 28/34/45
f 25/22/46 49/64/46 50/65/46 26/23/46
f 32/32/47 56/31/47 49/64/47 25/22/47
f 30/33/48 54/63/48 55/30/48 31/29/48
f 28/34/49 52/61/49 53/62/49 29/35/49
f 26/23/50 50/65/50 51/59/50 27/36/50
f 49/64/51 57/60/51 50/65/51
f 56/31/52 57/60/52 49/64/52
f 54/63/53 57/60/53 55/30/53
f 52/61/54 57/60/54 53/62/54
f 50/65/55 57/60/55 51/59/55
f 55/30/56 57/60/56 56/31/56
f 53/62/57 57/60/57 54/63/57
