# Blender v2.83.5 OBJ File: 'chives02.blend'
# www.blender.org
mtllib chives02.mtl
o Cylinder
v 0.000000 0.003006 -0.002368
v 0.000000 0.003006 0.002370
v 0.002858 0.000929 -0.002368
v 0.002858 0.000929 0.002370
v 0.001767 -0.002432 -0.002368
v 0.001767 -0.002432 0.002370
v -0.001767 -0.002432 -0.002368
v -0.001767 -0.002432 0.002370
v -0.002858 0.000929 -0.002368
v -0.002858 0.000929 0.002370
v 0.000000 0.002208 0.002370
v 0.002100 0.000682 0.002370
v 0.001298 -0.001786 0.002370
v -0.001298 -0.001786 0.002370
v -0.002100 0.000682 0.002370
v 0.000000 0.002208 -0.002371
v 0.002100 0.000682 -0.002371
v 0.001298 -0.001786 -0.002371
v -0.001298 -0.001786 -0.002371
v -0.002100 0.000682 -0.002371
vt 0.681684 0.559611
vt 0.681684 0.559611
vt 0.681684 0.559611
vt 0.681684 0.559611
vt 0.681684 0.559611
vt 0.681684 0.559611
vt 0.681684 0.559611
vt 0.681684 0.559611
vt 0.681684 0.559611
vt 0.681684 0.559611
vt 0.681684 0.559611
vt 0.681684 0.559611
vt 0.681684 0.559611
vt 0.681684 0.559611
vt 0.681684 0.559611
vt 0.681684 0.559611
vt 0.681684 0.559611
vt 0.681684 0.559611
vt 0.681684 0.559611
vt 0.681684 0.559611
vn 0.5878 0.8090 0.0000
vn 0.9511 -0.3090 -0.0000
vn -0.0000 -1.0000 -0.0000
vn 0.0000 0.0000 1.0000
vn -0.9511 -0.3090 -0.0000
vn -0.5878 0.8090 0.0000
vn 0.9511 0.3090 0.0000
vn -0.9511 0.3090 0.0000
vn 0.5878 -0.8090 -0.0000
vn 0.0000 1.0000 0.0000
vn -0.5878 -0.8090 -0.0000
vn -0.0033 0.0045 -1.0000
vn 0.0033 0.0045 -1.0000
vn 0.0053 -0.0017 -1.0000
vn 0.0000 -0.0055 -1.0000
vn -0.0053 -0.0017 -1.0000
usemtl Material.001
s off
f 1/1/1 2/2/1 4/3/1 3/4/1
f 3/4/2 4/3/2 6/5/2 5/6/2
f 5/6/3 6/5/3 8/7/3 7/8/3
f 6/5/4 4/3/4 12/9/4 13/10/4
f 7/8/5 8/7/5 10/11/5 9/12/5
f 9/12/6 10/11/6 2/2/6 1/1/6
f 15/13/7 14/14/7 19/15/7 20/16/7
f 2/2/4 10/11/4 15/13/4 11/17/4
f 4/3/4 2/2/4 11/17/4 12/9/4
f 8/7/4 6/5/4 13/10/4 14/14/4
f 10/11/4 8/7/4 14/14/4 15/13/4
f 13/10/8 12/9/8 17/18/8 18/19/8
f 11/17/9 15/13/9 20/16/9 16/20/9
f 14/14/10 13/10/10 18/19/10 19/15/10
f 12/9/11 11/17/11 16/20/11 17/18/11
f 9/12/12 1/1/12 16/20/12 20/16/12
f 1/1/13 3/4/13 17/18/13 16/20/13
f 3/4/14 5/6/14 18/19/14 17/18/14
f 5/6/15 7/8/15 19/15/15 18/19/15
f 7/8/16 9/12/16 20/16/16 19/15/16
