# Blender v2.83.5 OBJ File: 'chives01.blend'
# www.blender.org
mtllib chives01.mtl
o Cylinder
v -0.005452 0.003014 -0.042712
v -0.005452 0.003014 0.133451
v -0.002593 0.000937 -0.042712
v -0.002593 0.000937 0.133451
v -0.003685 -0.002423 -0.042712
v -0.003685 -0.002423 0.133451
v -0.007218 -0.002423 -0.042712
v -0.007218 -0.002423 0.133451
v -0.008310 0.000937 -0.042712
v -0.008310 0.000937 0.133451
v -0.005452 0.002216 0.133451
v -0.003352 0.000691 0.133451
v -0.004154 -0.001777 0.133451
v -0.006749 -0.001777 0.133451
v -0.007551 0.000691 0.133451
v -0.005452 0.002216 -0.042715
v -0.003352 0.000691 -0.042715
v -0.004154 -0.001777 -0.042715
v -0.006749 -0.001777 -0.042715
v -0.007551 0.000691 -0.042715
v -0.002166 0.001259 -0.104989
v -0.001124 0.000395 -0.104416
v -0.001522 -0.001002 -0.104635
v -0.002809 -0.001002 -0.105343
v -0.003207 0.000395 -0.105562
v -0.002165 0.000927 -0.104990
v -0.001400 0.000292 -0.104569
v -0.001692 -0.000734 -0.104730
v -0.002638 -0.000734 -0.105250
v -0.002930 0.000292 -0.105411
v 0.001077 0.001195 -0.125687
v 0.002116 0.000375 -0.125249
v 0.001719 -0.000951 -0.125416
v 0.000434 -0.000951 -0.125957
v 0.000037 0.000375 -0.126125
v 0.001077 0.000880 -0.125688
v 0.001840 0.000278 -0.125366
v 0.001549 -0.000696 -0.125489
v 0.000605 -0.000696 -0.125887
v 0.000314 0.000278 -0.126010
v 0.005398 0.000820 -0.139945
v 0.006049 0.000260 -0.139532
v 0.005800 -0.000647 -0.139690
v 0.004995 -0.000647 -0.140200
v 0.004747 0.000260 -0.140358
v 0.005398 0.000604 -0.139946
v 0.005876 0.000193 -0.139642
v 0.005694 -0.000473 -0.139758
v 0.005103 -0.000473 -0.140133
v 0.004920 0.000193 -0.140249
v 0.010947 0.000270 -0.148712
v 0.011123 0.000108 -0.148514
v 0.011038 -0.000190 -0.148532
v 0.010810 -0.000213 -0.148741
v 0.010753 0.000072 -0.148853
v 0.011269 -0.000486 -0.150032
vt 0.681685 0.560638
vt 0.681685 0.560638
vt 0.681685 0.560638
vt 0.681685 0.560638
vt 0.681685 0.560638
vt 0.681685 0.560638
vt 0.681685 0.560638
vt 0.681685 0.560638
vt 0.681685 0.560638
vt 0.681685 0.560638
vt 0.681685 0.560638
vt 0.681685 0.560638
vt 0.681685 0.560638
vt 0.681685 0.560638
vt 0.681685 0.560638
vt 0.681685 0.560638
vt 0.681685 0.560638
vt 0.681685 0.560638
vt 0.681685 0.560638
vt 0.681685 0.560638
vt 0.681685 0.560638
vt 0.681685 0.560638
vt 0.681685 0.560638
vt 0.681685 0.560638
vt 0.681685 0.560638
vt 0.681685 0.560638
vt 0.681685 0.560638
vt 0.681685 0.560638
vt 0.681685 0.560638
vt 0.681685 0.560638
vt 0.681685 0.560638
vt 0.681685 0.560638
vt 0.681685 0.560638
vt 0.681685 0.560638
vt 0.681685 0.560638
vt 0.681685 0.560638
vt 0.681685 0.560638
vt 0.681685 0.560638
vt 0.681685 0.560638
vt 0.681685 0.560638
vt 0.681685 0.560638
vt 0.681685 0.560638
vt 0.681685 0.560638
vt 0.681685 0.560638
vt 0.681685 0.560638
vt 0.681685 0.560638
vt 0.681685 0.560638
vt 0.681685 0.560638
vt 0.681685 0.560638
vt 0.681685 0.560638
vt 0.681685 0.560638
vt 0.681685 0.560638
vt 0.681685 0.560638
vt 0.681685 0.560638
vt 0.681685 0.560638
vt 0.681685 0.560638
vn 0.5878 0.8090 0.0000
vn 0.9511 -0.3090 -0.0000
vn -0.0000 -1.0000 -0.0000
vn 0.0000 0.0000 1.0000
vn -0.9511 -0.3090 -0.0000
vn -0.5878 0.8090 0.0000
vn -0.9534 0.3000 -0.0324
vn 0.9511 0.3090 0.0000
vn 0.5968 -0.8010 0.0486
vn -0.9511 0.3090 0.0000
vn 0.5878 -0.8090 -0.0000
vn 0.0000 1.0000 0.0000
vn -0.5878 -0.8090 -0.0000
vn -0.6006 -0.7994 -0.0145
vn 0.9512 0.3010 0.0679
vn 0.9537 -0.2998 0.0259
vn -0.9434 -0.2964 -0.1489
vn -0.9437 0.2963 -0.1470
vn 0.5977 -0.7961 0.0951
vn 0.0011 -1.0000 -0.0023
vn -0.5987 -0.7956 -0.0924
vn -0.5960 0.8011 -0.0547
vn -0.0024 0.9999 0.0166
vn -0.9507 -0.3011 -0.0742
vn 0.6012 0.7990 0.0082
vn 0.0033 -0.9997 -0.0226
vn 0.5774 0.8020 0.1532
vn -0.9050 -0.3050 -0.2966
vn -0.9165 0.3031 -0.2612
vn 0.5631 -0.8050 0.1866
vn 0.0093 -0.9998 -0.0185
vn 0.5989 0.7956 0.0919
vn -0.0008 1.0000 0.0017
vn -0.5975 0.7961 -0.0956
vn 0.9438 -0.2962 0.1468
vn 0.9434 0.2964 0.1486
vn 0.0006 1.0000 -0.0010
vn 0.5101 0.8156 0.2731
vn -0.7758 -0.3215 -0.5430
vn -0.8359 0.3084 -0.4540
vn 0.4672 -0.8079 0.3593
vn -0.0068 0.9999 0.0136
vn -0.5609 0.8054 -0.1916
vn 0.9181 -0.3028 0.2556
vn 0.9068 0.3047 0.2913
vn -0.5753 -0.8025 -0.1583
vn -0.9200 -0.2871 -0.2667
vn -0.3902 0.7547 -0.5274
vn -0.0706 -0.9807 0.1823
vn 0.9393 -0.2791 0.1995
vn 0.7636 0.6228 -0.1703
vn -0.4832 0.7992 -0.3576
vn 0.8283 -0.2985 0.4742
vn 0.8074 0.3090 0.5026
vn -0.5463 -0.8051 -0.2309
vn 0.0397 -0.9989 -0.0259
usemtl Material.001
s off
f 1/1/1 2/2/1 4/3/1 3/4/1
f 3/4/2 4/3/2 6/5/2 5/6/2
f 5/6/3 6/5/3 8/7/3 7/8/3
f 6/5/4 4/3/4 12/9/4 13/10/4
f 7/8/5 8/7/5 10/11/5 9/12/5
f 9/12/6 10/11/6 2/2/6 1/1/6
f 18/13/7 17/14/7 27/15/7 28/16/7
f 15/17/8 14/18/8 19/19/8 20/20/8
f 2/2/4 10/11/4 15/17/4 11/21/4
f 4/3/4 2/2/4 11/21/4 12/9/4
f 8/7/4 6/5/4 13/10/4 14/18/4
f 10/11/4 8/7/4 14/18/4 15/17/4
f 16/22/9 20/20/9 30/23/9 26/24/9
f 13/10/10 12/9/10 17/14/10 18/13/10
f 11/21/11 15/17/11 20/20/11 16/22/11
f 14/18/12 13/10/12 18/13/12 19/19/12
f 12/9/13 11/21/13 16/22/13 17/14/13
f 17/14/14 16/22/14 26/24/14 27/15/14
f 20/20/15 19/19/15 29/25/15 30/23/15
f 3/4/16 5/6/16 23/26/16 22/27/16
f 24/28/17 25/29/17 35/30/17 34/31/17
f 28/16/18 27/15/18 37/32/18 38/33/18
f 26/24/19 30/23/19 40/34/19 36/35/19
f 23/26/20 24/28/20 34/31/20 33/36/20
f 27/15/21 26/24/21 36/35/21 37/32/21
f 9/12/22 1/1/22 21/37/22 25/29/22
f 19/19/23 18/13/23 28/16/23 29/25/23
f 7/8/24 9/12/24 25/29/24 24/28/24
f 1/1/25 3/4/25 22/27/25 21/37/25
f 5/6/26 7/8/26 24/28/26 23/26/26
f 31/38/27 32/39/27 42/40/27 41/41/27
f 34/31/28 35/30/28 45/42/28 44/43/28
f 38/33/29 37/32/29 47/44/29 48/45/29
f 36/35/30 40/34/30 50/46/30 46/47/30
f 33/36/31 34/31/31 44/43/31 43/48/31
f 21/37/32 22/27/32 32/39/32 31/38/32
f 29/25/33 28/16/33 38/33/33 39/49/33
f 25/29/34 21/37/34 31/38/34 35/30/34
f 22/27/35 23/26/35 33/36/35 32/39/35
f 30/23/36 29/25/36 39/49/36 40/34/36
f 49/50/37 48/45/37 56/51/37
f 41/41/38 42/40/38 52/52/38 51/53/38
f 44/43/39 45/42/39 55/54/39 54/55/39
f 48/45/40 47/44/40 56/51/40
f 46/47/41 50/46/41 56/51/41
f 39/49/42 38/33/42 48/45/42 49/50/42
f 35/30/43 31/38/43 41/41/43 45/42/43
f 32/39/44 33/36/44 43/48/44 42/40/44
f 40/34/45 39/49/45 49/50/45 50/46/45
f 37/32/46 36/35/46 46/47/46 47/44/46
f 54/55/47 55/54/47 56/51/47
f 55/54/48 51/53/48 56/51/48
f 53/56/49 54/55/49 56/51/49
f 52/52/50 53/56/50 56/51/50
f 51/53/51 52/52/51 56/51/51
f 45/42/52 41/41/52 51/53/52 55/54/52
f 42/40/53 43/48/53 53/56/53 52/52/53
f 50/46/54 49/50/54 56/51/54
f 47/44/55 46/47/55 56/51/55
f 43/48/56 44/43/56 54/55/56 53/56/56
