# Blender v2.83.5 OBJ File: 'clementine01.blend'
# www.blender.org
mtllib clementine01.mtl
o Cylinder
v 0.012423 -0.005181 -0.028491
v 0.012423 0.002701 -0.028491
v 0.029235 -0.005181 -0.011679
v 0.029235 0.002701 -0.011679
v 0.029235 -0.005181 0.012099
v 0.029235 0.002701 0.012099
v 0.012423 -0.005181 0.028911
v 0.012423 0.002701 0.028911
v -0.011354 -0.005181 0.028911
v -0.011354 0.002701 0.028911
v -0.028167 -0.005181 0.012099
v -0.028167 0.002701 0.012099
v -0.028167 -0.005181 -0.011679
v -0.028167 0.002701 -0.011679
v -0.011354 -0.005181 -0.028491
v -0.011354 0.002701 -0.028491
v 0.023047 0.014701 -0.009115
v 0.009859 0.014701 -0.022303
v 0.023047 0.014701 0.009535
v 0.009859 0.014701 0.022723
v -0.008791 0.014701 0.022723
v -0.021979 0.014701 0.009535
v -0.021979 0.014701 -0.009115
v -0.008791 0.014701 -0.022303
v 0.010637 0.022073 -0.003975
v 0.004719 0.022073 -0.009893
v 0.010637 0.022073 0.004395
v 0.004719 0.022073 0.010313
v -0.003651 0.022073 0.010313
v -0.009569 0.022073 0.004395
v -0.009569 0.022073 -0.003975
v -0.003651 0.022073 -0.009893
v 0.010732 -0.014883 -0.024410
v 0.025154 -0.014883 -0.009988
v 0.025154 -0.014883 0.010408
v 0.010732 -0.014883 0.024830
v -0.009664 -0.014883 0.024830
v -0.024086 -0.014883 0.010408
v -0.024086 -0.014883 -0.009988
v -0.009664 -0.014883 -0.024410
v 0.006477 -0.021698 -0.014137
v 0.014881 -0.021698 -0.005733
v 0.014881 -0.021698 0.006153
v 0.006477 -0.021698 0.014557
v -0.005409 -0.021698 0.014557
v -0.013813 -0.021698 0.006153
v -0.013813 -0.021698 -0.005733
v -0.005409 -0.021698 -0.014137
v 0.002292 -0.022394 -0.004034
v 0.004778 -0.022394 -0.001548
v 0.004778 -0.022394 0.001968
v 0.002292 -0.022394 0.004454
v -0.001224 -0.022394 0.004454
v -0.003710 -0.022394 0.001968
v -0.003710 -0.022394 -0.001548
v -0.001224 -0.022394 -0.004034
v 0.001443 -0.021881 -0.001985
v 0.002729 -0.021881 -0.000699
v 0.002729 -0.021881 0.001119
v 0.001443 -0.021881 0.002405
v -0.000375 -0.021881 0.002405
v -0.001660 -0.021881 0.001119
v -0.001660 -0.021881 -0.000699
v -0.000375 -0.021881 -0.001985
v 0.004202 0.023124 -0.001309
v 0.002054 0.023124 -0.003458
v 0.004202 0.023124 0.001730
v 0.002054 0.023124 0.003878
v -0.000985 0.023124 0.003878
v -0.003134 0.023124 0.001730
v -0.003134 0.023124 -0.001309
v -0.000985 0.023124 -0.003458
v 0.001884 0.022444 -0.000349
v 0.001093 0.022444 -0.001140
v 0.001884 0.022444 0.000769
v 0.001093 0.022444 0.001560
v -0.000025 0.022444 0.001560
v -0.000816 0.022444 0.000769
v -0.000816 0.022444 -0.000349
v -0.000025 0.022444 -0.001140
v 0.003802 0.029097 -0.000646
v 0.003011 0.029097 -0.001437
v 0.003546 0.029474 0.000248
v 0.003011 0.029474 0.001263
v 0.001893 0.029474 0.001263
v 0.001102 0.029474 0.000472
v 0.001102 0.029474 -0.000646
v 0.001893 0.029474 -0.001437
v 0.003010 0.033401 -0.001268
v 0.002289 0.033401 -0.001989
v 0.002776 0.033744 -0.000453
v 0.002289 0.033744 0.000472
v 0.001269 0.033744 0.000472
v 0.000548 0.033744 -0.000249
v 0.000548 0.033744 -0.001268
v 0.001269 0.033744 -0.001989
v 0.000959 0.031005 0.000112
v 0.001210 0.029937 0.000292
v -0.006578 0.027578 0.000268
v 0.000959 0.031005 -0.000957
v 0.001210 0.029937 -0.000802
v -0.006971 0.028091 0.000095
v -0.006578 0.027578 -0.000780
v -0.006971 0.028091 -0.000929
v -0.017383 0.020073 0.009088
v -0.016865 0.019658 0.009414
v -0.016865 0.019658 -0.009793
v -0.017383 0.020073 -0.010055
v -0.042241 0.002199 0.000415
v -0.041723 0.001784 0.000441
v -0.041723 0.001784 -0.001091
v -0.042241 0.002199 -0.001111
v -0.016220 0.019141 -0.001179
v -0.016220 0.019141 0.000347
v -0.015702 0.018727 0.000131
v -0.015702 0.018727 -0.000745
v -0.025423 0.013859 -0.009653
v -0.024906 0.013674 -0.009401
v -0.025423 0.013859 0.008698
v -0.024906 0.013674 0.009010
v -0.022759 0.015113 0.000364
v -0.022759 0.015113 -0.001162
v -0.022734 0.014378 0.000215
v -0.022734 0.014378 -0.000838
vt 0.562500 0.817500
vt 0.562500 0.817500
vt 0.562500 0.817500
vt 0.562500 0.817500
vt 0.562500 0.817500
vt 0.562500 0.817500
vt 0.562500 0.817500
vt 0.562500 0.817500
vt 0.562500 0.817500
vt 0.562500 0.817500
vt 0.562500 0.817500
vt 0.562500 0.817500
vt 0.562500 0.817500
vt 0.562500 0.817500
vt 0.562500 0.817500
vt 0.562500 0.817500
vt 0.562500 0.817500
vt 0.562500 0.817500
vt 0.562500 0.817500
vt 0.562500 0.817500
vt 0.562500 0.817500
vt 0.562500 0.817500
vt 0.562500 0.817500
vt 0.562500 0.817500
vt 0.562500 0.817500
vt 0.562500 0.817500
vt 0.562500 0.817500
vt 0.562500 0.817500
vt 0.562500 0.817500
vt 0.562500 0.817500
vt 0.562500 0.817500
vt 0.562500 0.817500
vt 0.562500 0.817500
vt 0.562500 0.817500
vt 0.562500 0.817500
vt 0.562500 0.817500
vt 0.562500 0.817500
vt 0.562500 0.817500
vt 0.562500 0.817500
vt 0.562500 0.817500
vt 0.562500 0.817500
vt 0.562500 0.817500
vt 0.562500 0.817500
vt 0.562500 0.817500
vt 0.562500 0.817500
vt 0.562500 0.817500
vt 0.562500 0.817500
vt 0.562500 0.817500
vt 0.562500 0.817500
vt 0.562500 0.817500
vt 0.562500 0.817500
vt 0.562500 0.817500
vt 0.562500 0.817500
vt 0.562500 0.817500
vt 0.562500 0.817500
vt 0.562500 0.817500
vt 0.562500 0.817500
vt 0.562500 0.817500
vt 0.562500 0.817500
vt 0.562500 0.817500
vt 0.187500 0.817500
vt 0.187500 0.817500
vt 0.187500 0.817500
vt 0.187500 0.817500
vt 0.187500 0.817500
vt 0.187500 0.817500
vt 0.187500 0.817500
vt 0.187500 0.817500
vt 0.562500 0.817500
vt 0.562500 0.817500
vt 0.562500 0.817500
vt 0.562500 0.817500
vt 0.562500 0.817500
vt 0.562500 0.817500
vt 0.562500 0.817500
vt 0.562500 0.817500
vt 0.562500 0.817500
vt 0.562500 0.817500
vt 0.562500 0.817500
vt 0.562500 0.817500
vt 0.562500 0.817500
vt 0.562500 0.817500
vt 0.187500 0.817500
vt 0.187500 0.817500
vt 0.187500 0.817500
vt 0.187500 0.817500
vt 0.562500 0.817500
vt 0.562500 0.817500
vt 0.562500 0.817500
vt 0.562500 0.817500
vt 0.562500 0.817500
vt 0.562500 0.817500
vt 0.187500 0.817500
vt 0.187500 0.817500
vt 0.187500 0.817500
vt 0.187500 0.817500
vt 0.187500 0.817500
vt 0.187500 0.817500
vt 0.187500 0.817500
vt 0.187500 0.817500
vt 0.187500 0.817500
vt 0.187500 0.817500
vt 0.187500 0.817500
vt 0.187500 0.817500
vt 0.187500 0.817500
vt 0.187500 0.817500
vt 0.187500 0.817500
vt 0.187500 0.817500
vt 0.187500 0.817500
vt 0.187500 0.817500
vt 0.187500 0.817500
vt 0.187500 0.817500
vt 0.187500 0.817500
vt 0.187500 0.817500
vt 0.187500 0.817500
vt 0.187500 0.817500
vt 0.187500 0.567500
vt 0.187500 0.567500
vt 0.187500 0.567500
vt 0.187500 0.567500
vt 0.187500 0.567500
vt 0.187500 0.567500
vt 0.187500 0.567500
vt 0.187500 0.567500
vt 0.187500 0.567500
vt 0.187500 0.567500
vt 0.187500 0.567500
vt 0.187500 0.567500
vt 0.187500 0.567500
vt 0.187500 0.567500
vt 0.187500 0.567500
vt 0.187500 0.567500
vt 0.187500 0.567500
vt 0.187500 0.567500
vt 0.187500 0.567500
vt 0.187500 0.567500
vt 0.187500 0.567500
vt 0.187500 0.567500
vt 0.187500 0.567500
vt 0.187500 0.567500
vt 0.187500 0.567500
vt 0.187500 0.567500
vt 0.187500 0.567500
vt 0.187500 0.567500
vn 0.7071 0.0000 -0.7071
vn 1.0000 0.0000 0.0000
vn 0.7071 0.0000 0.7071
vn -0.0000 0.0000 1.0000
vn -0.7071 0.0000 0.7071
vn -1.0000 0.0000 -0.0000
vn -0.0000 0.4583 0.8888
vn -0.7071 0.0000 -0.7071
vn 0.0000 0.0000 -1.0000
vn -0.6518 -0.3878 0.6518
vn 0.3612 0.8597 -0.3612
vn -0.6285 0.4583 -0.6285
vn 0.8888 0.4583 0.0000
vn -0.6285 0.4583 0.6285
vn 0.0000 0.4583 -0.8888
vn 0.6285 0.4583 -0.6285
vn 0.6285 0.4583 0.6285
vn -0.8888 0.4583 -0.0000
vn -0.1140 0.9869 -0.1140
vn -0.0000 0.8597 -0.5107
vn -0.5107 0.8597 0.0000
vn 0.0000 0.8597 0.5107
vn 0.5107 0.8597 -0.0000
vn -0.3612 0.8597 -0.3612
vn -0.3612 0.8597 0.3612
vn 0.3612 0.8597 0.3612
vn 0.5528 -0.8333 -0.0000
vn -0.0000 -0.3878 -0.9218
vn 0.6518 -0.3878 -0.6518
vn 0.6518 -0.3878 0.6518
vn -0.9218 -0.3878 -0.0000
vn 0.0000 -0.3878 0.9218
vn -0.6518 -0.3878 -0.6518
vn 0.9218 -0.3878 -0.0000
vn 0.0000 -0.9976 -0.0686
vn -0.3909 -0.8333 -0.3909
vn -0.3909 -0.8333 0.3909
vn 0.3909 -0.8333 0.3909
vn 0.3909 -0.8333 -0.3909
vn 0.0000 -0.8333 -0.5528
vn -0.5528 -0.8333 0.0000
vn 0.0000 -0.8333 0.5528
vn -0.1715 -0.9701 -0.1715
vn -0.0686 -0.9976 0.0000
vn -0.0000 -0.9976 0.0686
vn 0.0686 -0.9976 0.0000
vn -0.0485 -0.9976 -0.0485
vn -0.0485 -0.9976 0.0485
vn 0.0485 -0.9976 0.0485
vn 0.0485 -0.9976 -0.0485
vn 0.0000 -1.0000 -0.0000
vn -0.1715 -0.9701 0.1715
vn 0.0000 -0.9701 0.2425
vn 0.2425 -0.9701 0.0000
vn 0.0000 -0.9701 -0.2425
vn -0.2425 -0.9701 0.0000
vn 0.1715 -0.9701 0.1715
vn 0.1715 -0.9701 -0.1715
vn -0.0000 0.9596 -0.2815
vn -0.1140 0.9869 0.1140
vn 0.1140 0.9869 0.1140
vn 0.1140 0.9869 -0.1140
vn -0.0000 0.9869 -0.1612
vn -0.1612 0.9869 -0.0000
vn 0.0000 0.9869 0.1612
vn 0.1612 0.9869 -0.0000
vn -0.0070 -0.0414 -0.9991
vn -0.2815 0.9596 0.0000
vn 0.1990 0.9596 0.1990
vn 0.1990 0.9596 -0.1990
vn -0.1990 0.9596 -0.1990
vn -0.1990 0.9596 0.1990
vn 0.0000 0.9596 0.2815
vn 0.2815 0.9596 0.0000
vn 0.8611 0.2297 0.4536
vn -0.9647 0.2633 0.0000
vn 0.0000 0.0422 0.9991
vn 0.9563 -0.2403 0.1666
vn -0.6979 0.1610 -0.6979
vn -0.6902 0.2175 0.6902
vn 0.7946 -0.1684 0.5833
vn 0.6883 -0.2292 -0.6883
vn -0.7598 0.0100 0.6501
vn 0.0000 1.0000 0.0000
vn 0.3019 0.9055 -0.2980
vn 0.7068 0.0279 -0.7068
vn -0.0453 -0.1347 -0.9899
vn -0.9890 -0.1482 0.0000
vn 0.0000 0.1821 0.9833
vn 0.9605 0.2042 0.1891
vn -0.6940 -0.1901 -0.6944
vn 0.0532 -0.1680 -0.9844
vn -0.9741 0.2261 0.0000
vn 0.2017 0.6101 0.7662
vn -0.3449 0.9386 0.0000
vn 0.2899 -0.9570 -0.0000
vn -0.0668 0.1914 0.9792
vn -0.0710 -0.5114 -0.8564
vn -0.6882 0.7066 0.1644
vn 0.6864 -0.7100 0.1573
vn 0.5593 0.1915 -0.8065
vn -0.6253 -0.7804 0.0000
vn -0.3733 -0.1247 0.9193
vn -0.5517 0.8325 0.0502
vn 0.5519 -0.8310 0.0698
vn -0.5525 0.8335 0.0000
vn -0.6954 0.7186 0.0000
vn -0.5519 0.8323 -0.0512
vn -0.6880 0.7063 -0.1668
vn 0.5527 -0.8334 0.0000
vn 0.6963 -0.7178 -0.0000
vn 0.5519 -0.8308 -0.0717
vn 0.6868 -0.7087 -0.1613
vn -0.3236 0.3699 0.8709
vn -0.5245 0.8514 0.0000
vn -0.5693 0.8144 -0.1122
vn -0.5692 0.8148 0.1103
vn 0.2340 -0.3671 -0.9003
vn 0.5260 -0.8505 0.0000
vn 0.5602 -0.8205 0.1137
vn 0.5600 -0.8202 -0.1167
usemtl Material.001
s off
f 1/1/1 2/2/1 4/3/1 3/4/1
f 3/4/2 4/3/2 6/5/2 5/6/2
f 5/6/3 6/5/3 8/7/3 7/8/3
f 7/8/4 8/7/4 10/9/4 9/10/4
f 9/10/5 10/9/5 12/11/5 11/12/5
f 11/12/6 12/11/6 14/13/6 13/14/6
f 10/9/7 8/7/7 20/15/7 21/16/7
f 13/14/8 14/13/8 16/17/8 15/18/8
f 15/18/9 16/17/9 2/2/9 1/1/9
f 9/10/10 11/12/10 38/19/10 37/20/10
f 17/21/11 18/22/11 26/23/11 25/24/11
f 16/17/12 14/13/12 23/25/12 24/26/12
f 6/5/13 4/3/13 17/21/13 19/27/13
f 12/11/14 10/9/14 21/16/14 22/28/14
f 2/2/15 16/17/15 24/26/15 18/22/15
f 4/3/16 2/2/16 18/22/16 17/21/16
f 8/7/17 6/5/17 19/27/17 20/15/17
f 14/13/18 12/11/18 22/28/18 23/25/18
f 32/29/19 31/30/19 71/31/19 72/32/19
f 18/22/20 24/26/20 32/29/20 26/23/20
f 23/25/21 22/28/21 30/33/21 31/30/21
f 21/16/22 20/15/22 28/34/22 29/35/22
f 19/27/23 17/21/23 25/24/23 27/36/23
f 24/26/24 23/25/24 31/30/24 32/29/24
f 22/28/25 21/16/25 29/35/25 30/33/25
f 20/15/26 19/27/26 27/36/26 28/34/26
f 34/37/27 35/38/27 43/39/27 42/40/27
f 15/18/28 1/1/28 33/41/28 40/42/28
f 1/1/29 3/4/29 34/37/29 33/41/29
f 5/6/30 7/8/30 36/43/30 35/38/30
f 11/12/31 13/14/31 39/44/31 38/19/31
f 7/8/32 9/10/32 37/20/32 36/43/32
f 13/14/33 15/18/33 40/42/33 39/44/33
f 3/4/34 5/6/34 35/38/34 34/37/34
f 48/45/35 41/46/35 49/47/35 56/48/35
f 39/44/36 40/42/36 48/45/36 47/49/36
f 37/20/37 38/19/37 46/50/37 45/51/37
f 35/38/38 36/43/38 44/52/38 43/39/38
f 33/41/39 34/37/39 42/40/39 41/46/39
f 40/42/40 33/41/40 41/46/40 48/45/40
f 38/19/41 39/44/41 47/49/41 46/50/41
f 36/43/42 37/20/42 45/51/42 44/52/42
f 51/53/43 52/54/43 60/55/43 59/56/43
f 46/50/44 47/49/44 55/57/44 54/58/44
f 44/52/45 45/51/45 53/59/45 52/54/45
f 42/40/46 43/39/46 51/53/46 50/60/46
f 47/49/47 48/45/47 56/48/47 55/57/47
f 45/51/48 46/50/48 54/58/48 53/59/48
f 43/39/49 44/52/49 52/54/49 51/53/49
f 41/46/50 42/40/50 50/60/50 49/47/50
f 57/61/51 58/62/51 59/63/51 60/64/51 61/65/51 62/66/51 63/67/51 64/68/51
f 49/47/52 50/60/52 58/69/52 57/70/52
f 56/48/53 49/47/53 57/70/53 64/71/53
f 54/58/54 55/57/54 63/72/54 62/73/54
f 52/54/55 53/59/55 61/74/55 60/55/55
f 50/60/56 51/53/56 59/56/56 58/69/56
f 55/57/57 56/48/57 64/71/57 63/72/57
f 53/59/58 54/58/58 62/73/58 61/74/58
f 69/75/59 68/76/59 76/77/59 77/78/59
f 30/33/60 29/35/60 69/75/60 70/79/60
f 28/34/61 27/36/61 67/80/61 68/76/61
f 25/24/62 26/23/62 66/81/62 65/82/62
f 26/23/63 32/29/63 72/32/63 66/81/63
f 31/30/64 30/33/64 70/79/64 71/31/64
f 29/35/65 28/34/65 68/76/65 69/75/65
f 27/36/66 25/24/66 65/82/66 67/80/66
f 74/83/67 80/84/67 88/85/67 82/86/67
f 67/80/68 65/82/68 73/87/68 75/88/68
f 72/32/69 71/31/69 79/89/69 80/90/69
f 70/79/70 69/75/70 77/78/70 78/91/70
f 68/76/71 67/80/71 75/88/71 76/77/71
f 65/82/72 66/81/72 74/92/72 73/87/72
f 66/81/73 72/32/73 80/90/73 74/92/73
f 71/31/74 70/79/74 78/91/74 79/89/74
f 84/93/75 83/94/75 91/95/75 92/96/75
f 79/97/76 78/98/76 86/99/76 87/100/76
f 77/101/77 76/102/77 84/93/77 85/103/77
f 75/104/78 73/105/78 81/106/78 83/94/78
f 80/84/79 79/97/79 87/100/79 88/85/79
f 78/98/80 77/101/80 85/103/80 86/99/80
f 76/102/81 75/104/81 83/94/81 84/93/81
f 73/105/82 74/83/82 82/86/82 81/106/82
f 86/99/83 85/103/83 93/107/83 94/108/83 97/109/83 98/110/83
f 91/95/84 96/111/84 95/112/84 94/108/84 93/107/84 92/96/84
f 89/113/85 90/114/85 96/111/85 91/95/85
f 81/106/86 82/86/86 90/114/86 89/113/86
f 82/86/87 88/85/87 96/111/87 90/114/87
f 100/115/88 97/109/88 94/108/88 95/112/88
f 85/103/89 84/93/89 92/96/89 93/107/89
f 83/94/90 81/106/90 89/113/90 91/95/90
f 88/85/91 87/100/91 101/116/91 100/115/91 95/112/91 96/111/91
f 100/117/92 101/118/92 103/119/92 104/120/92
f 87/100/93 86/99/93 98/110/93 101/116/93
f 99/121/94 102/122/94 105/123/94 106/124/94
f 97/125/95 100/117/95 104/120/95 102/122/95
f 101/118/96 98/126/96 99/121/96 103/119/96
f 98/126/97 97/125/97 102/122/97 99/121/97
f 117/127/98 118/128/98 111/129/98 112/130/98
f 104/120/99 108/131/99 113/132/99
f 99/121/100 106/124/100 115/133/100
f 104/120/101 103/119/101 107/134/101 108/131/101
f 111/129/102 110/135/102 109/136/102 112/130/102
f 120/137/103 119/138/103 109/136/103 110/135/103
f 122/139/104 117/127/104 112/130/104
f 123/140/105 120/137/105 110/135/105
f 121/141/106 122/139/106 112/130/106 109/136/106
f 102/122/107 104/120/107 113/132/107 114/142/107
f 119/138/108 121/141/108 109/136/108
f 105/123/109 102/122/109 114/142/109
f 124/143/110 123/140/110 110/135/110 111/129/110
f 103/119/111 99/121/111 115/133/111 116/144/111
f 118/128/112 124/143/112 111/129/112
f 107/134/113 103/119/113 116/144/113
f 106/124/114 105/123/114 119/138/114 120/137/114
f 114/142/115 113/132/115 122/139/115 121/141/115
f 105/123/116 114/142/116 121/141/116 119/138/116
f 113/132/117 108/131/117 117/127/117 122/139/117
f 108/131/118 107/134/118 118/128/118 117/127/118
f 116/144/119 115/133/119 123/140/119 124/143/119
f 115/133/120 106/124/120 120/137/120 123/140/120
f 107/134/121 116/144/121 124/143/121 118/128/121
