# Blender v2.83.5 OBJ File: 'clementine02.blend'
# www.blender.org
mtllib clementine02.mtl
o Cylinder
v 0.028701 -0.005123 0.001025
v 0.028701 0.002760 0.001025
v 0.011889 -0.005123 0.017838
v 0.011889 0.002760 0.017838
v -0.011889 -0.005123 0.017838
v -0.011889 0.002760 0.017838
v -0.028701 -0.005123 0.001025
v -0.028701 0.002760 0.001025
v 0.022513 0.014759 -0.001538
v 0.009325 0.014759 0.011650
v -0.009325 0.014759 0.011650
v -0.022513 0.014759 -0.001538
v 0.010103 0.022132 -0.006679
v 0.004185 0.022132 -0.000760
v -0.004185 0.022132 -0.000760
v -0.010103 0.022132 -0.006679
v 0.024620 -0.014824 -0.000665
v 0.010198 -0.014824 0.013757
v -0.010198 -0.014824 0.013757
v -0.024620 -0.014824 -0.000665
v 0.014347 -0.021640 -0.004921
v 0.005943 -0.021640 0.003483
v -0.005943 -0.021640 0.003483
v -0.014347 -0.021640 -0.004921
v 0.004244 -0.022335 -0.009106
v 0.001758 -0.022335 -0.006620
v -0.001758 -0.022335 -0.006620
v -0.004244 -0.022335 -0.009106
v 0.002195 -0.021823 -0.009954
v 0.000909 -0.021823 -0.008669
v -0.000909 -0.021823 -0.008669
v -0.002195 -0.021823 -0.009954
v 0.003668 0.023183 -0.009344
v 0.001520 0.023183 -0.007195
v -0.001520 0.023183 -0.007195
v -0.003668 0.023183 -0.009344
v 0.001350 0.022503 -0.010304
v 0.000559 0.022503 -0.009514
v -0.000559 0.022503 -0.009514
v -0.001350 0.022503 -0.010304
v -0.002195 -0.021823 -0.010863
v 0.002195 -0.021823 -0.010863
v 0.001350 0.022503 -0.010863
v -0.001350 0.022503 -0.010863
v 0.003668 0.023183 -0.010863
v 0.010103 0.022132 -0.010863
v 0.022513 0.014759 -0.010863
v 0.028701 0.002760 -0.010863
v 0.028701 -0.005123 -0.010863
v 0.024620 -0.014824 -0.010863
v 0.014347 -0.021640 -0.010863
v 0.004244 -0.022335 -0.010863
v -0.003668 0.023183 -0.010863
v -0.010103 0.022132 -0.010863
v -0.022513 0.014759 -0.010863
v -0.028701 0.002760 -0.010863
v -0.028701 -0.005123 -0.010863
v -0.024620 -0.014824 -0.010863
v -0.014347 -0.021640 -0.010863
v -0.004244 -0.022335 -0.010863
v 0.012659 -0.019096 -0.010863
v 0.003745 -0.019710 -0.010863
v 0.021724 -0.013082 -0.010863
v 0.025325 -0.004522 -0.010863
v 0.025325 0.002433 -0.010863
v 0.019865 0.013021 -0.010863
v 0.008915 0.019526 -0.010863
v 0.003237 0.020454 -0.010863
v 0.001191 0.019854 -0.010863
v 0.001936 -0.019257 -0.010863
v -0.012659 -0.019096 -0.010863
v -0.003745 -0.019710 -0.010863
v -0.021724 -0.013082 -0.010863
v -0.025325 -0.004522 -0.010863
v -0.025325 0.002433 -0.010863
v -0.019865 0.013021 -0.010863
v -0.008915 0.019526 -0.010863
v -0.003237 0.020454 -0.010863
v -0.001191 0.019854 -0.010863
v -0.001936 -0.019257 -0.010863
v -0.004864 0.000298 -0.010863
v -0.001752 0.012733 -0.010863
v -0.002226 -0.012137 -0.010863
v 0.004864 0.000298 -0.010863
v 0.001752 0.012733 -0.010863
v 0.002226 -0.012137 -0.010863
v -0.003513 0.022199 -0.010863
v -0.001293 0.021547 -0.010863
v 0.001293 0.021547 -0.010863
v 0.003513 0.022199 -0.010863
v 0.009675 0.021192 -0.010863
v 0.021559 0.014132 -0.010863
v 0.027485 0.002641 -0.010863
v 0.027485 -0.004907 -0.010863
v 0.023577 -0.014198 -0.010863
v 0.013739 -0.020725 -0.010863
v 0.004064 -0.021390 -0.010863
v 0.002102 -0.020900 -0.010863
v -0.002102 -0.020900 -0.010863
v -0.004064 -0.021390 -0.010863
v -0.013739 -0.020725 -0.010863
v -0.023577 -0.014198 -0.010863
v -0.027485 -0.004907 -0.010863
v -0.027485 0.002641 -0.010863
v -0.021559 0.014132 -0.010863
v -0.009675 0.021192 -0.010863
v 0.001321 0.022025 -0.010863
v -0.001321 0.022025 -0.010863
v -0.000666 -0.020900 -0.010863
v 0.000666 -0.020900 -0.010863
vt 0.562500 0.817500
vt 0.562500 0.817500
vt 0.562500 0.817500
vt 0.562500 0.817500
vt 0.562500 0.817500
vt 0.562500 0.817500
vt 0.562500 0.817500
vt 0.562500 0.817500
vt 0.562500 0.817500
vt 0.562500 0.817500
vt 0.562500 0.817500
vt 0.562500 0.817500
vt 0.562500 0.817500
vt 0.562500 0.817500
vt 0.562500 0.817500
vt 0.562500 0.817500
vt 0.562500 0.817500
vt 0.562500 0.817500
vt 0.562500 0.817500
vt 0.562500 0.817500
vt 0.562500 0.817500
vt 0.562500 0.817500
vt 0.562500 0.817500
vt 0.562500 0.817500
vt 0.562500 0.817500
vt 0.562500 0.817500
vt 0.562500 0.817500
vt 0.562500 0.817500
vt 0.562500 0.817500
vt 0.562500 0.817500
vt 0.562500 0.817500
vt 0.562500 0.817500
vt 0.562500 0.817500
vt 0.562500 0.817500
vt 0.562500 0.817500
vt 0.562500 0.817500
vt 0.562500 0.817500
vt 0.562500 0.817500
vt 0.187500 0.817500
vt 0.187500 0.817500
vt 0.187500 0.817500
vt 0.187500 0.817500
vt 0.187500 0.817500
vt 0.187500 0.817500
vt 0.562500 0.817500
vt 0.562500 0.817500
vt 0.562500 0.817500
vt 0.562500 0.817500
vt 0.562500 0.817500
vt 0.562500 0.817500
vt 0.562500 0.817500
vt 0.562500 0.817500
vt 0.562500 0.817500
vt 0.562500 0.817500
vt 0.562500 0.817500
vt 0.562500 0.817500
vt 0.562500 0.817500
vt 0.562500 0.817500
vt 0.562500 0.817500
vt 0.562500 0.817500
vt 0.562500 0.817500
vt 0.562500 0.817500
vt 0.562500 0.817500
vt 0.562500 0.817500
vt 0.562500 0.817500
vt 0.562500 0.817500
vt 0.937500 0.817500
vt 0.937500 0.817500
vt 0.937500 0.817500
vt 0.187500 0.817500
vt 0.187500 0.817500
vt 0.187500 0.817500
vt 0.187500 0.817500
vt 0.187500 0.817500
vt 0.187500 0.817500
vt 0.937500 0.817500
vt 0.937500 0.817500
vt 0.937500 0.817500
vt 0.937500 0.817500
vt 0.937500 0.817500
vt 0.937500 0.817500
vt 0.937500 0.817500
vt 0.937500 0.817500
vt 0.937500 0.817500
vt 0.937500 0.817500
vt 0.937500 0.817500
vt 0.937500 0.817500
vt 0.937500 0.817500
vt 0.937500 0.817500
vt 0.562500 0.817500
vt 0.562500 0.817500
vt 0.562500 0.817500
vt 0.562500 0.817500
vt 0.562500 0.817500
vt 0.562500 0.817500
vt 0.562500 0.817500
vt 0.562500 0.817500
vt 0.562500 0.817500
vt 0.562500 0.817500
vt 0.562500 0.817500
vt 0.562500 0.817500
vt 0.562500 0.817500
vt 0.562500 0.817500
vt 0.562500 0.817500
vt 0.562500 0.817500
vt 0.562500 0.817500
vt 0.562500 0.817500
vt 0.562500 0.817500
vt 0.562500 0.817500
vt 0.562500 0.817500
vt 0.562500 0.817500
vt 0.562500 0.817500
vt 0.562500 0.817500
vt 0.562500 0.817500
vt 0.562500 0.817500
vt 0.937500 0.817500
vt 0.937500 0.817500
vt 0.937500 0.817500
vt 0.937500 0.817500
vt 0.937500 0.817500
vt 0.937500 0.817500
vt 0.937500 0.817500
vt 0.937500 0.817500
vt 0.937500 0.817500
vt 0.937500 0.817500
vt 0.937500 0.817500
vt 0.937500 0.817500
vt 0.937500 0.817500
vt 0.937500 0.817500
vt 0.937500 0.817500
vt 0.937500 0.817500
vt 0.937500 0.817500
vt 0.937500 0.817500
vt 0.937500 0.817500
vt 0.937500 0.817500
vt 0.562500 0.817500
vt 0.562500 0.817500
vt 0.562500 0.817500
vt 0.562500 0.817500
vt 0.937500 0.817500
vt 0.937500 0.817500
vt 0.562500 0.817500
vt 0.562500 0.817500
vt 0.562500 0.817500
vt 0.562500 0.817500
vt 0.562500 0.817500
vt 0.562500 0.817500
vt 0.562500 0.817500
vt 0.562500 0.817500
vt 0.562500 0.817500
vt 0.562500 0.817500
vt 0.562500 0.817500
vt 0.562500 0.817500
vt 0.562500 0.817500
vt 0.562500 0.817500
vt 0.562500 0.817500
vt 0.562500 0.817500
vt 0.562500 0.817500
vt 0.562500 0.817500
vt 0.562500 0.817500
vt 0.562500 0.817500
vt 0.187500 0.817500
vt 0.187500 0.817500
vt 0.187500 0.817500
vt 0.187500 0.817500
vn 1.0000 0.0000 0.0000
vn 0.7071 0.0000 0.7071
vn -0.0000 0.0000 1.0000
vn -0.7071 0.0000 0.7071
vn 0.6518 -0.3878 0.6518
vn -0.6285 0.4583 0.6285
vn 0.6285 0.4583 0.6285
vn -0.8888 0.4583 0.0000
vn -0.0000 0.4583 0.8888
vn -0.1140 0.9869 0.1140
vn -0.5107 0.8597 0.0000
vn -0.0000 0.8597 0.5107
vn -0.3612 0.8597 0.3612
vn 0.3612 0.8597 0.3612
vn -0.0000 -0.3878 0.9218
vn 0.9218 -0.3878 -0.0000
vn -0.6518 -0.3878 0.6518
vn -0.3909 -0.8333 0.3909
vn 0.3909 -0.8333 0.3909
vn -0.0000 -0.8333 0.5528
vn 0.5528 -0.8333 0.0000
vn -0.0000 -0.9976 0.0686
vn 0.0686 -0.9976 0.0000
vn -0.0485 -0.9976 0.0485
vn 0.0485 -0.9976 0.0485
vn 0.0000 -1.0000 -0.0000
vn 0.0000 -0.9701 -0.2425
vn -0.2425 -0.9701 0.0000
vn 0.1715 -0.9701 -0.1715
vn -0.1715 -0.9701 -0.1715
vn 0.1140 0.9869 0.1140
vn -0.1612 0.9869 0.0000
vn 0.0000 0.9869 0.1612
vn 0.1990 0.9596 -0.1990
vn -0.1990 0.9596 -0.1990
vn 0.2815 0.9596 0.0000
vn 0.0000 0.9596 -0.2815
vn 0.8888 0.4583 0.0000
vn 0.5107 0.8597 0.0000
vn 0.1612 0.9869 0.0000
vn -0.2815 0.9596 -0.0000
vn -0.0686 -0.9976 0.0000
vn -0.5528 -0.8333 0.0000
vn -0.9218 -0.3878 0.0000
vn -1.0000 0.0000 0.0000
vn 0.2425 -0.9701 0.0000
vn -0.0000 -0.0000 -1.0000
vn 0.0000 1.0000 0.0000
usemtl Material.001
s off
f 49/1/1 48/2/1 2/3/1 1/4/1
f 1/4/2 2/3/2 4/5/2 3/6/2
f 3/6/3 4/5/3 6/7/3 5/8/3
f 5/8/4 6/7/4 8/9/4 7/10/4
f 1/4/5 3/6/5 18/11/5 17/12/5
f 8/9/6 6/7/6 11/13/6 12/14/6
f 4/5/7 2/3/7 9/15/7 10/16/7
f 56/17/8 8/9/8 12/14/8 55/18/8
f 6/7/9 4/5/9 10/16/9 11/13/9
f 16/19/10 15/20/10 35/21/10 36/22/10
f 55/18/11 12/14/11 16/19/11 54/23/11
f 11/13/12 10/16/12 14/24/12 15/20/12
f 12/14/13 11/13/13 15/20/13 16/19/13
f 10/16/14 9/15/14 13/25/14 14/24/14
f 3/6/15 5/8/15 19/26/15 18/11/15
f 49/1/16 1/4/16 17/12/16 50/27/16
f 5/8/17 7/10/17 20/28/17 19/26/17
f 19/26/18 20/28/18 24/29/18 23/30/18
f 17/12/19 18/11/19 22/31/19 21/32/19
f 18/11/20 19/26/20 23/30/20 22/31/20
f 50/27/21 17/12/21 21/32/21 51/33/21
f 22/31/22 23/30/22 27/34/22 26/35/22
f 51/33/23 21/32/23 25/36/23 52/37/23
f 23/30/24 24/29/24 28/38/24 27/34/24
f 21/32/25 22/31/25 26/35/25 25/36/25
f 41/39/26 42/40/26 29/41/26 30/42/26 31/43/26 32/44/26
f 26/35/27 27/34/27 31/45/27 30/46/27
f 52/37/28 25/36/28 29/47/28 42/48/28
f 27/34/29 28/38/29 32/49/29 31/45/29
f 25/36/30 26/35/30 30/46/30 29/47/30
f 14/24/31 13/25/31 33/50/31 34/51/31
f 54/23/32 16/19/32 36/22/32 53/52/32
f 15/20/33 14/24/33 34/51/33 35/21/33
f 36/22/34 35/21/34 39/53/34 40/54/34
f 34/51/35 33/50/35 37/55/35 38/56/35
f 53/52/36 36/22/36 40/54/36 44/57/36
f 35/21/37 34/51/37 38/56/37 39/53/37
f 2/3/38 48/2/38 47/58/38 9/15/38
f 9/15/39 47/58/39 46/59/39 13/25/39
f 13/25/40 46/59/40 45/60/40 33/50/40
f 33/50/41 45/60/41 43/61/41 37/55/41
f 24/29/42 59/62/42 60/63/42 28/38/42
f 20/28/43 58/64/43 59/62/43 24/29/43
f 7/10/44 57/65/44 58/64/44 20/28/44
f 7/10/45 8/9/45 56/17/45 57/65/45
f 28/38/46 60/63/46 41/66/46 32/49/46
f 105/67/47 77/68/47 76/69/47
f 38/70/48 37/71/48 43/72/48 44/73/48 40/74/48 39/75/48
f 70/76/47 80/77/47 83/78/47 81/79/47 82/80/47 79/81/47 69/82/47 85/83/47 84/84/47 86/85/47
f 93/86/47 94/87/47 64/88/47 65/89/47
f 80/90/47 72/91/47 71/92/47 73/93/47 74/94/47 75/95/47 76/96/47 77/97/47 78/98/47 79/99/47 82/100/47 81/101/47 83/102/47
f 62/103/47 70/104/47 86/105/47 84/106/47 85/107/47 69/108/47 68/109/47 67/110/47 66/111/47 65/112/47 64/113/47 63/114/47 61/115/47
f 66/116/47 93/86/47 65/89/47
f 77/68/47 87/117/47 78/118/47
f 91/119/47 66/116/47 67/120/47
f 87/117/47 88/121/47 79/81/47 78/118/47
f 100/122/47 101/123/47 71/124/47 72/125/47
f 90/126/47 91/119/47 67/120/47 68/127/47
f 80/77/47 100/122/47 72/125/47
f 101/123/47 102/128/47 73/129/47 71/124/47
f 89/130/47 90/126/47 68/127/47 69/82/47
f 61/131/47 97/132/47 62/133/47
f 102/128/47 74/134/47 73/129/47
f 97/132/47 98/135/47 70/76/47 62/133/47
f 98/135/47 80/77/47 70/76/47
f 50/27/47 51/33/47 96/136/47 61/115/47 63/114/47 95/137/47
f 57/65/47 56/17/47 104/138/47 75/95/47 74/94/47 103/139/47
f 89/130/47 69/82/47 79/81/47 88/121/47
f 94/87/47 63/140/47 64/88/47
f 75/141/47 105/67/47 76/69/47
f 54/23/47 53/52/47 87/142/47 77/97/47 106/143/47
f 55/18/47 54/23/47 106/143/47 77/97/47 105/144/47
f 56/17/47 55/18/47 105/144/47 75/95/47 104/138/47
f 58/64/47 57/65/47 103/139/47 74/94/47 102/145/47
f 59/62/47 58/64/47 102/145/47 101/146/47
f 60/63/47 59/62/47 101/146/47 100/147/47
f 41/66/47 60/63/47 100/147/47 80/90/47 99/148/47
f 98/149/47 110/150/47 109/151/47 99/148/47 80/90/47
f 52/37/47 42/48/47 98/149/47 97/152/47
f 51/33/47 52/37/47 97/152/47 61/115/47 96/136/47
f 49/1/47 50/27/47 95/137/47 63/114/47 94/153/47
f 48/2/47 49/1/47 94/153/47 93/154/47
f 47/58/47 48/2/47 93/154/47 66/111/47 92/155/47
f 46/59/47 47/58/47 92/155/47 66/111/47 91/156/47
f 45/60/47 46/59/47 91/156/47 90/157/47
f 43/61/47 45/60/47 90/157/47 89/158/47 107/159/47
f 107/159/47 89/158/47 88/160/47 108/161/47
f 53/52/47 44/57/47 108/161/47 88/160/47 87/142/47
f 43/72/47 107/162/47 108/163/47 44/73/47
f 41/66/47 99/148/47 109/151/47
f 98/149/47 42/48/47 110/150/47
f 42/40/47 41/39/47 109/164/47 110/165/47
