# Blender v2.83.5 OBJ File: 'coconut01.blend'
# www.blender.org
mtllib coconut01.mtl
o Cylinder
v 0.000152 -0.064960 -0.039912
v 0.000152 -0.053287 -0.060949
v 0.027932 -0.064960 -0.028405
v 0.042807 -0.053287 -0.043281
v 0.039439 -0.064960 -0.000625
v 0.060476 -0.053287 -0.000625
v 0.027932 -0.064960 0.027155
v 0.042807 -0.053287 0.042030
v 0.000152 -0.064960 0.038662
v 0.000152 -0.053287 0.059699
v -0.027628 -0.064960 0.027155
v -0.042503 -0.053287 0.042030
v -0.039135 -0.064960 -0.000625
v -0.060172 -0.053287 -0.000625
v -0.027628 -0.064960 -0.028405
v -0.042503 -0.053287 -0.043281
v 0.000152 -0.026428 -0.069807
v 0.049071 -0.026428 -0.049544
v 0.069334 -0.026428 -0.000625
v 0.049071 -0.026428 0.048294
v 0.000152 -0.026428 0.068557
v -0.048767 -0.026428 0.048294
v -0.069030 -0.026428 -0.000625
v -0.048767 -0.026428 -0.049544
v 0.000152 0.023378 -0.069807
v 0.049071 0.023378 -0.049544
v 0.069334 0.023378 -0.000625
v 0.049071 0.023378 0.048294
v 0.000152 0.023378 0.068557
v -0.048767 0.023378 0.048294
v -0.069030 0.023378 -0.000625
v -0.048767 0.023378 -0.049544
v 0.000152 0.049146 -0.058157
v 0.040833 0.049146 -0.041307
v 0.057684 0.049146 -0.000625
v 0.040833 0.049146 0.040056
v 0.000152 0.049146 0.056907
v -0.040529 0.049146 0.040056
v -0.057380 0.049146 -0.000625
v -0.040529 0.049146 -0.041307
v 0.000152 0.064922 -0.031152
v 0.021738 0.064922 -0.022211
v 0.030679 0.064922 -0.000625
v 0.021738 0.064922 0.020961
v 0.000152 0.064922 0.029902
v -0.021434 0.064922 0.020961
v -0.030375 0.064922 -0.000625
v -0.021434 0.064922 -0.022211
v 0.015128 0.068875 -0.008484
v 0.019238 0.068009 -0.006172
v 0.020544 0.067735 -0.001567
v 0.018282 0.068213 0.002632
v 0.013777 0.069164 0.003967
v 0.009668 0.070030 0.001655
v 0.008361 0.070304 -0.002949
v 0.010623 0.069826 -0.007149
v -0.004014 0.069041 0.007744
v 0.000327 0.068979 0.009777
v 0.001974 0.068348 0.014235
v -0.000039 0.067517 0.018506
v -0.004531 0.066973 0.020088
v -0.008872 0.067035 0.018055
v -0.010519 0.067666 0.013597
v -0.008506 0.068497 0.009326
v -0.009360 0.067246 -0.017230
v -0.005059 0.067739 -0.015170
v -0.003513 0.068618 -0.010718
v -0.005628 0.069368 -0.006482
v -0.010164 0.069550 -0.004942
v -0.014465 0.069057 -0.007002
v -0.016011 0.068178 -0.011454
v -0.013897 0.067428 -0.015690
v -0.010641 0.064922 0.025431
vt 0.181616 0.816922
vt 0.181616 0.816922
vt 0.181616 0.816922
vt 0.181616 0.816922
vt 0.181616 0.816922
vt 0.181616 0.816922
vt 0.181616 0.816922
vt 0.181616 0.816922
vt 0.181616 0.816922
vt 0.181616 0.816922
vt 0.181616 0.816922
vt 0.181616 0.816922
vt 0.181616 0.816922
vt 0.181616 0.816922
vt 0.181616 0.816922
vt 0.181616 0.816922
vt 0.181616 0.816922
vt 0.181616 0.816922
vt 0.181616 0.816922
vt 0.181616 0.816922
vt 0.181616 0.816922
vt 0.181616 0.816922
vt 0.181616 0.816922
vt 0.181616 0.816922
vt 0.181616 0.816922
vt 0.181616 0.816922
vt 0.181616 0.816922
vt 0.181616 0.816922
vt 0.181616 0.816922
vt 0.181616 0.816922
vt 0.181616 0.816922
vt 0.181616 0.816922
vt 0.181616 0.816922
vt 0.181616 0.816922
vt 0.181616 0.816922
vt 0.181616 0.816922
vt 0.181616 0.816922
vt 0.181616 0.816922
vt 0.181616 0.816922
vt 0.181616 0.816922
vt 0.181616 0.816922
vt 0.181616 0.816922
vt 0.181616 0.816922
vt 0.181616 0.816922
vt 0.181616 0.816922
vt 0.181616 0.816922
vt 0.181616 0.816922
vt 0.181616 0.816922
vt 0.181616 0.816922
vt 0.306616 0.816922
vt 0.306616 0.816922
vt 0.306616 0.816922
vt 0.306616 0.816922
vt 0.306616 0.816922
vt 0.306616 0.816922
vt 0.306616 0.816922
vt 0.306616 0.816922
vt 0.306616 0.816922
vt 0.306616 0.816922
vt 0.306616 0.816922
vt 0.306616 0.816922
vt 0.306616 0.816922
vt 0.306616 0.816922
vt 0.306616 0.816922
vt 0.306616 0.816922
vt 0.306616 0.816922
vt 0.306616 0.816922
vt 0.306616 0.816922
vt 0.306616 0.816922
vt 0.306616 0.816922
vt 0.306616 0.816922
vt 0.306616 0.816922
vt 0.306616 0.816922
vt 0.181616 0.816922
vt 0.181616 0.816922
vt 0.181616 0.816922
vt 0.181616 0.816922
vt 0.181616 0.816922
vt 0.181616 0.816922
vt 0.181616 0.816922
vt 0.181616 0.816922
vt 0.181616 0.816922
vt 0.181616 0.816922
vt 0.181616 0.816922
vt 0.181616 0.816922
vt 0.181616 0.816922
vt 0.181616 0.816922
vt 0.181616 0.816922
vt 0.181616 0.816922
vt 0.181616 0.816922
vt 0.181616 0.816922
vt 0.181616 0.816922
vt 0.181616 0.816922
vt 0.181616 0.816922
vt 0.181616 0.816922
vt 0.181616 0.816922
vt 0.181616 0.816922
vn 0.1970 -0.8573 -0.4757
vn 0.4757 -0.8573 -0.1970
vn 0.4757 -0.8573 0.1970
vn 0.1970 -0.8573 0.4757
vn -0.1970 -0.8573 0.4757
vn -0.4757 -0.8573 0.1970
vn 0.3661 -0.2915 0.8838
vn -0.4757 -0.8573 -0.1970
vn -0.1970 -0.8573 -0.4757
vn 0.0000 -1.0000 0.0000
vn 0.3827 0.0000 -0.9239
vn -0.8838 -0.2915 -0.3661
vn 0.8838 -0.2915 -0.3661
vn -0.3661 -0.2915 0.8838
vn -0.3661 -0.2915 -0.8838
vn 0.3661 -0.2915 -0.8838
vn 0.8838 -0.2915 0.3661
vn -0.8838 -0.2915 0.3661
vn -0.8525 0.3854 -0.3531
vn -0.3827 0.0000 -0.9239
vn -0.9239 0.0000 0.3827
vn 0.3827 0.0000 0.9239
vn 0.9239 0.0000 -0.3827
vn -0.9239 0.0000 -0.3827
vn -0.3827 0.0000 0.9239
vn 0.9239 0.0000 0.3827
vn 0.4937 0.8452 -0.2045
vn -0.3531 0.3854 0.8525
vn 0.8525 0.3854 0.3531
vn 0.3531 0.3854 -0.8525
vn -0.3531 0.3854 -0.8525
vn -0.8525 0.3854 0.3531
vn 0.3531 0.3854 0.8525
vn 0.8525 0.3854 -0.3531
vn -0.4937 0.8452 -0.2045
vn -0.2045 0.8452 0.4937
vn 0.4937 0.8452 0.2045
vn 0.2045 0.8452 -0.4937
vn -0.2045 0.8452 -0.4937
vn -0.4937 0.8452 0.2045
vn 0.2045 0.8452 0.4937
vn 0.2064 0.9785 -0.0003
vn -0.0620 0.9848 0.1623
vn -0.0237 0.9823 -0.1857
vn -0.1209 0.9654 -0.2313
vn -0.2032 0.9747 0.0935
vn -0.1725 0.9789 0.1091
vn -0.1225 0.9895 0.0773
vn 0.0589 0.9841 0.1676
vn -0.0344 0.9863 -0.1615
vn 0.0389 0.9756 -0.2161
vn 0.2691 0.9629 -0.0190
vn 0.2408 0.9622 0.1274
vn -0.1038 0.9624 0.2509
vn -0.0594 0.9969 0.0509
vn -0.0257 0.9830 -0.1817
vn -0.0884 0.9674 -0.2371
vn -0.3034 0.9455 -0.1181
vn -0.1112 0.9683 0.2234
vn 0.0910 0.9713 0.2197
vn 0.0992 0.9738 0.2046
vn 0.2807 0.9541 0.1043
vn 0.3071 0.9423 -0.1335
vn 0.1418 0.9673 -0.2103
vn -0.0798 0.9674 0.2404
usemtl Material.001
s off
f 1/1/1 2/2/1 4/3/1 3/4/1
f 3/4/2 4/3/2 6/5/2 5/6/2
f 5/6/3 6/5/3 8/7/3 7/8/3
f 7/8/4 8/7/4 10/9/4 9/10/4
f 9/10/5 10/9/5 12/11/5 11/12/5
f 11/12/6 12/11/6 14/13/6 13/14/6
f 10/9/7 8/7/7 20/15/7 21/16/7
f 13/14/8 14/13/8 16/17/8 15/18/8
f 15/18/9 16/17/9 2/2/9 1/1/9
f 1/1/10 3/4/10 5/6/10 7/8/10 9/10/10 11/12/10 13/14/10 15/18/10
f 18/19/11 17/20/11 25/21/11 26/22/11
f 16/17/12 14/13/12 23/23/12 24/24/12
f 6/5/13 4/3/13 18/19/13 19/25/13
f 12/11/14 10/9/14 21/16/14 22/26/14
f 2/2/15 16/17/15 24/24/15 17/20/15
f 4/3/16 2/2/16 17/20/16 18/19/16
f 8/7/17 6/5/17 19/25/17 20/15/17
f 14/13/18 12/11/18 22/26/18 23/23/18
f 32/27/19 31/28/19 39/29/19 40/30/19
f 17/20/20 24/24/20 32/27/20 25/21/20
f 23/23/21 22/26/21 30/31/21 31/28/21
f 21/16/22 20/15/22 28/32/22 29/33/22
f 19/25/23 18/19/23 26/22/23 27/34/23
f 24/24/24 23/23/24 31/28/24 32/27/24
f 22/26/25 21/16/25 29/33/25 30/31/25
f 20/15/26 19/25/26 27/34/26 28/32/26
f 35/35/27 34/36/27 42/37/27 43/38/27
f 30/31/28 29/33/28 37/39/28 38/40/28
f 28/32/29 27/34/29 35/35/29 36/41/29
f 26/22/30 25/21/30 33/42/30 34/36/30
f 25/21/31 32/27/31 40/30/31 33/42/31
f 31/28/32 30/31/32 38/40/32 39/29/32
f 29/33/33 28/32/33 36/41/33 37/39/33
f 27/34/34 26/22/34 34/36/34 35/35/34
f 40/30/35 39/29/35 47/43/35 48/44/35
f 38/40/36 37/39/36 45/45/36 73/46/36 46/47/36
f 36/41/37 35/35/37 43/38/37 44/48/37
f 34/36/38 33/42/38 41/49/38 42/37/38
f 33/42/39 40/30/39 48/44/39 41/49/39
f 39/29/40 38/40/40 46/47/40 47/43/40
f 37/39/41 36/41/41 44/48/41 45/45/41
f 50/50/42 49/51/42 56/52/42 55/53/42 54/54/42 53/55/42 52/56/42 51/57/42
f 58/58/43 57/59/43 64/60/43 63/61/43 62/62/43 61/63/43 60/64/43 59/65/43
f 66/66/44 65/67/44 72/68/44 71/69/44 70/70/44 69/71/44 68/72/44 67/73/44
f 48/44/45 71/74/45 72/75/45
f 70/76/46 47/43/46 46/47/46 69/77/46
f 46/47/47 63/78/47 64/79/47
f 57/80/48 68/81/48 69/77/48 46/47/48 64/79/48
f 53/82/49 54/83/49 58/84/49 59/85/49
f 55/86/50 56/87/50 67/88/50 68/81/50
f 42/37/51 41/49/51 66/89/51 67/88/51 56/87/51
f 43/38/52 50/90/52 51/91/52
f 44/48/53 52/92/53 53/82/53
f 61/93/54 62/94/54 73/46/54
f 54/83/55 55/86/55 68/81/55 57/80/55 58/84/55
f 66/89/56 41/49/56 65/95/56
f 41/49/57 48/44/57 72/75/57 65/95/57
f 71/74/58 48/44/58 47/43/58 70/76/58
f 73/46/59 62/94/59 63/78/59 46/47/59
f 45/45/60 44/48/60 60/96/60
f 44/48/61 53/82/61 59/85/61 60/96/61
f 43/38/62 51/91/62 52/92/62 44/48/62
f 49/97/63 50/90/63 43/38/63 42/37/63
f 56/87/64 49/97/64 42/37/64
f 60/96/65 61/93/65 73/46/65 45/45/65
