# Blender v2.83.5 OBJ File: 'corn06.blend'
# www.blender.org
mtllib corn06.mtl
o Cylinder
v -0.007504 0.003180 0.002888
v -0.007504 0.003180 -0.002888
v -0.000104 -0.003195 0.004859
v -0.000104 -0.003195 -0.004859
v -0.007504 -0.003239 -0.003224
v -0.007504 -0.003239 0.003224
v 0.007607 -0.003195 -0.006686
v 0.007607 -0.003195 0.006686
v 0.007607 0.003224 -0.006400
v 0.007607 0.003224 0.006400
v -0.000104 0.003224 -0.004352
v -0.000104 0.003224 0.004352
vt 0.561638 0.688583
vt 0.561638 0.688583
vt 0.561638 0.688583
vt 0.561638 0.688583
vt 0.561638 0.688583
vt 0.561638 0.688583
vt 0.561638 0.688583
vt 0.561638 0.688583
vt 0.936638 0.688583
vt 0.936638 0.688583
vt 0.936638 0.688583
vt 0.936638 0.688583
vt 0.936638 0.688583
vt 0.936638 0.688583
vt 0.936638 0.688583
vt 0.936638 0.688583
vn 0.0000 -1.0000 0.0000
vn -0.2433 0.0598 0.9681
vn 1.0000 0.0000 0.0000
vn 0.0000 1.0000 0.0000
vn -0.2049 0.0641 0.9767
vn -0.2433 0.0598 -0.9681
vn -1.0000 -0.0000 0.0000
vn 0.0060 -1.0000 0.0000
vn -0.2049 0.0641 -0.9767
vn -0.0060 1.0000 0.0000
usemtl Material.001
s off
f 7/1/1 8/2/1 3/3/1 4/4/1
f 8/2/2 10/5/2 12/6/2 3/3/2
f 8/2/3 7/1/3 9/7/3 10/5/3
f 10/5/4 9/7/4 11/8/4 12/6/4
f 3/9/5 12/10/5 1/11/5 6/12/5
f 4/4/6 11/8/6 9/7/6 7/1/6
f 5/13/7 6/12/7 1/11/7 2/14/7
f 4/15/8 3/9/8 6/12/8 5/13/8
f 11/16/9 4/15/9 5/13/9 2/14/9
f 12/10/10 11/16/10 2/14/10 1/11/10
