# Blender v2.83.5 OBJ File: 'corn04.blend'
# www.blender.org
mtllib corn04.mtl
o Cylinder
v 0.000000 -0.064066 -0.008660
v 0.000000 -0.059329 -0.008660
v 0.006124 -0.064066 -0.006124
v 0.006124 -0.059329 -0.006124
v 0.008660 -0.064066 0.000000
v 0.008660 -0.059329 0.000000
v 0.006124 -0.064066 0.006124
v 0.006124 -0.059329 0.006124
v 0.000000 -0.064066 0.008660
v 0.000000 -0.059329 0.008660
v -0.006124 -0.064066 0.006124
v -0.006124 -0.059329 0.006124
v -0.008660 -0.064066 0.000000
v -0.008660 -0.059329 0.000000
v -0.006124 -0.064066 -0.006124
v -0.006124 -0.059329 -0.006124
v 0.000000 -0.050086 -0.023836
v 0.016854 -0.050086 -0.016854
v 0.023836 -0.050086 0.000000
v 0.016854 -0.050086 0.016854
v -0.000000 -0.050086 0.023836
v -0.016854 -0.050086 0.016854
v -0.023836 -0.050086 0.000000
v -0.016854 -0.050086 -0.016854
v 0.000000 -0.014245 -0.030577
v 0.021621 -0.014245 -0.021621
v 0.030577 -0.014245 0.000000
v 0.021621 -0.014245 0.021621
v -0.000000 -0.014245 0.030577
v -0.021621 -0.014245 0.021621
v -0.030577 -0.014245 0.000000
v -0.021621 -0.014245 -0.021621
v 0.000000 0.072168 -0.029269
v 0.020696 0.072168 -0.020696
v 0.029269 0.072168 0.000000
v 0.020696 0.072168 0.020696
v -0.000000 0.072168 0.029269
v -0.020696 0.072168 0.020696
v -0.029269 0.072168 0.000000
v -0.020696 0.072168 -0.020696
v 0.014074 0.072168 -0.014074
v 0.000000 0.072168 -0.019904
v 0.019904 0.072168 0.000000
v 0.014074 0.072168 0.014074
v -0.000000 0.072168 0.019904
v -0.014074 0.072168 0.014074
v -0.019904 0.072168 0.000000
v -0.014074 0.072168 -0.014074
vt 0.560407 0.681815
vt 0.560407 0.681815
vt 0.560407 0.681815
vt 0.560407 0.681815
vt 0.560407 0.681815
vt 0.560407 0.681815
vt 0.560407 0.681815
vt 0.560407 0.681815
vt 0.560407 0.681815
vt 0.560407 0.681815
vt 0.560407 0.681815
vt 0.560407 0.681815
vt 0.560407 0.681815
vt 0.560407 0.681815
vt 0.560407 0.681815
vt 0.560407 0.681815
vt 0.560407 0.681815
vt 0.560407 0.681815
vt 0.813868 0.691658
vt 0.813868 0.691658
vt 0.813868 0.691658
vt 0.813868 0.691658
vt 0.813868 0.691658
vt 0.813868 0.691658
vt 0.813868 0.691658
vt 0.813868 0.691658
vt 0.560407 0.681815
vt 0.560407 0.681815
vt 0.560407 0.681815
vt 0.560407 0.681815
vt 0.560407 0.681815
vt 0.560407 0.681815
vt 0.560407 0.681815
vt 0.560407 0.681815
vt 0.560407 0.681815
vt 0.560407 0.681815
vt 0.560407 0.681815
vt 0.560407 0.681815
vt 0.560407 0.681815
vt 0.560407 0.681815
vt 0.560407 0.681815
vt 0.560407 0.681815
vt 0.560407 0.681815
vt 0.560407 0.681815
vt 0.560407 0.681815
vt 0.560407 0.681815
vt 0.560407 0.681815
vt 0.560407 0.681815
vt 0.560407 0.681815
vt 0.560407 0.681815
vt 0.936907 0.689197
vt 0.936907 0.689197
vt 0.936907 0.689197
vt 0.936907 0.689197
vt 0.936907 0.689197
vt 0.936907 0.689197
vt 0.936907 0.689197
vt 0.936907 0.689197
vt 0.560407 0.681815
vt 0.560407 0.681815
vt 0.560407 0.681815
vt 0.560407 0.681815
vt 0.560407 0.681815
vt 0.560407 0.681815
vn 0.3827 0.0000 -0.9239
vn 0.9239 0.0000 -0.3827
vn 0.9239 0.0000 0.3827
vn 0.3827 0.0000 0.9239
vn -0.3827 0.0000 0.9239
vn -0.9239 0.0000 0.3827
vn -0.2106 -0.8349 0.5085
vn -0.9239 0.0000 -0.3827
vn -0.3827 0.0000 -0.9239
vn 0.0000 -1.0000 0.0000
vn 0.9102 -0.1712 -0.3770
vn -0.2106 -0.8349 -0.5085
vn 0.2106 -0.8349 -0.5085
vn 0.5085 -0.8349 0.2106
vn -0.5085 -0.8349 0.2106
vn 0.2106 -0.8349 0.5085
vn -0.5085 -0.8349 -0.2106
vn 0.5085 -0.8349 -0.2106
vn -0.3826 0.0140 -0.9238
vn -0.9102 -0.1712 -0.3770
vn -0.3770 -0.1712 0.9102
vn 0.9102 -0.1712 0.3770
vn 0.3770 -0.1712 -0.9102
vn -0.3770 -0.1712 -0.9102
vn -0.9102 -0.1712 0.3770
vn 0.3770 -0.1712 0.9102
vn -0.9238 0.0140 0.3826
vn 0.3826 0.0140 0.9238
vn 0.9238 0.0140 -0.3826
vn -0.9238 0.0140 -0.3826
vn -0.3826 0.0140 0.9238
vn 0.9238 0.0140 0.3826
vn 0.3826 0.0140 -0.9238
vn 0.0000 1.0000 0.0000
usemtl Material.001
s off
f 1/1/1 2/2/1 4/3/1 3/4/1
f 3/4/2 4/3/2 6/5/2 5/6/2
f 5/6/3 6/5/3 8/7/3 7/8/3
f 7/8/4 8/7/4 10/9/4 9/10/4
f 9/10/5 10/9/5 12/11/5 11/12/5
f 11/12/6 12/11/6 14/13/6 13/14/6
f 12/11/7 10/9/7 21/15/7 22/16/7
f 13/14/8 14/13/8 16/17/8 15/18/8
f 15/18/9 16/17/9 2/2/9 1/1/9
f 1/19/10 3/20/10 5/21/10 7/22/10 9/23/10 11/24/10 13/25/10 15/26/10
f 19/27/11 18/28/11 26/29/11 27/30/11
f 2/2/12 16/17/12 24/31/12 17/32/12
f 4/3/13 2/2/13 17/32/13 18/28/13
f 8/7/14 6/5/14 19/27/14 20/33/14
f 14/13/15 12/11/15 22/16/15 23/34/15
f 10/9/16 8/7/16 20/33/16 21/15/16
f 16/17/17 14/13/17 23/34/17 24/31/17
f 6/5/18 4/3/18 18/28/18 19/27/18
f 25/35/19 32/36/19 40/37/19 33/38/19
f 24/31/20 23/34/20 31/39/20 32/36/20
f 22/16/21 21/15/21 29/40/21 30/41/21
f 20/33/22 19/27/22 27/30/22 28/42/22
f 18/28/23 17/32/23 25/35/23 26/29/23
f 17/32/24 24/31/24 32/36/24 25/35/24
f 23/34/25 22/16/25 30/41/25 31/39/25
f 21/15/26 20/33/26 28/42/26 29/40/26
f 31/39/27 30/41/27 38/43/27 39/44/27
f 29/40/28 28/42/28 36/45/28 37/46/28
f 27/30/29 26/29/29 34/47/29 35/48/29
f 32/36/30 31/39/30 39/44/30 40/37/30
f 30/41/31 29/40/31 37/46/31 38/43/31
f 28/42/32 27/30/32 35/48/32 36/45/32
f 26/29/33 25/35/33 33/38/33 34/47/33
f 40/37/34 39/44/34 47/49/34 48/50/34
f 41/51/34 42/52/34 48/53/34 47/54/34 46/55/34 45/56/34 44/57/34 43/58/34
f 38/43/34 37/46/34 45/59/34 46/60/34
f 36/45/34 35/48/34 43/61/34 44/62/34
f 34/47/34 33/38/34 42/63/34 41/64/34
f 33/38/34 40/37/34 48/50/34 42/63/34
f 39/44/34 38/43/34 46/60/34 47/49/34
f 37/46/34 36/45/34 44/62/34 45/59/34
f 35/48/34 34/47/34 41/64/34 43/61/34
