# Blender v2.83.5 OBJ File: 'corn05.blend'
# www.blender.org
mtllib corn05.mtl
o Cylinder
v -0.015712 -0.024712 -0.015712
v -0.022221 -0.024712 0.000000
v -0.015712 -0.024712 0.015712
v -0.000000 -0.024712 0.022221
v 0.015712 -0.024712 0.015712
v 0.022221 -0.024712 0.000000
v 0.015712 -0.024712 -0.015712
v 0.000000 -0.024712 -0.022221
v 0.000000 -0.024712 -0.030577
v 0.021621 -0.024712 -0.021621
v 0.030577 -0.024712 0.000000
v 0.021621 -0.024712 0.021621
v -0.000000 -0.024712 0.030577
v -0.021621 -0.024712 0.021621
v -0.030577 -0.024712 0.000000
v -0.021621 -0.024712 -0.021621
v 0.000000 0.024712 -0.029269
v 0.020696 0.024712 -0.020696
v 0.029269 0.024712 0.000000
v 0.020696 0.024712 0.020696
v -0.000000 0.024712 0.029269
v -0.020696 0.024712 0.020696
v -0.029269 0.024712 0.000000
v -0.020696 0.024712 -0.020696
v 0.014074 0.024712 -0.014074
v 0.000000 0.024712 -0.019904
v 0.019904 0.024712 0.000000
v 0.014074 0.024712 0.014074
v -0.000000 0.024712 0.019904
v -0.014074 0.024712 0.014074
v -0.019904 0.024712 0.000000
v -0.014074 0.024712 -0.014074
vt 0.561638 0.688583
vt 0.561638 0.688583
vt 0.561638 0.688583
vt 0.561638 0.688583
vt 0.935474 0.692760
vt 0.935474 0.692760
vt 0.935474 0.692760
vt 0.935474 0.692760
vt 0.935474 0.692760
vt 0.935474 0.692760
vt 0.935474 0.692760
vt 0.935474 0.692760
vt 0.561638 0.688583
vt 0.561638 0.688583
vt 0.561638 0.688583
vt 0.561638 0.688583
vt 0.561638 0.688583
vt 0.561638 0.688583
vt 0.561638 0.688583
vt 0.561638 0.688583
vt 0.561638 0.688583
vt 0.561638 0.688583
vt 0.561638 0.688583
vt 0.561638 0.688583
vt 0.561638 0.688583
vt 0.561638 0.688583
vt 0.561638 0.688583
vt 0.561638 0.688583
vt 0.561638 0.688583
vt 0.561638 0.688583
vt 0.561638 0.688583
vt 0.561638 0.688583
vt 0.561638 0.688583
vt 0.561638 0.688583
vt 0.935474 0.690300
vt 0.935474 0.690300
vt 0.935474 0.690300
vt 0.935474 0.690300
vt 0.935474 0.690300
vt 0.935474 0.690300
vt 0.935474 0.690300
vt 0.935474 0.690300
vt 0.561638 0.688583
vt 0.561638 0.688583
vt 0.561638 0.688583
vt 0.561638 0.688583
vt 0.561638 0.688583
vt 0.561638 0.688583
vn 0.0000 -1.0000 0.0000
vn -0.3826 0.0245 -0.9236
vn -0.9236 0.0245 0.3826
vn 0.3826 0.0245 0.9236
vn 0.9236 0.0245 -0.3826
vn -0.9236 0.0245 -0.3826
vn -0.3826 0.0245 0.9236
vn 0.9236 0.0245 0.3826
vn 0.3826 0.0245 -0.9236
vn 0.0000 1.0000 0.0000
usemtl Material.001
s off
f 11/1/1 12/2/1 5/3/1 6/4/1
f 1/5/1 8/6/1 7/7/1 6/8/1 5/9/1 4/10/1 3/11/1 2/12/1
f 9/13/2 16/14/2 24/15/2 17/16/2
f 14/17/1 15/18/1 2/19/1 3/20/1
f 10/21/1 11/1/1 6/4/1 7/22/1
f 13/23/1 14/17/1 3/20/1 4/24/1
f 16/14/1 9/13/1 8/25/1 1/26/1
f 9/13/1 10/21/1 7/22/1 8/25/1
f 12/2/1 13/23/1 4/24/1 5/3/1
f 15/18/1 16/14/1 1/26/1 2/19/1
f 15/18/3 14/17/3 22/27/3 23/28/3
f 13/23/4 12/2/4 20/29/4 21/30/4
f 11/1/5 10/21/5 18/31/5 19/32/5
f 16/14/6 15/18/6 23/28/6 24/15/6
f 14/17/7 13/23/7 21/30/7 22/27/7
f 12/2/8 11/1/8 19/32/8 20/29/8
f 10/21/9 9/13/9 17/16/9 18/31/9
f 24/15/10 23/28/10 31/33/10 32/34/10
f 25/35/10 26/36/10 32/37/10 31/38/10 30/39/10 29/40/10 28/41/10 27/42/10
f 22/27/10 21/30/10 29/43/10 30/44/10
f 20/29/10 19/32/10 27/45/10 28/46/10
f 18/31/10 17/16/10 26/47/10 25/48/10
f 17/16/10 24/15/10 32/34/10 26/47/10
f 23/28/10 22/27/10 30/44/10 31/33/10
f 21/30/10 20/29/10 28/46/10 29/43/10
f 19/32/10 18/31/10 25/48/10 27/45/10
