# Blender v2.83.5 OBJ File: 'cucumber02.blend'
# www.blender.org
mtllib cucumber02.mtl
o Cylinder
v -0.010321 0.024917 -0.035060
v -0.011471 0.028230 0.030775
v 0.010321 0.024917 -0.035060
v 0.011471 0.028230 0.030775
v 0.024917 0.010321 -0.035060
v 0.027694 0.009507 0.030775
v 0.024917 -0.010321 -0.035060
v 0.024917 -0.010321 0.032895
v 0.010321 -0.024917 -0.035060
v 0.010321 -0.024917 0.032895
v -0.010321 -0.024917 -0.035060
v -0.010321 -0.024917 0.032895
v -0.024917 -0.010321 -0.035060
v -0.024917 -0.010321 0.032895
v -0.024917 0.010321 -0.035060
v -0.027694 0.009507 0.030775
v 0.010483 0.025851 0.030867
v -0.010483 0.025851 0.030867
v 0.025307 0.008742 0.030867
v 0.022769 -0.009377 0.032803
v 0.009431 -0.022715 0.032803
v -0.009431 -0.022715 0.032803
v -0.022769 -0.009377 0.032803
v -0.025307 0.008742 0.030867
v -0.009345 0.022561 -0.035060
v 0.009345 0.022561 -0.035060
v 0.022561 0.009345 -0.035060
v 0.022561 -0.009345 -0.035060
v 0.009345 -0.022561 -0.035060
v -0.009345 -0.022561 -0.035060
v -0.022561 -0.009345 -0.035060
v -0.022561 0.009345 -0.035060
vt 0.308059 0.559137
vt 0.308059 0.559137
vt 0.308059 0.559137
vt 0.308059 0.559137
vt 0.308059 0.559137
vt 0.308059 0.559137
vt 0.308059 0.559137
vt 0.308059 0.559137
vt 0.308059 0.559137
vt 0.308059 0.559137
vt 0.308059 0.559137
vt 0.308059 0.559137
vt 0.308059 0.559137
vt 0.308059 0.559137
vt 0.308059 0.559137
vt 0.308059 0.559137
vt 0.308059 0.559137
vt 0.308059 0.559137
vt 0.308059 0.559137
vt 0.308059 0.559137
vt 0.933059 0.559137
vt 0.933059 0.559137
vt 0.933059 0.559137
vt 0.933059 0.559137
vt 0.933059 0.559137
vt 0.933059 0.559137
vt 0.933059 0.559137
vt 0.933059 0.559137
vt 0.308059 0.559137
vt 0.308059 0.559137
vt 0.308059 0.559137
vt 0.308059 0.559137
vt 0.308059 0.559137
vt 0.308059 0.559137
vt 0.933059 0.559137
vt 0.933059 0.559137
vt 0.933059 0.559137
vt 0.933059 0.559137
vt 0.933059 0.559137
vt 0.933059 0.559137
vt 0.933059 0.559137
vt 0.933059 0.559137
vt 0.308059 0.559137
vt 0.308059 0.559137
vt 0.308059 0.559137
vt 0.308059 0.559137
vt 0.308059 0.559137
vt 0.308059 0.559137
vn -0.0000 0.9987 -0.0503
vn 0.7337 0.6786 -0.0348
vn 0.9974 -0.0696 -0.0211
vn 0.7071 -0.7071 -0.0000
vn 0.0000 -1.0000 -0.0000
vn -0.7071 -0.7071 -0.0000
vn -0.9974 -0.0696 -0.0211
vn -0.7337 0.6786 -0.0348
vn -0.0299 0.0259 0.9992
vn 0.0000 0.0000 -1.0000
vn 0.0000 0.0486 0.9988
vn 0.0000 0.0384 0.9993
vn 0.0041 0.1057 0.9944
vn 0.0295 0.0295 0.9991
vn -0.0295 0.0295 0.9991
vn -0.0041 0.1057 0.9944
vn 0.0299 0.0259 0.9992
vn 0.0000 0.0414 0.9991
usemtl Material.001
s off
f 1/1/1 2/2/1 4/3/1 3/4/1
f 3/4/2 4/3/2 6/5/2 5/6/2
f 5/6/3 6/5/3 8/7/3 7/8/3
f 7/8/4 8/7/4 10/9/4 9/10/4
f 9/10/5 10/9/5 12/11/5 11/12/5
f 11/12/6 12/11/6 14/13/6 13/14/6
f 13/14/7 14/13/7 16/15/7 15/16/7
f 15/16/8 16/15/8 2/2/8 1/1/8
f 2/2/9 16/15/9 24/17/9 18/18/9
f 7/8/10 9/10/10 29/19/10 28/20/10
f 17/21/11 18/22/11 24/23/11 23/24/11 22/25/11 21/26/11 20/27/11 19/28/11
f 4/3/12 2/2/12 18/18/12 17/29/12
f 8/7/13 6/5/13 19/30/13 20/31/13
f 14/13/14 12/11/14 22/32/14 23/33/14
f 10/9/15 8/7/15 20/31/15 21/34/15
f 16/15/16 14/13/16 23/33/16 24/17/16
f 6/5/17 4/3/17 17/29/17 19/30/17
f 12/11/18 10/9/18 21/34/18 22/32/18
f 25/35/10 26/36/10 27/37/10 28/38/10 29/39/10 30/40/10 31/41/10 32/42/10
f 13/14/10 15/16/10 32/43/10 31/44/10
f 3/4/10 5/6/10 27/45/10 26/46/10
f 9/10/10 11/12/10 30/47/10 29/19/10
f 15/16/10 1/1/10 25/48/10 32/43/10
f 1/1/10 3/4/10 26/46/10 25/48/10
f 5/6/10 7/8/10 28/20/10 27/45/10
f 11/12/10 13/14/10 31/44/10 30/47/10
