# Blender v2.83.5 OBJ File: 'cucumber01.blend'
# www.blender.org
mtllib cucumber01.mtl
o Cylinder
v -0.010321 0.024917 -0.035060
v -0.011471 0.028230 0.030775
v 0.010321 0.024917 -0.035060
v 0.011471 0.028230 0.030775
v 0.024917 0.010321 -0.035060
v 0.027694 0.009507 0.030775
v 0.024917 -0.010321 -0.035060
v 0.024917 -0.010321 0.032895
v 0.010321 -0.024917 -0.035060
v 0.010321 -0.024917 0.032895
v -0.010321 -0.024917 -0.035060
v -0.010321 -0.024917 0.032895
v -0.024917 -0.010321 -0.035060
v -0.024917 -0.010321 0.032895
v -0.024917 0.010321 -0.035060
v -0.027694 0.009507 0.030775
v 0.014462 0.028230 0.072120
v -0.008423 0.028230 0.074173
v 0.030644 0.009507 0.070668
v 0.027754 -0.010321 0.068803
v 0.013195 -0.024917 0.070109
v -0.007395 -0.024917 0.071956
v -0.021954 -0.010321 0.073262
v -0.024604 0.009507 0.075625
v 0.016545 0.027098 0.108962
v -0.006340 0.027098 0.111016
v 0.032727 0.008375 0.107511
v 0.029837 -0.011453 0.105645
v 0.015278 -0.026049 0.106952
v -0.005312 -0.026049 0.108799
v -0.019871 -0.011453 0.110105
v -0.022522 0.008375 0.112468
v 0.014867 0.021367 0.121513
v -0.003267 0.021367 0.123140
v 0.027689 0.006531 0.120363
v 0.025399 -0.009181 0.118885
v 0.013863 -0.020747 0.119920
v -0.002452 -0.020747 0.121384
v -0.013989 -0.009181 0.122419
v -0.016089 0.006531 0.124290
v 0.010860 0.011000 0.127226
v 0.001342 0.011000 0.128080
v 0.017591 0.003212 0.126622
v 0.016389 -0.005035 0.125846
v 0.010333 -0.011107 0.126389
v 0.001769 -0.011107 0.127158
v -0.004287 -0.005035 0.127701
v -0.005389 0.003212 0.128684
v 0.007895 0.004109 0.125550
v 0.004089 0.004109 0.125892
v 0.010586 0.000995 0.125309
v 0.010106 -0.002303 0.124999
v 0.007684 -0.004731 0.125216
v 0.004260 -0.004731 0.125523
v 0.001838 -0.002303 0.125741
v 0.001397 0.000995 0.126133
v 0.008300 0.002165 0.143071
v 0.005659 0.002165 0.143308
v 0.010168 0.000004 0.142904
v 0.009834 -0.002285 0.142689
v 0.008154 -0.003970 0.142839
v 0.005777 -0.003970 0.143053
v 0.004097 -0.002285 0.143203
v 0.003791 0.000004 0.143476
v -0.006302 0.024917 -0.084148
v 0.014061 0.024917 -0.079890
v 0.028460 0.010321 -0.076879
v 0.028460 -0.010321 -0.076879
v 0.014061 -0.024917 -0.079890
v -0.006302 -0.024917 -0.084148
v -0.020701 -0.010321 -0.087160
v -0.020701 0.010321 -0.087160
v 0.002547 0.019558 -0.134234
v 0.018531 0.019558 -0.130891
v 0.029833 0.008101 -0.128528
v 0.029833 -0.008101 -0.128528
v 0.018531 -0.019558 -0.130891
v 0.002547 -0.019558 -0.134234
v -0.008755 -0.008101 -0.136598
v -0.008755 0.008101 -0.136598
v 0.007337 0.010914 -0.143040
v 0.016256 0.010914 -0.141175
v 0.022563 0.004521 -0.139856
v 0.022563 -0.004521 -0.139856
v 0.016256 -0.010914 -0.141175
v 0.007337 -0.010914 -0.143040
v 0.001030 -0.004521 -0.144359
v 0.001030 0.004521 -0.144359
vt 0.308059 0.559137
vt 0.308059 0.559137
vt 0.308059 0.559137
vt 0.308059 0.559137
vt 0.308059 0.559137
vt 0.308059 0.559137
vt 0.308059 0.559137
vt 0.308059 0.559137
vt 0.308059 0.559137
vt 0.308059 0.559137
vt 0.308059 0.559137
vt 0.308059 0.559137
vt 0.308059 0.559137
vt 0.308059 0.559137
vt 0.308059 0.559137
vt 0.308059 0.559137
vt 0.308059 0.559137
vt 0.308059 0.559137
vt 0.308059 0.559137
vt 0.308059 0.559137
vt 0.308059 0.559137
vt 0.308059 0.559137
vt 0.308059 0.559137
vt 0.308059 0.559137
vt 0.308059 0.559137
vt 0.308059 0.559137
vt 0.308059 0.559137
vt 0.308059 0.559137
vt 0.308059 0.559137
vt 0.308059 0.559137
vt 0.308059 0.559137
vt 0.308059 0.559137
vt 0.308059 0.559137
vt 0.308059 0.559137
vt 0.308059 0.559137
vt 0.308059 0.559137
vt 0.308059 0.559137
vt 0.308059 0.559137
vt 0.308059 0.559137
vt 0.308059 0.559137
vt 0.308059 0.559137
vt 0.308059 0.559137
vt 0.308059 0.559137
vt 0.308059 0.559137
vt 0.308059 0.559137
vt 0.308059 0.559137
vt 0.308059 0.559137
vt 0.308059 0.559137
vt 0.308059 0.559137
vt 0.308059 0.559137
vt 0.308059 0.559137
vt 0.308059 0.559137
vt 0.183059 0.559137
vt 0.183059 0.559137
vt 0.183059 0.559137
vt 0.183059 0.559137
vt 0.308059 0.559137
vt 0.308059 0.559137
vt 0.308059 0.559137
vt 0.308059 0.559137
vt 0.308059 0.559137
vt 0.308059 0.559137
vt 0.183059 0.559137
vt 0.183059 0.559137
vt 0.183059 0.559137
vt 0.183059 0.559137
vt 0.183059 0.559137
vt 0.183059 0.559137
vt 0.183059 0.559137
vt 0.183059 0.559137
vt 0.183059 0.559137
vt 0.183059 0.559137
vt 0.183059 0.559137
vt 0.183059 0.559137
vt 0.308059 0.559137
vt 0.308059 0.559137
vt 0.308059 0.559137
vt 0.308059 0.559137
vt 0.308059 0.559137
vt 0.308059 0.559137
vt 0.308059 0.559137
vt 0.308059 0.559137
vt 0.308059 0.559137
vt 0.308059 0.559137
vt 0.308059 0.559137
vt 0.308059 0.559137
vt 0.308059 0.559137
vt 0.308059 0.559137
vt 0.308059 0.559137
vt 0.308059 0.559137
vt 0.308059 0.559137
vt 0.308059 0.559137
vt 0.308059 0.559137
vt 0.308059 0.559137
vt 0.308059 0.559137
vt 0.308059 0.559137
vn -0.0000 0.9987 -0.0503
vn 0.7337 0.6786 -0.0348
vn 0.9974 -0.0696 -0.0211
vn 0.7071 -0.7071 -0.0000
vn 0.0000 -1.0000 -0.0000
vn -0.7071 -0.7071 -0.0000
vn 0.7052 -0.7068 -0.0551
vn -0.9974 -0.0696 -0.0211
vn -0.7337 0.6786 -0.0348
vn 0.7052 0.7065 0.0593
vn 0.9885 -0.1384 -0.0601
vn -0.9883 -0.1357 0.0702
vn 0.7540 0.6546 -0.0551
vn -0.7541 0.6546 0.0525
vn -0.0000 1.0000 0.0000
vn 0.9871 -0.1415 -0.0754
vn -0.7054 -0.7069 0.0523
vn -0.8764 -0.1708 0.4502
vn 0.0027 0.9995 0.0306
vn -0.7527 0.6554 0.0627
vn -0.7071 -0.7069 0.0182
vn 0.7039 -0.7076 -0.0615
vn 0.7555 0.6547 -0.0226
vn -0.9890 -0.1384 0.0517
vn -0.0027 -0.9995 -0.0306
vn 0.4511 -0.3776 0.8087
vn 0.0342 -0.9238 0.3815
vn 0.9259 -0.1668 0.3390
vn 0.0376 0.9071 0.4192
vn -0.6574 0.6032 0.4517
vn -0.6236 -0.6596 0.4196
vn 0.6809 -0.6488 0.3396
vn 0.7179 0.5920 0.3663
vn 0.2936 -0.1810 0.9386
vn 0.4278 0.3038 0.8513
vn -0.4174 -0.1623 0.8941
vn 0.0754 -0.5365 0.8405
vn 0.5572 -0.1579 0.8152
vn 0.0795 0.4574 0.8857
vn -0.2772 0.3101 0.9094
vn -0.3086 -0.3857 0.8695
vn 0.0039 -0.9991 0.0430
vn 0.2389 0.1525 0.9590
vn -0.0660 0.1540 0.9859
vn -0.1247 -0.1834 0.9751
vn 0.3315 -0.0678 0.9410
vn 0.0873 0.2152 0.9727
vn -0.1627 -0.0689 0.9843
vn 0.0860 -0.2702 0.9590
vn 0.0893 -0.0485 0.9948
vn 0.9892 -0.1456 0.0153
vn 0.0099 0.9939 0.1100
vn -0.7437 0.6537 0.1400
vn -0.7009 -0.7073 0.0914
vn 0.7085 -0.7056 0.0116
vn 0.7575 0.6505 0.0546
vn -0.9811 -0.1463 0.1270
vn -0.6777 0.7089 -0.1956
vn -0.7054 0.7065 -0.0574
vn 0.9964 0.0000 0.0844
vn -0.7054 -0.7065 -0.0574
vn 0.7052 -0.7065 0.0593
vn -0.9967 -0.0000 -0.0807
vn 0.8416 -0.0000 -0.5401
vn -0.6777 -0.7089 -0.1956
vn 0.7130 -0.7011 -0.0112
vn 0.7130 0.7011 -0.0112
vn -0.9720 -0.0000 -0.2349
vn 0.0215 -0.9945 -0.1026
vn 0.9996 -0.0000 0.0266
vn 0.0215 0.9945 -0.1026
vn 0.2047 -0.0000 -0.9788
vn 0.1370 0.7431 -0.6550
vn -0.3924 0.5406 -0.7442
vn -0.3924 -0.5406 -0.7442
vn 0.6396 -0.5128 -0.5726
vn 0.6396 0.5128 -0.5726
vn -0.6214 -0.0000 -0.7835
vn 0.1370 -0.7431 -0.6550
usemtl Material.001
s off
f 1/1/1 2/2/1 4/3/1 3/4/1
f 3/4/2 4/3/2 6/5/2 5/6/2
f 5/6/3 6/5/3 8/7/3 7/8/3
f 7/8/4 8/7/4 10/9/4 9/10/4
f 9/10/5 10/9/5 12/11/5 11/12/5
f 11/12/6 12/11/6 14/13/6 13/14/6
f 10/9/7 8/7/7 20/15/7 21/16/7
f 13/14/8 14/13/8 16/17/8 15/18/8
f 15/18/9 16/17/9 2/2/9 1/1/9
f 3/4/10 5/6/10 67/19/10 66/20/10
f 20/15/11 19/21/11 27/22/11 28/23/11
f 16/17/12 14/13/12 23/24/12 24/25/12
f 6/5/13 4/3/13 17/26/13 19/21/13
f 12/11/5 10/9/5 21/16/5 22/27/5
f 2/2/14 16/17/14 24/25/14 18/28/14
f 4/3/15 2/2/15 18/28/15 17/26/15
f 8/7/16 6/5/16 19/21/16 20/15/16
f 14/13/17 12/11/17 22/27/17 23/24/17
f 32/29/18 31/30/18 39/31/18 40/32/18
f 17/26/19 18/28/19 26/33/19 25/34/19
f 18/28/20 24/25/20 32/29/20 26/33/20
f 23/24/21 22/27/21 30/35/21 31/30/21
f 21/16/22 20/15/22 28/23/22 29/36/22
f 19/21/23 17/26/23 25/34/23 27/22/23
f 24/25/24 23/24/24 31/30/24 32/29/24
f 22/27/25 21/16/25 29/36/25 30/35/25
f 37/37/26 36/38/26 44/39/26 45/40/26
f 30/35/27 29/36/27 37/37/27 38/41/27
f 28/23/28 27/22/28 35/42/28 36/38/28
f 25/34/29 26/33/29 34/43/29 33/44/29
f 26/33/30 32/29/30 40/32/30 34/43/30
f 31/30/31 30/35/31 38/41/31 39/31/31
f 29/36/32 28/23/32 36/38/32 37/37/32
f 27/22/33 25/34/33 33/44/33 35/42/33
f 42/45/34 48/46/34 56/47/34 50/48/34
f 35/42/35 33/44/35 41/49/35 43/50/35
f 40/32/36 39/31/36 47/51/36 48/46/36
f 38/41/37 37/37/37 45/40/37 46/52/37
f 36/38/38 35/42/38 43/50/38 44/39/38
f 33/44/39 34/43/39 42/45/39 41/49/39
f 34/43/40 40/32/40 48/46/40 42/45/40
f 39/31/41 38/41/41 46/52/41 47/51/41
f 54/53/42 53/54/42 61/55/42 62/56/42
f 47/51/43 46/52/43 54/57/43 55/58/43
f 45/40/44 44/39/44 52/59/44 53/60/44
f 43/50/45 41/49/45 49/61/45 51/62/45
f 48/46/46 47/51/46 55/58/46 56/47/46
f 46/52/47 45/40/47 53/60/47 54/57/47
f 44/39/48 43/50/48 51/62/48 52/59/48
f 41/49/49 42/45/49 50/48/49 49/61/49
f 57/63/50 58/64/50 64/65/50 63/66/50 62/56/50 61/55/50 60/67/50 59/68/50
f 52/69/51 51/70/51 59/68/51 60/67/51
f 49/71/52 50/72/52 58/64/52 57/63/52
f 50/72/53 56/73/53 64/65/53 58/64/53
f 55/74/54 54/53/54 62/56/54 63/66/54
f 53/54/55 52/69/55 60/67/55 61/55/55
f 51/70/56 49/71/56 57/63/56 59/68/56
f 56/73/57 55/74/57 63/66/57 64/65/57
f 72/75/58 65/76/58 73/77/58 80/78/58
f 9/10/5 11/12/5 70/79/5 69/80/5
f 15/18/59 1/1/59 65/76/59 72/75/59
f 1/1/15 3/4/15 66/20/15 65/76/15
f 5/6/60 7/8/60 68/81/60 67/19/60
f 11/12/61 13/14/61 71/82/61 70/79/61
f 7/8/62 9/10/62 69/80/62 68/81/62
f 13/14/63 15/18/63 72/75/63 71/82/63
f 75/83/64 76/84/64 84/85/64 83/86/64
f 70/79/65 71/82/65 79/87/65 78/88/65
f 68/81/66 69/80/66 77/89/66 76/84/66
f 66/20/67 67/19/67 75/83/67 74/90/67
f 71/82/68 72/75/68 80/78/68 79/87/68
f 69/80/69 70/79/69 78/88/69 77/89/69
f 67/19/70 68/81/70 76/84/70 75/83/70
f 65/76/71 66/20/71 74/90/71 73/77/71
f 81/91/72 82/92/72 83/86/72 84/85/72 85/93/72 86/94/72 87/95/72 88/96/72
f 73/77/73 74/90/73 82/92/73 81/91/73
f 80/78/74 73/77/74 81/91/74 88/96/74
f 78/88/75 79/87/75 87/95/75 86/94/75
f 76/84/76 77/89/76 85/93/76 84/85/76
f 74/90/77 75/83/77 83/86/77 82/92/77
f 79/87/78 80/78/78 88/96/78 87/95/78
f 77/89/79 78/88/79 86/94/79 85/93/79
