# Blender v2.83.5 OBJ File: 'garlic01.blend'
# www.blender.org
mtllib garlic01.mtl
o Cylinder.001_Cylinder.002
v 0.000000 -0.012559 -0.006605
v 0.000000 -0.010335 -0.009495
v 0.003882 -0.012559 -0.005343
v 0.005581 -0.010335 -0.007681
v 0.006281 -0.012559 -0.002041
v 0.009030 -0.010335 -0.002934
v 0.006281 -0.012559 0.002041
v 0.009030 -0.010335 0.002934
v 0.003882 -0.012559 0.005343
v 0.005581 -0.010335 0.007681
v -0.000000 -0.012559 0.006605
v -0.000000 -0.010335 0.009495
v -0.003882 -0.012559 0.005343
v -0.005581 -0.010335 0.007681
v -0.006281 -0.012559 0.002041
v -0.009030 -0.010335 0.002934
v -0.006281 -0.012559 -0.002041
v -0.009030 -0.010335 -0.002934
v -0.003882 -0.012559 -0.005343
v -0.005581 -0.010335 -0.007681
v 0.000000 -0.003868 -0.013422
v 0.009934 -0.005389 -0.013672
v 0.012765 -0.003868 -0.004148
v 0.016073 -0.005389 0.005222
v 0.007889 -0.003868 0.010858
v -0.000000 -0.005389 0.016900
v -0.007889 -0.003868 0.010858
v -0.016073 -0.005389 0.005222
v -0.012765 -0.003868 -0.004148
v -0.009934 -0.005389 -0.013672
v 0.000000 0.002235 -0.012781
v 0.009460 0.002296 -0.013020
v 0.012156 0.002235 -0.003950
v 0.015306 0.002296 0.004973
v 0.007513 0.002235 0.010340
v -0.000000 0.002296 0.016094
v -0.007513 0.002235 0.010340
v -0.015306 0.002296 0.004973
v -0.012156 0.002235 -0.003950
v -0.009460 0.002296 -0.013020
v 0.000000 0.007637 -0.008680
v 0.007228 0.006494 -0.009948
v 0.008255 0.007637 -0.002682
v 0.011695 0.006494 0.003800
v 0.005102 0.007637 0.007022
v -0.000000 0.006494 0.012297
v -0.005102 0.007637 0.007022
v -0.011695 0.006494 0.003800
v -0.008255 0.007637 -0.002682
v -0.007228 0.006494 -0.009948
v 0.000000 0.011921 -0.004091
v 0.002405 0.011921 -0.003310
v 0.003891 0.011921 -0.001264
v 0.003891 0.011921 0.001264
v 0.002405 0.011921 0.003310
v -0.000000 0.011921 0.004091
v -0.002405 0.011921 0.003310
v -0.003891 0.011921 0.001264
v -0.003891 0.011921 -0.001264
v -0.002405 0.011921 -0.003310
v -0.000000 0.018608 -0.001730
v 0.001017 0.018608 -0.001399
v 0.001645 0.018608 -0.000535
v 0.001645 0.018608 0.000535
v 0.001017 0.018608 0.001399
v -0.000000 0.018608 0.001730
v -0.001017 0.018608 0.001399
v -0.001645 0.018608 0.000535
v -0.001645 0.018608 -0.000535
v -0.001017 0.018608 -0.001399
vt 0.809166 0.191937
vt 0.809166 0.191937
vt 0.809166 0.191937
vt 0.809166 0.191937
vt 0.809166 0.191937
vt 0.809166 0.191937
vt 0.809166 0.191937
vt 0.809166 0.191937
vt 0.809166 0.191937
vt 0.809166 0.191937
vt 0.809166 0.191937
vt 0.809166 0.191937
vt 0.809166 0.191937
vt 0.809166 0.191937
vt 0.809166 0.191937
vt 0.809166 0.191937
vt 0.809166 0.191937
vt 0.809166 0.191937
vt 0.809166 0.191937
vt 0.809166 0.191937
vt 0.809166 0.191937
vt 0.809166 0.191937
vt 0.684166 0.191937
vt 0.684166 0.191937
vt 0.684166 0.191937
vt 0.684166 0.191937
vt 0.684166 0.191937
vt 0.684166 0.191937
vt 0.684166 0.191937
vt 0.684166 0.191937
vt 0.684166 0.191937
vt 0.684166 0.191937
vt 0.809166 0.191937
vt 0.809166 0.191937
vt 0.809166 0.191937
vt 0.809166 0.191937
vt 0.809166 0.191937
vt 0.809166 0.191937
vt 0.809166 0.191937
vt 0.809166 0.191937
vt 0.809166 0.191937
vt 0.809166 0.191937
vt 0.809166 0.191937
vt 0.809166 0.191937
vt 0.809166 0.191937
vt 0.809166 0.191937
vt 0.809166 0.191937
vt 0.809166 0.191937
vt 0.809166 0.191937
vt 0.809166 0.191937
vt 0.809166 0.191937
vt 0.809166 0.191937
vt 0.809166 0.191937
vt 0.809166 0.191937
vt 0.809166 0.191937
vt 0.809166 0.191937
vt 0.809166 0.191937
vt 0.809166 0.191937
vt 0.809166 0.191937
vt 0.809166 0.191937
vt 0.809166 0.191937
vt 0.809166 0.191937
vt 0.809166 0.191937
vt 0.809166 0.191937
vt 0.809166 0.191937
vt 0.809166 0.191937
vt 0.809166 0.191937
vt 0.809166 0.191937
vt 0.809166 0.191937
vt 0.809166 0.191937
vt 0.809166 0.191937
vt 0.809166 0.191937
vt 0.809166 0.191937
vt 0.809166 0.191937
vt 0.809166 0.191937
vt 0.809166 0.191937
vt 0.809166 0.191937
vt 0.809166 0.191937
vt 0.809166 0.191937
vt 0.809166 0.191937
vn 0.1944 -0.7774 -0.5982
vn 0.5089 -0.7774 -0.3697
vn 0.6290 -0.7774 0.0000
vn 0.5089 -0.7774 0.3697
vn 0.1944 -0.7774 0.5982
vn -0.1944 -0.7774 0.5982
vn -0.5089 -0.7774 0.3697
vn -0.6290 -0.7774 0.0000
vn 0.4333 -0.6583 0.6155
vn -0.5089 -0.7774 -0.3697
vn -0.1944 -0.7774 -0.5982
vn 0.0000 -1.0000 0.0000
vn 0.9524 0.0927 -0.2904
vn 0.4515 -0.6583 0.6023
vn 0.0113 -0.6583 -0.7527
vn 0.7193 -0.6583 -0.2219
vn 0.7123 -0.6583 -0.2433
vn -0.0113 -0.6583 -0.7527
vn -0.7123 -0.6583 -0.2433
vn -0.7193 -0.6583 -0.2219
vn -0.4515 -0.6583 0.6023
vn -0.4333 -0.6583 0.6155
vn -0.5005 0.5931 0.6307
vn -0.9524 0.0927 -0.2904
vn -0.5998 0.0927 0.7947
vn 0.9412 0.0927 -0.3249
vn 0.0181 0.0927 -0.9955
vn -0.5705 0.0927 0.8161
vn 0.5705 0.0927 0.8161
vn -0.0181 0.0927 -0.9955
vn -0.9412 0.0927 -0.3249
vn 0.5998 0.0927 0.7947
vn 0.6254 0.7674 -0.1414
vn 0.7545 0.5931 -0.2811
vn 0.0342 0.5931 -0.8044
vn -0.4452 0.5931 0.6709
vn 0.4452 0.5931 0.6709
vn -0.0342 0.5931 -0.8044
vn -0.7545 0.5931 -0.2811
vn 0.5005 0.5931 0.6307
vn 0.7756 0.5931 -0.2161
vn -0.7756 0.5931 -0.2161
vn -0.2929 0.3184 -0.9016
vn -0.0588 0.7674 -0.6385
vn -0.4228 0.7674 0.4820
vn 0.4228 0.7674 0.4820
vn 0.0588 0.7674 -0.6385
vn -0.6254 0.7674 -0.1414
vn 0.3277 0.7674 0.5511
vn 0.5891 0.7674 -0.2532
vn -0.5891 0.7674 -0.2532
vn -0.3277 0.7674 0.5511
vn 0.0000 1.0000 -0.0000
vn -0.7669 0.3184 0.5572
vn 0.7669 0.3184 0.5572
vn 0.2929 0.3184 -0.9016
vn -0.9480 0.3184 0.0000
vn 0.2929 0.3184 0.9016
vn 0.7669 0.3184 -0.5572
vn -0.7669 0.3184 -0.5572
vn -0.2929 0.3184 0.9016
vn 0.9480 0.3184 0.0000
usemtl Material.001
s off
f 1/1/1 2/2/1 4/3/1 3/4/1
f 3/4/2 4/3/2 6/5/2 5/6/2
f 5/6/3 6/5/3 8/7/3 7/8/3
f 7/8/4 8/7/4 10/9/4 9/10/4
f 9/10/5 10/9/5 12/11/5 11/12/5
f 11/12/6 12/11/6 14/13/6 13/14/6
f 13/14/7 14/13/7 16/15/7 15/16/7
f 15/16/8 16/15/8 18/17/8 17/18/8
f 12/11/9 10/9/9 25/19/9 26/20/9
f 17/18/10 18/17/10 20/21/10 19/22/10
f 19/22/11 20/21/11 2/2/11 1/1/11
f 1/23/12 3/24/12 5/25/12 7/26/12 9/27/12 11/28/12 13/29/12 15/30/12 17/31/12 19/32/12
f 23/33/13 22/34/13 32/35/13 33/36/13
f 10/9/14 8/7/14 24/37/14 25/19/14
f 4/3/15 2/2/15 21/38/15 22/34/15
f 8/7/16 6/5/16 23/33/16 24/37/16
f 6/5/17 4/3/17 22/34/17 23/33/17
f 2/2/18 20/21/18 30/39/18 21/38/18
f 20/21/19 18/17/19 29/40/19 30/39/19
f 18/17/20 16/15/20 28/41/20 29/40/20
f 16/15/21 14/13/21 27/42/21 28/41/21
f 14/13/22 12/11/22 26/20/22 27/42/22
f 37/43/23 36/44/23 46/45/23 47/46/23
f 30/39/24 29/40/24 39/47/24 40/48/24
f 27/42/25 26/20/25 36/44/25 37/43/25
f 24/37/26 23/33/26 33/36/26 34/49/26
f 21/38/27 30/39/27 40/48/27 31/50/27
f 28/41/28 27/42/28 37/43/28 38/51/28
f 25/19/29 24/37/29 34/49/29 35/52/29
f 22/34/30 21/38/30 31/50/30 32/35/30
f 29/40/31 28/41/31 38/51/31 39/47/31
f 26/20/32 25/19/32 35/52/32 36/44/32
f 44/53/33 43/54/33 53/55/33 54/56/33
f 34/49/34 33/36/34 43/54/34 44/53/34
f 31/50/35 40/48/35 50/57/35 41/58/35
f 38/51/36 37/43/36 47/46/36 48/59/36
f 35/52/37 34/49/37 44/53/37 45/60/37
f 32/35/38 31/50/38 41/58/38 42/61/38
f 39/47/39 38/51/39 48/59/39 49/62/39
f 36/44/40 35/52/40 45/60/40 46/45/40
f 33/36/41 32/35/41 42/61/41 43/54/41
f 40/48/42 39/47/42 49/62/42 50/57/42
f 51/63/43 60/64/43 70/65/43 61/66/43
f 41/58/44 50/57/44 60/64/44 51/63/44
f 48/59/45 47/46/45 57/67/45 58/68/45
f 45/60/46 44/53/46 54/56/46 55/69/46
f 42/61/47 41/58/47 51/63/47 52/70/47
f 49/62/48 48/59/48 58/68/48 59/71/48
f 46/45/49 45/60/49 55/69/49 56/72/49
f 43/54/50 42/61/50 52/70/50 53/55/50
f 50/57/51 49/62/51 59/71/51 60/64/51
f 47/46/52 46/45/52 56/72/52 57/67/52
f 62/73/53 61/66/53 70/65/53 69/74/53 68/75/53 67/76/53 66/77/53 65/78/53 64/79/53 63/80/53
f 58/68/54 57/67/54 67/76/54 68/75/54
f 55/69/55 54/56/55 64/79/55 65/78/55
f 52/70/56 51/63/56 61/66/56 62/73/56
f 59/71/57 58/68/57 68/75/57 69/74/57
f 56/72/58 55/69/58 65/78/58 66/77/58
f 53/55/59 52/70/59 62/73/59 63/80/59
f 60/64/60 59/71/60 69/74/60 70/65/60
f 57/67/61 56/72/61 66/77/61 67/76/61
f 54/56/62 53/55/62 63/80/62 64/79/62
