# Blender v2.83.5 OBJ File: 'ginger01.blend'
# www.blender.org
mtllib ginger01.mtl
o Cylinder
v -0.043124 0.004627 -0.008729
v -0.013155 0.007096 -0.013683
v -0.043124 -0.006302 -0.005177
v -0.013155 -0.009658 -0.008240
v -0.043124 -0.006302 0.006314
v -0.013155 -0.009658 0.009376
v -0.043124 0.004627 0.009865
v -0.013155 0.007096 0.014820
v -0.043124 0.011382 0.000568
v -0.013155 0.017450 0.000568
v -0.013155 -0.009658 0.000568
v -0.001113 0.004337 -0.013252
v -0.001113 -0.004433 -0.010402
v -0.001113 0.009758 -0.005791
v -0.001113 -0.004433 -0.005791
v 0.001413 -0.005913 0.008337
v 0.001413 0.005119 0.011922
v 0.001413 0.011937 0.002537
v 0.001413 -0.005913 0.002537
v 0.012238 -0.006914 0.008991
v 0.012238 0.006363 0.010957
v 0.012238 0.011244 0.001298
v 0.012238 -0.006209 0.001298
v -0.022701 0.005861 -0.011206
v -0.022701 -0.007980 -0.006709
v -0.008897 0.003234 -0.016229
v -0.013425 -0.010789 -0.013208
v -0.016255 0.003205 -0.022796
v -0.019996 -0.010636 -0.020301
v -0.005834 0.003499 -0.018705
v -0.006994 -0.010524 -0.019188
v -0.007456 0.003471 -0.028434
v -0.007673 -0.010371 -0.028833
v 0.008211 0.008306 -0.016331
v 0.006153 -0.010774 -0.017187
v 0.005333 0.008256 -0.033597
v 0.004948 -0.010503 -0.034305
v 0.024190 0.009490 -0.016812
v 0.021816 -0.010123 -0.017800
v 0.020871 0.009433 -0.036726
v 0.020426 -0.009810 -0.037542
v 0.030500 0.008436 -0.019885
v 0.028641 -0.006918 -0.020658
v 0.027901 0.008391 -0.035474
v 0.027553 -0.006673 -0.036113
v -0.005871 0.006107 0.013371
v -0.005871 -0.007786 0.008857
v -0.012094 -0.009195 0.016223
v -0.012094 0.004871 0.017713
v -0.004810 0.003882 0.016421
v -0.004810 -0.008980 0.015704
v -0.005417 -0.005797 0.026176
v -0.004242 0.005455 0.026375
v -0.002723 0.004664 0.018151
v -0.003289 -0.005624 0.018054
v 0.002930 -0.008110 0.029002
v 0.005096 0.009600 0.029370
v 0.005016 0.008142 0.018463
v 0.003973 -0.007792 0.018285
v 0.011154 -0.009046 0.031832
v 0.014315 0.013773 0.032369
v 0.014199 0.011647 0.016452
v 0.012677 -0.008583 0.016193
v 0.018835 -0.005556 0.029317
v 0.020876 0.009174 0.029664
v 0.020800 0.007801 0.019390
v 0.019818 -0.005257 0.019223
v 0.015329 -0.003487 0.007560
v 0.015329 0.004127 0.008687
v 0.015329 0.006927 0.003148
v 0.015329 -0.003082 0.003148
vt 0.687768 0.810677
vt 0.687768 0.810677
vt 0.687768 0.810677
vt 0.687768 0.810677
vt 0.687768 0.810677
vt 0.687768 0.810677
vt 0.687768 0.810677
vt 0.687768 0.810677
vt 0.687768 0.810677
vt 0.687768 0.810677
vt 0.687768 0.810677
vt 0.687768 0.810677
vt 0.687768 0.810677
vt 0.687768 0.810677
vt 0.687768 0.810677
vt 0.687768 0.810677
vt 0.687768 0.810677
vt 0.687768 0.810677
vt 0.687768 0.810677
vt 0.683736 0.681549
vt 0.683736 0.681549
vt 0.683736 0.681549
vt 0.683736 0.681549
vt 0.683736 0.681549
vt 0.687768 0.810677
vt 0.687768 0.810677
vt 0.687768 0.810677
vt 0.687768 0.810677
vt 0.687768 0.810677
vt 0.687768 0.810677
vt 0.687768 0.810677
vt 0.687768 0.810677
vt 0.687768 0.810677
vt 0.687768 0.810677
vt 0.687768 0.810677
vt 0.687768 0.810677
vt 0.687768 0.810677
vt 0.687768 0.810677
vt 0.687768 0.810677
vt 0.687768 0.810677
vt 0.687768 0.810677
vt 0.687768 0.810677
vt 0.687768 0.810677
vt 0.687768 0.810677
vt 0.687768 0.810677
vt 0.687768 0.810677
vt 0.687768 0.810677
vt 0.687768 0.810677
vt 0.687768 0.810677
vt 0.687768 0.810677
vt 0.687768 0.810677
vt 0.687768 0.810677
vt 0.683736 0.681549
vt 0.683736 0.681549
vt 0.683736 0.681549
vt 0.683736 0.681549
vt 0.687768 0.810677
vt 0.687768 0.810677
vt 0.687768 0.810677
vt 0.687768 0.810677
vt 0.687768 0.810677
vt 0.687768 0.810677
vt 0.687768 0.810677
vt 0.687768 0.810677
vt 0.687768 0.810677
vt 0.687768 0.810677
vt 0.687768 0.810677
vt 0.687768 0.810677
vt 0.687768 0.810677
vt 0.687768 0.810677
vt 0.687768 0.810677
vt 0.687768 0.810677
vt 0.687768 0.810677
vt 0.687768 0.810677
vt 0.687768 0.810677
vt 0.687768 0.810677
vt 0.683736 0.681549
vt 0.683736 0.681549
vt 0.683736 0.681549
vt 0.683736 0.681549
vt 0.687768 0.810677
vt 0.687768 0.810677
vt 0.683736 0.681549
vt 0.683736 0.681549
vt 0.683736 0.681549
vt 0.683736 0.681549
vt 0.687768 0.810677
vt 0.687768 0.810677
vn -0.9365 0.0386 -0.3485
vn -0.1134 -0.9933 -0.0212
vn -0.1306 -0.3064 0.9429
vn 0.1457 -0.3057 0.9409
vn -0.1617 0.7984 0.5801
vn -0.1641 0.7796 -0.6043
vn -1.0000 0.0000 0.0000
vn 0.3980 -0.9174 -0.0000
vn 1.0000 0.0000 0.0000
vn 0.4670 0.0000 0.8843
vn 0.2021 0.7923 -0.5757
vn -0.0367 -0.3088 -0.9504
vn -0.1137 -0.0000 -0.9935
vn 0.2490 -0.9685 -0.0000
vn 0.2211 0.7890 0.5732
vn 0.1339 -0.0000 -0.9910
vn 0.6988 0.6385 0.3227
vn 0.0316 0.8516 0.5232
vn -0.0611 -0.9968 -0.0521
vn 0.0165 -0.2225 0.9748
vn -0.0962 -0.3076 -0.9466
vn -0.0342 0.9993 0.0154
vn 0.0286 0.9158 -0.4006
vn -0.1707 -0.9696 0.1754
vn 0.8831 -0.0009 0.4692
vn -0.0168 -0.9998 -0.0147
vn 0.0106 -0.9997 -0.0229
vn 0.6657 -0.0678 0.7431
vn -0.5573 0.0168 -0.8301
vn -0.2033 0.0437 -0.9781
vn -0.1547 -0.0249 0.9876
vn -0.3918 0.0384 -0.9192
vn -0.3313 0.9421 0.0525
vn 0.4098 -0.9112 -0.0433
vn -0.0736 0.9972 0.0094
vn 0.0408 -0.9990 -0.0187
vn 0.0375 -0.0518 0.9980
vn 0.9908 -0.0664 -0.1181
vn 0.4228 -0.0965 0.9011
vn 0.1805 0.0375 -0.9829
vn 0.1514 0.9881 -0.0281
vn -0.9778 -0.0460 0.2045
vn 0.3063 -0.9057 0.2931
vn 0.2118 0.8171 0.5361
vn 0.1363 -0.9879 -0.0738
vn 0.9797 0.0384 -0.1966
vn 0.0355 0.0082 -0.9993
vn -0.7878 -0.0045 0.6159
vn 0.7464 0.0051 -0.6654
vn 0.0291 0.9871 -0.1576
vn -0.0997 -0.9942 -0.0392
vn -0.3817 0.9142 -0.1361
vn -0.2627 -0.9624 -0.0693
vn -0.3143 0.0177 0.9492
vn 0.3385 -0.0690 0.9384
vn -0.3203 0.0210 0.9471
vn -0.2275 0.0279 -0.9734
vn -0.3768 0.9185 -0.1200
vn 0.9928 -0.1089 0.0500
vn 0.3976 -0.0182 -0.9174
vn 0.5379 0.8351 -0.1155
vn 0.4173 -0.9087 0.0137
vn 0.7280 -0.6827 -0.0626
vn 0.5272 -0.1244 0.8406
vn 0.5136 -0.0000 -0.8580
usemtl Material.001
s off
f 25/1/1 24/2/1 28/3/1 29/4/1
f 3/5/2 25/1/2 4/6/2 11/7/2 6/8/2 5/9/2
f 5/9/3 6/8/3 8/10/3 7/11/3
f 46/12/4 47/13/4 16/14/4 17/15/4
f 7/11/5 8/10/5 10/16/5 9/17/5
f 9/17/6 10/16/6 2/18/6 24/2/6 1/19/6
f 1/20/7 3/21/7 5/22/7 7/23/7 9/24/7
f 11/7/8 4/6/8 13/25/8 15/26/8
f 13/25/9 12/27/9 14/28/9 15/26/9
f 10/16/10 11/7/10 15/26/10 14/28/10
f 2/18/11 10/16/11 14/28/11 12/27/11
f 4/6/12 2/18/12 12/27/12 13/25/12
f 19/29/13 18/30/13 22/31/13 23/32/13
f 6/8/14 11/7/14 19/29/14 16/14/14 47/13/14
f 10/16/15 8/10/15 46/12/15 17/15/15 18/30/15
f 11/7/16 10/16/16 18/30/16 19/29/16
f 22/31/17 21/33/17 69/34/17 70/35/17
f 18/30/18 17/15/18 21/33/18 22/31/18
f 16/14/19 19/29/19 23/32/19 20/36/19
f 17/15/20 16/14/20 20/36/20 21/33/20
f 1/19/21 24/2/21 25/1/21 3/5/21
f 28/3/22 26/37/22 30/38/22 32/39/22
f 24/2/23 2/18/23 26/37/23 28/3/23
f 4/6/24 25/1/24 29/4/24 27/40/24
f 2/18/25 4/6/25 27/40/25 26/37/25
f 31/41/26 33/42/26 37/43/26 35/44/26
f 27/40/27 29/4/27 33/42/27 31/41/27
f 26/37/28 27/40/28 31/41/28 30/38/28
f 29/4/29 28/3/29 32/39/29 33/42/29
f 37/43/30 36/45/30 40/46/30 41/47/30
f 30/38/31 31/41/31 35/44/31 34/48/31
f 33/42/32 32/39/32 36/45/32 37/43/32
f 32/39/33 30/38/33 34/48/33 36/45/33
f 39/49/34 41/47/34 45/50/34 43/51/34
f 36/45/35 34/48/35 38/52/35 40/46/35
f 35/44/36 37/43/36 41/47/36 39/49/36
f 34/48/37 35/44/37 39/49/37 38/52/37
f 44/53/38 42/54/38 43/55/38 45/56/38
f 38/52/39 39/49/39 43/51/39 42/57/39
f 41/47/40 40/46/40 44/58/40 45/50/40
f 40/46/41 38/52/41 42/57/41 44/58/41
f 8/10/42 6/8/42 48/59/42 49/60/42
f 48/59/43 51/61/43 55/62/43 52/63/43
f 46/12/44 8/10/44 49/60/44 50/64/44
f 6/8/45 47/13/45 51/61/45 48/59/45
f 47/13/46 46/12/46 50/64/46 51/61/46
f 55/62/47 54/65/47 58/66/47 59/67/47
f 49/60/48 48/59/48 52/63/48 53/68/48
f 51/61/49 50/64/49 54/65/49 55/62/49
f 50/64/50 49/60/50 53/68/50 54/65/50
f 56/69/51 59/67/51 63/70/51 60/71/51
f 54/65/52 53/68/52 57/72/52 58/66/52
f 52/63/53 55/62/53 59/67/53 56/69/53
f 53/68/54 52/63/54 56/69/54 57/72/54
f 61/73/55 60/71/55 64/74/55 65/75/55
f 57/72/56 56/69/56 60/71/56 61/73/56
f 59/67/57 58/66/57 62/76/57 63/70/57
f 58/66/58 57/72/58 61/73/58 62/76/58
f 65/77/59 64/78/59 67/79/59 66/80/59
f 63/70/60 62/76/60 66/81/60 67/82/60
f 62/76/61 61/73/61 65/75/61 66/81/61
f 60/71/62 63/70/62 67/82/62 64/74/62
f 71/83/9 70/84/9 69/85/9 68/86/9
f 20/36/63 23/32/63 71/87/63 68/88/63
f 21/33/64 20/36/64 68/88/64 69/34/64
f 23/32/65 22/31/65 70/35/65 71/87/65
