# Blender v2.83.5 OBJ File: 'ginger02.blend'
# www.blender.org
mtllib ginger02.mtl
o Cylinder.001_Cylinder.002
v -0.030397 0.004877 -0.010151
v -0.012833 0.006479 -0.015262
v -0.030397 -0.004908 -0.006858
v -0.012833 -0.009274 -0.009961
v -0.030397 -0.004799 0.003465
v -0.012833 -0.009100 0.006658
v -0.030397 0.005052 0.006552
v -0.012833 0.006760 0.011629
v -0.030397 0.008110 -0.001863
v -0.012833 0.012979 -0.001919
v -0.000634 0.007168 -0.017461
v -0.000634 -0.011152 -0.011296
v -0.000634 -0.010950 0.008032
v -0.000634 0.007495 0.013813
v -0.000634 0.015543 -0.001943
v 0.023241 0.007220 -0.017629
v 0.023241 -0.011296 -0.011398
v 0.023241 -0.011091 0.008137
v 0.023241 0.007551 0.013980
v 0.023241 0.015184 -0.001945
v -0.011129 0.001455 -0.021876
v -0.011129 -0.009136 -0.018311
v -0.002927 0.001919 -0.023354
v -0.002927 -0.010399 -0.019209
v 0.011304 0.007523 0.013896
v 0.011304 -0.011020 0.008085
v 0.001481 -0.006881 0.019348
v 0.001481 0.005419 0.019703
v 0.009081 0.005451 0.019750
v 0.009081 -0.006915 0.019392
v 0.011304 0.007194 -0.017545
v 0.011304 -0.011224 -0.011347
v 0.020939 0.005424 -0.021799
v 0.020939 -0.006619 -0.021161
v 0.013569 0.005395 -0.021754
v 0.013569 -0.006585 -0.021118
v 0.000206 0.006825 0.015535
v 0.000424 -0.008915 0.013690
v 0.000952 0.005938 0.018231
v 0.001508 -0.007900 0.017433
v -0.002179 0.005456 0.016506
v -0.002035 -0.004898 0.015293
v -0.001688 0.004872 0.018279
v -0.001322 -0.004230 0.017755
vt 0.688190 0.817006
vt 0.688190 0.817006
vt 0.688190 0.817006
vt 0.688190 0.817006
vt 0.688190 0.817006
vt 0.688190 0.817006
vt 0.688190 0.817006
vt 0.688190 0.817006
vt 0.688190 0.817006
vt 0.688190 0.817006
vt 0.688190 0.817006
vt 0.688190 0.817006
vt 0.686236 0.686147
vt 0.686236 0.686147
vt 0.686236 0.686147
vt 0.686236 0.686147
vt 0.686236 0.686147
vt 0.688190 0.817006
vt 0.688190 0.817006
vt 0.688190 0.817006
vt 0.688190 0.817006
vt 0.688190 0.817006
vt 0.688190 0.817006
vt 0.688190 0.817006
vt 0.688190 0.817006
vt 0.688190 0.817006
vt 0.687438 0.690694
vt 0.687438 0.690694
vt 0.687438 0.690694
vt 0.687438 0.690694
vt 0.687438 0.690694
vt 0.688190 0.817006
vt 0.688190 0.817006
vt 0.688190 0.817006
vt 0.688190 0.817006
vt 0.688190 0.817006
vt 0.688190 0.817006
vt 0.688190 0.817006
vt 0.687438 0.690694
vt 0.687438 0.690694
vt 0.687438 0.690694
vt 0.687438 0.690694
vt 0.688190 0.817006
vt 0.688190 0.817006
vt 0.688190 0.817006
vt 0.688190 0.817006
vt 0.688190 0.817006
vt 0.688190 0.817006
vt 0.687438 0.690694
vt 0.687438 0.690694
vt 0.687438 0.690694
vt 0.687438 0.690694
vt 0.688190 0.817006
vt 0.688190 0.817006
vt 0.688190 0.817006
vt 0.688190 0.817006
vt 0.687438 0.690694
vt 0.687438 0.690694
vt 0.687438 0.690694
vt 0.687438 0.690694
vt 0.688190 0.817006
vt 0.688190 0.817006
vt 0.688190 0.817006
vt 0.688190 0.817006
vt 0.688190 0.817006
vt 0.688190 0.817006
vn -0.2395 -0.3097 -0.9202
vn -0.2395 -0.9708 0.0102
vn -0.2395 -0.2903 0.9265
vn -0.1583 0.8878 0.4322
vn -0.2224 0.8981 0.3794
vn -0.2226 0.8890 -0.4001
vn -1.0000 0.0000 0.0000
vn 0.9423 -0.0734 -0.3266
vn -0.1511 -0.9885 0.0104
vn -0.1582 0.8777 -0.4524
vn 0.9536 -0.0961 -0.2854
vn -0.1511 -0.2956 0.9433
vn 1.0000 0.0000 0.0000
vn 0.0042 0.8962 0.4436
vn -0.0060 -0.9999 0.0105
vn 0.0040 0.8859 -0.4639
vn -0.0060 -0.2990 0.9542
vn -0.1511 -0.3153 -0.9369
vn -0.1556 0.7669 -0.6226
vn -0.1572 -0.9864 -0.0484
vn -0.9773 -0.0675 -0.2006
vn 0.0012 -0.9410 0.3385
vn -0.0060 -0.0289 0.9996
vn 0.9653 -0.0511 0.2561
vn -0.0074 0.9426 0.3337
vn -0.9882 -0.0277 0.1504
vn -0.0060 -0.3190 -0.9478
vn -0.0060 -0.0530 -0.9986
vn -0.9444 -0.0721 -0.3208
vn -0.0053 0.9190 -0.3943
vn -0.0070 -0.9026 -0.4304
vn -0.7204 -0.5878 0.3682
vn -0.9636 -0.0640 0.2596
vn -0.9604 -0.0496 0.2742
vn 0.0410 -0.0559 0.9976
vn -0.3407 0.8610 0.3776
vn -0.4239 0.0997 -0.9002
usemtl Material.001
s off
f 1/1/1 2/2/1 4/3/1 3/4/1
f 3/4/2 4/3/2 6/5/2 5/6/2
f 5/6/3 6/5/3 8/7/3 7/8/3
f 10/9/4 8/7/4 14/10/4 15/11/4
f 7/8/5 8/7/5 10/9/5 9/12/5
f 9/12/6 10/9/6 2/2/6 1/1/6
f 1/13/7 3/14/7 5/15/7 7/16/7 9/17/7
f 16/18/8 17/19/8 34/20/8 33/21/8
f 6/5/9 4/3/9 12/22/9 13/23/9
f 2/2/10 10/9/10 15/11/10 11/24/10
f 11/24/11 12/22/11 24/25/11 23/26/11
f 8/7/12 6/5/12 13/23/12 14/10/12
f 17/27/13 16/28/13 20/29/13 19/30/13 18/31/13
f 15/11/14 14/10/14 25/32/14 19/33/14 20/34/14
f 13/23/15 12/22/15 32/35/15 17/19/15 18/36/15 26/37/15
f 11/24/16 15/11/16 20/34/16 16/18/16 31/38/16
f 25/32/17 26/37/17 18/36/17 19/33/17
f 22/39/18 21/40/18 23/41/18 24/42/18
f 2/2/19 11/24/19 23/26/19 21/43/19
f 12/22/20 4/3/20 22/44/20 24/25/20
f 4/3/21 2/2/21 21/43/21 22/44/21
f 13/23/22 26/37/22 30/45/22 27/46/22 40/47/22 38/48/22
f 28/49/23 27/50/23 30/51/23 29/52/23
f 26/37/24 25/32/24 29/53/24 30/45/24
f 25/32/25 14/10/25 37/54/25 39/55/25 28/56/25 29/53/25
f 39/55/26 40/47/26 27/46/26 28/56/26
f 12/22/27 11/24/27 31/38/27 32/35/27
f 36/57/28 35/58/28 33/59/28 34/60/28
f 32/35/29 31/38/29 35/61/29 36/62/29
f 31/38/30 16/18/30 33/21/30 35/61/30
f 17/19/31 32/35/31 36/62/31 34/20/31
f 38/48/32 40/47/32 44/63/32 42/64/32
f 14/10/33 13/23/33 38/48/33 37/54/33
f 41/65/34 42/64/34 44/63/34 43/66/34
f 40/47/35 39/55/35 43/66/35 44/63/35
f 39/55/36 37/54/36 41/65/36 43/66/36
f 37/54/37 38/48/37 42/64/37 41/65/37
