# Blender v2.83.5 OBJ File: 'hazelnut02.blend'
# www.blender.org
mtllib hazelnut02.mtl
o Cylinder_Cylinder.002
v 0.000000 -0.007073 -0.007659
v 0.000000 -0.004170 -0.008850
v 0.005415 -0.007073 -0.005415
v 0.006258 -0.004170 -0.006258
v 0.007659 -0.007073 0.000000
v 0.008850 -0.004170 0.000000
v 0.005415 -0.007073 0.005415
v 0.006258 -0.004170 0.006258
v -0.000000 -0.007073 0.007659
v -0.000000 -0.004170 0.008850
v -0.005415 -0.007073 0.005415
v -0.006258 -0.004170 0.006258
v -0.007659 -0.007073 -0.000000
v -0.008850 -0.004170 -0.000000
v -0.005415 -0.007073 -0.005415
v -0.006258 -0.004170 -0.006258
v 0.006587 -0.001103 -0.006587
v 0.000000 -0.001103 -0.009316
v 0.009316 -0.001103 0.000000
v 0.006587 -0.001103 0.006587
v -0.000000 -0.001103 0.009316
v -0.006587 -0.001103 0.006587
v -0.009316 -0.001103 -0.000000
v -0.006587 -0.001103 -0.006587
v 0.006587 0.003654 -0.006587
v 0.000000 0.003654 -0.009316
v 0.009316 0.003654 0.000000
v 0.006587 0.003654 0.006587
v -0.000000 0.003654 0.009316
v -0.006587 0.003654 0.006587
v -0.009316 0.003654 -0.000000
v -0.006587 0.003654 -0.006587
v 0.005314 0.007037 -0.005314
v -0.000000 0.007037 -0.007516
v 0.007516 0.007037 0.000000
v 0.005314 0.007037 0.005314
v -0.000000 0.007037 0.007516
v -0.005314 0.007037 0.005314
v -0.007516 0.007037 -0.000000
v -0.005314 0.007037 -0.005314
v 0.002151 0.010392 -0.002151
v -0.000000 0.010392 -0.003042
v 0.003042 0.010392 0.000000
v 0.002151 0.010392 0.002151
v -0.000000 0.010392 0.003042
v -0.002151 0.010392 0.002151
v -0.003042 0.010392 -0.000000
v -0.002151 0.010392 -0.002151
v 0.000438 0.012457 -0.000438
v -0.000000 0.012457 -0.000619
v 0.000619 0.012457 -0.000000
v 0.000438 0.012457 0.000438
v -0.000000 0.012457 0.000619
v -0.000438 0.012457 0.000438
v -0.000619 0.012457 -0.000000
v -0.000438 0.012457 -0.000438
v 0.000237 -0.008957 -0.004330
v 0.002403 -0.008957 -0.002826
v 0.003483 -0.008957 0.000047
v 0.002830 -0.008957 0.002837
v -0.000029 -0.008957 0.004021
v -0.002559 -0.008957 0.002644
v -0.004489 -0.008957 -0.000280
v -0.002887 -0.008957 -0.002880
v -0.000000 -0.008015 0.006443
v 0.004556 -0.008015 0.004556
v -0.004343 -0.008015 0.004431
v -0.006713 -0.008015 -0.000167
v -0.004556 -0.008015 -0.004556
v 0.000172 -0.008015 -0.006615
v 0.004280 -0.008015 -0.004521
v 0.006099 -0.008015 0.000045
v 0.000245 -0.008524 -0.006425
v 0.003761 -0.008524 -0.004681
v 0.005441 -0.008524 0.000039
v 0.004026 -0.008524 0.003940
v 0.000028 -0.008524 0.005596
v -0.004135 -0.008524 0.003954
v -0.006210 -0.008524 -0.000418
v -0.003969 -0.008524 -0.004055
vt 0.187500 0.817500
vt 0.187500 0.817500
vt 0.187500 0.817500
vt 0.187500 0.817500
vt 0.187500 0.817500
vt 0.187500 0.817500
vt 0.187500 0.817500
vt 0.187500 0.817500
vt 0.187500 0.817500
vt 0.187500 0.817500
vt 0.187500 0.817500
vt 0.187500 0.817500
vt 0.187500 0.817500
vt 0.187500 0.817500
vt 0.187500 0.817500
vt 0.187500 0.817500
vt 0.187500 0.817500
vt 0.187500 0.817500
vt 0.062500 0.817500
vt 0.062500 0.817500
vt 0.062500 0.817500
vt 0.062500 0.817500
vt 0.187500 0.817500
vt 0.187500 0.817500
vt 0.187500 0.817500
vt 0.187500 0.817500
vt 0.187500 0.817500
vt 0.187500 0.817500
vt 0.187500 0.817500
vt 0.187500 0.817500
vt 0.187500 0.817500
vt 0.187500 0.817500
vt 0.187500 0.817500
vt 0.187500 0.817500
vt 0.187500 0.817500
vt 0.187500 0.817500
vt 0.187500 0.817500
vt 0.187500 0.817500
vt 0.187500 0.817500
vt 0.187500 0.817500
vt 0.187500 0.817500
vt 0.187500 0.817500
vt 0.187500 0.817500
vt 0.187500 0.817500
vt 0.187500 0.817500
vt 0.187500 0.817500
vt 0.187500 0.817500
vt 0.187500 0.817500
vt 0.187500 0.817500
vt 0.187500 0.817500
vt 0.187500 0.817500
vt 0.187500 0.817500
vt 0.187500 0.817500
vt 0.187500 0.817500
vt 0.187500 0.817500
vt 0.187500 0.817500
vt 0.187500 0.817500
vt 0.187500 0.817500
vt 0.187500 0.817500
vt 0.187500 0.817500
vt 0.062500 0.817500
vt 0.062500 0.817500
vt 0.062500 0.817500
vt 0.062500 0.817500
vt 0.062500 0.817500
vt 0.062500 0.817500
vt 0.187500 0.817500
vt 0.187500 0.817500
vt 0.187500 0.817500
vt 0.187500 0.817500
vt 0.062500 0.817500
vt 0.187500 0.817500
vt 0.187500 0.817500
vt 0.187500 0.817500
vt 0.187500 0.817500
vt 0.062500 0.817500
vt 0.187500 0.817500
vt 0.187500 0.817500
vt 0.062500 0.817500
vt 0.187500 0.817500
vt 0.187500 0.817500
vt 0.187500 0.817500
vt 0.187500 0.817500
vt 0.062500 0.817500
vt 0.187500 0.817500
vt 0.062500 0.817500
vt 0.187500 0.817500
vt 0.062500 0.817500
vn 0.3578 -0.3545 -0.8639
vn 0.8639 -0.3545 -0.3578
vn 0.8639 -0.3545 0.3578
vn 0.3578 -0.3545 0.8639
vn -0.3578 -0.3545 0.8639
vn -0.8639 -0.3545 0.3578
vn 0.9149 -0.1390 -0.3790
vn -0.8639 -0.3545 -0.3578
vn -0.3578 -0.3545 -0.8639
vn 0.1075 -0.9597 0.2596
vn -0.9239 0.0000 0.3827
vn -0.3790 -0.1390 0.9149
vn -0.3790 -0.1390 -0.9149
vn 0.3790 -0.1390 -0.9149
vn 0.9149 -0.1390 0.3790
vn -0.9149 -0.1390 0.3790
vn 0.3790 -0.1390 0.9149
vn -0.9149 -0.1390 -0.3790
vn 0.3434 0.4412 -0.8291
vn 0.3827 0.0000 0.9239
vn 0.9239 0.0000 -0.3827
vn -0.9239 0.0000 -0.3827
vn -0.3827 0.0000 0.9239
vn 0.9239 0.0000 0.3827
vn 0.3827 0.0000 -0.9239
vn -0.3827 0.0000 -0.9239
vn -0.5823 0.7764 -0.2412
vn -0.3434 0.4412 -0.8291
vn -0.8291 0.4412 0.3434
vn 0.3434 0.4412 0.8291
vn 0.8291 0.4412 -0.3434
vn -0.8291 0.4412 -0.3434
vn -0.3434 0.4412 0.8291
vn 0.8291 0.4412 0.3434
vn 0.6264 0.7350 -0.2595
vn -0.2412 0.7764 0.5823
vn 0.5823 0.7764 0.2412
vn 0.2412 0.7764 -0.5823
vn -0.2412 0.7764 -0.5823
vn -0.5823 0.7764 0.2412
vn 0.2412 0.7764 0.5823
vn 0.5823 0.7764 -0.2412
vn 0.0000 1.0000 0.0000
vn -0.6264 0.7350 -0.2595
vn -0.2595 0.7350 0.6264
vn 0.6264 0.7350 0.2595
vn 0.2595 0.7350 -0.6264
vn -0.2595 0.7350 -0.6264
vn -0.6264 0.7350 0.2595
vn 0.2595 0.7350 0.6264
vn 0.0000 -1.0000 -0.0000
vn 0.2110 -0.8343 0.5093
vn 0.2398 -0.9680 0.0741
vn 0.5745 -0.7932 0.2021
vn 0.6540 -0.7152 -0.2464
vn 0.2111 -0.9745 -0.0767
vn 0.4389 -0.2169 -0.8720
vn 0.1023 -0.9785 -0.1789
vn 0.5552 -0.8043 0.2118
vn 0.2459 -0.7662 0.5937
vn -0.2439 -0.7921 0.5595
vn -0.5735 -0.7755 0.2642
vn -0.6372 -0.7156 -0.2860
vn -0.2570 -0.7529 -0.6059
vn 0.2722 -0.7541 -0.5977
vn 0.5108 -0.8342 -0.2079
vn -0.2424 -0.7891 0.5644
vn -0.1056 -0.9665 0.2341
vn -0.6520 -0.6859 0.3231
vn -0.2129 -0.9700 0.1169
vn -0.6032 -0.7259 -0.3306
vn -0.2305 -0.9626 -0.1421
vn -0.3308 -0.6667 -0.6679
vn -0.1140 -0.9691 -0.2189
usemtl Material.002
s off
f 1/1/1 2/2/1 4/3/1 3/4/1
f 3/4/2 4/3/2 6/5/2 5/6/2
f 5/6/3 6/5/3 8/7/3 7/8/3
f 7/8/4 8/7/4 10/9/4 9/10/4
f 9/10/5 10/9/5 12/11/5 11/12/5
f 11/12/6 12/11/6 14/13/6 13/14/6
f 6/5/7 4/3/7 17/15/7 19/16/7
f 13/14/8 14/13/8 16/17/8 15/18/8
f 15/18/9 16/17/9 2/2/9 1/1/9
f 61/19/10 60/20/10 76/21/10 77/22/10
f 23/23/11 22/24/11 30/25/11 31/26/11
f 12/11/12 10/9/12 21/27/12 22/24/12
f 2/2/13 16/17/13 24/28/13 18/29/13
f 4/3/14 2/2/14 18/29/14 17/15/14
f 8/7/15 6/5/15 19/16/15 20/30/15
f 14/13/16 12/11/16 22/24/16 23/23/16
f 10/9/17 8/7/17 20/30/17 21/27/17
f 16/17/18 14/13/18 23/23/18 24/28/18
f 25/31/19 26/32/19 34/33/19 33/34/19
f 21/27/20 20/30/20 28/35/20 29/36/20
f 19/16/21 17/15/21 25/31/21 27/37/21
f 24/28/22 23/23/22 31/26/22 32/38/22
f 22/24/23 21/27/23 29/36/23 30/25/23
f 20/30/24 19/16/24 27/37/24 28/35/24
f 17/15/25 18/29/25 26/32/25 25/31/25
f 18/29/26 24/28/26 32/38/26 26/32/26
f 40/39/27 39/40/27 47/41/27 48/42/27
f 26/32/28 32/38/28 40/39/28 34/33/28
f 31/26/29 30/25/29 38/43/29 39/40/29
f 29/36/30 28/35/30 36/44/30 37/45/30
f 27/37/31 25/31/31 33/34/31 35/46/31
f 32/38/32 31/26/32 39/40/32 40/39/32
f 30/25/33 29/36/33 37/45/33 38/43/33
f 28/35/34 27/37/34 35/46/34 36/44/34
f 43/47/35 41/48/35 49/49/35 51/50/35
f 38/43/36 37/45/36 45/51/36 46/52/36
f 36/44/37 35/46/37 43/47/37 44/53/37
f 33/34/38 34/33/38 42/54/38 41/48/38
f 34/33/39 40/39/39 48/42/39 42/54/39
f 39/40/40 38/43/40 46/52/40 47/41/40
f 37/45/41 36/44/41 44/53/41 45/51/41
f 35/46/42 33/34/42 41/48/42 43/47/42
f 49/49/43 50/55/43 56/56/43 55/57/43 54/58/43 53/59/43 52/60/43 51/50/43
f 48/42/44 47/41/44 55/57/44 56/56/44
f 46/52/45 45/51/45 53/59/45 54/58/45
f 44/53/46 43/47/46 51/50/46 52/60/46
f 41/48/47 42/54/47 50/55/47 49/49/47
f 42/54/48 48/42/48 56/56/48 50/55/48
f 47/41/49 46/52/49 54/58/49 55/57/49
f 45/51/50 44/53/50 52/60/50 53/59/50
f 57/61/51 58/62/51 59/63/51 60/20/51 61/19/51 62/64/51 63/65/51 64/66/51
f 66/67/52 65/68/52 77/69/52 76/70/52
f 60/20/53 59/63/53 75/71/53 76/21/53
f 72/72/54 66/67/54 76/70/54 75/73/54
f 71/74/55 72/72/55 75/73/55 74/75/55
f 59/63/56 58/62/56 74/76/56 75/71/56
f 70/77/57 71/74/57 74/75/57 73/78/57
f 58/62/58 57/61/58 73/79/58 74/76/58
f 5/6/59 7/8/59 66/67/59 72/72/59
f 7/8/60 9/10/60 65/68/60 66/67/60
f 9/10/61 11/12/61 67/80/61 65/68/61
f 11/12/62 13/14/62 68/81/62 67/80/62
f 13/14/63 15/18/63 69/82/63 68/81/63
f 15/18/64 1/1/64 70/77/64 69/82/64
f 1/1/65 3/4/65 71/74/65 70/77/65
f 3/4/66 5/6/66 72/72/66 71/74/66
f 65/68/67 67/80/67 78/83/67 77/69/67
f 62/64/68 61/19/68 77/22/68 78/84/68
f 67/80/69 68/81/69 79/85/69 78/83/69
f 63/65/70 62/64/70 78/84/70 79/86/70
f 68/81/71 69/82/71 80/87/71 79/85/71
f 64/66/72 63/65/72 79/86/72 80/88/72
f 69/82/73 70/77/73 73/78/73 80/87/73
f 57/61/74 64/66/74 80/88/74 73/79/74
