# Blender v2.83.5 OBJ File: 'kiwi02.blend'
# www.blender.org
mtllib kiwi02.mtl
o Cylinder.001
v 0.026129 0.011217 -0.011032
v 0.026129 0.011217 0.010489
v 0.018480 -0.007250 -0.011032
v 0.018480 -0.007250 0.010489
v 0.000014 -0.014899 -0.011032
v 0.000014 -0.014899 0.010489
v -0.018453 -0.007250 -0.011032
v -0.018453 -0.007250 0.010489
v -0.026102 0.011217 -0.011032
v -0.026102 0.011217 0.010489
v 0.023008 0.011217 -0.019853
v 0.016273 -0.005043 -0.019853
v 0.000014 -0.011778 -0.019853
v -0.016246 -0.005043 -0.019853
v -0.022981 0.011217 -0.019853
v 0.013530 0.011217 -0.027679
v 0.009571 0.001659 -0.027679
v 0.000014 -0.002300 -0.027679
v -0.009544 0.001659 -0.027679
v -0.013503 0.011217 -0.027679
v 0.023654 0.011217 0.019210
v 0.016730 -0.005499 0.019210
v 0.000014 -0.012423 0.019210
v -0.016702 -0.005499 0.019210
v -0.023626 0.011217 0.019210
v 0.017753 0.011217 0.025866
v 0.012557 -0.001327 0.025866
v 0.000014 -0.006523 0.025866
v -0.012530 -0.001327 0.025866
v -0.017726 0.011217 0.025866
v 0.006744 0.011217 0.030356
v 0.004773 0.006458 0.030356
v 0.000014 0.004486 0.030356
v -0.004745 0.006458 0.030356
v -0.006717 0.011217 0.030356
v 0.003872 0.011217 0.030356
v 0.002742 0.008488 0.030356
v 0.000014 0.007358 0.030356
v -0.002715 0.008488 0.030356
v -0.003845 0.011217 0.030356
v 0.008224 0.011133 -0.029537
v 0.005638 0.002906 -0.029537
v 0.000014 0.000577 -0.029537
v -0.005611 0.002906 -0.029537
v -0.008705 0.011133 -0.029537
v 0.009949 0.011215 0.009110
v 0.011442 0.011215 -0.002903
v -0.011420 0.011215 0.009110
v -0.009646 0.011215 -0.003770
v 0.008979 0.011215 -0.013866
v -0.010055 0.011215 -0.014280
v 0.005907 0.011215 -0.021905
v -0.005911 0.011215 -0.021905
v -0.009264 0.011215 0.014537
v 0.010333 0.011215 0.016197
v -0.007758 0.011215 0.021605
v 0.007753 0.011215 0.021605
v -0.002945 0.011215 0.025254
v 0.002940 0.011215 0.025254
v -0.001689 0.011215 0.025254
v 0.001685 0.011215 0.025254
v 0.003587 0.011147 -0.023415
v -0.003814 0.011147 -0.023415
v 0.009160 0.011214 0.008697
v 0.010653 0.011214 -0.002109
v -0.010632 0.011214 0.008697
v -0.008859 0.011214 -0.002975
v 0.008357 0.011214 -0.012712
v -0.008659 0.011214 -0.013123
v 0.005499 0.011214 -0.020177
v -0.005504 0.011214 -0.020177
v -0.008627 0.011214 0.013730
v 0.009619 0.011214 0.015295
v -0.007223 0.011214 0.020330
v 0.007217 0.011214 0.020330
v -0.002742 0.011214 0.023727
v 0.002736 0.011214 0.023727
v -0.001573 0.011214 0.023727
v 0.001568 0.011214 0.023727
v 0.003339 0.011151 -0.021583
v -0.003551 0.011151 -0.021583
v 0.004150 0.011213 0.007209
v 0.002859 0.011213 -0.004804
v -0.003176 0.011212 0.007815
v -0.003582 0.011213 -0.005768
v 0.003653 0.011213 -0.009608
v -0.003673 0.011213 -0.009608
v 0.001876 0.011213 -0.013945
v -0.001895 0.011213 -0.013945
v -0.003776 0.011213 0.012043
v 0.002762 0.011213 0.011436
v -0.002836 0.011212 0.015731
v 0.002816 0.011213 0.015731
v -0.001082 0.011213 0.018220
v 0.001062 0.011213 0.018220
v -0.000625 0.011213 0.018220
v 0.000605 0.011213 0.018220
v 0.001298 0.011166 -0.014975
v -0.001399 0.011166 -0.014975
vt 0.310547 0.813594
vt 0.310547 0.813594
vt 0.310547 0.813594
vt 0.310547 0.813594
vt 0.310547 0.813594
vt 0.310547 0.813594
vt 0.310547 0.813594
vt 0.310547 0.813594
vt 0.310547 0.813594
vt 0.310547 0.813594
vt 0.310547 0.813594
vt 0.310547 0.813594
vt 0.310547 0.813594
vt 0.310547 0.813594
vt 0.310547 0.813594
vt 0.310547 0.813594
vt 0.310547 0.813594
vt 0.310547 0.813594
vt 0.310547 0.813594
vt 0.310547 0.813594
vt 0.310547 0.813594
vt 0.310547 0.813594
vt 0.310547 0.813594
vt 0.310547 0.813594
vt 0.310547 0.813594
vt 0.310547 0.813594
vt 0.310547 0.813594
vt 0.310547 0.813594
vt 0.310547 0.813594
vt 0.310547 0.813594
vt 0.310547 0.813594
vt 0.310547 0.813594
vt 0.310547 0.813594
vt 0.310547 0.813594
vt 0.310547 0.813594
vt 0.310547 0.813594
vt 0.310547 0.813594
vt 0.310547 0.813594
vt 0.310547 0.813594
vt 0.310547 0.813594
vt 0.185547 0.813594
vt 0.185547 0.813594
vt 0.185547 0.813594
vt 0.185547 0.813594
vt 0.185547 0.813594
vt 0.310547 0.813594
vt 0.310547 0.813594
vt 0.310547 0.813594
vt 0.310547 0.813594
vt 0.310547 0.813594
vt 0.685547 0.563594
vt 0.685547 0.563594
vt 0.685547 0.563594
vt 0.685547 0.563594
vt 0.185547 0.563594
vt 0.185547 0.563594
vt 0.185547 0.563594
vt 0.185547 0.563594
vt 0.685547 0.563594
vt 0.685547 0.563594
vt 0.685547 0.563594
vt 0.685547 0.563594
vt 0.685547 0.563594
vt 0.685547 0.563594
vt 0.685547 0.563594
vt 0.685547 0.563594
vt 0.685547 0.563594
vt 0.685547 0.563594
vt 0.685547 0.563594
vt 0.685547 0.563594
vt 0.685547 0.563594
vt 0.685547 0.563594
vt 0.685547 0.563594
vt 0.685547 0.563594
vt 0.685547 0.563594
vt 0.685547 0.563594
vt 0.685547 0.563594
vt 0.685547 0.563594
vt 0.685547 0.563594
vt 0.685547 0.563594
vt 0.685547 0.563594
vt 0.685547 0.563594
vt 0.685547 0.563594
vt 0.685547 0.563594
vt 0.685547 0.563594
vt 0.685547 0.563594
vt 0.685547 0.563594
vt 0.685547 0.563594
vt 0.685547 0.563594
vt 0.685547 0.563594
vt 0.060547 0.563594
vt 0.060547 0.563594
vt 0.060547 0.563594
vt 0.060547 0.563594
vt 0.185547 0.563594
vt 0.185547 0.563594
vt 0.185547 0.563594
vt 0.185547 0.563594
vt 0.185547 0.563594
vt 0.185547 0.563594
vt 0.185547 0.563594
vt 0.185547 0.563594
vt 0.185547 0.563594
vt 0.185547 0.563594
vt 0.185547 0.563594
vt 0.185547 0.563594
vt 0.185547 0.563594
vt 0.185547 0.563594
vt 0.185547 0.563594
vt 0.185547 0.563594
vt 0.185547 0.563594
vt 0.185547 0.563594
vt 0.185547 0.563594
vt 0.185547 0.563594
vt 0.185547 0.563594
vt 0.185547 0.563594
vt 0.185547 0.563594
vt 0.185547 0.563594
vt 0.185547 0.563594
vt 0.185547 0.563594
vt 0.185547 0.563594
vt 0.185547 0.563594
vt 0.185547 0.563594
vt 0.185547 0.563594
vt 0.185547 0.563594
vt 0.185547 0.563594
vt 0.935547 0.563594
vt 0.935547 0.563594
vt 0.935547 0.563594
vt 0.935547 0.563594
vt 0.935547 0.563594
vt 0.935547 0.563594
vt 0.935547 0.563594
vt 0.935547 0.563594
vt 0.935547 0.563594
vt 0.935547 0.563594
vt 0.935547 0.563594
vt 0.935547 0.563594
vt 0.935547 0.563594
vt 0.935547 0.563594
vt 0.935547 0.563594
vt 0.935547 0.563594
vt 0.935547 0.563594
vt 0.935547 0.563594
vt 0.060547 0.563594
vt 0.060547 0.563594
vt 0.060547 0.563594
vt 0.060547 0.563594
vt 0.060547 0.563594
vt 0.060547 0.563594
vt 0.060547 0.563594
vt 0.060547 0.563594
vt 0.060547 0.563594
vt 0.060547 0.563594
vt 0.060547 0.563594
vt 0.060547 0.563594
vt 0.060547 0.563594
vt 0.060547 0.563594
vt 0.060547 0.563594
vt 0.060547 0.563594
vt 0.060547 0.563594
vt 0.060547 0.563594
vt 0.060547 0.563594
vt 0.060547 0.563594
vt 0.060547 0.563594
vt 0.060547 0.563594
vt 0.060547 0.563594
vt 0.060547 0.563594
vt 0.060547 0.563594
vt 0.060547 0.563594
vt 0.060547 0.563594
vt 0.060547 0.563594
vt 0.060547 0.563594
vt 0.060547 0.563594
vt 0.060547 0.563594
vt 0.060547 0.563594
vn 0.9239 -0.3827 -0.0000
vn 0.3827 -0.9239 -0.0000
vn -0.3827 -0.9239 -0.0000
vn -0.9239 -0.3827 0.0000
vn -0.2550 -0.6156 -0.7456
vn -0.3637 -0.8782 -0.3107
vn 0.8782 -0.3637 -0.3107
vn -0.8782 -0.3637 -0.3107
vn 0.3637 -0.8782 -0.3107
vn 0.6156 -0.2550 -0.7456
vn -0.6156 -0.2550 -0.7456
vn 0.2550 -0.6156 -0.7456
vn -0.7147 -0.2960 0.6337
vn 0.3702 -0.8937 0.2537
vn -0.3702 -0.8937 0.2537
vn 0.8937 -0.3702 0.2537
vn -0.8937 -0.3702 0.2537
vn 0.2960 -0.7147 0.6337
vn -0.2960 -0.7147 0.6337
vn 0.7147 -0.2960 0.6337
vn -0.3731 -0.1546 0.9148
vn 0.1546 -0.3731 0.9148
vn -0.1546 -0.3731 0.9148
vn 0.3731 -0.1546 0.9148
vn 0.0000 0.0000 1.0000
vn 0.0000 0.0000 -1.0000
vn -0.2193 -0.5295 -0.8195
vn 0.3558 -0.1309 -0.9253
vn -0.3708 -0.1470 -0.9170
vn 0.2193 -0.5295 -0.8195
vn -0.0000 1.0000 -0.0023
vn -0.0005 1.0000 -0.0002
vn 0.0000 1.0000 -0.0003
vn 0.0001 1.0000 0.0000
vn -0.0133 0.9998 -0.0147
vn -0.0001 1.0000 0.0001
vn 0.0141 0.9998 -0.0158
vn -0.0001 1.0000 -0.0000
vn 0.0001 1.0000 0.0001
vn 0.0001 1.0000 -0.0001
vn 0.0001 1.0000 -0.0002
vn -0.0001 1.0000 -0.0001
vn -0.0001 1.0000 -0.0002
vn 0.0002 1.0000 -0.0002
vn -0.0005 1.0000 0.0001
vn 0.0277 0.9996 -0.0062
vn 0.0002 1.0000 -0.0003
vn 0.0006 1.0000 -0.0000
vn -0.0002 1.0000 -0.0003
vn -0.0005 1.0000 0.0002
vn 0.0004 1.0000 0.0002
vn 0.0005 1.0000 -0.0002
vn -0.0007 1.0000 0.0000
vn -0.0007 1.0000 -0.0001
vn 0.0006 1.0000 -0.0001
vn 0.0006 1.0000 0.0001
vn -0.0254 0.9997 -0.0057
vn 0.0000 1.0000 -0.0007
vn 0.0003 1.0000 -0.0000
vn -0.0002 1.0000 -0.0002
vn -0.0003 1.0000 0.0001
vn 0.0003 1.0000 0.0001
vn -0.0003 1.0000 -0.0000
vn 0.0004 1.0000 -0.0001
vn -0.0279 0.9995 -0.0133
vn -0.0003 1.0000 -0.0001
vn 0.0301 0.9994 -0.0145
usemtl Material.002
s off
f 1/1/1 2/2/1 4/3/1 3/4/1
f 3/4/2 4/3/2 6/5/2 5/6/2
f 5/6/3 6/5/3 8/7/3 7/8/3
f 7/8/4 8/7/4 10/9/4 9/10/4
f 13/11/5 14/12/5 19/13/5 18/14/5
f 5/6/6 7/8/6 14/12/6 13/11/6
f 1/1/7 3/4/7 12/15/7 11/16/7
f 7/8/8 9/10/8 15/17/8 14/12/8
f 3/4/9 5/6/9 13/11/9 12/15/9
f 11/16/10 12/15/10 17/18/10 16/19/10
f 14/12/11 15/17/11 20/20/11 19/13/11
f 12/15/12 13/11/12 18/14/12 17/18/12
f 25/21/13 24/22/13 29/23/13 30/24/13
f 6/5/14 4/3/14 22/25/14 23/26/14
f 8/7/15 6/5/15 23/26/15 24/22/15
f 4/3/16 2/2/16 21/27/16 22/25/16
f 10/9/17 8/7/17 24/22/17 25/21/17
f 23/26/18 22/25/18 27/28/18 28/29/18
f 24/22/19 23/26/19 28/29/19 29/23/19
f 22/25/20 21/27/20 26/30/20 27/28/20
f 30/24/21 29/23/21 34/31/21 35/32/21
f 28/29/22 27/28/22 32/33/22 33/34/22
f 29/23/23 28/29/23 33/34/23 34/31/23
f 27/28/24 26/30/24 31/35/24 32/33/24
f 34/31/25 33/34/25 38/36/25 39/37/25
f 32/33/25 31/35/25 36/38/25 37/39/25
f 35/32/25 34/31/25 39/37/25 40/40/25
f 33/34/25 32/33/25 37/39/25 38/36/25
f 37/41/25 36/42/25 40/43/25 39/44/25 38/45/25
f 41/46/26 42/47/26 43/48/26 44/49/26 45/50/26
f 18/14/27 19/13/27 44/49/27 43/48/27
f 16/19/28 17/18/28 42/47/28 41/46/28
f 19/13/29 20/20/29 45/50/29 44/49/29
f 17/18/30 18/14/30 43/48/30 42/47/30
f 41/51/31 45/52/31 63/53/31 62/54/31
f 57/55/32 55/56/32 73/57/32 75/58/32
f 36/59/33 31/60/33 59/61/33 61/62/33
f 15/63/34 9/64/34 49/65/34 51/66/34
f 16/67/35 41/51/35 62/54/35 52/68/35
f 11/69/36 16/67/36 52/68/36 50/70/36
f 45/52/37 20/71/37 53/72/37 63/53/37
f 2/73/38 1/74/38 47/75/38 46/76/38
f 10/77/34 25/78/34 54/79/34 48/80/34
f 40/81/33 36/59/33 61/62/33 60/82/33
f 20/71/39 15/63/39 51/66/39 53/72/39
f 25/78/40 30/83/40 56/84/40 54/79/40
f 21/85/38 2/73/38 46/76/38 55/86/38
f 1/74/38 11/69/38 50/70/38 47/75/38
f 30/83/41 35/87/41 58/88/41 56/84/41
f 35/87/33 40/81/33 60/82/33 58/88/33
f 26/89/42 21/85/42 55/86/42 57/90/42
f 9/64/34 10/77/34 48/80/34 49/65/34
f 31/60/43 26/89/43 57/90/43 59/61/43
f 74/91/44 76/92/44 94/93/44 92/94/44
f 47/95/45 50/96/45 68/97/45 65/98/45
f 63/99/46 53/100/46 71/101/46 81/102/46
f 56/103/47 58/104/47 76/105/47 74/106/47
f 51/107/48 49/108/48 67/109/48 69/110/48
f 59/111/49 57/55/49 75/58/49 77/112/49
f 50/96/50 52/113/50 70/114/50 68/97/50
f 58/104/33 60/115/33 78/116/33 76/105/33
f 53/100/51 51/107/51 69/110/51 71/101/51
f 61/117/33 59/111/33 77/112/33 79/118/33
f 48/119/52 54/120/52 72/121/52 66/122/52
f 60/115/33 61/117/33 79/118/33 78/116/33
f 55/56/53 46/123/53 64/124/53 73/57/53
f 46/123/54 47/95/54 65/98/54 64/124/54
f 62/125/31 63/99/31 81/102/31 80/126/31
f 54/120/55 56/103/55 74/106/55 72/121/55
f 49/108/56 48/119/56 66/122/56 67/109/56
f 52/113/57 62/125/57 80/126/57 70/114/57
f 82/127/58 83/128/58 86/129/58 88/130/58 98/131/58 99/132/58 89/133/58 87/134/58 85/135/58 84/136/58 90/137/58 92/138/58 94/139/58 96/140/58 97/141/58 95/142/58 93/143/58 91/144/58
f 69/145/59 67/146/59 85/147/59 87/148/59
f 77/149/60 75/150/60 93/151/60 95/152/60
f 68/153/61 70/154/61 88/155/61 86/156/61
f 76/92/33 78/157/33 96/158/33 94/93/33
f 71/159/62 69/145/62 87/148/62 89/160/62
f 79/161/33 77/149/33 95/152/33 97/162/33
f 66/163/59 72/164/59 90/165/59 84/166/59
f 78/157/33 79/161/33 97/162/33 96/158/33
f 73/167/63 64/168/63 82/169/63 91/170/63
f 64/168/63 65/171/63 83/172/63 82/169/63
f 80/173/31 81/174/31 99/175/31 98/176/31
f 72/164/64 74/91/64 92/94/64 90/165/64
f 67/146/59 66/163/59 84/166/59 85/147/59
f 70/154/65 80/173/65 98/176/65 88/155/65
f 75/150/66 73/167/66 91/170/66 93/151/66
f 65/171/63 68/153/63 86/156/63 83/172/63
f 81/174/67 71/159/67 89/160/67 99/175/67
