# Blender v2.83.5 OBJ File: 'leek02.blend'
# www.blender.org
mtllib leek02.mtl
o Cylinder.001_Cylinder
v 0.007264 0.129656 0.017695
v 0.006644 0.093403 0.016196
v -0.007851 0.129656 0.017695
v -0.007230 0.093403 0.016196
v -0.018539 0.129656 0.007007
v -0.017040 0.093403 0.006386
v -0.018539 0.129656 -0.008109
v -0.017040 0.093403 -0.007488
v -0.007851 0.129656 -0.018797
v -0.007230 0.093403 -0.017298
v 0.007264 0.129656 -0.018797
v 0.006644 0.093403 -0.017298
v 0.017953 0.129656 -0.008109
v 0.016454 0.093403 -0.007488
v 0.017953 0.129656 0.007007
v 0.016454 0.093403 0.006386
v 0.007349 0.005454 0.017899
v -0.006511 0.004835 0.017932
v -0.016287 0.003339 0.008203
v -0.016254 0.001844 -0.005590
v -0.006430 0.001224 -0.015366
v 0.007430 0.001844 -0.015400
v 0.017206 0.003339 -0.005671
v 0.017173 0.004835 0.008122
v 0.007428 -0.102181 0.018090
v -0.006446 -0.102215 0.018090
v -0.016256 -0.102296 0.008280
v -0.016255 -0.102378 -0.005594
v -0.006445 -0.102411 -0.015404
v 0.007428 -0.102378 -0.015404
v 0.017238 -0.102296 -0.005594
v 0.017238 -0.102215 0.008280
v 0.001782 0.129656 0.004460
v -0.002369 0.129656 0.004460
v -0.005304 0.129656 0.001525
v -0.005304 0.129656 -0.002627
v -0.002369 0.129656 -0.005562
v 0.001782 0.129656 -0.005562
v 0.004718 0.129656 -0.002627
v 0.004718 0.129656 0.001525
v -0.001196 -0.102276 0.005416
v 0.002178 -0.102268 0.005416
v -0.003582 -0.102296 0.003030
v -0.003582 -0.102316 -0.000344
v -0.001196 -0.102324 -0.002730
v 0.002179 -0.102316 -0.002730
v 0.004565 -0.102296 -0.000344
v 0.004565 -0.102276 0.003030
vt 0.437500 0.562500
vt 0.437500 0.562500
vt 0.437500 0.562500
vt 0.437500 0.562500
vt 0.437500 0.562500
vt 0.437500 0.562500
vt 0.562500 0.562500
vt 0.562500 0.562500
vt 0.562500 0.562500
vt 0.562500 0.562500
vt 0.437500 0.562500
vt 0.437500 0.562500
vt 0.437500 0.562500
vt 0.437500 0.562500
vt 0.437500 0.562500
vt 0.437500 0.562500
vt 0.437500 0.562500
vt 0.437500 0.562500
vt 0.937500 0.562500
vt 0.937500 0.562500
vt 0.937500 0.562500
vt 0.937500 0.562500
vt 0.437500 0.562500
vt 0.437500 0.562500
vt 0.937500 0.187500
vt 0.937500 0.187500
vt 0.937500 0.187500
vt 0.937500 0.187500
vt 0.937500 0.562500
vt 0.937500 0.562500
vt 0.937500 0.562500
vt 0.937500 0.562500
vt 0.937500 0.562500
vt 0.937500 0.562500
vt 0.937500 0.562500
vt 0.937500 0.562500
vt 0.937500 0.562500
vt 0.937500 0.562500
vt 0.937500 0.562500
vt 0.937500 0.562500
vt 0.937500 0.187500
vt 0.937500 0.187500
vt 0.937500 0.187500
vt 0.937500 0.187500
vt 0.937500 0.187500
vt 0.937500 0.187500
vt 0.937500 0.187500
vt 0.937500 0.187500
vt 0.937500 0.187500
vt 0.937500 0.187500
vt 0.937500 0.187500
vt 0.937500 0.187500
vt 0.937500 0.187500
vt 0.937500 0.187500
vt 0.937500 0.187500
vt 0.937500 0.187500
vt 0.937500 0.187500
vt 0.937500 0.187500
vt 0.937500 0.562500
vt 0.937500 0.562500
vt 0.937500 0.562500
vt 0.937500 0.562500
vt 0.937500 0.562500
vt 0.937500 0.562500
vt 0.937500 0.562500
vt 0.937500 0.562500
vt 0.937500 0.187500
vt 0.937500 0.187500
vt 0.937500 0.187500
vt 0.937500 0.187500
vt 0.937500 0.187500
vt 0.937500 0.187500
vt 0.937500 0.187500
vt 0.937500 0.187500
vt 0.937500 0.187500
vt 0.937500 0.187500
vt 0.937500 0.187500
vt 0.937500 0.187500
vt 0.937500 0.562500
vt 0.937500 0.562500
vt 0.937500 0.562500
vt 0.937500 0.562500
vt 0.937500 0.562500
vt 0.937500 0.562500
vt 0.937500 0.562500
vt 0.937500 0.562500
vt 0.937500 0.187500
vt 0.937500 0.187500
vt 0.937500 0.187500
vt 0.937500 0.187500
vt 0.937500 0.187500
vt 0.937500 0.187500
vn 0.0000 -0.0413 0.9991
vn -0.7065 -0.0413 0.7065
vn -0.9991 -0.0413 0.0000
vn -0.7065 -0.0413 -0.7065
vn 0.0000 -0.0413 -0.9991
vn 0.7065 -0.0413 -0.7065
vn -0.7065 0.0083 0.7076
vn 0.9991 -0.0413 -0.0000
vn 0.7065 -0.0413 0.7065
vn 0.7063 -0.0001 -0.7080
vn -0.0007 -0.0208 -0.9998
vn 0.7064 0.0195 0.7075
vn 0.0008 0.0195 0.9998
vn -1.0000 -0.0085 -0.0008
vn 0.7065 -0.0085 -0.7076
vn -0.7064 -0.0208 -0.7075
vn 1.0000 0.0083 0.0008
vn -0.7062 0.0002 -0.7080
vn -0.7063 0.0005 0.7079
vn 1.0000 0.0005 0.0012
vn -0.0012 0.0002 -1.0000
vn -1.0000 -0.0001 -0.0012
vn 0.0012 0.0016 1.0000
vn 0.7063 0.0016 0.7079
vn 0.0024 -1.0000 0.0059
vn -0.0000 1.0000 0.0000
usemtl Material
s off
f 1/1/1 3/2/1 4/3/1 2/4/1
f 3/2/2 5/5/2 6/6/2 4/3/2
f 5/7/3 7/8/3 8/9/3 6/10/3
f 7/11/4 9/12/4 10/13/4 8/14/4
f 9/12/5 11/15/5 12/16/5 10/13/5
f 11/15/6 13/17/6 14/18/6 12/16/6
f 6/19/7 19/20/7 18/21/7 4/22/7
f 13/17/8 15/23/8 16/24/8 14/18/8
f 15/23/9 1/1/9 2/4/9 16/24/9
f 23/25/10 31/26/10 30/27/10 22/28/10
f 12/29/11 22/30/11 21/31/11 10/32/11
f 2/33/12 17/34/12 24/35/12 16/36/12
f 4/22/13 18/21/13 17/34/13 2/33/13
f 8/37/14 20/38/14 19/20/14 6/19/14
f 14/39/15 23/40/15 22/30/15 12/29/15
f 10/32/16 21/31/16 20/38/16 8/37/16
f 16/36/17 24/35/17 23/40/17 14/39/17
f 21/41/18 29/42/18 28/43/18 20/44/18
f 19/45/19 27/46/19 26/47/19 18/48/19
f 24/49/20 32/50/20 31/26/20 23/25/20
f 22/28/21 30/27/21 29/42/21 21/41/21
f 20/44/22 28/43/22 27/46/22 19/45/22
f 18/48/23 26/47/23 25/51/23 17/52/23
f 17/52/24 25/51/24 32/50/24 24/49/24
f 27/46/25 28/43/25 44/53/25 43/54/25
f 7/55/26 5/56/26 35/57/26 36/58/26
f 33/59/26 40/60/26 39/61/26 38/62/26 37/63/26 36/64/26 35/65/26 34/66/26
f 13/67/26 11/68/26 38/69/26 39/70/26
f 9/71/26 7/55/26 36/58/26 37/72/26
f 15/73/26 13/67/26 39/70/26 40/74/26
f 5/56/26 3/75/26 34/76/26 35/57/26
f 11/68/26 9/71/26 37/72/26 38/69/26
f 1/77/26 15/73/26 40/74/26 33/78/26
f 3/75/26 1/77/26 33/78/26 34/76/26
f 41/79/25 43/80/25 44/81/25 45/82/25 46/83/25 47/84/25 48/85/25 42/86/25
f 25/51/25 26/47/25 41/87/25 42/88/25
f 32/50/25 25/51/25 42/88/25 48/89/25
f 30/27/25 31/26/25 47/90/25 46/91/25
f 28/43/25 29/42/25 45/92/25 44/53/25
f 26/47/25 27/46/25 43/54/25 41/87/25
f 31/26/25 32/50/25 48/89/25 47/90/25
f 29/42/25 30/27/25 46/91/25 45/92/25
