# Blender v2.83.5 OBJ File: 'leek03.blend'
# www.blender.org
mtllib leek03.mtl
o Cylinder.001_Cylinder
v 0.004082 -0.003752 0.001709
v 0.004082 -0.003772 -0.001665
v 0.001696 -0.003792 -0.004051
v -0.001678 -0.003800 -0.004051
v -0.004064 -0.003792 -0.001665
v -0.004064 -0.003772 0.001709
v 0.001696 -0.003744 0.004095
v -0.001678 -0.003752 0.004095
v 0.006927 0.003887 0.016724
v -0.006946 0.003853 0.016725
v -0.016756 0.003772 0.006915
v -0.016756 0.003691 -0.006959
v -0.006946 0.003657 -0.016769
v 0.006928 0.003691 -0.016769
v 0.016738 0.003772 -0.006959
v 0.016738 0.003853 0.006914
v 0.016756 -0.003691 0.006959
v 0.016756 -0.003772 -0.006915
v 0.006946 -0.003853 -0.016725
v -0.006927 -0.003887 -0.016724
v -0.016738 -0.003853 -0.006914
v -0.016738 -0.003772 0.006959
v 0.006946 -0.003657 0.016769
v -0.006928 -0.003691 0.016769
v -0.001696 0.003792 0.004051
v 0.001678 0.003800 0.004051
v -0.004082 0.003772 0.001665
v -0.004082 0.003752 -0.001709
v -0.001696 0.003744 -0.004095
v 0.001678 0.003752 -0.004095
v 0.004064 0.003772 -0.001709
v 0.004064 0.003792 0.001665
vt 0.937500 0.187500
vt 0.937500 0.187500
vt 0.937500 0.187500
vt 0.937500 0.187500
vt 0.937500 0.187500
vt 0.937500 0.187500
vt 0.937500 0.187500
vt 0.937500 0.187500
vt 0.937500 0.187500
vt 0.937500 0.187500
vt 0.937500 0.187500
vt 0.937500 0.187500
vt 0.937500 0.187500
vt 0.937500 0.187500
vt 0.937500 0.187500
vt 0.937500 0.187500
vt 0.937500 0.187500
vt 0.937500 0.187500
vt 0.937500 0.187500
vt 0.937500 0.187500
vt 0.937500 0.562500
vt 0.937500 0.562500
vt 0.937500 0.562500
vt 0.937500 0.562500
vt 0.937500 0.562500
vt 0.937500 0.562500
vt 0.937500 0.562500
vt 0.937500 0.562500
vt 0.937500 0.187500
vt 0.937500 0.187500
vt 0.937500 0.187500
vt 0.937500 0.187500
vt 0.937500 0.187500
vt 0.937500 0.187500
vt 0.937500 0.562500
vt 0.937500 0.562500
vt 0.937500 0.562500
vt 0.937500 0.562500
vt 0.937500 0.562500
vt 0.937500 0.562500
vt 0.937500 0.562500
vt 0.937500 0.562500
vt 0.937500 0.187500
vt 0.937500 0.187500
vt 0.937500 0.187500
vt 0.937500 0.187500
vt 0.937500 0.187500
vt 0.937500 0.187500
vn -0.0000 0.0059 1.0000
vn 1.0000 0.0024 -0.0000
vn 0.0024 -1.0000 0.0059
vn 0.7071 0.0059 0.7071
vn 0.0000 -0.0059 -1.0000
vn -0.7071 -0.0059 -0.7071
vn -0.0024 1.0000 -0.0059
vn -1.0000 -0.0024 0.0000
vn -0.7071 0.0024 0.7071
vn 0.7071 -0.0024 -0.7071
usemtl Material
s off
f 9/1/1 10/2/1 24/3/1 23/4/1
f 15/5/2 16/6/2 17/7/2 18/8/2
f 23/4/3 24/3/3 8/9/3 7/10/3
f 16/6/4 9/1/4 23/4/4 17/7/4
f 13/11/5 14/12/5 19/13/5 20/14/5
f 12/15/6 13/11/6 20/14/6 21/16/6
f 19/13/3 18/8/3 2/17/3 3/18/3
f 24/3/3 22/19/3 6/20/3 8/9/3
f 8/21/3 6/22/3 5/23/3 4/24/3 3/25/3 2/26/3 1/27/3 7/28/3
f 17/7/3 23/4/3 7/10/3 1/29/3
f 21/16/3 20/14/3 4/30/3 5/31/3
f 20/14/3 19/13/3 3/18/3 4/30/3
f 18/8/3 17/7/3 1/29/3 2/17/3
f 11/32/7 27/33/7 28/34/7 12/15/7
f 22/19/3 21/16/3 5/31/3 6/20/3
f 11/32/8 12/15/8 21/16/8 22/19/8
f 10/2/9 11/32/9 22/19/9 24/3/9
f 14/12/10 15/5/10 18/8/10 19/13/10
f 25/35/7 26/36/7 32/37/7 31/38/7 30/39/7 29/40/7 28/41/7 27/42/7
f 9/1/7 26/43/7 25/44/7 10/2/7
f 16/6/7 32/45/7 26/43/7 9/1/7
f 14/12/7 30/46/7 31/47/7 15/5/7
f 12/15/7 28/34/7 29/48/7 13/11/7
f 10/2/7 25/44/7 27/33/7 11/32/7
f 15/5/7 31/47/7 32/45/7 16/6/7
f 13/11/7 29/48/7 30/46/7 14/12/7
