# Blender v2.83.5 OBJ File: 'lemon03.blend'
# www.blender.org
mtllib lemon03.mtl
o Cylinder
v -0.003990 0.010378 -0.026527
v 0.004204 0.010676 -0.026465
v -0.004186 -0.011438 -0.026211
v 0.004007 -0.011140 -0.026150
v -0.004331 -0.026642 -0.010560
v 0.003863 -0.026344 -0.010499
v -0.004338 -0.026326 0.011260
v 0.003856 -0.026028 0.011321
v -0.004204 -0.010676 0.026465
v 0.003990 -0.010378 0.026527
v -0.004007 0.011140 0.026150
v 0.004186 0.011438 0.026211
v -0.003863 0.026344 0.010499
v 0.004331 0.026642 0.010560
v -0.003856 0.026028 -0.011321
v 0.004338 0.026326 -0.011260
v -0.004084 0.001060 -0.003074
v -0.004107 -0.001446 -0.003037
v -0.004124 -0.003192 -0.001240
v -0.004124 -0.003155 0.001266
v -0.004109 -0.001358 0.003013
v -0.004087 0.001148 0.002976
v -0.004070 0.002894 0.001179
v -0.004069 0.002857 -0.001327
v -0.003880 0.023353 -0.010167
v -0.003887 0.023636 0.009422
v -0.004016 0.009986 0.023474
v -0.004193 -0.009600 0.023758
v -0.004313 -0.023651 0.010106
v -0.004307 -0.023934 -0.009484
v -0.004177 -0.010284 -0.023536
v -0.004001 0.009302 -0.023819
v 0.004193 0.009555 -0.023644
v 0.004017 -0.009938 -0.023362
v 0.003888 -0.023522 -0.009377
v 0.003881 -0.023240 0.010119
v 0.004001 -0.009257 0.023705
v 0.004177 0.010236 0.023423
v 0.004306 0.023820 0.009438
v 0.004312 0.023538 -0.010057
v 0.004108 0.001219 -0.002662
v 0.004088 -0.000998 -0.002630
v 0.004073 -0.002543 -0.001040
v 0.004072 -0.002511 0.001178
v 0.004086 -0.000921 0.002723
v 0.004106 0.001296 0.002691
v 0.004121 0.002841 0.001101
v 0.004121 0.002809 -0.001117
vt 0.557323 0.690069
vt 0.557323 0.690069
vt 0.557323 0.690069
vt 0.557323 0.690069
vt 0.557323 0.690069
vt 0.557323 0.690069
vt 0.557323 0.690069
vt 0.557323 0.690069
vt 0.557323 0.690069
vt 0.557323 0.690069
vt 0.557323 0.690069
vt 0.557323 0.690069
vt 0.557323 0.690069
vt 0.557323 0.690069
vt 0.557323 0.690069
vt 0.557323 0.690069
vt 0.557323 0.690069
vt 0.557323 0.690069
vt 0.557323 0.690069
vt 0.557323 0.690069
vt 0.932678 0.190315
vt 0.932678 0.190315
vt 0.932678 0.190315
vt 0.932678 0.190315
vt 0.932678 0.190315
vt 0.932678 0.190315
vt 0.932678 0.190315
vt 0.932678 0.190315
vt 0.932678 0.190315
vt 0.932678 0.190315
vt 0.932678 0.190315
vt 0.932678 0.190315
vt 0.557323 0.690069
vt 0.557323 0.690069
vt 0.557323 0.690069
vt 0.557323 0.690069
vt 0.557323 0.690069
vt 0.557323 0.690069
vt 0.557323 0.690069
vt 0.557323 0.690069
vt 0.557323 0.690069
vt 0.557323 0.690069
vt 0.557323 0.690069
vt 0.557323 0.690069
vt 0.932678 0.190315
vt 0.932678 0.190315
vt 0.932678 0.190315
vt 0.932678 0.190315
vt 0.932678 0.190315
vt 0.932678 0.190315
vt 0.932678 0.190315
vt 0.932678 0.190315
vt 0.932678 0.190315
vt 0.932678 0.190315
vt 0.932678 0.190315
vt 0.932678 0.190315
vt 0.932678 0.190315
vt 0.932678 0.190315
vt 0.932678 0.190315
vt 0.932678 0.190315
vt 0.557323 0.690069
vt 0.557323 0.690069
vt 0.557323 0.690069
vt 0.557323 0.690069
vt 0.932678 0.190315
vt 0.932678 0.190315
vt 0.932678 0.190315
vt 0.932678 0.190315
vt 0.932678 0.190315
vt 0.932678 0.190315
vt 0.932678 0.190315
vt 0.932678 0.190315
vt 0.932678 0.190315
vt 0.932678 0.190315
vt 0.932678 0.190315
vt 0.932678 0.190315
vt 0.932678 0.190315
vt 0.932678 0.190315
vt 0.932678 0.190315
vt 0.932678 0.190315
vt 0.932678 0.190315
vt 0.932678 0.190315
vt 0.932678 0.190315
vt 0.932678 0.190315
vt 0.557323 0.690069
vt 0.557323 0.690069
vt 0.557323 0.690069
vt 0.557323 0.690069
vt 0.557323 0.690069
vt 0.557323 0.690069
vt 0.557323 0.690069
vt 0.557323 0.690069
vt 0.557323 0.690069
vt 0.557323 0.690069
vt 0.557323 0.690069
vt 0.557323 0.690069
vn 0.0080 -0.0145 -0.9999
vn 0.0313 -0.7171 -0.6963
vn 0.0362 -0.9992 0.0145
vn 0.0200 -0.6968 0.7170
vn -0.0080 0.0145 0.9999
vn -0.0313 0.7171 0.6963
vn -0.0362 0.9992 -0.0145
vn -0.0200 0.6968 -0.7170
vn -1.0000 0.0090 -0.0005
vn 1.0000 -0.0090 0.0005
usemtl Material.001
s off
f 1/1/1 2/2/1 4/3/1 3/4/1
f 3/4/2 4/3/2 6/5/2 5/6/2
f 5/6/3 6/5/3 8/7/3 7/8/3
f 7/8/4 8/7/4 10/9/4 9/10/4
f 9/10/5 10/9/5 12/11/5 11/12/5
f 11/12/6 12/11/6 14/13/6 13/14/6
f 13/14/7 14/13/7 16/15/7 15/16/7
f 15/16/8 16/15/8 2/2/8 1/1/8
f 30/17/9 29/18/9 20/19/9 19/20/9
f 3/21/9 5/22/9 30/23/9 31/24/9
f 17/25/9 18/26/9 19/27/9 20/28/9 21/29/9 22/30/9 23/31/9 24/32/9
f 29/18/9 28/33/9 21/34/9 20/19/9
f 32/35/9 31/36/9 18/37/9 17/38/9
f 25/39/9 32/35/9 17/38/9 24/40/9
f 28/33/9 27/41/9 22/42/9 21/34/9
f 31/36/9 30/17/9 19/20/9 18/37/9
f 27/41/9 26/43/9 23/44/9 22/42/9
f 9/45/9 11/46/9 27/47/9 28/48/9
f 13/49/9 15/50/9 25/51/9 26/52/9
f 15/50/9 1/53/9 32/54/9 25/51/9
f 5/22/9 7/55/9 29/56/9 30/23/9
f 7/55/9 9/45/9 28/48/9 29/56/9
f 26/43/9 25/39/9 24/40/9 23/44/9
f 1/53/9 3/21/9 31/24/9 32/54/9
f 11/46/9 13/49/9 26/52/9 27/47/9
f 2/57/10 16/58/10 40/59/10 33/60/10
f 35/61/10 34/62/10 42/63/10 43/64/10
f 4/65/10 2/57/10 33/60/10 34/66/10
f 8/67/10 6/68/10 35/69/10 36/70/10
f 14/71/10 12/72/10 38/73/10 39/74/10
f 10/75/10 8/67/10 36/70/10 37/76/10
f 16/58/10 14/71/10 39/74/10 40/59/10
f 6/68/10 4/65/10 34/66/10 35/69/10
f 12/72/10 10/75/10 37/76/10 38/73/10
f 42/77/10 41/78/10 48/79/10 47/80/10 46/81/10 45/82/10 44/83/10 43/84/10
f 40/85/10 39/86/10 47/87/10 48/88/10
f 38/89/10 37/90/10 45/91/10 46/92/10
f 36/93/10 35/61/10 43/64/10 44/94/10
f 34/62/10 33/95/10 41/96/10 42/63/10
f 33/95/10 40/85/10 48/88/10 41/96/10
f 39/86/10 38/89/10 46/92/10 47/87/10
f 37/90/10 36/93/10 44/94/10 45/91/10
