# Blender v2.83.5 OBJ File: 'lime03.blend'
# www.blender.org
mtllib lime03.mtl
o Cylinder.001
v -0.003766 0.007501 -0.017672
v 0.003766 0.007456 -0.017564
v -0.003766 -0.007192 -0.017800
v 0.003766 -0.007148 -0.017692
v -0.003766 -0.017672 -0.007501
v 0.003766 -0.017564 -0.007456
v -0.003766 -0.017800 0.007192
v 0.003766 -0.017692 0.007148
v -0.003766 -0.007501 0.017672
v 0.003766 -0.007456 0.017564
v -0.003766 0.007192 0.017800
v 0.003766 0.007148 0.017692
v -0.003766 0.017672 0.007501
v 0.003766 0.017564 0.007456
v -0.003766 0.017800 -0.007192
v 0.003766 0.017692 -0.007148
v -0.003766 0.001199 -0.002824
v -0.003766 -0.001149 -0.002845
v -0.003766 -0.002824 -0.001199
v -0.003766 -0.002845 0.001149
v -0.003766 -0.001199 0.002824
v -0.003766 0.001149 0.002845
v -0.003766 0.002824 0.001199
v -0.003766 0.002845 -0.001149
v -0.003766 0.015473 -0.006251
v -0.003766 0.015361 0.006520
v -0.003766 0.006251 0.015473
v -0.003766 -0.006520 0.015361
v -0.003766 -0.015473 0.006251
v -0.003766 -0.015361 -0.006520
v -0.003766 -0.006251 -0.015473
v -0.003766 0.006520 -0.015361
v 0.003766 0.001106 -0.002606
v 0.003766 -0.001061 -0.002625
v 0.003766 -0.002606 -0.001106
v 0.003766 -0.002625 0.001061
v 0.003766 -0.001106 0.002606
v 0.003766 0.001061 0.002625
v 0.003766 0.002606 0.001106
v 0.003766 0.002625 -0.001061
v 0.003766 0.015597 -0.006302
v 0.003766 0.015485 0.006573
v 0.003766 0.006302 0.015597
v 0.003766 -0.006573 0.015485
v 0.003766 -0.015597 0.006302
v 0.003766 -0.015485 -0.006573
v 0.003766 -0.006302 -0.015597
v 0.003766 0.006573 -0.015485
vt 0.437845 0.562794
vt 0.437845 0.562794
vt 0.437845 0.562794
vt 0.437845 0.562794
vt 0.437845 0.562794
vt 0.437845 0.562794
vt 0.437845 0.562794
vt 0.437845 0.562794
vt 0.437845 0.562794
vt 0.437845 0.562794
vt 0.437845 0.562794
vt 0.437845 0.562794
vt 0.437845 0.562794
vt 0.437845 0.562794
vt 0.933713 0.193105
vt 0.933713 0.193105
vt 0.933713 0.193105
vt 0.933713 0.193105
vt 0.933713 0.193105
vt 0.933713 0.193105
vt 0.933713 0.193105
vt 0.933713 0.193105
vt 0.437845 0.562794
vt 0.437845 0.562794
vt 0.933713 0.193105
vt 0.933713 0.193105
vt 0.933713 0.193105
vt 0.933713 0.193105
vt 0.933713 0.193105
vt 0.933713 0.193105
vt 0.933713 0.193105
vt 0.933713 0.193105
vt 0.808713 0.568105
vt 0.808713 0.568105
vt 0.808713 0.568105
vt 0.808713 0.568105
vt 0.808713 0.568105
vt 0.808713 0.568105
vt 0.808713 0.568105
vt 0.808713 0.568105
vt 0.808713 0.568105
vt 0.808713 0.568105
vt 0.808713 0.568105
vt 0.808713 0.568105
vt 0.933713 0.193105
vt 0.933713 0.193105
vt 0.933713 0.193105
vt 0.933713 0.193105
vt 0.808713 0.568105
vt 0.808713 0.568105
vt 0.808713 0.568105
vt 0.808713 0.568105
vt 0.933713 0.193105
vt 0.933713 0.193105
vt 0.933713 0.193105
vt 0.933713 0.193105
vt 0.933713 0.193105
vt 0.933713 0.193105
vt 0.933713 0.193105
vt 0.933713 0.193105
vt 0.933713 0.193105
vt 0.933713 0.193105
vt 0.933713 0.193105
vt 0.933713 0.193105
vt 0.808713 0.568105
vt 0.808713 0.568105
vt 0.808713 0.568105
vt 0.808713 0.568105
vt 0.933713 0.193105
vt 0.933713 0.193105
vt 0.933713 0.193105
vt 0.933713 0.193105
vt 0.933713 0.193105
vt 0.933713 0.193105
vt 0.933713 0.193105
vt 0.933713 0.193105
vt 0.808713 0.568105
vt 0.808713 0.568105
vt 0.808713 0.568105
vt 0.808713 0.568105
vt 0.808713 0.568105
vt 0.808713 0.568105
vt 0.808713 0.568105
vt 0.808713 0.568105
vt 0.933713 0.193105
vt 0.933713 0.193105
vt 0.933713 0.193105
vt 0.933713 0.193105
vt 0.808713 0.568105
vt 0.808713 0.568105
vt 0.808713 0.568105
vt 0.808713 0.568105
vt 0.933713 0.193105
vt 0.933713 0.193105
vt 0.933713 0.193105
vt 0.933713 0.193105
vn 0.0143 0.0087 -0.9999
vn 0.0143 -0.7008 -0.7132
vn 0.0143 -0.9999 -0.0087
vn 0.0143 -0.7132 0.7008
vn 0.0143 -0.0087 0.9999
vn 0.0143 0.7008 0.7132
vn 1.0000 0.0000 0.0000
vn 0.0143 0.9999 0.0087
vn 0.0143 0.7132 -0.7008
vn -1.0000 0.0000 0.0000
usemtl Material.001
s off
f 1/1/1 2/2/1 4/3/1 3/4/1
f 3/4/2 4/3/2 6/5/2 5/6/2
f 5/6/3 6/5/3 8/7/3 7/8/3
f 7/8/4 8/7/4 10/9/4 9/10/4
f 9/10/5 10/9/5 12/11/5 11/12/5
f 11/12/6 12/11/6 14/13/6 13/14/6
f 34/15/7 33/16/7 40/17/7 39/18/7 38/19/7 37/20/7 36/21/7 35/22/7
f 13/14/8 14/13/8 16/23/8 15/24/8
f 15/24/9 16/23/9 2/2/9 1/1/9
f 17/25/10 18/26/10 19/27/10 20/28/10 21/29/10 22/30/10 23/31/10 24/32/10
f 31/33/10 30/34/10 19/35/10 18/36/10
f 32/37/10 31/33/10 18/36/10 17/38/10
f 29/39/10 28/40/10 21/41/10 20/42/10
f 28/40/10 27/43/10 22/44/10 21/41/10
f 5/45/10 7/46/10 29/47/10 30/48/10
f 30/34/10 29/39/10 20/42/10 19/35/10
f 27/43/10 26/49/10 23/50/10 22/44/10
f 25/51/10 32/37/10 17/38/10 24/52/10
f 13/53/10 15/54/10 25/55/10 26/56/10
f 26/49/10 25/51/10 24/52/10 23/50/10
f 9/57/10 11/58/10 27/59/10 28/60/10
f 1/61/10 3/62/10 31/63/10 32/64/10
f 7/46/10 9/57/10 28/60/10 29/47/10
f 11/58/10 13/53/10 26/56/10 27/59/10
f 3/62/10 5/45/10 30/48/10 31/63/10
f 15/54/10 1/61/10 32/64/10 25/55/10
f 45/65/7 46/66/7 35/67/7 36/68/7
f 10/69/7 8/70/7 45/71/7 44/72/7
f 2/73/7 16/74/7 41/75/7 48/76/7
f 47/77/7 48/78/7 33/79/7 34/80/7
f 43/81/7 44/82/7 37/83/7 38/84/7
f 6/85/7 4/86/7 47/87/7 46/88/7
f 41/89/7 42/90/7 39/91/7 40/92/7
f 44/82/7 45/65/7 36/68/7 37/83/7
f 8/70/7 6/85/7 46/88/7 45/71/7
f 42/90/7 43/81/7 38/84/7 39/91/7
f 46/66/7 47/77/7 34/80/7 35/67/7
f 16/74/7 14/93/7 42/94/7 41/75/7
f 4/86/7 2/73/7 48/76/7 47/87/7
f 48/78/7 41/89/7 40/92/7 33/79/7
f 14/93/7 12/95/7 43/96/7 42/94/7
f 12/95/7 10/69/7 44/72/7 43/96/7
