# Blender v2.83.5 OBJ File: 'mango02.blend'
# www.blender.org
mtllib mango02.mtl
o Cylinder
v -0.011709 0.037380 -0.040263
v 0.011709 0.037380 -0.047759
v -0.011709 0.014799 -0.028470
v 0.011709 0.010383 -0.033770
v -0.011709 0.004973 0.000000
v 0.011709 -0.001273 0.000000
v -0.011709 0.014799 0.028470
v 0.011709 0.010383 0.033770
v -0.011709 0.037380 0.040263
v 0.011709 0.037380 0.047759
v 0.031888 0.037380 -0.045611
v 0.031888 0.011649 -0.032252
v 0.031888 0.000517 0.000000
v 0.031888 0.011649 0.032252
v 0.031888 0.037380 0.045611
v 0.047254 0.037380 -0.038626
v 0.047254 0.015764 -0.027313
v 0.047254 0.006337 0.000000
v 0.047254 0.015764 0.027313
v 0.047254 0.037380 0.038626
v 0.063396 0.037380 -0.027374
v 0.063396 0.019497 -0.019356
v 0.063396 0.012816 0.000000
v 0.063396 0.019497 0.019356
v 0.063396 0.037380 0.027374
v 0.074266 0.037380 -0.019426
v 0.074266 0.024180 -0.013736
v 0.074266 0.019439 0.000000
v 0.074266 0.024180 0.013736
v 0.074266 0.037380 0.019426
v 0.080256 0.037380 -0.007529
v 0.080256 0.031189 -0.005324
v 0.080256 0.029352 0.000000
v 0.080256 0.031189 0.005324
v 0.080256 0.037380 0.007529
v -0.025172 0.037380 -0.025414
v -0.025172 0.023548 -0.017970
v -0.025172 0.017346 0.000000
v -0.025172 0.023548 0.017970
v -0.025172 0.037380 0.025414
v -0.031360 0.037380 -0.008362
v -0.031360 0.032005 -0.005913
v -0.031360 0.029964 0.000000
v -0.031360 0.032005 0.005913
v -0.031360 0.037380 0.008362
v 0.008606 0.037380 -0.012225
v 0.015345 0.037380 -0.015296
v 0.019497 0.037380 0.017838
v 0.007842 0.037380 0.016495
v 0.034790 0.037380 0.016958
v 0.030638 0.037380 -0.014416
v 0.042283 0.037380 0.015824
v 0.042283 0.037380 -0.011555
v 0.054517 0.037380 0.011214
v 0.054517 0.037380 -0.006945
v 0.062755 0.037380 0.007958
v 0.062755 0.037380 -0.003594
v 0.067295 0.037380 -0.000507
v 0.067295 0.037380 0.003085
v -0.012607 0.037380 0.010411
v 0.003803 0.037380 -0.006142
v -0.017296 0.037380 0.003426
v -0.000886 0.037380 0.003566
v 0.003478 0.040413 0.010030
v -0.004564 0.040413 0.007815
v 0.019765 0.040413 0.002474
v 0.062755 0.040413 0.002182
vt 0.435547 0.938594
vt 0.435547 0.938594
vt 0.435547 0.938594
vt 0.435547 0.938594
vt 0.435547 0.938594
vt 0.435547 0.938594
vt 0.435547 0.938594
vt 0.435547 0.938594
vt 0.435547 0.938594
vt 0.435547 0.938594
vt 0.437500 0.942500
vt 0.437500 0.942500
vt 0.437500 0.942500
vt 0.437500 0.942500
vt 0.560547 0.938594
vt 0.560547 0.938594
vt 0.560547 0.938594
vt 0.560547 0.938594
vt 0.560547 0.938594
vt 0.560547 0.938594
vt 0.560547 0.938594
vt 0.560547 0.938594
vt 0.560547 0.938594
vt 0.560547 0.938594
vt 0.560547 0.938594
vt 0.560547 0.938594
vt 0.560547 0.938594
vt 0.560547 0.938594
vt 0.560547 0.938594
vt 0.560547 0.813594
vt 0.560547 0.813594
vt 0.560547 0.813594
vt 0.560547 0.813594
vt 0.560547 0.813594
vt 0.560547 0.813594
vt 0.560547 0.813594
vt 0.560547 0.813594
vt 0.560547 0.813594
vt 0.560547 0.813594
vt 0.560547 0.688594
vt 0.560547 0.688594
vt 0.560547 0.688594
vt 0.560547 0.688594
vt 0.560547 0.688594
vt 0.560547 0.688594
vt 0.560547 0.688594
vt 0.560547 0.688594
vt 0.560547 0.688594
vt 0.560547 0.688594
vt 0.560547 0.688594
vt 0.560547 0.688594
vt 0.560547 0.688594
vt 0.560547 0.688594
vt 0.560547 0.688594
vt 0.437500 0.942500
vt 0.437500 0.942500
vt 0.437500 0.942500
vt 0.437500 0.942500
vt 0.437500 0.942500
vt 0.437500 0.942500
vt 0.437500 0.942500
vt 0.437500 0.942500
vt 0.437500 0.942500
vt 0.437500 0.942500
vt 0.437500 0.942500
vt 0.560547 0.690547
vt 0.560547 0.690547
vt 0.560547 0.690547
vt 0.560547 0.690547
vt 0.935547 0.815547
vt 0.935547 0.815547
vt 0.935547 0.815547
vt 0.935547 0.815547
vt 0.560547 0.690547
vt 0.560547 0.690547
vt 0.560547 0.690547
vt 0.560547 0.690547
vt 0.560547 0.690547
vt 0.560547 0.690547
vt 0.560547 0.690547
vt 0.560547 0.690547
vt 0.560547 0.690547
vt 0.560547 0.690547
vt 0.560547 0.690547
vt 0.560547 0.690547
vt 0.560547 0.690547
vt 0.560547 0.690547
vt 0.560547 0.690547
vt 0.560547 0.690547
vt 0.560547 0.690547
vt 0.560547 0.690547
vt 0.560547 0.690547
vt 0.560547 0.690547
vt 0.560547 0.690547
vt 0.560547 0.690547
vt 0.560547 0.690547
vt 0.560547 0.690547
vt 0.560547 0.690547
vt 0.560547 0.690547
vt 0.560547 0.690547
vt 0.560547 0.690547
vt 0.560547 0.690547
vt 0.560547 0.690547
vt 0.560547 0.690547
vt 0.560547 0.690547
vt 0.935547 0.815547
vt 0.935547 0.815547
vt 0.935547 0.815547
vt 0.935547 0.815547
vt 0.935547 0.815547
vt 0.935547 0.815547
vt 0.935547 0.815547
vt 0.935547 0.815547
vt 0.935547 0.815547
vt 0.935547 0.815547
vt 0.935547 0.815547
vt 0.935547 0.815547
vt 0.935547 0.815547
vt 0.935547 0.815547
vt 0.935547 0.815547
vt 0.935547 0.815547
vt 0.935547 0.815547
vt 0.935547 0.815547
vn -0.2749 -0.4436 -0.8530
vn -0.2444 -0.9166 -0.3164
vn -0.2444 -0.9166 0.3164
vn -0.2749 -0.4436 0.8530
vn -0.6558 -0.7136 -0.2463
vn 0.0947 -0.4583 0.8837
vn 0.0835 -0.9420 -0.3251
vn 0.0947 -0.4583 -0.8837
vn 0.0835 -0.9420 0.3251
vn 0.3371 -0.8900 0.3072
vn 0.3762 -0.4282 -0.8217
vn 0.3762 -0.4282 0.8217
vn 0.3371 -0.8900 -0.3072
vn 0.3548 -0.8838 0.3050
vn 0.5051 -0.3794 -0.7752
vn 0.5051 -0.3794 0.7752
vn 0.3548 -0.8838 -0.3050
vn 0.8731 -0.1839 -0.4516
vn 0.5496 -0.3371 0.7644
vn 0.4991 -0.8191 -0.2827
vn 0.4991 -0.8191 0.2827
vn 0.5496 -0.3371 -0.7644
vn 1.0000 0.0000 0.0000
vn 0.8731 -0.1839 0.4516
vn 0.8426 -0.5091 -0.1757
vn 0.8426 -0.5091 0.1757
vn -0.8877 -0.4353 -0.1502
vn -0.7015 -0.3329 -0.6302
vn -0.6558 -0.7136 0.2463
vn -0.7015 -0.3329 0.6302
vn -0.8877 -0.4353 0.1502
vn -0.9233 -0.1759 -0.3414
vn -0.9233 -0.1759 0.3414
vn -1.0000 0.0000 0.0000
vn 0.0000 1.0000 -0.0000
vn 0.0529 0.8339 -0.5494
vn 0.0112 0.9810 0.1939
vn -0.1480 0.8485 0.5080
vn 0.0572 0.9646 0.2574
vn -0.2904 0.9368 0.1949
vn 0.4466 0.7921 0.4160
vn -0.0163 0.9863 -0.1643
vn 0.0330 0.9672 0.2520
vn 0.3014 0.8442 -0.4433
vn 0.5556 0.8315 0.0000
vn 0.0328 0.9717 -0.2341
vn -0.1464 0.9759 -0.1616
usemtl Material
s off
f 1/1/1 2/2/1 4/3/1 3/4/1
f 3/4/2 4/3/2 6/5/2 5/6/2
f 5/6/3 6/5/3 8/7/3 7/8/3
f 7/8/4 8/7/4 10/9/4 9/10/4
f 3/11/5 5/12/5 38/13/5 37/14/5
f 10/15/6 8/16/6 14/17/6 15/18/6
f 6/19/7 4/20/7 12/21/7 13/22/7
f 4/20/8 2/23/8 11/24/8 12/21/8
f 8/16/9 6/19/9 13/22/9 14/17/9
f 14/17/10 13/22/10 18/25/10 19/26/10
f 12/21/11 11/24/11 16/27/11 17/28/11
f 15/18/12 14/17/12 19/26/12 20/29/12
f 13/22/13 12/21/13 17/28/13 18/25/13
f 19/30/14 18/31/14 23/32/14 24/33/14
f 17/34/15 16/35/15 21/36/15 22/37/15
f 20/38/16 19/30/16 24/33/16 25/39/16
f 18/31/17 17/34/17 22/37/17 23/32/17
f 27/40/18 26/41/18 31/42/18 32/43/18
f 25/44/19 24/45/19 29/46/19 30/47/19
f 23/48/20 22/49/20 27/40/20 28/50/20
f 24/45/21 23/48/21 28/50/21 29/46/21
f 22/49/22 21/51/22 26/41/22 27/40/22
f 32/43/23 31/42/23 35/52/23 34/53/23 33/54/23
f 30/47/24 29/46/24 34/53/24 35/52/24
f 28/50/25 27/40/25 32/43/25 33/54/25
f 29/46/26 28/50/26 33/54/26 34/53/26
f 37/14/27 38/13/27 43/55/27 42/56/27
f 1/57/28 3/11/28 37/14/28 36/58/28
f 5/12/29 7/59/29 39/60/29 38/13/29
f 7/59/30 9/61/30 40/62/30 39/60/30
f 38/13/31 39/60/31 44/63/31 43/55/31
f 36/58/32 37/14/32 42/56/32 41/64/32
f 39/60/33 40/62/33 45/65/33 44/63/33
f 41/64/34 42/56/34 43/55/34 44/63/34 45/65/34
f 36/66/35 41/67/35 63/68/35 61/69/35
f 64/70/36 63/71/36 62/72/36 65/73/36
f 2/74/35 1/75/35 46/76/35 47/77/35
f 31/78/35 26/79/35 57/80/35 58/81/35
f 41/67/35 45/82/35 62/83/35 63/68/35
f 10/84/35 15/85/35 50/86/35 48/87/35
f 26/79/35 21/88/35 55/89/35 57/80/35
f 15/85/35 20/90/35 52/91/35 50/86/35
f 9/92/35 10/84/35 48/87/35 49/93/35
f 30/94/35 35/95/35 59/96/35 56/97/35
f 20/90/35 25/98/35 54/99/35 52/91/35
f 40/100/35 9/92/35 49/93/35 60/101/35
f 11/102/35 2/74/35 47/77/35 51/103/35
f 1/75/35 36/66/35 61/69/35 46/76/35
f 16/104/35 11/102/35 51/103/35 53/105/35
f 45/82/35 40/100/35 60/101/35 62/83/35
f 25/98/35 30/94/35 56/97/35 54/99/35
f 21/88/35 16/104/35 53/105/35 55/89/35
f 35/95/35 31/78/35 58/81/35 59/96/35
f 66/106/37 48/107/37 50/108/37
f 49/109/38 64/70/38 65/73/38 60/110/38
f 66/106/39 64/70/39 49/109/39 48/107/39
f 60/110/40 65/73/40 62/72/40
f 67/111/41 56/112/41 59/113/41
f 47/114/42 46/115/42 66/106/42 51/116/42
f 66/106/43 50/108/43 52/117/43 54/118/43 56/112/43 67/111/43
f 57/119/44 67/111/44 58/120/44
f 58/120/45 67/111/45 59/113/45
f 51/116/46 66/106/46 67/111/46 57/119/46 55/121/46 53/122/46
f 46/115/47 61/123/47 63/71/47 64/70/47 66/106/47
