# Blender v2.83.5 OBJ File: 'mango03.blend'
# www.blender.org
mtllib mango03.mtl
o Cylinder
v -0.035287 0.006872 -0.003422
v -0.011869 -0.000624 -0.003422
v 0.008310 0.001524 -0.003422
v 0.026412 0.008509 -0.003422
v 0.042554 0.019761 -0.003422
v 0.050688 0.027709 -0.003422
v 0.056677 0.039606 -0.003422
v -0.048750 0.021721 -0.003422
v -0.054938 0.038773 -0.003422
v -0.004081 0.029297 -0.003422
v -0.015736 0.030640 -0.003422
v 0.011212 0.030177 -0.003422
v 0.018705 0.031311 -0.003422
v 0.030939 0.035921 -0.003422
v 0.039177 0.039177 -0.003422
v 0.043717 0.039797 -0.003422
v -0.036185 0.036724 -0.003422
v -0.040875 0.039456 -0.003422
v -0.035287 0.006872 0.003422
v -0.011869 -0.000624 0.003422
v 0.008310 0.001524 0.003422
v 0.026412 0.008509 0.003422
v 0.042554 0.019761 0.003422
v 0.050688 0.027709 0.003422
v 0.056677 0.039606 0.003422
v -0.048750 0.021721 0.003422
v -0.054938 0.038773 0.003422
v -0.004081 0.029297 0.003422
v -0.015736 0.030640 0.003422
v 0.011212 0.030177 0.003422
v 0.018705 0.031311 0.003422
v 0.030939 0.035921 0.003422
v 0.039177 0.039177 0.003422
v 0.043717 0.039797 0.003422
v -0.036185 0.036724 0.003422
v -0.040875 0.039456 0.003422
v 0.043717 0.041561 0.000000
v 0.039177 0.040942 0.000000
v 0.030939 0.037685 0.000000
v 0.018705 0.033076 0.000000
v 0.011212 0.031942 0.000000
v -0.004081 0.031062 0.000000
v -0.015736 0.032405 0.000000
v -0.036185 0.038488 0.000000
v -0.040875 0.041220 0.000000
v 0.053676 0.041466 0.000000
v -0.051852 0.040879 0.000000
vt 0.560547 0.690547
vt 0.560547 0.690547
vt 0.560547 0.690547
vt 0.560547 0.690547
vt 0.560547 0.690547
vt 0.560547 0.690547
vt 0.560547 0.690547
vt 0.560547 0.690547
vt 0.560547 0.690547
vt 0.560547 0.690547
vt 0.560547 0.690547
vt 0.560547 0.690547
vt 0.560547 0.690547
vt 0.560547 0.690547
vt 0.560547 0.690547
vt 0.560547 0.690547
vt 0.560547 0.690547
vt 0.560547 0.690547
vt 0.560547 0.690547
vt 0.560547 0.690547
vt 0.560547 0.690547
vt 0.560547 0.690547
vt 0.560547 0.690547
vt 0.560547 0.690547
vt 0.560547 0.690547
vt 0.560547 0.690547
vt 0.560547 0.690547
vt 0.560547 0.690547
vt 0.560547 0.690547
vt 0.560547 0.690547
vt 0.560547 0.690547
vt 0.560547 0.690547
vt 0.560547 0.690547
vt 0.560547 0.690547
vt 0.560547 0.690547
vt 0.560547 0.690547
vt 0.560547 0.690547
vt 0.560547 0.690547
vt 0.560547 0.690547
vt 0.560547 0.690547
vt 0.560547 0.690547
vt 0.560547 0.690547
vt 0.560547 0.690547
vt 0.560547 0.690547
vt 0.560547 0.690547
vt 0.560547 0.690547
vt 0.560547 0.690547
vn 0.0000 0.0000 -1.0000
vn 0.0000 -0.0000 1.0000
vn 0.0111 0.8857 0.4642
vn 0.2556 0.8593 0.4431
vn -0.9400 -0.3411 0.0000
vn -0.3048 -0.9524 0.0000
vn 0.4598 0.7893 0.4070
vn 0.1019 0.8842 0.4559
vn 0.1058 -0.9944 0.0000
vn -0.0358 0.8767 0.4796
vn -0.0511 0.8876 0.4577
vn 0.3600 -0.9330 0.0000
vn -0.1333 0.8809 0.4542
vn 0.5719 -0.8203 0.0000
vn -0.3176 0.8428 0.4346
vn 0.6989 -0.7152 0.0000
vn -0.3314 0.8386 0.4324
vn 0.8932 -0.4497 0.0000
vn -0.1205 0.8823 0.4550
vn -0.7409 -0.6717 0.0000
vn 0.4598 0.7893 -0.4070
vn 0.2556 0.8593 -0.4431
vn 0.1019 0.8842 -0.4559
vn -0.0511 0.8876 -0.4577
vn -0.1333 0.8809 -0.4542
vn -0.3176 0.8428 -0.4346
vn -0.3314 0.8386 -0.4324
vn -0.1205 0.8823 -0.4550
vn 0.0111 0.8857 -0.4642
vn -0.0358 0.8767 -0.4796
vn -0.5637 0.8260 0.0000
vn 0.5268 0.8500 0.0000
usemtl Material
s off
f 2/1/1 10/2/1 12/3/1 3/4/1
f 3/4/1 12/3/1 13/5/1 4/6/1
f 1/7/1 11/8/1 10/2/1 2/1/1
f 6/9/1 15/10/1 16/11/1 7/12/1
f 4/6/1 13/5/1 14/13/1 5/14/1
f 8/15/1 17/16/1 11/8/1 1/7/1
f 9/17/1 18/18/1 17/16/1 8/15/1
f 5/14/1 14/13/1 15/10/1 6/9/1
f 20/19/2 21/20/2 30/21/2 28/22/2
f 21/20/2 22/23/2 31/24/2 30/21/2
f 19/25/2 20/19/2 28/22/2 29/26/2
f 24/27/2 25/28/2 34/29/2 33/30/2
f 22/23/2 23/31/2 32/32/2 31/24/2
f 26/33/2 19/25/2 29/26/2 35/34/2
f 27/35/2 26/33/2 35/34/2 36/36/2
f 23/31/2 24/27/2 33/30/2 32/32/2
f 25/28/3 46/37/3 37/38/3 34/29/3
f 43/39/4 44/40/4 35/34/4 29/26/4
f 9/17/5 8/15/5 26/33/5 27/35/5
f 1/7/6 2/1/6 20/19/6 19/25/6
f 44/40/7 45/41/7 36/36/7 35/34/7
f 42/42/8 43/39/8 29/26/8 28/22/8
f 2/1/9 3/4/9 21/20/9 20/19/9
f 45/41/10 47/43/10 27/35/10 36/36/10
f 41/44/11 42/42/11 28/22/11 30/21/11
f 3/4/12 4/6/12 22/23/12 21/20/12
f 40/45/13 41/44/13 30/21/13 31/24/13
f 4/6/14 5/14/14 23/31/14 22/23/14
f 39/46/15 40/45/15 31/24/15 32/32/15
f 5/14/16 6/9/16 24/27/16 23/31/16
f 38/47/17 39/46/17 32/32/17 33/30/17
f 6/9/18 7/12/18 25/28/18 24/27/18
f 37/38/19 38/47/19 33/30/19 34/29/19
f 8/15/20 1/7/20 19/25/20 26/33/20
f 17/16/21 18/18/21 45/41/21 44/40/21
f 11/8/22 17/16/22 44/40/22 43/39/22
f 10/2/23 11/8/23 43/39/23 42/42/23
f 12/3/24 10/2/24 42/42/24 41/44/24
f 13/5/25 12/3/25 41/44/25 40/45/25
f 14/13/26 13/5/26 40/45/26 39/46/26
f 15/10/27 14/13/27 39/46/27 38/47/27
f 16/11/28 15/10/28 38/47/28 37/38/28
f 7/12/29 16/11/29 37/38/29 46/37/29
f 18/18/30 9/17/30 47/43/30 45/41/30
f 47/43/31 9/17/31 27/35/31
f 7/12/32 46/37/32 25/28/32
