# Blender v2.83.5 OBJ File: 'mushroom05.blend'
# www.blender.org
mtllib mushroom05.mtl
o Cylinder
v 0.003367 -0.020143 -0.006846
v 0.003367 -0.007737 -0.005724
v 0.003367 -0.020143 0.006846
v 0.003367 -0.007737 0.005724
v -0.001474 -0.020143 0.004841
v -0.000681 -0.007737 0.004047
v -0.003479 -0.020143 -0.000000
v -0.002357 -0.007737 -0.000000
v -0.001474 -0.020143 -0.004841
v -0.000681 -0.007737 -0.004047
v 0.003367 -0.006325 -0.011295
v 0.003367 -0.006325 0.011295
v -0.004620 -0.006325 0.007987
v -0.007929 -0.006325 -0.000000
v -0.004620 -0.006325 -0.007987
v 0.003367 -0.003320 -0.016411
v 0.003367 -0.003320 0.016411
v -0.008238 -0.003320 0.011605
v -0.013044 -0.003320 -0.000000
v -0.008238 -0.003320 -0.011605
v 0.003367 0.001659 -0.017278
v 0.003367 0.001659 0.017278
v -0.008851 0.001659 0.012218
v -0.013911 0.001659 -0.000000
v -0.008851 0.001659 -0.012218
v 0.003367 0.007580 -0.017278
v 0.003367 0.007580 0.017278
v -0.008851 0.007580 0.012218
v -0.013911 0.007580 -0.000000
v -0.008851 0.007580 -0.012218
v 0.003367 0.012998 -0.012610
v 0.003367 0.012998 0.012610
v -0.005550 0.012998 0.008917
v -0.009244 0.012998 -0.000000
v -0.005550 0.012998 -0.008917
v 0.003367 0.015478 -0.004599
v 0.003367 0.015478 0.004599
v 0.000115 0.015478 0.003252
v -0.001233 0.015478 -0.000000
v 0.000115 0.015478 -0.003252
v 0.003367 0.003871 0.005162
v 0.003367 0.003871 -0.005162
v 0.003367 0.000602 -0.005443
v 0.003367 0.000602 0.005443
v 0.003367 0.002817 0.005302
v 0.003367 -0.004823 0.013853
v 0.003367 -0.005574 0.012574
v 0.003367 -0.004823 -0.013853
v 0.003367 -0.005574 -0.012574
v 0.003367 0.000868 0.011878
v 0.003367 0.002817 -0.005302
v 0.003367 -0.000021 0.009837
v 0.003367 0.000868 -0.011878
v 0.003367 -0.000021 -0.009837
v 0.003367 0.002368 -0.009913
v 0.003367 0.001474 -0.011668
v 0.003367 0.002519 -0.012564
v 0.003367 0.003010 -0.009876
v 0.003367 0.001474 0.011668
v 0.003367 0.002368 0.009913
v 0.003367 0.003010 0.009876
v 0.003367 0.002519 0.012564
v 0.003367 -0.003400 0.013360
v 0.003367 -0.004186 0.011890
v 0.003367 -0.004186 -0.011890
v 0.003367 -0.003400 -0.013360
vt 0.687500 0.192500
vt 0.687500 0.192500
vt 0.687500 0.192500
vt 0.687500 0.192500
vt 0.687500 0.192500
vt 0.687500 0.192500
vt 0.687500 0.192500
vt 0.687500 0.192500
vt 0.687500 0.192500
vt 0.687500 0.192500
vt 0.812500 0.192500
vt 0.812500 0.192500
vt 0.812500 0.192500
vt 0.812500 0.192500
vt 0.812500 0.192500
vt 0.812500 0.192500
vt 0.812500 0.192500
vt 0.812500 0.192500
vt 0.812500 0.192500
vt 0.812500 0.192500
vt 0.812500 0.192500
vt 0.812500 0.192500
vt 0.812500 0.192500
vt 0.812500 0.192500
vt 0.812500 0.192500
vt 0.812500 0.192500
vt 0.812500 0.192500
vt 0.812500 0.192500
vt 0.812500 0.192500
vt 0.812500 0.192500
vt 0.812500 0.192500
vt 0.812500 0.192500
vt 0.812500 0.192500
vt 0.812500 0.192500
vt 0.812500 0.192500
vt 0.812500 0.192500
vt 0.812500 0.192500
vt 0.812500 0.192500
vt 0.812500 0.192500
vt 0.812500 0.192500
vt 0.812500 0.192500
vt 0.812500 0.192500
vt 0.812500 0.192500
vt 0.812500 0.192500
vt 0.807554 0.187284
vt 0.807554 0.187284
vt 0.807554 0.187284
vt 0.807554 0.187284
vt 0.812500 0.192500
vt 0.812500 0.192500
vt 0.812500 0.192500
vt 0.812500 0.192500
vt 0.812500 0.192500
vt 0.078125 0.817500
vt 0.078125 0.817500
vt 0.078125 0.817500
vt 0.078125 0.817500
vt 0.078125 0.817500
vt 0.078125 0.817500
vt 0.750000 0.192500
vt 0.812500 0.192500
vt 0.078125 0.817500
vt 0.078125 0.817500
vt 0.078125 0.817500
vt 0.078125 0.817500
vt 0.078125 0.817500
vt 0.078125 0.817500
vt 0.812500 0.192500
vt 0.812500 0.192500
vt 0.762159 0.192500
vt 0.758722 0.192500
vt 0.734375 0.192500
vt 0.776024 0.192500
vt 0.078125 0.817500
vt 0.078125 0.817500
vt 0.718750 0.192500
vt 0.775841 0.192500
vt 0.803335 0.192500
vt 0.812500 0.192500
vt 0.812500 0.192500
vt 0.812500 0.192500
vt 0.800781 0.192500
vt 0.789062 0.192500
vt 0.786566 0.192500
vt 0.788182 0.192500
vt 0.812500 0.192500
vt 0.812500 0.192500
vt 0.812500 0.192500
vt 0.812500 0.192500
vt 0.781250 0.192500
vt 0.781250 0.192500
vt 0.812500 0.192500
vt 0.803617 0.181920
vt 0.803617 0.181920
vt 0.803617 0.181920
vt 0.803617 0.181920
vt 0.078125 0.817500
vt 0.078125 0.817500
vn -0.3814 0.0833 0.9207
vn -0.9207 0.0833 0.3814
vn -0.9207 0.0833 -0.3814
vn -0.3814 0.0833 -0.9207
vn -0.2053 -0.8439 -0.4957
vn -0.2444 -0.9644 -0.1012
vn -0.1012 -0.9644 0.2444
vn -0.1012 -0.9644 -0.2444
vn -0.2444 -0.9644 0.1012
vn -0.3778 -0.1588 0.9122
vn -0.4957 -0.8439 0.2053
vn -0.4957 -0.8439 -0.2053
vn -0.2053 -0.8439 0.4957
vn -0.9239 0.0000 -0.3827
vn -0.3778 -0.1588 -0.9122
vn -0.9122 -0.1588 0.3778
vn -0.9122 -0.1588 -0.3778
vn -0.7229 0.6227 0.2994
vn -0.3827 0.0000 0.9239
vn -0.3827 0.0000 -0.9239
vn -0.9239 0.0000 0.3827
vn -0.7229 0.6227 -0.2994
vn -0.2994 0.6227 0.7229
vn -0.2994 0.6227 -0.7229
vn 1.0000 -0.0000 0.0000
vn -0.1216 0.9482 -0.2935
vn -0.2935 0.9482 0.1216
vn 0.0000 1.0000 0.0000
vn -0.2935 0.9482 -0.1216
vn -0.1216 0.9482 0.2935
vn 0.0000 -1.0000 0.0000
usemtl Material.001
s off
f 3/1/1 4/2/1 6/3/1 5/4/1
f 5/4/2 6/3/2 8/5/2 7/6/2
f 7/6/3 8/5/3 10/7/3 9/8/3
f 9/8/4 10/7/4 2/9/4 1/10/4
f 11/11/5 15/12/5 20/13/5 16/14/5 48/15/5 49/16/5
f 10/17/6 8/18/6 14/19/6 15/12/6
f 6/20/7 4/21/7 12/22/7 13/23/7
f 2/24/8 10/17/8 15/12/8 11/11/8
f 8/18/9 6/20/9 13/23/9 14/19/9
f 18/25/10 17/26/10 22/27/10 23/28/10
f 14/19/11 13/23/11 18/25/11 19/29/11
f 15/12/12 14/19/12 19/29/12 20/13/12
f 13/23/13 12/22/13 47/30/13 46/31/13 17/26/13 18/25/13
f 25/32/14 24/33/14 29/34/14 30/35/14
f 16/14/15 20/13/15 25/32/15 21/36/15
f 19/29/16 18/25/16 23/28/16 24/33/16
f 20/13/17 19/29/17 24/33/17 25/32/17
f 29/34/18 28/37/18 33/38/18 34/39/18
f 23/28/19 22/27/19 27/40/19 28/37/19
f 21/36/20 25/32/20 30/35/20 26/41/20
f 24/33/21 23/28/21 28/37/21 29/34/21
f 30/35/22 29/34/22 34/39/22 35/42/22
f 28/37/23 27/40/23 32/43/23 33/38/23
f 26/41/24 30/35/24 35/42/24 31/44/24
f 65/45/25 49/46/25 48/47/25 66/48/25
f 31/44/26 35/42/26 40/49/26 36/50/26
f 34/39/27 33/38/27 38/51/27 39/52/27
f 37/53/28 36/50/28 40/49/28 39/52/28 38/51/28
f 35/42/29 34/39/29 39/52/29 40/49/29
f 33/38/30 32/43/30 37/53/30 38/51/30
f 44/54/25 45/55/25 60/56/25 59/57/25 50/58/25 52/59/25
f 41/60/25 42/61/25 36/50/25 37/53/25
f 56/62/25 55/63/25 51/64/25 43/65/25 54/66/25 53/67/25
f 42/61/25 58/68/25 57/69/25 21/36/25 26/41/25 31/44/25 36/50/25
f 61/70/25 60/71/25 45/72/25 41/60/25
f 41/60/25 37/53/25 32/43/25 27/40/25 22/27/25 62/73/25 61/70/25
f 64/74/25 52/59/25 50/58/25 63/75/25
f 4/2/25 44/76/25 52/77/25 64/78/25 47/30/25 12/22/25
f 57/69/25 56/79/25 53/80/25 66/81/25 48/15/25 16/14/25 21/36/25
f 46/31/25 63/82/25 50/83/25 59/84/25 62/85/25 22/27/25 17/26/25
f 2/24/25 11/11/25 49/16/25 65/86/25 54/87/25 43/88/25
f 55/89/25 56/79/25 57/69/25 58/68/25
f 59/84/25 60/90/25 61/91/25 62/85/25
f 51/92/25 55/89/25 58/68/25 42/61/25
f 47/93/25 64/94/25 63/95/25 46/96/25
f 54/66/25 65/97/25 66/98/25 53/67/25
f 3/1/31 5/4/31 7/6/31 9/8/31 1/10/31
f 45/72/25 51/92/25 42/61/25 41/60/25
f 44/76/25 43/88/25 51/92/25 45/72/25
f 2/24/25 43/88/25 44/76/25 4/2/25
f 1/10/25 2/24/25 4/2/25 3/1/25
