# Blender v2.83.5 OBJ File: 'mushroom04.blend'
# www.blender.org
mtllib mushroom04.mtl
o Cylinder
v -0.000000 -0.020167 -0.006846
v -0.000000 -0.007761 -0.005724
v 0.004841 -0.020167 -0.004841
v 0.004047 -0.007761 -0.004047
v 0.006846 -0.020167 0.000000
v 0.005724 -0.007761 0.000000
v 0.004841 -0.020167 0.004841
v 0.004047 -0.007761 0.004047
v -0.000000 -0.020167 0.006846
v -0.000000 -0.007761 0.005724
v -0.004841 -0.020167 0.004841
v -0.004047 -0.007761 0.004047
v -0.006846 -0.020167 -0.000000
v -0.005724 -0.007761 -0.000000
v -0.004841 -0.020167 -0.004841
v -0.004047 -0.007761 -0.004047
v 0.007987 -0.006349 -0.007987
v 0.000000 -0.006349 -0.011295
v 0.011295 -0.006349 0.000000
v 0.007987 -0.006349 0.007987
v -0.000000 -0.006349 0.011295
v -0.007987 -0.006349 0.007987
v -0.011295 -0.006349 -0.000000
v -0.007987 -0.006349 -0.007987
v 0.011605 -0.003344 -0.011605
v 0.000000 -0.003344 -0.016411
v 0.016411 -0.003344 0.000000
v 0.011605 -0.003344 0.011605
v -0.000000 -0.003344 0.016411
v -0.011605 -0.003344 0.011605
v -0.016411 -0.003344 -0.000000
v -0.011605 -0.003344 -0.011605
v 0.012218 0.001635 -0.012218
v 0.000000 0.001635 -0.017278
v 0.017278 0.001635 0.000000
v 0.012218 0.001635 0.012218
v -0.000000 0.001635 0.017278
v -0.012218 0.001635 0.012218
v -0.017278 0.001635 -0.000000
v -0.012218 0.001635 -0.012218
v 0.012218 0.007556 -0.012218
v 0.000000 0.007556 -0.017278
v 0.017278 0.007556 0.000000
v 0.012218 0.007556 0.012218
v -0.000000 0.007556 0.017278
v -0.012218 0.007556 0.012218
v -0.017278 0.007556 -0.000000
v -0.012218 0.007556 -0.012218
v 0.008917 0.012975 -0.008917
v 0.000000 0.012975 -0.012610
v 0.012610 0.012975 0.000000
v 0.008917 0.012975 0.008917
v -0.000000 0.012975 0.012610
v -0.008917 0.012975 0.008917
v -0.012610 0.012975 -0.000000
v -0.008917 0.012975 -0.008917
v 0.003252 0.015455 -0.003252
v 0.000000 0.015455 -0.004599
v 0.004599 0.015455 0.000000
v 0.003252 0.015455 0.003252
v -0.000000 0.015455 0.004599
v -0.003252 0.015455 0.003252
v -0.004599 0.015455 -0.000000
v -0.003252 0.015455 -0.003252
vt 0.687500 0.192500
vt 0.687500 0.192500
vt 0.687500 0.192500
vt 0.687500 0.192500
vt 0.687500 0.192500
vt 0.687500 0.192500
vt 0.687500 0.192500
vt 0.687500 0.192500
vt 0.687500 0.192500
vt 0.687500 0.192500
vt 0.687500 0.192500
vt 0.687500 0.192500
vt 0.687500 0.192500
vt 0.687500 0.192500
vt 0.812500 0.192500
vt 0.812500 0.192500
vt 0.812500 0.192500
vt 0.812500 0.192500
vt 0.687500 0.192500
vt 0.687500 0.192500
vt 0.937500 0.192500
vt 0.937500 0.192500
vt 0.937500 0.192500
vt 0.937500 0.192500
vt 0.937500 0.192500
vt 0.937500 0.192500
vt 0.937500 0.192500
vt 0.937500 0.192500
vt 0.812500 0.192500
vt 0.812500 0.192500
vt 0.812500 0.192500
vt 0.812500 0.192500
vt 0.812500 0.192500
vt 0.812500 0.192500
vt 0.812500 0.192500
vt 0.812500 0.192500
vt 0.812500 0.192500
vt 0.812500 0.192500
vt 0.812500 0.192500
vt 0.812500 0.192500
vt 0.812500 0.192500
vt 0.812500 0.192500
vt 0.812500 0.192500
vt 0.812500 0.192500
vt 0.812500 0.192500
vt 0.812500 0.192500
vt 0.812500 0.192500
vt 0.812500 0.192500
vt 0.812500 0.192500
vt 0.812500 0.192500
vt 0.812500 0.192500
vt 0.812500 0.192500
vt 0.812500 0.192500
vt 0.812500 0.192500
vt 0.812500 0.192500
vt 0.812500 0.192500
vt 0.812500 0.192500
vt 0.812500 0.192500
vt 0.812500 0.192500
vt 0.812500 0.192500
vt 0.812500 0.192500
vt 0.812500 0.192500
vt 0.812500 0.192500
vt 0.812500 0.192500
vt 0.812500 0.192500
vt 0.812500 0.192500
vt 0.812500 0.192500
vt 0.812500 0.192500
vt 0.812500 0.192500
vt 0.812500 0.192500
vt 0.812500 0.192500
vt 0.812500 0.192500
vt 0.812500 0.192500
vt 0.812500 0.192500
vt 0.812500 0.192500
vt 0.812500 0.192500
vt 0.812500 0.192500
vt 0.812500 0.192500
vt 0.812500 0.192500
vt 0.812500 0.192500
vn 0.3814 0.0833 -0.9207
vn 0.9207 0.0833 -0.3814
vn 0.9207 0.0833 0.3814
vn 0.3814 0.0833 0.9207
vn -0.3814 0.0833 0.9207
vn -0.9207 0.0833 0.3814
vn 0.1012 -0.9644 0.2444
vn -0.9207 0.0833 -0.3814
vn -0.3814 0.0833 -0.9207
vn 0.0000 -1.0000 0.0000
vn -0.2053 -0.8439 -0.4957
vn -0.2444 -0.9644 -0.1012
vn 0.2444 -0.9644 -0.1012
vn -0.1012 -0.9644 0.2444
vn -0.1012 -0.9644 -0.2444
vn 0.1012 -0.9644 -0.2444
vn 0.2444 -0.9644 0.1012
vn -0.2444 -0.9644 0.1012
vn -0.3778 -0.1588 0.9122
vn -0.4957 -0.8439 0.2053
vn 0.2053 -0.8439 0.4957
vn 0.4957 -0.8439 -0.2053
vn -0.4957 -0.8439 -0.2053
vn -0.2053 -0.8439 0.4957
vn 0.4957 -0.8439 0.2053
vn 0.2053 -0.8439 -0.4957
vn -0.9239 0.0000 -0.3827
vn 0.9122 -0.1588 0.3778
vn 0.3778 -0.1588 -0.9122
vn -0.3778 -0.1588 -0.9122
vn -0.9122 -0.1588 0.3778
vn 0.3778 -0.1588 0.9122
vn 0.9122 -0.1588 -0.3778
vn -0.9122 -0.1588 -0.3778
vn -0.7229 0.6227 0.2994
vn -0.3827 0.0000 0.9239
vn 0.9239 0.0000 0.3827
vn 0.3827 0.0000 -0.9239
vn -0.3827 0.0000 -0.9239
vn -0.9239 0.0000 0.3827
vn 0.3827 0.0000 0.9239
vn 0.9239 0.0000 -0.3827
vn 0.1216 0.9482 -0.2935
vn 0.2994 0.6227 0.7229
vn 0.7229 0.6227 -0.2994
vn -0.7229 0.6227 -0.2994
vn -0.2994 0.6227 0.7229
vn 0.7229 0.6227 0.2994
vn 0.2994 0.6227 -0.7229
vn -0.2994 0.6227 -0.7229
vn 0.0000 1.0000 -0.0000
vn -0.1216 0.9482 -0.2935
vn -0.2935 0.9482 0.1216
vn 0.1216 0.9482 0.2935
vn 0.2935 0.9482 -0.1216
vn -0.2935 0.9482 -0.1216
vn -0.1216 0.9482 0.2935
vn 0.2935 0.9482 0.1216
usemtl Material.001
s off
f 1/1/1 2/2/1 4/3/1 3/4/1
f 3/4/2 4/3/2 6/5/2 5/6/2
f 5/6/3 6/5/3 8/7/3 7/8/3
f 7/8/4 8/7/4 10/9/4 9/10/4
f 9/10/5 10/9/5 12/11/5 11/12/5
f 11/12/6 12/11/6 14/13/6 13/14/6
f 10/15/7 8/16/7 20/17/7 21/18/7
f 13/14/8 14/13/8 16/19/8 15/20/8
f 15/20/9 16/19/9 2/2/9 1/1/9
f 1/21/10 3/22/10 5/23/10 7/24/10 9/25/10 11/26/10 13/27/10 15/28/10
f 18/29/11 24/30/11 32/31/11 26/32/11
f 16/33/12 14/34/12 23/35/12 24/30/12
f 6/36/13 4/37/13 17/38/13 19/39/13
f 12/40/14 10/15/14 21/18/14 22/41/14
f 2/42/15 16/33/15 24/30/15 18/29/15
f 4/37/16 2/42/16 18/29/16 17/38/16
f 8/16/17 6/36/17 19/39/17 20/17/17
f 14/34/18 12/40/18 22/41/18 23/35/18
f 30/43/19 29/44/19 37/45/19 38/46/19
f 23/35/20 22/41/20 30/43/20 31/47/20
f 21/18/21 20/17/21 28/48/21 29/44/21
f 19/39/22 17/38/22 25/49/22 27/50/22
f 24/30/23 23/35/23 31/47/23 32/31/23
f 22/41/24 21/18/24 29/44/24 30/43/24
f 20/17/25 19/39/25 27/50/25 28/48/25
f 17/38/26 18/29/26 26/32/26 25/49/26
f 40/51/27 39/52/27 47/53/27 48/54/27
f 28/48/28 27/50/28 35/55/28 36/56/28
f 25/49/29 26/32/29 34/57/29 33/58/29
f 26/32/30 32/31/30 40/51/30 34/57/30
f 31/47/31 30/43/31 38/46/31 39/52/31
f 29/44/32 28/48/32 36/56/32 37/45/32
f 27/50/33 25/49/33 33/58/33 35/55/33
f 32/31/34 31/47/34 39/52/34 40/51/34
f 47/53/35 46/59/35 54/60/35 55/61/35
f 38/46/36 37/45/36 45/62/36 46/59/36
f 36/56/37 35/55/37 43/63/37 44/64/37
f 33/58/38 34/57/38 42/65/38 41/66/38
f 34/57/39 40/51/39 48/54/39 42/65/39
f 39/52/40 38/46/40 46/59/40 47/53/40
f 37/45/41 36/56/41 44/64/41 45/62/41
f 35/55/42 33/58/42 41/66/42 43/63/42
f 49/67/43 50/68/43 58/69/43 57/70/43
f 45/62/44 44/64/44 52/71/44 53/72/44
f 43/63/45 41/66/45 49/67/45 51/73/45
f 48/54/46 47/53/46 55/61/46 56/74/46
f 46/59/47 45/62/47 53/72/47 54/60/47
f 44/64/48 43/63/48 51/73/48 52/71/48
f 41/66/49 42/65/49 50/68/49 49/67/49
f 42/65/50 48/54/50 56/74/50 50/68/50
f 57/70/51 58/69/51 64/75/51 63/76/51 62/77/51 61/78/51 60/79/51 59/80/51
f 50/68/52 56/74/52 64/75/52 58/69/52
f 55/61/53 54/60/53 62/77/53 63/76/53
f 53/72/54 52/71/54 60/79/54 61/78/54
f 51/73/55 49/67/55 57/70/55 59/80/55
f 56/74/56 55/61/56 63/76/56 64/75/56
f 54/60/57 53/72/57 61/78/57 62/77/57
f 52/71/58 51/73/58 59/80/58 60/79/58
