# Blender v2.83.5 OBJ File: 'onion01.blend'
# www.blender.org
mtllib onion01.mtl
o Cylinder.001_Cylinder.002
v 0.000000 -0.035594 -0.012528
v 0.000000 -0.032718 -0.014690
v 0.008859 -0.035594 -0.008859
v 0.010388 -0.032718 -0.010388
v 0.012528 -0.035594 0.000000
v 0.014690 -0.032718 0.000000
v 0.008859 -0.035594 0.008859
v 0.010388 -0.032718 0.010388
v -0.000000 -0.035594 0.012528
v -0.000000 -0.032718 0.014690
v -0.008859 -0.035594 0.008859
v -0.010388 -0.032718 0.010388
v -0.012528 -0.035594 -0.000000
v -0.014690 -0.032718 -0.000000
v -0.008859 -0.035594 -0.008859
v -0.010388 -0.032718 -0.010388
v 0.000000 -0.029638 -0.020662
v 0.014610 -0.029638 -0.014610
v 0.020662 -0.029638 0.000000
v 0.014610 -0.029638 0.014610
v -0.000000 -0.029638 0.020662
v -0.014610 -0.029638 0.014610
v -0.020662 -0.029638 -0.000000
v -0.014610 -0.029638 -0.014610
v 0.000000 -0.022560 -0.027954
v 0.019767 -0.022560 -0.019767
v 0.027954 -0.022560 0.000000
v 0.019767 -0.022560 0.019767
v -0.000000 -0.022560 0.027954
v -0.019767 -0.022560 0.019767
v -0.027954 -0.022560 -0.000000
v -0.019767 -0.022560 -0.019767
v 0.000000 -0.010127 -0.034586
v 0.024456 -0.010127 -0.024456
v 0.034586 -0.010127 0.000000
v 0.024456 -0.010127 0.024456
v -0.000000 -0.010127 0.034586
v -0.024456 -0.010127 0.024456
v -0.034586 -0.010127 -0.000000
v -0.024456 -0.010127 -0.024456
v 0.000000 0.001979 -0.034586
v 0.024456 0.001979 -0.024456
v 0.034586 0.001979 0.000000
v 0.024456 0.001979 0.024456
v -0.000000 0.001979 0.034586
v -0.024456 0.001979 0.024456
v -0.034586 0.001979 -0.000000
v -0.024456 0.001979 -0.024456
v 0.000000 0.013812 -0.024482
v 0.017312 0.013812 -0.017312
v 0.024482 0.013812 0.000000
v 0.017312 0.013812 0.017312
v -0.000000 0.013812 0.024482
v -0.017312 0.013812 0.017312
v -0.024482 0.013812 -0.000000
v -0.017312 0.013812 -0.017312
v 0.000000 0.019366 -0.012926
v 0.009140 0.019366 -0.009140
v 0.012926 0.019366 0.000000
v 0.009140 0.019366 0.009140
v -0.000000 0.019366 0.012926
v -0.009140 0.019366 0.009140
v -0.012926 0.019366 0.000000
v -0.009140 0.019366 -0.009140
v 0.000000 0.025648 -0.006773
v 0.004789 0.025648 -0.004789
v 0.006773 0.025648 0.000000
v 0.004789 0.025648 0.004789
v 0.000000 0.025648 0.006773
v -0.004789 0.025648 0.004789
v -0.006773 0.025648 0.000000
v -0.004789 0.025648 -0.004789
v 0.000000 0.031958 -0.003930
v 0.002779 0.031958 -0.002779
v 0.003930 0.031958 0.000000
v 0.002779 0.031958 0.002779
v 0.000000 0.031958 0.003930
v -0.002779 0.031958 0.002779
v -0.003930 0.031958 0.000000
v -0.002779 0.031958 -0.002779
v -0.000000 0.037872 -0.001473
v 0.001042 0.037872 -0.001042
v 0.001473 0.037872 0.000000
v 0.001042 0.037872 0.001042
v -0.000000 0.037872 0.001473
v -0.001042 0.037872 0.001042
v -0.001473 0.037872 0.000000
v -0.001042 0.037872 -0.001042
vt 0.684790 0.315461
vt 0.684790 0.315461
vt 0.684790 0.315461
vt 0.684790 0.315461
vt 0.684790 0.315461
vt 0.684790 0.315461
vt 0.684790 0.315461
vt 0.684790 0.315461
vt 0.684790 0.315461
vt 0.684790 0.315461
vt 0.684790 0.315461
vt 0.684790 0.315461
vt 0.684790 0.315461
vt 0.684790 0.315461
vt 0.684790 0.315461
vt 0.684790 0.315461
vt 0.684790 0.315461
vt 0.684790 0.315461
vt 0.432860 0.309376
vt 0.432860 0.309376
vt 0.432860 0.309376
vt 0.432860 0.309376
vt 0.432860 0.309376
vt 0.432860 0.309376
vt 0.432860 0.309376
vt 0.432860 0.309376
vt 0.684790 0.315461
vt 0.684790 0.315461
vt 0.684790 0.315461
vt 0.684790 0.315461
vt 0.684790 0.315461
vt 0.684790 0.315461
vt 0.684790 0.315461
vt 0.684790 0.315461
vt 0.684790 0.315461
vt 0.684790 0.315461
vt 0.684790 0.315461
vt 0.684790 0.315461
vt 0.684790 0.315461
vt 0.684790 0.315461
vt 0.684790 0.315461
vt 0.684790 0.315461
vt 0.684790 0.315461
vt 0.684790 0.315461
vt 0.684790 0.315461
vt 0.684790 0.315461
vt 0.684790 0.315461
vt 0.684790 0.315461
vt 0.684790 0.315461
vt 0.684790 0.315461
vt 0.684790 0.315461
vt 0.684790 0.315461
vt 0.684790 0.315461
vt 0.684790 0.315461
vt 0.684790 0.315461
vt 0.684790 0.315461
vt 0.684790 0.315461
vt 0.684790 0.315461
vt 0.684790 0.315461
vt 0.684790 0.315461
vt 0.684790 0.315461
vt 0.684790 0.315461
vt 0.684790 0.315461
vt 0.684790 0.315461
vt 0.684790 0.315461
vt 0.684790 0.315461
vt 0.684790 0.315461
vt 0.684790 0.315461
vt 0.684790 0.315461
vt 0.684790 0.315461
vt 0.684790 0.315461
vt 0.684790 0.315461
vt 0.684790 0.315461
vt 0.684790 0.315461
vt 0.684790 0.315461
vt 0.684790 0.315461
vt 0.684790 0.315461
vt 0.684790 0.315461
vt 0.684790 0.315461
vt 0.684790 0.315461
vt 0.684790 0.315461
vt 0.684790 0.315461
vt 0.684790 0.315461
vt 0.684790 0.315461
vt 0.684790 0.315461
vt 0.684790 0.315461
vt 0.684790 0.315461
vt 0.684790 0.315461
vt 0.684790 0.315461
vt 0.684790 0.315461
vt 0.684790 0.315461
vt 0.684790 0.315461
vt 0.684790 0.315461
vt 0.684790 0.315461
vt 0.684790 0.315461
vt 0.684790 0.315461
vn 0.3143 -0.5703 -0.7589
vn 0.7589 -0.5703 -0.3143
vn 0.7589 -0.5703 0.3143
vn 0.3143 -0.5703 0.7589
vn -0.3143 -0.5703 0.7589
vn -0.7589 -0.5703 0.3143
vn -0.1865 -0.8732 -0.4503
vn -0.7589 -0.5703 -0.3143
vn -0.3143 -0.5703 -0.7589
vn 0.0000 -1.0000 0.0000
vn -0.6692 -0.6894 -0.2772
vn 0.1865 -0.8732 -0.4503
vn 0.4503 -0.8732 0.1865
vn -0.4503 -0.8732 0.1865
vn 0.1865 -0.8732 0.4503
vn -0.4503 -0.8732 -0.1865
vn 0.4503 -0.8732 -0.1865
vn -0.1865 -0.8732 0.4503
vn -0.8287 -0.4420 0.3433
vn -0.2772 -0.6894 0.6692
vn 0.6692 -0.6894 0.2772
vn 0.2772 -0.6894 -0.6692
vn -0.2772 -0.6894 -0.6692
vn -0.6692 -0.6894 0.2772
vn 0.2772 -0.6894 0.6692
vn 0.6692 -0.6894 -0.2772
vn 0.3827 0.0000 -0.9239
vn 0.3433 -0.4420 0.8287
vn 0.8287 -0.4420 -0.3433
vn -0.8287 -0.4420 -0.3433
vn -0.3433 -0.4420 0.8287
vn 0.8287 -0.4420 0.3433
vn 0.3433 -0.4420 -0.8287
vn -0.3433 -0.4420 -0.8287
vn -0.7254 0.6193 -0.3005
vn -0.3827 0.0000 -0.9239
vn -0.9239 0.0000 0.3827
vn 0.3827 0.0000 0.9239
vn 0.9239 0.0000 -0.3827
vn -0.9239 0.0000 -0.3827
vn -0.3827 0.0000 0.9239
vn 0.9239 0.0000 0.3827
vn 0.4263 0.8872 -0.1766
vn -0.3005 0.6193 0.7254
vn 0.7254 0.6193 0.3005
vn 0.3005 0.6193 -0.7254
vn -0.3005 0.6193 -0.7254
vn -0.7254 0.6193 0.3005
vn 0.3005 0.6193 0.7254
vn 0.7254 0.6193 -0.3005
vn -0.2838 0.6710 -0.6850
vn -0.4263 0.8872 -0.1766
vn -0.1766 0.8872 0.4263
vn 0.4263 0.8872 0.1766
vn 0.1766 0.8872 -0.4263
vn -0.1766 0.8872 -0.4263
vn -0.4263 0.8872 0.1766
vn 0.1766 0.8872 0.4263
vn 0.8529 0.3843 0.3533
vn -0.6850 0.6710 0.2838
vn 0.2838 0.6710 0.6850
vn 0.6850 0.6710 -0.2838
vn -0.6850 0.6710 -0.2838
vn -0.2838 0.6710 0.6850
vn 0.6850 0.6710 0.2838
vn 0.2838 0.6710 -0.6850
vn -0.8625 0.3583 -0.3573
vn 0.3533 0.3843 -0.8530
vn -0.3533 0.3843 -0.8529
vn -0.8529 0.3843 0.3533
vn 0.3533 0.3843 0.8529
vn 0.8529 0.3843 -0.3533
vn -0.8529 0.3843 -0.3533
vn -0.3533 0.3843 0.8529
vn 0.0000 1.0000 0.0000
vn -0.3573 0.3583 0.8625
vn 0.8625 0.3583 0.3573
vn 0.3573 0.3583 -0.8625
vn -0.3573 0.3583 -0.8625
vn -0.8625 0.3583 0.3573
vn 0.3573 0.3583 0.8625
vn 0.8625 0.3583 -0.3573
usemtl Material.001
s off
f 1/1/1 2/2/1 4/3/1 3/4/1
f 3/4/2 4/3/2 6/5/2 5/6/2
f 5/6/3 6/5/3 8/7/3 7/8/3
f 7/8/4 8/7/4 10/9/4 9/10/4
f 9/10/5 10/9/5 12/11/5 11/12/5
f 11/12/6 12/11/6 14/13/6 13/14/6
f 2/2/7 16/15/7 24/16/7 17/17/7
f 13/14/8 14/13/8 16/15/8 15/18/8
f 15/18/9 16/15/9 2/2/9 1/1/9
f 1/19/10 3/20/10 5/21/10 7/22/10 9/23/10 11/24/10 13/25/10 15/26/10
f 24/16/11 23/27/11 31/28/11 32/29/11
f 4/3/12 2/2/12 17/17/12 18/30/12
f 8/7/13 6/5/13 19/31/13 20/32/13
f 14/13/14 12/11/14 22/33/14 23/27/14
f 10/9/15 8/7/15 20/32/15 21/34/15
f 16/15/16 14/13/16 23/27/16 24/16/16
f 6/5/17 4/3/17 18/30/17 19/31/17
f 12/11/18 10/9/18 21/34/18 22/33/18
f 31/28/19 30/35/19 38/36/19 39/37/19
f 22/33/20 21/34/20 29/38/20 30/35/20
f 20/32/21 19/31/21 27/39/21 28/40/21
f 18/30/22 17/17/22 25/41/22 26/42/22
f 17/17/23 24/16/23 32/29/23 25/41/23
f 23/27/24 22/33/24 30/35/24 31/28/24
f 21/34/25 20/32/25 28/40/25 29/38/25
f 19/31/26 18/30/26 26/42/26 27/39/26
f 34/43/27 33/44/27 41/45/27 42/46/27
f 29/38/28 28/40/28 36/47/28 37/48/28
f 27/39/29 26/42/29 34/43/29 35/49/29
f 32/29/30 31/28/30 39/37/30 40/50/30
f 30/35/31 29/38/31 37/48/31 38/36/31
f 28/40/32 27/39/32 35/49/32 36/47/32
f 26/42/33 25/41/33 33/44/33 34/43/33
f 25/41/34 32/29/34 40/50/34 33/44/34
f 48/51/35 47/52/35 55/53/35 56/54/35
f 33/44/36 40/50/36 48/51/36 41/45/36
f 39/37/37 38/36/37 46/55/37 47/52/37
f 37/48/38 36/47/38 44/56/38 45/57/38
f 35/49/39 34/43/39 42/46/39 43/58/39
f 40/50/40 39/37/40 47/52/40 48/51/40
f 38/36/41 37/48/41 45/57/41 46/55/41
f 36/47/42 35/49/42 43/58/42 44/56/42
f 51/59/43 50/60/43 58/61/43 59/62/43
f 46/55/44 45/57/44 53/63/44 54/64/44
f 44/56/45 43/58/45 51/59/45 52/65/45
f 42/46/46 41/45/46 49/66/46 50/60/46
f 41/45/47 48/51/47 56/54/47 49/66/47
f 47/52/48 46/55/48 54/64/48 55/53/48
f 45/57/49 44/56/49 52/65/49 53/63/49
f 43/58/50 42/46/50 50/60/50 51/59/50
f 57/67/51 64/68/51 72/69/51 65/70/51
f 56/54/52 55/53/52 63/71/52 64/68/52
f 54/64/53 53/63/53 61/72/53 62/73/53
f 52/65/54 51/59/54 59/62/54 60/74/54
f 50/60/55 49/66/55 57/67/55 58/61/55
f 49/66/56 56/54/56 64/68/56 57/67/56
f 55/53/57 54/64/57 62/73/57 63/71/57
f 53/63/58 52/65/58 60/74/58 61/72/58
f 68/75/59 67/76/59 75/77/59 76/78/59
f 63/71/60 62/73/60 70/79/60 71/80/60
f 61/72/61 60/74/61 68/75/61 69/81/61
f 59/62/62 58/61/62 66/82/62 67/76/62
f 64/68/63 63/71/63 71/80/63 72/69/63
f 62/73/64 61/72/64 69/81/64 70/79/64
f 60/74/65 59/62/65 67/76/65 68/75/65
f 58/61/66 57/67/66 65/70/66 66/82/66
f 80/83/67 79/84/67 87/85/67 88/86/67
f 66/82/68 65/70/68 73/87/68 74/88/68
f 65/70/69 72/69/69 80/83/69 73/87/69
f 71/80/70 70/79/70 78/89/70 79/84/70
f 69/81/71 68/75/71 76/78/71 77/90/71
f 67/76/72 66/82/72 74/88/72 75/77/72
f 72/69/73 71/80/73 79/84/73 80/83/73
f 70/79/74 69/81/74 77/90/74 78/89/74
f 82/91/75 81/92/75 88/86/75 87/85/75 86/93/75 85/94/75 84/95/75 83/96/75
f 78/89/76 77/90/76 85/94/76 86/93/76
f 76/78/77 75/77/77 83/96/77 84/95/77
f 74/88/78 73/87/78 81/92/78 82/91/78
f 73/87/79 80/83/79 88/86/79 81/92/79
f 79/84/80 78/89/80 86/93/80 87/85/80
f 77/90/81 76/78/81 84/95/81 85/94/81
f 75/77/82 74/88/82 82/91/82 83/96/82
