# Blender v2.83.5 OBJ File: 'papaya01.blend'
# www.blender.org
mtllib papaya01.mtl
o Cylinder.001_Cylinder.002
v -0.079631 0.016140 -0.038687
v -0.056516 0.019235 -0.046693
v -0.079631 -0.014268 -0.038687
v -0.056516 -0.017363 -0.046693
v -0.079631 -0.035770 -0.015648
v -0.056516 -0.043243 -0.018964
v -0.079631 -0.035770 0.016934
v -0.056516 -0.043243 0.020250
v -0.079631 -0.014268 0.039973
v -0.056516 -0.017363 0.047979
v -0.079631 0.016140 0.039973
v -0.056516 0.019235 0.047979
v -0.079631 0.037643 0.016934
v -0.056516 0.045115 0.020250
v -0.079631 0.037643 -0.015648
v -0.056516 0.045115 -0.018964
v -0.020919 -0.018522 -0.049691
v -0.020919 0.020394 -0.049691
v -0.020919 -0.046041 -0.020206
v -0.020919 -0.046041 0.021492
v -0.020919 -0.018522 0.050977
v -0.020919 0.020394 0.050977
v -0.020919 0.047913 0.021492
v -0.020919 0.047913 -0.020206
v 0.033340 -0.015969 -0.043086
v 0.033340 0.017841 -0.043086
v 0.033340 -0.039876 -0.017470
v 0.033340 -0.039876 0.018756
v 0.033340 -0.015969 0.044372
v 0.033340 0.017841 0.044372
v 0.033340 0.041748 0.018756
v 0.033340 0.041748 -0.017470
v 0.069617 -0.012365 -0.033765
v 0.069617 0.014238 -0.033765
v 0.069617 -0.031176 -0.013609
v 0.069617 -0.031176 0.014895
v 0.069617 -0.012365 0.035051
v 0.069617 0.014238 0.035051
v 0.069617 0.033049 0.014895
v 0.069617 0.033049 -0.013609
v 0.113435 -0.010411 -0.028709
v 0.113435 0.012283 -0.028709
v 0.113435 -0.026458 -0.011515
v 0.113435 -0.026458 0.012801
v 0.113435 -0.010411 0.029995
v 0.113435 0.012283 0.029995
v 0.113435 0.028330 0.012801
v 0.113435 0.028330 -0.011515
v 0.129161 -0.005715 -0.016562
v 0.129161 0.007587 -0.016562
v 0.129161 -0.015121 -0.006483
v 0.129161 -0.015121 0.007769
v 0.129161 -0.005715 0.017847
v 0.129161 0.007587 0.017847
v 0.129161 0.016993 0.007769
v 0.129161 0.016993 -0.006483
v -0.098297 0.009080 -0.020422
v -0.098297 -0.007207 -0.020422
v -0.098297 -0.018724 -0.008083
v -0.098297 -0.018724 0.009369
v -0.098297 -0.007207 0.021708
v -0.098297 0.009080 0.021708
v -0.098297 0.020596 0.009369
v -0.098297 0.020596 -0.008083
v -0.101665 0.004026 -0.007350
v -0.103340 0.000110 -0.001494
v -0.101665 -0.006524 -0.002668
v -0.103340 -0.001058 0.001528
v -0.101665 -0.002154 0.008636
v -0.103340 0.001762 0.002780
v -0.101665 0.008396 0.003954
v -0.103340 0.002930 -0.000242
v -0.099570 0.003233 -0.005299
v -0.103146 0.000322 -0.000945
v -0.099570 -0.004610 -0.001818
v -0.103146 -0.000546 0.001301
v -0.099570 -0.001361 0.006585
v -0.103146 0.001550 0.002231
v -0.099570 0.006482 0.003104
v -0.103146 0.002419 -0.000015
v 0.131328 -0.000758 -0.002540
v 0.131328 0.002630 -0.002540
v 0.131328 -0.003153 -0.000675
v 0.131328 -0.003153 0.001961
v 0.131328 -0.000758 0.003826
v 0.131328 0.002630 0.003826
v 0.131328 0.005025 0.001961
v 0.131328 0.005025 -0.000675
v -0.056516 0.032175 0.034115
v -0.045131 0.028407 0.039508
v 0.006211 0.044830 -0.018838
v 0.053643 0.036879 0.000643
v 0.091526 0.030690 -0.012562
v 0.093263 0.021843 0.023044
v 0.051479 -0.014167 -0.038425
v 0.069617 -0.021771 -0.023687
v 0.033340 -0.027922 -0.030278
v -0.020919 -0.032281 -0.034949
v -0.079631 0.000936 -0.038687
v -0.056516 -0.043243 0.000643
v -0.056516 -0.043243 -0.009161
v -0.056516 -0.043243 0.010447
v -0.079631 -0.025019 0.028453
v -0.088964 -0.027247 0.013151
vt 0.445313 0.569453
vt 0.445313 0.569453
vt 0.445313 0.569453
vt 0.445313 0.569453
vt 0.445313 0.569453
vt 0.445313 0.569453
vt 0.445313 0.569453
vt 0.445313 0.569453
vt 0.445313 0.569453
vt 0.445313 0.569453
vt 0.437500 0.692500
vt 0.437500 0.692500
vt 0.437500 0.692500
vt 0.437500 0.692500
vt 0.437500 0.692500
vt 0.445313 0.569453
vt 0.445313 0.569453
vt 0.445313 0.569453
vt 0.445313 0.569453
vt 0.445313 0.569453
vt 0.445313 0.569453
vt 0.445313 0.569453
vt 0.445313 0.569453
vt 0.437500 0.692500
vt 0.437500 0.692500
vt 0.437500 0.692500
vt 0.437500 0.692500
vt 0.445313 0.569453
vt 0.445313 0.569453
vt 0.437500 0.692500
vt 0.437500 0.692500
vt 0.437500 0.692500
vt 0.437500 0.692500
vt 0.445313 0.569453
vt 0.445313 0.569453
vt 0.437500 0.692500
vt 0.437500 0.692500
vt 0.437500 0.692500
vt 0.437500 0.692500
vt 0.437500 0.692500
vt 0.445313 0.569453
vt 0.437500 0.692500
vt 0.445313 0.569453
vt 0.437500 0.692500
vt 0.437500 0.692500
vt 0.437500 0.692500
vt 0.437500 0.692500
vt 0.437500 0.692500
vt 0.437500 0.692500
vt 0.445313 0.569453
vt 0.445313 0.569453
vt 0.445313 0.569453
vt 0.437500 0.692500
vt 0.437500 0.692500
vt 0.445313 0.569453
vt 0.445313 0.569453
vt 0.437500 0.692500
vt 0.437500 0.692500
vt 0.437500 0.692500
vt 0.437500 0.692500
vt 0.437500 0.692500
vt 0.437500 0.692500
vt 0.437500 0.692500
vt 0.437500 0.692500
vt 0.437500 0.692500
vt 0.437500 0.692500
vt 0.445313 0.569453
vt 0.445313 0.569453
vt 0.445313 0.569453
vt 0.445313 0.569453
vt 0.445313 0.569453
vt 0.437500 0.692500
vt 0.437500 0.692500
vt 0.437500 0.692500
vt 0.445313 0.569453
vt 0.445313 0.569453
vt 0.445313 0.569453
vt 0.445313 0.569453
vt 0.437500 0.692500
vt 0.437500 0.692500
vt 0.445313 0.569453
vt 0.445313 0.569453
vt 0.437500 0.692500
vt 0.445313 0.569453
vt 0.445313 0.569453
vt 0.445313 0.569453
vt 0.437500 0.692500
vt 0.437500 0.692500
vt 0.437500 0.692500
vt 0.437500 0.692500
vt 0.445313 0.569453
vt 0.445313 0.569453
vt 0.445313 0.569453
vt 0.445313 0.569453
vt 0.445313 0.569453
vt 0.445313 0.569453
vt 0.437500 0.692500
vt 0.437500 0.692500
vt 0.445313 0.569453
vt 0.445313 0.569453
vt 0.445313 0.569453
vt 0.445313 0.569453
vt 0.445313 0.569453
vt 0.445313 0.569453
vt 0.437500 0.692500
vt 0.437500 0.692500
vt 0.437500 0.692500
vt 0.437500 0.692500
vt 0.445313 0.569453
vt 0.445313 0.569453
vt 0.445313 0.569453
vt 0.445313 0.569453
vt 0.437500 0.692500
vt 0.437500 0.692500
vt 0.445313 0.569453
vt 0.445313 0.569453
vt 0.445313 0.569453
vt 0.445313 0.569453
vt 0.445313 0.569453
vt 0.445313 0.569453
vt 0.445313 0.569453
vt 0.445313 0.569453
vt 0.445313 0.569453
vt 0.312500 0.567500
vt 0.312500 0.567500
vt 0.312500 0.567500
vt 0.312500 0.567500
vt 0.312500 0.567500
vt 0.312500 0.567500
vt 0.312500 0.567500
vt 0.312500 0.567500
vt 0.445313 0.569453
vt 0.445313 0.569453
vt 0.445313 0.569453
vt 0.445313 0.569453
vt 0.445313 0.569453
vt 0.445313 0.569453
vt 0.187500 0.567500
vt 0.187500 0.567500
vt 0.187500 0.567500
vt 0.187500 0.567500
vt 0.187500 0.567500
vt 0.187500 0.567500
vt 0.187500 0.567500
vt 0.187500 0.567500
vt 0.437500 0.692500
vt 0.437500 0.692500
vt 0.437500 0.692500
vt 0.437500 0.692500
vt 0.437500 0.692500
vt 0.437500 0.692500
vt 0.445313 0.569453
vt 0.445313 0.569453
vt 0.445313 0.569453
vt 0.445313 0.569453
vt 0.437500 0.692500
vt 0.437500 0.692500
vt 0.445313 0.569453
vt 0.445313 0.569453
vt 0.437500 0.692500
vt 0.437500 0.692500
vt 0.437500 0.692500
vt 0.437500 0.692500
vt 0.445313 0.569453
vt 0.445313 0.569453
vt 0.445313 0.569453
vt 0.445313 0.569453
vt 0.445313 0.569453
vt 0.437500 0.692500
vt 0.437500 0.692500
vt 0.437500 0.692500
vt 0.437500 0.692500
vt 0.445313 0.569453
vn -0.3273 0.0000 -0.9449
vn -0.3170 -0.6934 -0.6471
vn -0.3076 -0.9515 0.0000
vn -0.3170 -0.6934 0.6471
vn -0.3273 0.0000 0.9449
vn -0.3170 0.6934 0.6471
vn -0.0810 -0.7287 0.6801
vn -0.3076 0.9515 0.0000
vn -0.3170 0.6934 -0.6471
vn -0.6865 -0.5316 -0.4961
vn 0.1129 -0.9936 0.0000
vn -0.0784 0.9969 0.0000
vn -0.0810 -0.7287 -0.6801
vn -0.0839 0.0000 0.9965
vn -0.0810 0.7287 -0.6801
vn -0.0839 0.0000 -0.9965
vn -0.0784 -0.9969 0.0000
vn -0.0810 0.7287 0.6801
vn 0.2332 0.9724 0.0000
vn 0.1208 0.0000 -0.9927
vn 0.1167 0.7261 -0.6776
vn 0.1167 0.7261 0.6776
vn 0.1167 -0.7261 0.6776
vn 0.1167 -0.7261 -0.6776
vn 0.1129 0.9936 0.0000
vn 0.1208 0.0000 0.9927
vn 0.1106 -0.7266 0.6781
vn 0.2489 0.0000 0.9685
vn 0.2332 -0.9724 -0.0000
vn 0.2489 0.0000 -0.9685
vn 0.2406 0.7096 -0.6623
vn 0.2406 0.7096 0.6623
vn 0.2406 -0.7096 0.6623
vn 0.2406 -0.7096 -0.6623
vn 0.5976 0.5861 -0.5470
vn 0.1106 -0.7266 -0.6781
vn 0.1071 0.9943 -0.0000
vn 0.1146 -0.0000 0.9934
vn 0.1071 -0.9943 -0.0000
vn 0.1146 -0.0000 -0.9934
vn 0.1106 0.7266 -0.6781
vn 0.1106 0.7266 0.6781
vn 0.9883 0.0000 0.1527
vn 0.5976 0.5861 0.5471
vn 0.5976 -0.5861 0.5471
vn 0.5976 -0.5861 -0.5470
vn 0.5848 0.8112 -0.0000
vn 0.6113 -0.0000 0.7914
vn 0.5848 -0.8112 0.0000
vn 0.6113 -0.0000 -0.7914
vn -0.9624 0.2715 0.0059
vn -0.6994 -0.0000 0.7148
vn -0.6865 0.5316 -0.4961
vn -0.6994 0.0000 -0.7148
vn -0.6743 -0.7384 -0.0000
vn -0.6865 0.5316 0.4961
vn -0.6865 -0.5316 0.4961
vn -0.6743 0.7384 0.0000
vn -0.2865 0.2916 -0.9126
vn -0.9670 -0.0064 0.2546
vn -0.9624 -0.2715 -0.0059
vn -0.9670 0.0064 -0.2546
vn -0.9648 0.1879 -0.1838
vn -0.9646 0.1969 0.1754
vn -0.9648 -0.1879 0.1838
vn -0.9646 -0.1969 -0.1754
vn -1.0000 -0.0000 0.0000
vn -0.2717 0.9272 0.2580
vn -0.2865 -0.2916 0.9126
vn -0.2838 -0.4806 0.8298
vn -0.2741 -0.8586 -0.4332
vn -0.2838 0.4806 -0.8298
vn -0.2741 0.8586 0.4332
vn -0.2717 -0.9272 -0.2580
vn 1.0000 0.0000 0.0000
vn 0.9840 -0.1782 -0.0000
vn 0.9883 0.0000 -0.1527
vn 0.9864 0.1171 -0.1157
vn 0.9864 0.1171 0.1157
vn 0.9864 -0.1171 0.1157
vn 0.9864 -0.1171 -0.1157
vn 0.9840 0.1782 -0.0000
usemtl Material.003
s off
f 99/1/1 4/2/1 3/3/1
f 3/3/2 4/2/2 6/4/2 5/5/2
f 5/5/3 6/4/3 101/6/3 100/7/3 102/8/3 8/9/3 7/10/3
f 103/11/4 10/12/4 9/13/4
f 9/13/5 10/12/5 12/14/5 11/15/5
f 13/16/6 89/17/6 14/18/6
f 10/19/7 8/9/7 20/20/7 21/21/7
f 13/16/8 14/18/8 16/22/8 15/23/8
f 15/24/9 16/25/9 2/26/9 1/27/9
f 3/3/10 5/5/10 59/28/10 58/29/10
f 20/30/11 19/31/11 27/32/11 28/33/11
f 16/22/12 14/18/12 23/34/12 24/35/12
f 4/36/13 17/37/13 98/38/13
f 12/14/14 10/12/14 21/39/14 22/40/14
f 16/22/15 24/35/15 18/41/15
f 4/36/16 2/26/16 18/42/16 17/37/16
f 19/43/17 101/6/17 6/4/17
f 12/14/18 22/40/18 90/44/18
f 31/45/19 39/46/19 92/47/19
f 17/37/20 18/42/20 26/48/20 25/49/20
f 18/41/21 24/35/21 91/50/21 32/51/21 26/52/21
f 23/53/22 22/40/22 30/54/22 31/45/22
f 21/21/23 20/20/23 28/55/23 29/56/23
f 98/38/24 17/37/24 25/49/24 97/57/24
f 23/53/25 31/45/25 32/58/25 91/59/25
f 22/40/26 21/39/26 29/60/26 30/54/26
f 37/61/27 36/62/27 44/63/27 45/64/27
f 30/54/28 29/60/28 37/61/28 38/65/28
f 28/33/29 27/32/29 35/66/29 36/62/29
f 26/52/30 34/67/30 33/68/30
f 26/52/31 32/51/31 40/69/31 34/67/31
f 31/45/32 30/54/32 38/65/32 39/46/32
f 29/56/33 28/55/33 36/70/33 37/71/33
f 96/72/34 95/73/34 33/74/34
f 42/75/35 48/76/35 56/77/35 50/78/35
f 35/66/36 96/72/36 33/74/36 41/79/36 43/80/36
f 93/81/37 47/82/37 48/76/37
f 38/65/38 37/61/38 45/64/38 46/83/38
f 36/62/39 35/66/39 43/80/39 44/63/39
f 33/68/40 34/67/40 42/75/40 41/84/40
f 34/67/41 40/69/41 93/81/41 48/76/41 42/75/41
f 46/85/42 47/82/42 94/86/42
f 54/87/43 53/88/43 85/89/43 86/90/43
f 47/82/44 46/85/44 54/91/44 55/92/44
f 45/93/45 44/94/45 52/95/45 53/96/45
f 43/80/46 41/79/46 49/97/46 51/98/46
f 48/76/47 47/82/47 55/92/47 56/77/47
f 46/83/48 45/64/48 53/88/48 54/87/48
f 44/94/49 43/99/49 51/100/49 52/95/49
f 41/84/50 42/75/50 50/78/50
f 63/101/51 64/102/51 72/103/51 71/104/51
f 9/13/52 11/15/52 62/105/52 61/106/52
f 15/24/53 1/27/53 57/107/53 64/108/53
f 99/1/54 3/3/54 58/29/54 57/109/54
f 5/5/55 7/10/55 104/110/55 60/111/55 59/28/55
f 13/16/56 63/101/56 62/112/56
f 103/11/57 9/13/57 61/106/57 60/113/57 104/114/57
f 13/16/58 15/23/58 64/102/58 63/101/58
f 70/115/59 71/104/59 79/116/59 78/117/59
f 61/118/60 62/112/60 70/115/60 69/119/60
f 59/28/61 60/111/61 68/120/61 67/121/61
f 57/109/62 58/29/62 66/122/62 65/123/62
f 64/102/63 57/109/63 65/123/63 72/103/63
f 62/112/64 63/101/64 71/104/64 70/115/64
f 60/111/65 61/118/65 69/119/65 68/120/65
f 58/29/66 59/28/66 67/121/66 66/122/66
f 73/124/67 74/125/67 75/126/67 76/127/67 77/128/67 78/129/67 79/130/67 80/131/67
f 68/120/68 69/119/68 77/132/68 76/133/68
f 66/122/69 67/121/69 75/134/69 74/135/69
f 71/104/70 72/103/70 80/136/70 79/116/70
f 69/119/71 70/115/71 78/117/71 77/132/71
f 67/121/72 68/120/72 76/133/72 75/134/72
f 65/123/73 66/122/73 74/135/73 73/137/73
f 72/103/74 65/123/74 73/137/74 80/136/74
f 81/138/75 82/139/75 88/140/75 87/141/75 86/142/75 85/143/75 84/144/75 83/145/75
f 52/146/76 51/98/76 83/147/76 84/148/76
f 49/97/77 50/149/77 82/150/77 81/151/77
f 50/78/78 56/77/78 88/152/78 82/153/78
f 55/92/79 54/91/79 86/154/79 87/155/79
f 53/88/80 52/146/80 84/148/80 85/89/80
f 51/98/81 49/97/81 81/151/81 83/147/81
f 56/77/82 55/92/82 87/155/82 88/152/82
f 11/15/6 12/14/6 89/156/6 13/157/6
f 11/15/56 13/157/56 62/105/56
f 23/53/18 90/44/18 22/40/18
f 14/18/18 89/17/18 90/158/18 23/34/18
f 89/156/18 12/14/18 90/44/18
f 24/35/25 23/34/25 91/50/25
f 2/26/15 16/25/15 18/42/15
f 40/69/19 32/51/19 92/159/19
f 39/46/19 40/160/19 92/47/19
f 32/58/19 31/45/19 92/47/19
f 40/160/37 39/46/37 47/161/37 93/162/37
f 39/46/42 38/65/42 94/163/42
f 38/65/42 46/83/42 94/163/42
f 47/161/42 39/46/42 94/163/42
f 49/97/50 41/79/50 50/149/50
f 25/49/30 26/48/30 33/74/30 95/73/30
f 97/57/34 25/49/34 95/73/34
f 35/66/34 27/32/34 96/72/34
f 27/164/34 97/165/34 95/166/34 96/167/34
f 19/43/24 98/168/24 97/165/24 27/164/24
f 6/4/13 4/2/13 98/168/13 19/43/13
f 1/27/1 2/26/1 4/36/1 99/169/1
f 1/27/54 99/169/54 57/107/54
f 102/170/17 100/171/17 101/172/17 19/31/17 20/30/17
f 8/9/17 102/8/17 20/20/17
f 7/10/4 8/9/4 10/19/4 103/173/4
f 7/10/57 103/173/57 104/110/57
