# Blender v2.83.5 OBJ File: 'parsnip03.blend'
# www.blender.org
mtllib parsnip03.mtl
o Cylinder.001
v -0.058927 -0.002237 -0.004514
v -0.058927 -0.002237 0.004442
v -0.058454 0.007490 0.004334
v -0.058454 0.007490 -0.007285
v -0.058058 -0.002441 -0.004514
v -0.058058 -0.002441 0.004442
v -0.041149 -0.002253 -0.004514
v -0.041149 -0.002253 0.004442
v -0.041516 0.006965 0.003827
v -0.041516 0.006965 -0.006458
v -0.022294 -0.003384 -0.004514
v -0.022294 -0.003384 0.004442
v -0.022555 0.003178 0.002798
v -0.020853 0.002908 -0.005200
v -0.020599 -0.003457 -0.004514
v -0.020599 -0.003457 0.004442
v -0.020853 0.002908 0.002675
v 0.000739 -0.003011 -0.004514
v 0.000739 -0.003011 0.004442
v 0.000508 0.002783 0.002318
v 0.002499 0.002862 -0.004851
v 0.002499 0.002862 0.002318
v 0.028249 -0.002355 -0.004514
v 0.028249 -0.002355 0.004442
v 0.028043 0.002818 0.001934
v 0.028043 0.002818 -0.004467
v 0.046635 -0.002740 -0.004514
v 0.046635 -0.002740 0.004442
v 0.046492 0.000856 0.003150
v 0.047654 0.000902 -0.001300
v 0.047798 -0.002694 -0.004514
v 0.047798 -0.002694 0.004442
v 0.047654 0.000902 0.003150
v 0.054053 -0.002599 -0.004514
v 0.054053 -0.002599 0.004442
v 0.053957 -0.000181 0.003388
v 0.053957 -0.000181 0.000396
vt 0.812500 0.817500
vt 0.812500 0.817500
vt 0.812500 0.817500
vt 0.812500 0.817500
vt 0.812500 0.817500
vt 0.812500 0.817500
vt 0.937500 0.817500
vt 0.937500 0.817500
vt 0.937500 0.817500
vt 0.937500 0.817500
vt 0.937500 0.817500
vt 0.937500 0.817500
vt 0.937500 0.817500
vt 0.937500 0.817500
vt 0.937500 0.817500
vt 0.937500 0.817500
vt 0.937500 0.817500
vt 0.937500 0.817500
vt 0.937500 0.817500
vt 0.937500 0.817500
vt 0.937500 0.817500
vt 0.812500 0.817500
vt 0.812500 0.817500
vt 0.812500 0.817500
vt 0.812500 0.817500
vt 0.812500 0.817500
vt 0.812500 0.817500
vt 0.812500 0.817500
vt 0.937500 0.817500
vt 0.937500 0.817500
vt 0.937500 0.817500
vt 0.937500 0.817500
vt 0.937500 0.817500
vt 0.937500 0.817500
vt 0.937500 0.817500
vt 0.812500 0.817500
vt 0.812500 0.817500
vt 0.812500 0.817500
vt 0.812500 0.817500
vt 0.937500 0.817500
vt 0.937500 0.817500
vt 0.937500 0.817500
vt 0.937500 0.817500
vt 0.937500 0.817500
vt 0.937500 0.817500
vt 0.937500 0.817500
vt 0.937500 0.817500
vt 0.937500 0.817500
vt 0.812500 0.817500
vt 0.812500 0.817500
vt 0.812500 0.817500
vt 0.812500 0.817500
vt 0.812500 0.817500
vt 0.812500 0.817500
vt 0.812500 0.817500
vt 0.937500 0.817500
vt 0.937500 0.817500
vt 0.937500 0.817500
vt 0.937500 0.817500
vt 0.937500 0.192500
vt 0.937500 0.192500
vt 0.937500 0.192500
vt 0.937500 0.192500
vt 0.937500 0.192500
vt 0.937500 0.192500
vt 0.937500 0.192500
vt 0.937500 0.192500
vn -0.0635 -0.2705 -0.9606
vn 0.0026 0.0109 0.9999
vn 0.1942 0.9810 0.0036
vn 0.0213 -0.2382 -0.9710
vn 0.0154 0.0383 0.9991
vn 0.0310 0.9995 0.0000
vn 0.0094 -0.1677 -0.9858
vn 0.0455 0.1433 0.9886
vn 0.0085 -0.0843 -0.9964
vn 0.1569 0.9876 0.0000
vn -0.0046 -0.1072 -0.9942
vn 0.0607 0.2569 0.9645
vn 0.0057 0.3049 0.9524
vn 0.0038 1.0000 0.0058
vn 0.0017 1.0000 0.0000
vn -0.0137 0.3436 0.9390
vn -0.0398 0.9992 0.0000
vn -0.0050 0.3973 0.9177
vn 0.0075 -0.0273 -0.9996
vn 0.0022 0.3864 0.9223
vn 0.0997 0.9949 0.0149
vn 0.0985 0.3373 -0.9362
vn 0.1694 0.9855 0.0000
vn -0.0265 0.6656 -0.7458
vn -0.0134 0.3375 0.9412
vn 0.1420 0.7976 -0.5862
vn 0.0110 0.3637 0.9315
vn 0.9992 0.0398 0.0000
vn -0.0094 -1.0000 -0.0000
vn -0.0584 -0.9983 0.0000
vn -0.0009 -1.0000 0.0000
vn 0.0209 -0.9998 0.0000
vn 0.0238 -0.9997 0.0000
vn -0.9988 0.0486 -0.0000
usemtl Material.001
s off
f 1/1/1 4/2/1 5/3/1
f 3/4/2 2/5/2 6/6/2
f 10/7/3 9/8/3 13/9/3 14/10/3
f 5/11/4 4/12/4 10/7/4 7/13/4
f 3/14/5 6/15/5 8/16/5 9/8/5
f 4/12/6 3/14/6 9/8/6 10/7/6
f 7/13/7 10/7/7 14/10/7 11/17/7
f 9/8/8 8/16/8 12/18/8 13/9/8
f 15/19/9 14/10/9 21/20/9 18/21/9
f 14/22/10 13/23/10 17/24/10
f 11/25/11 14/22/11 15/26/11
f 13/23/12 12/27/12 16/28/12 17/24/12
f 17/29/13 16/30/13 19/31/13 20/32/13
f 14/10/14 17/29/14 20/32/14 21/20/14
f 21/20/15 22/33/15 25/34/15 26/35/15
f 20/36/16 19/37/16 22/38/16
f 21/39/17 20/36/17 22/38/17
f 25/34/18 24/40/18 28/41/18 29/42/18
f 18/21/19 21/20/19 26/35/19 23/43/19
f 22/33/20 19/31/20 24/40/20 25/34/20
f 26/35/21 25/34/21 29/42/21 30/44/21
f 23/43/22 26/35/22 30/44/22 27/45/22
f 30/44/23 33/46/23 36/47/23 37/48/23
f 27/49/24 30/50/24 31/51/24
f 29/52/25 28/53/25 32/54/25 33/55/25
f 30/50/17 29/52/17 33/55/17
f 31/56/26 30/44/26 37/48/26 34/57/26
f 33/46/27 32/58/27 35/59/27 36/47/27
f 36/60/28 35/61/28 34/62/28 37/63/28
f 24/40/29 23/43/29 27/49/29 31/56/29 34/57/29 35/59/29 32/54/29 28/41/29
f 8/16/30 7/13/30 11/25/30 15/19/30 16/28/30 12/18/30
f 1/1/31 5/11/31 7/13/31 8/16/31 6/6/31 2/5/31
f 16/28/32 15/19/32 18/21/32 19/31/32
f 19/31/33 18/21/33 23/43/33 24/40/33
f 3/64/34 4/65/34 1/66/34 2/67/34
