# Blender v2.83.5 OBJ File: 'parsnip01.blend'
# www.blender.org
mtllib parsnip01.mtl
o Cylinder.001
v -0.053577 0.007893 -0.020352
v -0.040587 0.007893 -0.020352
v -0.053577 -0.008036 -0.020352
v -0.039409 -0.007955 -0.020156
v -0.053577 -0.019299 -0.009089
v -0.040587 -0.019299 -0.009089
v -0.053577 -0.019299 0.006840
v -0.039409 -0.019104 0.006759
v -0.053577 -0.008036 0.018103
v -0.040587 -0.008036 0.018103
v -0.053577 0.007893 0.018103
v -0.039409 0.007812 0.017908
v -0.053577 0.019156 0.006840
v -0.040587 0.019156 0.006840
v -0.053577 0.019156 -0.009089
v -0.040587 0.019156 -0.009089
v -0.058151 0.006101 -0.016026
v -0.058151 -0.006244 -0.016026
v -0.058151 -0.014973 -0.007297
v -0.058151 -0.014973 0.005048
v -0.058151 -0.006244 0.013778
v -0.058151 0.006101 0.013778
v -0.058151 0.014830 0.005048
v -0.058151 0.014830 -0.007297
v -0.039409 0.007812 -0.020156
v -0.039409 -0.019104 -0.009008
v -0.039409 -0.007955 0.017908
v -0.039409 0.018960 0.006759
v -0.039409 0.018960 -0.009008
v -0.026250 0.007195 -0.016445
v -0.026250 -0.007338 -0.016445
v -0.026250 -0.017614 -0.006168
v -0.026250 -0.017614 0.005927
v -0.025391 -0.007100 0.015628
v -0.026250 0.007195 0.016203
v -0.025391 0.016895 0.005689
v -0.025391 0.016895 -0.005930
v -0.025391 0.006956 -0.015869
v -0.025391 -0.007100 -0.015869
v -0.025391 -0.017039 -0.005930
v -0.025391 -0.017039 0.005689
v -0.025391 0.006956 0.015628
v -0.008487 0.006471 -0.014329
v -0.008487 -0.006575 -0.014329
v -0.008487 -0.015801 -0.005103
v -0.008487 -0.015801 0.005181
v -0.008487 -0.006575 0.014407
v -0.008487 0.006471 0.014407
v -0.008487 0.015697 0.005181
v -0.008487 0.015697 -0.005103
v 0.010308 0.004592 -0.012203
v 0.010308 -0.004696 -0.012203
v 0.011998 -0.010925 -0.003845
v 0.010308 -0.011263 0.004153
v 0.010308 -0.004696 0.012273
v 0.010308 0.004592 0.012273
v 0.010308 0.011159 0.004153
v 0.011998 0.010821 -0.003845
v 0.011998 0.004452 -0.011720
v 0.011998 -0.004556 -0.011720
v 0.011998 0.004452 0.011906
v 0.011998 0.010821 0.004030
v 0.033337 0.004048 -0.010666
v 0.033337 -0.004152 -0.010666
v 0.033337 -0.009951 -0.003496
v 0.033337 -0.009951 0.003673
v 0.033337 -0.004152 0.010843
v 0.033337 0.004048 0.010843
v 0.033337 0.009847 0.003673
v 0.035330 0.009847 -0.003496
v 0.035330 -0.004152 -0.010666
v 0.035330 -0.009951 0.003673
v 0.035330 -0.004152 0.010843
v 0.035330 0.009847 0.003673
v 0.060852 0.003609 -0.009514
v 0.060852 -0.003713 -0.009514
v 0.060852 -0.008890 -0.003112
v 0.060852 -0.008890 0.003289
v 0.060852 -0.003713 0.009691
v 0.060852 0.003609 0.009691
v 0.060852 0.008786 0.003289
v 0.060852 0.008786 -0.003112
v 0.079208 0.002493 -0.004395
v 0.080371 -0.002597 -0.004395
v 0.080371 -0.006196 0.000055
v 0.080371 -0.006196 0.004505
v 0.079208 -0.002597 0.008955
v 0.079208 0.002493 0.008955
v 0.079208 0.006092 0.004505
v 0.080371 0.006092 0.000055
v 0.080371 0.002493 -0.004395
v 0.080371 -0.002597 0.008955
v 0.080371 0.002493 0.008955
v 0.080371 0.006092 0.004505
v 0.099615 0.001148 0.001563
v 0.099615 -0.001252 0.001563
v 0.099615 -0.002950 0.003662
v 0.099615 -0.002950 0.005761
v 0.099615 -0.001252 0.007860
v 0.099615 0.001148 0.007860
v 0.099615 0.002846 0.005761
v 0.099615 0.002846 0.003662
v -0.060132 0.004297 -0.011671
v -0.060132 -0.004440 -0.011671
v -0.060132 -0.010619 -0.005493
v -0.060132 -0.010619 0.003245
v -0.060132 -0.004440 0.009423
v -0.060132 0.004297 0.009423
v -0.060132 0.010476 0.003245
v -0.060132 0.010476 -0.005493
v -0.061503 0.003840 -0.010568
v -0.061503 -0.003983 -0.010568
v -0.061503 -0.009516 -0.005036
v -0.061503 -0.009516 0.002787
v -0.061503 -0.003983 0.008320
v -0.061503 0.003840 0.008320
v -0.061503 0.009372 0.002787
v -0.061503 0.009372 -0.005036
vt 0.937500 0.817500
vt 0.937500 0.817500
vt 0.937500 0.817500
vt 0.937500 0.817500
vt 0.937500 0.817500
vt 0.937500 0.817500
vt 0.937500 0.817500
vt 0.937500 0.817500
vt 0.937500 0.817500
vt 0.937500 0.817500
vt 0.937500 0.817500
vt 0.937500 0.817500
vt 0.937500 0.817500
vt 0.937500 0.817500
vt 0.812500 0.817500
vt 0.812500 0.817500
vt 0.812500 0.817500
vt 0.937500 0.817500
vt 0.937500 0.817500
vt 0.937500 0.817500
vt 0.937500 0.817500
vt 0.937500 0.817500
vt 0.937500 0.817500
vt 0.937500 0.817500
vt 0.937500 0.817500
vt 0.937500 0.817500
vt 0.937500 0.817500
vt 0.937500 0.817500
vt 0.937500 0.817500
vt 0.937500 0.817500
vt 0.937500 0.817500
vt 0.937500 0.817500
vt 0.812500 0.817500
vt 0.812500 0.817500
vt 0.812500 0.817500
vt 0.812500 0.817500
vt 0.812500 0.817500
vt 0.812500 0.817500
vt 0.812500 0.817500
vt 0.812500 0.817500
vt 0.812500 0.817500
vt 0.812500 0.817500
vt 0.812500 0.817500
vt 0.812500 0.817500
vt 0.812500 0.817500
vt 0.937500 0.817500
vt 0.937500 0.817500
vt 0.937500 0.817500
vt 0.937500 0.817500
vt 0.937500 0.817500
vt 0.937500 0.817500
vt 0.937500 0.817500
vt 0.937500 0.817500
vt 0.937500 0.817500
vt 0.937500 0.817500
vt 0.937500 0.817500
vt 0.937500 0.817500
vt 0.937500 0.817500
vt 0.937500 0.817500
vt 0.812500 0.817500
vt 0.812500 0.817500
vt 0.812500 0.817500
vt 0.812500 0.817500
vt 0.812500 0.817500
vt 0.812500 0.817500
vt 0.812500 0.817500
vt 0.812500 0.817500
vt 0.812500 0.817500
vt 0.812500 0.817500
vt 0.937500 0.817500
vt 0.937500 0.817500
vt 0.937500 0.817500
vt 0.937500 0.817500
vt 0.937500 0.817500
vt 0.937500 0.817500
vt 0.937500 0.817500
vt 0.937500 0.817500
vt 0.937500 0.817500
vt 0.937500 0.817500
vt 0.937500 0.817500
vt 0.937500 0.817500
vt 0.937500 0.817500
vt 0.937500 0.817500
vt 0.937500 0.817500
vt 0.937500 0.817500
vt 0.937500 0.817500
vt 0.937500 0.817500
vt 0.937500 0.817500
vt 0.937500 0.817500
vt 0.812500 0.817500
vt 0.812500 0.817500
vt 0.812500 0.817500
vt 0.812500 0.817500
vt 0.812500 0.817500
vt 0.812500 0.817500
vt 0.812500 0.817500
vt 0.812500 0.817500
vt 0.812500 0.817500
vt 0.812500 0.817500
vt 0.812500 0.817500
vt 0.812500 0.817500
vt 0.812500 0.817500
vt 0.812500 0.817500
vt 0.937500 0.817500
vt 0.937500 0.817500
vt 0.937500 0.817500
vt 0.937500 0.817500
vt 0.937500 0.817500
vt 0.937500 0.817500
vt 0.937500 0.817500
vt 0.937500 0.817500
vt 0.937500 0.817500
vt 0.937500 0.817500
vt 0.937500 0.817500
vt 0.937500 0.817500
vt 0.812500 0.817500
vt 0.812500 0.817500
vt 0.812500 0.817500
vt 0.812500 0.817500
vt 0.812500 0.817500
vt 0.812500 0.817500
vt 0.812500 0.817500
vt 0.812500 0.817500
vt 0.812500 0.817500
vt 0.937500 0.817500
vt 0.937500 0.817500
vt 0.937500 0.817500
vt 0.937500 0.817500
vt 0.937500 0.817500
vt 0.937500 0.817500
vt 0.937500 0.817500
vt 0.937500 0.817500
vt 0.937500 0.817500
vt 0.937500 0.817500
vt 0.937500 0.817500
vt 0.812500 0.817500
vt 0.812500 0.817500
vt 0.812500 0.817500
vt 0.937500 0.817500
vt 0.937500 0.817500
vt 0.937500 0.817500
vt 0.937500 0.817500
vt 0.937500 0.817500
vt 0.937500 0.817500
vt 0.937500 0.817500
vt 0.937500 0.817500
vt 0.937500 0.817500
vt 0.812500 0.817500
vt 0.812500 0.817500
vt 0.812500 0.817500
vt 0.812500 0.817500
vt 0.812500 0.817500
vt 0.812500 0.817500
vt 0.812500 0.817500
vt 0.812500 0.817500
vt 0.937500 0.817500
vt 0.937500 0.817500
vt 0.937500 0.817500
vt 0.937500 0.817500
vt 0.937500 0.817500
vt 0.937500 0.817500
vt 0.937500 0.817500
vt 0.937500 0.817500
vt 0.937500 0.817500
vt 0.312500 0.817500
vt 0.312500 0.817500
vt 0.312500 0.817500
vt 0.312500 0.817500
vt 0.937500 0.817500
vt 0.937500 0.817500
vt 0.937500 0.817500
vt 0.937500 0.817500
vt 0.937500 0.817500
vt 0.937500 0.817500
vt 0.812500 0.817500
vt 0.812500 0.817500
vt 0.812500 0.817500
vt 0.812500 0.817500
vt 0.812500 0.817500
vt 0.812500 0.817500
vt 0.812500 0.817500
vt 0.812500 0.817500
vt 0.312500 0.817500
vt 0.312500 0.817500
vt 0.312500 0.817500
vt 0.312500 0.817500
vt 0.312500 0.817500
vt 0.312500 0.817500
vt 0.312500 0.817500
vt 0.312500 0.817500
vt 0.312500 0.817500
vt 0.312500 0.817500
vt 0.312500 0.817500
vt 0.312500 0.817500
vn 0.0072 -0.0059 -1.0000
vn 0.0072 -0.7029 -0.7112
vn 0.0072 -1.0000 0.0059
vn 0.0072 -0.7112 0.7029
vn 0.0072 0.0059 1.0000
vn 0.0072 0.7029 0.7112
vn 0.1635 -0.9865 0.0000
vn 0.0000 1.0000 0.0000
vn 0.0000 0.7071 -0.7071
vn -0.6871 0.7265 0.0000
vn -0.9102 0.4141 0.0000
vn -0.6871 -0.5137 -0.5137
vn -0.6871 0.0000 0.7265
vn -0.6871 0.5137 -0.5137
vn -0.6871 -0.0000 -0.7265
vn -0.6871 -0.7265 0.0000
vn -0.6871 0.5137 0.5137
vn -0.6871 -0.5137 0.5137
vn 0.2266 -0.6887 -0.6887
vn 0.1635 0.6976 0.6976
vn 0.1635 -0.6976 0.6976
vn 0.1635 0.9865 0.0000
vn 0.1635 -0.6976 -0.6976
vn 0.1635 0.0000 0.9865
vn 0.1635 0.6976 -0.6976
vn 0.1635 0.0000 -0.9865
vn 0.5564 0.5876 -0.5876
vn 0.1457 0.9893 0.0000
vn 0.1452 -0.0148 0.9893
vn 0.1125 -0.9937 0.0000
vn 0.2715 0.0000 -0.9624
vn 0.2381 0.6951 -0.6784
vn 0.1405 0.7106 0.6895
vn 0.1408 -0.6894 0.7105
vn 0.0731 -0.9973 0.0000
vn 0.5564 0.5876 0.5876
vn 0.5564 -0.5876 0.5876
vn 0.5564 -0.5876 -0.5876
vn 0.5564 0.0000 0.8309
vn 0.5564 -0.8309 0.0000
vn 0.5564 0.0000 -0.8309
vn 0.2330 0.9725 0.0036
vn 0.0908 0.0000 -0.9959
vn 0.0844 0.7046 -0.7046
vn 0.0712 0.7053 0.7053
vn 0.0728 -0.7052 0.7052
vn 0.0861 -0.7045 -0.7045
vn 0.0707 0.9975 0.0000
vn 0.0721 0.0000 0.9974
vn 0.1128 0.0000 0.9936
vn 0.2330 -0.9725 0.0036
vn 0.1124 0.0000 -0.9937
vn 0.1823 0.7298 -0.6589
vn 0.1799 0.7274 0.6622
vn 0.1799 -0.7274 0.6622
vn 0.1823 -0.7298 -0.6589
vn 0.0437 0.7740 -0.6317
vn 0.2372 -0.7554 -0.6109
vn 0.1961 0.9806 0.0000
vn 0.2123 0.0000 0.9772
vn 0.2748 0.0000 -0.9615
vn 0.2372 0.7554 -0.6109
vn 0.1971 0.7623 0.6165
vn 0.0000 0.0000 1.0000
vn 0.0460 0.7767 0.6282
vn 0.0573 -0.7763 0.6278
vn 0.0457 -0.7767 -0.6282
vn 0.0436 0.9990 0.0058
vn 0.0560 0.0157 0.9983
vn 0.0514 -0.9985 -0.0165
vn 0.0493 0.0000 -0.9988
vn 0.0415 0.9991 0.0000
vn 0.0000 -1.0000 0.0000
vn 0.0000 0.0000 -1.0000
vn 0.0000 0.7775 0.6288
vn 0.0000 -0.7775 0.6288
vn 0.0000 -0.7775 -0.6288
vn 0.0723 0.7755 0.6272
vn 0.0434 0.0056 0.9990
vn 0.0400 -0.9992 -0.0059
vn 0.0434 0.0056 -0.9990
vn 0.0402 0.7740 -0.6319
vn 0.0402 0.7740 0.6319
vn 0.0417 -0.7769 0.6283
vn 0.0401 -0.7798 -0.6248
vn 0.0697 -0.7720 0.6318
vn 0.2049 -0.7610 -0.6155
vn 0.1391 0.9902 0.0149
vn 0.0400 0.0000 0.9992
vn 0.1367 -0.9906 0.0000
vn 0.2609 0.0244 -0.9651
vn 0.2127 0.7485 -0.6281
vn 0.1663 0.9861 0.0000
vn 0.0000 0.7775 -0.6288
vn 1.0000 -0.0000 0.0000
vn 0.0568 0.0000 0.9984
vn 0.1663 -0.9861 0.0000
vn 0.2957 0.0000 -0.9553
vn 0.2416 0.7545 -0.6102
vn 0.0898 0.7744 0.6263
vn 0.0898 -0.7744 0.6263
vn 0.2416 -0.7545 -0.6102
vn -0.6271 0.5508 -0.5508
vn -0.9102 -0.0000 0.4141
vn -0.9102 -0.4141 0.0000
vn -0.9102 0.0000 -0.4141
vn -0.9102 0.2928 -0.2928
vn -0.9102 0.2928 0.2928
vn -0.9102 -0.2928 0.2928
vn -0.9102 -0.2928 -0.2928
vn -1.0000 0.0000 0.0000
vn -0.6271 0.5508 0.5508
vn -0.6271 -0.5508 0.5508
vn -0.6271 -0.5508 -0.5508
vn -0.6271 0.7789 0.0000
vn -0.6271 -0.0000 0.7789
vn -0.6271 -0.7789 0.0000
vn -0.6271 0.0000 -0.7789
usemtl Material.001
s off
f 1/1/1 2/2/1 4/3/1 3/4/1
f 3/4/2 4/3/2 6/5/2 5/6/2
f 5/6/3 6/5/3 8/7/3 7/8/3
f 7/8/4 8/7/4 10/9/4 9/10/4
f 9/10/5 10/9/5 12/11/5 11/12/5
f 11/12/6 12/11/6 14/13/6 13/14/6
f 8/15/7 6/16/7 26/17/7
f 13/14/8 14/13/8 16/18/8 15/19/8
f 15/19/9 16/18/9 2/2/9 1/1/9
f 13/14/10 15/19/10 24/20/10 23/21/10
f 23/21/11 24/20/11 110/22/11 109/23/11
f 3/4/12 5/6/12 19/24/12 18/25/12
f 9/10/13 11/12/13 22/26/13 21/27/13
f 15/19/14 1/1/14 17/28/14 24/20/14
f 1/1/15 3/4/15 18/25/15 17/28/15
f 5/6/16 7/8/16 20/29/16 19/24/16
f 11/12/17 13/14/17 23/21/17 22/26/17
f 7/8/18 9/10/18 21/27/18 20/29/18
f 26/30/19 4/3/19 31/31/19 32/32/19
f 14/33/20 12/34/20 28/35/20
f 10/36/21 8/15/21 27/37/21
f 16/38/22 14/33/22 28/35/22 29/39/22
f 6/16/23 4/40/23 26/17/23
f 12/34/24 10/36/24 27/37/24
f 2/41/25 16/38/25 29/39/25 25/42/25
f 4/40/26 2/41/26 25/42/26
f 30/43/27 37/44/27 38/45/27
f 29/46/28 28/47/28 36/48/28 37/49/28
f 12/11/29 27/50/29 34/51/29 35/52/29
f 8/7/30 26/30/30 32/32/30 33/53/30
f 4/3/31 25/54/31 30/55/31 31/31/31
f 25/54/32 29/46/32 37/49/32 30/55/32
f 28/47/33 12/11/33 35/52/33 36/48/33
f 27/50/34 8/7/34 33/53/34 34/51/34
f 41/56/35 40/57/35 45/58/35 46/59/35
f 36/60/36 35/61/36 42/62/36
f 34/63/37 33/64/37 41/65/37
f 32/66/38 31/67/38 39/68/38 40/69/38
f 35/61/39 34/63/39 42/62/39
f 33/64/40 32/66/40 40/69/40 41/65/40
f 31/67/41 30/43/41 38/45/41 39/68/41
f 50/70/42 49/71/42 57/72/42 58/73/42
f 39/74/43 38/75/43 43/76/43 44/77/43
f 38/75/44 37/49/44 50/70/44 43/76/44
f 36/48/45 42/78/45 48/79/45 49/71/45
f 34/51/46 41/56/46 46/59/46 47/80/46
f 40/57/47 39/74/47 44/77/47 45/58/47
f 37/49/48 36/48/48 49/71/48 50/70/48
f 42/78/49 34/51/49 47/80/49 48/79/49
f 48/79/50 47/80/50 55/81/50 56/82/50
f 46/59/51 45/58/51 53/83/51 54/84/51
f 44/77/52 43/76/52 51/85/52 52/86/52
f 43/76/53 50/70/53 58/73/53 51/85/53
f 49/71/54 48/79/54 56/82/54 57/72/54
f 47/80/55 46/59/55 54/84/55 55/81/55
f 45/58/56 44/77/56 52/86/56 53/83/56
f 59/87/57 58/73/57 70/88/57 63/89/57
f 53/90/58 52/91/58 60/92/58
f 58/93/59 57/94/59 62/95/59
f 56/96/60 55/97/60 61/98/60
f 52/91/61 51/99/61 59/100/61 60/92/61
f 51/99/62 58/93/62 59/100/62
f 57/94/63 56/96/63 61/98/63 62/95/63
f 68/101/64 67/102/64 73/103/64
f 62/104/65 61/105/65 68/106/65 69/107/65
f 55/81/66 54/84/66 66/108/66 67/109/66
f 53/83/67 60/110/67 64/111/67 65/112/67
f 58/73/68 62/104/68 69/107/68 70/88/68
f 61/105/69 55/81/69 67/109/69 68/106/69
f 54/84/70 53/83/70 65/112/70 66/108/70
f 60/110/71 59/87/71 63/89/71 64/111/71
f 70/88/72 74/113/72 81/114/72 82/115/72
f 66/116/73 65/117/73 72/118/73
f 64/119/74 63/120/74 71/121/74
f 69/122/75 68/101/75 74/123/75
f 67/102/76 66/116/76 72/118/76 73/103/76
f 65/117/77 64/119/77 71/121/77
f 70/124/8 69/122/8 74/123/8
f 81/114/78 80/125/78 88/126/78 89/127/78
f 68/106/79 73/128/79 79/129/79 80/125/79
f 72/130/80 65/112/80 77/131/80 78/132/80
f 71/133/81 63/89/81 75/134/81 76/135/81
f 63/89/82 70/88/82 82/115/82 75/134/82
f 74/113/83 68/106/83 80/125/83 81/114/83
f 73/128/84 72/130/84 78/132/84 79/129/84
f 65/112/85 71/133/85 76/135/85 77/131/85
f 84/136/74 83/137/74 91/138/74
f 79/129/86 78/132/86 86/139/86 87/140/86
f 77/131/87 76/135/87 84/141/87 85/142/87
f 82/115/88 81/114/88 89/127/88 90/143/88
f 80/125/89 79/129/89 87/140/89 88/126/89
f 78/132/90 77/131/90 85/142/90 86/139/90
f 76/135/91 75/134/91 83/144/91 84/141/91
f 75/134/92 82/115/92 90/143/92 83/144/92
f 90/143/93 94/145/93 101/146/93 102/147/93
f 83/137/94 90/148/94 91/138/94
f 89/149/75 88/150/75 93/151/75 94/152/75
f 87/153/76 86/154/76 92/155/76
f 90/148/8 89/149/8 94/152/8
f 88/150/64 87/153/64 92/155/64 93/151/64
f 96/156/95 95/157/95 102/147/95 101/146/95 100/158/95 99/159/95 98/160/95 97/161/95
f 93/162/96 92/163/96 99/159/96 100/158/96
f 86/139/97 85/142/97 97/161/97 98/160/97
f 84/141/98 91/164/98 95/157/98 96/156/98
f 91/164/99 90/143/99 102/147/99 95/157/99
f 94/145/100 93/162/100 100/158/100 101/146/100
f 92/163/101 86/139/101 98/160/101 99/159/101
f 85/142/102 84/141/102 96/156/102 97/161/102
f 110/165/103 103/166/103 111/167/103 118/168/103
f 21/27/104 22/26/104 108/169/104 107/170/104
f 19/24/105 20/29/105 106/171/105 105/172/105
f 17/28/106 18/25/106 104/173/106 103/174/106
f 24/20/107 17/28/107 103/174/107 110/22/107
f 22/26/108 23/21/108 109/23/108 108/169/108
f 20/29/109 21/27/109 107/170/109 106/171/109
f 18/25/110 19/24/110 105/172/110 104/173/110
f 111/175/111 112/176/111 113/177/111 114/178/111 115/179/111 116/180/111 117/181/111 118/182/111
f 108/183/112 109/184/112 117/185/112 116/186/112
f 106/187/113 107/188/113 115/189/113 114/190/113
f 104/191/114 105/192/114 113/193/114 112/194/114
f 109/184/115 110/165/115 118/168/115 117/185/115
f 107/188/116 108/183/116 116/186/116 115/189/116
f 105/192/117 106/187/117 114/190/117 113/193/117
f 103/166/118 104/191/118 112/194/118 111/167/118
