# Blender v2.83.5 OBJ File: 'passionfruit03.blend'
# www.blender.org
mtllib passionfruit03.mtl
o Cylinder
v 0.000000 -0.011039 -0.027680
v 0.000000 0.007249 -0.023151
v 0.019572 -0.011039 -0.019572
v 0.019572 0.007249 -0.019572
v 0.027680 -0.011039 0.000000
v 0.021987 0.007249 0.000000
v 0.013535 -0.011039 0.016264
v 0.015031 0.007249 0.016811
v -0.000000 -0.011039 0.025363
v -0.000000 0.007249 0.023300
v -0.014716 -0.011039 0.019572
v -0.014716 0.007249 0.020595
v -0.019470 -0.011039 -0.000000
v -0.024034 0.007249 -0.000000
v -0.019572 -0.011039 -0.019572
v -0.019572 0.007249 -0.019572
v 0.014631 0.019947 -0.014631
v -0.000000 0.019947 -0.020691
v 0.017365 0.019947 0.000000
v 0.014631 0.019947 0.014631
v -0.000000 0.019947 0.020691
v -0.014631 0.019947 0.014631
v -0.012799 0.019947 -0.000000
v -0.014631 0.019947 -0.014631
v -0.000000 -0.023173 -0.019951
v 0.014107 -0.023173 -0.014107
v 0.019951 -0.023173 0.000000
v 0.014107 -0.023173 0.014107
v -0.000000 -0.023173 0.016916
v -0.014107 -0.023173 0.014107
v -0.019951 -0.023173 -0.000000
v -0.009519 -0.023173 -0.012131
v -0.000000 -0.028579 -0.011461
v 0.008104 -0.028579 -0.008104
v 0.011461 -0.028579 0.000000
v 0.008104 -0.028579 0.008104
v -0.000000 -0.028579 0.009024
v -0.008104 -0.028579 0.008104
v -0.007539 -0.028579 -0.000000
v -0.008104 -0.028579 -0.008104
v 0.005704 0.029459 -0.005704
v -0.000000 0.029459 -0.008067
v 0.008067 0.026237 0.000000
v 0.005704 0.029459 0.005704
v -0.000000 0.027340 0.008067
v -0.005704 0.029459 0.005704
v -0.008067 0.029459 -0.000000
v -0.005704 0.029459 -0.005704
v 0.002577 0.029134 -0.002387
v 0.000564 0.029260 -0.003212
v 0.003411 0.028830 -0.000397
v 0.002577 0.028527 0.001593
v 0.000564 0.028401 0.002417
v -0.001449 0.028527 0.001593
v -0.002283 0.028830 -0.000397
v -0.001449 0.029134 -0.002387
v 0.001914 0.028569 -0.001804
v 0.000564 0.028653 -0.002357
v 0.002474 0.028365 -0.000469
v 0.001914 0.028161 0.000866
v 0.000564 0.028076 0.001419
v -0.000787 0.028161 0.000866
v -0.001346 0.028365 -0.000469
v -0.000787 0.028569 -0.001804
v 0.001914 0.035975 -0.000508
v 0.000564 0.036203 -0.001019
v 0.002474 0.035423 0.000724
v 0.001914 0.034871 0.001957
v 0.000564 0.034643 0.002468
v -0.000787 0.034871 0.001957
v -0.001346 0.035423 0.000724
v -0.000787 0.035975 -0.000508
v 0.020212 0.014515 -0.008372
v 0.020212 0.014515 0.008372
v 0.023626 -0.001895 -0.009786
v 0.023626 -0.001895 0.009786
v 0.009786 -0.001895 0.023626
v 0.008372 0.014515 0.020212
v -0.008372 0.014515 0.020212
v -0.009786 -0.001895 0.023626
v -0.008198 -0.018090 0.019792
v 0.019792 -0.018090 0.008198
v 0.008198 -0.018090 -0.019792
v 0.009786 -0.001895 -0.023626
v -0.009786 -0.001895 -0.023626
v -0.008372 0.014515 -0.015684
v 0.008372 0.014515 -0.020212
v 0.009908 0.026791 -0.004104
v 0.004104 0.023798 0.009908
v -0.009908 0.026791 0.004104
v -0.004104 0.026791 -0.009908
v -0.019059 0.014515 -0.008372
v -0.022472 -0.001895 -0.009786
v -0.019125 0.014515 0.008372
v -0.022539 -0.001895 0.009786
v -0.018638 -0.018090 -0.008198
vt 0.187500 0.942500
vt 0.187500 0.942500
vt 0.187500 0.942500
vt 0.187500 0.942500
vt 0.187500 0.942500
vt 0.187500 0.942500
vt 0.187500 0.942500
vt 0.187500 0.942500
vt 0.187500 0.942500
vt 0.187500 0.942500
vt 0.187500 0.942500
vt 0.187500 0.942500
vt 0.187500 0.942500
vt 0.187500 0.942500
vt 0.187500 0.942500
vt 0.187500 0.942500
vt 0.187500 0.942500
vt 0.187500 0.942500
vt 0.187500 0.942500
vt 0.187500 0.942500
vt 0.187500 0.942500
vt 0.187500 0.942500
vt 0.187500 0.942500
vt 0.187500 0.942500
vt 0.187500 0.942500
vt 0.187500 0.942500
vt 0.187500 0.942500
vt 0.187500 0.942500
vt 0.187500 0.942500
vt 0.187500 0.942500
vt 0.187500 0.942500
vt 0.187500 0.942500
vt 0.187500 0.942500
vt 0.187500 0.942500
vt 0.187500 0.942500
vt 0.187500 0.942500
vt 0.187500 0.942500
vt 0.187500 0.942500
vt 0.187500 0.942500
vt 0.187500 0.942500
vt 0.187500 0.942500
vt 0.187500 0.942500
vt 0.187500 0.942500
vt 0.187500 0.942500
vt 0.187500 0.942500
vt 0.187500 0.942500
vt 0.187500 0.942500
vt 0.187500 0.942500
vt 0.187500 0.942500
vt 0.187500 0.942500
vt 0.187500 0.942500
vt 0.187500 0.942500
vt 0.187500 0.942500
vt 0.187500 0.942500
vt 0.187500 0.942500
vt 0.187500 0.942500
vt 0.187500 0.942500
vt 0.187500 0.942500
vt 0.187500 0.942500
vt 0.187500 0.942500
vt 0.187500 0.942500
vt 0.187500 0.942500
vt 0.187500 0.942500
vt 0.187500 0.942500
vt 0.187500 0.942500
vt 0.187500 0.942500
vt 0.187500 0.942500
vt 0.187500 0.942500
vt 0.187500 0.942500
vt 0.187500 0.942500
vt 0.187500 0.942500
vt 0.187500 0.942500
vt 0.187500 0.942500
vt 0.187500 0.942500
vt 0.187500 0.942500
vt 0.187500 0.942500
vt 0.187500 0.942500
vt 0.187500 0.942500
vt 0.187500 0.942500
vt 0.187500 0.942500
vt 0.187500 0.942500
vt 0.187500 0.942500
vt 0.187500 0.567500
vt 0.187500 0.567500
vt 0.187500 0.567500
vt 0.187500 0.567500
vt 0.187500 0.942500
vt 0.187500 0.942500
vt 0.187500 0.942500
vt 0.187500 0.942500
vt 0.187500 0.942500
vt 0.187500 0.942500
vt 0.187500 0.567500
vt 0.187500 0.567500
vt 0.187500 0.567500
vt 0.187500 0.567500
vt 0.187500 0.567500
vt 0.187500 0.567500
vt 0.187500 0.567500
vt 0.187500 0.567500
vt 0.187500 0.567500
vt 0.187500 0.567500
vt 0.187500 0.567500
vt 0.187500 0.567500
vn 0.3827 0.0000 -0.9239
vn 0.9483 0.2952 -0.1170
vn 0.8011 0.4984 0.3315
vn 0.0715 0.1118 0.9912
vn -0.1763 0.2228 0.9588
vn -0.9673 -0.2414 -0.0778
vn 0.3411 0.4533 0.8235
vn -0.9588 0.0000 -0.2841
vn -0.1748 0.2366 -0.9557
vn -0.3847 -0.5986 -0.7026
vn -0.2419 0.7749 -0.5839
vn -0.7186 0.6895 0.0900
vn 0.7682 0.6240 -0.1436
vn -0.3411 0.4533 0.8235
vn -0.3702 -0.2532 -0.8938
vn 0.3411 0.4533 -0.8235
vn 0.7682 0.6240 0.1436
vn -0.8718 0.2131 0.4412
vn -0.0981 -0.8055 0.5844
vn 0.3298 -0.5072 -0.7962
vn 0.7962 -0.5072 0.3298
vn -0.9514 -0.0724 0.2994
vn 0.3683 -0.3649 0.8551
vn -0.5716 -0.7176 -0.3980
vn 0.7962 -0.5072 -0.3298
vn -0.1473 -0.6564 0.7399
vn 0.0000 -1.0000 0.0000
vn 0.5243 -0.8234 0.2172
vn 0.2172 -0.8234 -0.5243
vn -0.3698 -0.7234 -0.5831
vn -0.4754 -0.8725 0.1130
vn 0.0981 -0.8055 0.5844
vn 0.5243 -0.8234 -0.2172
vn -0.5447 -0.7955 -0.2656
vn 0.2290 0.9653 0.1257
vn -0.5839 0.7749 0.2419
vn -0.1250 0.6140 0.7793
vn 0.5839 0.7749 -0.2419
vn -0.8075 0.5896 -0.0211
vn -0.1521 0.8073 0.5703
vn 0.6433 0.7646 0.0401
vn 0.2419 0.7749 -0.5839
vn 0.4415 0.8407 0.3134
vn 0.3218 0.9218 -0.2160
vn -0.0090 0.9981 0.0612
vn 0.0082 0.9982 0.0592
vn 0.1445 0.9893 -0.0210
vn -0.2487 0.9654 0.0780
vn 0.3592 0.8959 0.2614
vn 0.0742 0.9948 0.0701
vn -0.9216 -0.0635 0.3829
vn 0.1829 0.9350 -0.3038
vn -0.4415 0.8960 -0.0481
vn -0.1829 0.8017 0.5691
vn 0.1829 0.8017 0.5691
vn 0.4415 0.8960 -0.0481
vn -0.1829 0.9350 -0.3038
vn -0.4415 0.8407 0.3134
vn 0.0000 0.9127 0.4086
vn 0.3771 -0.1473 0.9144
vn 0.9217 0.0658 -0.3823
vn -0.9217 0.0658 -0.3823
vn -0.3771 -0.1473 0.9144
vn 0.9216 -0.0635 0.3829
vn 0.3777 0.1606 -0.9119
vn -0.3777 0.1606 -0.9119
vn 0.9874 0.1008 -0.1218
vn 0.8235 0.4533 -0.3411
vn 0.9352 0.3404 0.0972
vn 0.9034 -0.2101 0.3738
vn 0.9352 0.3404 -0.0972
vn 0.7926 0.1274 0.5963
vn 0.9239 0.0000 -0.3827
vn 0.7082 -0.3452 0.6159
vn 0.5842 -0.0720 0.8084
vn 0.9483 0.2952 0.1170
vn 0.8414 -0.0848 0.5337
vn 0.3605 0.4156 0.8350
vn 0.5108 -0.4023 0.7598
vn 0.3955 -0.0664 0.9161
vn 0.5788 0.1557 0.8005
vn 0.1834 0.1979 0.9629
vn -0.1770 0.2051 0.9626
vn -0.1834 0.1979 0.9629
vn -0.3991 0.3920 0.8289
vn -0.3580 -0.2103 0.9097
vn -0.5830 -0.0453 0.8112
vn -0.0715 0.1118 0.9912
vn -0.3498 -0.2956 0.8890
vn -0.4451 -0.3862 0.8079
vn -0.0661 -0.5701 0.8189
vn 0.7521 -0.0808 0.6541
vn 0.1748 0.2366 -0.9557
vn -0.3827 0.0000 -0.9239
vn -0.1402 0.6264 -0.7668
vn 0.1190 0.3195 -0.9401
vn -0.5792 0.1551 -0.8003
vn 0.1767 0.1873 -0.9663
vn 0.5266 0.7785 0.3414
vn 0.4246 0.8522 0.3056
vn 0.7088 0.6928 -0.1325
vn 0.4599 0.7662 0.4487
vn 0.1256 0.5683 0.8132
vn 0.1596 0.9088 0.3854
vn -0.8898 0.4426 -0.1114
vn -0.9016 0.3806 -0.2055
vn -0.7427 0.6571 0.1290
vn -0.8693 0.4319 -0.2403
vn -0.9678 -0.2415 0.0712
vn -0.9725 0.0712 -0.2217
vn -0.9517 -0.3071 0.0050
vn -0.7421 0.6566 -0.1348
vn -0.7143 0.6941 -0.0894
vn -0.9022 0.1391 0.4082
vn -0.7958 -0.0338 0.6046
vn -0.8745 0.2805 0.3957
vn -0.8410 -0.5009 0.2043
vn -0.9902 0.0392 -0.1342
vn -0.5760 -0.6502 -0.4953
vn -0.9924 -0.1231 0.0052
usemtl Material.001
s off
f 4/1/1 3/2/1 84/3/1
f 4/1/2 6/4/2 75/5/2
f 6/4/3 8/6/3 76/7/3
f 10/8/4 9/9/4 77/10/4
f 10/8/5 12/11/5 80/12/5
f 14/13/6 13/14/6 95/15/6
f 20/16/7 21/17/7 78/18/7
f 16/19/8 15/20/8 93/21/8
f 16/19/9 2/22/9 85/23/9
f 15/20/10 1/24/10 25/25/10 32/26/10
f 24/27/11 48/28/11 91/29/11
f 23/30/12 24/27/12 92/31/12
f 17/32/13 19/33/13 73/34/13
f 21/17/14 22/35/14 79/36/14
f 24/27/15 18/37/15 86/38/15
f 18/37/16 17/32/16 87/39/16
f 19/33/17 20/16/17 74/40/17
f 12/11/18 22/35/18 94/41/18
f 29/42/19 30/43/19 38/44/19 37/45/19
f 26/46/20 25/25/20 83/47/20
f 28/48/21 27/49/21 82/50/21
f 11/51/22 13/14/22 31/52/22 30/43/22
f 7/53/23 9/9/23 29/42/23 28/48/23
f 15/20/24 32/26/24 96/54/24
f 3/2/25 5/55/25 27/49/25 26/46/25
f 30/43/26 29/42/26 81/56/26
f 33/57/27 34/58/27 35/59/27 36/60/27 37/45/27 38/44/27 39/61/27 40/62/27
f 27/49/28 28/48/28 36/60/28 35/59/28
f 25/25/29 26/46/29 34/58/29 33/57/29
f 32/26/30 25/25/30 33/57/30 40/62/30
f 30/43/31 31/52/31 39/61/31 38/44/31
f 28/48/32 29/42/32 37/45/32 36/60/32
f 26/46/33 27/49/33 35/59/33 34/58/33
f 31/52/34 32/26/34 40/62/34 39/61/34
f 46/63/35 45/64/35 53/65/35 54/66/35
f 22/35/36 46/63/36 90/67/36
f 20/16/37 44/68/37 89/69/37
f 17/32/38 41/70/38 88/71/38
f 24/27/39 23/30/39 47/72/39 48/28/39
f 22/35/40 21/17/40 45/64/40 46/63/40
f 20/16/41 19/33/41 43/73/41 44/68/41
f 17/32/42 18/37/42 42/74/42 41/70/42
f 56/75/43 55/76/43 63/77/43 64/78/43
f 44/68/44 43/73/44 51/79/44 52/80/44
f 41/70/45 42/74/45 50/81/45 49/82/45
f 42/74/46 48/28/46 56/75/46 50/81/46
f 47/72/47 46/63/47 54/66/47 55/76/47
f 45/64/48 44/68/48 52/80/48 53/65/48
f 43/73/49 41/70/49 49/82/49 51/79/49
f 48/28/50 47/72/50 55/76/50 56/75/50
f 63/83/51 62/84/51 70/85/51 71/86/51
f 54/66/52 53/65/52 61/87/52 62/88/52
f 52/80/53 51/79/53 59/89/53 60/90/53
f 49/82/54 50/81/54 58/91/54 57/92/54
f 50/81/55 56/75/55 64/78/55 58/91/55
f 55/76/56 54/66/56 62/88/56 63/77/56
f 53/65/57 52/80/57 60/90/57 61/87/57
f 51/79/58 49/82/58 57/92/58 59/89/58
f 65/93/59 66/94/59 72/95/59 71/86/59 70/85/59 69/96/59 68/97/59 67/98/59
f 61/99/60 60/100/60 68/97/60 69/96/60
f 59/101/61 57/102/61 65/93/61 67/98/61
f 64/103/62 63/83/62 71/86/62 72/95/62
f 62/84/63 61/99/63 69/96/63 70/85/63
f 60/100/64 59/101/64 67/98/64 68/97/64
f 57/102/65 58/104/65 66/94/65 65/93/65
f 58/104/66 64/103/66 72/95/66 66/94/66
f 6/4/67 4/1/67 73/34/67
f 4/1/68 17/32/68 73/34/68
f 19/33/69 6/4/69 73/34/69
f 8/6/70 6/4/70 74/40/70
f 6/4/71 19/33/71 74/40/71
f 20/16/72 8/6/72 74/40/72
f 5/55/73 3/2/73 75/5/73
f 6/4/2 5/55/2 75/5/2
f 3/2/73 4/1/73 75/5/73
f 7/53/74 5/55/74 76/7/74
f 8/6/75 7/53/75 76/7/75
f 5/55/76 6/4/76 76/7/76
f 7/53/77 8/6/77 77/10/77
f 8/6/78 10/8/78 77/10/78
f 9/9/79 7/53/79 77/10/79
f 10/8/80 8/6/80 78/18/80
f 8/6/81 20/16/81 78/18/81
f 21/17/82 10/8/82 78/18/82
f 12/11/83 10/8/83 79/36/83
f 10/8/84 21/17/84 79/36/84
f 22/35/85 12/11/85 79/36/85
f 11/51/86 9/9/86 80/12/86
f 12/11/87 11/51/87 80/12/87
f 9/9/88 10/8/88 80/12/88
f 9/9/89 11/51/89 81/56/89
f 11/51/90 30/43/90 81/56/90
f 29/42/91 9/9/91 81/56/91
f 5/55/92 7/53/92 82/50/92
f 7/53/92 28/48/92 82/50/92
f 27/49/21 5/55/21 82/50/21
f 1/24/20 3/2/20 83/47/20
f 3/2/20 26/46/20 83/47/20
f 25/25/20 1/24/20 83/47/20
f 1/24/93 2/22/93 84/3/93
f 2/22/93 4/1/93 84/3/93
f 3/2/1 1/24/1 84/3/1
f 1/24/94 15/20/94 85/23/94
f 15/20/94 16/19/94 85/23/94
f 2/22/9 1/24/9 85/23/9
f 2/22/95 16/19/95 86/38/95
f 16/19/96 24/27/96 86/38/96
f 18/37/97 2/22/97 86/38/97
f 4/1/98 2/22/98 87/39/98
f 2/22/98 18/37/98 87/39/98
f 17/32/16 4/1/16 87/39/16
f 43/73/99 19/33/99 88/71/99
f 41/70/100 43/73/100 88/71/100
f 19/33/101 17/32/101 88/71/101
f 45/64/102 21/17/102 89/69/102
f 44/68/103 45/64/103 89/69/103
f 21/17/104 20/16/104 89/69/104
f 47/72/105 23/30/105 90/67/105
f 46/63/36 47/72/36 90/67/36
f 23/30/105 22/35/105 90/67/105
f 42/74/11 18/37/11 91/29/11
f 48/28/11 42/74/11 91/29/11
f 18/37/11 24/27/11 91/29/11
f 16/19/106 14/13/106 92/31/106
f 14/13/107 23/30/107 92/31/107
f 24/27/108 16/19/108 92/31/108
f 13/14/109 14/13/109 93/21/109
f 14/13/110 16/19/110 93/21/110
f 15/20/111 13/14/111 93/21/111
f 23/30/112 14/13/112 94/41/112
f 22/35/113 23/30/113 94/41/113
f 14/13/114 12/11/114 94/41/114
f 11/51/115 12/11/115 95/15/115
f 12/11/116 14/13/116 95/15/116
f 13/14/117 11/51/117 95/15/117
f 31/52/118 13/14/118 96/54/118
f 32/26/119 31/52/119 96/54/119
f 13/14/120 15/20/120 96/54/120
