# Blender v2.83.5 OBJ File: 'passionfruit04.blend'
# www.blender.org
mtllib passionfruit04.mtl
o Cylinder.001
v 0.007127 -0.007167 -0.027680
v 0.007127 0.011120 -0.023151
v 0.007127 -0.007167 0.025363
v 0.007127 0.011120 0.023300
v 0.007127 0.023818 -0.020691
v 0.007127 0.023818 0.020691
v 0.007127 -0.019302 -0.019951
v 0.007127 -0.019302 0.016916
v 0.007127 -0.024708 -0.011461
v 0.007127 -0.024708 0.009024
v 0.007127 0.033331 -0.008067
v 0.007127 0.031211 0.008067
v 0.007691 0.033131 -0.003212
v 0.007691 0.032272 0.002417
v 0.007691 0.032524 -0.002357
v 0.007691 0.031948 0.001419
v 0.007812 -0.005403 -0.023869
v 0.007812 0.010754 -0.019810
v 0.007812 -0.003802 0.022082
v 0.007812 0.010754 0.020097
v 0.007812 0.022277 -0.016976
v 0.007812 0.021642 0.017795
v 0.007812 -0.013460 -0.017934
v 0.007812 -0.015878 0.015835
v 0.007812 -0.020181 -0.011177
v 0.007812 -0.020181 0.009078
v 0.007812 0.030233 -0.006465
v 0.007812 0.028432 0.006376
v 0.007812 0.028860 -0.002990
v 0.007812 0.029133 0.001431
v 0.007812 0.029025 -0.002180
v 0.007812 0.029168 0.000786
v 0.007812 0.030159 -0.002331
v 0.007812 0.030616 0.000863
v 0.007812 -0.003127 -0.020364
v 0.007812 0.010695 -0.016305
v 0.007812 0.010695 0.016537
v 0.007812 -0.001526 0.018521
v 0.007812 0.019963 0.015126
v 0.007812 0.020598 -0.014363
v 0.007812 -0.009636 -0.015416
v 0.007812 -0.012054 0.013261
v 0.007812 -0.015667 0.007587
v 0.007812 -0.015667 -0.009742
v 0.007812 0.027340 -0.005463
v 0.007812 0.025538 0.005319
v 0.007812 0.026127 0.001167
v 0.007812 0.025898 -0.002545
v 0.007812 0.026097 -0.000620
v 0.008279 0.019181 -0.003888
v 0.007812 -0.015667 -0.000072
v 0.007812 -0.015667 -0.003902
v 0.007812 -0.015667 0.003758
v 0.007812 0.019181 -0.008351
v 0.010501 0.019181 -0.000597
v 0.009579 0.019181 0.003737
v 0.009984 0.019181 0.008475
v 0.006148 0.010695 0.009593
v -0.002288 0.010695 0.003482
v -0.002288 0.010695 -0.000468
v -0.000116 0.010695 -0.004537
v 0.003600 0.010695 -0.009511
v 0.003600 -0.001526 0.009802
v -0.000116 -0.001526 0.004282
v -0.002288 -0.001526 -0.000259
v -0.002288 -0.001526 -0.004855
v 0.005773 -0.001526 -0.009860
v 0.005773 -0.009636 0.007376
v 0.006536 -0.009636 0.003520
v 0.006536 -0.009636 -0.000123
v 0.005773 -0.009636 -0.003777
v 0.007812 -0.009636 -0.007520
v 0.007812 -0.001526 0.013400
v 0.009984 0.010695 0.013610
v 0.007812 -0.001526 -0.013544
v 0.009984 0.010695 -0.013754
v -0.007588 -0.007167 0.019572
v -0.007588 0.011120 0.020595
v -0.012343 -0.007167 -0.000000
v -0.016906 0.011120 -0.000000
v -0.012445 -0.007167 -0.019572
v -0.012445 0.011120 -0.019572
v -0.007503 0.023818 0.014631
v -0.005671 0.023818 -0.000000
v -0.007503 0.023818 -0.014631
v -0.006980 -0.019302 0.014107
v -0.012823 -0.019302 -0.000000
v -0.002392 -0.019302 -0.012131
v -0.000977 -0.024708 0.008104
v -0.000412 -0.024708 -0.000000
v -0.000977 -0.024708 -0.008104
v 0.001423 0.033331 0.005704
v -0.000939 0.033331 -0.000000
v 0.001423 0.033331 -0.005704
v 0.005678 0.032398 0.001593
v 0.004844 0.032702 -0.000397
v 0.005678 0.033006 -0.002387
v 0.006341 0.032032 0.000866
v 0.005781 0.032236 -0.000469
v 0.006341 0.032440 -0.001804
v -0.001245 0.018386 0.020212
v -0.002659 0.001976 0.023626
v -0.001071 -0.014219 0.019792
v -0.002659 0.001976 -0.023626
v -0.001245 0.018386 -0.015684
v -0.002781 0.030662 0.004104
v 0.003023 0.030662 -0.009908
v -0.011931 0.018386 -0.008372
v -0.015345 0.001976 -0.009786
v -0.011998 0.018386 0.008372
v -0.015412 0.001976 0.009786
v -0.011511 -0.014219 -0.008198
v 0.007127 -0.024708 -0.001219
vt 0.187500 0.942500
vt 0.187500 0.942500
vt 0.187500 0.942500
vt 0.187500 0.942500
vt 0.937500 0.192500
vt 0.937500 0.192500
vt 0.937500 0.192500
vt 0.937500 0.192500
vt 0.187500 0.942500
vt 0.187500 0.942500
vt 0.187500 0.942500
vt 0.187500 0.942500
vt 0.187500 0.942500
vt 0.187500 0.942500
vt 0.187500 0.942500
vt 0.187500 0.942500
vt 0.187500 0.942500
vt 0.187500 0.942500
vt 0.187500 0.942500
vt 0.187500 0.942500
vt 0.187500 0.942500
vt 0.187500 0.942500
vt 0.187500 0.942500
vt 0.187500 0.942500
vt 0.187500 0.942500
vt 0.187500 0.942500
vt 0.187500 0.942500
vt 0.187500 0.942500
vt 0.187500 0.942500
vt 0.187500 0.942500
vt 0.187500 0.942500
vt 0.187500 0.942500
vt 0.187500 0.942500
vt 0.187500 0.942500
vt 0.187500 0.942500
vt 0.187500 0.942500
vt 0.187500 0.942500
vt 0.187500 0.942500
vt 0.187500 0.817500
vt 0.187500 0.817500
vt 0.187500 0.817500
vt 0.187500 0.817500
vt 0.687500 0.692500
vt 0.687500 0.692500
vt 0.687500 0.692500
vt 0.937500 0.192500
vt 0.937500 0.192500
vt 0.937500 0.192500
vt 0.937500 0.192500
vt 0.937500 0.192500
vt 0.937500 0.192500
vt 0.937500 0.192500
vt 0.937500 0.192500
vt 0.937500 0.192500
vt 0.937500 0.192500
vt 0.937500 0.192500
vt 0.937500 0.192500
vt 0.937500 0.192500
vt 0.937500 0.192500
vt 0.937500 0.192500
vt 0.937500 0.192500
vt 0.937500 0.192500
vt 0.937500 0.192500
vt 0.937500 0.192500
vt 0.937500 0.192500
vt 0.937500 0.192500
vt 0.937500 0.192500
vt 0.937500 0.192500
vt 0.937500 0.192500
vt 0.937500 0.192500
vt 0.937500 0.192500
vt 0.937500 0.192500
vt 0.937500 0.192500
vt 0.937500 0.192500
vt 0.937500 0.192500
vt 0.437500 0.692500
vt 0.437500 0.692500
vt 0.437500 0.692500
vt 0.437500 0.692500
vt 0.437500 0.692500
vt 0.437500 0.692500
vt 0.437500 0.692500
vt 0.437500 0.692500
vt 0.437500 0.692500
vt 0.437500 0.692500
vt 0.437500 0.692500
vt 0.437500 0.692500
vt 0.437500 0.692500
vt 0.437500 0.692500
vt 0.687500 0.692500
vt 0.687500 0.692500
vt 0.687500 0.692500
vt 0.687500 0.692500
vt 0.437500 0.692500
vt 0.437500 0.692500
vt 0.437500 0.692500
vt 0.437500 0.692500
vt 0.437500 0.692500
vt 0.437500 0.692500
vt 0.437500 0.692500
vt 0.437500 0.692500
vt 0.437500 0.692500
vt 0.437500 0.692500
vt 0.687500 0.692500
vt 0.687500 0.692500
vt 0.687500 0.692500
vt 0.687500 0.692500
vt 0.437500 0.692500
vt 0.437500 0.692500
vt 0.437500 0.692500
vt 0.687500 0.692500
vt 0.687500 0.692500
vt 0.687500 0.692500
vt 0.687500 0.692500
vt 0.437500 0.692500
vt 0.437500 0.692500
vt 0.437500 0.692500
vt 0.437500 0.692500
vt 0.437500 0.692500
vt 0.437500 0.692500
vt 0.437500 0.692500
vt 0.437500 0.692500
vt 0.437500 0.692500
vt 0.437500 0.692500
vt 0.437500 0.692500
vt 0.437500 0.692500
vt 0.437500 0.692500
vt 0.437500 0.692500
vt 0.687500 0.692500
vt 0.687500 0.692500
vt 0.687500 0.692500
vt 0.437500 0.692500
vt 0.687500 0.692500
vt 0.687500 0.692500
vt 0.687500 0.692500
vt 0.187500 0.942500
vt 0.187500 0.942500
vt 0.187500 0.942500
vt 0.187500 0.942500
vt 0.187500 0.942500
vt 0.187500 0.942500
vt 0.187500 0.942500
vt 0.187500 0.942500
vt 0.187500 0.942500
vt 0.187500 0.942500
vt 0.187500 0.942500
vt 0.187500 0.942500
vt 0.187500 0.942500
vt 0.187500 0.942500
vt 0.187500 0.942500
vt 0.187500 0.942500
vt 0.187500 0.942500
vt 0.187500 0.942500
vt 0.187500 0.942500
vt 0.187500 0.942500
vt 0.187500 0.942500
vt 0.187500 0.942500
vt 0.187500 0.942500
vt 0.187500 0.942500
vt 0.187500 0.942500
vt 0.187500 0.942500
vt 0.187500 0.942500
vt 0.187500 0.942500
vt 0.187500 0.942500
vt 0.187500 0.942500
vt 0.187500 0.942500
vt 0.187500 0.942500
vt 0.187500 0.942500
vt 0.187500 0.942500
vt 0.187500 0.942500
vt 0.187500 0.942500
vt 0.187500 0.942500
vt 0.187500 0.817500
vt 0.187500 0.817500
vt 0.187500 0.817500
vn 0.9829 0.0393 -0.1800
vn 1.0000 -0.0000 0.0000
vn 0.9824 -0.1558 0.1032
vn 0.9792 0.0491 -0.1970
vn 0.9899 -0.1111 -0.0883
vn 0.9995 0.0301 -0.0138
vn 0.9827 -0.0962 0.1585
vn 0.9809 0.1552 -0.1172
vn 0.9755 0.0269 0.2184
vn 0.9922 0.1033 0.0700
vn 0.9888 -0.1495 0.0000
vn 0.9785 0.0421 0.2021
vn 0.9941 0.0964 -0.0491
vn 0.9792 0.1749 0.1032
vn 0.9889 -0.0835 -0.1233
vn 0.9990 0.0354 0.0262
vn 0.9979 0.0649 0.0011
vn 0.8771 0.4176 0.2374
vn 0.9615 0.2737 -0.0257
vn 0.9974 0.0467 -0.0541
vn 0.8890 0.2434 -0.3878
vn 0.9349 0.3266 0.1391
vn 0.6204 -0.5997 -0.5055
vn 0.5657 -0.8222 0.0629
vn 0.7611 -0.5933 0.2620
vn 0.6253 -0.7804 -0.0041
vn 0.8506 -0.1097 0.5143
vn 0.7997 0.0903 0.5935
vn 0.6463 -0.0208 0.7628
vn 0.9663 -0.0870 0.2422
vn 0.9660 0.0756 -0.2472
vn 0.6909 -0.0404 -0.7219
vn 0.9633 -0.0667 0.2600
vn 0.6854 -0.0041 0.7282
vn 0.5695 0.4932 0.6575
vn 0.6937 0.7174 -0.0642
vn 0.7070 0.6819 -0.1877
vn 0.8258 0.5004 -0.2601
vn 0.9706 0.1239 0.2065
vn 0.9595 0.2642 -0.0979
vn 0.9784 0.2069 0.0000
vn 0.9590 0.2670 0.0953
vn 0.9310 0.3079 -0.1961
vn 0.6813 -0.1315 -0.7201
vn 0.8422 0.1686 -0.5121
vn 0.9851 -0.0890 -0.1471
vn 0.9748 -0.0491 -0.2176
vn 0.9768 0.1278 0.1720
vn 0.7553 0.1261 -0.6432
vn -0.1763 0.2228 0.9588
vn -0.9673 -0.2414 -0.0778
vn -0.9588 0.0000 -0.2841
vn -0.1748 0.2366 -0.9557
vn -0.3847 -0.5986 -0.7026
vn -0.2419 0.7749 -0.5839
vn -0.7186 0.6895 0.0900
vn -0.3411 0.4533 0.8235
vn -0.3702 -0.2532 -0.8938
vn -0.8718 0.2131 0.4412
vn -0.0981 -0.8055 0.5844
vn -0.9514 -0.0724 0.2994
vn -0.5716 -0.7176 -0.3980
vn -0.1473 -0.6564 0.7399
vn -0.3698 -0.7234 -0.5831
vn -0.4754 -0.8725 0.1130
vn -0.5447 -0.7955 -0.2656
vn 0.2290 0.9653 0.1257
vn -0.5839 0.7749 0.2419
vn -0.8075 0.5896 -0.0211
vn -0.1521 0.8073 0.5703
vn 0.4415 0.8407 0.3134
vn 0.0082 0.9982 0.0592
vn 0.1445 0.9893 -0.0210
vn 0.0742 0.9948 0.0701
vn 0.0000 -1.0000 0.0000
vn 0.1829 0.9350 -0.3038
vn 0.1829 0.8017 0.5691
vn 0.4415 0.8960 -0.0481
vn 0.0000 0.9885 0.1510
vn -0.1770 0.2051 0.9626
vn -0.1834 0.1979 0.9629
vn -0.3991 0.3920 0.8289
vn -0.3580 -0.2103 0.9097
vn -0.5830 -0.0453 0.8112
vn -0.0715 0.1118 0.9912
vn -0.3498 -0.2956 0.8890
vn -0.4451 -0.3862 0.8079
vn -0.0661 -0.5701 0.8189
vn -0.3827 0.0000 -0.9239
vn -0.1402 0.6264 -0.7668
vn 0.1190 0.3195 -0.9401
vn -0.5792 0.1551 -0.8003
vn -0.8898 0.4426 -0.1114
vn -0.9016 0.3806 -0.2055
vn -0.7427 0.6571 0.1290
vn -0.8693 0.4319 -0.2403
vn -0.9678 -0.2415 0.0712
vn -0.9725 0.0712 -0.2217
vn -0.9517 -0.3071 0.0050
vn -0.7421 0.6566 -0.1348
vn -0.7143 0.6941 -0.0894
vn -0.9022 0.1391 0.4082
vn -0.7958 -0.0338 0.6046
vn -0.8745 0.2805 0.3957
vn -0.8410 -0.5009 0.2043
vn -0.9902 0.0392 -0.1342
vn -0.5760 -0.6502 -0.4953
vn -0.9924 -0.1231 0.0052
usemtl Material.002
s off
f 2/1/1 5/2/1 21/3/1 18/4/1
f 30/5/2 28/6/2 46/7/2 47/8/2
f 33/9/2 34/10/2 32/11/2 31/12/2
f 8/13/3 10/14/3 26/15/3 24/16/3
f 1/17/4 2/1/4 18/4/4 17/18/4
f 9/19/5 7/20/5 23/21/5 25/22/5
f 13/23/6 15/24/6 33/9/6 31/12/6 29/25/6
f 3/26/7 8/13/7 24/16/7 19/27/7
f 5/2/8 11/28/8 27/29/8 21/3/8
f 4/30/9 3/26/9 19/27/9 20/31/9
f 14/32/10 12/33/10 28/34/10 30/35/10
f 10/14/11 9/19/11 25/22/11 26/15/11
f 6/36/12 4/30/12 20/31/12 22/37/12
f 11/28/13 13/23/13 29/25/13 27/29/13
f 12/33/14 6/36/14 22/37/14 28/34/14
f 7/20/15 1/17/15 17/18/15 23/21/15
f 16/38/16 14/32/16 30/35/16 32/11/16 34/10/16
f 15/39/17 16/40/17 34/41/17 33/42/17
f 57/43/18 46/44/18 39/45/18
f 18/46/2 21/47/2 40/48/2 36/49/2
f 27/50/2 29/51/2 48/52/2 45/53/2
f 23/54/2 17/55/2 35/56/2 41/57/2
f 31/58/2 32/59/2 49/60/2
f 19/61/2 24/62/2 42/63/2 38/64/2
f 32/59/2 30/5/2 47/8/2 49/60/2
f 24/62/2 26/65/2 43/66/2 42/63/2
f 29/51/2 31/58/2 49/60/2 48/52/2
f 25/67/2 23/54/2 41/57/2 44/68/2
f 17/55/2 18/46/2 36/49/2 35/56/2
f 26/65/2 25/67/2 44/68/2 52/69/2 51/70/2 53/71/2 43/66/2
f 21/47/2 27/50/2 45/53/2 40/48/2
f 20/72/2 19/61/2 38/64/2 37/73/2
f 28/6/2 22/74/2 39/75/2 46/7/2
f 22/74/2 20/72/2 37/73/2 39/75/2
f 54/76/2 40/77/2 45/78/2
f 56/79/19 47/80/19 46/81/19 57/82/19
f 54/76/20 45/78/20 48/83/20 50/84/20
f 50/84/21 48/83/21 49/85/21 55/86/21
f 55/86/22 49/85/22 47/80/22 56/79/22
f 59/87/23 56/79/23 57/82/23 58/88/23
f 60/89/24 55/86/24 56/79/24 59/87/24
f 62/90/25 54/91/25 50/92/25 61/93/25
f 61/94/26 50/84/26 55/86/26 60/89/26
f 40/77/27 54/76/27 62/95/27 76/96/27
f 74/97/28 39/98/28 37/99/28
f 67/100/29 62/95/29 61/94/29 66/101/29
f 66/101/30 61/94/30 60/89/30 65/102/30
f 65/102/31 60/89/31 59/87/31 64/103/31
f 64/104/32 59/105/32 58/106/32 63/107/32
f 73/108/33 74/97/33 37/99/33 38/109/33
f 75/110/34 76/96/34 62/95/34 67/100/34
f 72/111/35 67/112/35 66/113/35 71/114/35
f 71/115/36 66/101/36 65/102/36 70/116/36
f 70/116/37 65/102/37 64/103/37 69/117/37
f 69/117/38 64/103/38 63/118/38 68/119/38
f 42/120/2 73/108/2 38/109/2
f 41/121/2 35/122/2 75/110/2
f 44/123/39 72/124/39 71/115/39 52/125/39
f 52/125/40 71/115/40 70/116/40 51/126/40
f 51/126/41 70/116/41 69/117/41 53/127/41
f 53/127/42 69/117/42 68/119/42 43/128/42
f 43/128/43 68/119/43 42/120/43
f 44/123/2 41/121/2 72/124/2
f 63/118/44 58/88/44 74/97/44 73/108/44
f 68/129/45 63/107/45 73/130/45 42/131/45
f 58/88/46 57/82/46 39/98/46 74/97/46
f 35/122/47 36/132/47 76/96/47 75/110/47
f 72/124/48 41/121/48 75/110/48 67/100/48
f 36/133/49 40/134/49 76/135/49
usemtl Material.001
f 4/30/50 78/136/50 102/137/50
f 80/138/51 79/139/51 111/140/51
f 82/141/52 81/142/52 109/143/52
f 82/141/53 2/1/53 104/144/53
f 81/142/54 1/17/54 7/20/54 88/145/54
f 85/146/55 94/147/55 107/148/55
f 84/149/56 85/146/56 108/150/56
f 6/36/57 83/151/57 101/152/57
f 85/146/58 5/2/58 105/153/58
f 78/136/59 83/151/59 110/154/59
f 8/13/60 86/155/60 89/156/60 10/14/60
f 77/157/61 79/139/61 87/158/61 86/155/61
f 81/142/62 88/145/62 112/159/62
f 86/155/63 8/13/63 103/160/63
f 88/145/64 7/20/64 9/19/64 91/161/64
f 86/155/65 87/158/65 90/162/65 89/156/65
f 87/158/66 88/145/66 91/161/66 90/162/66
f 92/163/67 12/33/67 14/32/67 95/164/67
f 83/151/68 92/163/68 106/165/68
f 85/146/69 84/149/69 93/166/69 94/147/69
f 83/151/70 6/36/70 12/33/70 92/163/70
f 97/167/71 96/168/71 99/169/71 100/170/71
f 11/28/72 94/147/72 97/167/72 13/23/72
f 93/166/73 92/163/73 95/164/73 96/168/73
f 94/147/74 93/166/74 96/168/74 97/167/74
f 113/171/75 90/162/75 91/161/75 9/19/75
f 95/164/76 14/32/76 16/38/76 98/172/76
f 13/23/77 97/167/77 100/170/77 15/24/77
f 96/168/78 95/164/78 98/172/78 99/169/78
f 98/173/79 16/40/79 15/39/79 100/174/79 99/175/79
f 78/136/80 4/30/80 101/152/80
f 4/30/81 6/36/81 101/152/81
f 83/151/82 78/136/82 101/152/82
f 77/157/83 3/26/83 102/137/83
f 78/136/84 77/157/84 102/137/84
f 3/26/85 4/30/85 102/137/85
f 3/26/86 77/157/86 103/160/86
f 77/157/87 86/155/87 103/160/87
f 8/13/88 3/26/88 103/160/88
f 1/17/89 81/142/89 104/144/89
f 81/142/89 82/141/89 104/144/89
f 2/1/53 1/17/53 104/144/53
f 2/1/90 82/141/90 105/153/90
f 82/141/91 85/146/91 105/153/91
f 5/2/92 2/1/92 105/153/92
f 93/166/93 84/149/93 106/165/93
f 92/163/68 93/166/68 106/165/68
f 84/149/93 83/151/93 106/165/93
f 11/28/55 5/2/55 107/148/55
f 94/147/55 11/28/55 107/148/55
f 5/2/55 85/146/55 107/148/55
f 82/141/94 80/138/94 108/150/94
f 80/138/95 84/149/95 108/150/95
f 85/146/96 82/141/96 108/150/96
f 79/139/97 80/138/97 109/143/97
f 80/138/98 82/141/98 109/143/98
f 81/142/99 79/139/99 109/143/99
f 84/149/100 80/138/100 110/154/100
f 83/151/101 84/149/101 110/154/101
f 80/138/102 78/136/102 110/154/102
f 77/157/103 78/136/103 111/140/103
f 78/136/104 80/138/104 111/140/104
f 79/139/105 77/157/105 111/140/105
f 87/158/106 79/139/106 112/159/106
f 88/145/107 87/158/107 112/159/107
f 79/139/108 81/142/108 112/159/108
f 10/14/75 89/156/75 90/162/75 113/171/75
