# Blender v2.83.5 OBJ File: 'pepperfruit03.blend'
# www.blender.org
mtllib pepperfruit03.mtl
o Cylinder.002
v -0.001092 -0.044084 -0.015247
v -0.001092 -0.038622 -0.023468
v 0.007755 -0.044084 -0.011625
v 0.012452 -0.038622 -0.017923
v 0.012462 -0.044084 -0.002452
v 0.019659 -0.038622 -0.003880
v 0.010827 -0.044084 0.007978
v 0.017156 -0.038622 0.012089
v 0.003616 -0.044084 0.014786
v 0.006115 -0.038622 0.022511
v -0.005799 -0.044084 0.014786
v -0.008298 -0.038622 0.022511
v -0.013011 -0.044084 0.007978
v -0.019340 -0.038622 0.012089
v -0.014646 -0.044084 -0.002452
v -0.021842 -0.038622 -0.003880
v -0.009939 -0.044084 -0.011625
v -0.014636 -0.038622 -0.017923
v -0.012861 -0.036041 0.015875
v 0.016708 -0.036041 0.003767
v -0.007397 -0.036041 -0.018988
v 0.010503 -0.041052 0.002536
v -0.008811 -0.041052 0.010445
v -0.005242 -0.041052 -0.012327
v -0.001103 -0.023818 -0.033293
v 0.018053 -0.023818 -0.025449
v 0.028246 -0.023818 -0.005588
v 0.024706 -0.023818 0.016998
v 0.009090 -0.023818 0.031739
v -0.011296 -0.023818 0.031739
v -0.026912 -0.023818 0.016998
v -0.030452 -0.023818 -0.005588
v -0.020260 -0.023818 -0.025449
v -0.016427 -0.022179 0.020618
v 0.024310 -0.023818 0.005275
v -0.009306 -0.022179 -0.024817
v -0.001092 0.000631 -0.033842
v 0.019422 0.000631 -0.027268
v 0.028739 0.000631 -0.005681
v 0.025141 0.000631 0.017275
v 0.009823 0.000631 0.033975
v -0.011453 0.000631 0.032259
v -0.027326 0.000631 0.017275
v -0.032522 0.000631 -0.005998
v -0.020563 0.000631 -0.025869
v -0.017992 0.000356 0.022722
v 0.024517 0.000356 0.005316
v -0.010137 0.000356 -0.027397
v -0.001094 0.020358 -0.032915
v 0.019180 0.020076 -0.026946
v 0.027926 0.020358 -0.005521
v 0.025506 0.020994 0.015286
v 0.011824 0.020731 0.030860
v -0.011172 0.020358 0.031387
v -0.026613 0.020358 0.016811
v -0.032155 0.020076 -0.005926
v -0.020035 0.020358 -0.025159
v -0.017531 0.018469 0.022111
v 0.023821 0.018469 0.005178
v -0.009890 0.018469 -0.026645
v -0.003620 0.030193 -0.027768
v 0.015766 0.031880 -0.022368
v 0.024326 0.030193 -0.004806
v 0.022566 0.030127 0.013376
v 0.010137 0.031694 0.025644
v -0.011158 0.030193 0.026355
v -0.022211 0.030193 0.015922
v -0.026924 0.031880 -0.004888
v -0.015159 0.030193 -0.023043
v -0.014661 0.023454 0.018263
v 0.019425 0.023454 0.004306
v -0.008363 0.023454 -0.021925
v -0.002489 0.032815 -0.016017
v 0.008519 0.032815 -0.012652
v 0.013634 0.032815 -0.002686
v 0.013834 0.032563 0.007704
v 0.006555 0.032563 0.014575
v -0.006209 0.032815 0.016046
v -0.014045 0.032815 0.008648
v -0.015821 0.032815 -0.002686
v -0.009312 0.032815 -0.013223
v -0.008737 0.027152 0.010320
v 0.010347 0.027152 0.002505
v -0.005210 0.027152 -0.012181
v -0.001094 0.029391 -0.009017
v 0.004193 0.029391 -0.006852
v 0.007006 0.029391 -0.001371
v 0.006029 0.029391 0.004862
v 0.001719 0.029391 0.008931
v -0.003907 0.029391 0.008931
v -0.008217 0.029391 0.004862
v -0.009194 0.029391 -0.001371
v -0.006381 0.029391 -0.006852
v -0.006062 0.029391 0.006897
v 0.006518 0.029391 0.001746
v -0.003737 0.029391 -0.007935
v -0.001094 0.033009 -0.003724
v 0.001169 0.033009 -0.002797
v 0.002373 0.033009 -0.000452
v 0.001954 0.033009 0.002216
v 0.000110 0.033009 0.003957
v -0.002298 0.033009 0.003957
v -0.004142 0.033009 0.002216
v -0.004560 0.033009 -0.000452
v -0.003356 0.033009 -0.002797
v -0.003220 0.033009 0.003086
v 0.002163 0.033009 0.000882
v -0.002225 0.033009 -0.003261
v -0.000493 0.036318 -0.001991
v 0.000632 0.035641 -0.001470
v 0.001230 0.035281 -0.000151
v 0.001022 0.035406 0.001350
v 0.000105 0.035958 0.002329
v -0.001091 0.036678 0.002329
v -0.002008 0.037230 0.001350
v -0.002216 0.037355 -0.000151
v -0.001618 0.036995 -0.001470
v -0.001550 0.036954 0.001839
v 0.001126 0.035343 0.000599
v -0.001055 0.036656 -0.001731
v 0.004305 0.040786 -0.002199
v 0.004447 0.039858 -0.001859
v 0.004522 0.039365 -0.001000
v 0.004496 0.039536 -0.000023
v 0.004381 0.040293 0.000615
v 0.004230 0.041280 0.000615
v 0.004115 0.042037 -0.000023
v 0.004088 0.042208 -0.001000
v 0.004164 0.041715 -0.001859
v 0.004172 0.041659 0.000296
v 0.004509 0.039450 -0.000511
v 0.004235 0.041250 -0.002029
v 0.005090 0.040941 -0.001541
v 0.005168 0.040434 -0.001355
v 0.005209 0.040164 -0.000886
v 0.005195 0.040258 -0.000352
v 0.005132 0.040671 -0.000003
v 0.005049 0.041211 -0.000003
v 0.004986 0.041625 -0.000352
v 0.004972 0.041718 -0.000886
v 0.005013 0.041448 -0.001355
v 0.005018 0.041418 -0.000177
v 0.005202 0.040211 -0.000619
v 0.005052 0.041195 -0.001448
vt 0.554166 0.815575
vt 0.554166 0.815575
vt 0.554166 0.815575
vt 0.554166 0.815575
vt 0.554166 0.815575
vt 0.554166 0.815575
vt 0.554166 0.815575
vt 0.554166 0.815575
vt 0.554166 0.815575
vt 0.554166 0.815575
vt 0.554166 0.815575
vt 0.554166 0.815575
vt 0.554166 0.815575
vt 0.554166 0.815575
vt 0.554166 0.815575
vt 0.554166 0.815575
vt 0.554166 0.815575
vt 0.554166 0.815575
vt 0.554166 0.815575
vt 0.554166 0.815575
vt 0.554166 0.815575
vt 0.554166 0.815575
vt 0.554166 0.815575
vt 0.554166 0.815575
vt 0.554166 0.815575
vt 0.554166 0.815575
vt 0.554166 0.815575
vt 0.554166 0.815575
vt 0.554166 0.815575
vt 0.554166 0.815575
vt 0.554166 0.815575
vt 0.554166 0.815575
vt 0.554166 0.815575
vt 0.554166 0.815575
vt 0.554166 0.815575
vt 0.554166 0.815575
vt 0.554166 0.815575
vt 0.554166 0.815575
vt 0.554166 0.815575
vt 0.554166 0.815575
vt 0.554166 0.815575
vt 0.554166 0.815575
vt 0.554166 0.815575
vt 0.554166 0.815575
vt 0.554166 0.815575
vt 0.554166 0.815575
vt 0.554166 0.815575
vt 0.554166 0.815575
vt 0.554166 0.815575
vt 0.554166 0.815575
vt 0.554166 0.815575
vt 0.554166 0.815575
vt 0.554166 0.815575
vt 0.554166 0.815575
vt 0.554166 0.815575
vt 0.554166 0.815575
vt 0.554166 0.815575
vt 0.554166 0.815575
vt 0.554166 0.815575
vt 0.554166 0.815575
vt 0.554166 0.815575
vt 0.554166 0.815575
vt 0.554166 0.815575
vt 0.554166 0.815575
vt 0.554166 0.815575
vt 0.554166 0.815575
vt 0.554166 0.815575
vt 0.554166 0.815575
vt 0.554166 0.815575
vt 0.554166 0.815575
vt 0.554166 0.815575
vt 0.554166 0.815575
vt 0.554166 0.815575
vt 0.554166 0.815575
vt 0.554166 0.815575
vt 0.554166 0.815575
vt 0.554166 0.815575
vt 0.554166 0.815575
vt 0.554166 0.815575
vt 0.554166 0.815575
vt 0.554166 0.815575
vt 0.554166 0.815575
vt 0.554166 0.815575
vt 0.554166 0.815575
vt 0.554166 0.815575
vt 0.554166 0.815575
vt 0.308545 0.561952
vt 0.308545 0.561952
vt 0.308545 0.561952
vt 0.308545 0.561952
vt 0.554166 0.815575
vt 0.554166 0.815575
vt 0.554166 0.815575
vt 0.554166 0.815575
vt 0.554166 0.815575
vt 0.554166 0.815575
vt 0.554166 0.815575
vt 0.554166 0.815575
vt 0.554166 0.815575
vt 0.554166 0.815575
vt 0.308545 0.561952
vt 0.308545 0.561952
vt 0.308545 0.561952
vt 0.308545 0.561952
vt 0.308545 0.561952
vt 0.308545 0.561952
vt 0.308545 0.561952
vt 0.308545 0.561952
vt 0.308545 0.561952
vt 0.308545 0.561952
vt 0.308545 0.561952
vt 0.308545 0.561952
vt 0.308545 0.561952
vt 0.308545 0.561952
vt 0.308545 0.561952
vt 0.308545 0.561952
vt 0.308545 0.561952
vt 0.308545 0.561952
vt 0.308545 0.561952
vt 0.308545 0.561952
vt 0.308545 0.561952
vt 0.308545 0.561952
vt 0.308545 0.561952
vt 0.308545 0.561952
vt 0.308545 0.561952
vt 0.308545 0.561952
vt 0.308545 0.561952
vt 0.308545 0.561952
vt 0.308545 0.561952
vt 0.308545 0.561952
vt 0.308545 0.561952
vt 0.308545 0.561952
vt 0.308545 0.561952
vt 0.308545 0.561952
vt 0.308545 0.561952
vt 0.308545 0.561952
vt 0.308545 0.561952
vt 0.308545 0.561952
vt 0.308545 0.561952
vt 0.308545 0.561952
vt 0.308545 0.561952
vt 0.308545 0.561952
vt 0.308545 0.561952
vt 0.308545 0.561952
vt 0.308545 0.561952
vt 0.308545 0.561952
vt 0.308545 0.561952
vt 0.308545 0.561952
vt 0.308545 0.561952
vt 0.308545 0.561952
vt 0.308545 0.561952
vt 0.308545 0.561952
vt 0.308545 0.561952
vt 0.308545 0.561952
vt 0.308545 0.561952
vt 0.308545 0.561952
vn 0.2210 -0.8124 -0.5397
vn 0.5446 -0.7907 -0.2795
vn 0.6839 -0.6614 -0.3081
vn 0.4100 -0.8020 0.4343
vn 0.0000 -0.8166 0.5773
vn -0.0500 -0.6993 0.7131
vn -0.6137 -0.7836 0.0962
vn 0.8002 -0.4766 0.3642
vn -0.5446 -0.7907 -0.2795
vn -0.6324 -0.6736 -0.3825
vn -0.0000 -1.0000 -0.0000
vn 0.5350 -0.6752 0.5078
vn -0.7300 -0.6633 0.1646
vn 0.2262 -0.6957 -0.6818
vn -0.9811 -0.0493 0.1869
vn 0.7734 -0.4944 -0.3969
vn -0.6741 -0.3883 -0.6283
vn 0.0724 -0.4055 -0.9112
vn -0.7729 -0.4953 -0.3966
vn -0.8632 -0.4864 0.1353
vn -0.2804 -0.4024 0.8715
vn -0.8479 -0.3762 0.3735
vn 0.0000 -0.5290 0.8486
vn 0.8778 -0.4690 -0.0974
vn 0.5909 -0.5089 0.6260
vn 0.3229 -0.5232 -0.7887
vn -0.9735 0.0291 0.2270
vn 0.7118 -0.0530 0.7003
vn 0.9990 -0.0129 -0.0429
vn 0.3411 -0.0550 -0.9384
vn -0.8723 -0.0506 -0.4863
vn -0.0411 -0.0557 0.9976
vn -0.6558 -0.0615 -0.7524
vn 0.9036 -0.0510 -0.4253
vn -0.0376 -0.0646 -0.9972
vn -0.8708 -0.0592 0.4881
vn 0.9369 -0.0131 0.3495
vn -0.4116 -0.0634 0.9091
vn -0.2098 0.3896 0.8967
vn 0.7430 0.0408 0.6680
vn 0.9945 0.0028 -0.1044
vn 0.2940 0.0323 -0.9553
vn -0.8512 0.0299 -0.5239
vn -0.0275 0.1011 0.9945
vn -0.5831 0.0398 -0.8114
vn 0.9215 0.0296 -0.3872
vn -0.1406 0.0411 -0.9892
vn -0.8262 0.0382 0.5621
vn 0.9317 0.0369 0.3612
vn -0.5001 0.0401 0.8650
vn 0.2253 0.6686 0.7087
vn -0.8912 0.3952 0.2226
vn 0.6839 0.3786 0.6236
vn 0.8470 0.3638 -0.3876
vn 0.2311 0.4509 -0.8621
vn -0.7553 0.4255 -0.4985
vn 0.0064 0.4424 0.8968
vn -0.7380 0.3388 -0.5835
vn 0.8551 0.3668 -0.3663
vn 0.1609 0.3553 -0.9208
vn -0.8765 0.3613 0.3182
vn 0.7497 0.4101 0.5194
vn -0.0662 0.8382 0.5413
vn 0.4138 0.6389 0.6485
vn -0.1596 0.9836 0.0838
vn 0.1558 0.9846 0.0798
vn 0.4771 0.5489 -0.6864
vn -0.0070 0.9862 -0.1655
vn -0.1141 0.9848 -0.1306
vn -0.0260 0.9869 0.1595
vn -0.8513 0.5244 0.0154
vn 0.1769 0.9838 -0.0276
vn 0.6955 0.5258 -0.4898
vn -0.7487 0.6213 -0.2309
vn -0.4175 0.7938 0.4422
vn 0.4337 0.8183 0.3771
vn 0.4692 0.8800 -0.0735
vn -0.2697 0.9196 -0.2857
vn 0.1112 0.8142 -0.5699
vn -0.1492 0.8857 0.4396
vn 0.4249 0.8708 0.2473
vn -0.0242 0.8900 -0.4553
vn -0.5968 0.7678 0.2330
vn -0.4148 0.8847 0.2129
vn 0.6321 0.7541 -0.1781
vn -0.4723 0.8230 -0.3156
vn -0.5701 0.4698 0.6740
vn 0.6244 0.7750 0.0979
vn -0.6244 0.7750 0.0979
vn 0.4175 0.7938 0.4422
vn 0.2251 0.8044 -0.5497
vn -0.5543 0.7822 -0.2844
vn 0.0000 0.8087 0.5882
vn -0.2251 0.8044 -0.5497
vn 0.5543 0.7822 -0.2844
vn -0.2836 0.2696 -0.9203
vn -0.2838 0.2695 -0.9202
vn -0.2835 0.2697 -0.9203
vn 0.9014 0.4152 0.1229
vn 0.8974 0.4241 0.1220
vn 0.8987 0.4212 0.1223
vn -0.5810 0.4467 0.6803
vn -0.8729 0.4658 0.1451
vn 0.6817 0.4040 0.6100
vn 0.9051 0.4068 0.1237
vn 0.4265 0.4105 -0.8060
vn -0.7762 0.4638 -0.4272
vn 0.0854 0.4273 0.9001
vn -0.2681 0.4641 -0.8442
vn 0.8343 0.4086 -0.3701
vn -0.2813 0.4285 -0.8586
vn 0.7255 -0.5674 -0.3896
vn -0.3222 0.6248 0.7112
vn -0.3188 0.6270 0.7108
vn -0.3231 0.6243 0.7113
vn 0.7843 -0.6029 0.1462
vn 0.7837 -0.6037 0.1463
vn 0.7845 -0.6026 0.1462
vn -0.3251 0.6229 0.7115
vn -0.5898 0.7934 0.1507
vn 0.6439 -0.3395 0.6857
vn 0.7815 -0.6065 0.1464
vn 0.2420 -0.3032 -0.9217
vn -0.5833 0.6786 -0.4463
vn 0.1991 0.1571 0.9673
vn -0.2863 0.2674 -0.9201
vn 0.6472 -0.6203 -0.4432
vn 0.9885 0.1509 -0.0000
vn 0.5569 0.3589 -0.7490
vn 0.5146 0.5972 0.6152
vn 0.7421 -0.6566 0.1351
vn 0.4662 0.8734 0.1408
vn 0.6943 -0.3990 0.5990
vn 0.6524 -0.1705 -0.7385
vn 0.4831 0.7768 -0.4040
vn 0.6047 0.0923 0.7911
usemtl Material.002
s 1
f 1/1/1 2/2/1 4/3/1 3/4/1
f 3/4/2 4/3/2 6/5/2 5/6/2
f 22/7/3 20/8/3 8/9/3 7/10/3
f 7/10/4 8/9/4 10/11/4 9/12/4
f 9/12/5 10/11/5 12/13/5 11/14/5
f 23/15/6 19/16/6 14/17/6 13/18/6
f 13/18/7 14/17/7 16/19/7 15/20/7
f 20/8/8 6/5/8 27/21/8 35/22/8
f 15/20/9 16/19/9 18/23/9 17/24/9
f 24/25/10 21/26/10 2/2/10 1/1/10
f 1/1/11 3/4/11 5/6/11 22/7/11 7/10/11 9/12/11 11/14/11 23/15/11 13/18/11 15/20/11 17/24/11 24/25/11
f 5/6/12 6/5/12 20/8/12 22/7/12
f 11/14/13 12/13/13 19/16/13 23/15/13
f 17/24/14 18/23/14 21/26/14 24/25/14
f 32/27/15 31/28/15 43/29/15 44/30/15
f 6/5/16 4/3/16 26/31/16 27/21/16
f 2/2/17 21/26/17 36/32/17 25/33/17
f 21/26/18 18/23/18 33/34/18 36/32/18
f 18/23/19 16/19/19 32/27/19 33/34/19
f 16/19/20 14/17/20 31/28/20 32/27/20
f 14/17/21 19/16/21 34/35/21 31/28/21
f 19/16/22 12/13/22 30/36/22 34/35/22
f 12/13/23 10/11/23 29/37/23 30/36/23
f 8/9/24 20/8/24 35/22/24 28/38/24
f 10/11/25 8/9/25 28/38/25 29/37/25
f 4/3/26 2/2/26 25/33/26 26/31/26
f 44/30/27 43/29/27 55/39/27 56/40/27
f 29/37/28 28/38/28 40/41/28 41/42/28
f 28/38/29 35/22/29 47/43/29 40/41/29
f 26/31/30 25/33/30 37/44/30 38/45/30
f 33/34/31 32/27/31 44/30/31 45/46/31
f 30/36/32 29/37/32 41/42/32 42/47/32
f 25/33/33 36/32/33 48/48/33 37/44/33
f 27/21/34 26/31/34 38/45/34 39/49/34
f 36/32/35 33/34/35 45/46/35 48/48/35
f 34/35/36 30/36/36 42/47/36 46/50/36
f 35/22/37 27/21/37 39/49/37 47/43/37
f 31/28/38 34/35/38 46/50/38 43/29/38
f 55/39/39 58/51/39 70/52/39 67/53/39
f 41/42/40 40/41/40 52/54/40 53/55/40
f 40/41/41 47/43/41 59/56/41 52/54/41
f 38/45/42 37/44/42 49/57/42 50/58/42
f 45/46/43 44/30/43 56/40/43 57/59/43
f 42/47/44 41/42/44 53/55/44 54/60/44
f 37/44/45 48/48/45 60/61/45 49/57/45
f 39/49/46 38/45/46 50/58/46 51/62/46
f 48/48/47 45/46/47 57/59/47 60/61/47
f 46/50/48 42/47/48 54/60/48 58/51/48
f 47/43/49 39/49/49 51/62/49 59/56/49
f 43/29/50 46/50/50 58/51/50 55/39/50
f 71/63/51 63/64/51 75/65/51 83/66/51
f 56/40/52 55/39/52 67/53/52 68/67/52
f 53/55/53 52/54/53 64/68/53 65/69/53
f 52/54/54 59/56/54 71/63/54 64/68/54
f 50/58/55 49/57/55 61/70/55 62/71/55
f 57/59/56 56/40/56 68/67/56 69/72/56
f 54/60/57 53/55/57 65/69/57 66/73/57
f 49/57/58 60/61/58 72/74/58 61/70/58
f 51/62/59 50/58/59 62/71/59 63/64/59
f 60/61/60 57/59/60 69/72/60 72/74/60
f 58/51/61 54/60/61 66/73/61 70/52/61
f 59/56/62 51/62/62 63/64/62 71/63/62
f 83/66/63 75/65/63 87/75/63 95/76/63
f 67/53/64 70/52/64 82/77/64 79/78/64
f 68/67/65 67/53/65 79/78/65 80/79/65
f 65/69/66 64/68/66 76/80/66 77/81/66
f 64/68/67 71/63/67 83/66/67 76/80/67
f 62/71/68 61/70/68 73/82/68 74/83/68
f 69/72/69 68/67/69 80/79/69 81/84/69
f 66/73/70 65/69/70 77/81/70 78/85/70
f 61/70/71 72/74/71 84/86/71 73/82/71
f 63/64/72 62/71/72 74/83/72 75/65/72
f 72/74/73 69/72/73 81/84/73 84/86/73
f 70/52/74 66/73/74 78/85/74 82/77/74
f 94/87/75 90/88/75 102/89/75 106/90/75
f 79/78/76 82/77/76 94/91/76 91/92/76
f 80/79/77 79/78/77 91/92/77 92/93/77
f 77/81/78 76/80/78 88/94/78 89/95/78
f 76/80/79 83/66/79 95/76/79 88/94/79
f 74/83/80 73/82/80 85/96/80 86/97/80
f 81/84/81 80/79/81 92/93/81 93/98/81
f 78/85/82 77/81/82 89/95/82 90/99/82
f 73/82/83 84/86/83 96/100/83 85/96/83
f 75/65/84 74/83/84 86/97/84 87/75/84
f 84/86/85 81/84/85 93/98/85 96/100/85
f 82/77/86 78/85/86 90/99/86 94/91/86
f 106/90/87 102/89/87 114/101/87 118/102/87
f 95/103/88 87/104/88 99/105/88 107/106/88
f 91/107/75 94/87/75 106/90/75 103/108/75
f 92/109/89 91/107/89 103/108/89 104/110/89
f 89/111/90 88/112/90 100/113/90 101/114/90
f 88/112/88 95/103/88 107/106/88 100/113/88
f 86/115/91 85/116/91 97/117/91 98/118/91
f 93/119/92 92/109/92 104/110/92 105/120/92
f 90/88/93 89/111/93 101/114/93 102/89/93
f 85/116/94 96/121/94 108/122/94 97/117/94
f 87/104/95 86/115/95 98/118/95 99/105/95
f 96/121/94 93/119/94 105/120/94 108/122/94
f 120/123/96 117/124/97 129/125/97 132/126/98
f 107/106/99 99/105/100 111/127/100 119/128/101
f 103/108/102 106/90/102 118/102/102 115/129/102
f 104/110/103 103/108/103 115/129/103 116/130/103
f 101/114/104 100/113/104 112/131/104 113/132/104
f 100/113/105 107/106/99 119/128/101 112/131/105
f 98/118/106 97/117/106 109/133/106 110/134/106
f 105/120/107 104/110/107 116/130/107 117/124/107
f 102/89/108 101/114/108 113/132/108 114/101/108
f 97/117/109 108/122/109 120/123/109 109/133/109
f 99/105/110 98/118/110 110/134/110 111/127/110
f 108/122/111 105/120/111 117/124/111 120/123/111
f 123/135/112 122/136/112 134/137/112 135/138/112
f 118/102/113 114/101/114 126/139/114 130/140/115
f 119/128/116 111/127/117 123/135/117 131/141/118
f 115/129/119 118/102/113 130/140/115 127/142/119
f 116/130/120 115/129/120 127/142/120 128/143/120
f 113/132/121 112/131/121 124/144/121 125/145/121
f 112/131/122 119/128/116 131/141/118 124/144/122
f 110/134/123 109/133/123 121/146/123 122/136/123
f 117/124/124 116/130/124 128/143/124 129/125/124
f 114/101/125 113/132/125 125/145/125 126/139/125
f 109/133/126 120/123/96 132/126/98 121/146/126
f 111/127/127 110/134/127 122/136/127 123/135/127
f 134/137/128 133/147/128 144/148/128 141/149/128 140/150/128 139/151/128 142/152/128 138/153/128 137/154/128 136/155/128 143/156/128 135/138/128
f 132/126/129 129/125/129 141/149/129 144/148/129
f 130/140/130 126/139/130 138/153/130 142/152/130
f 131/141/131 123/135/131 135/138/131 143/156/131
f 127/142/130 130/140/130 142/152/130 139/151/130
f 128/143/132 127/142/132 139/151/132 140/150/132
f 125/145/133 124/144/133 136/155/133 137/154/133
f 124/144/131 131/141/131 143/156/131 136/155/131
f 122/136/134 121/146/134 133/147/134 134/137/134
f 129/125/135 128/143/135 140/150/135 141/149/135
f 126/139/136 125/145/136 137/154/136 138/153/136
f 121/146/129 132/126/129 144/148/129 133/147/129
