# Blender v2.83.5 OBJ File: 'pepperfruit05.blend'
# www.blender.org
mtllib pepperfruit05.mtl
o Cylinder.002
v -0.001085 -0.030357 -0.018135
v -0.001085 -0.025751 -0.027765
v 0.010573 -0.030357 -0.013892
v 0.016763 -0.025751 -0.021269
v 0.016776 -0.030357 -0.003149
v 0.026259 -0.025751 -0.004821
v 0.014622 -0.030357 0.009069
v 0.022961 -0.025751 0.013884
v 0.005118 -0.030357 0.017043
v 0.008412 -0.025751 0.026092
v -0.007287 -0.030357 0.017043
v -0.010581 -0.025751 0.026092
v -0.016791 -0.030357 0.009069
v -0.025130 -0.025751 0.013884
v -0.018945 -0.030357 -0.003149
v -0.028428 -0.025751 -0.004821
v -0.012742 -0.030357 -0.013892
v -0.018932 -0.025751 -0.021269
v -0.016593 -0.023574 0.018319
v 0.022371 -0.023574 0.004137
v -0.009393 -0.023574 -0.022517
v 0.014195 -0.027800 0.002695
v -0.011256 -0.027800 0.011958
v -0.006553 -0.027800 -0.014715
v -0.001085 -0.013979 -0.034263
v 0.020940 -0.013979 -0.026247
v 0.032658 -0.013979 -0.005949
v 0.028588 -0.013978 0.017132
v 0.010634 -0.013978 0.032198
v -0.012803 -0.013978 0.032198
v -0.030757 -0.013978 0.017132
v -0.034827 -0.013979 -0.005949
v -0.023109 -0.013979 -0.026247
v -0.018703 -0.012772 0.020833
v 0.028132 -0.013978 0.005152
v -0.010515 -0.012772 -0.025601
v -0.001087 0.005564 -0.037864
v 0.024556 0.005564 -0.030560
v 0.036202 0.005564 -0.006575
v 0.031705 0.005564 0.018933
v 0.012557 0.005564 0.037488
v -0.014037 0.005564 0.035581
v -0.033878 0.005564 0.018933
v -0.040374 0.005564 -0.006927
v -0.025426 0.005564 -0.029006
v -0.022212 0.005343 0.024985
v 0.030925 0.005343 0.005645
v -0.012392 0.005343 -0.030703
v -0.001089 0.021345 -0.036834
v 0.024254 0.021119 -0.030202
v 0.035186 0.021345 -0.006396
v 0.030811 0.021345 0.018417
v 0.012396 0.021119 0.037049
v -0.013687 0.021345 0.034613
v -0.032988 0.021345 0.018417
v -0.039916 0.021119 -0.006846
v -0.024765 0.021345 -0.028217
v -0.021635 0.019834 0.024305
v 0.030055 0.019834 0.005492
v -0.012083 0.019834 -0.029867
v -0.001089 0.029213 -0.032264
v 0.019986 0.030562 -0.025116
v 0.030685 0.029213 -0.005603
v 0.026853 0.029213 0.016132
v 0.010125 0.030562 0.030809
v -0.012124 0.029213 0.030319
v -0.029030 0.029213 0.016132
v -0.033377 0.030562 -0.005693
v -0.021828 0.029213 -0.024716
v -0.018048 0.023821 0.020030
v 0.024559 0.023821 0.004522
v -0.010175 0.023821 -0.024623
v -0.001089 0.031311 -0.018694
v 0.010928 0.031311 -0.014320
v 0.017321 0.031311 -0.003246
v 0.015101 0.031311 0.009347
v 0.005305 0.031311 0.017566
v -0.007482 0.031311 0.017566
v -0.017278 0.031311 0.009347
v -0.019498 0.031311 -0.003246
v -0.013105 0.031311 -0.014320
v -0.010642 0.026780 0.011204
v 0.013213 0.026780 0.002522
v -0.006234 0.026780 -0.013796
v -0.001089 0.028572 -0.010281
v 0.005520 0.028572 -0.007876
v 0.009036 0.028572 -0.001785
v 0.007815 0.028572 0.005140
v 0.002428 0.028572 0.009661
v -0.004605 0.028572 0.009661
v -0.009992 0.028572 0.005140
v -0.011213 0.028572 -0.001785
v -0.007697 0.028572 -0.007876
v -0.007299 0.028572 0.007401
v 0.008426 0.028572 0.001678
v -0.004393 0.028572 -0.009078
v -0.001089 0.031465 -0.004400
v 0.001739 0.031465 -0.003370
v 0.003244 0.031465 -0.000764
v 0.002722 0.031465 0.002200
v 0.000416 0.031465 0.004134
v -0.002593 0.031465 0.004134
v -0.004899 0.031465 0.002200
v -0.005421 0.031465 -0.000764
v -0.003917 0.031465 -0.003370
v -0.003746 0.031465 0.003167
v 0.002983 0.031465 0.000718
v -0.002503 0.031465 -0.003885
v -0.000338 0.035132 -0.002739
v 0.001218 0.034532 -0.002098
v 0.002046 0.034214 -0.000476
v 0.001759 0.034324 0.001369
v 0.000490 0.034813 0.002574
v -0.001166 0.035451 0.002574
v -0.002434 0.035939 0.001369
v -0.002721 0.036050 -0.000476
v -0.001894 0.035731 -0.002098
v -0.001800 0.035695 0.001972
v 0.001902 0.034269 0.000447
v -0.001116 0.035431 -0.002419
v 0.004356 0.038028 -0.002337
v 0.004613 0.036951 -0.001790
v 0.004750 0.036379 -0.000406
v 0.004702 0.036578 0.001168
v 0.004493 0.037455 0.002196
v 0.004220 0.038600 0.002196
v 0.004011 0.039478 0.001168
v 0.003963 0.039677 -0.000406
v 0.004100 0.039104 -0.001790
v 0.004115 0.039039 0.001682
v 0.004726 0.036478 0.000381
v 0.004228 0.038566 -0.002063
v 0.005779 0.038207 -0.001277
v 0.005919 0.037619 -0.000978
v 0.005994 0.037306 -0.000222
v 0.005968 0.037415 0.000639
v 0.005854 0.037894 0.001200
v 0.005704 0.038520 0.001200
v 0.005590 0.039000 0.000639
v 0.005564 0.039108 -0.000222
v 0.005639 0.038795 -0.000978
v 0.005647 0.038760 0.000919
v 0.005981 0.037360 0.000208
v 0.005709 0.038501 -0.001128
vt 0.433414 0.556174
vt 0.433414 0.556174
vt 0.433414 0.556174
vt 0.433414 0.556174
vt 0.433414 0.556174
vt 0.433414 0.556174
vt 0.433414 0.556174
vt 0.433414 0.556174
vt 0.433414 0.556174
vt 0.433414 0.556174
vt 0.433414 0.556174
vt 0.433414 0.556174
vt 0.433414 0.556174
vt 0.433414 0.556174
vt 0.433414 0.556174
vt 0.433414 0.556174
vt 0.433414 0.556174
vt 0.433414 0.556174
vt 0.433414 0.556174
vt 0.433414 0.556174
vt 0.433414 0.556174
vt 0.433414 0.556174
vt 0.433414 0.556174
vt 0.433414 0.556174
vt 0.433414 0.556174
vt 0.433414 0.556174
vt 0.433414 0.556174
vt 0.433414 0.556174
vt 0.433414 0.556174
vt 0.433414 0.556174
vt 0.433414 0.556174
vt 0.433414 0.556174
vt 0.433414 0.556174
vt 0.433414 0.556174
vt 0.433414 0.556174
vt 0.433414 0.556174
vt 0.433414 0.556174
vt 0.433414 0.556174
vt 0.433414 0.556174
vt 0.433414 0.556174
vt 0.433414 0.556174
vt 0.433414 0.556174
vt 0.433414 0.556174
vt 0.433414 0.556174
vt 0.433414 0.556174
vt 0.433414 0.556174
vt 0.433414 0.556174
vt 0.433414 0.556174
vt 0.433414 0.556174
vt 0.433414 0.556174
vt 0.433414 0.556174
vt 0.433414 0.556174
vt 0.433414 0.556174
vt 0.433414 0.556174
vt 0.433414 0.556174
vt 0.433414 0.556174
vt 0.433414 0.556174
vt 0.433414 0.556174
vt 0.433414 0.556174
vt 0.433414 0.556174
vt 0.433414 0.556174
vt 0.433414 0.556174
vt 0.433414 0.556174
vt 0.433414 0.556174
vt 0.433414 0.556174
vt 0.433414 0.556174
vt 0.433414 0.556174
vt 0.433414 0.556174
vt 0.433414 0.556174
vt 0.433414 0.556174
vt 0.433414 0.556174
vt 0.433414 0.556174
vt 0.433414 0.556174
vt 0.433414 0.556174
vt 0.433414 0.556174
vt 0.433414 0.556174
vt 0.433414 0.556174
vt 0.433414 0.556174
vt 0.433414 0.556174
vt 0.433414 0.556174
vt 0.433414 0.556174
vt 0.433414 0.556174
vt 0.433414 0.556174
vt 0.433414 0.556174
vt 0.433414 0.556174
vt 0.433414 0.556174
vt 0.311535 0.569340
vt 0.311535 0.569340
vt 0.311535 0.569340
vt 0.311535 0.569340
vt 0.433414 0.556174
vt 0.433414 0.556174
vt 0.433414 0.556174
vt 0.433414 0.556174
vt 0.433414 0.556174
vt 0.433414 0.556174
vt 0.433414 0.556174
vt 0.433414 0.556174
vt 0.433414 0.556174
vt 0.433414 0.556174
vt 0.311535 0.569340
vt 0.311535 0.569340
vt 0.311535 0.569340
vt 0.311535 0.569340
vt 0.311535 0.569340
vt 0.311535 0.569340
vt 0.311535 0.569340
vt 0.311535 0.569340
vt 0.311535 0.569340
vt 0.311535 0.569340
vt 0.311535 0.569340
vt 0.311535 0.569340
vt 0.311535 0.569340
vt 0.311535 0.569340
vt 0.311535 0.569340
vt 0.311535 0.569340
vt 0.311535 0.569340
vt 0.311535 0.569340
vt 0.311535 0.569340
vt 0.311535 0.569340
vt 0.311535 0.569340
vt 0.311535 0.569340
vt 0.311535 0.569340
vt 0.311535 0.569340
vt 0.311535 0.569340
vt 0.311535 0.569340
vt 0.311535 0.569340
vt 0.311535 0.569340
vt 0.311535 0.569340
vt 0.311535 0.569340
vt 0.311535 0.569340
vt 0.311535 0.569340
vt 0.311535 0.569340
vt 0.311535 0.569340
vt 0.311535 0.569340
vt 0.311535 0.569340
vt 0.311535 0.569340
vt 0.311535 0.569340
vt 0.311535 0.569340
vt 0.311535 0.569340
vt 0.311535 0.569340
vt 0.311535 0.569340
vt 0.311535 0.569340
vt 0.311535 0.569340
vt 0.311535 0.569340
vt 0.311535 0.569340
vt 0.311535 0.569340
vt 0.311535 0.569340
vt 0.311535 0.569340
vt 0.311535 0.569340
vt 0.311535 0.569340
vt 0.311535 0.569340
vt 0.311535 0.569340
vt 0.311535 0.569340
vt 0.311535 0.569340
vt 0.311535 0.569340
vn 0.1551 -0.8912 -0.4263
vn 0.3928 -0.8912 -0.2268
vn 0.5315 -0.8031 -0.2694
vn 0.2916 -0.8912 0.3475
vn 0.0000 -0.8912 0.4536
vn -0.0369 -0.8055 0.5915
vn -0.4467 -0.8912 0.0788
vn 0.8026 -0.4547 0.3860
vn -0.3928 -0.8912 -0.2268
vn -0.4860 -0.8090 -0.3307
vn -0.0000 -1.0000 -0.0000
vn 0.4073 -0.8031 0.4349
vn -0.5698 -0.8090 0.1445
vn 0.1676 -0.8055 -0.5684
vn -0.9544 -0.2160 0.2060
vn 0.7688 -0.4604 -0.4439
vn -0.6204 -0.3323 -0.7104
vn 0.0249 -0.3310 -0.9433
vn -0.7688 -0.4604 -0.4439
vn -0.8742 -0.4604 0.1541
vn -0.2992 -0.3310 0.8949
vn -0.8260 -0.3323 0.4553
vn 0.0000 -0.4604 0.8877
vn 0.8863 -0.4547 -0.0882
vn 0.5706 -0.4604 0.6800
vn 0.3036 -0.4604 -0.8342
vn -0.9663 0.0451 0.2535
vn 0.6557 -0.2158 0.7236
vn 0.9880 -0.1474 -0.0470
vn 0.2988 -0.2159 -0.9296
vn -0.8264 -0.2160 -0.5200
vn -0.0372 -0.2159 0.9757
vn -0.5995 -0.2085 -0.7727
vn 0.8636 -0.2158 -0.4557
vn -0.0321 -0.2077 -0.9777
vn -0.8277 -0.2085 0.5210
vn 0.9123 -0.1474 0.3821
vn -0.3646 -0.2077 0.9077
vn -0.1803 0.5616 0.8075
vn 0.7027 0.0453 0.7101
vn 0.9965 0.0567 -0.0621
vn 0.2636 0.0452 -0.9636
vn -0.8213 0.0451 -0.5687
vn -0.0819 0.0452 0.9956
vn -0.5375 0.0573 -0.8413
vn 0.9032 0.0453 -0.4269
vn -0.1251 0.0572 -0.9905
vn -0.7928 0.0573 0.6068
vn 0.9151 0.0567 0.3992
vn -0.4563 0.0572 0.8880
vn 0.1690 0.7835 0.5980
vn -0.8297 0.5169 0.2110
vn 0.5975 0.5169 0.6130
vn 0.7889 0.5590 -0.2553
vn 0.2321 0.5169 -0.8240
vn -0.7075 0.5169 -0.4820
vn -0.0637 0.5169 0.8537
vn -0.6038 0.5638 -0.5636
vn 0.7712 0.5169 -0.3717
vn 0.1068 0.5616 -0.8205
vn -0.7601 0.5638 0.3231
vn 0.6540 0.5590 0.5097
vn -0.0458 0.9058 0.4212
vn 0.2556 0.7829 0.5673
vn -0.1005 0.9932 0.0581
vn 0.1006 0.9932 0.0580
vn 0.3633 0.7835 -0.5041
vn -0.0001 0.9932 -0.1161
vn -0.0745 0.9932 -0.0890
vn -0.0398 0.9932 0.1090
vn -0.6089 0.7906 -0.0655
vn 0.1143 0.9932 -0.0201
vn 0.4342 0.7829 -0.4456
vn -0.5946 0.7905 -0.1467
vn -0.2982 0.8859 0.3553
vn 0.3064 0.9035 0.2998
vn 0.3224 0.9449 -0.0569
vn -0.2104 0.9449 -0.2508
vn 0.1010 0.9058 -0.4115
vn -0.1120 0.9449 0.3076
vn 0.2835 0.9449 0.1637
vn 0.0000 0.9449 -0.3274
vn -0.3994 0.9087 0.1216
vn -0.2835 0.9449 0.1637
vn 0.3905 0.9035 -0.1769
vn -0.3338 0.9087 -0.2509
vn -0.5497 0.4598 0.6974
vn 0.4568 0.8859 0.0806
vn -0.4568 0.8859 0.0806
vn 0.2982 0.8859 0.3553
vn 0.1587 0.8859 -0.4359
vn -0.4017 0.8859 -0.2319
vn 0.0000 0.8859 0.4639
vn -0.1587 0.8859 -0.4359
vn 0.4017 0.8859 -0.2319
vn -0.1886 0.4238 -0.8859
vn -0.1904 0.4221 -0.8863
vn -0.1883 0.4240 -0.8859
vn 0.9183 0.3680 0.1462
vn 0.9154 0.3753 0.1456
vn 0.9159 0.3740 0.1457
vn -0.5558 0.4451 0.7021
vn -0.8541 0.4963 0.1553
vn 0.6441 0.3536 0.6783
vn 0.9210 0.3610 0.1468
vn 0.3747 0.3595 -0.8546
vn -0.7519 0.4808 -0.4510
vn 0.0522 0.3820 0.9227
vn -0.2698 0.4288 -0.8621
vn 0.8281 0.3601 -0.4296
vn -0.2767 0.4046 -0.8716
vn 0.5915 -0.7228 -0.3574
vn -0.3511 0.6770 0.6468
vn -0.3509 0.6771 0.6468
vn 0.6151 -0.7776 0.1307
vn 0.6152 -0.7775 0.1307
vn -0.3513 0.6769 0.6468
vn -0.4743 0.8714 0.1254
vn 0.4663 -0.5829 0.6655
vn 0.6105 -0.7812 0.1306
vn 0.2913 -0.3230 -0.9004
vn -0.4380 0.8139 -0.3818
vn 0.0482 0.0521 0.9975
vn -0.1881 0.4243 -0.8858
vn 0.5673 -0.7221 -0.3960
vn 0.9727 0.2320 -0.0000
vn 0.4820 0.4855 -0.7294
vn 0.4050 0.7344 0.5447
vn 0.5819 -0.8045 0.1192
vn 0.3213 0.9407 0.1092
vn 0.6032 -0.5416 0.5854
vn 0.5989 -0.2445 -0.7626
vn 0.3493 0.8775 -0.3286
vn 0.5570 0.1329 0.8198
usemtl Material.002
s 1
f 1/1/1 2/2/1 4/3/1 3/4/1
f 3/4/2 4/3/2 6/5/2 5/6/2
f 22/7/3 20/8/3 8/9/3 7/10/3
f 7/10/4 8/9/4 10/11/4 9/12/4
f 9/12/5 10/11/5 12/13/5 11/14/5
f 23/15/6 19/16/6 14/17/6 13/18/6
f 13/18/7 14/17/7 16/19/7 15/20/7
f 20/8/8 6/5/8 27/21/8 35/22/8
f 15/20/9 16/19/9 18/23/9 17/24/9
f 24/25/10 21/26/10 2/2/10 1/1/10
f 1/1/11 3/4/11 5/6/11 22/7/11 7/10/11 9/12/11 11/14/11 23/15/11 13/18/11 15/20/11 17/24/11 24/25/11
f 5/6/12 6/5/12 20/8/12 22/7/12
f 11/14/13 12/13/13 19/16/13 23/15/13
f 17/24/14 18/23/14 21/26/14 24/25/14
f 32/27/15 31/28/15 43/29/15 44/30/15
f 6/5/16 4/3/16 26/31/16 27/21/16
f 2/2/17 21/26/17 36/32/17 25/33/17
f 21/26/18 18/23/18 33/34/18 36/32/18
f 18/23/19 16/19/19 32/27/19 33/34/19
f 16/19/20 14/17/20 31/28/20 32/27/20
f 14/17/21 19/16/21 34/35/21 31/28/21
f 19/16/22 12/13/22 30/36/22 34/35/22
f 12/13/23 10/11/23 29/37/23 30/36/23
f 8/9/24 20/8/24 35/22/24 28/38/24
f 10/11/25 8/9/25 28/38/25 29/37/25
f 4/3/26 2/2/26 25/33/26 26/31/26
f 44/30/27 43/29/27 55/39/27 56/40/27
f 29/37/28 28/38/28 40/41/28 41/42/28
f 28/38/29 35/22/29 47/43/29 40/41/29
f 26/31/30 25/33/30 37/44/30 38/45/30
f 33/34/31 32/27/31 44/30/31 45/46/31
f 30/36/32 29/37/32 41/42/32 42/47/32
f 25/33/33 36/32/33 48/48/33 37/44/33
f 27/21/34 26/31/34 38/45/34 39/49/34
f 36/32/35 33/34/35 45/46/35 48/48/35
f 34/35/36 30/36/36 42/47/36 46/50/36
f 35/22/37 27/21/37 39/49/37 47/43/37
f 31/28/38 34/35/38 46/50/38 43/29/38
f 55/39/39 58/51/39 70/52/39 67/53/39
f 41/42/40 40/41/40 52/54/40 53/55/40
f 40/41/41 47/43/41 59/56/41 52/54/41
f 38/45/42 37/44/42 49/57/42 50/58/42
f 45/46/43 44/30/43 56/40/43 57/59/43
f 42/47/44 41/42/44 53/55/44 54/60/44
f 37/44/45 48/48/45 60/61/45 49/57/45
f 39/49/46 38/45/46 50/58/46 51/62/46
f 48/48/47 45/46/47 57/59/47 60/61/47
f 46/50/48 42/47/48 54/60/48 58/51/48
f 47/43/49 39/49/49 51/62/49 59/56/49
f 43/29/50 46/50/50 58/51/50 55/39/50
f 71/63/51 63/64/51 75/65/51 83/66/51
f 56/40/52 55/39/52 67/53/52 68/67/52
f 53/55/53 52/54/53 64/68/53 65/69/53
f 52/54/54 59/56/54 71/63/54 64/68/54
f 50/58/55 49/57/55 61/70/55 62/71/55
f 57/59/56 56/40/56 68/67/56 69/72/56
f 54/60/57 53/55/57 65/69/57 66/73/57
f 49/57/58 60/61/58 72/74/58 61/70/58
f 51/62/59 50/58/59 62/71/59 63/64/59
f 60/61/60 57/59/60 69/72/60 72/74/60
f 58/51/61 54/60/61 66/73/61 70/52/61
f 59/56/62 51/62/62 63/64/62 71/63/62
f 83/66/63 75/65/63 87/75/63 95/76/63
f 67/53/64 70/52/64 82/77/64 79/78/64
f 68/67/65 67/53/65 79/78/65 80/79/65
f 65/69/66 64/68/66 76/80/66 77/81/66
f 64/68/67 71/63/67 83/66/67 76/80/67
f 62/71/68 61/70/68 73/82/68 74/83/68
f 69/72/69 68/67/69 80/79/69 81/84/69
f 66/73/70 65/69/70 77/81/70 78/85/70
f 61/70/71 72/74/71 84/86/71 73/82/71
f 63/64/72 62/71/72 74/83/72 75/65/72
f 72/74/73 69/72/73 81/84/73 84/86/73
f 70/52/74 66/73/74 78/85/74 82/77/74
f 94/87/75 90/88/75 102/89/75 106/90/75
f 79/78/76 82/77/76 94/91/76 91/92/76
f 80/79/77 79/78/77 91/92/77 92/93/77
f 77/81/78 76/80/78 88/94/78 89/95/78
f 76/80/79 83/66/79 95/76/79 88/94/79
f 74/83/80 73/82/80 85/96/80 86/97/80
f 81/84/81 80/79/81 92/93/81 93/98/81
f 78/85/82 77/81/82 89/95/82 90/99/82
f 73/82/83 84/86/83 96/100/83 85/96/83
f 75/65/84 74/83/84 86/97/84 87/75/84
f 84/86/85 81/84/85 93/98/85 96/100/85
f 82/77/86 78/85/86 90/99/86 94/91/86
f 106/90/87 102/89/87 114/101/87 118/102/87
f 95/103/88 87/104/88 99/105/88 107/106/88
f 91/107/75 94/87/75 106/90/75 103/108/75
f 92/109/89 91/107/89 103/108/89 104/110/89
f 89/111/90 88/112/90 100/113/90 101/114/90
f 88/112/88 95/103/88 107/106/88 100/113/88
f 86/115/91 85/116/91 97/117/91 98/118/91
f 93/119/92 92/109/92 104/110/92 105/120/92
f 90/88/93 89/111/93 101/114/93 102/89/93
f 85/116/94 96/121/94 108/122/94 97/117/94
f 87/104/95 86/115/95 98/118/95 99/105/95
f 96/121/94 93/119/94 105/120/94 108/122/94
f 120/123/96 117/124/97 129/125/97 132/126/98
f 107/106/99 99/105/100 111/127/100 119/128/101
f 103/108/102 106/90/102 118/102/102 115/129/102
f 104/110/103 103/108/103 115/129/103 116/130/103
f 101/114/104 100/113/104 112/131/104 113/132/104
f 100/113/105 107/106/99 119/128/101 112/131/105
f 98/118/106 97/117/106 109/133/106 110/134/106
f 105/120/107 104/110/107 116/130/107 117/124/107
f 102/89/108 101/114/108 113/132/108 114/101/108
f 97/117/109 108/122/109 120/123/109 109/133/109
f 99/105/110 98/118/110 110/134/110 111/127/110
f 108/122/111 105/120/111 117/124/111 120/123/111
f 123/135/112 122/136/112 134/137/112 135/138/112
f 118/102/113 114/101/114 126/139/114 130/140/113
f 119/128/115 111/127/116 123/135/116 131/141/116
f 115/129/117 118/102/113 130/140/113 127/142/117
f 116/130/118 115/129/118 127/142/118 128/143/118
f 113/132/119 112/131/119 124/144/119 125/145/119
f 112/131/120 119/128/115 131/141/116 124/144/120
f 110/134/121 109/133/121 121/146/121 122/136/121
f 117/124/122 116/130/122 128/143/122 129/125/122
f 114/101/123 113/132/123 125/145/123 126/139/123
f 109/133/124 120/123/96 132/126/98 121/146/124
f 111/127/125 110/134/125 122/136/125 123/135/125
f 134/137/126 133/147/126 144/148/126 141/149/126 140/150/126 139/151/126 142/152/126 138/153/126 137/154/126 136/155/126 143/156/126 135/138/126
f 132/126/127 129/125/127 141/149/127 144/148/127
f 130/140/128 126/139/128 138/153/128 142/152/128
f 131/141/129 123/135/129 135/138/129 143/156/129
f 127/142/128 130/140/128 142/152/128 139/151/128
f 128/143/130 127/142/130 139/151/130 140/150/130
f 125/145/131 124/144/131 136/155/131 137/154/131
f 124/144/129 131/141/129 143/156/129 136/155/129
f 122/136/132 121/146/132 133/147/132 134/137/132
f 129/125/133 128/143/133 140/150/133 141/149/133
f 126/139/134 125/145/134 137/154/134 138/153/134
f 121/146/127 132/126/127 144/148/127 133/147/127
