# Blender v2.83.5 OBJ File: 'pepperchili01.blend'
# www.blender.org
mtllib pepperchili01.mtl
o Cylinder
v -0.010488 0.000000 -0.023345
v 0.024367 0.000000 -0.022936
v -0.008987 -0.012098 -0.016524
v 0.023260 -0.011620 -0.016319
v -0.005985 -0.012098 -0.002881
v 0.021045 -0.011620 -0.003085
v -0.004484 0.000000 0.003941
v 0.019937 0.000000 0.003532
v -0.005985 0.012098 -0.002881
v 0.021045 0.011620 -0.003085
v -0.008987 0.012098 -0.016524
v 0.023260 0.011620 -0.016319
v 0.046623 0.000000 -0.013499
v 0.044365 -0.010572 -0.007828
v 0.039848 -0.010572 0.003514
v 0.037590 0.000000 0.009184
v 0.039848 0.010572 0.003514
v 0.044365 0.010572 -0.007828
v 0.064101 -0.000000 -0.002171
v 0.061856 -0.007191 0.001322
v 0.057368 -0.007191 0.008308
v 0.055124 0.000000 0.011800
v 0.057368 0.007191 0.008308
v 0.061856 0.007191 0.001322
v 0.075293 -0.000000 0.008795
v 0.073907 -0.004440 0.010952
v 0.071136 -0.004440 0.015265
v 0.069751 0.000000 0.017422
v 0.071136 0.004440 0.015265
v 0.073907 0.004440 0.010952
v 0.080299 0.000000 0.016176
v 0.079460 -0.001630 0.016602
v 0.077782 -0.001630 0.017452
v 0.076943 0.000000 0.017878
v 0.077782 0.001630 0.017452
v 0.079460 0.001630 0.016602
v -0.040533 0.000000 -0.020294
v -0.037837 -0.013788 -0.012803
v -0.032447 -0.013788 0.002178
v -0.029752 0.000000 0.009668
v -0.032447 0.013788 0.002178
v -0.037837 0.013788 -0.012803
v -0.040533 0.000000 -0.020294
v -0.037837 -0.013788 -0.012803
v -0.032447 -0.013788 0.002178
v -0.029752 0.000000 0.009668
v -0.032447 0.013788 0.002178
v -0.037837 0.013788 -0.012803
v -0.044045 0.000000 -0.016578
v -0.041828 -0.011339 -0.010419
v -0.037396 -0.011339 0.001901
v -0.035179 0.000000 0.008061
v -0.037396 0.011339 0.001901
v -0.041828 0.011339 -0.010419
v -0.044848 0.000000 -0.010111
v -0.043795 -0.005386 -0.007185
v -0.041689 -0.005386 -0.001333
v -0.040636 0.000000 0.001593
v -0.041689 0.005386 -0.001333
v -0.043795 0.005386 -0.007185
v -0.055978 0.000000 -0.001474
v -0.055295 -0.001748 -0.000731
v -0.053929 -0.001748 0.000756
v -0.053247 0.000000 0.001499
v -0.053929 0.001748 0.000756
v -0.055295 0.001748 -0.000731
v -0.060961 0.000000 0.003842
v -0.060619 -0.001748 0.004792
v -0.059936 -0.001748 0.006692
v -0.059594 0.000000 0.007642
v -0.059936 0.001748 0.006692
v -0.060619 0.001748 0.004792
vt 0.554811 0.939154
vt 0.554811 0.939154
vt 0.554811 0.939154
vt 0.554811 0.939154
vt 0.554811 0.939154
vt 0.554811 0.939154
vt 0.554811 0.939154
vt 0.554811 0.939154
vt 0.554811 0.939154
vt 0.554811 0.939154
vt 0.554811 0.939154
vt 0.554811 0.939154
vt 0.554811 0.939154
vt 0.554811 0.939154
vt 0.554811 0.939154
vt 0.554811 0.939154
vt 0.554811 0.939154
vt 0.554811 0.939154
vt 0.554811 0.939154
vt 0.554811 0.939154
vt 0.554811 0.939154
vt 0.554811 0.939154
vt 0.554811 0.939154
vt 0.554811 0.939154
vt 0.554811 0.939154
vt 0.554811 0.939154
vt 0.554811 0.939154
vt 0.554811 0.939154
vt 0.554811 0.939154
vt 0.554811 0.939154
vt 0.554811 0.939154
vt 0.554811 0.939154
vt 0.554811 0.939154
vt 0.554811 0.939154
vt 0.554811 0.939154
vt 0.554811 0.939154
vt 0.554811 0.939154
vt 0.554811 0.939154
vt 0.554811 0.939154
vt 0.554811 0.939154
vt 0.554811 0.939154
vt 0.554811 0.939154
vt 0.554811 0.939154
vt 0.554811 0.939154
vt 0.554811 0.939154
vt 0.554811 0.939154
vt 0.554811 0.939154
vt 0.554811 0.939154
vt 0.554811 0.939154
vt 0.554811 0.939154
vt 0.554811 0.939154
vt 0.554811 0.939154
vt 0.554811 0.939154
vt 0.554811 0.939154
vt 0.554811 0.939154
vt 0.554811 0.939154
vt 0.300211 0.561627
vt 0.300211 0.561627
vt 0.300211 0.561627
vt 0.300211 0.561627
vt 0.554811 0.939154
vt 0.554811 0.939154
vt 0.554811 0.939154
vt 0.554811 0.939154
vt 0.300211 0.561627
vt 0.300211 0.561627
vt 0.300211 0.561627
vt 0.300211 0.561627
vt 0.300211 0.561627
vt 0.300211 0.561627
vt 0.300211 0.561627
vt 0.300211 0.561627
vt 0.300211 0.561627
vt 0.300211 0.561627
vt 0.300211 0.561627
vt 0.300211 0.561627
vt 0.300211 0.561627
vt 0.300211 0.561627
vn 0.0115 -0.4928 -0.8701
vn 0.0161 -0.9999 -0.0005
vn 0.0149 -0.4931 0.8698
vn 0.0149 0.4931 0.8698
vn -0.2634 -0.4976 0.8265
vn 0.0161 0.9999 -0.0005
vn 0.0115 0.4928 -0.8701
vn 0.1925 0.4985 0.8452
vn -0.1366 0.4813 0.8658
vn 0.3423 0.4943 -0.7990
vn -0.2634 0.4976 0.8265
vn 0.0475 -0.9988 0.0130
vn 0.0475 0.9988 0.0130
vn 0.3423 -0.4943 -0.7990
vn -0.3123 -0.4922 0.8126
vn 0.1590 -0.9842 0.0781
vn 0.1590 0.9842 0.0781
vn -0.1366 -0.4813 0.8658
vn 0.4741 -0.4956 -0.7278
vn 0.4741 0.4956 -0.7278
vn 0.2762 -0.9312 0.2380
vn 0.6092 -0.4922 -0.6218
vn 0.6092 0.4922 -0.6218
vn -0.3123 0.4922 0.8126
vn 0.1485 -0.9843 0.0954
vn 0.1485 0.9843 0.0954
vn 0.4522 -0.0000 0.8919
vn 0.2762 0.9312 0.2380
vn -0.0881 -0.4171 0.9046
vn 0.7307 -0.4760 -0.4894
vn 0.7307 0.4760 -0.4894
vn -0.0881 0.4171 0.9046
vn 0.0000 0.0000 1.0000
vn 0.0583 -0.9982 -0.0171
vn 0.0583 0.9982 -0.0171
vn -0.0854 -0.4927 -0.8660
vn 0.1925 -0.4985 0.8452
vn -0.0854 0.4927 -0.8660
vn -0.6460 0.4580 -0.6107
vn -0.8434 0.4435 0.3035
vn -0.2575 0.4219 0.8693
vn -0.4451 -0.8810 0.1602
vn -0.4451 0.8810 0.1602
vn -0.2575 -0.4219 0.8693
vn -0.6460 -0.4580 -0.6107
vn -0.5377 0.4854 -0.6894
vn -0.7493 -0.1970 0.6322
vn -0.9602 -0.2525 -0.1192
vn -0.9602 0.2525 -0.1192
vn -0.7493 0.1970 0.6322
vn -0.8434 -0.4435 0.3035
vn 0.0000 1.0000 -0.0000
vn 0.0043 0.4582 0.8888
vn -0.2515 -0.9605 0.1190
vn -0.2515 0.9605 0.1190
vn 0.0043 -0.4582 0.8888
vn -0.5377 -0.4854 -0.6894
vn -0.9409 0.0000 0.3386
vn 0.6123 -0.4826 0.6262
vn -0.6361 -0.4792 -0.6048
vn -0.6361 0.4792 -0.6048
vn 0.6123 0.4826 0.6262
vn 0.0000 -1.0000 0.0000
usemtl Material.001
s off
f 1/1/1 2/2/1 4/3/1 3/4/1
f 3/4/2 4/3/2 6/5/2 5/6/2
f 5/6/3 6/5/3 8/7/3 7/8/3
f 7/8/4 8/7/4 10/9/4 9/10/4
f 8/7/5 6/5/5 15/11/5 16/12/5
f 9/10/6 10/9/6 12/13/6 11/14/6
f 11/14/7 12/13/7 2/2/7 1/1/7
f 7/8/8 9/10/8 41/15/8 40/16/8
f 17/17/9 16/12/9 22/18/9 23/19/9
f 2/2/10 12/13/10 18/20/10 13/21/10
f 10/9/11 8/7/11 16/12/11 17/17/11
f 6/5/12 4/3/12 14/22/12 15/11/12
f 12/13/13 10/9/13 17/17/13 18/20/13
f 4/3/14 2/2/14 13/21/14 14/22/14
f 22/18/15 21/23/15 27/24/15 28/25/15
f 15/11/16 14/22/16 20/26/16 21/23/16
f 18/20/17 17/17/17 23/19/17 24/27/17
f 16/12/18 15/11/18 21/23/18 22/18/18
f 14/22/19 13/21/19 19/28/19 20/26/19
f 13/21/20 18/20/20 24/27/20 19/28/20
f 27/24/21 26/29/21 32/30/21 33/31/21
f 20/26/22 19/28/22 25/32/22 26/29/22
f 19/28/23 24/27/23 30/33/23 25/32/23
f 23/19/24 22/18/24 28/25/24 29/34/24
f 21/23/25 20/26/25 26/29/25 27/24/25
f 24/27/26 23/19/26 29/34/26 30/33/26
f 32/30/27 31/35/27 36/36/27 35/37/27 34/38/27 33/31/27
f 30/33/28 29/34/28 35/37/28 36/36/28
f 28/25/29 27/24/29 33/31/29 34/38/29
f 26/29/30 25/32/30 31/35/30 32/30/30
f 25/32/31 30/33/31 36/36/31 31/35/31
f 29/34/32 28/25/32 34/38/32 35/37/32
f 41/15/33 42/39/33 48/40/33 47/41/33
f 3/4/34 5/6/34 39/42/34 38/43/34
f 9/10/35 11/14/35 42/39/35 41/15/35
f 1/1/36 3/4/36 38/43/36 37/44/36
f 5/6/37 7/8/37 40/16/37 39/42/37
f 11/14/38 1/1/38 37/44/38 42/39/38
f 48/40/39 43/45/39 49/46/39 54/47/39
f 39/42/33 40/16/33 46/48/33 45/49/33
f 37/44/33 38/43/33 44/50/33 43/45/33
f 42/39/33 37/44/33 43/45/33 48/40/33
f 40/16/33 41/15/33 47/41/33 46/48/33
f 38/43/33 39/42/33 45/49/33 44/50/33
f 53/51/40 54/47/40 60/52/40 59/53/40
f 46/48/41 47/41/41 53/51/41 52/54/41
f 44/50/42 45/49/42 51/55/42 50/56/42
f 47/41/43 48/40/43 54/47/43 53/51/43
f 45/49/44 46/48/44 52/54/44 51/55/44
f 43/45/45 44/50/45 50/56/45 49/46/45
f 60/57/46 55/58/46 61/59/46 66/60/46
f 51/55/47 52/54/47 58/61/47 57/62/47
f 49/46/48 50/56/48 56/63/48 55/64/48
f 54/47/49 49/46/49 55/64/49 60/52/49
f 52/54/50 53/51/50 59/53/50 58/61/50
f 50/56/51 51/55/51 57/62/51 56/63/51
f 65/65/52 66/60/52 72/66/52 71/67/52
f 58/68/53 59/69/53 65/65/53 64/70/53
f 56/71/54 57/72/54 63/73/54 62/74/54
f 59/69/55 60/57/55 66/60/55 65/65/55
f 57/72/56 58/68/56 64/70/56 63/73/56
f 55/58/57 56/71/57 62/74/57 61/59/57
f 67/75/58 68/76/58 69/77/58 70/78/58 71/67/58 72/66/58
f 63/73/59 64/70/59 70/78/59 69/77/59
f 61/59/60 62/74/60 68/76/60 67/75/60
f 66/60/61 61/59/61 67/75/61 72/66/61
f 64/70/62 65/65/62 71/67/62 70/78/62
f 62/74/63 63/73/63 69/77/63 68/76/63
