# Blender v2.83.5 OBJ File: 'pepperfruit06.blend'
# www.blender.org
mtllib pepperfruit06.mtl
o Cylinder.001
v 0.018909 0.006772 -0.035414
v 0.027248 0.001957 -0.030808
v 0.009405 -0.001202 -0.035414
v 0.012699 -0.010251 -0.030808
v -0.003000 -0.001202 -0.035414
v -0.006294 -0.010251 -0.030808
v -0.012504 0.006772 -0.035414
v -0.020843 0.001957 -0.030808
v -0.014658 0.018989 -0.035414
v -0.024141 0.020662 -0.030808
v -0.012306 -0.002478 -0.028631
v 0.026658 0.011704 -0.028631
v -0.006969 0.003883 -0.032857
v 0.032875 -0.001291 -0.019035
v 0.014921 -0.016357 -0.019035
v -0.008516 -0.016357 -0.019035
v -0.026470 -0.001291 -0.019035
v -0.030540 0.021790 -0.019035
v -0.014416 -0.004992 -0.017829
v 0.032420 0.010688 -0.019035
v 0.035992 -0.003092 0.000507
v 0.016845 -0.021647 0.000507
v -0.009750 -0.019740 0.000507
v -0.029591 -0.003092 0.000507
v -0.036087 0.022768 0.000507
v -0.017924 -0.009144 0.000286
v 0.035212 0.010196 0.000286
v 0.035098 -0.002576 0.016288
v 0.016683 -0.021208 0.016062
v -0.009399 -0.018772 0.016288
v -0.028701 -0.002576 0.016288
v -0.035629 0.022687 0.016062
v -0.017348 -0.008465 0.014777
v 0.034343 0.010349 0.014777
v 0.031140 -0.000291 0.024156
v 0.014412 -0.014968 0.025505
v -0.007836 -0.014478 0.024156
v -0.024743 -0.000291 0.024156
v -0.029090 0.021534 0.025505
v -0.013761 -0.004189 0.018765
v 0.028846 0.011319 0.018765
v 0.019388 0.006494 0.026254
v 0.009592 -0.001725 0.026254
v -0.003195 -0.001725 0.026254
v -0.012991 0.006494 0.026254
v -0.015211 0.019087 0.026254
v -0.006355 0.004637 0.021723
v 0.017500 0.013319 0.021723
v 0.012102 0.010700 0.023515
v 0.006715 0.006180 0.023515
v -0.000318 0.006180 0.023515
v -0.005705 0.010700 0.023515
v -0.006926 0.017626 0.023515
v -0.003011 0.008440 0.023515
v 0.016990 0.007335 -0.032005
v 0.008486 0.000200 -0.032005
v -0.002614 0.000200 -0.032005
v -0.011117 0.007335 -0.032005
v -0.013045 0.018267 -0.032005
v -0.021530 0.019763 -0.027883
v 0.023924 0.011748 -0.025935
v -0.006165 0.004750 -0.029717
v -0.027256 0.020773 -0.017349
v 0.029079 0.010839 -0.017349
v -0.032219 0.021648 0.000136
v 0.031578 0.010399 -0.000061
v -0.031809 0.021576 0.014055
v 0.030799 0.010536 0.012905
v -0.025958 0.020544 0.022505
v 0.025882 0.011403 0.016473
v -0.013540 0.018354 0.023174
v 0.015729 0.013193 0.019120
v 0.010899 0.010850 0.020723
v 0.006079 0.006805 0.020723
v -0.000214 0.006805 0.020723
v -0.005034 0.010850 0.020723
v -0.006127 0.017047 0.020723
v -0.002624 0.008828 0.020723
v 0.014353 -0.003308 -0.027319
v -0.002083 -0.003744 -0.027319
v -0.009212 -0.001891 -0.027319
v -0.012981 -0.001201 -0.024715
v -0.013877 -0.000880 -0.018894
v 0.024488 -0.004970 -0.015032
v -0.005060 -0.000467 -0.025401
v -0.020448 -0.000577 -0.013509
v -0.026904 0.000010 -0.000372
v 0.026583 -0.005339 -0.000538
v -0.026560 -0.000050 0.011297
v 0.025931 -0.005224 0.010333
v -0.021654 -0.000915 0.018381
v 0.021808 -0.004497 0.013324
v -0.011243 -0.001238 0.018942
v 0.013296 -0.002997 0.015544
v 0.009247 -0.002832 0.016888
v 0.005205 -0.002541 0.016888
v -0.000070 -0.003795 0.016888
v -0.004112 -0.003271 0.016888
v -0.005028 -0.002334 0.016888
v -0.002091 -0.001808 0.016888
v 0.010192 -0.017615 -0.012322
v -0.000714 -0.017388 -0.014816
v -0.005153 -0.016062 -0.012789
v -0.002173 -0.015782 -0.013876
v -0.006585 -0.015907 -0.008793
v 0.012311 -0.017989 -0.008793
v -0.008624 -0.015547 -0.001607
v 0.013338 -0.018170 -0.001688
v -0.008456 -0.015577 0.004113
v 0.013018 -0.018113 0.003640
v -0.007718 -0.015887 0.006339
v 0.010997 -0.017757 0.005106
v -0.005204 -0.016159 0.007860
v 0.006825 -0.017021 0.006194
v 0.004840 -0.016941 0.006853
v 0.002859 -0.016798 0.006853
v 0.000273 -0.017413 0.006853
v -0.001708 -0.017156 0.006853
v -0.002157 -0.016696 0.006853
v -0.000718 -0.016439 0.006853
vt 0.442279 0.553600
vt 0.442279 0.553600
vt 0.442279 0.553600
vt 0.442279 0.553600
vt 0.442279 0.553600
vt 0.442279 0.553600
vt 0.442279 0.553600
vt 0.442279 0.553600
vt 0.442279 0.553600
vt 0.442279 0.553600
vt 0.442279 0.553600
vt 0.442279 0.553600
vt 0.442279 0.553600
vt 0.442279 0.553600
vt 0.442279 0.553600
vt 0.442279 0.553600
vt 0.442279 0.553600
vt 0.442279 0.553600
vt 0.442279 0.553600
vt 0.442279 0.553600
vt 0.442279 0.553600
vt 0.442279 0.553600
vt 0.442279 0.553600
vt 0.442279 0.553600
vt 0.442279 0.553600
vt 0.442279 0.553600
vt 0.442279 0.553600
vt 0.442279 0.553600
vt 0.442279 0.553600
vt 0.442279 0.553600
vt 0.442279 0.553600
vt 0.442279 0.553600
vt 0.442279 0.553600
vt 0.442279 0.553600
vt 0.442279 0.553600
vt 0.442279 0.553600
vt 0.442279 0.553600
vt 0.442279 0.553600
vt 0.442279 0.553600
vt 0.442279 0.553600
vt 0.442279 0.553600
vt 0.442279 0.553600
vt 0.442279 0.553600
vt 0.442279 0.553600
vt 0.442279 0.553600
vt 0.442279 0.553600
vt 0.442279 0.553600
vt 0.442279 0.553600
vt 0.442279 0.553600
vt 0.442279 0.553600
vt 0.442279 0.553600
vt 0.442279 0.553600
vt 0.442279 0.553600
vt 0.442279 0.553600
vt 0.442279 0.553600
vt 0.442279 0.553600
vt 0.442279 0.553600
vt 0.442279 0.553600
vt 0.442279 0.553600
vt 0.442279 0.553600
vt 0.442279 0.553600
vt 0.442279 0.553600
vt 0.442279 0.553600
vt 0.442279 0.553600
vt 0.442279 0.553600
vt 0.442279 0.553600
vt 0.442279 0.553600
vt 0.442279 0.553600
vt 0.442279 0.553600
vt 0.442279 0.553600
vt 0.442279 0.553600
vt 0.442279 0.553600
vt 0.442279 0.553600
vt 0.442279 0.553600
vt 0.442279 0.553600
vt 0.442279 0.553600
vt 0.442279 0.553600
vt 0.442279 0.553600
vt 0.686123 0.561043
vt 0.686123 0.561043
vt 0.686123 0.561043
vt 0.686123 0.561043
vt 0.686123 0.561043
vt 0.686123 0.561043
vt 0.686123 0.561043
vt 0.686123 0.561043
vt 0.686123 0.561043
vt 0.686123 0.561043
vt 0.686123 0.561043
vt 0.686123 0.561043
vt 0.686123 0.561043
vt 0.686123 0.561043
vt 0.686123 0.561043
vt 0.686123 0.561043
vt 0.686123 0.561043
vt 0.686123 0.561043
vt 0.686123 0.561043
vt 0.686123 0.561043
vt 0.686123 0.561043
vt 0.686123 0.561043
vt 0.686123 0.561043
vt 0.686123 0.561043
vt 0.686123 0.561043
vt 0.686123 0.561043
vt 0.686123 0.561043
vt 0.686123 0.561043
vt 0.686123 0.561043
vt 0.686123 0.561043
vt 0.686123 0.561043
vt 0.686123 0.561043
vt 0.686123 0.561043
vt 0.686123 0.561043
vt 0.686123 0.561043
vt 0.686123 0.561043
vt 0.686123 0.561043
vt 0.686123 0.561043
vt 0.686123 0.561043
vt 0.686123 0.561043
vt 0.686123 0.561043
vt 0.686123 0.561043
vt 0.686123 0.561043
vt 0.686123 0.561043
vt 0.686123 0.561043
vt 0.686123 0.561043
vt 0.686123 0.561043
vt 0.686123 0.561043
vt 0.686123 0.561043
vt 0.686123 0.561043
vt 0.686123 0.561043
vt 0.686123 0.561043
vt 0.686123 0.561043
vt 0.686123 0.561043
vt 0.686123 0.561043
vt 0.686123 0.561043
vt 0.686123 0.561043
vt 0.686123 0.561043
vt 0.686123 0.561043
vt 0.686123 0.561043
vt 0.686123 0.561043
vt 0.686123 0.561043
vt 0.686123 0.561043
vt 0.686123 0.561043
vt 0.686123 0.561043
vt 0.686123 0.561043
vn 0.5635 0.2124 -0.7983
vn 0.2916 -0.3475 -0.8912
vn 0.0000 -0.4536 -0.8912
vn -0.0369 -0.5915 -0.8055
vn -0.4467 -0.0788 -0.8912
vn -0.5698 -0.1445 -0.8090
vn -0.9544 -0.2060 -0.2160
vn -0.8742 -0.1541 -0.4604
vn -0.2992 -0.8949 -0.3310
vn -0.8260 -0.4553 -0.3323
vn 0.0000 -0.8877 -0.4604
vn 0.8863 0.0882 -0.4547
vn 0.5706 -0.6800 -0.4604
vn -0.9663 -0.2535 0.0451
vn 0.6557 -0.7236 -0.2158
vn 0.9880 0.0470 -0.1474
vn -0.0372 -0.9757 -0.2159
vn -0.8277 -0.5210 -0.2085
vn -0.3646 -0.9077 -0.2077
vn -0.1803 -0.8075 0.5616
vn 0.7027 -0.7101 0.0453
vn 0.9965 0.0621 0.0567
vn -0.0819 -0.9956 0.0452
vn -0.7928 -0.6068 0.0573
vn -0.4563 -0.8880 0.0572
vn -0.8297 -0.2110 0.5169
vn 0.5975 -0.6130 0.5169
vn 0.7889 0.2553 0.5590
vn -0.0637 -0.8537 0.5169
vn -0.7601 -0.3231 0.5638
vn 0.2556 -0.5673 0.7829
vn -0.1005 -0.0581 0.9932
vn 0.1006 -0.0580 0.9932
vn 0.3633 0.5041 0.7835
vn -0.0398 -0.1090 0.9932
vn -0.5946 0.1467 0.7905
vn 0.3064 -0.2998 0.9035
vn 0.3224 0.0569 0.9449
vn -0.2104 0.2508 0.9449
vn 0.0000 0.3274 0.9449
vn -0.3338 0.2509 0.9087
vn 0.0072 0.5544 0.8322
vn -0.5776 0.6884 -0.4388
vn 0.2808 0.9592 0.0317
vn 0.1165 0.9786 -0.1696
vn 0.6435 0.6795 -0.3524
vn 0.1037 0.9898 -0.0976
vn 0.1364 0.9807 -0.1402
vn 0.0753 0.9953 0.0601
vn 0.0564 0.9984 -0.0072
vn 0.9050 0.1596 -0.3944
vn 0.2698 0.9614 0.0545
vn 0.0000 0.9248 -0.3804
vn 0.0540 0.9984 0.0176
vn 0.9563 0.1686 0.2389
vn 0.2203 0.9702 0.1014
vn 0.1791 0.9746 -0.1347
vn 0.2516 0.9662 -0.0563
vn 0.2779 0.9606 -0.0032
vn 0.5556 0.7540 -0.3505
vn -0.2969 0.9011 -0.3160
vn 0.6308 0.7518 0.1920
vn -0.3286 0.9029 0.2771
vn -0.0699 0.7032 0.7076
vn 0.9038 0.2800 0.3237
vn -0.3266 0.4499 0.8312
vn -0.9445 0.2954 0.1440
vn 0.8033 0.2755 0.5280
vn 0.9706 0.2391 -0.0274
vn 0.7067 0.3785 0.5977
vn -0.9509 0.3036 -0.0603
vn 0.0257 0.6274 -0.7783
vn 0.8079 0.2633 -0.5273
vn 0.8035 0.4840 0.3466
vn -0.5271 0.2930 -0.7977
vn -0.1456 0.5944 -0.7909
vn 0.7358 0.4165 0.5340
vn 0.6585 0.7125 0.2421
vn 0.8445 0.5259 0.1010
vn -0.6927 0.7195 -0.0492
vn -0.7338 0.3675 0.5715
vn 0.7804 0.4632 0.4200
vn -0.3469 0.6819 -0.6439
vn -0.0574 0.1989 -0.9783
vn 0.0204 0.5832 -0.8121
vn 0.0713 0.3332 -0.9402
vn -0.2343 0.6122 0.7552
vn -0.6961 0.7080 0.1187
vn 0.4938 0.6875 0.5325
vn 0.1150 0.9934 -0.0055
vn -0.2539 0.2505 -0.9342
vn -0.1441 0.6857 0.7135
vn 0.6268 0.7716 -0.1087
vn 0.6091 0.6243 0.4891
vn -0.5217 0.6957 0.4938
vn -0.3702 0.9054 0.2081
usemtl Material.001
s off
f 1/1/1 12/2/1 2/3/1
f 1/1/2 2/3/2 4/4/2 3/5/2
f 3/5/3 4/4/3 6/6/3 5/7/3
f 13/8/4 11/9/4 8/10/4 7/11/4
f 7/11/5 8/10/5 10/12/5 9/13/5
f 5/7/6 6/6/6 11/9/6 13/8/6
f 18/14/7 17/15/7 24/16/7 25/17/7
f 10/12/8 8/10/8 17/15/8 18/14/8
f 8/10/9 11/9/9 19/18/9 17/15/9
f 11/9/10 6/6/10 16/19/10 19/18/10
f 6/6/11 4/4/11 15/20/11 16/19/11
f 2/3/12 12/2/12 20/21/12 14/22/12
f 4/4/13 2/3/13 14/22/13 15/20/13
f 25/17/14 24/16/14 31/23/14 32/24/14
f 15/20/15 14/22/15 21/25/15 22/26/15
f 14/22/16 20/21/16 27/27/16 21/25/16
f 16/19/17 15/20/17 22/26/17 23/28/17
f 19/18/18 16/19/18 23/28/18 26/29/18
f 17/15/19 19/18/19 26/29/19 24/16/19
f 31/23/20 33/30/20 40/31/20 38/32/20
f 22/26/21 21/25/21 28/33/21 29/34/21
f 21/25/22 27/27/22 34/35/22 28/33/22
f 23/28/23 22/26/23 29/34/23 30/36/23
f 26/29/24 23/28/24 30/36/24 33/30/24
f 24/16/25 26/29/25 33/30/25 31/23/25
f 32/24/26 31/23/26 38/32/26 39/37/26
f 29/34/27 28/33/27 35/38/27 36/39/27
f 28/33/28 34/35/28 41/40/28 35/38/28
f 30/36/29 29/34/29 36/39/29 37/41/29
f 33/30/30 30/36/30 37/41/30 40/31/30
f 38/32/31 40/31/31 47/42/31 45/43/31
f 39/37/32 38/32/32 45/43/32 46/44/32
f 36/39/33 35/38/33 42/45/33 43/46/33
f 35/38/34 41/40/34 48/47/34 42/45/34
f 37/41/35 36/39/35 43/46/35 44/48/35
f 40/31/36 37/41/36 44/48/36 47/42/36
f 45/43/37 47/42/37 54/49/37 52/50/37
f 46/44/38 45/43/38 52/50/38 53/51/38
f 43/46/39 42/45/39 49/52/39 50/53/39
f 44/48/40 43/46/40 50/53/40 51/54/40
f 47/42/41 44/48/41 51/54/41 54/49/41
f 48/47/42 49/52/42 42/45/42
f 1/1/43 3/5/43 56/55/43 55/56/43
f 18/14/44 25/17/44 65/57/44 63/58/44
f 46/44/45 53/51/45 77/59/45 71/60/45
f 5/7/46 13/8/46 62/61/46 57/62/46
f 41/40/47 34/35/47 68/63/47 70/64/47
f 48/47/48 41/40/48 70/64/48 72/65/48
f 20/21/49 12/2/49 61/66/49 64/67/49
f 34/35/50 27/27/50 66/68/50 68/63/50
f 7/11/51 9/13/51 59/69/51 58/70/51
f 10/12/52 18/14/52 63/58/52 60/71/52
f 3/5/53 5/7/53 57/62/53 56/55/53
f 27/27/54 20/21/54 64/67/54 66/68/54
f 53/51/55 52/50/55 76/72/55 77/59/55
f 9/13/56 10/12/56 60/71/56 59/69/56
f 39/37/57 46/44/57 71/60/57 69/73/57
f 32/24/58 39/37/58 69/73/58 67/74/58
f 25/17/59 32/24/59 67/74/59 65/57/59
f 13/8/60 7/11/60 58/70/60 62/61/60
f 12/2/61 1/1/61 55/56/61 61/66/61
f 54/49/62 51/54/62 75/75/62 78/76/62 76/72/62 52/50/62
f 50/53/63 49/52/63 73/77/63 74/78/63 75/75/63 51/54/63
f 79/79/64 80/80/64 102/81/64 101/82/64
f 63/83/65 65/84/65 87/85/65 86/86/65
f 62/87/66 58/88/66 81/89/66 85/90/66
f 66/91/67 64/92/67 84/93/67 88/94/67
f 58/88/68 59/95/68 82/96/68 81/89/68
f 65/84/69 67/97/69 89/98/69 87/85/69
f 59/95/70 60/99/70 83/100/70 82/96/70
f 68/101/71 66/91/71 88/94/71 90/102/71
f 93/103/72 99/104/72 119/105/72 113/106/72 111/107/72 91/108/72
f 67/97/73 69/109/73 91/108/73 89/98/73
f 57/110/74 62/87/74 85/90/74 80/80/74
f 70/111/75 68/101/75 90/102/75 92/112/75
f 94/113/76 92/112/76 112/114/76 114/115/76 115/116/76 95/117/76
f 60/99/77 63/83/77 86/86/77 83/100/77
f 86/86/78 87/85/78 107/118/78 105/119/78
f 82/96/79 83/100/79 103/120/79
f 90/102/80 88/94/80 108/121/80 110/122/80
f 61/123/81 55/124/81 79/79/81 84/93/81 64/92/81
f 80/80/82 85/90/82 104/125/82 102/81/82
f 92/112/83 90/102/83 110/122/83 112/114/83
f 69/109/84 71/126/84 77/127/84 99/104/84 93/103/84 91/108/84
f 96/128/85 95/117/85 115/116/85 116/129/85 117/130/85 120/131/85 118/132/85 119/105/85 99/104/85 98/133/85 100/134/85 97/135/85
f 78/136/86 75/137/86 74/138/86 73/139/86 95/117/86 96/128/86 97/135/86 100/134/86 98/133/86 99/104/86 77/127/86 76/140/86
f 85/90/87 81/89/87 103/120/87 104/125/87
f 88/94/88 84/93/88 106/141/88 108/121/88
f 81/89/89 82/96/89 103/120/89
f 101/82/90 102/81/90 104/125/90 103/120/90 105/119/90 107/118/90 109/142/90 111/107/90 113/106/90 119/105/90 118/132/90 120/131/90 117/130/90 116/129/90 115/116/90 114/115/90 112/114/90 110/122/90 108/121/90 106/141/90
f 72/143/91 70/111/91 92/112/91 94/113/91 95/117/91 73/139/91
f 56/144/92 57/110/92 80/80/92 79/79/92 55/124/92
f 87/85/93 89/98/93 91/108/93 111/107/93 109/142/93 107/118/93
f 83/100/94 86/86/94 105/119/94 103/120/94
f 84/93/95 79/79/95 101/82/95 106/141/95
f 49/52/96 48/47/96 72/65/96 73/77/96
