# Blender v2.83.5 OBJ File: 'pineapple03.blend'
# www.blender.org
mtllib pineapple03.mtl
o Cylinder
v -0.000000 -0.053344 -0.052186
v 0.036901 -0.053344 -0.036901
v 0.052186 -0.053344 0.000000
v 0.036901 -0.053344 0.036901
v -0.000000 -0.053344 0.052186
v -0.036901 -0.053344 0.036901
v -0.052186 -0.053344 -0.000000
v -0.036901 -0.053344 -0.036901
v 0.000000 0.069243 -0.053856
v 0.038082 0.069243 -0.038082
v 0.053856 0.069243 0.000000
v 0.038082 0.069243 0.038082
v -0.000000 0.069243 0.053856
v -0.038082 0.069243 0.038082
v -0.053856 0.069243 -0.000000
v -0.038082 0.069243 -0.038082
v 0.010878 -0.053344 -0.010878
v -0.000000 -0.053344 -0.015383
v 0.015383 -0.053344 -0.000000
v 0.010878 -0.053344 0.010878
v -0.000000 -0.053344 0.015383
v -0.010878 -0.053344 0.010878
v -0.015383 -0.053344 -0.000000
v -0.010878 -0.053344 -0.010878
v 0.011226 0.069243 -0.011226
v -0.000000 0.069243 -0.015876
v 0.015876 0.069243 -0.000000
v 0.011226 0.069243 0.011226
v -0.000000 0.069243 0.015876
v -0.011226 0.069243 0.011226
v -0.015876 0.069243 -0.000000
v -0.011226 0.069243 -0.011226
v 0.004608 -0.053344 -0.004608
v -0.000000 -0.053344 -0.006516
v 0.006516 -0.053344 -0.000000
v 0.004608 -0.053344 0.004608
v -0.000000 -0.053344 0.006516
v -0.004608 -0.053344 0.004608
v -0.006516 -0.053344 -0.000000
v -0.004608 -0.053344 -0.004608
v 0.004755 0.069243 -0.004755
v -0.000000 0.069243 -0.006725
v 0.006725 0.069243 -0.000000
v 0.004755 0.069243 0.004755
v -0.000000 0.069243 0.006725
v -0.004755 0.069243 0.004755
v -0.006725 0.069243 -0.000000
v -0.004755 0.069243 -0.004755
vt 0.558327 0.686474
vt 0.558327 0.686474
vt 0.558327 0.686474
vt 0.558327 0.686474
vt 0.558327 0.686474
vt 0.558327 0.686474
vt 0.558327 0.686474
vt 0.558327 0.686474
vt 0.683327 0.686474
vt 0.683327 0.686474
vt 0.683327 0.686474
vt 0.683327 0.686474
vt 0.683327 0.686474
vt 0.683327 0.686474
vt 0.683327 0.686474
vt 0.683327 0.686474
vt 0.558327 0.686474
vt 0.558327 0.686474
vt 0.558327 0.686474
vt 0.558327 0.686474
vt 0.558327 0.686474
vt 0.558327 0.686474
vt 0.558327 0.686474
vt 0.558327 0.686474
vt 0.558327 0.686474
vt 0.558327 0.686474
vt 0.558327 0.686474
vt 0.558327 0.686474
vt 0.558327 0.686474
vt 0.558327 0.686474
vt 0.558327 0.686474
vt 0.558327 0.686474
vt 0.558327 0.686474
vt 0.558327 0.686474
vt 0.558327 0.686474
vt 0.558327 0.686474
vt 0.558327 0.686474
vt 0.558327 0.686474
vt 0.558327 0.686474
vt 0.558327 0.686474
vt 0.558327 0.686474
vt 0.558327 0.686474
vt 0.558327 0.686474
vt 0.558327 0.686474
vt 0.558327 0.686474
vt 0.558327 0.686474
vt 0.558327 0.686474
vt 0.558327 0.686474
vt 0.558327 0.686474
vt 0.558327 0.686474
vt 0.558327 0.686474
vt 0.558327 0.686474
vt 0.558327 0.686474
vt 0.558327 0.686474
vt 0.558327 0.686474
vt 0.558327 0.686474
vt 0.683327 0.686474
vt 0.683327 0.686474
vt 0.683327 0.686474
vt 0.683327 0.686474
vt 0.683327 0.686474
vt 0.683327 0.686474
vt 0.683327 0.686474
vt 0.683327 0.686474
vt 0.683327 0.686474
vt 0.683327 0.686474
vt 0.683327 0.686474
vt 0.683327 0.686474
vt 0.683327 0.686474
vt 0.683327 0.686474
vt 0.683327 0.686474
vt 0.683327 0.686474
vt 0.683327 0.686474
vt 0.683327 0.686474
vt 0.683327 0.686474
vt 0.683327 0.686474
vt 0.683327 0.686474
vt 0.683327 0.686474
vt 0.683327 0.686474
vt 0.683327 0.686474
vn 0.0000 1.0000 0.0000
vn 0.0000 -1.0000 0.0000
vn 0.3827 -0.0126 -0.9238
vn -0.3827 -0.0126 -0.9238
vn -0.9238 -0.0126 -0.3827
vn -0.9238 -0.0126 0.3827
vn -0.3827 -0.0126 0.9238
vn 0.3827 -0.0126 0.9238
vn 0.9238 -0.0126 0.3827
vn 0.9238 -0.0126 -0.3827
usemtl Material.001
s off
f 14/1/1 13/2/1 29/3/1 30/4/1
f 8/5/2 1/6/2 18/7/2 24/8/2
f 20/9/2 21/10/2 37/11/2 36/12/2
f 28/13/1 27/14/1 43/15/1 44/16/1
f 1/6/2 2/17/2 17/18/2 18/7/2
f 15/19/1 14/1/1 30/4/1 31/20/1
f 2/17/2 3/21/2 19/22/2 17/18/2
f 16/23/1 15/19/1 31/20/1 32/24/1
f 3/21/2 4/25/2 20/26/2 19/22/2
f 9/27/1 16/23/1 32/24/1 26/28/1
f 4/25/2 5/29/2 21/30/2 20/26/2
f 10/31/1 9/27/1 26/28/1 25/32/1
f 5/29/2 6/33/2 22/34/2 21/30/2
f 11/35/1 10/31/1 25/32/1 27/36/1
f 6/33/2 7/37/2 23/38/2 22/34/2
f 12/39/1 11/35/1 27/36/1 28/40/1
f 7/37/2 8/5/2 24/8/2 23/38/2
f 13/2/1 12/39/1 28/40/1 29/3/1
f 41/41/1 42/42/1 48/43/1 47/44/1 46/45/1 45/46/1 44/47/1 43/48/1
f 33/49/2 35/50/2 36/51/2 37/52/2 38/53/2 39/54/2 40/55/2 34/56/2
f 29/57/1 28/13/1 44/16/1 45/58/1
f 21/10/2 22/59/2 38/60/2 37/11/2
f 30/61/1 29/57/1 45/58/1 46/62/1
f 22/59/2 23/63/2 39/64/2 38/60/2
f 31/65/1 30/61/1 46/62/1 47/66/1
f 23/63/2 24/67/2 40/68/2 39/64/2
f 32/69/1 31/65/1 47/66/1 48/70/1
f 24/67/2 18/71/2 34/72/2 40/68/2
f 18/71/2 17/73/2 33/74/2 34/72/2
f 26/75/1 32/69/1 48/70/1 42/76/1
f 25/77/1 26/75/1 42/76/1 41/78/1
f 17/73/2 19/79/2 35/80/2 33/74/2
f 27/14/1 25/77/1 41/78/1 43/15/1
f 19/79/2 20/9/2 36/12/2 35/80/2
f 1/6/3 9/27/3 10/31/3 2/17/3
f 8/5/4 16/23/4 9/27/4 1/6/4
f 7/37/5 15/19/5 16/23/5 8/5/5
f 6/33/6 14/1/6 15/19/6 7/37/6
f 5/29/7 13/2/7 14/1/7 6/33/7
f 4/25/8 12/39/8 13/2/8 5/29/8
f 3/21/9 11/35/9 12/39/9 4/25/9
f 2/17/10 10/31/10 11/35/10 3/21/10
