# Blender v2.83.5 OBJ File: 'pistachio01.blend'
# www.blender.org
mtllib pistachio01.mtl
o Cylinder.001_Cylinder
v 0.000000 0.005769 -0.006585
v 0.000000 0.006333 -0.002597
v 0.004434 0.003976 -0.006236
v 0.004434 0.003976 -0.002458
v 0.006925 -0.000000 -0.006585
v 0.006925 -0.000000 -0.002597
v 0.004434 -0.003976 -0.006236
v 0.004434 -0.003976 -0.002458
v -0.000000 -0.005769 -0.006585
v -0.000000 -0.006333 -0.002597
v -0.004434 -0.003976 -0.006236
v -0.004434 -0.003976 -0.002458
v -0.006925 0.000000 -0.006585
v -0.006925 0.000000 -0.002597
v -0.004434 0.003976 -0.006236
v -0.004434 0.003976 -0.002458
v -0.000000 0.004543 -0.009582
v 0.003340 0.002995 -0.009582
v 0.004769 0.000000 -0.009582
v 0.003340 -0.002995 -0.009582
v -0.000000 -0.004543 -0.009582
v -0.003340 -0.002995 -0.009582
v -0.004769 0.000000 -0.009582
v -0.003340 0.002995 -0.009582
v -0.000000 0.001554 -0.011113
v 0.001184 0.001184 -0.011113
v 0.001674 0.000000 -0.011113
v 0.001184 -0.001184 -0.011113
v -0.000000 -0.001554 -0.011113
v -0.001184 -0.001184 -0.011113
v -0.001674 0.000000 -0.011113
v -0.001184 0.001184 -0.011113
v 0.004161 0.003584 0.008845
v -0.000000 0.005709 0.009333
v 0.004161 -0.003584 0.008845
v -0.000000 -0.005709 0.009333
v -0.004161 -0.003584 0.008845
v -0.004161 0.003584 0.008845
v 0.002166 0.002690 0.013624
v -0.000000 0.003746 0.013168
v 0.002166 -0.002691 0.013624
v -0.000000 -0.003747 0.013168
v -0.002166 -0.002691 0.013624
v -0.002166 0.002690 0.013624
v 0.005625 0.001823 0.009085
v -0.005625 0.001823 0.009085
v -0.000000 0.002795 0.014245
v -0.000000 -0.002796 0.014245
v -0.005725 -0.001703 0.009101
v 0.005725 -0.001703 0.009101
v 0.004816 -0.001719 0.009150
v 0.005048 0.000003 0.009344
v -0.004723 0.001934 0.009135
v -0.005048 0.000003 0.009344
v -0.006389 0.000003 -0.000675
v 0.006389 0.000003 -0.000675
v 0.002963 0.000003 0.012527
v 0.001454 0.002283 0.012947
v 0.001454 -0.002284 0.012947
v -0.002963 0.000003 0.012527
v -0.001454 -0.002284 0.012947
v 0.004715 0.001826 0.009134
v -0.001454 0.002283 0.012947
v -0.004807 -0.001810 0.009149
v 0.001761 0.000003 0.013532
v 0.000827 0.000715 0.013532
v 0.000827 -0.000710 0.013532
v -0.001761 0.000003 0.013532
v -0.000827 -0.000710 0.013532
v -0.000827 0.000715 0.013532
v -0.003251 0.001143 0.011145
v 0.005719 0.000003 0.004334
vt 0.435547 0.814570
vt 0.435547 0.814570
vt 0.435547 0.814570
vt 0.435547 0.814570
vt 0.435547 0.814570
vt 0.435547 0.814570
vt 0.435547 0.814570
vt 0.435547 0.814570
vt 0.435547 0.814570
vt 0.435547 0.814570
vt 0.435547 0.814570
vt 0.435547 0.814570
vt 0.435547 0.814570
vt 0.435547 0.814570
vt 0.435547 0.814570
vt 0.435547 0.814570
vt 0.435547 0.814570
vt 0.435547 0.814570
vt 0.435547 0.814570
vt 0.435547 0.814570
vt 0.435547 0.814570
vt 0.435547 0.814570
vt 0.435547 0.814570
vt 0.435547 0.814570
vt 0.435547 0.814570
vt 0.435547 0.814570
vt 0.435547 0.814570
vt 0.435547 0.814570
vt 0.435547 0.814570
vt 0.435547 0.814570
vt 0.435547 0.814570
vt 0.435547 0.814570
vt 0.435547 0.814570
vt 0.435547 0.814570
vt 0.435547 0.814570
vt 0.435547 0.814570
vt 0.435547 0.814570
vt 0.435547 0.814570
vt 0.435547 0.814570
vt 0.435547 0.814570
vt 0.435547 0.814570
vt 0.435547 0.814570
vt 0.435547 0.814570
vt 0.435547 0.814570
vt 0.435547 0.814570
vt 0.435547 0.814570
vt 0.435547 0.814570
vt 0.435547 0.814570
vt 0.435547 0.814570
vt 0.435547 0.814570
vt 0.435547 0.814570
vt 0.435547 0.814570
vt 0.435547 0.814570
vt 0.435547 0.814570
vt 0.435547 0.814570
vt 0.435547 0.814570
vt 0.435547 0.814570
vt 0.435547 0.814570
vt 0.435547 0.814570
vt 0.435547 0.814570
vt 0.185547 0.814570
vt 0.185547 0.814570
vt 0.185547 0.814570
vt 0.185547 0.814570
vt 0.185547 0.814570
vt 0.185547 0.814570
vt 0.185547 0.814570
vt 0.185547 0.814570
vt 0.185547 0.814570
vt 0.185547 0.814570
vt 0.185547 0.814570
vt 0.185547 0.814570
vt 0.185547 0.814570
vt 0.185547 0.814570
vt 0.185547 0.814570
vt 0.185547 0.814570
vt 0.185547 0.814570
vt 0.185547 0.814570
vt 0.185547 0.814570
vt 0.185547 0.814570
vt 0.185547 0.814570
vt 0.185547 0.814570
vt 0.185547 0.564570
vt 0.185547 0.564570
vt 0.185547 0.564570
vt 0.185547 0.564570
vt 0.185547 0.564570
vt 0.185547 0.564570
vn 0.4259 0.9024 -0.0656
vn 0.8475 0.5308 0.0000
vn 0.8475 -0.5308 0.0000
vn 0.4259 -0.9024 -0.0656
vn -0.4259 -0.9024 -0.0656
vn -0.8475 -0.5308 0.0000
vn 0.4633 -0.8851 0.0441
vn -0.8475 0.5308 0.0000
vn -0.4259 0.9024 -0.0656
vn 0.7634 0.4523 -0.4611
vn 0.4403 -0.2023 -0.8747
vn -0.3818 -0.8505 -0.3618
vn -0.3818 0.8505 -0.3618
vn 0.3818 0.8505 -0.3618
vn 0.7634 -0.4523 -0.4611
vn -0.7634 -0.4523 -0.4611
vn 0.3818 -0.8505 -0.3618
vn -0.7634 0.4523 -0.4611
vn 0.0000 0.0000 -1.0000
vn 0.1964 0.4632 -0.8642
vn -0.1964 0.4632 -0.8642
vn -0.4403 -0.2023 -0.8747
vn 0.1964 -0.4632 -0.8642
vn 0.4403 0.2023 -0.8747
vn -0.4403 0.2023 -0.8747
vn -0.1964 -0.4632 -0.8642
vn 0.4186 -0.8287 0.3717
vn 0.0000 0.8575 0.5145
vn 0.8230 0.5676 0.0210
vn -0.4633 -0.8851 0.0441
vn -0.4633 0.8851 0.0441
vn 0.4633 0.8851 0.0441
vn 0.1368 -0.9555 0.2614
vn -0.8219 -0.5693 0.0202
vn -0.2205 0.7309 0.6459
vn 0.6779 0.6177 0.3986
vn -0.1753 0.9678 0.1807
vn -0.4186 -0.8287 0.3717
vn -0.1905 -0.9622 0.1944
vn 0.4185 0.8286 0.3718
vn -0.4185 0.8286 0.3718
vn -0.6780 -0.6177 0.3985
vn -0.6779 0.6177 0.3986
vn -0.8230 0.5676 0.0210
vn 0.2400 0.9534 0.1826
vn 0.0000 -0.8570 0.5153
vn -0.2205 -0.7309 0.6459
vn 0.2205 0.7309 0.6459
vn 0.0000 -0.9860 0.1669
vn 0.2205 -0.7309 0.6459
vn -0.0845 0.9671 0.2401
vn -0.0938 -0.9717 0.2169
vn 0.0000 0.9860 0.1669
vn 0.1210 0.9528 0.2785
vn 0.2648 -0.9440 0.1968
vn 0.6780 -0.6177 0.3985
vn 0.8219 -0.5693 0.0202
vn -0.9753 0.1780 0.1306
vn 0.9804 -0.1470 0.1313
vn -0.7620 0.4125 0.4991
vn 0.7638 -0.2994 0.5718
vn 0.7641 0.3142 0.5634
vn 0.9726 0.1926 0.1302
vn -0.4834 -0.2776 0.8302
vn 0.0000 -0.3487 0.9372
vn -0.7635 -0.2943 0.5748
vn -0.9808 -0.1443 0.1313
vn 0.0000 0.0000 1.0000
vn 0.4836 0.2784 0.8299
vn -0.4836 0.2784 0.8299
vn -0.0000 0.3501 0.9367
vn 0.4834 -0.2776 0.8302
vn -0.7532 0.1944 0.6284
usemtl Material.003
s off
f 1/1/1 2/2/1 4/3/1 3/4/1
f 3/4/2 4/3/2 6/5/2 5/6/2
f 5/6/3 6/5/3 8/7/3 7/8/3
f 7/8/4 8/7/4 10/9/4 9/10/4
f 9/10/5 10/9/5 12/11/5 11/12/5
f 11/12/6 12/11/6 14/13/6 13/14/6
f 10/9/7 8/7/7 35/15/7 36/16/7
f 13/14/8 14/13/8 16/17/8 15/18/8
f 15/18/9 16/17/9 2/2/9 1/1/9
f 3/4/10 5/6/10 19/19/10 18/20/10
f 19/19/11 20/21/11 28/22/11 27/23/11
f 9/10/12 11/12/12 22/24/12 21/25/12
f 15/18/13 1/1/13 17/26/13 24/27/13
f 1/1/14 3/4/14 18/20/14 17/26/14
f 5/6/15 7/8/15 20/21/15 19/19/15
f 11/12/16 13/14/16 23/28/16 22/24/16
f 7/8/17 9/10/17 21/25/17 20/21/17
f 13/14/18 15/18/18 24/27/18 23/28/18
f 25/29/19 26/30/19 27/23/19 28/22/19 29/31/19 30/32/19 31/33/19 32/34/19
f 17/26/20 18/20/20 26/30/20 25/29/20
f 24/27/21 17/26/21 25/29/21 32/34/21
f 22/24/22 23/28/22 31/33/22 30/32/22
f 20/21/23 21/25/23 29/31/23 28/22/23
f 18/20/24 19/19/24 27/23/24 26/30/24
f 23/28/25 24/27/25 32/34/25 31/33/25
f 21/25/26 22/24/26 30/32/26 29/31/26
f 36/16/27 35/15/27 41/35/27 42/36/27
f 43/37/28 41/35/28 59/38/28 61/39/28
f 6/5/29 4/3/29 33/40/29 45/41/29
f 12/11/30 10/9/30 36/16/30 37/42/30
f 2/2/31 16/17/31 38/43/31 34/44/31
f 4/3/32 2/2/32 34/44/32 33/40/32
f 45/41/33 39/45/33 58/46/33 62/47/33
f 14/13/34 12/11/34 37/42/34 49/48/34
f 40/49/35 44/50/35 47/51/35
f 45/41/36 33/40/36 39/45/36
f 14/13/37 49/48/37 64/52/37 55/53/37
f 37/42/38 36/16/38 42/36/38 43/37/38
f 46/54/39 14/13/39 55/53/39 53/55/39
f 33/40/40 34/44/40 40/49/40 39/45/40
f 34/44/41 38/43/41 44/50/41 40/49/41
f 49/48/42 37/42/42 43/37/42
f 38/43/43 46/54/43 44/50/43
f 16/17/44 14/13/44 46/54/44 38/43/44
f 50/56/45 6/5/45 56/57/45 51/58/45
f 39/45/46 44/50/46 63/59/46 58/46/46
f 48/60/47 43/37/47 42/36/47
f 39/45/48 40/49/48 47/51/48
f 39/45/49 47/51/49 44/50/49
f 41/35/50 48/60/50 42/36/50
f 49/48/51 43/37/51 61/39/51 64/52/51
f 44/50/52 46/54/52 53/55/52 63/59/52
f 48/60/53 41/35/53 43/37/53
f 41/35/54 50/56/54 51/58/54 59/38/54
f 6/5/55 45/41/55 62/47/55 56/57/55
f 35/15/56 50/56/56 41/35/56
f 8/7/57 6/5/57 50/56/57 35/15/57
f 55/61/58 54/62/58 53/63/58
f 72/64/59 52/65/59 51/66/59
f 54/62/60 60/67/60 63/68/60 71/69/60
f 51/66/61 52/65/61 57/70/61 59/71/61
f 52/65/62 62/72/62 58/73/62 57/70/62
f 52/65/63 72/64/63 56/74/63 62/72/63
f 60/67/64 61/75/64 69/76/64 68/77/64
f 61/75/65 59/71/65 67/78/65 69/76/65
f 54/62/66 64/79/66 61/75/66 60/67/66
f 54/62/67 55/61/67 64/79/67
f 67/78/68 65/80/68 68/77/68 69/76/68
f 65/80/68 66/81/68 70/82/68 68/77/68
f 57/70/69 58/73/69 66/81/69 65/80/69
f 63/68/70 60/67/70 68/77/70 70/82/70
f 58/73/71 63/68/71 70/82/71 66/81/71
f 59/71/72 57/70/72 65/80/72 67/78/72
f 53/63/73 54/62/73 71/69/73
f 63/83/73 53/84/73 71/85/73
f 56/86/59 72/87/59 51/88/59
