# Blender v2.83.5 OBJ File: 'potato03.blend'
# www.blender.org
mtllib potato03.mtl
o Cylinder.001
v 0.013299 0.004360 -0.032343
v 0.013299 -0.004360 -0.032343
v -0.013136 0.004360 -0.030030
v -0.013136 -0.004360 -0.030030
v -0.028198 0.004360 -0.009073
v -0.030193 -0.004360 -0.009702
v -0.027880 0.004360 0.016733
v -0.027880 -0.004360 0.016733
v -0.007552 0.004360 0.033790
v -0.007552 -0.004360 0.033790
v 0.011053 0.004360 0.029008
v 0.011053 -0.004360 0.029008
v 0.027400 0.004360 0.009916
v 0.027400 -0.004360 0.009916
v 0.026013 0.004360 -0.017686
v 0.026013 -0.004360 -0.017686
vt 0.434892 0.813343
vt 0.434892 0.813343
vt 0.434892 0.813343
vt 0.434892 0.813343
vt 0.434892 0.813343
vt 0.434892 0.813343
vt 0.434892 0.813343
vt 0.434892 0.813343
vt 0.434892 0.813343
vt 0.434892 0.813343
vt 0.434892 0.813343
vt 0.434892 0.813343
vt 0.434892 0.813343
vt 0.434892 0.813343
vt 0.434892 0.813343
vt 0.434892 0.813343
vt 0.683066 0.815066
vt 0.683066 0.815066
vt 0.683066 0.815066
vt 0.683066 0.815066
vt 0.683066 0.815066
vt 0.683066 0.815066
vt 0.683066 0.815066
vt 0.683066 0.815066
vt 0.683066 0.815066
vt 0.683066 0.815066
vt 0.683066 0.815066
vt 0.683066 0.815066
vt 0.683066 0.815066
vt 0.683066 0.815066
vt 0.683066 0.815066
vt 0.683066 0.815066
vn -0.0872 0.0000 -0.9962
vn -0.7843 0.1117 -0.6102
vn -0.9925 0.1117 0.0500
vn -0.6428 0.0000 0.7660
vn 0.2489 -0.0000 0.9685
vn 0.7596 0.0000 0.6504
vn 0.9987 0.0000 -0.0502
vn 0.7554 0.0000 -0.6553
vn 0.0000 1.0000 -0.0000
vn -0.0000 -1.0000 -0.0000
usemtl Material.001
s off
f 1/1/1 2/2/1 4/3/1 3/4/1
f 3/4/2 4/3/2 6/5/2 5/6/2
f 5/6/3 6/5/3 8/7/3 7/8/3
f 7/8/4 8/7/4 10/9/4 9/10/4
f 9/10/5 10/9/5 12/11/5 11/12/5
f 11/12/6 12/11/6 14/13/6 13/14/6
f 13/14/7 14/13/7 16/15/7 15/16/7
f 15/16/8 16/15/8 2/2/8 1/1/8
f 1/17/9 3/18/9 5/19/9 7/20/9 9/21/9 11/22/9 13/23/9 15/24/9
f 4/25/10 2/26/10 16/27/10 14/28/10 12/29/10 10/30/10 8/31/10 6/32/10
