# Blender v2.83.5 OBJ File: 'potato04.blend'
# www.blender.org
mtllib potato04.mtl
o Cylinder.001
v 0.027060 0.004360 -0.004117
v 0.027060 -0.004360 -0.004117
v -0.027151 0.004360 -0.002158
v -0.029146 -0.004360 -0.002786
v -0.024716 0.004360 0.003816
v -0.024716 -0.004360 0.003816
v 0.025805 0.004360 0.002773
v 0.025805 -0.004360 0.002773
vt 0.688309 0.814009
vt 0.688309 0.814009
vt 0.688309 0.814009
vt 0.688309 0.814009
vt 0.433440 0.810909
vt 0.433440 0.810909
vt 0.433440 0.810909
vt 0.433440 0.810909
vt 0.688309 0.814009
vt 0.688309 0.814009
vt 0.688309 0.814009
vt 0.688309 0.814009
vt 0.433440 0.810909
vt 0.433440 0.810909
vt 0.433440 0.810909
vt 0.433440 0.810909
vn -0.0298 0.0394 -0.9988
vn -0.8747 0.0828 0.4775
vn 0.0206 0.0000 0.9998
vn 0.9838 0.0000 0.1792
vn 0.0000 1.0000 0.0000
vn -0.0000 -1.0000 -0.0000
usemtl Material.001
s off
f 1/1/1 2/2/1 4/3/1 3/4/1
f 3/5/2 4/6/2 6/7/2 5/8/2
f 5/9/3 6/10/3 8/11/3 7/12/3
f 7/13/4 8/14/4 2/15/4 1/16/4
f 1/1/5 3/4/5 5/9/5 7/12/5
f 2/2/6 8/11/6 6/10/6 4/3/6
