# Blender v2.83.5 OBJ File: 'potato01.blend'
# www.blender.org
mtllib potato01.mtl
o Cylinder.001
v -0.010720 0.011951 -0.032247
v 0.006311 0.011951 -0.032247
v -0.010720 -0.014484 -0.029934
v 0.006311 -0.014484 -0.029934
v -0.010720 -0.029546 -0.008978
v 0.006311 -0.031540 -0.009607
v -0.010720 -0.029228 0.016828
v 0.006311 -0.029228 0.016828
v -0.010720 -0.008900 0.033885
v 0.006311 -0.008900 0.033885
v -0.010720 0.009705 0.029104
v 0.006311 0.009705 0.029104
v -0.010720 0.030680 0.010011
v 0.006311 0.030680 0.010011
v -0.010720 0.024665 -0.017591
v 0.006311 0.024665 -0.017591
v 0.025069 -0.014484 -0.029934
v 0.025069 0.011951 -0.032247
v 0.025069 -0.028753 -0.008728
v 0.025069 -0.029228 0.016828
v 0.025069 -0.007318 0.028866
v 0.025069 0.008798 0.023357
v 0.025069 0.026762 0.008776
v 0.025069 0.026564 -0.011002
v 0.041472 -0.010794 -0.022847
v 0.041472 0.009549 -0.024627
v 0.041472 -0.021397 -0.004254
v 0.041472 -0.020005 0.011658
v 0.041472 -0.005017 0.021569
v 0.042345 0.008876 0.018786
v 0.042345 0.020982 0.004359
v 0.042279 0.017426 -0.008928
v 0.051322 -0.004189 -0.010158
v 0.051322 0.005247 -0.010983
v 0.049343 -0.009579 -0.002682
v 0.049343 -0.008754 0.006753
v 0.051322 -0.002196 0.012621
v 0.050524 0.005828 0.009805
v 0.050524 0.010923 0.003732
v 0.050524 0.010232 -0.004166
v -0.025177 0.011951 -0.032247
v -0.025177 -0.014484 -0.029934
v -0.025177 -0.031540 -0.009607
v -0.025177 -0.029228 0.016828
v -0.025177 -0.007053 0.028028
v -0.025177 0.011552 0.023247
v -0.025177 0.026762 0.008776
v -0.025177 0.028118 -0.012487
v -0.039876 0.009250 -0.023679
v -0.039876 -0.010335 -0.021965
v -0.039876 -0.022972 -0.006905
v -0.039876 -0.021259 0.012680
v -0.039876 -0.006199 0.025317
v -0.036663 0.010292 0.021338
v -0.037266 0.025229 0.008331
v -0.039876 0.024310 -0.011042
v -0.050488 0.005656 -0.012282
v -0.050488 -0.004817 -0.011365
v -0.050488 -0.011575 -0.003312
v -0.050488 -0.010659 0.007162
v -0.047485 -0.002605 0.013920
v -0.046110 0.005380 0.011903
v -0.046110 0.011396 0.004734
v -0.047577 0.013710 -0.005524
vt 0.438151 0.814567
vt 0.438151 0.814567
vt 0.438151 0.814567
vt 0.438151 0.814567
vt 0.438151 0.814567
vt 0.438151 0.814567
vt 0.438151 0.814567
vt 0.438151 0.814567
vt 0.438151 0.814567
vt 0.438151 0.814567
vt 0.438151 0.814567
vt 0.438151 0.814567
vt 0.438151 0.814567
vt 0.438151 0.814567
vt 0.438151 0.814567
vt 0.438151 0.814567
vt 0.438151 0.814567
vt 0.438151 0.814567
vt 0.438151 0.814567
vt 0.438151 0.814567
vt 0.438151 0.814567
vt 0.438151 0.814567
vt 0.438151 0.814567
vt 0.438151 0.814567
vt 0.438151 0.814567
vt 0.438151 0.814567
vt 0.438151 0.814567
vt 0.438151 0.814567
vt 0.438151 0.814567
vt 0.438151 0.814567
vt 0.438151 0.814567
vt 0.438151 0.814567
vt 0.438151 0.814567
vt 0.438151 0.814567
vt 0.438151 0.814567
vt 0.438151 0.814567
vt 0.438151 0.814567
vt 0.438151 0.814567
vt 0.438151 0.814567
vt 0.438151 0.814567
vt 0.438151 0.814567
vt 0.438151 0.814567
vt 0.438151 0.814567
vt 0.438151 0.814567
vt 0.438151 0.814567
vt 0.438151 0.814567
vt 0.438151 0.814567
vt 0.438151 0.814567
vt 0.438151 0.814567
vt 0.438151 0.814567
vt 0.438151 0.814567
vt 0.438151 0.814567
vt 0.438151 0.814567
vt 0.438151 0.814567
vt 0.438151 0.814567
vt 0.438151 0.814567
vt 0.438151 0.814567
vt 0.438151 0.814567
vt 0.438151 0.814567
vt 0.438151 0.814567
vt 0.438151 0.814567
vt 0.438151 0.814567
vt 0.438151 0.814567
vt 0.438151 0.814567
vn 0.0000 -0.0872 -0.9962
vn -0.0575 -0.7880 -0.6130
vn -0.0575 -0.9971 0.0502
vn -0.0000 -0.6428 0.7660
vn 0.0000 0.2489 0.9685
vn 0.0000 0.6731 0.7395
vn 0.1329 -0.5622 0.8162
vn 0.0000 0.9771 -0.2129
vn 0.0000 0.7554 -0.6553
vn -0.3392 0.2342 0.9111
vn 0.4104 -0.0795 -0.9084
vn 0.0717 0.9890 -0.1297
vn 0.0732 -0.7962 -0.6005
vn 0.2607 0.2744 0.9256
vn 0.0659 0.7940 -0.6044
vn 0.0732 -0.9967 0.0352
vn 0.2194 0.6382 0.7380
vn 0.7336 0.6659 -0.1358
vn 0.4057 0.7768 -0.4817
vn 0.2889 0.6647 0.6890
vn 0.4516 -0.4561 0.7668
vn 0.4270 -0.7668 -0.4792
vn 0.3889 0.9153 -0.1047
vn 0.3067 0.2452 0.9197
vn 0.4513 -0.8922 0.0197
vn 0.9987 -0.0466 0.0207
vn 0.6953 0.1757 0.6969
vn 0.8283 -0.5582 0.0488
vn 0.8018 -0.0521 -0.5953
vn 0.7262 0.5968 -0.3412
vn 0.7041 0.5440 0.4565
vn 0.7432 -0.4384 0.5054
vn 0.7905 -0.5470 -0.2756
vn -0.3680 0.6694 -0.6453
vn -0.0220 0.7658 -0.6427
vn 0.0676 -0.9964 0.0502
vn -0.2228 0.6629 0.7147
vn -0.1999 -0.5425 0.8159
vn -0.0287 0.9951 -0.0949
vn 0.0676 -0.7875 -0.6126
vn -0.7209 -0.6904 0.0604
vn -0.1518 0.6642 0.7320
vn -0.3373 -0.5076 0.7928
vn -0.4917 -0.6670 -0.5597
vn -0.1947 0.9806 0.0231
vn -0.1719 0.2534 0.9520
vn -0.4917 -0.8674 0.0759
vn -0.4917 -0.0759 -0.8674
vn -0.9794 0.1536 0.1308
vn -0.7209 -0.0604 -0.6904
vn -0.7676 0.4660 -0.4401
vn -0.7728 0.4286 0.4681
vn -0.7690 -0.3493 0.5353
vn -0.7209 -0.5309 -0.4454
vn -0.8149 0.5627 0.1386
vn -0.7501 0.2866 0.5960
usemtl Material.001
s off
f 1/1/1 2/2/1 4/3/1 3/4/1
f 3/4/2 4/3/2 6/5/2 5/6/2
f 5/6/3 6/5/3 8/7/3 7/8/3
f 7/8/4 8/7/4 10/9/4 9/10/4
f 9/10/5 10/9/5 12/11/5 11/12/5
f 11/12/6 12/11/6 14/13/6 13/14/6
f 10/9/7 8/7/7 20/15/7 21/16/7
f 13/14/8 14/13/8 16/17/8 15/18/8
f 15/18/9 16/17/9 2/2/9 1/1/9
f 9/10/10 11/12/10 46/19/10 45/20/10
f 17/21/11 18/22/11 26/23/11 25/24/11
f 16/17/12 14/13/12 23/25/12 24/26/12
f 6/5/13 4/3/13 17/21/13 19/27/13
f 12/11/14 10/9/14 21/16/14 22/28/14
f 2/2/15 16/17/15 24/26/15 18/22/15
f 4/3/1 2/2/1 18/22/1 17/21/1
f 8/7/16 6/5/16 19/27/16 20/15/16
f 14/13/17 12/11/17 22/28/17 23/25/17
f 32/29/18 31/30/18 39/31/18 40/32/18
f 18/22/19 24/26/19 32/29/19 26/23/19
f 23/25/20 22/28/20 30/33/20 31/30/20
f 21/16/21 20/15/21 28/34/21 29/35/21
f 19/27/22 17/21/22 25/24/22 27/36/22
f 24/26/23 23/25/23 31/30/23 32/29/23
f 22/28/24 21/16/24 29/35/24 30/33/24
f 20/15/25 19/27/25 27/36/25 28/34/25
f 33/37/26 34/38/26 40/32/26 39/31/26 38/39/26 37/40/26 36/41/26 35/42/26
f 30/33/27 29/35/27 37/40/27 38/39/27
f 28/34/28 27/36/28 35/42/28 36/41/28
f 25/24/29 26/23/29 34/38/29 33/37/29
f 26/23/30 32/29/30 40/32/30 34/38/30
f 31/30/31 30/33/31 38/39/31 39/31/31
f 29/35/32 28/34/32 36/41/32 37/40/32
f 27/36/33 25/24/33 33/37/33 35/42/33
f 48/43/34 41/44/34 49/45/34 56/46/34
f 15/18/35 1/1/35 41/44/35 48/43/35
f 1/1/1 3/4/1 42/47/1 41/44/1
f 5/6/36 7/8/36 44/48/36 43/49/36
f 11/12/37 13/14/37 47/50/37 46/19/37
f 7/8/38 9/10/38 45/20/38 44/48/38
f 13/14/39 15/18/39 48/43/39 47/50/39
f 3/4/40 5/6/40 43/49/40 42/47/40
f 51/51/41 52/52/41 60/53/41 59/54/41
f 46/19/42 47/50/42 55/55/42 54/56/42
f 44/48/43 45/20/43 53/57/43 52/52/43
f 42/47/44 43/49/44 51/51/44 50/58/44
f 47/50/45 48/43/45 56/46/45 55/55/45
f 45/20/46 46/19/46 54/56/46 53/57/46
f 43/49/47 44/48/47 52/52/47 51/51/47
f 41/44/48 42/47/48 50/58/48 49/45/48
f 57/59/49 58/60/49 59/54/49 60/53/49 61/61/49 62/62/49 63/63/49 64/64/49
f 49/45/50 50/58/50 58/60/50 57/59/50
f 56/46/51 49/45/51 57/59/51 64/64/51
f 54/56/52 55/55/52 63/63/52 62/62/52
f 52/52/53 53/57/53 61/61/53 60/53/53
f 50/58/54 51/51/54 59/54/54 58/60/54
f 55/55/55 56/46/55 64/64/55 63/63/55
f 53/57/56 54/56/56 62/62/56 61/61/56
