# Blender v2.83.5 OBJ File: 'radish02.blend'
# www.blender.org
mtllib radish02.mtl
o Cylinder
v 0.000000 -0.011784 -0.029683
v 0.000000 0.011491 -0.029683
v 0.020989 -0.011784 -0.020989
v 0.020989 0.011491 -0.020989
v 0.029683 -0.011784 0.000000
v 0.029683 0.011491 0.000000
v 0.020989 -0.011784 0.020989
v 0.020989 0.011491 0.020989
v -0.000000 -0.011784 0.029683
v -0.000000 0.011491 0.029683
v -0.020989 -0.011784 0.020989
v -0.020989 0.011491 0.020989
v -0.029683 -0.011784 -0.000000
v -0.029683 0.011491 -0.000000
v -0.020989 -0.011784 -0.020989
v -0.020989 0.011491 -0.020989
v 0.000000 -0.022678 -0.021193
v 0.014986 -0.022678 -0.014986
v 0.021193 -0.022678 0.000000
v 0.014986 -0.022678 0.014986
v -0.000000 -0.022678 0.021193
v -0.014986 -0.022678 0.014986
v -0.021193 -0.022678 -0.000000
v -0.014986 -0.022678 -0.014986
v 0.000000 0.022824 -0.021521
v 0.015218 0.022824 -0.015218
v 0.021521 0.022824 0.000000
v 0.015218 0.022824 0.015218
v -0.000000 0.022824 0.021521
v -0.015218 0.022824 0.015218
v -0.021521 0.022824 -0.000000
v -0.015218 0.022824 -0.015218
v 0.000000 -0.022678 -0.020126
v 0.014231 -0.022678 -0.014231
v 0.020126 -0.022678 0.000000
v 0.014231 -0.022678 0.014231
v -0.000000 -0.022678 0.020126
v -0.014231 -0.022678 0.014231
v -0.020126 -0.022678 -0.000000
v -0.014231 -0.022678 -0.014231
v 0.014452 0.022824 -0.014452
v 0.000000 0.022824 -0.020438
v 0.020438 0.022824 0.000000
v 0.014452 0.022824 0.014452
v -0.000000 0.022824 0.020438
v -0.014452 0.022824 0.014452
v -0.020438 0.022824 -0.000000
v -0.014452 0.022824 -0.014452
vt 0.434892 0.939055
vt 0.434892 0.939055
vt 0.434892 0.939055
vt 0.434892 0.939055
vt 0.434892 0.939055
vt 0.434892 0.939055
vt 0.434892 0.939055
vt 0.434892 0.939055
vt 0.434892 0.939055
vt 0.434892 0.939055
vt 0.434892 0.939055
vt 0.434892 0.939055
vt 0.434892 0.939055
vt 0.434892 0.939055
vt 0.434892 0.939055
vt 0.434892 0.939055
vt 0.434892 0.939055
vt 0.434892 0.939055
vt 0.434892 0.939055
vt 0.434892 0.939055
vt 0.434892 0.939055
vt 0.434892 0.939055
vt 0.434892 0.939055
vt 0.434892 0.939055
vt 0.434892 0.939055
vt 0.434892 0.939055
vt 0.434892 0.939055
vt 0.434892 0.939055
vt 0.434892 0.939055
vt 0.434892 0.939055
vt 0.434892 0.939055
vt 0.434892 0.939055
vt 0.434892 0.939055
vt 0.434892 0.939055
vt 0.434892 0.939055
vt 0.434892 0.939055
vt 0.934892 0.189055
vt 0.934892 0.189055
vt 0.934892 0.189055
vt 0.934892 0.189055
vt 0.934892 0.189055
vt 0.934892 0.189055
vt 0.934892 0.189055
vt 0.934892 0.189055
vt 0.934892 0.189055
vt 0.934892 0.189055
vt 0.934892 0.189055
vt 0.934892 0.189055
vt 0.934892 0.189055
vt 0.934892 0.189055
vt 0.934892 0.189055
vt 0.934892 0.189055
vt 0.434892 0.939055
vt 0.434892 0.939055
vt 0.434892 0.939055
vt 0.434892 0.939055
vt 0.434892 0.939055
vt 0.434892 0.939055
vt 0.434892 0.939055
vt 0.434892 0.939055
vt 0.434892 0.939055
vt 0.434892 0.939055
vt 0.434892 0.939055
vt 0.434892 0.939055
vn 0.3827 0.0000 -0.9239
vn 0.9239 0.0000 -0.3827
vn 0.9239 0.0000 0.3827
vn 0.3827 0.0000 0.9239
vn -0.3827 0.0000 0.9239
vn -0.9239 0.0000 0.3827
vn -0.7692 0.5539 0.3186
vn -0.9239 0.0000 -0.3827
vn -0.3827 0.0000 -0.9239
vn 0.7498 -0.5843 -0.3106
vn -0.3106 -0.5843 0.7498
vn -0.3106 -0.5843 -0.7498
vn 0.3106 -0.5843 -0.7498
vn 0.7498 -0.5843 0.3106
vn -0.7498 -0.5843 0.3106
vn 0.3106 -0.5843 0.7498
vn -0.7498 -0.5843 -0.3106
vn 0.0000 -1.0000 0.0000
vn 0.3186 0.5539 0.7692
vn -0.7692 0.5539 -0.3186
vn 0.7692 0.5539 -0.3186
vn -0.3186 0.5539 0.7692
vn -0.3186 0.5539 -0.7692
vn 0.3186 0.5539 -0.7692
vn 0.7692 0.5539 0.3186
vn 0.0000 1.0000 0.0000
usemtl Material.001
s off
f 1/1/1 2/2/1 4/3/1 3/4/1
f 3/4/2 4/3/2 6/5/2 5/6/2
f 5/6/3 6/5/3 8/7/3 7/8/3
f 7/8/4 8/7/4 10/9/4 9/10/4
f 9/10/5 10/9/5 12/11/5 11/12/5
f 11/12/6 12/11/6 14/13/6 13/14/6
f 14/13/7 12/11/7 30/15/7 31/16/7
f 13/14/8 14/13/8 16/17/8 15/18/8
f 15/18/9 16/17/9 2/2/9 1/1/9
f 3/4/10 5/6/10 19/19/10 18/20/10
f 9/10/11 11/12/11 22/21/11 21/22/11
f 15/18/12 1/1/12 17/23/12 24/24/12
f 1/1/13 3/4/13 18/20/13 17/23/13
f 5/6/14 7/8/14 20/25/14 19/19/14
f 11/12/15 13/14/15 23/26/15 22/21/15
f 7/8/16 9/10/16 21/22/16 20/25/16
f 13/14/17 15/18/17 24/24/17 23/26/17
f 18/20/18 19/19/18 35/27/18 34/28/18
f 10/9/19 8/7/19 28/29/19 29/30/19
f 16/17/20 14/13/20 31/16/20 32/31/20
f 6/5/21 4/3/21 26/32/21 27/33/21
f 12/11/22 10/9/22 29/30/22 30/15/22
f 2/2/23 16/17/23 32/31/23 25/34/23
f 4/3/24 2/2/24 25/34/24 26/32/24
f 8/7/25 6/5/25 27/33/25 28/29/25
f 25/34/26 32/31/26 48/35/26 42/36/26
f 33/37/18 34/38/18 35/39/18 36/40/18 37/41/18 38/42/18 39/43/18 40/44/18
f 41/45/26 42/46/26 48/47/26 47/48/26 46/49/26 45/50/26 44/51/26 43/52/26
f 26/32/26 25/34/26 42/36/26 41/53/26
f 19/19/18 20/25/18 36/54/18 35/27/18
f 27/33/26 26/32/26 41/53/26 43/55/26
f 20/25/18 21/22/18 37/56/18 36/54/18
f 28/29/26 27/33/26 43/55/26 44/57/26
f 21/22/18 22/21/18 38/58/18 37/56/18
f 29/30/26 28/29/26 44/57/26 45/59/26
f 22/21/18 23/26/18 39/60/18 38/58/18
f 30/15/26 29/30/26 45/59/26 46/61/26
f 23/26/18 24/24/18 40/62/18 39/60/18
f 31/16/26 30/15/26 46/61/26 47/63/26
f 24/24/18 17/23/18 33/64/18 40/62/18
f 32/31/26 31/16/26 47/63/26 48/35/26
f 17/23/18 18/20/18 34/28/18 33/64/18
