# Blender v2.83.5 OBJ File: 'radish03.blend'
# www.blender.org
mtllib radish03.mtl
o Cylinder
v 0.000000 -0.002677 -0.029683
v 0.000000 0.002677 -0.029683
v 0.020989 -0.002677 -0.020989
v 0.020989 0.002677 -0.020989
v 0.029683 -0.002677 0.000000
v 0.029683 0.002677 0.000000
v 0.020989 -0.002677 0.020989
v 0.020989 0.002677 0.020989
v -0.000000 -0.002677 0.029683
v -0.000000 0.002677 0.029683
v -0.020989 -0.002677 0.020989
v -0.020989 0.002677 0.020989
v -0.029683 -0.002677 -0.000000
v -0.029683 0.002677 -0.000000
v -0.020989 -0.002677 -0.020989
v -0.020989 0.002677 -0.020989
v 0.000000 -0.002677 -0.028591
v 0.020217 -0.002677 -0.020217
v 0.020217 0.002677 -0.020217
v 0.000000 0.002677 -0.028591
v 0.028591 -0.002677 0.000000
v 0.028591 0.002677 0.000000
v 0.020217 -0.002677 0.020217
v 0.020217 0.002677 0.020217
v -0.000000 -0.002677 0.028591
v -0.000000 0.002677 0.028591
v -0.020217 -0.002677 0.020217
v -0.020217 0.002677 0.020217
v -0.028591 -0.002677 -0.000000
v -0.028591 0.002677 -0.000000
v -0.020217 -0.002677 -0.020217
v -0.020217 0.002677 -0.020217
vt 0.434892 0.939055
vt 0.434892 0.939055
vt 0.434892 0.939055
vt 0.434892 0.939055
vt 0.434892 0.939055
vt 0.434892 0.939055
vt 0.434892 0.939055
vt 0.434892 0.939055
vt 0.434892 0.939055
vt 0.434892 0.939055
vt 0.434892 0.939055
vt 0.434892 0.939055
vt 0.434892 0.939055
vt 0.434892 0.939055
vt 0.434892 0.939055
vt 0.434892 0.939055
vt 0.434892 0.939055
vt 0.434892 0.939055
vt 0.434892 0.939055
vt 0.434892 0.939055
vt 0.934892 0.189055
vt 0.934892 0.189055
vt 0.934892 0.189055
vt 0.934892 0.189055
vt 0.934892 0.189055
vt 0.934892 0.189055
vt 0.934892 0.189055
vt 0.934892 0.189055
vt 0.934892 0.189055
vt 0.934892 0.189055
vt 0.934892 0.189055
vt 0.934892 0.189055
vt 0.934892 0.189055
vt 0.934892 0.189055
vt 0.934892 0.189055
vt 0.934892 0.189055
vt 0.434892 0.939055
vt 0.434892 0.939055
vt 0.434892 0.939055
vt 0.434892 0.939055
vt 0.434892 0.939055
vt 0.434892 0.939055
vt 0.434892 0.939055
vt 0.434892 0.939055
vt 0.434892 0.939055
vt 0.434892 0.939055
vt 0.434892 0.939055
vt 0.434892 0.939055
vn 0.3827 0.0000 -0.9239
vn 0.9239 0.0000 -0.3827
vn 0.9239 0.0000 0.3827
vn 0.3827 0.0000 0.9239
vn -0.3827 0.0000 0.9239
vn -0.9239 0.0000 0.3827
vn -0.9239 0.0000 -0.3827
vn -0.3827 0.0000 -0.9239
vn 0.0000 -1.0000 0.0000
vn 0.0000 1.0000 0.0000
usemtl Material.001
s off
f 1/1/1 2/2/1 4/3/1 3/4/1
f 3/4/2 4/3/2 6/5/2 5/6/2
f 5/6/3 6/5/3 8/7/3 7/8/3
f 7/8/4 8/7/4 10/9/4 9/10/4
f 9/10/5 10/9/5 12/11/5 11/12/5
f 11/12/6 12/11/6 14/13/6 13/14/6
f 13/14/7 14/13/7 16/15/7 15/16/7
f 15/16/8 16/15/8 2/2/8 1/1/8
f 5/6/9 7/8/9 23/17/9 21/18/9
f 12/11/10 10/9/10 26/19/10 28/20/10
f 19/21/10 20/22/10 32/23/10 30/24/10 28/25/10 26/26/10 24/27/10 22/28/10
f 17/29/9 18/30/9 21/31/9 23/32/9 25/33/9 27/34/9 29/35/9 31/36/9
f 15/16/9 1/1/9 17/37/9 31/38/9
f 1/1/9 3/4/9 18/39/9 17/37/9
f 8/7/10 6/5/10 22/40/10 24/41/10
f 2/2/10 16/15/10 32/42/10 20/43/10
f 4/3/10 2/2/10 20/43/10 19/44/10
f 11/12/9 13/14/9 29/45/9 27/46/9
f 14/13/10 12/11/10 28/20/10 30/47/10
f 7/8/9 9/10/9 25/48/9 23/17/9
f 10/9/10 8/7/10 24/41/10 26/19/10
f 3/4/9 5/6/9 21/18/9 18/39/9
f 13/14/9 15/16/9 31/38/9 29/45/9
f 6/5/10 4/3/10 19/44/10 22/40/10
f 16/15/10 14/13/10 30/47/10 32/42/10
f 9/10/9 11/12/9 27/46/9 25/48/9
