# Blender v2.83.5 OBJ File: 'scallion02.blend'
# www.blender.org
mtllib scallion02.mtl
o Cylinder_Cylinder.002
v 0.000000 0.006391 -0.007876
v 0.005569 0.006391 -0.005569
v 0.007876 0.006391 0.000000
v 0.005569 0.006391 0.005569
v -0.000000 0.006391 0.007876
v -0.005569 0.006391 0.005569
v -0.007876 0.006391 0.000000
v -0.005569 0.006391 -0.005569
v 0.000000 0.006391 -0.002114
v 0.001495 0.006391 -0.001495
v 0.002114 0.006391 0.000000
v 0.001495 0.006391 0.001495
v -0.000000 0.006391 0.002114
v -0.001495 0.006391 0.001495
v -0.002114 0.006391 0.000000
v -0.001495 0.006391 -0.001495
v 0.005569 -0.006274 -0.005569
v 0.000000 -0.006274 -0.007876
v 0.007876 -0.006274 0.000000
v 0.005569 -0.006274 0.005569
v -0.000000 -0.006274 0.007876
v -0.005569 -0.006274 0.005569
v -0.007876 -0.006274 0.000000
v -0.005569 -0.006274 -0.005569
v 0.001495 -0.006274 -0.001495
v 0.000000 -0.006274 -0.002114
v 0.002114 -0.006274 0.000000
v 0.001495 -0.006274 0.001495
v -0.000000 -0.006274 0.002114
v -0.001495 -0.006274 0.001495
v -0.002114 -0.006274 0.000000
v -0.001495 -0.006274 -0.001495
vt 0.312500 0.562500
vt 0.312500 0.562500
vt 0.312500 0.562500
vt 0.312500 0.562500
vt 0.312500 0.562500
vt 0.312500 0.562500
vt 0.312500 0.562500
vt 0.312500 0.562500
vt 0.312500 0.562500
vt 0.312500 0.562500
vt 0.312500 0.562500
vt 0.312500 0.562500
vt 0.312500 0.562500
vt 0.312500 0.562500
vt 0.312500 0.562500
vt 0.312500 0.562500
vt 0.312500 0.562500
vt 0.312500 0.562500
vt 0.312500 0.562500
vt 0.312500 0.562500
vt 0.312500 0.562500
vt 0.312500 0.562500
vt 0.312500 0.562500
vt 0.312500 0.562500
vt 0.312500 0.562500
vt 0.312500 0.562500
vt 0.312500 0.562500
vt 0.312500 0.562500
vt 0.312500 0.562500
vt 0.312500 0.562500
vt 0.312500 0.562500
vt 0.312500 0.562500
vn 0.0000 1.0000 0.0000
vn 0.0000 -1.0000 0.0000
vn -0.9239 0.0000 -0.3827
vn 0.3827 0.0000 0.9239
vn -0.3827 0.0000 -0.9239
vn -0.3827 0.0000 0.9239
vn 0.3827 0.0000 -0.9239
vn -0.9239 0.0000 0.3827
vn 0.9239 0.0000 -0.3827
vn 0.9239 0.0000 0.3827
usemtl Material.003
s off
f 1/1/1 9/2/1 10/3/1 2/4/1
f 8/5/1 16/6/1 9/2/1 1/1/1
f 6/7/1 14/8/1 15/9/1 7/10/1
f 4/11/1 12/12/1 13/13/1 5/14/1
f 2/4/1 10/3/1 11/15/1 3/16/1
f 7/10/1 15/9/1 16/6/1 8/5/1
f 5/14/1 13/13/1 14/8/1 6/7/1
f 3/16/1 11/15/1 12/12/1 4/11/1
f 18/17/2 17/18/2 25/19/2 26/20/2
f 24/21/2 18/17/2 26/20/2 32/22/2
f 22/23/2 23/24/2 31/25/2 30/26/2
f 20/27/2 21/28/2 29/29/2 28/30/2
f 17/18/2 19/31/2 27/32/2 25/19/2
f 23/24/2 24/21/2 32/22/2 31/25/2
f 21/28/2 22/23/2 30/26/2 29/29/2
f 19/31/2 20/27/2 28/30/2 27/32/2
f 12/12/3 11/15/3 27/32/3 28/30/3
f 4/11/4 5/14/4 21/28/4 20/27/4
f 13/13/5 12/12/5 28/30/5 29/29/5
f 5/14/6 6/7/6 22/23/6 21/28/6
f 14/8/7 13/13/7 29/29/7 30/26/7
f 6/7/8 7/10/8 23/24/8 22/23/8
f 15/9/9 14/8/9 30/26/9 31/25/9
f 7/10/3 8/5/3 24/21/3 23/24/3
f 16/6/10 15/9/10 31/25/10 32/22/10
f 8/5/5 1/1/5 18/17/5 24/21/5
f 1/1/7 2/4/7 17/18/7 18/17/7
f 9/2/4 16/6/4 32/22/4 26/20/4
f 10/3/6 9/2/6 26/20/6 25/19/6
f 2/4/9 3/16/9 19/31/9 17/18/9
f 11/15/8 10/3/8 25/19/8 27/32/8
f 3/16/10 4/11/10 20/27/10 19/31/10
