# Blender v2.83.5 OBJ File: 'scallion01.blend'
# www.blender.org
mtllib scallion01.mtl
o Cylinder_Cylinder.002
v -0.000119 -0.109801 -0.009956
v -0.000119 -0.098577 -0.010856
v 0.006651 -0.109801 -0.007152
v 0.007288 -0.098577 -0.007788
v 0.009455 -0.109801 -0.000382
v 0.010356 -0.098577 -0.000382
v 0.006651 -0.109801 0.006388
v 0.007288 -0.098577 0.007025
v -0.000119 -0.109801 0.009192
v -0.000119 -0.098577 0.010093
v -0.006888 -0.109801 0.006388
v -0.007525 -0.098577 0.007025
v -0.009693 -0.109801 -0.000382
v -0.010593 -0.098577 -0.000382
v -0.006888 -0.109801 -0.007152
v -0.007525 -0.098577 -0.007788
v -0.000045 -0.086053 -0.009551
v 0.006419 -0.086053 -0.006873
v 0.009096 -0.086053 -0.000410
v 0.006419 -0.086053 0.006054
v -0.000045 -0.086053 0.008731
v -0.006508 -0.086053 0.006054
v -0.009185 -0.086053 -0.000410
v -0.006508 -0.086053 -0.006873
v -0.000045 -0.049663 -0.008286
v 0.005525 -0.049663 -0.005979
v 0.007832 -0.049663 -0.000410
v 0.005525 -0.049663 0.005160
v -0.000045 -0.049663 0.007466
v -0.005614 -0.049663 0.005160
v -0.007921 -0.049663 -0.000410
v -0.005614 -0.049663 -0.005979
v -0.000045 -0.010392 -0.008286
v 0.005525 -0.010392 -0.005979
v 0.007832 -0.010392 -0.000410
v 0.005525 -0.010392 0.005160
v -0.000045 -0.010392 0.007466
v -0.005614 -0.010392 0.005160
v -0.007921 -0.010392 -0.000410
v -0.005614 -0.010392 -0.005979
v -0.000045 0.029395 -0.006343
v 0.005525 0.029150 -0.004047
v 0.007832 0.028560 0.001495
v 0.005525 0.027969 0.007038
v -0.000045 0.027724 0.009333
v -0.005614 0.027969 0.007038
v -0.007921 0.028560 0.001495
v -0.005614 0.029150 -0.004047
v -0.000144 0.039407 -0.006680
v 0.006974 0.039053 -0.002767
v 0.007058 0.038530 0.003029
v 0.006974 0.038006 0.008824
v -0.000144 0.037653 0.012737
v -0.007263 0.038006 0.008824
v -0.007347 0.038530 0.003029
v -0.007263 0.039053 -0.002767
v -0.000144 0.038530 0.003029
v 0.004842 0.056253 -0.004395
v -0.000144 0.056524 -0.008060
v 0.004336 0.055886 0.000568
v -0.005131 0.056253 -0.004395
v -0.004625 0.055886 0.000568
v -0.000144 0.055752 0.002378
v 0.004903 0.054280 0.008320
v 0.004695 0.053878 0.013763
v -0.000144 0.053549 0.018207
v -0.004983 0.053878 0.013763
v -0.005192 0.054280 0.008320
v -0.000144 0.054519 0.005090
v 0.005388 0.217711 0.012992
v -0.000144 0.217320 0.008941
v 0.004826 0.218239 0.018479
v -0.005676 0.217711 0.012992
v -0.005115 0.218239 0.018479
v -0.000144 0.218432 0.020480
v 0.003910 0.116248 0.023665
v 0.004085 0.116585 0.019104
v -0.000144 0.115972 0.027389
v -0.004199 0.116248 0.023665
v -0.004374 0.116585 0.019104
v -0.000144 0.116785 0.016397
v 0.002996 0.202023 0.040593
v 0.003131 0.202284 0.037061
v -0.000144 0.201810 0.043476
v -0.003285 0.202023 0.040593
v -0.003420 0.202284 0.037061
v -0.000144 0.202439 0.034964
v -0.000119 -0.112829 -0.007643
v 0.005344 -0.115060 -0.005819
v 0.007142 -0.112829 -0.000382
v 0.005016 -0.112829 0.004752
v -0.000126 -0.115060 0.007387
v -0.005253 -0.112829 0.004752
v -0.007862 -0.115060 -0.000349
v -0.005597 -0.115060 -0.005819
v -0.000126 -0.115060 -0.000349
v 0.003741 -0.115060 -0.000349
v 0.005675 -0.115060 -0.000349
v 0.004543 -0.115060 0.002386
v 0.002609 -0.115060 -0.003084
v -0.000126 -0.115060 -0.004217
v -0.002862 -0.115060 -0.003084
v -0.003994 -0.115060 -0.000349
v -0.002862 -0.115060 0.002386
v -0.000126 -0.115060 0.003519
v 0.002609 -0.115060 0.002386
v 0.002448 -0.112829 0.005816
v 0.004543 -0.115060 -0.003084
v 0.003976 -0.115060 -0.004452
v 0.001925 -0.115060 0.004603
v -0.000126 -0.115060 -0.006151
v -0.002862 -0.115060 -0.006952
v -0.006730 -0.115060 0.002386
v -0.002862 -0.115060 0.006254
v 0.004456 -0.143807 0.003502
v -0.004382 -0.141937 0.006716
v -0.010551 -0.126543 0.000562
v -0.003939 -0.136688 0.000562
v -0.008956 -0.129082 -0.005285
v 0.002479 -0.129888 -0.011508
v 0.009551 -0.137764 0.001744
v 0.006241 -0.131877 -0.006908
v 0.006410 -0.140426 -0.003540
v -0.000144 0.059388 -0.001997
v -0.000144 0.077477 0.014255
vt 0.937500 0.192500
vt 0.937500 0.192500
vt 0.937500 0.192500
vt 0.937500 0.192500
vt 0.937500 0.192500
vt 0.937500 0.192500
vt 0.937500 0.192500
vt 0.937500 0.192500
vt 0.937500 0.192500
vt 0.937500 0.192500
vt 0.937500 0.192500
vt 0.937500 0.192500
vt 0.937500 0.192500
vt 0.937500 0.192500
vt 0.937500 0.192500
vt 0.937500 0.192500
vt 0.937500 0.192500
vt 0.937500 0.192500
vt 0.937500 0.192500
vt 0.937500 0.192500
vt 0.937500 0.192500
vt 0.937500 0.192500
vt 0.937500 0.192500
vt 0.937500 0.192500
vt 0.937500 0.192500
vt 0.937500 0.192500
vt 0.937500 0.192500
vt 0.937500 0.192500
vt 0.312500 0.567500
vt 0.312500 0.567500
vt 0.312500 0.567500
vt 0.312500 0.567500
vt 0.937500 0.192500
vt 0.937500 0.192500
vt 0.937500 0.192500
vt 0.937500 0.192500
vt 0.937500 0.192500
vt 0.937500 0.192500
vt 0.312500 0.567500
vt 0.312500 0.567500
vt 0.312500 0.567500
vt 0.312500 0.567500
vt 0.312500 0.567500
vt 0.312500 0.567500
vt 0.312500 0.567500
vt 0.312500 0.567500
vt 0.312500 0.567500
vt 0.312500 0.567500
vt 0.312500 0.567500
vt 0.312500 0.567500
vt 0.312500 0.567500
vt 0.312500 0.567500
vt 0.312500 0.567500
vt 0.312500 0.567500
vt 0.312500 0.567500
vt 0.312500 0.567500
vt 0.312500 0.567500
vt 0.312500 0.567500
vt 0.312500 0.567500
vt 0.312500 0.567500
vt 0.312500 0.567500
vt 0.312500 0.567500
vt 0.312500 0.567500
vt 0.312500 0.567500
vt 0.312500 0.567500
vt 0.312500 0.567500
vt 0.312500 0.567500
vt 0.312500 0.567500
vt 0.312500 0.567500
vt 0.312500 0.567500
vt 0.312500 0.567500
vt 0.312500 0.567500
vt 0.312500 0.567500
vt 0.312500 0.567500
vt 0.312500 0.567500
vt 0.312500 0.567500
vt 0.312500 0.567500
vt 0.312500 0.567500
vt 0.312500 0.567500
vt 0.312500 0.567500
vt 0.312500 0.567500
vt 0.312500 0.567500
vt 0.312500 0.567500
vt 0.312500 0.567500
vt 0.312500 0.567500
vt 0.312500 0.567500
vt 0.312500 0.567500
vt 0.312500 0.567500
vt 0.312500 0.567500
vt 0.312500 0.567500
vt 0.312500 0.567500
vt 0.312500 0.567500
vt 0.312500 0.567500
vt 0.312500 0.567500
vt 0.312500 0.567500
vt 0.312500 0.567500
vt 0.312500 0.567500
vt 0.312500 0.567500
vt 0.312500 0.567500
vt 0.937500 0.192500
vt 0.937500 0.192500
vt 0.937500 0.192500
vt 0.937500 0.192500
vt 0.937500 0.192500
vt 0.937500 0.192500
vt 0.937500 0.192500
vt 0.937500 0.192500
vt 0.937500 0.192500
vt 0.937500 0.192500
vt 0.937500 0.192500
vt 0.937500 0.192500
vt 0.937500 0.192500
vt 0.937500 0.192500
vt 0.687500 0.817500
vt 0.687500 0.817500
vt 0.687500 0.817500
vt 0.937500 0.192500
vt 0.937500 0.192500
vt 0.937500 0.192500
vt 0.937500 0.192500
vt 0.937500 0.192500
vt 0.937500 0.192500
vt 0.937500 0.192500
vt 0.687500 0.817500
vt 0.687500 0.817500
vt 0.687500 0.817500
vt 0.937500 0.192500
vt 0.687500 0.817500
vt 0.687500 0.817500
vt 0.687500 0.817500
vt 0.687500 0.817500
vt 0.687500 0.817500
vt 0.687500 0.817500
vt 0.937500 0.192500
vt 0.687500 0.817500
vt 0.687500 0.817500
vt 0.687500 0.817500
vt 0.687500 0.817500
vt 0.937500 0.192500
vt 0.687500 0.817500
vt 0.687500 0.817500
vt 0.687500 0.817500
vt 0.687500 0.817500
vt 0.687500 0.817500
vt 0.687500 0.817500
vt 0.687500 0.817500
vt 0.937500 0.192500
vt 0.687500 0.817500
vt 0.687500 0.817500
vt 0.687500 0.817500
vt 0.687500 0.817500
vt 0.687500 0.817500
vt 0.687500 0.817500
vt 0.687500 0.817500
vt 0.687500 0.817500
vn 0.3816 -0.0739 -0.9214
vn 0.9214 -0.0739 -0.3816
vn 0.9214 -0.0739 0.3816
vn 0.3816 -0.0739 0.9214
vn -0.3816 -0.0739 0.9214
vn -0.9214 -0.0739 0.3816
vn 0.3809 0.0977 0.9195
vn -0.9214 -0.0739 -0.3816
vn -0.3816 -0.0739 -0.9214
vn -0.8789 -0.3081 -0.3641
vn 0.3825 0.0321 -0.9234
vn -0.9190 0.1025 -0.3807
vn 0.9200 0.0917 -0.3811
vn -0.3807 0.1022 0.9190
vn -0.3808 0.0981 -0.9194
vn 0.3810 0.0936 -0.9198
vn 0.9198 0.0934 0.3810
vn -0.9189 0.1041 0.3806
vn -0.9239 0.0000 -0.3827
vn -0.3825 0.0321 -0.9234
vn -0.9234 0.0321 0.3825
vn 0.3825 0.0321 0.9234
vn 0.9234 0.0321 -0.3825
vn -0.9234 0.0321 -0.3825
vn -0.3825 0.0321 0.9234
vn 0.9234 0.0321 0.3825
vn 0.9237 0.0187 -0.3826
vn -0.3827 0.0000 0.9239
vn 0.9239 0.0000 0.3827
vn 0.3827 0.0000 -0.9239
vn -0.3827 0.0000 -0.9239
vn -0.9239 0.0000 0.3827
vn 0.3827 0.0000 0.9239
vn 0.9239 0.0000 -0.3827
vn -0.4397 0.0040 -0.8981
vn -0.9237 0.0187 -0.3826
vn -0.3824 -0.0452 0.9229
vn 0.9237 -0.0187 0.3826
vn 0.3824 0.0451 -0.9229
vn -0.3824 0.0451 -0.9229
vn -0.9237 -0.0187 0.3826
vn 0.3824 -0.0452 0.9229
vn 0.9912 0.1273 0.0363
vn -0.9766 -0.0853 0.1976
vn 0.4348 -0.2540 0.8640
vn 0.9784 -0.0040 -0.2068
vn -0.9777 -0.0234 -0.2085
vn -0.4341 -0.2621 0.8619
vn 0.9776 -0.0662 0.1997
vn 0.4400 0.0128 -0.8979
vn 0.5286 -0.0415 -0.8479
vn 0.3715 -0.1028 0.9227
vn -0.5286 -0.0415 -0.8479
vn 0.1512 0.1004 0.9834
vn 0.9882 0.1448 0.0507
vn -0.1512 0.1004 0.9834
vn -0.9882 0.1448 0.0507
vn 0.5380 0.1506 -0.8294
vn 0.2522 0.2346 -0.9388
vn -0.9912 0.1273 0.0363
vn 0.5673 -0.2194 0.7938
vn -0.2522 0.2346 -0.9388
vn -0.5673 -0.2194 0.7938
vn -0.5873 -0.0559 0.8074
vn -0.9947 -0.0143 0.1019
vn 0.5887 0.0848 -0.8039
vn -0.3715 -0.1028 0.9227
vn -0.5887 0.0848 -0.8039
vn 0.9947 -0.0143 0.1019
vn 0.5364 0.1788 -0.8248
vn -0.6764 -0.1072 0.7287
vn 0.9992 0.0064 0.0387
vn -0.5380 0.1506 -0.8294
vn -0.9992 0.0064 0.0387
vn 0.6764 -0.1072 0.7287
vn 0.5386 -0.1378 0.8313
vn -0.6751 -0.1359 0.7251
vn 0.9993 0.0031 0.0385
vn -0.5364 0.1788 -0.8248
vn -0.9993 0.0031 0.0385
vn 0.6751 -0.1359 0.7251
vn 0.7916 -0.5156 0.3279
vn 0.8714 -0.4212 -0.2516
vn -0.4429 -0.3601 0.8211
vn -0.2693 -0.3679 -0.8900
vn 0.2522 -0.4227 -0.8705
vn 0.7548 -0.5767 0.3126
vn -0.8209 -0.3614 0.4423
vn 0.4373 -0.4784 0.7615
vn 0.5481 -0.8358 -0.0332
vn -0.7068 0.0278 -0.7068
vn 0.0573 -0.9790 -0.1957
vn 0.0000 -1.0000 -0.0000
vn -0.9238 0.0138 0.3826
vn -0.0000 -0.9784 0.2065
vn 0.9071 0.1895 0.3757
vn 0.9592 0.0330 0.2809
vn 0.4385 -0.8386 0.3231
vn 0.4946 -0.7178 0.4901
vn -0.4660 -0.0748 0.8816
vn 0.0000 -0.0180 0.9998
vn 0.0275 -0.8912 -0.4527
vn -0.3393 -0.4624 0.8192
vn 0.9171 -0.3986 0.0000
vn 0.6679 -0.3283 0.6679
vn 0.0000 -0.9162 0.4007
vn -0.2731 -0.9620 0.0000
vn -0.3820 -0.0604 -0.9222
vn 0.9531 0.0727 0.2939
vn -0.3824 0.0375 0.9232
vn 0.9877 -0.1564 0.0000
vn 0.0000 -0.0791 -0.9969
vn -0.8970 0.2395 0.3715
vn 0.7039 -0.0944 0.7039
vn 0.0000 -0.0421 -0.9991
vn -0.3821 0.0564 -0.9224
vn -0.6939 0.1927 0.6939
vn 0.6996 0.3483 -0.6239
vn -0.9849 -0.1731 0.0000
vn -0.9373 -0.2145 0.2745
vn 0.0000 -0.0918 -0.9958
vn -0.7071 0.0081 -0.7071
vn -0.9092 -0.1775 0.3766
vn -0.7041 -0.0929 -0.7041
vn 0.9213 0.0747 -0.3816
vn -0.5386 -0.1378 0.8313
vn 0.3659 0.1302 -0.9215
vn 0.5873 -0.0559 0.8074
vn -0.9934 0.0447 -0.1060
vn -0.3659 0.1302 -0.9215
vn 0.9934 0.0447 -0.1060
vn -0.6728 0.1693 -0.7202
vn 0.9988 0.0328 -0.0358
vn 0.6728 0.1693 -0.7202
vn -0.9988 0.0328 -0.0358
usemtl Material.003
s off
f 1/1/1 2/2/1 4/3/1 3/4/1
f 3/4/2 4/3/2 6/5/2 5/6/2
f 5/6/3 6/5/3 8/7/3 7/8/3
f 7/8/4 8/7/4 10/9/4 9/10/4
f 9/10/5 10/9/5 12/11/5 11/12/5
f 11/12/6 12/11/6 14/13/6 13/14/6
f 10/9/7 8/7/7 20/15/7 21/16/7
f 13/14/8 14/13/8 16/17/8 15/18/8
f 15/18/9 16/17/9 2/2/9 1/1/9
f 13/14/10 15/18/10 95/19/10 94/20/10
f 18/21/11 17/22/11 25/23/11 26/24/11
f 16/17/12 14/13/12 23/25/12 24/26/12
f 6/5/13 4/3/13 18/21/13 19/27/13
f 12/11/14 10/9/14 21/16/14 22/28/14
f 2/2/15 16/17/15 24/26/15 17/22/15
f 4/3/16 2/2/16 17/22/16 18/21/16
f 8/7/17 6/5/17 19/27/17 20/15/17
f 14/13/18 12/11/18 22/28/18 23/25/18
f 32/29/19 31/30/19 39/31/19 40/32/19
f 17/22/20 24/26/20 32/33/20 25/23/20
f 23/25/21 22/28/21 30/34/21 31/35/21
f 21/16/22 20/15/22 28/36/22 29/37/22
f 19/27/23 18/21/23 26/24/23 27/38/23
f 24/26/24 23/25/24 31/35/24 32/33/24
f 22/28/25 21/16/25 29/37/25 30/34/25
f 20/15/26 19/27/26 27/38/26 28/36/26
f 35/39/27 34/40/27 42/41/27 43/42/27
f 30/43/28 29/44/28 37/45/28 38/46/28
f 28/47/29 27/48/29 35/39/29 36/49/29
f 26/50/30 25/51/30 33/52/30 34/40/30
f 25/51/31 32/29/31 40/32/31 33/52/31
f 31/30/32 30/43/32 38/46/32 39/31/32
f 29/44/33 28/47/33 36/49/33 37/45/33
f 27/48/34 26/50/34 34/40/34 35/39/34
f 41/53/35 48/54/35 56/55/35 49/56/35
f 40/32/36 39/31/36 47/57/36 48/54/36
f 38/46/37 37/45/37 45/58/37 46/59/37
f 36/49/38 35/39/38 43/42/38 44/60/38
f 34/40/39 33/52/39 41/53/39 42/41/39
f 33/52/40 40/32/40 48/54/40 41/53/40
f 39/31/41 38/46/41 46/59/41 47/57/41
f 37/45/42 36/49/42 44/60/42 45/58/42
f 52/61/43 51/62/43 64/63/43 65/64/43
f 47/57/44 46/59/44 54/65/44 55/66/44
f 45/58/45 44/60/45 52/61/45 53/67/45
f 43/42/46 42/41/46 50/68/46 51/62/46
f 48/54/47 47/57/47 55/66/47 56/55/47
f 46/59/48 45/58/48 53/67/48 54/65/48
f 44/60/49 43/42/49 51/62/49 52/61/49
f 42/41/50 41/53/50 49/56/50 50/68/50
f 50/68/51 49/56/51 59/69/51 58/70/51
f 63/71/52 60/72/52 72/73/52 75/74/52
f 49/56/53 56/55/53 61/75/53 59/69/53
f 57/76/54 51/62/54 60/72/54 63/71/54
f 51/62/55 50/68/55 58/70/55 60/72/55
f 55/66/56 57/76/56 63/71/56 62/77/56
f 56/55/57 55/66/57 62/77/57 61/75/57
f 64/63/58 69/78/58 81/79/58 77/80/58
f 51/62/59 57/76/59 69/78/59 64/63/59
f 55/66/60 54/65/60 67/81/60 68/82/60
f 53/67/61 52/61/61 65/64/61 66/83/61
f 57/76/62 55/66/62 68/82/62 69/78/62
f 54/65/63 53/67/63 66/83/63 67/81/63
f 70/84/64 71/85/64 124/86/64
f 61/75/65 62/77/65 74/87/65 73/88/65
f 58/70/66 59/69/66 71/85/66 70/84/66
f 62/77/67 63/71/67 75/74/67 74/87/67
f 59/69/68 61/75/68 73/88/68 71/85/68
f 60/72/69 58/70/69 70/84/69 72/73/69
f 77/80/70 81/79/70 87/89/70 83/90/70
f 67/81/71 66/83/71 78/91/71 79/92/71
f 65/64/72 64/63/72 77/80/72 76/93/72
f 69/78/73 68/82/73 80/94/73 81/79/73
f 68/82/74 67/81/74 79/92/74 80/94/74
f 66/83/75 65/64/75 76/93/75 78/91/75
f 87/89/76 86/95/76 125/96/76
f 79/92/77 78/91/77 84/97/77 85/98/77
f 76/93/78 77/80/78 83/90/78 82/99/78
f 81/79/79 80/94/79 86/95/79 87/89/79
f 80/94/80 79/92/80 85/98/80 86/95/80
f 78/91/81 76/93/81 82/99/81 84/97/81
f 98/100/82 90/101/82 91/102/82 99/103/82
f 3/4/83 5/6/83 90/101/83 89/104/83
f 9/10/84 11/12/84 93/105/84 114/106/84 92/107/84
f 15/18/85 1/1/85 88/108/85 112/109/85 95/19/85
f 1/1/86 3/4/86 89/104/86 88/108/86
f 5/6/87 7/8/87 91/102/87 90/101/87
f 11/12/88 13/14/88 94/20/88 113/110/88 93/105/88
f 7/8/89 9/10/89 92/107/89 107/111/89 91/102/89
f 89/104/90 90/101/90 98/100/90 97/112/90 108/113/90
f 114/114/91 105/115/91 116/116/91
f 112/109/92 88/108/92 111/117/92 101/118/92 96/119/92 102/120/92
f 94/20/93 95/19/93 102/120/93 96/119/93 103/121/93
f 105/122/93 96/119/93 106/123/93
f 104/124/94 103/125/94 118/126/94
f 100/127/93 96/119/93 101/118/93
f 91/102/95 106/123/95 96/119/95 97/112/95 99/103/95
f 98/128/96 99/129/96 121/130/96
f 89/131/97 108/132/97 122/133/97
f 96/119/93 100/127/93 108/113/93 97/112/93
f 105/122/98 110/134/98 107/111/98 92/107/98
f 110/134/99 106/123/99 91/102/99 107/111/99
f 110/135/100 105/115/100 115/136/100
f 108/132/101 100/137/101 123/138/101
f 88/108/102 89/104/102 109/139/102 100/127/102 111/117/102
f 100/137/103 101/140/103 120/141/103
f 112/142/104 102/143/104 119/144/104
f 103/125/105 113/145/105 117/146/105
f 113/110/106 103/121/106 104/147/106 93/105/106
f 96/119/107 105/122/107 114/106/107 93/105/107 104/147/107
f 105/115/108 106/148/108 115/136/108
f 106/148/109 110/135/109 115/136/109
f 92/149/110 114/114/110 116/116/110
f 105/115/111 92/149/111 116/116/111
f 94/150/112 103/125/112 117/146/112
f 113/145/113 94/150/113 117/146/113
f 96/151/114 104/124/114 118/126/114
f 103/125/115 96/151/115 118/126/115
f 95/152/116 112/142/116 119/144/116
f 102/143/117 95/152/117 119/144/117
f 111/153/118 100/137/118 120/141/118
f 101/140/119 111/153/119 120/141/119
f 99/129/120 97/154/120 121/130/120
f 97/154/121 98/128/121 121/130/121
f 109/155/122 89/131/122 122/133/122
f 108/132/123 109/155/123 122/133/123
f 100/137/124 109/155/124 123/138/124
f 109/155/125 108/132/125 123/138/125
f 83/90/126 87/89/126 125/96/126
f 74/87/127 75/74/127 124/86/127
f 71/85/128 73/88/128 124/86/128
f 72/73/129 70/84/129 124/86/129
f 75/74/130 72/73/130 124/86/130
f 73/88/131 74/87/131 124/86/131
f 84/97/132 82/99/132 125/96/132
f 86/95/133 85/98/133 125/96/133
f 85/98/134 84/97/134 125/96/134
f 82/99/135 83/90/135 125/96/135
