# Blender v2.83.5 OBJ File: 'strawberry01.blend'
# www.blender.org
mtllib strawberry01.mtl
o Cylinder.001
v -0.029613 0.000318 -0.002530
v -0.019418 0.000318 -0.009224
v -0.029613 -0.001471 -0.001789
v -0.019418 -0.006204 -0.006522
v -0.029613 -0.002212 0.000000
v -0.019418 -0.008905 0.000000
v -0.029613 -0.001471 0.001789
v -0.019418 -0.006204 0.006522
v -0.029613 0.000318 0.002530
v -0.019418 0.000318 0.009224
v -0.029613 0.002108 0.001789
v -0.019418 0.006841 0.006522
v -0.029613 0.002849 -0.000000
v -0.019418 0.009542 -0.000000
v -0.029613 0.002108 -0.001789
v -0.019418 0.006841 -0.006522
v -0.000647 0.000318 -0.016868
v -0.000647 -0.013034 -0.013352
v -0.000647 -0.016771 0.000000
v -0.000647 -0.013034 0.013352
v -0.000647 0.000318 0.016868
v -0.000647 0.013671 0.013352
v -0.000647 0.017408 -0.000000
v -0.000647 0.013671 -0.013352
v 0.004680 0.000270 -0.017111
v 0.004680 -0.011836 -0.012096
v 0.004680 -0.016851 0.000011
v 0.004680 -0.011836 0.012118
v 0.004680 0.000270 0.017133
v 0.004680 0.012377 0.012118
v 0.004680 0.017392 0.000011
v 0.004680 0.012377 -0.012096
v 0.011450 0.000270 -0.010887
v 0.011450 -0.007435 -0.007695
v 0.011450 -0.010627 0.000011
v 0.011450 -0.007435 0.007717
v 0.011450 0.000270 0.010909
v 0.011450 0.007976 0.007717
v 0.011450 0.011168 0.000011
v 0.011450 0.007976 -0.007695
v 0.011450 0.000270 -0.004690
v 0.011450 -0.003053 -0.003313
v 0.011450 -0.004430 0.000011
v 0.011450 -0.003053 0.003335
v 0.011450 0.000270 0.004712
v 0.011450 0.003594 0.003335
v 0.011450 0.004971 0.000011
v 0.011450 0.003594 -0.003313
v 0.011450 0.000270 -0.004171
v 0.011450 -0.002687 -0.002946
v 0.011450 -0.003911 0.000011
v 0.011450 -0.002687 0.002968
v 0.011450 0.000270 0.004193
v 0.011450 0.003227 0.002968
v 0.011450 0.004452 0.000011
v 0.011450 0.003227 -0.002946
v 0.014879 0.012085 -0.001570
v 0.014879 0.009680 -0.007376
v 0.014879 0.011179 -0.001570
v 0.014879 0.009040 -0.006735
v 0.016814 0.008406 0.006848
v 0.016814 0.010525 0.001731
v 0.016814 0.007841 0.006283
v 0.016814 0.009726 0.001731
v 0.016608 0.002395 0.010622
v 0.016608 0.006726 0.008828
v 0.016608 0.002395 0.009946
v 0.016608 0.006248 0.008350
v 0.018362 0.005135 0.014189
v 0.018362 0.007376 0.013260
v 0.018362 0.005135 0.013839
v 0.018362 0.007129 0.013013
v 0.019386 0.011005 0.006335
v 0.019386 0.011897 0.004182
v 0.019386 0.010768 0.006097
v 0.019386 0.011561 0.004182
v 0.016195 0.016413 -0.004435
v 0.016195 0.014931 -0.008012
v 0.016195 0.015854 -0.004435
v 0.016195 0.014536 -0.007618
v 0.015014 0.001592 -0.012014
v 0.015014 0.008437 -0.009179
v 0.015014 0.001592 -0.010946
v 0.015014 0.007681 -0.008424
v 0.016452 0.005506 -0.016672
v 0.016452 0.009633 -0.014962
v 0.016452 0.005506 -0.016027
v 0.016452 0.009177 -0.014506
v 0.015813 -0.001038 -0.010641
v 0.015813 -0.006080 -0.008552
v 0.015813 -0.001038 -0.009854
v 0.015813 -0.005523 -0.007996
v 0.018148 -0.002605 -0.012739
v 0.018148 -0.006542 -0.011108
v 0.018148 -0.002605 -0.012124
v 0.018148 -0.006108 -0.010674
v 0.015692 -0.007354 -0.006690
v 0.015692 -0.009777 -0.000840
v 0.015692 -0.006709 -0.006044
v 0.015692 -0.008864 -0.000840
v 0.018658 -0.011704 -0.006920
v 0.018658 -0.012838 -0.004182
v 0.018658 -0.011402 -0.006618
v 0.018658 -0.012411 -0.004182
v 0.014642 -0.009936 0.000601
v 0.014642 -0.007601 0.006237
v 0.014642 -0.009056 0.000601
v 0.014642 -0.006979 0.005615
v 0.016845 -0.013924 0.004208
v 0.016845 -0.012674 0.007225
v 0.016845 -0.013453 0.004208
v 0.016845 -0.012341 0.006892
v 0.015578 -0.006271 0.007712
v 0.015578 -0.000088 0.010273
v 0.015578 -0.005589 0.007029
v 0.015578 -0.000088 0.009308
v 0.016426 -0.007196 0.014502
v 0.016426 -0.004178 0.015752
v 0.016426 -0.006863 0.014169
v 0.016426 -0.004178 0.015281
vt 0.437668 0.945993
vt 0.437668 0.945993
vt 0.437668 0.945993
vt 0.437668 0.945993
vt 0.437668 0.945993
vt 0.437668 0.945993
vt 0.437668 0.945993
vt 0.437668 0.945993
vt 0.437668 0.945993
vt 0.437668 0.945993
vt 0.437668 0.945993
vt 0.437668 0.945993
vt 0.437668 0.945993
vt 0.437668 0.945993
vt 0.437668 0.945993
vt 0.437668 0.945993
vt 0.437668 0.945993
vt 0.437668 0.945993
vt 0.437668 0.945993
vt 0.437668 0.945993
vt 0.437668 0.945993
vt 0.437668 0.945993
vt 0.437668 0.945993
vt 0.437668 0.945993
vt 0.437668 0.945993
vt 0.437668 0.945993
vt 0.437668 0.945993
vt 0.437668 0.945993
vt 0.437668 0.945993
vt 0.437668 0.945993
vt 0.437668 0.945993
vt 0.437668 0.945993
vt 0.437668 0.945993
vt 0.437668 0.945993
vt 0.437668 0.945993
vt 0.437668 0.945993
vt 0.437668 0.945993
vt 0.437668 0.945993
vt 0.437668 0.945993
vt 0.437668 0.945993
vt 0.437668 0.945993
vt 0.437668 0.945993
vt 0.314134 0.568073
vt 0.314134 0.568073
vt 0.314134 0.568073
vt 0.314134 0.568073
vt 0.437668 0.945993
vt 0.437668 0.945993
vt 0.437668 0.945993
vt 0.437668 0.945993
vt 0.437668 0.945993
vt 0.437668 0.945993
vt 0.814134 0.568073
vt 0.814134 0.568073
vt 0.814134 0.568073
vt 0.814134 0.568073
vt 0.814134 0.568073
vt 0.814134 0.568073
vt 0.814134 0.568073
vt 0.814134 0.568073
vt 0.314134 0.568073
vt 0.314134 0.568073
vt 0.314134 0.568073
vt 0.314134 0.568073
vt 0.314134 0.568073
vt 0.314134 0.568073
vt 0.314134 0.568073
vt 0.314134 0.568073
vt 0.314134 0.568073
vt 0.314134 0.568073
vt 0.314134 0.568073
vt 0.314134 0.568073
vt 0.314134 0.568073
vt 0.314134 0.568073
vt 0.314134 0.568073
vt 0.314134 0.568073
vt 0.314134 0.568073
vt 0.314134 0.568073
vt 0.314134 0.568073
vt 0.314134 0.568073
vt 0.314134 0.568073
vt 0.314134 0.568073
vt 0.314134 0.568073
vt 0.314134 0.568073
vt 0.314134 0.568073
vt 0.314134 0.568073
vt 0.314134 0.568073
vt 0.314134 0.568073
vt 0.314134 0.568073
vt 0.314134 0.568073
vt 0.314134 0.568073
vt 0.314134 0.568073
vt 0.314134 0.568073
vt 0.314134 0.568073
vt 0.314134 0.568073
vt 0.314134 0.568073
vt 0.314134 0.568073
vt 0.314134 0.568073
vt 0.314134 0.568073
vt 0.314134 0.568073
vt 0.314134 0.568073
vt 0.314134 0.568073
vt 0.314134 0.568073
vt 0.314134 0.568073
vt 0.314134 0.568073
vt 0.314134 0.568073
vt 0.314134 0.568073
vt 0.314134 0.568073
vt 0.314134 0.568073
vt 0.314134 0.568073
vt 0.314134 0.568073
vt 0.314134 0.568073
vt 0.314134 0.568073
vt 0.314134 0.568073
vt 0.314134 0.568073
vt 0.314134 0.568073
vt 0.314134 0.568073
vt 0.314134 0.568073
vt 0.314134 0.568073
vt 0.314134 0.568073
vt 0.314134 0.568073
vt 0.314134 0.568073
vt 0.314134 0.568073
vt 0.314134 0.568073
vt 0.314134 0.568073
vt 0.314134 0.568073
vt 0.314134 0.568073
vt 0.314134 0.568073
vt 0.314134 0.568073
vt 0.314134 0.568073
vt 0.314134 0.568073
vt 0.314134 0.568073
vt 0.314134 0.568073
vt 0.314134 0.568073
vt 0.314134 0.568073
vt 0.314134 0.568073
vn -0.5186 -0.3272 -0.7899
vn -0.5186 -0.7899 -0.3272
vn -0.5186 -0.7899 0.3272
vn -0.5186 -0.3272 0.7899
vn -0.5186 0.3272 0.7899
vn -0.5186 0.7899 0.3272
vn -0.3890 0.2750 -0.8792
vn -0.5186 0.7899 -0.3272
vn -0.5186 0.3272 -0.7899
vn -1.0000 -0.0000 0.0000
vn 0.1530 0.9345 -0.3212
vn -0.3890 -0.2750 -0.8792
vn -0.3938 -0.8744 0.2833
vn -0.3938 0.8744 0.2833
vn -0.3890 -0.2750 0.8792
vn -0.3938 0.8744 -0.2833
vn -0.3938 -0.8744 -0.2833
vn -0.3890 0.2750 0.8792
vn 0.6473 0.7042 0.2917
vn 0.1253 0.3152 0.9407
vn 0.1352 -0.9370 0.3221
vn 0.1236 -0.3153 -0.9409
vn 0.1292 0.3150 -0.9402
vn 0.1517 0.9347 0.3213
vn 0.1198 -0.3154 0.9414
vn 0.1366 -0.9368 -0.3220
vn 1.0000 0.0000 0.0000
vn 0.6473 -0.2917 0.7042
vn 0.6473 -0.7042 -0.2917
vn 0.6473 0.7042 -0.2917
vn 0.6473 0.2917 0.7042
vn 0.6473 -0.7042 0.2917
vn 0.6473 -0.2917 -0.7042
vn 0.6473 0.2917 -0.7042
vn -0.9023 0.3983 -0.1650
vn -0.7724 0.2430 0.5867
vn 0.1817 0.0000 -0.9834
vn 0.2872 0.9579 0.0000
vn 0.8847 -0.1784 0.4306
vn 0.3054 0.0000 -0.9522
vn 0.7624 0.2476 -0.5978
vn -0.7787 -0.5796 -0.2401
vn 0.9087 0.0000 0.4174
vn 0.4186 0.0000 0.9082
vn 0.8934 -0.4150 0.1719
vn 0.3849 -0.6526 -0.6526
vn 0.6501 -0.5373 0.5373
vn -0.7336 0.6279 0.2601
vn 0.1687 -0.6970 0.6970
vn 0.7179 -0.6432 -0.2664
vn 0.8421 -0.5393 0.0000
vn 0.3808 -0.9246 0.0000
vn 0.7651 -0.2464 -0.5949
vn 0.3080 0.6727 -0.6727
vn -0.9272 0.1433 0.3460
vn 0.8361 0.3879 -0.3879
vn 0.9355 -0.1352 -0.3264
vn 0.7153 -0.6456 -0.2674
vn 0.6898 0.0000 -0.7240
vn -0.6510 0.7013 0.2905
vn -0.9682 0.2311 -0.0957
vn 0.9274 -0.2645 -0.2645
vn 0.9717 -0.2181 0.0904
vn 0.9386 -0.3449 0.0000
vn 0.3477 -0.9376 0.0000
vn -0.8980 0.1684 -0.4066
vn 0.1991 0.6930 0.6930
vn 0.9741 -0.0866 0.2090
vn 0.9142 0.2866 0.2866
vn -0.9706 0.0921 -0.2223
vn 0.5573 0.8303 0.0000
vn -0.8087 -0.2251 -0.5434
vn 0.3376 -0.6656 0.6656
vn 0.7967 0.2313 0.5584
vn -0.7359 -0.2591 -0.6256
vn 0.5354 -0.5972 0.5972
vn 0.7560 0.2505 0.6047
vn 0.7479 0.0000 0.6638
vn 0.7561 0.6046 0.2504
vn 0.1967 0.0000 0.9805
vn 0.1522 0.6989 -0.6989
vn -0.8107 -0.5409 -0.2241
vn 0.7007 0.5045 -0.5045
vn 0.8380 0.5041 0.2088
vn 0.7951 0.4288 0.4288
vn -0.8572 -0.4758 0.1971
vn 0.8419 0.4986 -0.2065
vn 0.3424 0.6644 0.6644
vn 0.9269 0.3467 -0.1436
vn 0.8534 0.0000 -0.5213
vn -0.9170 -0.3685 0.1527
vn -0.9919 -0.0486 0.1173
vn 0.0865 0.9963 0.0000
vn 0.1947 -0.6936 -0.6936
vn -0.7876 -0.2358 0.5693
vn 0.9797 -0.1417 -0.1417
vn 0.9929 0.0455 -0.1098
vn 0.9792 0.2031 0.0000
usemtl Material.002
s off
f 1/1/1 2/2/1 4/3/1 3/4/1
f 3/4/2 4/3/2 6/5/2 5/6/2
f 5/6/3 6/5/3 8/7/3 7/8/3
f 7/8/4 8/7/4 10/9/4 9/10/4
f 9/10/5 10/9/5 12/11/5 11/12/5
f 11/12/6 12/11/6 14/13/6 13/14/6
f 2/2/7 16/15/7 24/16/7 17/17/7
f 13/14/8 14/13/8 16/15/8 15/18/8
f 15/18/9 16/15/9 2/2/9 1/1/9
f 1/1/10 3/4/10 5/6/10 7/8/10 9/10/10 11/12/10 13/14/10 15/18/10
f 24/16/11 23/19/11 31/20/11 32/21/11
f 4/3/12 2/2/12 17/17/12 18/22/12
f 8/7/13 6/5/13 19/23/13 20/24/13
f 14/13/14 12/11/14 22/25/14 23/19/14
f 10/9/15 8/7/15 20/24/15 21/26/15
f 16/15/16 14/13/16 23/19/16 24/16/16
f 6/5/17 4/3/17 18/22/17 19/23/17
f 12/11/18 10/9/18 21/26/18 22/25/18
f 31/20/19 30/27/19 38/28/19 39/29/19
f 22/25/20 21/26/20 29/30/20 30/27/20
f 20/24/21 19/23/21 27/31/21 28/32/21
f 18/22/22 17/17/22 25/33/22 26/34/22
f 17/17/23 24/16/23 32/21/23 25/33/23
f 23/19/24 22/25/24 30/27/24 31/20/24
f 21/26/25 20/24/25 28/32/25 29/30/25
f 19/23/26 18/22/26 26/34/26 27/31/26
f 34/35/27 33/36/27 41/37/27 42/38/27
f 29/30/28 28/32/28 36/39/28 37/40/28
f 27/31/29 26/34/29 34/35/29 35/41/29
f 32/21/30 31/20/30 39/29/30 40/42/30
f 30/27/31 29/30/31 37/40/31 38/28/31
f 28/32/32 27/31/32 35/41/32 36/39/32
f 26/34/33 25/33/33 33/36/33 34/35/33
f 25/33/34 32/21/34 40/42/34 33/36/34
f 48/43/35 47/44/35 57/45/35 58/46/35
f 33/36/27 40/42/27 48/47/27 41/37/27
f 39/29/27 38/28/27 46/48/27 47/49/27
f 37/40/27 36/39/27 44/50/27 45/51/27
f 35/41/27 34/35/27 42/38/27 43/52/27
f 40/42/27 39/29/27 47/49/27 48/47/27
f 38/28/27 37/40/27 45/51/27 46/48/27
f 36/39/27 35/41/27 43/52/27 44/50/27
f 50/53/27 49/54/27 56/55/27 55/56/27 54/57/27 53/58/27 52/59/27 51/60/27
f 46/61/36 45/62/36 65/63/36 66/64/36
f 43/65/37 51/66/37 107/67/37 105/68/37
f 41/69/38 49/70/38 91/71/38 89/72/38
f 56/73/39 49/70/39 83/74/39 84/75/39
f 55/76/40 47/44/40 62/77/40 64/78/40
f 52/79/41 53/80/41 116/81/41 115/82/41
f 43/65/42 42/83/42 97/84/42 98/85/42
f 57/45/43 59/86/43 79/87/43 77/88/43
f 47/44/44 55/76/44 59/86/44 57/45/44
f 55/76/45 56/73/45 60/89/45 59/86/45
f 56/73/46 48/43/46 58/46/46 60/89/46
f 61/90/47 63/91/47 75/92/47 73/93/47
f 47/44/48 46/61/48 61/90/48 62/77/48
f 46/61/49 54/94/49 63/91/49 61/90/49
f 54/94/50 55/76/50 64/78/50 63/91/50
f 65/63/51 67/95/51 71/96/51 69/97/51
f 45/62/52 53/80/52 67/95/52 65/63/52
f 53/80/53 54/94/53 68/98/53 67/95/53
f 54/94/54 46/61/54 66/64/54 68/98/54
f 70/99/27 69/97/27 71/96/27 72/100/27
f 66/64/55 65/63/55 69/97/55 70/99/55
f 68/98/56 66/64/56 70/99/56 72/100/56
f 67/95/57 68/98/57 72/100/57 71/96/57
f 74/101/27 73/93/27 75/92/27 76/102/27
f 63/91/58 64/78/58 76/102/58 75/92/58
f 64/78/59 62/77/59 74/101/59 76/102/59
f 62/77/60 61/90/60 73/93/60 74/101/60
f 78/103/27 77/88/27 79/87/27 80/104/27
f 58/46/61 57/45/61 77/88/61 78/103/61
f 60/89/62 58/46/62 78/103/62 80/104/62
f 59/86/63 60/89/63 80/104/63 79/87/63
f 83/74/64 81/105/64 85/106/64 87/107/64
f 49/70/65 41/69/65 81/105/65 83/74/65
f 41/69/66 48/43/66 82/108/66 81/105/66
f 48/43/67 56/73/67 84/75/67 82/108/67
f 85/106/27 86/109/27 88/110/27 87/107/27
f 84/75/68 83/74/68 87/107/68 88/110/68
f 82/108/69 84/75/69 88/110/69 86/109/69
f 81/105/70 82/108/70 86/109/70 85/106/70
f 89/72/71 91/71/71 95/111/71 93/112/71
f 42/83/72 41/69/72 89/72/72 90/113/72
f 50/114/73 42/83/73 90/113/73 92/115/73
f 49/70/74 50/114/74 92/115/74 91/71/74
f 94/116/27 93/112/27 95/111/27 96/117/27
f 90/113/75 89/72/75 93/112/75 94/116/75
f 92/115/76 90/113/76 94/116/76 96/117/76
f 91/71/77 92/115/77 96/117/77 95/111/77
f 100/118/78 98/85/78 102/119/78 104/120/78
f 50/114/79 51/66/79 100/118/79 99/121/79
f 51/66/80 43/65/80 98/85/80 100/118/80
f 42/83/81 50/114/81 99/121/81 97/84/81
f 102/119/27 101/122/27 103/123/27 104/120/27
f 98/85/82 97/84/82 101/122/82 102/119/82
f 97/84/83 99/121/83 103/123/83 101/122/83
f 99/121/84 100/118/84 104/120/84 103/123/84
f 108/124/85 106/125/85 110/126/85 112/127/85
f 44/128/86 43/65/86 105/68/86 106/125/86
f 51/66/87 52/79/87 108/124/87 107/67/87
f 52/79/88 44/128/88 106/125/88 108/124/88
f 110/126/27 109/129/27 111/130/27 112/127/27
f 107/67/89 108/124/89 112/127/89 111/130/89
f 105/68/90 107/67/90 111/130/90 109/129/90
f 106/125/91 105/68/91 109/129/91 110/126/91
f 114/131/92 113/132/92 117/133/92 118/134/92
f 53/80/93 45/62/93 114/131/93 116/81/93
f 44/128/94 52/79/94 115/82/94 113/132/94
f 45/62/95 44/128/95 113/132/95 114/131/95
f 118/134/27 117/133/27 119/135/27 120/136/27
f 113/132/96 115/82/96 119/135/96 117/133/96
f 115/82/97 116/81/97 120/136/97 119/135/97
f 116/81/98 114/131/98 118/134/98 120/136/98
