# Blender v2.83.5 OBJ File: 'strawberry02.blend'
# www.blender.org
mtllib strawberry02.mtl
o Cylinder.001
v -0.031104 0.007545 -0.002530
v -0.020909 0.007545 -0.009224
v -0.031104 0.005756 -0.001789
v -0.020909 0.001023 -0.006522
v -0.031104 0.005015 0.000000
v -0.020909 -0.001678 0.000000
v -0.031104 0.005756 0.001789
v -0.020909 0.001023 0.006522
v -0.031104 0.007545 0.002530
v -0.020909 0.007545 0.009224
v -0.002139 0.007545 -0.016468
v -0.002139 -0.005807 -0.013352
v -0.002139 -0.011338 0.000000
v -0.002139 -0.005807 0.013352
v -0.002139 0.007545 0.016468
v 0.003188 0.007497 -0.017111
v 0.003188 -0.004609 -0.012096
v 0.003188 -0.009624 0.000011
v 0.003188 -0.004609 0.012118
v 0.003188 0.007497 0.017133
v 0.009959 0.007497 -0.010887
v 0.009959 -0.000208 -0.007695
v 0.009959 -0.003400 0.000011
v 0.009959 -0.000208 0.007717
v 0.009959 0.007497 0.010909
v 0.009959 0.007497 -0.004690
v 0.009959 0.004174 -0.003313
v 0.009959 0.002797 0.000011
v 0.009959 0.004174 0.003335
v 0.009959 0.007497 0.004712
v 0.009959 0.007497 -0.004171
v 0.009959 0.004540 -0.002946
v 0.009959 0.003316 0.000011
v 0.009959 0.004540 0.002968
v 0.009959 0.007497 0.004193
v 0.014321 0.006189 -0.010641
v 0.014321 0.001147 -0.008552
v 0.014321 0.006189 -0.009854
v 0.014321 0.001704 -0.007996
v 0.016657 0.004622 -0.012739
v 0.016657 0.000685 -0.011108
v 0.016657 0.004622 -0.012124
v 0.016657 0.001119 -0.010674
v 0.014201 -0.000127 -0.006690
v 0.014201 -0.002550 -0.000840
v 0.014201 0.000518 -0.006044
v 0.014201 -0.001637 -0.000840
v 0.017167 -0.004477 -0.006920
v 0.017167 -0.005611 -0.004182
v 0.017167 -0.004175 -0.006618
v 0.017167 -0.005184 -0.004182
v 0.013151 -0.002709 0.000601
v 0.013151 -0.000374 0.006238
v 0.013151 -0.001829 0.000601
v 0.013151 0.000248 0.005615
v 0.015354 -0.006697 0.004208
v 0.015354 -0.005447 0.007225
v 0.015354 -0.006226 0.004208
v 0.015354 -0.005114 0.006892
v 0.014086 0.000956 0.007712
v 0.014086 0.007139 0.010273
v 0.014086 0.001638 0.007029
v 0.014086 0.007139 0.009308
v 0.014934 0.000031 0.014502
v 0.014934 0.003049 0.015752
v 0.014934 0.000364 0.014169
v 0.014934 0.003049 0.015281
v -0.026731 0.007533 -0.001410
v -0.018123 0.007533 -0.005147
v -0.018123 0.007533 0.005152
v -0.026731 0.007533 0.001415
v -0.001217 0.007529 -0.008264
v -0.001217 0.007529 0.008271
v 0.002310 0.007508 0.007505
v 0.002310 0.007508 -0.007488
v 0.006794 0.007508 0.004780
v 0.006794 0.007508 -0.004763
v 0.009219 0.007507 -0.003781
v 0.009219 0.007507 0.003799
vt 0.437668 0.945993
vt 0.437668 0.945993
vt 0.437668 0.945993
vt 0.437668 0.945993
vt 0.437668 0.945993
vt 0.437668 0.945993
vt 0.437668 0.945993
vt 0.437668 0.945993
vt 0.437668 0.945993
vt 0.437668 0.945993
vt 0.437668 0.945993
vt 0.437668 0.945993
vt 0.437668 0.945993
vt 0.437668 0.945993
vt 0.437668 0.945993
vt 0.437668 0.945993
vt 0.437668 0.945993
vt 0.437668 0.945993
vt 0.437668 0.945993
vt 0.437668 0.945993
vt 0.437668 0.945993
vt 0.437668 0.945993
vt 0.437668 0.945993
vt 0.437668 0.945993
vt 0.437668 0.945993
vt 0.437668 0.945993
vt 0.437668 0.945993
vt 0.437668 0.945993
vt 0.437668 0.945993
vt 0.437668 0.945993
vt 0.314134 0.568073
vt 0.314134 0.568073
vt 0.314134 0.568073
vt 0.314134 0.568073
vt 0.314134 0.568073
vt 0.314134 0.568073
vt 0.314134 0.568073
vt 0.314134 0.568073
vt 0.314134 0.568073
vt 0.314134 0.568073
vt 0.314134 0.568073
vt 0.314134 0.568073
vt 0.314134 0.568073
vt 0.314134 0.568073
vt 0.314134 0.568073
vt 0.314134 0.568073
vt 0.314134 0.568073
vt 0.314134 0.568073
vt 0.314134 0.568073
vt 0.314134 0.568073
vt 0.314134 0.568073
vt 0.314134 0.568073
vt 0.314134 0.568073
vt 0.314134 0.568073
vt 0.314134 0.568073
vt 0.314134 0.568073
vt 0.314134 0.568073
vt 0.314134 0.568073
vt 0.314134 0.568073
vt 0.314134 0.568073
vt 0.314134 0.568073
vt 0.314134 0.568073
vt 0.314134 0.568073
vt 0.314134 0.568073
vt 0.314134 0.568073
vt 0.314134 0.568073
vt 0.314134 0.568073
vt 0.314134 0.568073
vt 0.314134 0.568073
vt 0.314134 0.568073
vt 0.314134 0.568073
vt 0.314134 0.568073
vt 0.814134 0.568073
vt 0.814134 0.568073
vt 0.814134 0.568073
vt 0.814134 0.568073
vt 0.814134 0.568073
vt 0.932840 0.936856
vt 0.932840 0.936856
vt 0.932840 0.936856
vt 0.932840 0.936856
vt 0.932840 0.936856
vt 0.932840 0.936856
vt 0.932840 0.936856
vt 0.932840 0.936856
vt 0.932840 0.936856
vt 0.932840 0.936856
vt 0.932840 0.936856
vt 0.932840 0.936856
vt 0.437668 0.945993
vt 0.437668 0.945993
vt 0.437668 0.945993
vt 0.437668 0.945993
vt 0.437668 0.945993
vt 0.437668 0.945993
vt 0.437668 0.945993
vt 0.437668 0.945993
vt 0.437668 0.945993
vt 0.437668 0.945993
vt 0.437668 0.945993
vt 0.437668 0.945993
vt 0.936033 0.935396
vt 0.936033 0.935396
vt 0.936033 0.935396
vt 0.936033 0.935396
vt 0.936033 0.935396
vt 0.936033 0.935396
vn -0.5186 -0.3272 -0.7899
vn -0.5186 -0.7899 -0.3272
vn -0.5186 -0.7899 0.3272
vn -0.5186 -0.3272 0.7899
vn -0.3801 -0.2598 -0.8877
vn -0.4294 -0.8344 0.3456
vn -0.3801 -0.2598 0.8877
vn -0.4294 -0.8344 -0.3456
vn 0.2842 -0.8858 0.3669
vn 0.0874 -0.3031 -0.9490
vn 0.0835 -0.3032 0.9493
vn 0.2856 -0.8854 -0.3667
vn 1.0000 0.0000 0.0000
vn 0.6473 -0.2917 0.7042
vn 0.6473 -0.7042 -0.2917
vn 0.6473 -0.7042 0.2917
vn 0.6473 -0.2917 -0.7042
vn 0.1817 0.0000 -0.9834
vn 0.2872 0.9579 0.0000
vn 0.7624 0.2476 -0.5978
vn -0.7787 -0.5796 -0.2401
vn -1.0000 -0.0000 0.0000
vn 0.5573 0.8303 0.0000
vn -0.8087 -0.2251 -0.5434
vn 0.3376 -0.6656 0.6656
vn 0.7967 0.2313 0.5584
vn -0.7359 -0.2591 -0.6256
vn 0.5354 -0.5972 0.5972
vn 0.7560 0.2505 0.6047
vn 0.7479 0.0000 0.6638
vn 0.7561 0.6046 0.2504
vn 0.1967 0.0000 0.9805
vn 0.1522 0.6989 -0.6989
vn -0.8107 -0.5409 -0.2241
vn 0.7007 0.5045 -0.5045
vn 0.8380 0.5041 0.2088
vn 0.7951 0.4288 0.4288
vn -0.8572 -0.4758 0.1971
vn 0.8419 0.4986 -0.2065
vn 0.3424 0.6644 0.6644
vn 0.9269 0.3467 -0.1436
vn 0.8534 0.0000 -0.5213
vn -0.9170 -0.3685 0.1527
vn -0.9919 -0.0486 0.1173
vn 0.0865 0.9963 0.0000
vn 0.1947 -0.6936 -0.6936
vn -0.7876 -0.2358 0.5693
vn 0.9797 -0.1417 -0.1417
vn 0.9929 0.0455 -0.1098
vn 0.9792 0.2031 0.0000
vn 0.0010 1.0000 0.0000
vn 0.0009 1.0000 -0.0012
vn 0.0007 1.0000 0.0021
vn 0.0035 1.0000 0.0009
vn 0.0015 1.0000 -0.0026
vn 0.0078 1.0000 -0.0003
vn 0.0028 1.0000 0.0000
vn 0.0007 1.0000 -0.0021
vn 0.0009 1.0000 0.0012
vn 0.0078 1.0000 0.0003
vn 0.0035 1.0000 -0.0009
vn 0.0015 1.0000 0.0026
vn 0.0123 0.9999 0.0000
usemtl Material.002
s off
f 1/1/1 2/2/1 4/3/1 3/4/1
f 3/4/2 4/3/2 6/5/2 5/6/2
f 5/6/3 6/5/3 8/7/3 7/8/3
f 7/8/4 8/7/4 10/9/4 9/10/4
f 4/3/5 2/2/5 11/11/5 12/12/5
f 8/7/6 6/5/6 13/13/6 14/14/6
f 10/9/7 8/7/7 14/14/7 15/15/7
f 6/5/8 4/3/8 12/12/8 13/13/8
f 14/14/9 13/13/9 18/16/9 19/17/9
f 12/12/10 11/11/10 16/18/10 17/19/10
f 15/15/11 14/14/11 19/17/11 20/20/11
f 13/13/12 12/12/12 17/19/12 18/16/12
f 22/21/13 21/22/13 26/23/13 27/24/13
f 20/20/14 19/17/14 24/25/14 25/26/14
f 18/16/15 17/19/15 22/21/15 23/27/15
f 19/17/16 18/16/16 23/27/16 24/25/16
f 17/19/17 16/18/17 21/22/17 22/21/17
f 25/26/13 24/25/13 29/28/13 30/29/13
f 23/27/13 22/21/13 27/24/13 28/30/13
f 24/25/13 23/27/13 28/30/13 29/28/13
f 28/31/18 33/32/18 54/33/18 52/34/18
f 26/35/19 31/36/19 38/37/19 36/38/19
f 34/39/20 35/40/20 63/41/20 62/42/20
f 28/31/21 27/43/21 44/44/21 45/45/21
f 1/1/22 3/4/22 5/6/22 7/8/22 9/10/22
f 36/38/23 38/37/23 42/46/23 40/47/23
f 27/43/24 26/35/24 36/38/24 37/48/24
f 32/49/25 27/43/25 37/48/25 39/50/25
f 31/36/26 32/49/26 39/50/26 38/37/26
f 41/51/13 40/47/13 42/46/13 43/52/13
f 37/48/27 36/38/27 40/47/27 41/51/27
f 39/50/28 37/48/28 41/51/28 43/52/28
f 38/37/29 39/50/29 43/52/29 42/46/29
f 47/53/30 45/45/30 49/54/30 51/55/30
f 32/49/31 33/32/31 47/53/31 46/56/31
f 33/32/32 28/31/32 45/45/32 47/53/32
f 27/43/33 32/49/33 46/56/33 44/44/33
f 49/54/13 48/57/13 50/58/13 51/55/13
f 45/45/34 44/44/34 48/57/34 49/54/34
f 44/44/35 46/56/35 50/58/35 48/57/35
f 46/56/36 47/53/36 51/55/36 50/58/36
f 55/59/37 53/60/37 57/61/37 59/62/37
f 29/63/38 28/31/38 52/34/38 53/60/38
f 33/32/39 34/39/39 55/59/39 54/33/39
f 34/39/40 29/63/40 53/60/40 55/59/40
f 57/61/13 56/64/13 58/65/13 59/62/13
f 54/33/41 55/59/41 59/62/41 58/65/41
f 52/34/42 54/33/42 58/65/42 56/64/42
f 53/60/43 52/34/43 56/64/43 57/61/43
f 61/66/44 60/67/44 64/68/44 65/69/44
f 35/40/45 30/70/45 61/66/45 63/41/45
f 29/63/46 34/39/46 62/42/46 60/67/46
f 30/70/47 29/63/47 60/67/47 61/66/47
f 65/69/13 64/68/13 66/71/13 67/72/13
f 60/67/48 62/42/48 66/71/48 64/68/48
f 62/42/49 63/41/49 67/72/49 66/71/49
f 63/41/50 61/66/50 65/69/50 67/72/50
f 32/73/13 31/74/13 35/75/13 34/76/13 33/77/13
f 69/78/51 68/79/51 71/80/51 70/81/51 73/82/51 74/83/51 76/84/51 79/85/51 78/86/51 77/87/51 75/88/51 72/89/51
f 21/22/52 16/18/52 75/90/52 77/91/52
f 11/11/53 2/2/53 69/92/53 72/93/53
f 25/26/54 30/29/54 79/94/54 76/95/54
f 9/10/55 10/9/55 70/96/55 71/97/55
f 15/15/56 20/20/56 74/98/56 73/99/56
f 1/1/57 9/10/57 71/97/57 68/100/57
f 10/9/58 15/15/58 73/99/58 70/96/58
f 20/20/59 25/26/59 76/95/59 74/98/59
f 16/18/60 11/11/60 72/93/60 75/90/60
f 26/23/61 21/22/61 77/91/61 78/101/61
f 2/2/62 1/1/62 68/100/62 69/92/62
f 30/102/63 35/103/63 31/104/63 26/105/63 78/106/63 79/107/63
