# Blender v2.83.5 OBJ File: 'tomato03.blend'
# www.blender.org
mtllib tomato03.mtl
o Cylinder
v -0.023612 -0.007133 0.001913
v -0.023612 0.004471 0.001913
v 0.023608 -0.007133 0.001913
v 0.023608 0.004471 0.001913
v -0.015174 -0.015908 0.001913
v 0.015170 -0.015908 0.001913
v -0.004990 -0.018896 0.001913
v 0.004986 -0.018896 0.001913
v -0.017508 0.011952 0.001913
v 0.017505 0.011952 0.001913
v -0.006939 0.014006 0.001913
v 0.006935 0.014006 0.001913
v -0.004727 0.014137 0.001913
v 0.004723 0.014150 0.001913
v -0.002518 0.014144 0.001913
v 0.002700 0.014197 0.001913
v -0.001351 -0.003200 0.001913
v -0.001920 0.012804 0.001913
v -0.001972 -0.010946 0.001913
v 0.001373 -0.003200 0.001913
v 0.001929 0.012804 0.001913
v 0.001982 -0.010946 0.001913
v 0.019623 -0.005200 0.001913
v 0.019623 0.002885 0.001913
v 0.013743 -0.011315 0.001913
v 0.006567 -0.012580 0.001913
v 0.015370 0.008098 0.001913
v 0.009668 0.007536 0.001913
v 0.005456 0.007250 0.001913
v 0.003187 -0.002969 0.001913
v 0.003323 0.004045 0.001913
v 0.004057 -0.008489 0.001913
v -0.019785 -0.005277 0.001913
v -0.019785 0.002948 0.001913
v -0.013804 -0.011497 0.001913
v -0.006509 -0.012879 0.001913
v -0.015459 0.008251 0.001913
v -0.009630 0.007751 0.001913
v -0.005392 0.007466 0.001913
v -0.003117 -0.003014 0.001913
v -0.003252 0.004165 0.001913
v -0.003988 -0.008622 0.001913
v -0.005145 0.013143 0.001913
v -0.007196 0.012932 0.001913
v -0.003338 0.008746 0.001913
v -0.009320 0.009050 0.001913
v -0.016996 0.011026 0.001913
v -0.015971 0.009176 0.001913
v -0.022655 0.004090 0.001913
v -0.004025 0.012933 0.001913
v -0.020742 0.003329 0.001913
v -0.002478 0.007621 0.001913
v -0.002368 0.013809 0.001913
v 0.004025 0.012946 0.001913
v 0.003387 0.008639 0.001913
v 0.005159 0.013114 0.001913
v 0.002507 0.013849 0.001913
v 0.016971 0.010988 0.001913
v 0.007202 0.012887 0.001913
v 0.015904 0.009061 0.001913
v 0.009344 0.008889 0.001913
v 0.022612 0.004075 0.001913
v 0.020619 0.003282 0.001913
v 0.022612 -0.006650 0.001913
v 0.014813 -0.014760 0.001913
v 0.020619 -0.005683 0.001913
v 0.014100 -0.012463 0.001913
v 0.006171 -0.014159 0.001913
v 0.005381 -0.017317 0.001913
v 0.003391 -0.009329 0.001913
v -0.014831 -0.014805 0.001913
v -0.014146 -0.012600 0.001913
v 0.004235 -0.016908 0.001913
v -0.004235 -0.016908 0.001913
v -0.002510 -0.005556 0.001913
v -0.006129 -0.014383 0.001913
v -0.020742 -0.005741 0.001913
v -0.003334 -0.009429 0.001913
v -0.005369 -0.017392 0.001913
v -0.022655 -0.006669 0.001913
v 0.002534 0.007497 0.001913
v 0.002567 -0.005505 0.001913
v 0.015357 0.001154 0.001913
v 0.015357 -0.003002 0.001913
v 0.012336 -0.006144 0.001913
v 0.005444 -0.007413 0.001913
v 0.013172 0.003833 0.001913
v 0.009387 0.004569 0.001913
v 0.005756 0.004695 0.001913
v 0.004104 0.001557 0.001913
v 0.004119 -0.004748 0.001913
v 0.004200 -0.001594 0.001913
v -0.015445 -0.003045 0.001913
v -0.015445 0.001182 0.001913
v -0.012371 -0.006242 0.001913
v -0.005409 -0.007634 0.001913
v -0.013221 0.003907 0.001913
v -0.009371 0.004656 0.001913
v -0.005720 0.004814 0.001913
v -0.004065 0.001592 0.001913
v -0.004080 -0.004823 0.001913
v -0.004161 -0.001617 0.001913
v -0.023612 -0.007133 -0.001913
v -0.023612 0.004471 -0.001913
v 0.023608 -0.007133 -0.001913
v 0.023608 0.004471 -0.001913
v -0.015174 -0.015908 -0.001913
v 0.015170 -0.015908 -0.001913
v -0.004990 -0.018896 -0.001913
v 0.004986 -0.018896 -0.001913
v -0.017508 0.011952 -0.001913
v 0.017505 0.011952 -0.001913
v -0.006939 0.014006 -0.001913
v 0.006935 0.014006 -0.001913
v -0.004727 0.014137 -0.001913
v 0.004723 0.014150 -0.001913
v -0.002518 0.014144 -0.001913
v 0.002700 0.014197 -0.001913
v -0.001351 -0.003200 -0.001913
v -0.001920 0.012804 -0.001913
v -0.001972 -0.010946 -0.001913
v 0.001373 -0.003200 -0.001913
v 0.001929 0.012804 -0.001913
v 0.001982 -0.010946 -0.001913
v 0.019623 -0.005200 -0.001913
v 0.019623 0.002885 -0.001913
v 0.013743 -0.011315 -0.001913
v 0.006567 -0.012580 -0.001913
v 0.015370 0.008098 -0.001913
v 0.009668 0.007536 -0.001913
v 0.005456 0.007250 -0.001913
v 0.003187 -0.002969 -0.001913
v 0.003323 0.004045 -0.001913
v 0.004057 -0.008489 -0.001913
v -0.019785 -0.005277 -0.001913
v -0.019785 0.002948 -0.001913
v -0.013804 -0.011497 -0.001913
v -0.006509 -0.012879 -0.001913
v -0.015459 0.008251 -0.001913
v -0.009630 0.007751 -0.001913
v -0.005392 0.007466 -0.001913
v -0.003117 -0.003014 -0.001913
v -0.003252 0.004165 -0.001913
v -0.003988 -0.008622 -0.001913
v -0.005145 0.013143 -0.001913
v -0.007196 0.012932 -0.001913
v -0.003338 0.008746 -0.001913
v -0.009320 0.009050 -0.001913
v -0.016996 0.011026 -0.001913
v -0.015971 0.009176 -0.001913
v -0.022655 0.004090 -0.001913
v -0.004025 0.012933 -0.001913
v -0.020742 0.003329 -0.001913
v -0.002478 0.007621 -0.001913
v -0.002368 0.013809 -0.001913
v 0.004025 0.012946 -0.001913
v 0.003387 0.008639 -0.001913
v 0.005159 0.013114 -0.001913
v 0.002507 0.013849 -0.001913
v 0.016971 0.010988 -0.001913
v 0.007202 0.012887 -0.001913
v 0.015904 0.009061 -0.001913
v 0.009344 0.008889 -0.001913
v 0.022612 0.004075 -0.001913
v 0.020619 0.003282 -0.001913
v 0.022612 -0.006650 -0.001913
v 0.014813 -0.014760 -0.001913
v 0.020619 -0.005683 -0.001913
v 0.014100 -0.012463 -0.001913
v 0.006171 -0.014159 -0.001913
v 0.005381 -0.017317 -0.001913
v 0.003391 -0.009329 -0.001913
v -0.014831 -0.014805 -0.001913
v -0.014146 -0.012600 -0.001913
v 0.004235 -0.016908 -0.001913
v -0.004235 -0.016908 -0.001913
v -0.002510 -0.005556 -0.001913
v -0.006129 -0.014383 -0.001913
v -0.020742 -0.005741 -0.001913
v -0.003334 -0.009429 -0.001913
v -0.005369 -0.017392 -0.001913
v -0.022655 -0.006669 -0.001913
v 0.002534 0.007497 -0.001913
v 0.002567 -0.005505 -0.001913
v 0.015357 0.001154 -0.001913
v 0.015357 -0.003002 -0.001913
v 0.012336 -0.006144 -0.001913
v 0.005444 -0.007413 -0.001913
v 0.013172 0.003833 -0.001913
v 0.009387 0.004569 -0.001913
v 0.005756 0.004695 -0.001913
v 0.004104 0.001557 -0.001913
v 0.004119 -0.004748 -0.001913
v 0.004200 -0.001594 -0.001913
v -0.015445 -0.003045 -0.001913
v -0.015445 0.001182 -0.001913
v -0.012371 -0.006242 -0.001913
v -0.005409 -0.007634 -0.001913
v -0.013221 0.003907 -0.001913
v -0.009371 0.004656 -0.001913
v -0.005720 0.004814 -0.001913
v -0.004065 0.001592 -0.001913
v -0.004080 -0.004823 -0.001913
v -0.004161 -0.001617 -0.001913
vt 0.687500 0.942500
vt 0.687500 0.942500
vt 0.687500 0.942500
vt 0.687500 0.942500
vt 0.562500 0.942500
vt 0.562500 0.942500
vt 0.562500 0.942500
vt 0.562500 0.942500
vt 0.562500 0.942500
vt 0.562500 0.942500
vt 0.562500 0.942500
vt 0.562500 0.942500
vt 0.687500 0.942500
vt 0.687500 0.942500
vt 0.687500 0.942500
vt 0.687500 0.942500
vt 0.562500 0.942500
vt 0.562500 0.942500
vt 0.562500 0.942500
vt 0.562500 0.942500
vt 0.562500 0.942500
vt 0.562500 0.942500
vt 0.562500 0.942500
vt 0.562500 0.942500
vt 0.562500 0.942500
vt 0.562500 0.942500
vt 0.562500 0.942500
vt 0.562500 0.942500
vt 0.562500 0.942500
vt 0.562500 0.942500
vt 0.562500 0.942500
vt 0.562500 0.942500
vt 0.562500 0.942500
vt 0.562500 0.942500
vt 0.562500 0.942500
vt 0.562500 0.942500
vt 0.562500 0.942500
vt 0.562500 0.942500
vt 0.562500 0.942500
vt 0.562500 0.942500
vt 0.562500 0.942500
vt 0.562500 0.942500
vt 0.562500 0.942500
vt 0.562500 0.942500
vt 0.562500 0.942500
vt 0.562500 0.942500
vt 0.562500 0.942500
vt 0.562500 0.942500
vt 0.562500 0.942500
vt 0.687500 0.942500
vt 0.687500 0.942500
vt 0.687500 0.942500
vt 0.687500 0.942500
vt 0.562500 0.942500
vt 0.562500 0.942500
vt 0.562500 0.942500
vt 0.562500 0.942500
vt 0.562500 0.942500
vt 0.562500 0.942500
vt 0.562500 0.942500
vt 0.562500 0.942500
vt 0.562500 0.942500
vt 0.562500 0.942500
vt 0.562500 0.942500
vt 0.562500 0.942500
vt 0.562500 0.942500
vt 0.562500 0.942500
vt 0.562500 0.942500
vt 0.562500 0.942500
vt 0.562500 0.942500
vt 0.562500 0.942500
vt 0.687500 0.942500
vt 0.687500 0.942500
vt 0.687500 0.942500
vt 0.687500 0.942500
vt 0.687500 0.942500
vt 0.687500 0.942500
vt 0.562500 0.942500
vt 0.562500 0.942500
vt 0.562500 0.942500
vt 0.562500 0.942500
vt 0.562500 0.942500
vt 0.562500 0.942500
vt 0.562500 0.942500
vt 0.562500 0.942500
vt 0.687500 0.942500
vt 0.687500 0.942500
vt 0.687500 0.942500
vt 0.687500 0.942500
vt 0.562500 0.942500
vt 0.562500 0.942500
vt 0.687500 0.942500
vt 0.687500 0.942500
vt 0.562500 0.942500
vt 0.562500 0.942500
vt 0.687500 0.942500
vt 0.687500 0.942500
vt 0.562500 0.942500
vt 0.562500 0.942500
vt 0.687500 0.942500
vt 0.687500 0.942500
vt 0.687500 0.942500
vt 0.687500 0.942500
vt 0.562500 0.942500
vt 0.562500 0.942500
vt 0.687500 0.942500
vt 0.687500 0.942500
vt 0.562500 0.942500
vt 0.687500 0.942500
vt 0.687500 0.942500
vt 0.687500 0.942500
vt 0.687500 0.942500
vt 0.687500 0.942500
vt 0.687500 0.942500
vt 0.687500 0.942500
vt 0.687500 0.942500
vt 0.562500 0.942500
vt 0.562500 0.942500
vt 0.687500 0.942500
vt 0.687500 0.942500
vt 0.562500 0.942500
vt 0.562500 0.942500
vt 0.687500 0.942500
vt 0.687500 0.942500
vt 0.562500 0.942500
vt 0.562500 0.942500
vt 0.687500 0.942500
vt 0.687500 0.942500
vt 0.687500 0.942500
vt 0.687500 0.942500
vt 0.687500 0.942500
vt 0.687500 0.942500
vt 0.687500 0.942500
vt 0.687500 0.942500
vt 0.687500 0.942500
vt 0.687500 0.942500
vt 0.687500 0.942500
vt 0.687500 0.942500
vt 0.687500 0.942500
vt 0.687500 0.942500
vt 0.687500 0.942500
vt 0.687500 0.942500
vt 0.687500 0.942500
vt 0.687500 0.942500
vt 0.687500 0.942500
vt 0.687500 0.942500
vt 0.562500 0.942500
vt 0.562500 0.942500
vt 0.562500 0.942500
vt 0.562500 0.942500
vt 0.562500 0.942500
vt 0.562500 0.942500
vt 0.562500 0.942500
vt 0.562500 0.942500
vt 0.562500 0.942500
vt 0.562500 0.942500
vt 0.562500 0.942500
vt 0.562500 0.942500
vt 0.562500 0.942500
vt 0.562500 0.942500
vt 0.562500 0.942500
vt 0.562500 0.942500
vt 0.687500 0.942500
vt 0.687500 0.942500
vt 0.687500 0.942500
vt 0.687500 0.942500
vt 0.562500 0.942500
vt 0.562500 0.942500
vt 0.562500 0.942500
vt 0.562500 0.942500
vt 0.562500 0.942500
vt 0.562500 0.942500
vt 0.562500 0.942500
vt 0.562500 0.942500
vt 0.687500 0.942500
vt 0.687500 0.942500
vt 0.687500 0.942500
vt 0.687500 0.942500
vt 0.562500 0.942500
vt 0.562500 0.942500
vt 0.562500 0.942500
vt 0.562500 0.942500
vt 0.562500 0.942500
vt 0.562500 0.942500
vt 0.562500 0.942500
vt 0.562500 0.942500
vt 0.562500 0.942500
vt 0.562500 0.942500
vt 0.562500 0.942500
vt 0.562500 0.942500
vt 0.562500 0.942500
vt 0.562500 0.942500
vt 0.562500 0.942500
vt 0.562500 0.942500
vt 0.562500 0.942500
vt 0.562500 0.942500
vt 0.562500 0.942500
vt 0.562500 0.942500
vt 0.562500 0.942500
vt 0.562500 0.942500
vt 0.562500 0.942500
vt 0.562500 0.942500
vt 0.562500 0.942500
vt 0.562500 0.942500
vt 0.562500 0.942500
vt 0.562500 0.942500
vt 0.562500 0.942500
vt 0.562500 0.942500
vt 0.562500 0.942500
vt 0.562500 0.942500
vt 0.562500 0.942500
vt 0.687500 0.942500
vt 0.687500 0.942500
vt 0.687500 0.942500
vt 0.687500 0.942500
vt 0.562500 0.942500
vt 0.562500 0.942500
vt 0.562500 0.942500
vt 0.562500 0.942500
vt 0.562500 0.942500
vt 0.562500 0.942500
vt 0.562500 0.942500
vt 0.562500 0.942500
vt 0.562500 0.942500
vt 0.562500 0.942500
vt 0.562500 0.942500
vt 0.562500 0.942500
vt 0.562500 0.942500
vt 0.562500 0.942500
vt 0.562500 0.942500
vt 0.562500 0.942500
vt 0.562500 0.942500
vt 0.562500 0.942500
vt 0.687500 0.942500
vt 0.687500 0.942500
vt 0.687500 0.942500
vt 0.687500 0.942500
vt 0.687500 0.942500
vt 0.687500 0.942500
vt 0.562500 0.942500
vt 0.562500 0.942500
vt 0.562500 0.942500
vt 0.562500 0.942500
vt 0.562500 0.942500
vt 0.562500 0.942500
vt 0.562500 0.942500
vt 0.562500 0.942500
vt 0.687500 0.942500
vt 0.687500 0.942500
vt 0.687500 0.942500
vt 0.687500 0.942500
vt 0.562500 0.942500
vt 0.562500 0.942500
vt 0.687500 0.942500
vt 0.687500 0.942500
vt 0.562500 0.942500
vt 0.562500 0.942500
vt 0.687500 0.942500
vt 0.687500 0.942500
vt 0.562500 0.942500
vt 0.562500 0.942500
vt 0.687500 0.942500
vt 0.687500 0.942500
vt 0.687500 0.942500
vt 0.687500 0.942500
vt 0.562500 0.942500
vt 0.562500 0.942500
vt 0.687500 0.942500
vt 0.687500 0.942500
vt 0.562500 0.942500
vt 0.687500 0.942500
vt 0.687500 0.942500
vt 0.687500 0.942500
vt 0.687500 0.942500
vt 0.687500 0.942500
vt 0.687500 0.942500
vt 0.687500 0.942500
vt 0.687500 0.942500
vt 0.562500 0.942500
vt 0.562500 0.942500
vt 0.687500 0.942500
vt 0.687500 0.942500
vt 0.562500 0.942500
vt 0.562500 0.942500
vt 0.687500 0.942500
vt 0.687500 0.942500
vt 0.562500 0.942500
vt 0.562500 0.942500
vt 0.687500 0.942500
vt 0.687500 0.942500
vt 0.687500 0.942500
vt 0.687500 0.942500
vt 0.687500 0.942500
vt 0.687500 0.942500
vt 0.687500 0.942500
vt 0.687500 0.942500
vt 0.687500 0.942500
vt 0.687500 0.942500
vt 0.687500 0.942500
vt 0.687500 0.942500
vt 0.687500 0.942500
vt 0.687500 0.942500
vt 0.687500 0.942500
vt 0.687500 0.942500
vt 0.687500 0.942500
vt 0.687500 0.942500
vt 0.687500 0.942500
vt 0.687500 0.942500
vt 0.562500 0.942500
vt 0.562500 0.942500
vt 0.562500 0.942500
vt 0.562500 0.942500
vt 0.562500 0.942500
vt 0.562500 0.942500
vt 0.562500 0.942500
vt 0.562500 0.942500
vt 0.562500 0.942500
vt 0.562500 0.942500
vt 0.562500 0.942500
vt 0.562500 0.942500
vt 0.562500 0.942500
vt 0.562500 0.942500
vt 0.562500 0.942500
vt 0.562500 0.942500
vn -0.0000 0.0000 1.0000
vn 0.0000 0.0000 -1.0000
vn -0.2815 -0.9596 0.0000
vn -0.0029 1.0000 0.0000
vn 0.7748 0.6322 0.0000
vn 0.0000 -1.0000 0.0000
vn -0.7748 0.6322 0.0000
vn -1.0000 0.0000 0.0000
vn -0.0102 0.9999 0.0000
vn 0.1908 0.9816 0.0000
vn 1.0000 0.0000 0.0000
vn -0.1908 0.9816 0.0000
vn 0.7208 -0.6931 0.0000
vn 0.0648 0.9979 0.0000
vn -0.7208 -0.6931 0.0000
vn -0.0591 0.9983 0.0000
vn 0.2815 -0.9596 0.0000
vn 0.0231 0.9997 0.0000
usemtl Material.001
s off
f 20/1/1 22/2/1 70/3/1 82/4/1
f 74/5/1 7/6/1 8/7/1 73/8/1
f 45/9/1 46/10/1 38/11/1 39/12/1
f 18/13/1 17/14/1 20/1/1 21/15/1
f 17/14/1 19/16/1 22/2/1 20/1/1
f 66/17/1 63/18/1 24/19/1 23/20/1
f 61/21/1 55/22/1 29/23/1 28/24/1
f 68/25/1 67/26/1 25/27/1 26/28/1
f 81/29/1 82/30/1 30/31/1 31/32/1
f 63/18/1 60/33/1 27/34/1 24/19/1
f 60/33/1 61/21/1 28/24/1 27/34/1
f 55/22/1 81/29/1 31/32/1 29/23/1
f 67/26/1 66/17/1 23/20/1 25/27/1
f 70/35/1 68/25/1 26/28/1 32/36/1
f 37/37/1 34/38/1 94/39/1 97/40/1
f 51/41/1 77/42/1 33/43/1 34/38/1
f 7/6/1 74/5/1 79/44/1
f 72/45/1 76/46/1 36/47/1 35/48/1
f 46/10/1 48/49/1 37/37/1 38/11/1
f 18/13/1 50/50/1 43/51/1 45/52/1 52/53/1
f 78/54/1 75/55/1 40/56/1 42/57/1
f 48/49/1 51/41/1 34/38/1 37/37/1
f 77/42/1 72/45/1 35/48/1 33/43/1
f 52/58/1 45/9/1 39/12/1 41/59/1
f 54/60/1 14/61/1 16/62/1 57/63/1
f 18/64/1 21/65/1 57/63/1 16/62/1 15/66/1 53/67/1
f 9/68/1 2/69/1 49/70/1 47/71/1
f 47/72/1 49/73/1 51/74/1 48/75/1
f 44/76/1 47/72/1 48/75/1 46/77/1
f 43/51/1 44/76/1 46/77/1 45/52/1
f 13/78/1 11/79/1 44/80/1 43/81/1
f 11/79/1 9/68/1 47/71/1 44/80/1
f 75/55/1 52/58/1 41/59/1 40/56/1
f 50/82/1 13/78/1 43/81/1
f 50/82/1 18/64/1 53/67/1
f 13/78/1 50/82/1 53/67/1 15/66/1
f 21/65/1 54/60/1 57/63/1
f 12/83/1 14/61/1 56/84/1 59/85/1
f 14/61/1 54/60/1 56/84/1
f 59/86/1 56/87/1 55/88/1 61/89/1
f 10/90/1 12/83/1 59/85/1 58/91/1
f 58/92/1 59/86/1 61/89/1 60/93/1
f 4/94/1 10/90/1 58/91/1 62/95/1
f 62/96/1 58/92/1 60/93/1 63/97/1
f 3/98/1 4/94/1 62/95/1 64/99/1
f 64/100/1 62/96/1 63/97/1 66/101/1
f 65/102/1 64/100/1 66/101/1 67/103/1
f 6/104/1 3/98/1 64/99/1 65/105/1
f 69/106/1 65/102/1 67/103/1 68/107/1
f 8/7/1 6/104/1 65/105/1 69/108/1
f 69/108/1 73/8/1 8/7/1
f 22/2/1 73/109/1 69/106/1 68/107/1 70/3/1
f 19/16/1 74/110/1 73/109/1 22/2/1
f 76/46/1 78/54/1 42/57/1 36/47/1
f 17/14/1 18/13/1 52/53/1 75/111/1
f 19/16/1 17/14/1 75/111/1 78/112/1
f 74/110/1 19/16/1 78/112/1 76/113/1 79/114/1
f 71/115/1 79/114/1 76/113/1 72/116/1
f 5/117/1 7/6/1 79/44/1 71/118/1
f 80/119/1 71/115/1 72/116/1 77/120/1
f 1/121/1 5/117/1 71/118/1 80/122/1
f 49/73/1 80/119/1 77/120/1 51/74/1
f 2/69/1 1/121/1 80/122/1 49/70/1
f 54/123/1 21/15/1 81/124/1 55/88/1 56/87/1
f 82/30/1 70/35/1 32/36/1 30/31/1
f 21/15/1 20/1/1 82/4/1 81/124/1
f 30/31/1 32/36/1 91/125/1 92/126/1
f 89/127/1 90/128/1 92/129/1 91/130/1 86/131/1 85/132/1 84/133/1 83/134/1 87/135/1 88/136/1
f 97/137/1 94/138/1 93/139/1 95/140/1 96/141/1 101/142/1 102/143/1 100/144/1 99/145/1 98/146/1
f 23/20/1 24/19/1 83/147/1 84/148/1
f 31/32/1 30/31/1 92/126/1 90/149/1
f 38/11/1 37/37/1 97/40/1 98/150/1
f 25/27/1 23/20/1 84/148/1 85/151/1
f 32/36/1 26/28/1 86/152/1 91/125/1
f 39/12/1 38/11/1 98/150/1 99/153/1
f 26/28/1 25/27/1 85/151/1 86/152/1
f 41/59/1 39/12/1 99/153/1 100/154/1
f 24/19/1 27/34/1 87/155/1 83/147/1
f 42/57/1 40/56/1 102/156/1 101/157/1
f 27/34/1 28/24/1 88/158/1 87/155/1
f 34/38/1 33/43/1 93/159/1 94/39/1
f 40/56/1 41/59/1 100/154/1 102/156/1
f 28/24/1 29/23/1 89/160/1 88/158/1
f 33/43/1 35/48/1 95/161/1 93/159/1
f 36/47/1 42/57/1 101/157/1 96/162/1
f 29/23/1 31/32/1 90/149/1 89/160/1
f 35/48/1 36/47/1 96/162/1 95/161/1
f 122/163/2 184/164/2 172/165/2 124/166/2
f 176/167/2 175/168/2 110/169/2 109/170/2
f 147/171/2 141/172/2 140/173/2 148/174/2
f 120/175/2 123/176/2 122/163/2 119/177/2
f 119/177/2 122/163/2 124/166/2 121/178/2
f 168/179/2 125/180/2 126/181/2 165/182/2
f 163/183/2 130/184/2 131/185/2 157/186/2
f 170/187/2 128/188/2 127/189/2 169/190/2
f 183/191/2 133/192/2 132/193/2 184/194/2
f 165/182/2 126/181/2 129/195/2 162/196/2
f 162/196/2 129/195/2 130/184/2 163/183/2
f 157/186/2 131/185/2 133/192/2 183/191/2
f 169/190/2 127/189/2 125/180/2 168/179/2
f 172/197/2 134/198/2 128/188/2 170/187/2
f 139/199/2 199/200/2 196/201/2 136/202/2
f 153/203/2 136/202/2 135/204/2 179/205/2
f 109/170/2 181/206/2 176/167/2
f 174/207/2 137/208/2 138/209/2 178/210/2
f 148/174/2 140/173/2 139/199/2 150/211/2
f 120/175/2 154/212/2 147/213/2 145/214/2 152/215/2
f 180/216/2 144/217/2 142/218/2 177/219/2
f 150/211/2 139/199/2 136/202/2 153/203/2
f 179/205/2 135/204/2 137/208/2 174/207/2
f 154/220/2 143/221/2 141/172/2 147/171/2
f 156/222/2 159/223/2 118/224/2 116/225/2
f 120/226/2 155/227/2 117/228/2 118/224/2 159/223/2 123/229/2
f 111/230/2 149/231/2 151/232/2 104/233/2
f 149/234/2 150/235/2 153/236/2 151/237/2
f 146/238/2 148/239/2 150/235/2 149/234/2
f 145/214/2 147/213/2 148/239/2 146/238/2
f 115/240/2 145/241/2 146/242/2 113/243/2
f 113/243/2 146/242/2 149/231/2 111/230/2
f 177/219/2 142/218/2 143/221/2 154/220/2
f 152/244/2 145/241/2 115/240/2
f 152/244/2 155/227/2 120/226/2
f 115/240/2 117/228/2 155/227/2 152/244/2
f 123/229/2 159/223/2 156/222/2
f 114/245/2 161/246/2 158/247/2 116/225/2
f 116/225/2 158/247/2 156/222/2
f 161/248/2 163/249/2 157/250/2 158/251/2
f 112/252/2 160/253/2 161/246/2 114/245/2
f 160/254/2 162/255/2 163/249/2 161/248/2
f 106/256/2 164/257/2 160/253/2 112/252/2
f 164/258/2 165/259/2 162/255/2 160/254/2
f 105/260/2 166/261/2 164/257/2 106/256/2
f 166/262/2 168/263/2 165/259/2 164/258/2
f 167/264/2 169/265/2 168/263/2 166/262/2
f 108/266/2 167/267/2 166/261/2 105/260/2
f 171/268/2 170/269/2 169/265/2 167/264/2
f 110/169/2 171/270/2 167/267/2 108/266/2
f 171/270/2 110/169/2 175/168/2
f 124/166/2 172/165/2 170/269/2 171/268/2 175/271/2
f 121/178/2 124/166/2 175/271/2 176/272/2
f 178/210/2 138/209/2 144/217/2 180/216/2
f 119/177/2 177/273/2 154/212/2 120/175/2
f 121/178/2 180/274/2 177/273/2 119/177/2
f 176/272/2 181/275/2 178/276/2 180/274/2 121/178/2
f 173/277/2 174/278/2 178/276/2 181/275/2
f 107/279/2 173/280/2 181/206/2 109/170/2
f 182/281/2 179/282/2 174/278/2 173/277/2
f 103/283/2 182/284/2 173/280/2 107/279/2
f 151/237/2 153/236/2 179/282/2 182/281/2
f 104/233/2 151/232/2 182/284/2 103/283/2
f 156/285/2 158/251/2 157/250/2 183/286/2 123/176/2
f 184/194/2 132/193/2 134/198/2 172/197/2
f 123/176/2 183/286/2 184/164/2 122/163/2
f 132/193/2 194/287/2 193/288/2 134/198/2
f 191/289/2 190/290/2 189/291/2 185/292/2 186/293/2 187/294/2 188/295/2 193/296/2 194/297/2 192/298/2
f 199/299/2 200/300/2 201/301/2 202/302/2 204/303/2 203/304/2 198/305/2 197/306/2 195/307/2 196/308/2
f 125/180/2 186/309/2 185/310/2 126/181/2
f 133/192/2 192/311/2 194/287/2 132/193/2
f 140/173/2 200/312/2 199/200/2 139/199/2
f 127/189/2 187/313/2 186/309/2 125/180/2
f 134/198/2 193/288/2 188/314/2 128/188/2
f 141/172/2 201/315/2 200/312/2 140/173/2
f 128/188/2 188/314/2 187/313/2 127/189/2
f 143/221/2 202/316/2 201/315/2 141/172/2
f 126/181/2 185/310/2 189/317/2 129/195/2
f 144/217/2 203/318/2 204/319/2 142/218/2
f 129/195/2 189/317/2 190/320/2 130/184/2
f 136/202/2 196/201/2 195/321/2 135/204/2
f 142/218/2 204/319/2 202/316/2 143/221/2
f 130/184/2 190/320/2 191/322/2 131/185/2
f 135/204/2 195/321/2 197/323/2 137/208/2
f 138/209/2 198/324/2 203/318/2 144/217/2
f 131/185/2 191/322/2 192/311/2 133/192/2
f 137/208/2 197/323/2 198/324/2 138/209/2
f 5/117/3 107/279/3 109/170/3 7/6/3
f 15/66/4 117/228/4 115/240/4 13/78/4
f 4/94/5 106/256/5 112/252/5 10/90/5
f 7/6/6 109/170/6 110/169/6 8/7/6
f 9/68/7 111/230/7 104/233/7 2/69/7
f 2/69/8 104/233/8 103/283/8 1/121/8
f 16/62/9 118/224/9 117/228/9 15/66/9
f 10/90/10 112/252/10 114/245/10 12/83/10
f 3/98/11 105/260/11 106/256/11 4/94/11
f 11/79/12 113/243/12 111/230/12 9/68/12
f 6/104/13 108/266/13 105/260/13 3/98/13
f 12/83/14 114/245/14 116/225/14 14/61/14
f 1/121/15 103/283/15 107/279/15 5/117/15
f 13/78/16 115/240/16 113/243/16 11/79/16
f 8/7/17 110/169/17 108/266/17 6/104/17
f 14/61/18 116/225/18 118/224/18 16/62/18
