# Blender v2.83.5 OBJ File: 'tomato01.blend'
# www.blender.org
mtllib tomato01.mtl
o Cylinder
v 0.000000 -0.004189 -0.023610
v 0.000000 0.007415 -0.023610
v 0.016695 -0.004189 -0.016695
v 0.016695 0.007415 -0.016695
v 0.023610 -0.004189 0.000000
v 0.023610 0.007415 0.000000
v 0.016695 -0.004189 0.016695
v 0.016695 0.007415 0.016695
v -0.000000 -0.004189 0.023610
v -0.000000 0.007415 0.023610
v -0.016695 -0.004189 0.016695
v -0.016695 0.007415 0.016695
v -0.023610 -0.004189 -0.000000
v -0.023610 0.007415 -0.000000
v -0.016695 -0.004189 -0.016695
v -0.016695 0.007415 -0.016695
v -0.000000 -0.012964 -0.015172
v 0.010728 -0.012964 -0.010728
v 0.015172 -0.012964 0.000000
v 0.010728 -0.012964 0.010728
v -0.000000 -0.012964 0.015172
v -0.010728 -0.012964 0.010728
v -0.015172 -0.012964 -0.000000
v -0.010728 -0.012964 -0.010728
v -0.000000 -0.015952 -0.004988
v 0.003527 -0.015952 -0.003527
v 0.004988 -0.015952 -0.000000
v 0.003527 -0.015952 0.003527
v -0.000000 -0.015952 0.004988
v -0.003527 -0.015952 0.003527
v -0.004988 -0.015952 -0.000000
v -0.003527 -0.015952 -0.003527
v -0.000000 0.014895 -0.017506
v 0.012379 0.014895 -0.012379
v 0.017506 0.014895 0.000000
v 0.012379 0.014895 0.012379
v -0.000000 0.014895 0.017506
v -0.012379 0.014895 0.012379
v -0.017506 0.014895 -0.000000
v -0.012379 0.014895 -0.012379
v -0.000000 0.016950 -0.006937
v 0.004905 0.016950 -0.004905
v 0.006937 0.016950 -0.000000
v 0.004905 0.016950 0.004905
v -0.000000 0.016950 0.006937
v -0.004905 0.016950 0.004905
v -0.006937 0.016950 -0.000000
v -0.004905 0.016950 -0.004905
v -0.000000 0.015848 -0.004725
v 0.003341 0.015848 -0.003341
v 0.004725 0.015848 -0.000000
v 0.003341 0.015848 0.003341
v -0.000000 0.015848 0.004725
v -0.003341 0.015848 0.003341
v -0.004725 0.015848 -0.000000
v -0.003341 0.015848 -0.003341
v 0.000324 0.017162 -0.002516
v 0.003368 0.017162 -0.000000
v 0.002382 0.017162 0.002382
v -0.001112 0.017440 0.002702
v -0.002008 0.017162 -0.001550
v 0.000724 0.018598 -0.001660
v 0.002103 0.018598 0.000162
v 0.001478 0.018598 0.001671
v -0.000864 0.018320 0.002156
v -0.001852 0.018598 -0.000593
v -0.000030 0.018353 -0.001054
v 0.000918 0.018353 -0.000661
v 0.001310 0.018353 0.000287
v 0.000918 0.018353 0.001235
v -0.000030 0.018353 0.001627
v -0.000978 0.018353 0.001235
v -0.001371 0.018353 0.000287
v -0.000978 0.018353 -0.000661
v -0.000030 0.023505 -0.000973
v 0.000918 0.023598 -0.000604
v 0.001310 0.023822 0.000287
v 0.000918 0.024047 0.001177
v -0.000030 0.024140 0.001546
v -0.000978 0.024047 0.001177
v -0.001371 0.023822 0.000287
v -0.000978 0.023598 -0.000604
v -0.000030 0.028668 -0.003704
v 0.000918 0.028761 -0.003335
v 0.001310 0.028985 -0.002444
v 0.000918 0.029210 -0.001554
v -0.000030 0.029302 -0.001185
v -0.000978 0.029210 -0.001554
v -0.001371 0.028985 -0.002444
v -0.000978 0.028761 -0.003335
v 0.009294 0.020222 -0.003206
v 0.008386 0.020222 -0.005397
v -0.002533 0.018877 0.006154
v -0.000661 0.019136 0.007508
v -0.008679 0.020314 -0.000394
v -0.008499 0.020083 0.001691
v -0.003286 0.020121 -0.010796
v -0.005477 0.020121 -0.009889
v 0.007657 0.020090 -0.003206
v 0.007229 0.020090 -0.004239
v -0.001289 0.019181 0.005284
v -0.000407 0.019303 0.005923
v -0.007290 0.020196 0.000034
v -0.007205 0.020087 0.001018
v -0.003286 0.019988 -0.009159
v -0.004319 0.019988 -0.008731
v 0.013292 0.021138 -0.007772
v 0.011296 0.021537 -0.010251
v -0.005126 0.020605 0.013241
v -0.002340 0.021250 0.015384
v -0.013440 0.022160 -0.002688
v -0.013689 0.021333 0.000674
v -0.002277 0.020079 -0.014401
v -0.005938 0.020205 -0.013560
v 0.011158 0.021010 -0.007170
v 0.010216 0.021199 -0.008339
v -0.003015 0.020907 0.011851
v -0.001701 0.021211 0.012862
v -0.011290 0.021870 -0.001654
v -0.011407 0.021480 -0.000068
v -0.002702 0.020232 -0.011837
v -0.004429 0.020291 -0.011440
v 0.007093 0.020091 0.004268
v 0.007603 0.020211 0.002303
v 0.006518 0.020846 0.003871
v 0.006827 0.020949 0.002394
v 0.012384 0.021830 0.008004
v 0.013502 0.021366 0.006369
v 0.011383 0.021996 0.006966
v 0.012091 0.021702 0.005931
vt 0.562500 0.942500
vt 0.562500 0.942500
vt 0.562500 0.942500
vt 0.562500 0.942500
vt 0.562500 0.942500
vt 0.562500 0.942500
vt 0.562500 0.942500
vt 0.562500 0.942500
vt 0.562500 0.942500
vt 0.562500 0.942500
vt 0.562500 0.942500
vt 0.562500 0.942500
vt 0.562500 0.942500
vt 0.562500 0.942500
vt 0.562500 0.942500
vt 0.562500 0.942500
vt 0.562500 0.942500
vt 0.562500 0.942500
vt 0.562500 0.942500
vt 0.562500 0.942500
vt 0.562500 0.942500
vt 0.562500 0.942500
vt 0.562500 0.942500
vt 0.562500 0.942500
vt 0.562500 0.942500
vt 0.562500 0.942500
vt 0.562500 0.942500
vt 0.562500 0.942500
vt 0.562500 0.942500
vt 0.562500 0.942500
vt 0.562500 0.942500
vt 0.562500 0.942500
vt 0.562500 0.942500
vt 0.562500 0.942500
vt 0.562500 0.942500
vt 0.562500 0.942500
vt 0.562500 0.942500
vt 0.562500 0.942500
vt 0.562500 0.942500
vt 0.562500 0.942500
vt 0.562500 0.942500
vt 0.562500 0.942500
vt 0.562500 0.942500
vt 0.562500 0.942500
vt 0.562500 0.942500
vt 0.562500 0.942500
vt 0.562500 0.942500
vt 0.562500 0.942500
vt 0.562500 0.942500
vt 0.562500 0.942500
vt 0.562500 0.942500
vt 0.562500 0.942500
vt 0.562500 0.942500
vt 0.562500 0.942500
vt 0.562500 0.942500
vt 0.562500 0.942500
vt 0.562500 0.942500
vt 0.562500 0.942500
vt 0.562500 0.942500
vt 0.562500 0.942500
vt 0.562500 0.942500
vt 0.312500 0.567500
vt 0.312500 0.567500
vt 0.312500 0.567500
vt 0.312500 0.567500
vt 0.312500 0.567500
vt 0.312500 0.567500
vt 0.312500 0.567500
vt 0.312500 0.567500
vt 0.312500 0.567500
vt 0.312500 0.567500
vt 0.312500 0.567500
vt 0.312500 0.567500
vt 0.312500 0.567500
vt 0.312500 0.567500
vt 0.312500 0.567500
vt 0.311368 0.564252
vt 0.311368 0.564252
vt 0.311368 0.564252
vt 0.311368 0.564252
vt 0.312500 0.567500
vt 0.312500 0.567500
vt 0.312500 0.567500
vt 0.312500 0.567500
vt 0.312500 0.567500
vt 0.312500 0.567500
vt 0.312500 0.567500
vt 0.312500 0.567500
vt 0.312500 0.567500
vt 0.312500 0.567500
vt 0.312500 0.567500
vt 0.312500 0.567500
vt 0.312500 0.567500
vt 0.312500 0.567500
vt 0.312500 0.567500
vt 0.312500 0.567500
vt 0.312500 0.567500
vt 0.312500 0.567500
vt 0.312500 0.567500
vt 0.312500 0.567500
vt 0.312500 0.567500
vt 0.312500 0.567500
vt 0.312500 0.567500
vt 0.312500 0.567500
vt 0.312500 0.567500
vt 0.312500 0.567500
vt 0.312500 0.567500
vt 0.312500 0.567500
vt 0.312500 0.567500
vt 0.312500 0.567500
vt 0.312500 0.567500
vt 0.312500 0.567500
vt 0.312500 0.567500
vt 0.312500 0.567500
vt 0.312500 0.567500
vt 0.312500 0.567500
vt 0.312500 0.567500
vt 0.312500 0.567500
vt 0.312500 0.567500
vt 0.312500 0.567500
vt 0.312500 0.567500
vt 0.312500 0.567500
vt 0.312500 0.567500
vt 0.312500 0.567500
vt 0.312500 0.567500
vt 0.312500 0.567500
vt 0.312500 0.567500
vt 0.312500 0.567500
vt 0.312500 0.567500
vt 0.312500 0.567500
vt 0.312500 0.567500
vt 0.312500 0.567500
vt 0.312500 0.567500
vt 0.312500 0.567500
vt 0.312500 0.567500
vt 0.312500 0.567500
vt 0.312500 0.567500
vt 0.312500 0.567500
vt 0.312500 0.567500
vt 0.311368 0.564252
vt 0.311368 0.564252
vn 0.3827 0.0000 -0.9239
vn 0.9239 0.0000 -0.3827
vn 0.9239 0.0000 0.3827
vn 0.3827 0.0000 0.9239
vn -0.3827 0.0000 0.9239
vn -0.9239 0.0000 0.3827
vn 0.7378 0.6019 -0.3056
vn -0.9239 0.0000 -0.3827
vn -0.3827 0.0000 -0.9239
vn -0.6907 -0.6642 0.2861
vn 0.1158 -0.9531 0.2796
vn 0.2861 -0.6642 0.6907
vn -0.6907 -0.6642 -0.2861
vn 0.6907 -0.6642 -0.2861
vn -0.2861 -0.6642 0.6907
vn -0.2861 -0.6642 -0.6907
vn 0.2861 -0.6642 -0.6907
vn 0.6907 -0.6642 0.2861
vn 0.0000 -1.0000 0.0000
vn 0.2796 -0.9531 -0.1158
vn -0.2796 -0.9531 -0.1158
vn -0.1158 -0.9531 0.2796
vn 0.2796 -0.9531 0.1158
vn 0.1158 -0.9531 -0.2796
vn -0.1158 -0.9531 -0.2796
vn -0.2796 -0.9531 0.1158
vn -0.0788 0.9786 0.1902
vn -0.3056 0.6019 0.7378
vn -0.3056 0.6019 -0.7378
vn 0.3056 0.6019 -0.7378
vn 0.7378 0.6019 0.3056
vn -0.7378 0.6019 0.3056
vn 0.3056 0.6019 0.7378
vn -0.7378 0.6019 -0.3056
vn 0.4387 0.8801 0.1817
vn 0.1902 0.9786 0.0788
vn 0.0788 0.9786 -0.1902
vn -0.0788 0.9786 -0.1902
vn -0.1902 0.9786 0.0788
vn 0.0788 0.9786 0.1902
vn 0.1902 0.9786 -0.0788
vn -0.1902 0.9786 -0.0788
vn -0.4675 0.8773 0.1082
vn 0.1817 0.8801 -0.4387
vn -0.4387 0.8801 -0.1817
vn -0.1817 0.8801 0.4387
vn 0.1817 0.8801 0.4387
vn 0.4387 0.8801 -0.1817
vn -0.1817 0.8801 -0.4387
vn -0.4387 0.8801 0.1817
vn 0.1850 0.7650 0.6168
vn 0.4389 0.8350 -0.3318
vn -0.5222 0.8249 -0.2163
vn -0.2835 0.6717 0.6845
vn 0.6684 0.6904 0.2768
vn 0.2163 0.8249 -0.5222
vn -0.1985 0.8550 -0.4792
vn 0.2773 0.9539 0.1149
vn -0.1191 -0.9503 -0.2876
vn 0.7541 0.6191 0.2194
vn 0.2737 0.9616 0.0212
vn 0.1378 0.6362 -0.7591
vn 0.5004 -0.8529 0.1486
vn 0.9195 0.0021 -0.3930
vn -0.0157 0.9992 0.0378
vn -0.3118 0.9413 -0.1292
vn -0.1065 0.9605 0.2570
vn 0.2571 0.7406 0.6208
vn 0.4885 0.8647 -0.1173
vn -0.1484 0.9562 -0.2524
vn -0.3408 0.9145 0.2181
vn -0.3632 -0.4356 -0.8236
vn -0.9195 0.0021 -0.3930
vn -0.3732 0.0112 0.9277
vn 0.9197 0.0020 0.3926
vn 0.3722 0.0124 -0.9281
vn -0.3722 0.0124 -0.9281
vn -0.9197 0.0020 0.3926
vn 0.3732 0.0112 0.9277
vn 0.0000 0.9697 -0.2444
vn -0.9153 0.1884 0.3561
vn 0.3632 0.4356 0.8236
vn 0.9153 -0.1884 -0.3561
vn -0.9153 -0.1884 -0.3561
vn -0.3632 0.4356 0.8236
vn 0.9153 0.1884 0.3561
vn 0.3632 -0.4356 -0.8236
vn 0.2358 -0.9714 0.0286
vn -0.0395 0.9834 0.1770
vn 0.1096 -0.9823 -0.1522
vn 0.0530 0.9930 0.1055
vn -0.7704 0.5029 -0.3918
vn 0.0620 0.9868 0.1497
vn 0.2957 -0.9225 -0.2483
vn 0.2714 0.5018 0.8213
vn 0.8767 0.3540 -0.3258
vn -0.1840 0.9760 0.1165
vn -0.4347 0.6724 -0.5991
vn -0.0685 -0.9388 0.3376
vn -0.8838 0.2620 0.3875
vn -0.1086 0.9650 -0.2387
vn 0.1251 0.7215 0.6810
vn -0.3795 -0.9224 0.0714
vn 0.0217 0.9982 -0.0560
vn 0.0156 0.9707 0.2400
vn -0.1803 0.9817 -0.0610
vn -0.0114 0.9857 0.1680
vn 0.0010 -0.9685 0.2490
vn -0.7012 -0.4205 -0.5757
vn -0.2341 -0.9538 -0.1883
vn -0.0642 0.9957 0.0663
vn -0.0239 -0.9997 -0.0077
vn 0.1443 0.8771 0.4581
vn -0.1143 0.9813 0.1550
vn 0.3657 -0.1321 -0.9213
vn 0.0066 0.9660 -0.2584
vn 0.9760 -0.0549 0.2107
vn 0.2883 0.9393 0.1862
vn -0.3831 0.8594 -0.3386
vn 0.3942 0.5691 -0.7216
vn 0.2523 0.3419 -0.9053
vn -0.3904 0.9162 -0.0906
vn -0.4470 0.1451 0.8827
vn 0.2588 0.9611 -0.0962
vn -0.1077 0.9871 -0.1189
vn -0.5864 0.2140 0.7813
vn 0.1427 -0.9771 0.1579
usemtl Material.001
s off
f 1/1/1 2/2/1 4/3/1 3/4/1
f 3/4/2 4/3/2 6/5/2 5/6/2
f 5/6/3 6/5/3 8/7/3 7/8/3
f 7/8/4 8/7/4 10/9/4 9/10/4
f 9/10/5 10/9/5 12/11/5 11/12/5
f 11/12/6 12/11/6 14/13/6 13/14/6
f 6/5/7 4/3/7 34/15/7 35/16/7
f 13/14/8 14/13/8 16/17/8 15/18/8
f 15/18/9 16/17/9 2/2/9 1/1/9
f 11/12/10 13/14/10 23/19/10 22/20/10
f 20/21/11 21/22/11 29/23/11 28/24/11
f 7/8/12 9/10/12 21/22/12 20/21/12
f 13/14/13 15/18/13 24/25/13 23/19/13
f 3/4/14 5/6/14 19/26/14 18/27/14
f 9/10/15 11/12/15 22/20/15 21/22/15
f 15/18/16 1/1/16 17/28/16 24/25/16
f 1/1/17 3/4/17 18/27/17 17/28/17
f 5/6/18 7/8/18 20/21/18 19/26/18
f 25/29/19 26/30/19 27/31/19 28/24/19 29/23/19 30/32/19 31/33/19 32/34/19
f 18/27/20 19/26/20 27/31/20 26/30/20
f 23/19/21 24/25/21 32/34/21 31/33/21
f 21/22/22 22/20/22 30/32/22 29/23/22
f 19/26/23 20/21/23 28/24/23 27/31/23
f 17/28/24 18/27/24 26/30/24 25/29/24
f 24/25/25 17/28/25 25/29/25 32/34/25
f 22/20/26 23/19/26 31/33/26 30/32/26
f 38/35/27 37/36/27 45/37/27 46/38/27
f 12/11/28 10/9/28 37/36/28 38/35/28
f 2/2/29 16/17/29 40/39/29 33/40/29
f 4/3/30 2/2/30 33/40/30 34/15/30
f 8/7/31 6/5/31 35/16/31 36/41/31
f 14/13/32 12/11/32 38/35/32 39/42/32
f 10/9/33 8/7/33 36/41/33 37/36/33
f 16/17/34 14/13/34 39/42/34 40/39/34
f 48/43/35 47/44/35 55/45/35 56/46/35
f 36/41/36 35/16/36 43/47/36 44/48/36
f 34/15/37 33/40/37 41/49/37 42/50/37
f 33/40/38 40/39/38 48/43/38 41/49/38
f 39/42/39 38/35/39 46/38/39 47/44/39
f 37/36/40 36/41/40 44/48/40 45/37/40
f 35/16/41 34/15/41 42/50/41 43/47/41
f 40/39/42 39/42/42 47/44/42 48/43/42
f 55/45/43 54/51/43 60/52/43 61/53/43
f 46/38/44 45/37/44 53/54/44 54/51/44
f 44/48/45 43/47/45 51/55/45 52/56/45
f 42/50/46 41/49/46 49/57/46 50/58/46
f 41/49/47 48/43/47 56/46/47 49/57/47
f 47/44/48 46/38/48 54/51/48 55/45/48
f 45/37/49 44/48/49 52/56/49 53/54/49
f 43/47/50 42/50/50 50/58/50 51/55/50
f 53/54/51 52/56/51 59/59/51 60/52/51
f 51/55/52 50/58/52 57/60/52 58/61/52
f 56/46/53 55/45/53 61/53/53
f 54/51/54 53/54/54 60/52/54
f 52/56/55 51/55/55 58/61/55 59/59/55
f 50/58/56 49/57/56 57/60/56
f 49/57/57 56/46/57 61/53/57 57/60/57
f 66/62/58 73/63/58 74/64/58
f 57/65/59 61/66/59 98/67/59 97/68/59
f 59/69/60 64/70/60 102/71/60 94/72/60
f 65/73/61 66/62/61 103/74/61 104/75/61
f 66/62/62 61/66/62 95/76/62 103/74/62
f 59/77/63 58/78/63 124/79/63 123/80/63
f 69/81/64 68/82/64 76/83/64 77/84/64
f 65/73/65 71/85/65 72/86/65
f 64/70/66 63/87/66 69/81/66 70/88/66
f 62/89/67 67/90/67 68/82/67
f 62/89/68 66/62/68 74/64/68 67/90/68
f 66/62/69 65/73/69 72/86/69 73/63/69
f 65/73/70 64/70/70 70/88/70 71/85/70
f 63/87/71 62/89/71 68/82/71 69/81/71
f 75/91/72 82/92/72 90/93/72 83/94/72
f 74/64/73 73/63/73 81/95/73 82/92/73
f 72/86/74 71/85/74 79/96/74 80/97/74
f 70/88/75 69/81/75 77/84/75 78/98/75
f 68/82/76 67/90/76 75/91/76 76/83/76
f 67/90/77 74/64/77 82/92/77 75/91/77
f 73/63/78 72/86/78 80/97/78 81/95/78
f 71/85/79 70/88/79 78/98/79 79/96/79
f 84/99/80 83/94/80 90/93/80 89/100/80 88/101/80 87/102/80 86/103/80 85/104/80
f 81/95/81 80/97/81 88/101/81 89/100/81
f 79/96/82 78/98/82 86/103/82 87/102/82
f 77/84/83 76/83/83 84/99/83 85/104/83
f 82/92/84 81/95/84 89/100/84 90/93/84
f 80/97/85 79/96/85 87/102/85 88/101/85
f 78/98/86 77/84/86 85/104/86 86/103/86
f 76/83/87 75/91/87 83/94/87 84/99/87
f 105/105/88 97/68/88 113/106/88 121/107/88
f 99/108/89 91/109/89 107/110/89 115/111/89
f 91/109/90 92/112/90 108/113/90 107/110/90
f 106/114/91 105/105/91 121/107/91 122/115/91
f 65/73/92 60/116/92 93/117/92 101/118/92
f 66/62/93 62/89/93 105/105/93 106/114/93
f 58/119/94 57/65/94 92/112/94 91/109/94
f 63/87/95 58/119/95 91/109/95 99/108/95
f 62/89/96 57/65/96 97/68/96 105/105/96
f 62/89/97 63/87/97 99/108/97 100/120/97
f 57/65/98 62/89/98 100/120/98 92/112/98
f 60/116/99 59/69/99 94/72/99 93/117/99
f 61/66/100 66/62/100 106/114/100 98/67/100
f 64/70/101 65/73/101 101/118/101 102/71/101
f 60/116/102 65/73/102 104/75/102 96/121/102
f 61/66/103 60/116/103 96/121/103 95/76/103
f 113/106/104 114/122/104 122/115/104 121/107/104
f 111/123/105 112/124/105 120/125/105 119/126/105
f 109/127/106 110/128/106 118/129/106 117/130/106
f 107/110/107 108/113/107 116/131/107 115/111/107
f 93/117/108 94/72/108 110/128/108 109/127/108
f 92/112/109 100/120/109 116/131/109 108/113/109
f 95/76/110 96/121/110 112/124/110 111/123/110
f 98/67/111 106/114/111 122/115/111 114/122/111
f 97/68/112 98/67/112 114/122/112 113/106/112
f 96/121/113 104/75/113 120/125/113 112/124/113
f 100/120/114 99/108/114 115/111/114 116/131/114
f 103/74/115 95/76/115 111/123/115 119/126/115
f 102/71/116 101/118/116 117/130/116 118/129/116
f 94/72/117 102/71/117 118/129/117 110/128/117
f 104/75/118 103/74/118 119/126/118 120/125/118
f 101/118/119 93/117/119 109/127/119 117/130/119
f 124/132/120 126/133/120 130/134/120 128/135/120
f 58/119/121 63/87/121 126/133/121 124/132/121
f 63/87/122 64/70/122 125/136/122 126/133/122
f 64/70/123 59/69/123 123/137/123 125/136/123
f 127/138/124 128/135/124 130/134/124 129/139/124
f 126/133/125 125/136/125 129/139/125 130/134/125
f 125/136/126 123/137/126 127/138/126 129/139/126
f 123/80/127 124/79/127 128/140/127 127/141/127
