# Blender v2.83.5 OBJ File: 'walnut02.blend'
# www.blender.org
mtllib walnut02.mtl
o Cylinder.001
v -0.006410 -0.015475 -0.008143
v -0.006065 -0.014643 -0.011511
v -0.015475 -0.006410 -0.008143
v -0.014643 -0.006065 -0.011511
v 0.015475 -0.006410 -0.008143
v 0.014643 -0.006065 -0.011511
v 0.006410 -0.015475 -0.008143
v 0.006065 -0.014643 -0.011511
v -0.011557 -0.004787 -0.015969
v -0.004787 -0.011557 -0.015969
v 0.011557 -0.004787 -0.015969
v 0.004787 -0.011557 -0.015969
v -0.003944 -0.002281 -0.018755
v -0.001634 -0.003944 -0.018755
v 0.003944 -0.002281 -0.018755
v 0.001634 -0.003944 -0.018755
v -0.006200 -0.014967 0.006368
v -0.014967 -0.006200 0.006368
v 0.014967 -0.006200 0.006368
v 0.006200 -0.014967 0.006368
v -0.005403 -0.013043 0.013515
v -0.013043 -0.005403 0.013515
v 0.013043 -0.005403 0.013515
v 0.005403 -0.013043 0.013515
v -0.003299 -0.007965 0.019798
v -0.007965 -0.003299 0.019798
v 0.007965 -0.003299 0.019798
v 0.003299 -0.007965 0.019798
v -0.001053 -0.002543 0.022590
v -0.002265 -0.001348 0.023392
v 0.002543 -0.001481 0.022590
v 0.001053 -0.002543 0.022590
v -0.004140 -0.000511 -0.019734
v -0.002669 -0.000429 0.023659
v -0.008359 -0.000336 0.020729
v -0.013689 -0.000128 0.014135
v -0.015708 -0.000590 0.006633
v -0.016241 -0.000039 -0.008596
v -0.015368 -0.000478 -0.012131
v -0.012129 -0.000498 -0.016810
v 0.002669 -0.000164 0.023659
v 0.004140 -0.000511 -0.019734
v 0.012129 -0.000498 -0.016810
v 0.015368 -0.000478 -0.012131
v 0.016241 -0.000106 -0.008596
v 0.015708 -0.000683 0.006633
v 0.013689 -0.000365 0.014135
v 0.008359 -0.000434 0.020729
v 0.014911 0.000017 -0.011740
v -0.013281 0.000254 0.013743
v -0.008110 0.000017 0.020141
v -0.004016 0.000017 -0.019116
v -0.002468 -0.000082 0.022827
v -0.015240 -0.000176 0.006465
v -0.015758 0.000441 -0.008311
v -0.014911 0.000017 -0.011740
v -0.011768 0.000017 -0.016280
v 0.011768 0.000017 -0.016280
v 0.002590 0.000177 0.022984
v 0.004017 0.000017 -0.019116
v 0.013281 0.000017 0.013743
v 0.008110 -0.000081 0.020141
v 0.015241 -0.000269 0.006465
v 0.015758 0.000374 -0.008311
v 0.002789 -0.002789 -0.018755
v 0.003367 -0.002211 -0.018755
v 0.002211 -0.003367 -0.018755
v 0.002179 -0.000725 -0.019681
v 0.000508 0.000018 -0.018167
v -0.000249 -0.001810 -0.019681
v -0.000538 0.000018 -0.018167
v 0.014643 -0.002140 -0.011511
v 0.011557 -0.002224 -0.015969
v 0.015475 -0.001594 -0.008143
v 0.014967 -0.002371 0.006368
v 0.013043 -0.001892 0.013515
v 0.007965 -0.001665 0.019798
v -0.011557 -0.002200 -0.015969
v -0.014643 -0.002382 -0.011511
v -0.015475 -0.001693 -0.008143
v -0.014967 -0.002462 0.006368
v -0.013043 -0.001974 0.013515
v -0.007965 -0.001283 0.019798
v 0.001223 -0.014967 0.006368
v 0.001877 -0.014967 0.006368
v 0.000960 -0.015475 -0.008143
v 0.002244 -0.015475 -0.008143
v 0.001601 -0.015095 -0.007563
v 0.001551 -0.014628 0.005763
v -0.013180 0.000020 -0.010512
v -0.009523 0.000020 -0.012932
v -0.003550 0.000020 -0.017032
v -0.013929 0.000395 -0.007480
v -0.011855 -0.000155 0.005582
v -0.011740 0.000230 0.012015
v -0.007169 0.000020 0.017671
v -0.001304 -0.000022 0.020072
v 0.011741 0.000020 0.012015
v 0.007170 -0.000066 0.017671
v 0.011856 -0.000228 0.005582
v 0.013930 0.000336 -0.007480
v 0.001413 0.000117 0.020157
v 0.013181 0.000020 -0.010512
v 0.009524 0.000020 -0.012932
v 0.003551 0.000020 -0.017032
v -0.000475 0.000022 -0.016193
v 0.000450 0.000022 -0.016193
v -0.011250 0.003836 -0.009293
v -0.010554 0.003780 -0.012871
v -0.003636 0.003878 -0.016093
v -0.013437 0.004111 -0.006555
v -0.010756 0.003690 0.004990
v -0.007366 0.003134 0.010756
v -0.005334 0.003868 0.014527
v -0.001097 0.004173 0.017318
v 0.000051 0.004232 -0.015427
v -0.010994 0.006657 -0.007812
v -0.007233 0.004439 -0.008662
v -0.003792 0.006656 -0.013269
v -0.011457 0.006929 -0.005598
v -0.009236 0.006533 0.000814
v -0.007357 0.006790 0.008499
v -0.005905 0.006657 0.012442
v -0.001393 0.006625 0.014118
v -0.000011 0.006648 -0.012460
v -0.006711 0.008740 -0.004969
v -0.005620 0.008740 -0.006673
v -0.002818 0.008740 -0.007814
v -0.006976 0.008896 -0.003702
v -0.006592 0.008670 0.001704
v -0.005778 0.006096 0.004343
v -0.003800 0.008740 0.006619
v -0.001698 0.005390 0.007528
v -0.001532 0.007732 -0.007512
v 0.007126 0.003616 0.011610
v 0.004546 0.004510 0.015836
v 0.010828 0.004376 0.005615
v 0.013866 0.004989 -0.006986
v 0.001018 0.004819 0.017179
v 0.011685 0.004626 -0.009926
v 0.010836 0.004682 -0.014022
v 0.003362 0.004585 -0.016437
v 0.007094 0.006656 0.008744
v 0.005462 0.006573 0.012784
v 0.009113 0.006449 0.001036
v 0.011561 0.006872 -0.005612
v 0.000891 0.006711 0.014355
v 0.011134 0.006637 -0.007896
v 0.007388 0.004423 -0.008825
v 0.003861 0.006638 -0.013601
v 0.005267 0.005904 0.003645
v 0.003514 0.008604 0.005576
v 0.006020 0.008544 0.001377
v 0.006454 0.008748 -0.003292
v 0.001714 0.005372 0.006376
v 0.006248 0.008635 -0.004393
v 0.005336 0.008635 -0.005887
v 0.002934 0.008635 -0.006927
v 0.001806 0.007627 -0.006690
v 0.000932 0.000069 0.001982
v 0.000004 0.000028 -0.007116
v 0.001172 0.000093 0.011069
v -0.000580 0.004298 -0.007140
v -0.000296 0.006653 -0.007137
v -0.000889 -0.000000 0.001940
v -0.001097 -0.000011 0.011006
v -0.000004 0.000025 -0.011655
v -0.000409 0.004258 -0.012193
v -0.001615 0.008723 0.000008
v 0.001760 0.008661 -0.000157
v 0.003273 0.008619 0.000388
v -0.003387 0.008704 0.000612
v 0.009594 0.004683 -0.000686
v 0.012893 0.000054 -0.000949
v 0.006237 0.007533 -0.000958
v 0.007584 0.004461 -0.002288
v -0.006784 0.007416 -0.000999
v -0.007972 0.004865 -0.002392
v -0.009722 0.002034 -0.000782
v -0.012892 0.000120 -0.000949
v -0.003324 0.008708 -0.000328
v 0.003236 0.008621 -0.000419
v -0.000838 0.003094 0.005089
v 0.000219 0.003417 0.005020
v 0.000482 0.004012 0.006242
v -0.001129 0.003864 0.006418
vt 0.437500 0.817500
vt 0.437500 0.817500
vt 0.437500 0.817500
vt 0.437500 0.817500
vt 0.437500 0.817500
vt 0.437500 0.817500
vt 0.437500 0.817500
vt 0.437500 0.817500
vt 0.437500 0.817500
vt 0.437500 0.817500
vt 0.437500 0.817500
vt 0.437500 0.817500
vt 0.437500 0.817500
vt 0.437500 0.817500
vt 0.437500 0.817500
vt 0.437500 0.817500
vt 0.437500 0.817500
vt 0.437500 0.817500
vt 0.437500 0.817500
vt 0.437500 0.817500
vt 0.437500 0.817500
vt 0.437500 0.817500
vt 0.437500 0.817500
vt 0.437500 0.817500
vt 0.437500 0.817500
vt 0.437500 0.817500
vt 0.437500 0.817500
vt 0.437500 0.817500
vt 0.437500 0.817500
vt 0.437500 0.817500
vt 0.437500 0.817500
vt 0.437500 0.817500
vt 0.437500 0.817500
vt 0.437500 0.817500
vt 0.437500 0.817500
vt 0.437500 0.817500
vt 0.437500 0.817500
vt 0.437500 0.817500
vt 0.437500 0.817500
vt 0.437500 0.817500
vt 0.437500 0.817500
vt 0.437500 0.817500
vt 0.437500 0.817500
vt 0.437500 0.817500
vt 0.437500 0.817500
vt 0.437500 0.817500
vt 0.187500 0.817500
vt 0.187500 0.817500
vt 0.187500 0.817500
vt 0.187500 0.817500
vt 0.187500 0.817500
vt 0.187500 0.817500
vt 0.187500 0.817500
vt 0.187500 0.817500
vt 0.187500 0.817500
vt 0.187500 0.817500
vt 0.187500 0.817500
vt 0.187500 0.817500
vt 0.437500 0.817500
vt 0.437500 0.817500
vt 0.437500 0.817500
vt 0.437500 0.817500
vt 0.437500 0.817500
vt 0.437500 0.817500
vt 0.437500 0.817500
vt 0.437500 0.817500
vt 0.437500 0.817500
vt 0.187500 0.817500
vt 0.187500 0.817500
vt 0.187500 0.817500
vt 0.187500 0.817500
vt 0.187500 0.817500
vt 0.187500 0.817500
vt 0.437500 0.817500
vt 0.437500 0.817500
vt 0.437500 0.817500
vt 0.437500 0.817500
vt 0.187500 0.817500
vt 0.187500 0.817500
vt 0.187500 0.817500
vt 0.187500 0.817500
vt 0.437500 0.817500
vt 0.187500 0.817500
vt 0.187500 0.817500
vt 0.187500 0.817500
vt 0.187500 0.817500
vt 0.187500 0.817500
vt 0.187500 0.817500
vt 0.187500 0.817500
vt 0.187500 0.817500
vt 0.187500 0.817500
vt 0.187500 0.817500
vt 0.187500 0.817500
vt 0.187500 0.817500
vt 0.187500 0.817500
vt 0.187500 0.817500
vt 0.437500 0.817500
vt 0.187500 0.817500
vt 0.187500 0.817500
vt 0.437500 0.817500
vt 0.437500 0.817500
vt 0.437500 0.817500
vt 0.437500 0.817500
vt 0.437500 0.817500
vt 0.437500 0.817500
vt 0.437500 0.817500
vt 0.437500 0.817500
vt 0.187500 0.817500
vt 0.187500 0.817500
vt 0.187500 0.817500
vt 0.187500 0.817500
vt 0.187500 0.817500
vt 0.187500 0.817500
vt 0.687500 0.817500
vt 0.687500 0.817500
vt 0.687500 0.817500
vt 0.687500 0.817500
vt 0.187500 0.817500
vt 0.187500 0.817500
vt 0.187500 0.817500
vt 0.187500 0.817500
vt 0.187500 0.817500
vt 0.187500 0.817500
vt 0.187500 0.817500
vt 0.187500 0.817500
vt 0.187500 0.817500
vt 0.187500 0.817500
vt 0.187500 0.817500
vt 0.187500 0.817500
vt 0.187500 0.817500
vt 0.187500 0.817500
vt 0.187500 0.817500
vt 0.187500 0.817500
vt 0.187500 0.817500
vt 0.187500 0.817500
vt 0.187500 0.817500
vt 0.687500 0.817500
vt 0.687500 0.817500
vt 0.687500 0.817500
vt 0.687500 0.817500
vt 0.687500 0.817500
vt 0.687500 0.817500
vt 0.687500 0.817500
vt 0.687500 0.817500
vt 0.687500 0.817500
vt 0.687500 0.817500
vt 0.687500 0.817500
vt 0.687500 0.817500
vt 0.687500 0.817500
vt 0.687500 0.817500
vt 0.687500 0.817500
vt 0.687500 0.817500
vt 0.687500 0.817500
vt 0.687500 0.817500
vt 0.687500 0.817500
vt 0.687500 0.817500
vt 0.687500 0.817500
vt 0.687500 0.817500
vt 0.687500 0.817500
vt 0.687500 0.817500
vt 0.687500 0.817500
vt 0.687500 0.817500
vt 0.687500 0.817500
vt 0.687500 0.817500
vt 0.687500 0.817500
vt 0.687500 0.817500
vt 0.687500 0.817500
vt 0.687500 0.817500
vt 0.687500 0.817500
vt 0.687500 0.817500
vt 0.687500 0.817500
vt 0.687500 0.817500
vt 0.687500 0.817500
vt 0.687500 0.817500
vt 0.687500 0.817500
vt 0.687500 0.817500
vt 0.687500 0.817500
vt 0.687500 0.817500
vt 0.687500 0.817500
vt 0.687500 0.817500
vt 0.687500 0.817500
vt 0.687500 0.817500
vt 0.687500 0.817500
vt 0.687500 0.817500
vt 0.687500 0.817500
vt 0.687500 0.817500
vt 0.687500 0.817500
vt 0.687500 0.817500
vt 0.687500 0.817500
vt 0.687500 0.817500
vt 0.687500 0.817500
vt 0.687500 0.817500
vt 0.687500 0.817500
vt 0.687500 0.817500
vt 0.687500 0.817500
vt 0.687500 0.817500
vt 0.687500 0.817500
vt 0.687500 0.817500
vt 0.687500 0.817500
vt 0.687500 0.817500
vt 0.687500 0.817500
vt 0.687500 0.817500
vt 0.687500 0.817500
vt 0.687500 0.817500
vt 0.687500 0.817500
vt 0.687500 0.817500
vt 0.687500 0.817500
vt 0.687500 0.817500
vt 0.687500 0.817500
vt 0.687500 0.817500
vt 0.687500 0.817500
vt 0.687500 0.817500
vt 0.687500 0.817500
vt 0.687500 0.817500
vt 0.687500 0.817500
vt 0.687500 0.817500
vt 0.687500 0.817500
vt 0.687500 0.817500
vt 0.687500 0.817500
vt 0.687500 0.817500
vt 0.687500 0.817500
vt 0.187500 0.817500
vt 0.187500 0.817500
vt 0.187500 0.817500
vt 0.187500 0.817500
vt 0.187500 0.817500
vt 0.687500 0.817500
vt 0.687500 0.817500
vt 0.687500 0.817500
vt 0.687500 0.817500
vt 0.687500 0.817500
vt 0.687500 0.817500
vt 0.687500 0.817500
vt 0.687500 0.817500
vn -0.6865 -0.6865 -0.2398
vn 0.9708 0.0000 -0.2398
vn 0.6865 -0.6865 -0.2398
vn 0.0000 -0.9708 -0.2398
vn 0.5814 -0.5814 -0.5692
vn -0.8222 0.0000 -0.5692
vn 0.0000 -0.8222 -0.5692
vn -0.5814 -0.5814 -0.5692
vn -0.2406 -0.2591 -0.9354
vn 0.0000 -0.3437 -0.9391
vn -0.3437 0.0000 -0.9391
vn 0.2381 -0.2563 -0.9368
vn -0.0000 -0.9994 0.0350
vn -0.7067 -0.7067 0.0350
vn 0.9994 0.0000 0.0350
vn 0.7067 -0.7067 0.0350
vn 0.0000 -0.7777 0.6286
vn 0.6828 -0.6828 0.2599
vn -0.6828 -0.6828 0.2599
vn 0.0000 -0.9656 0.2599
vn 0.9656 0.0000 0.2599
vn 0.7777 0.0000 0.6286
vn 0.5499 -0.5499 0.6286
vn -0.5499 -0.5499 0.6286
vn 0.1017 -0.3441 0.9334
vn -0.0000 -0.4578 0.8891
vn 0.4578 0.0000 0.8891
vn 0.3193 -0.3431 0.8834
vn 0.6871 0.7246 0.0535
vn -0.1776 0.9039 0.3891
vn 0.6178 0.7747 0.1346
vn -0.4068 0.8406 0.3576
vn -0.8943 -0.4207 -0.1521
vn -0.9197 -0.3924 0.0148
vn -0.8818 -0.3915 0.2628
vn -0.6444 -0.5404 0.5410
vn 0.4181 0.8388 0.3487
vn -0.6239 0.7721 0.1213
vn -0.6871 0.7247 0.0522
vn 0.7201 -0.4883 -0.4929
vn 0.3013 -0.4914 -0.8172
vn -0.6076 0.7559 -0.2438
vn -0.5293 0.7645 -0.3681
vn 0.0902 -0.4581 -0.8843
vn -0.2203 0.7662 -0.6037
vn 0.6150 0.7540 -0.2308
vn 0.5293 0.7645 -0.3681
vn 0.2203 0.7662 -0.6037
vn 0.2542 0.8742 0.4138
vn -0.0521 0.9102 0.4108
vn -0.1392 0.7944 -0.5912
vn -0.2103 0.6737 -0.7084
vn 0.1789 -0.3235 -0.9292
vn 0.0000 1.0000 -0.0016
vn 0.2143 0.6634 -0.7169
vn -0.0869 -0.3779 -0.9218
vn 0.3437 0.0000 -0.9391
vn 0.6494 -0.5438 0.5315
vn 0.8600 -0.4417 0.2556
vn 0.9035 -0.4284 0.0121
vn 0.8718 -0.4652 -0.1534
vn 0.8222 0.0000 -0.5692
vn 0.3378 -0.6229 0.7056
vn -0.3014 -0.4940 -0.8155
vn -0.7777 0.0000 0.6286
vn -0.9656 0.0000 0.2599
vn -0.9994 0.0000 0.0350
vn -0.9708 0.0000 -0.2398
vn -0.7234 -0.4665 -0.5091
vn 0.0746 -0.5048 0.8600
vn -0.3004 -0.4186 0.8571
vn -0.5334 0.0000 0.8459
vn -0.4001 -0.6102 0.6838
vn 0.0000 -0.8362 0.5484
vn 0.5963 -0.8024 0.0235
vn -0.5961 -0.8027 0.0192
vn -0.0000 -0.8725 -0.4886
vn 0.8223 -0.0146 -0.5688
vn 0.0294 0.9994 -0.0203
vn 0.0053 0.9991 0.0414
vn -0.0284 0.9981 -0.0550
vn -0.0610 0.9942 -0.0884
vn 0.0300 0.9995 0.0128
vn 0.0008 1.0000 -0.0008
vn 0.0059 0.9999 0.0144
vn 0.0005 1.0000 -0.0010
vn -0.0079 0.9999 0.0089
vn -0.0008 1.0000 -0.0008
vn 0.0275 0.9990 -0.0348
vn -0.0005 1.0000 -0.0010
vn -0.0511 0.9987 0.0000
vn 0.0002 0.9991 0.0433
vn 0.0725 0.9919 -0.1047
vn 0.0000 1.0000 -0.0007
vn -0.8035 0.3871 -0.4523
vn -0.3753 0.6082 0.6995
vn -0.8040 0.5910 -0.0662
vn 0.9999 -0.0144 -0.0014
vn -0.7935 0.1916 -0.5777
vn -0.7279 0.6500 0.2183
vn -0.4937 0.0417 -0.8687
vn 0.2035 0.1918 -0.9601
vn -0.5629 0.7475 0.3527
vn 0.2460 0.9308 -0.2705
vn -0.9008 0.1858 0.3924
vn -0.7446 0.4909 -0.4524
vn -0.3690 0.6291 0.6842
vn -0.9251 0.2117 -0.3153
vn -0.0517 0.8662 -0.4970
vn 0.0963 0.7428 -0.6626
vn -0.7979 0.5083 0.3239
vn -0.3910 0.8841 -0.2560
vn 0.2129 0.7316 0.6477
vn -0.1340 0.9589 0.2501
vn -0.6042 0.6963 -0.3875
vn 0.6517 0.7577 0.0343
vn -0.5068 0.8594 -0.0675
vn -0.3295 0.9264 -0.1825
vn 0.4137 0.9022 0.1217
vn -0.5756 0.6867 -0.4440
vn -0.0950 0.6550 -0.7496
vn -0.1208 0.9474 -0.2965
vn -0.9854 -0.1603 0.0578
vn 0.8801 0.2881 0.3773
vn -0.2812 0.1287 -0.9510
vn 0.4343 -0.1008 -0.8951
vn 0.3493 0.5185 0.7805
vn 0.6287 0.6667 0.4004
vn 0.8706 0.1992 -0.4498
vn 0.7886 0.5548 0.2651
vn 0.2803 0.9482 -0.1498
vn 0.2923 0.8251 0.4834
vn 0.2615 0.9580 -0.1180
vn 0.2463 0.7885 0.5637
vn 0.8562 0.3211 0.4047
vn -0.2127 0.7818 -0.5861
vn 0.5672 0.7371 -0.3674
vn 0.6699 0.6760 0.3070
vn -0.9957 0.0820 0.0427
vn 0.8259 0.5626 -0.0366
vn 0.0284 0.9693 0.2443
vn -0.7189 0.6696 -0.1865
vn 0.0122 0.7264 -0.6872
vn 0.6440 0.3314 0.6895
vn 0.5819 0.7534 -0.3063
vn -0.4140 0.9074 0.0720
vn 0.5260 0.8473 -0.0733
vn -0.2465 0.9464 -0.2087
vn -0.0446 0.9990 -0.0006
vn -0.4163 0.9089 -0.0231
vn 0.9991 -0.0149 0.0399
vn 0.9993 -0.0009 0.0375
vn 0.9297 0.3622 0.0666
vn -0.9891 -0.0910 -0.1160
vn -0.0093 0.9999 0.0037
vn 0.2115 0.9339 -0.2881
vn 0.0270 0.9996 0.0009
vn -0.6695 0.7120 0.2118
vn 0.6286 0.7500 0.2058
vn -0.2043 0.9281 -0.3112
vn 0.5814 0.6554 -0.4821
vn 0.7891 0.5254 -0.3182
vn 0.9055 0.4242 0.0056
vn -0.8032 0.4456 0.3954
vn -0.5775 0.4593 0.6749
vn -0.6700 0.3739 0.6413
vn -0.0782 0.9911 0.1073
vn 0.3236 0.9450 -0.0476
vn 0.0775 0.9916 0.1033
vn -0.3589 0.9310 -0.0658
vn -0.7752 0.6291 -0.0571
vn -0.2349 0.6711 0.7032
vn -0.9855 0.1489 0.0814
vn -0.7385 0.6521 0.1717
vn 0.9846 0.1745 -0.0078
vn 0.8981 0.4230 -0.1208
vn -0.8331 0.5460 0.0884
vn 0.9552 0.2729 0.1148
usemtl Material.001
s off
f 1/1/1 3/2/1 4/3/1 2/4/1
f 74/5/2 5/6/2 6/7/2 72/8/2
f 5/6/3 7/9/3 8/10/3 6/7/3
f 7/9/4 87/11/4 86/12/4 1/1/4 2/4/4 8/10/4
f 8/10/5 12/13/5 11/14/5 6/7/5
f 79/15/6 78/16/6 9/17/6 4/3/6
f 2/4/7 10/18/7 12/13/7 8/10/7
f 4/3/8 9/17/8 10/18/8 2/4/8
f 9/17/9 13/19/9 14/20/9 10/18/9
f 10/18/10 14/20/10 16/21/10 12/13/10
f 78/16/11 13/19/11 9/17/11
f 12/13/12 16/21/12 67/22/12 65/23/12 66/24/12 15/25/12 11/14/12
f 84/26/13 17/27/13 1/1/13 86/12/13
f 1/1/14 17/27/14 18/28/14 3/2/14
f 74/5/15 75/29/15 19/30/15 5/6/15
f 5/6/16 19/30/16 20/31/16 7/9/16
f 24/32/17 28/33/17 25/34/17 21/35/17
f 19/30/18 23/36/18 24/32/18 20/31/18
f 17/27/19 21/35/19 22/37/19 18/28/19
f 20/31/20 24/32/20 21/35/20 17/27/20 84/26/20 85/38/20
f 75/29/21 76/39/21 23/36/21 19/30/21
f 76/39/22 77/40/22 27/41/22 23/36/22
f 23/36/23 27/41/23 28/33/23 24/32/23
f 21/35/24 25/34/24 26/42/24 22/37/24
f 31/43/25 30/44/25 29/45/25 32/46/25
f 28/33/26 32/46/26 29/45/26 25/34/26
f 77/40/27 31/43/27 27/41/27
f 27/41/28 31/43/28 32/46/28 28/33/28
f 45/47/29 64/48/29 63/49/29 46/50/29
f 34/51/30 53/52/30 51/53/30 35/54/30
f 46/50/31 63/49/31 61/55/31 47/56/31
f 35/54/32 51/53/32 50/57/32 36/58/32
f 80/59/33 38/60/33 39/61/33 79/15/33
f 80/59/34 81/62/34 37/63/34 38/60/34
f 81/62/35 82/64/35 36/65/35 37/63/35
f 82/64/36 83/66/36 35/67/36 36/65/36
f 47/56/37 61/55/37 62/68/37 48/69/37
f 36/58/38 50/57/38 54/70/38 37/71/38
f 37/71/39 54/70/39 55/72/39 38/73/39
f 72/8/40 73/74/40 43/75/40 44/76/40
f 73/74/41 15/25/41 42/77/41 43/75/41
f 38/73/42 55/72/42 56/78/42 39/79/42
f 39/79/43 56/78/43 57/80/43 40/81/43
f 68/82/44 42/77/44 15/25/44 66/24/44 65/23/44
f 40/81/45 57/80/45 52/83/45 33/84/45
f 44/85/46 49/86/46 64/48/46 45/47/46
f 43/87/47 58/88/47 49/86/47 44/85/47
f 42/89/48 60/90/48 58/88/48 43/87/48
f 48/69/49 62/68/49 59/91/49 41/92/49
f 41/92/50 59/91/50 53/52/50 34/51/50
f 68/93/51 69/94/51 60/90/51 42/89/51
f 70/95/52 71/96/52 69/94/52 68/93/52
f 70/97/53 68/82/53 65/23/53 67/22/53
f 60/90/54 69/94/54 107/98/54 105/99/54
f 33/84/55 52/83/55 71/96/55 70/95/55
f 13/19/56 33/100/56 70/97/56 67/22/56 16/21/56 14/20/56
f 11/14/57 15/25/57 73/74/57
f 47/101/58 48/102/58 77/40/58 76/39/58
f 46/103/59 47/101/59 76/39/59 75/29/59
f 45/104/60 46/103/60 75/29/60 74/5/60
f 45/104/61 74/5/61 72/8/61 44/76/61
f 6/7/62 11/14/62 73/74/62 72/8/62
f 48/102/63 41/105/63 31/43/63 77/40/63
f 40/106/64 33/100/64 13/19/64 78/16/64
f 22/37/65 26/42/65 83/66/65 82/64/65
f 18/28/66 22/37/66 82/64/66 81/62/66
f 3/2/67 18/28/67 81/62/67 80/59/67
f 3/2/68 80/59/68 79/15/68 4/3/68
f 39/61/69 40/106/69 78/16/69 79/15/69
f 41/105/70 34/107/70 30/44/70 31/43/70
f 26/42/71 25/34/71 29/45/71 30/44/71
f 83/66/72 26/42/72 30/44/72
f 35/67/73 83/66/73 30/44/73 34/107/73
f 87/108/74 88/109/74 86/110/74
f 7/9/13 20/31/13 85/38/13 87/11/13
f 86/110/75 88/109/75 89/111/75 84/112/75
f 85/113/76 89/111/76 88/109/76 87/108/76
f 84/112/77 89/111/77 85/113/77
f 103/114/78 104/115/78 141/116/78 140/117/78
f 59/91/79 62/68/79 99/118/79 102/119/79
f 55/72/80 54/70/80 94/120/80 180/121/80 93/122/80
f 54/70/81 50/57/81 95/123/81 94/120/81
f 64/48/82 49/86/82 103/124/82 101/125/82
f 71/96/54 52/83/54 92/126/54 106/127/54
f 50/57/83 51/53/83 96/128/83 95/123/83
f 49/86/84 58/88/84 104/129/84 103/124/84
f 51/53/85 53/52/85 97/130/85 96/128/85
f 69/94/54 71/96/54 106/127/54 107/98/54
f 58/88/86 60/90/86 105/99/86 104/129/86
f 62/68/87 61/55/87 98/131/87 99/118/87
f 57/80/88 56/78/88 90/132/88 91/133/88
f 61/55/89 63/49/89 100/134/89 98/131/89
f 52/83/90 57/80/90 91/133/90 92/126/90
f 53/52/91 59/91/91 102/119/91 97/130/91
f 63/49/92 64/48/92 101/125/92 174/135/92 100/134/92
f 56/78/93 55/72/93 93/122/93 90/132/93
f 106/127/94 167/136/94 107/98/94
f 90/137/95 93/138/95 111/139/95 108/140/95
f 96/141/96 97/142/96 115/143/96 114/144/96
f 180/145/97 94/146/97 112/147/97 179/148/97
f 168/149/98 167/150/98 106/151/98 116/152/98
f 91/153/99 90/137/99 108/140/99 109/154/99
f 94/146/100 95/155/100 113/156/100 112/147/100
f 92/157/101 91/153/101 109/154/101 110/158/101
f 106/151/102 92/157/102 110/158/102 116/152/102
f 95/155/103 96/141/103 114/144/103 113/156/103
f 125/159/104 119/160/104 128/161/104 134/162/104
f 113/156/105 114/144/105 123/163/105 122/164/105
f 108/140/106 111/139/106 120/165/106 117/166/106
f 114/144/107 115/143/107 124/167/107 123/163/107
f 179/148/108 112/147/108 121/168/108 178/169/108
f 109/154/109 108/140/109 117/166/109 118/170/109
f 116/152/110 110/158/110 119/160/110 125/159/110
f 112/147/111 113/156/111 122/164/111 121/168/111
f 110/158/112 109/154/112 118/170/112 119/160/112
f 172/171/113 130/172/113 131/173/113
f 121/168/114 122/164/114 131/173/114 130/172/114
f 119/160/115 118/170/115 127/174/115 128/161/115
f 164/175/116 125/159/116 134/162/116
f 122/164/117 123/163/117 132/176/117 131/173/117
f 117/166/118 120/165/118 129/177/118 126/178/118
f 123/163/119 124/167/119 133/179/119 132/176/119
f 178/169/120 121/168/120 130/172/120 177/180/120
f 118/170/121 117/166/121 126/178/121 127/174/121
f 140/117/122 141/116/122 149/181/122 148/182/122
f 161/183/123 160/184/123 162/185/123 102/186/123 139/187/123 184/188/123 163/189/123
f 174/190/124 101/191/124 138/192/124 173/193/124
f 105/194/125 107/195/125 116/152/125 142/196/125
f 104/115/126 105/194/126 142/196/126 141/116/126
f 102/186/127 99/197/127 136/198/127 139/187/127
f 99/197/128 98/199/128 135/200/128 136/198/128
f 101/191/129 103/114/129 140/117/129 138/192/129
f 98/199/130 100/201/130 137/202/130 135/200/130
f 146/203/131 148/182/131 156/204/131 154/205/131
f 173/193/132 138/192/132 146/203/132 176/206/132
f 141/116/133 142/196/133 150/207/133 149/181/133
f 139/187/134 136/198/134 144/208/134 147/209/134
f 136/198/135 135/200/135 143/210/135 144/208/135
f 142/196/136 116/152/136 125/159/136 150/207/136
f 138/192/137 140/117/137 148/182/137 146/203/137
f 135/200/138 137/202/138 145/211/138 143/210/138
f 184/188/139 139/187/139 147/209/139 185/212/139
f 171/213/140 152/214/140 151/215/140
f 143/210/141 145/211/141 153/216/141 151/215/141
f 185/212/142 147/209/142 155/217/142
f 148/182/143 149/181/143 157/218/143 156/204/143
f 176/206/144 146/203/144 154/205/144 175/219/144
f 149/181/145 150/207/145 158/220/145 157/218/145
f 147/209/146 144/208/146 152/214/146 155/217/146
f 144/208/147 143/210/147 151/215/147 152/214/147
f 150/207/148 125/159/148 159/221/148 158/220/148
f 161/222/149 165/223/149 166/224/149 97/130/149 102/119/149 162/225/149 160/226/149
f 125/159/150 164/175/150 159/221/150
f 183/227/151 163/189/151 164/175/151 186/228/151
f 97/142/152 166/229/152 165/230/152 161/183/152 163/189/152 183/227/152 115/143/152
f 164/175/153 134/162/153 169/231/153 133/179/153
f 107/195/154 167/150/154 168/149/154 116/152/154
f 181/232/155 172/171/155 169/231/155
f 182/233/156 171/213/156 153/216/156 175/219/156
f 170/234/157 171/213/157 182/233/157
f 170/234/158 155/217/158 152/214/158 171/213/158
f 169/231/159 172/171/159 132/176/159 133/179/159
f 181/232/160 177/180/160 130/172/160 172/171/160
f 145/211/161 176/206/161 175/219/161 153/216/161
f 137/202/162 173/193/162 176/206/162 145/211/162
f 100/201/163 174/190/163 173/193/163 137/202/163
f 93/138/164 180/145/164 179/148/164 111/139/164
f 111/139/165 179/148/165 178/169/165 120/165/165
f 120/165/166 178/169/166 177/180/166 129/177/166
f 126/178/167 129/177/167 177/180/167 181/232/167 128/161/167 127/174/167
f 128/161/168 181/232/168 169/231/168 134/162/168
f 158/220/169 182/233/169 175/219/169 154/205/169 156/204/169 157/218/169
f 159/221/170 170/234/170 182/233/170 158/220/170
f 132/176/171 172/171/171 131/173/171
f 153/216/172 171/213/172 151/215/172
f 163/189/173 184/188/173 185/212/173 164/175/173
f 164/175/174 185/212/174 155/217/174
f 115/143/175 183/227/175 186/228/175 124/167/175
f 124/167/176 186/228/176 133/179/176
f 159/221/177 164/175/177 155/217/177 170/234/177
f 186/228/178 164/175/178 133/179/178
