# Blender v2.83.5 OBJ File: 'watermelon01.blend'
# www.blender.org
mtllib watermelon01.mtl
o Cylinder
v 0.000108 -0.102893 -0.030673
v 0.000108 -0.089451 -0.064653
v 0.022120 -0.102893 -0.021555
v 0.046148 -0.089451 -0.045583
v 0.031238 -0.102893 0.000457
v 0.065218 -0.089451 0.000457
v 0.022120 -0.102893 0.022470
v 0.046148 -0.089451 0.046498
v 0.000108 -0.102893 0.031588
v 0.000108 -0.089451 0.065568
v -0.021905 -0.102893 0.022470
v -0.045933 -0.089451 0.046498
v -0.031023 -0.102893 0.000457
v -0.065003 -0.089451 0.000457
v -0.021905 -0.102893 -0.021555
v -0.045933 -0.089451 -0.045583
v 0.000108 -0.054182 -0.087083
v 0.062008 -0.054182 -0.061443
v 0.087648 -0.054182 0.000457
v 0.062008 -0.054182 0.062358
v 0.000108 -0.054182 0.087998
v -0.061793 -0.054182 0.062358
v -0.087433 -0.054182 0.000457
v -0.061793 -0.054182 -0.061443
v 0.000108 0.000183 -0.096839
v 0.068907 0.000183 -0.068342
v 0.097404 0.000183 0.000457
v 0.068907 0.000183 0.069257
v 0.000108 0.000183 0.097754
v -0.068692 0.000183 0.069257
v -0.097189 0.000183 0.000457
v -0.068692 0.000183 -0.068342
v 0.000108 0.055136 -0.087560
v 0.062345 0.055136 -0.061780
v 0.088125 0.055136 0.000457
v 0.062345 0.055136 0.062695
v 0.000108 0.055136 0.088475
v -0.062130 0.055136 0.062695
v -0.087910 0.055136 0.000457
v -0.062130 0.055136 -0.061780
v -0.000269 0.089416 -0.065143
v 0.044986 0.089416 -0.046398
v 0.063731 0.089416 -0.001144
v 0.044986 0.089416 0.044111
v -0.000269 0.089416 0.062856
v -0.045523 0.089416 0.044111
v -0.064268 0.089416 -0.001144
v -0.045523 0.089416 -0.046398
v -0.000269 0.101789 -0.027628
v 0.018458 0.101789 -0.019871
v 0.026216 0.101789 -0.001144
v 0.018458 0.101789 0.017584
v -0.000269 0.101789 0.025341
v -0.018996 0.101789 0.017584
v -0.026753 0.101789 -0.001144
v -0.018996 0.101789 -0.019871
vt 0.186005 0.554095
vt 0.186005 0.554095
vt 0.186005 0.554095
vt 0.186005 0.554095
vt 0.186005 0.554095
vt 0.186005 0.554095
vt 0.186005 0.554095
vt 0.186005 0.554095
vt 0.186005 0.554095
vt 0.186005 0.554095
vt 0.186005 0.554095
vt 0.186005 0.554095
vt 0.186005 0.554095
vt 0.186005 0.554095
vt 0.186005 0.554095
vt 0.186005 0.554095
vt 0.186005 0.554095
vt 0.186005 0.554095
vt 0.186005 0.554095
vt 0.186005 0.554095
vt 0.186005 0.554095
vt 0.186005 0.554095
vt 0.186005 0.554095
vt 0.186005 0.554095
vt 0.186005 0.554095
vt 0.186005 0.554095
vt 0.186005 0.554095
vt 0.186005 0.554095
vt 0.186005 0.554095
vt 0.186005 0.554095
vt 0.186005 0.554095
vt 0.186005 0.554095
vt 0.186005 0.554095
vt 0.186005 0.554095
vt 0.186005 0.554095
vt 0.186005 0.554095
vt 0.186005 0.554095
vt 0.186005 0.554095
vt 0.186005 0.554095
vt 0.186005 0.554095
vt 0.186005 0.554095
vt 0.186005 0.554095
vt 0.186005 0.554095
vt 0.186005 0.554095
vt 0.186005 0.554095
vt 0.186005 0.554095
vt 0.186005 0.554095
vt 0.186005 0.554095
vt 0.186005 0.554095
vt 0.186005 0.554095
vt 0.186005 0.554095
vt 0.186005 0.554095
vt 0.186005 0.554095
vt 0.186005 0.554095
vt 0.186005 0.554095
vt 0.186005 0.554095
vn 0.1506 -0.9193 -0.3637
vn 0.3637 -0.9193 -0.1506
vn 0.3637 -0.9193 0.1506
vn 0.1506 -0.9193 0.3637
vn -0.1506 -0.9193 0.3637
vn -0.3637 -0.9193 0.1506
vn 0.3299 -0.5066 0.7966
vn -0.3637 -0.9193 -0.1506
vn -0.1506 -0.9193 -0.3637
vn 0.0000 -1.0000 0.0000
vn 0.3775 -0.1636 -0.9114
vn -0.7966 -0.5066 -0.3299
vn 0.7966 -0.5066 -0.3299
vn -0.3299 -0.5066 0.7966
vn -0.3299 -0.5066 -0.7966
vn 0.3299 -0.5066 -0.7966
vn 0.7966 -0.5066 0.3299
vn -0.7966 -0.5066 0.3299
vn -0.9128 0.1541 -0.3781
vn -0.3775 -0.1636 -0.9114
vn -0.9114 -0.1636 0.3775
vn 0.3775 -0.1636 0.9114
vn 0.9114 -0.1636 -0.3775
vn -0.9114 -0.1636 -0.3775
vn -0.3775 -0.1636 0.9114
vn 0.9114 -0.1636 0.3775
vn 0.7783 0.5388 -0.3224
vn -0.3781 0.1541 0.9128
vn 0.9128 0.1541 0.3781
vn 0.3781 0.1541 -0.9128
vn -0.3781 0.1541 -0.9128
vn -0.9128 0.1541 0.3781
vn 0.3781 0.1541 0.9128
vn 0.9128 0.1541 -0.3781
vn -0.1287 0.9418 -0.3106
vn -0.7855 0.5265 -0.3253
vn -0.3155 0.5658 0.7618
vn 0.7656 0.5597 0.3171
vn 0.3269 0.5197 -0.7893
vn -0.3282 0.5145 -0.7922
vn -0.7728 0.5479 0.3201
vn 0.3143 0.5705 0.7588
vn 0.0000 1.0000 0.0000
vn -0.3106 0.9418 0.1287
vn 0.1287 0.9418 0.3106
vn 0.3106 0.9418 -0.1287
vn -0.3106 0.9418 -0.1287
vn -0.1287 0.9418 0.3106
vn 0.3106 0.9418 0.1287
vn 0.1287 0.9418 -0.3106
usemtl Material.001
s off
f 1/1/1 2/2/1 4/3/1 3/4/1
f 3/4/2 4/3/2 6/5/2 5/6/2
f 5/6/3 6/5/3 8/7/3 7/8/3
f 7/8/4 8/7/4 10/9/4 9/10/4
f 9/10/5 10/9/5 12/11/5 11/12/5
f 11/12/6 12/11/6 14/13/6 13/14/6
f 10/9/7 8/7/7 20/15/7 21/16/7
f 13/14/8 14/13/8 16/17/8 15/18/8
f 15/18/9 16/17/9 2/2/9 1/1/9
f 1/1/10 3/4/10 5/6/10 7/8/10 9/10/10 11/12/10 13/14/10 15/18/10
f 18/19/11 17/20/11 25/21/11 26/22/11
f 16/17/12 14/13/12 23/23/12 24/24/12
f 6/5/13 4/3/13 18/19/13 19/25/13
f 12/11/14 10/9/14 21/16/14 22/26/14
f 2/2/15 16/17/15 24/24/15 17/20/15
f 4/3/16 2/2/16 17/20/16 18/19/16
f 8/7/17 6/5/17 19/25/17 20/15/17
f 14/13/18 12/11/18 22/26/18 23/23/18
f 32/27/19 31/28/19 39/29/19 40/30/19
f 17/20/20 24/24/20 32/27/20 25/21/20
f 23/23/21 22/26/21 30/31/21 31/28/21
f 21/16/22 20/15/22 28/32/22 29/33/22
f 19/25/23 18/19/23 26/22/23 27/34/23
f 24/24/24 23/23/24 31/28/24 32/27/24
f 22/26/25 21/16/25 29/33/25 30/31/25
f 20/15/26 19/25/26 27/34/26 28/32/26
f 35/35/27 34/36/27 42/37/27 43/38/27
f 30/31/28 29/33/28 37/39/28 38/40/28
f 28/32/29 27/34/29 35/35/29 36/41/29
f 26/22/30 25/21/30 33/42/30 34/36/30
f 25/21/31 32/27/31 40/30/31 33/42/31
f 31/28/32 30/31/32 38/40/32 39/29/32
f 29/33/33 28/32/33 36/41/33 37/39/33
f 27/34/34 26/22/34 34/36/34 35/35/34
f 41/43/35 48/44/35 56/45/35 49/46/35
f 40/30/36 39/29/36 47/47/36 48/44/36
f 38/40/37 37/39/37 45/48/37 46/49/37
f 36/41/38 35/35/38 43/38/38 44/50/38
f 34/36/39 33/42/39 41/43/39 42/37/39
f 33/42/40 40/30/40 48/44/40 41/43/40
f 39/29/41 38/40/41 46/49/41 47/47/41
f 37/39/42 36/41/42 44/50/42 45/48/42
f 50/51/43 49/46/43 56/45/43 55/52/43 54/53/43 53/54/43 52/55/43 51/56/43
f 47/47/44 46/49/44 54/53/44 55/52/44
f 45/48/45 44/50/45 52/55/45 53/54/45
f 43/38/46 42/37/46 50/51/46 51/56/46
f 48/44/47 47/47/47 55/52/47 56/45/47
f 46/49/48 45/48/48 53/54/48 54/53/48
f 44/50/49 43/38/49 51/56/49 52/55/49
f 42/37/50 41/43/50 49/46/50 50/51/50
