# Blender v2.83.5 OBJ File: 'watermelon02.blend'
# www.blender.org
mtllib watermelon02.mtl
o Cylinder
v -0.000125 0.040965 -0.083115
v -0.059274 0.040965 -0.058615
v -0.083774 0.040965 0.000534
v -0.059274 0.040965 0.059682
v -0.000125 0.040965 0.084182
v 0.059023 0.040965 0.059682
v 0.083523 0.040965 0.000534
v 0.059023 0.040965 -0.058615
v 0.064357 0.040965 -0.063949
v 0.091067 0.040965 0.000534
v 0.064357 0.040965 0.065016
v -0.000125 0.040965 0.091726
v -0.064608 0.040965 0.065016
v -0.091318 0.040965 0.000534
v -0.064608 0.040965 -0.063949
v -0.000125 0.040965 -0.090659
v -0.000125 0.040965 -0.096763
v -0.068925 0.040965 -0.068265
v -0.097422 0.040965 0.000534
v -0.068925 0.040965 0.069333
v -0.000125 0.040965 0.097830
v 0.068674 0.040965 0.069333
v 0.097171 0.040965 0.000534
v 0.068674 0.040965 -0.068265
v -0.000125 -0.013987 -0.087484
v -0.062363 -0.013987 -0.061704
v -0.088143 -0.013987 0.000534
v -0.062363 -0.013987 0.062772
v -0.000125 -0.013987 0.088551
v 0.062112 -0.013987 0.062772
v 0.087892 -0.013987 0.000534
v 0.062112 -0.013987 -0.061704
v 0.000251 -0.048268 -0.065067
v -0.045003 -0.048268 -0.046322
v -0.063748 -0.048268 -0.001067
v -0.045003 -0.048268 0.044187
v 0.000251 -0.048268 0.062932
v 0.045505 -0.048268 0.044187
v 0.064250 -0.048268 -0.001067
v 0.045505 -0.048268 -0.046322
v 0.000251 -0.060641 -0.027552
v -0.018476 -0.060641 -0.019795
v -0.026234 -0.060641 -0.001067
v -0.018476 -0.060641 0.017660
v 0.000251 -0.060641 0.025417
v 0.018978 -0.060641 0.017660
v 0.026735 -0.060641 -0.001067
v 0.018978 -0.060641 -0.019795
vt 0.934785 0.942940
vt 0.934785 0.942940
vt 0.934785 0.942940
vt 0.934785 0.942940
vt 0.934785 0.942940
vt 0.934785 0.942940
vt 0.934785 0.942940
vt 0.934785 0.942940
vt 0.934785 0.942940
vt 0.934785 0.942940
vt 0.934785 0.942940
vt 0.934785 0.942940
vt 0.934785 0.942940
vt 0.934785 0.942940
vt 0.692695 0.952288
vt 0.692695 0.952288
vt 0.692695 0.952288
vt 0.692695 0.952288
vt 0.692695 0.952288
vt 0.692695 0.952288
vt 0.692695 0.952288
vt 0.692695 0.952288
vt 0.182133 0.561785
vt 0.182133 0.561785
vt 0.182133 0.561785
vt 0.182133 0.561785
vt 0.182133 0.561785
vt 0.182133 0.561785
vt 0.182133 0.561785
vt 0.182133 0.561785
vt 0.934785 0.942940
vt 0.934785 0.942940
vt 0.182133 0.561785
vt 0.182133 0.561785
vt 0.182133 0.561785
vt 0.182133 0.561785
vt 0.182133 0.561785
vt 0.182133 0.561785
vt 0.182133 0.561785
vt 0.182133 0.561785
vt 0.182133 0.561785
vt 0.182133 0.561785
vt 0.182133 0.561785
vt 0.182133 0.561785
vt 0.182133 0.561785
vt 0.182133 0.561785
vt 0.182133 0.561785
vt 0.182133 0.561785
vt 0.182133 0.561785
vt 0.182133 0.561785
vt 0.182133 0.561785
vt 0.182133 0.561785
vt 0.182133 0.561785
vt 0.182133 0.561785
vt 0.182133 0.561785
vt 0.182133 0.561785
vt 0.182133 0.561785
vt 0.182133 0.561785
vt 0.182133 0.561785
vt 0.182133 0.561785
vt 0.182133 0.561785
vt 0.182133 0.561785
vt 0.182133 0.561785
vt 0.182133 0.561785
vn 0.0000 1.0000 0.0000
vn 0.9128 -0.1541 -0.3781
vn -0.7783 -0.5388 -0.3224
vn 0.3781 -0.1541 0.9128
vn -0.9128 -0.1541 0.3781
vn -0.3781 -0.1541 -0.9128
vn 0.3781 -0.1541 -0.9128
vn 0.9128 -0.1541 0.3781
vn -0.3781 -0.1541 0.9128
vn -0.9128 -0.1541 -0.3781
vn 0.1287 -0.9418 -0.3106
vn 0.7855 -0.5265 -0.3253
vn 0.3155 -0.5658 0.7618
vn -0.7656 -0.5597 0.3171
vn -0.3269 -0.5197 -0.7893
vn 0.3282 -0.5145 -0.7922
vn 0.7728 -0.5479 0.3201
vn -0.3143 -0.5705 0.7588
vn -0.0000 -1.0000 -0.0000
vn 0.3106 -0.9418 0.1287
vn -0.1287 -0.9418 0.3106
vn -0.3106 -0.9418 -0.1287
vn 0.3106 -0.9418 -0.1287
vn 0.1287 -0.9418 0.3106
vn -0.3106 -0.9418 0.1287
vn -0.1287 -0.9418 -0.3106
usemtl Material.001
s off
f 10/1/1 9/2/1 8/3/1 7/4/1
f 15/5/1 14/6/1 3/7/1 2/8/1
f 12/9/1 11/10/1 6/11/1 5/12/1
f 14/6/1 13/13/1 4/14/1 3/7/1
f 2/15/1 3/16/1 4/17/1 5/18/1 6/19/1 7/20/1 8/21/1 1/22/1
f 20/23/1 21/24/1 12/25/1 13/26/1
f 18/27/1 19/28/1 14/29/1 15/30/1
f 11/10/1 10/1/1 7/4/1 6/11/1
f 16/31/1 15/5/1 2/8/1 1/32/1
f 13/13/1 12/9/1 5/12/1 4/14/1
f 24/33/2 23/34/2 31/35/2 32/36/2
f 22/37/1 23/34/1 10/38/1 11/39/1
f 9/2/1 16/31/1 1/32/1 8/3/1
f 19/28/1 20/23/1 13/26/1 14/29/1
f 24/33/1 17/40/1 16/41/1 9/42/1
f 23/34/1 24/33/1 9/42/1 10/38/1
f 21/24/1 22/37/1 11/39/1 12/25/1
f 17/40/1 18/27/1 15/30/1 16/41/1
f 27/43/3 26/44/3 34/45/3 35/46/3
f 22/37/4 21/24/4 29/47/4 30/48/4
f 20/23/5 19/28/5 27/43/5 28/49/5
f 18/27/6 17/40/6 25/50/6 26/44/6
f 17/40/7 24/33/7 32/36/7 25/50/7
f 23/34/8 22/37/8 30/48/8 31/35/8
f 21/24/9 20/23/9 28/49/9 29/47/9
f 19/28/10 18/27/10 26/44/10 27/43/10
f 33/51/11 40/52/11 48/53/11 41/54/11
f 32/36/12 31/35/12 39/55/12 40/52/12
f 30/48/13 29/47/13 37/56/13 38/57/13
f 28/49/14 27/43/14 35/46/14 36/58/14
f 26/44/15 25/50/15 33/51/15 34/45/15
f 25/50/16 32/36/16 40/52/16 33/51/16
f 31/35/17 30/48/17 38/57/17 39/55/17
f 29/47/18 28/49/18 36/58/18 37/56/18
f 42/59/19 41/54/19 48/53/19 47/60/19 46/61/19 45/62/19 44/63/19 43/64/19
f 39/55/20 38/57/20 46/61/20 47/60/20
f 37/56/21 36/58/21 44/63/21 45/62/21
f 35/46/22 34/45/22 42/59/22 43/64/22
f 40/52/23 39/55/23 47/60/23 48/53/23
f 38/57/24 37/56/24 45/62/24 46/61/24
f 36/58/25 35/46/25 43/64/25 44/63/25
f 34/45/26 33/51/26 41/54/26 42/59/26
